M48
;DRILL file {KiCad 4.0.4+e1-6308~48~ubuntu14.04.1-stable} date Tue May 30 16:51:31 2017
;FORMAT={-:-/ absolute / inch / decimal}
FMAT,2
INCH,TZ
T1C0.020
%
G90
G05
M72
T1
X1.225Y-1.135
X1.34Y-3.11
X1.36Y-1.185
X1.36Y-1.26
X1.36Y-3.305
X1.36Y-3.375
X1.495Y-1.495
X1.525Y-3.23
X1.54Y-1.135
X1.635Y-1.73
X1.67Y-2.995
X1.75Y-3.11
X1.775Y-1.965
X1.78Y-2.205
X1.81Y-2.76
X1.945Y-2.52
X1.948Y-2.285
X1.95Y-2.2
X2.055Y-1.965
X2.055Y-2.52
X2.125Y-1.58
X2.161Y-2.205
X2.165Y-2.285
X2.17Y-1.965
X2.295Y-1.53
X2.3053Y-1.7303
X2.335Y-2.205
X2.335Y-2.285
X2.35Y-1.475
X2.365Y-2.52
X2.42Y-3.105
X2.5Y-2.76
X2.57Y-2.48
X2.585Y-1.26
X2.615Y-2.15
X2.64Y-2.995
X2.68Y-1.65
X2.775Y-3.23
X2.775Y-3.31
X2.775Y-3.375
X2.84Y-2.145
X2.84Y-2.48
X2.855Y-3.105
X2.925Y-1.87
X3.02Y-1.49
X3.205Y-2.075
X3.26Y-3.105
X3.29Y-1.255
X3.325Y-3.305
X3.325Y-3.38
X3.49Y-1.18
X3.495Y-3.23
X3.56Y-1.73
X3.615Y-2.995
X3.67Y-3.105
X3.7Y-1.965
X3.705Y-2.205
X3.705Y-2.285
X3.735Y-2.76
X3.87Y-2.52
X3.88Y-2.205
X3.88Y-2.285
X3.985Y-1.965
X3.985Y-2.525
X4.095Y-2.205
X4.095Y-2.285
X4.105Y-1.965
X4.24Y-1.73
X4.265Y-2.205
X4.265Y-2.285
X4.275Y-2.52
X4.345Y-3.105
X4.375Y-1.495
X4.38Y-1.18
X4.41Y-2.755
X4.515Y-1.255
X4.55Y-2.995
X4.685Y-3.31
X4.685Y-3.38
X4.69Y-3.23
X4.735Y-3.105
X4.785Y-1.505
X4.785Y-1.71
X5.005Y-1.26
X5.065Y-1.495
X5.145Y-1.73
X5.205Y-1.965
X5.28Y-2.2
X5.305Y-1.26
X5.345Y-2.44
X5.365Y-1.18
X5.425Y-2.675
X5.5Y-2.91
X5.525Y-1.92
X5.53Y-1.795
X5.56Y-3.145
X5.585Y-1.845
X5.59Y-1.94
X5.615Y-3.295
X5.635Y-3.385
X5.72Y-2.15
X5.785Y-1.935
X5.865Y-3.145
X5.99Y-3.145
X6.04Y-3.385
X6.055Y-1.805
X6.055Y-2.915
X6.085Y-1.65
X6.125Y-2.675
X6.19Y-2.44
X6.265Y-2.2
X6.325Y-1.965
X6.405Y-1.73
X6.415Y-1.3
X6.465Y-1.495
X6.54Y-1.255
X6.795Y-1.385
T0
M30
