G04 #@! TF.FileFunction,Copper,L2,Bot,Signal*
%FSLAX46Y46*%
G04 Gerber Fmt 4.6, Leading zero omitted, Abs format (unit mm)*
G04 Created by KiCad (PCBNEW 4.0.5+dfsg1-4) date Mon May 29 03:33:36 2017*
%MOMM*%
%LPD*%
G01*
G04 APERTURE LIST*
%ADD10C,0.100000*%
%ADD11R,1.250000X1.500000*%
%ADD12R,1.500000X1.250000*%
%ADD13R,3.500000X1.000000*%
%ADD14R,3.400000X1.600000*%
%ADD15R,1.500000X1.300000*%
%ADD16R,1.300000X1.500000*%
%ADD17R,1.060000X0.650000*%
%ADD18R,0.550000X1.600000*%
%ADD19R,1.600000X0.550000*%
%ADD20R,1.143000X0.508000*%
%ADD21C,3.000000*%
%ADD22R,1.000000X1.800000*%
%ADD23R,2.000000X2.000000*%
%ADD24R,0.800000X0.280000*%
%ADD25R,1.600000X2.150000*%
%ADD26R,2.400000X0.750000*%
%ADD27R,3.200000X1.000000*%
%ADD28R,0.400000X1.350000*%
%ADD29R,2.100000X1.600000*%
%ADD30R,1.800000X1.900000*%
%ADD31C,1.016000*%
%ADD32C,0.254000*%
%ADD33C,1.016000*%
%ADD34C,0.508000*%
%ADD35C,0.762000*%
%ADD36C,2.540000*%
G04 APERTURE END LIST*
D10*
D11*
X99949000Y-34016000D03*
X99949000Y-31516000D03*
D12*
X95016000Y-38735000D03*
X97516000Y-38735000D03*
D11*
X92456000Y-34016000D03*
X92456000Y-31516000D03*
X67437000Y-43708000D03*
X67437000Y-46208000D03*
D12*
X81808000Y-60198000D03*
X84308000Y-60198000D03*
D11*
X81915000Y-39858000D03*
X81915000Y-37358000D03*
X86487000Y-39858000D03*
X86487000Y-37358000D03*
X84201000Y-39858000D03*
X84201000Y-37358000D03*
X76390500Y-49994500D03*
X76390500Y-52494500D03*
X78930500Y-49994500D03*
X78930500Y-52494500D03*
X101219000Y-66568000D03*
X101219000Y-69068000D03*
X110236000Y-55646000D03*
X110236000Y-58146000D03*
D12*
X95651000Y-78867000D03*
X98151000Y-78867000D03*
X136545000Y-32004000D03*
X139045000Y-32004000D03*
X107930000Y-78867000D03*
X105430000Y-78867000D03*
X58908000Y-78994000D03*
X56408000Y-78994000D03*
X162921000Y-35052000D03*
X160421000Y-35052000D03*
X41041000Y-28829000D03*
X43541000Y-28829000D03*
X47137000Y-78994000D03*
X49637000Y-78994000D03*
X140442000Y-83820000D03*
X137942000Y-83820000D03*
D11*
X60960000Y-55900000D03*
X60960000Y-58400000D03*
X52197000Y-66949000D03*
X52197000Y-69449000D03*
D13*
X127235000Y-42021000D03*
X127235000Y-40021000D03*
D14*
X121685000Y-44421000D03*
X121685000Y-37621000D03*
D15*
X81835000Y-57912000D03*
X84535000Y-57912000D03*
X84535000Y-55753000D03*
X81835000Y-55753000D03*
D16*
X64643000Y-43514000D03*
X64643000Y-40814000D03*
D17*
X97366000Y-34737000D03*
X97366000Y-35687000D03*
X97366000Y-36637000D03*
X95166000Y-36637000D03*
X95166000Y-34737000D03*
D18*
X76968000Y-44128000D03*
X76168000Y-44128000D03*
X75368000Y-44128000D03*
X74568000Y-44128000D03*
X73768000Y-44128000D03*
X72968000Y-44128000D03*
X72168000Y-44128000D03*
X71368000Y-44128000D03*
D19*
X69918000Y-42678000D03*
X69918000Y-41878000D03*
X69918000Y-41078000D03*
X69918000Y-40278000D03*
X69918000Y-39478000D03*
X69918000Y-38678000D03*
X69918000Y-37878000D03*
X69918000Y-37078000D03*
D18*
X71368000Y-35628000D03*
X72168000Y-35628000D03*
X72968000Y-35628000D03*
X73768000Y-35628000D03*
X74568000Y-35628000D03*
X75368000Y-35628000D03*
X76168000Y-35628000D03*
X76968000Y-35628000D03*
D19*
X78418000Y-37078000D03*
X78418000Y-37878000D03*
X78418000Y-38678000D03*
X78418000Y-39478000D03*
X78418000Y-40278000D03*
X78418000Y-41078000D03*
X78418000Y-41878000D03*
X78418000Y-42678000D03*
D20*
X61849000Y-40132000D03*
X61849000Y-41402000D03*
X61849000Y-42672000D03*
X61849000Y-43942000D03*
X61849000Y-45212000D03*
X61849000Y-46482000D03*
X61849000Y-47752000D03*
X55499000Y-47752000D03*
X55499000Y-46482000D03*
X55499000Y-43942000D03*
X55499000Y-42672000D03*
X55499000Y-41402000D03*
X55499000Y-40132000D03*
X55499000Y-45212000D03*
D21*
X124333000Y-33909000D03*
X91948000Y-41021000D03*
X145288000Y-51816000D03*
D22*
X76410500Y-47434500D03*
X78910500Y-47434500D03*
D11*
X156337000Y-47518000D03*
X156337000Y-50018000D03*
D12*
X152507000Y-44196000D03*
X150007000Y-44196000D03*
D11*
X143510000Y-46462000D03*
X143510000Y-43962000D03*
X145542000Y-46462000D03*
X145542000Y-43962000D03*
X147574000Y-46462000D03*
X147574000Y-43962000D03*
D23*
X153507000Y-52705000D03*
X149007000Y-52705000D03*
D24*
X152719500Y-48498000D03*
X149794500Y-48498000D03*
X152719500Y-47998000D03*
X149794500Y-47998000D03*
X152719500Y-47498000D03*
X149794500Y-47498000D03*
X152719500Y-46998000D03*
X149794500Y-46998000D03*
X152719500Y-46498000D03*
X149794500Y-46498000D03*
D25*
X151257000Y-47498000D03*
D26*
X88564000Y-47625000D03*
X84664000Y-47625000D03*
X88564000Y-48895000D03*
X84664000Y-48895000D03*
X88564000Y-50165000D03*
X84664000Y-50165000D03*
X88564000Y-51435000D03*
X84664000Y-51435000D03*
X88564000Y-52705000D03*
X84664000Y-52705000D03*
D27*
X97819000Y-42069000D03*
X104619000Y-42069000D03*
X104619000Y-46069000D03*
X97819000Y-46069000D03*
X72107000Y-55975000D03*
X65307000Y-55975000D03*
X65307000Y-51975000D03*
X72107000Y-51975000D03*
X72107000Y-64357000D03*
X65307000Y-64357000D03*
X65307000Y-60357000D03*
X72107000Y-60357000D03*
X72107000Y-72612000D03*
X65307000Y-72612000D03*
X65307000Y-68612000D03*
X72107000Y-68612000D03*
D28*
X75408000Y-31369000D03*
X76058000Y-31369000D03*
X76708000Y-31369000D03*
X77358000Y-31369000D03*
X78008000Y-31369000D03*
D29*
X73608000Y-31219000D03*
X79808000Y-31219000D03*
D30*
X75558000Y-28694000D03*
X77858000Y-28694000D03*
X80508000Y-28694000D03*
X72908000Y-28694000D03*
D15*
X152607000Y-41783000D03*
X149907000Y-41783000D03*
D31*
X45085000Y-49911000D03*
X45212000Y-56007000D03*
X41529000Y-43942000D03*
X34544000Y-32004000D03*
X37973000Y-37973000D03*
X108331000Y-58039000D03*
X59309000Y-58039000D03*
X74295000Y-47498000D03*
X68072000Y-41910000D03*
X65659000Y-32004000D03*
X166116000Y-31877000D03*
X164211000Y-37973000D03*
X162687000Y-43942000D03*
X155575000Y-67945000D03*
X157226000Y-61976000D03*
X159131000Y-55880000D03*
X160655000Y-49911000D03*
X153797000Y-74041000D03*
X152146000Y-79883000D03*
X153416000Y-85979000D03*
X143129000Y-85979000D03*
X141224000Y-79883000D03*
X139700000Y-73914000D03*
X137795000Y-67945000D03*
X135763000Y-61976000D03*
X134112000Y-55880000D03*
X132207000Y-49911000D03*
X130683000Y-43942000D03*
X128651000Y-37973000D03*
X127127000Y-32004000D03*
X114681000Y-31877000D03*
X111125000Y-37973000D03*
X107696000Y-43942000D03*
X104267000Y-49911000D03*
X108585000Y-64008000D03*
X112014000Y-69977000D03*
X115570000Y-76073000D03*
X119126000Y-82042000D03*
X88773000Y-82042000D03*
X91821000Y-76073000D03*
X94869000Y-70104000D03*
X98298000Y-64008000D03*
X55118000Y-56007000D03*
X104013000Y-56007000D03*
X98552000Y-58039000D03*
X94107000Y-56007000D03*
X93980000Y-49911000D03*
X90424000Y-43942000D03*
X83566000Y-31877000D03*
X38735000Y-82042000D03*
X42418000Y-76073000D03*
X70485000Y-82042000D03*
X67056000Y-76073000D03*
X63500000Y-70104000D03*
X60071000Y-64008000D03*
X45974000Y-70104000D03*
X49403000Y-64008000D03*
X58555000Y-43950000D03*
X55118000Y-49911000D03*
X49403000Y-58039000D03*
X142621000Y-83693000D03*
X148971000Y-79883000D03*
X172593000Y-35179000D03*
X134747000Y-32004000D03*
X39116000Y-28829000D03*
X153797000Y-45847000D03*
X53975000Y-40132000D03*
X101219000Y-49911000D03*
X101219000Y-64135000D03*
X93218000Y-78867000D03*
X82804000Y-78867000D03*
X44450000Y-78994000D03*
X34036000Y-78994000D03*
X52197000Y-64008000D03*
X52197000Y-49911000D03*
X110363000Y-78867000D03*
X120269000Y-78867000D03*
X61468000Y-78867000D03*
X72517000Y-78867000D03*
X146939000Y-49149000D03*
X141859000Y-46863000D03*
X141986000Y-49276000D03*
X94107000Y-58039000D03*
X98552000Y-56007000D03*
X108331000Y-56007000D03*
X104013000Y-58039000D03*
X45212000Y-58039000D03*
X49276000Y-55880000D03*
X59309000Y-56007000D03*
X54991000Y-58039000D03*
X81407000Y-52705000D03*
X76708000Y-37846000D03*
X154559000Y-41910000D03*
X136271000Y-29972000D03*
X111252000Y-29972000D03*
X88646000Y-29972000D03*
X59690000Y-37465000D03*
X58293000Y-38862000D03*
X66421000Y-54610000D03*
X72136000Y-54483000D03*
X65278000Y-62992000D03*
X72136000Y-62992000D03*
X34544000Y-30099000D03*
X31115000Y-28829000D03*
X34544000Y-85725000D03*
X70485000Y-85725000D03*
X70485000Y-84074000D03*
X34544000Y-83947000D03*
X84455000Y-85852000D03*
X118999000Y-85852000D03*
X118999000Y-84074000D03*
X84455000Y-83947000D03*
D32*
X78008000Y-31369000D02*
X78008000Y-32796000D01*
X78008000Y-32796000D02*
X78867000Y-33655000D01*
D33*
X110236000Y-58146000D02*
X108438000Y-58146000D01*
X108438000Y-58146000D02*
X108331000Y-58039000D01*
X60960000Y-58400000D02*
X59670000Y-58400000D01*
X59670000Y-58400000D02*
X59309000Y-58039000D01*
D34*
X78418000Y-39478000D02*
X79795000Y-39478000D01*
X79795000Y-39478000D02*
X81915000Y-37358000D01*
D35*
X97366000Y-35687000D02*
X98552000Y-35687000D01*
X99187000Y-37064000D02*
X97516000Y-38735000D01*
X99187000Y-36322000D02*
X99187000Y-37064000D01*
X98552000Y-35687000D02*
X99187000Y-36322000D01*
D34*
X69918000Y-41878000D02*
X68104000Y-41878000D01*
X68104000Y-41878000D02*
X68072000Y-41910000D01*
D33*
X58555000Y-43950000D02*
X58547000Y-43942000D01*
D35*
X95166000Y-36637000D02*
X95166000Y-38585000D01*
X95166000Y-38585000D02*
X95016000Y-38735000D01*
D34*
X91948000Y-41021000D02*
X91208000Y-41021000D01*
X91208000Y-41021000D02*
X90045000Y-39858000D01*
D32*
X88564000Y-47625000D02*
X87630000Y-47625000D01*
X87630000Y-47625000D02*
X86741000Y-48514000D01*
X86741000Y-53547000D02*
X84535000Y-55753000D01*
X86741000Y-48514000D02*
X86741000Y-53547000D01*
X67437000Y-43708000D02*
X64837000Y-43708000D01*
X64837000Y-43708000D02*
X64643000Y-43514000D01*
D34*
X67437000Y-43708000D02*
X68888000Y-43708000D01*
X68888000Y-43708000D02*
X69918000Y-42678000D01*
X78418000Y-41078000D02*
X76016000Y-41078000D01*
X74416000Y-42678000D02*
X69918000Y-42678000D01*
X76016000Y-41078000D02*
X74416000Y-42678000D01*
X88564000Y-47625000D02*
X88564000Y-44375000D01*
X88564000Y-44375000D02*
X85267000Y-41078000D01*
D35*
X86487000Y-39858000D02*
X90045000Y-39858000D01*
X90045000Y-39858000D02*
X95166000Y-34737000D01*
X95166000Y-34737000D02*
X93177000Y-34737000D01*
X93177000Y-34737000D02*
X92456000Y-34016000D01*
D34*
X84201000Y-39858000D02*
X84201000Y-40640000D01*
X84201000Y-40640000D02*
X84639000Y-41078000D01*
X78418000Y-41078000D02*
X84639000Y-41078000D01*
X84639000Y-41078000D02*
X85267000Y-41078000D01*
X85267000Y-41078000D02*
X86487000Y-39858000D01*
D33*
X140569000Y-83693000D02*
X142621000Y-83693000D01*
D36*
X146431000Y-79883000D02*
X142621000Y-83693000D01*
X148971000Y-79883000D02*
X146431000Y-79883000D01*
D33*
X140569000Y-83693000D02*
X140442000Y-83820000D01*
X52197000Y-64008000D02*
X52197000Y-66949000D01*
X172466000Y-35052000D02*
X162921000Y-35052000D01*
X172593000Y-35179000D02*
X172466000Y-35052000D01*
X136545000Y-32004000D02*
X134747000Y-32004000D01*
X49276000Y-55880000D02*
X50292000Y-55880000D01*
X50292000Y-55880000D02*
X52197000Y-57785000D01*
X54991000Y-58039000D02*
X54483000Y-58039000D01*
X54483000Y-58039000D02*
X52197000Y-55753000D01*
X98552000Y-56007000D02*
X99695000Y-56007000D01*
X99695000Y-56007000D02*
X101219000Y-54483000D01*
X104013000Y-58039000D02*
X102870000Y-58039000D01*
X101092000Y-59944000D02*
X101219000Y-59944000D01*
X101219000Y-59817000D02*
X101092000Y-59944000D01*
X101219000Y-59690000D02*
X101219000Y-59817000D01*
X102870000Y-58039000D02*
X101219000Y-59690000D01*
X110236000Y-55646000D02*
X108692000Y-55646000D01*
X108692000Y-55646000D02*
X108331000Y-56007000D01*
X60960000Y-55900000D02*
X59416000Y-55900000D01*
X59416000Y-55900000D02*
X59309000Y-56007000D01*
X39116000Y-28829000D02*
X41041000Y-28829000D01*
D32*
X152719500Y-46998000D02*
X153408000Y-46998000D01*
X153797000Y-46609000D02*
X153797000Y-45847000D01*
X153408000Y-46998000D02*
X153797000Y-46609000D01*
X55499000Y-40132000D02*
X53975000Y-40132000D01*
X54038500Y-40322500D02*
X53975000Y-40386000D01*
X53975000Y-40894000D02*
X53975000Y-43688000D01*
X53975000Y-43688000D02*
X55499000Y-45212000D01*
D33*
X101219000Y-66568000D02*
X101219000Y-64135000D01*
D36*
X101219000Y-54483000D02*
X101219000Y-49911000D01*
X101219000Y-59944000D02*
X101219000Y-54483000D01*
X101219000Y-64008000D02*
X101219000Y-59944000D01*
D33*
X101219000Y-64135000D02*
X101219000Y-64008000D01*
X107930000Y-78867000D02*
X110363000Y-78867000D01*
X95651000Y-78867000D02*
X93218000Y-78867000D01*
D36*
X93218000Y-78867000D02*
X82804000Y-78867000D01*
D33*
X58908000Y-78994000D02*
X61341000Y-78994000D01*
X61341000Y-78994000D02*
X61468000Y-78867000D01*
X47137000Y-78994000D02*
X44450000Y-78994000D01*
D36*
X44450000Y-78994000D02*
X34036000Y-78994000D01*
X52197000Y-64008000D02*
X52197000Y-57785000D01*
X52197000Y-57785000D02*
X52197000Y-55753000D01*
X52197000Y-55753000D02*
X52197000Y-49911000D01*
D32*
X55499000Y-41402000D02*
X54356000Y-41402000D01*
X54229000Y-40132000D02*
X55499000Y-40132000D01*
X54038500Y-40322500D02*
X54229000Y-40132000D01*
X53975000Y-41021000D02*
X53975000Y-40894000D01*
X53975000Y-40894000D02*
X53975000Y-40386000D01*
X54356000Y-41402000D02*
X53975000Y-41021000D01*
D36*
X120269000Y-78867000D02*
X110363000Y-78867000D01*
X72517000Y-78867000D02*
X61468000Y-78867000D01*
D32*
X149794500Y-47498000D02*
X148590000Y-47498000D01*
X148590000Y-47498000D02*
X146939000Y-49149000D01*
X149794500Y-46998000D02*
X148110000Y-46998000D01*
X148110000Y-46998000D02*
X147574000Y-46462000D01*
D34*
X145288000Y-48006000D02*
X146030000Y-48006000D01*
X146030000Y-48006000D02*
X147574000Y-46462000D01*
X145288000Y-48240000D02*
X145288000Y-48006000D01*
X145288000Y-48006000D02*
X145288000Y-46716000D01*
X145288000Y-46716000D02*
X145542000Y-46462000D01*
X145288000Y-49276000D02*
X145288000Y-48240000D01*
X145288000Y-51816000D02*
X145288000Y-49276000D01*
X145288000Y-48240000D02*
X143510000Y-46462000D01*
D32*
X149786500Y-46990000D02*
X149794500Y-46998000D01*
D33*
X96520000Y-58039000D02*
X94107000Y-58039000D01*
X98552000Y-56007000D02*
X96520000Y-58039000D01*
X106045000Y-56007000D02*
X108331000Y-56007000D01*
X104013000Y-58039000D02*
X106045000Y-56007000D01*
X47117000Y-58039000D02*
X45212000Y-58039000D01*
X49276000Y-55880000D02*
X47117000Y-58039000D01*
X57023000Y-56007000D02*
X59309000Y-56007000D01*
X54991000Y-58039000D02*
X57023000Y-56007000D01*
D32*
X81835000Y-55753000D02*
X81835000Y-57912000D01*
X81835000Y-57912000D02*
X81808000Y-57939000D01*
X81808000Y-57939000D02*
X81808000Y-60198000D01*
X81808000Y-56288000D02*
X81835000Y-56261000D01*
X81407000Y-52705000D02*
X81407000Y-55833000D01*
X81407000Y-55833000D02*
X81835000Y-56261000D01*
X78418000Y-37878000D02*
X76740000Y-37878000D01*
X81407000Y-52705000D02*
X84664000Y-52705000D01*
X76740000Y-37878000D02*
X76708000Y-37846000D01*
X78418000Y-40278000D02*
X81495000Y-40278000D01*
X81495000Y-40278000D02*
X81915000Y-39858000D01*
X76168000Y-44128000D02*
X76168000Y-47192000D01*
X76168000Y-47192000D02*
X76390500Y-47414500D01*
X76390500Y-47414500D02*
X76390500Y-49994500D01*
X78930500Y-49994500D02*
X78930500Y-47454500D01*
X78930500Y-47454500D02*
X76968000Y-45492000D01*
X76968000Y-45492000D02*
X76968000Y-44128000D01*
X78418000Y-37078000D02*
X79635000Y-37078000D01*
X154432000Y-41783000D02*
X152607000Y-41783000D01*
X154559000Y-41910000D02*
X154432000Y-41783000D01*
X111252000Y-29972000D02*
X136271000Y-29972000D01*
X86741000Y-29972000D02*
X88646000Y-29972000D01*
X79635000Y-37078000D02*
X86741000Y-29972000D01*
X152719500Y-47998000D02*
X153916000Y-47998000D01*
X154601777Y-43777777D02*
X152607000Y-41783000D01*
X154601777Y-47312223D02*
X154601777Y-43777777D01*
X153916000Y-47998000D02*
X154601777Y-47312223D01*
X84535000Y-57912000D02*
X88519000Y-57912000D01*
X97819000Y-48612000D02*
X97819000Y-46069000D01*
X88519000Y-57912000D02*
X97819000Y-48612000D01*
X104619000Y-46069000D02*
X97819000Y-46069000D01*
X61849000Y-43942000D02*
X61468000Y-43942000D01*
X61468000Y-43942000D02*
X58293000Y-40767000D01*
X72968000Y-34360000D02*
X72968000Y-35628000D01*
X72136000Y-33528000D02*
X72968000Y-34360000D01*
X69469000Y-33528000D02*
X72136000Y-33528000D01*
X66167000Y-36830000D02*
X69469000Y-33528000D01*
X60325000Y-36830000D02*
X66167000Y-36830000D01*
X59690000Y-37465000D02*
X60325000Y-36830000D01*
X58293000Y-40767000D02*
X58293000Y-38862000D01*
X61849000Y-43942000D02*
X62484000Y-43942000D01*
X62865000Y-43561000D02*
X62865000Y-40132000D01*
X62484000Y-43942000D02*
X62865000Y-43561000D01*
X61849000Y-40132000D02*
X62865000Y-40132000D01*
X62865000Y-40132000D02*
X63961000Y-40132000D01*
X63961000Y-40132000D02*
X64643000Y-40814000D01*
X65307000Y-55975000D02*
X65307000Y-55724000D01*
X65307000Y-55724000D02*
X66421000Y-54610000D01*
X72136000Y-54483000D02*
X72107000Y-54512000D01*
X72107000Y-54512000D02*
X72107000Y-55975000D01*
X72968000Y-44128000D02*
X72968000Y-48190000D01*
X69977000Y-53845000D02*
X72107000Y-55975000D01*
X69977000Y-51181000D02*
X69977000Y-53845000D01*
X72968000Y-48190000D02*
X69977000Y-51181000D01*
X72107000Y-64357000D02*
X72107000Y-63021000D01*
X65307000Y-63021000D02*
X65307000Y-64357000D01*
X65278000Y-62992000D02*
X65307000Y-63021000D01*
X72107000Y-63021000D02*
X72136000Y-62992000D01*
X72168000Y-44128000D02*
X72168000Y-48101000D01*
X69469000Y-61719000D02*
X72107000Y-64357000D01*
X69469000Y-50800000D02*
X69469000Y-61719000D01*
X72168000Y-48101000D02*
X69469000Y-50800000D01*
X65307000Y-72612000D02*
X72107000Y-72612000D01*
X71368000Y-44128000D02*
X71368000Y-48127000D01*
X68961000Y-69466000D02*
X72107000Y-72612000D01*
X68961000Y-50534000D02*
X68961000Y-69466000D01*
X71368000Y-48127000D02*
X68961000Y-50534000D01*
X61849000Y-45212000D02*
X62611000Y-45212000D01*
X68766000Y-35628000D02*
X71368000Y-35628000D01*
X67056000Y-37338000D02*
X68766000Y-35628000D01*
X67056000Y-41021000D02*
X67056000Y-37338000D01*
X65913000Y-42164000D02*
X67056000Y-41021000D01*
X63881000Y-42164000D02*
X65913000Y-42164000D01*
X63373000Y-42672000D02*
X63881000Y-42164000D01*
X63373000Y-44450000D02*
X63373000Y-42672000D01*
X62611000Y-45212000D02*
X63373000Y-44450000D01*
X61849000Y-41402000D02*
X60960000Y-41402000D01*
X72136000Y-34417000D02*
X72136000Y-35596000D01*
X71755000Y-34036000D02*
X72136000Y-34417000D01*
X69723000Y-34036000D02*
X71755000Y-34036000D01*
X64770000Y-38989000D02*
X69723000Y-34036000D01*
X61341000Y-38989000D02*
X64770000Y-38989000D01*
X60706000Y-39624000D02*
X61341000Y-38989000D01*
X60706000Y-41148000D02*
X60706000Y-39624000D01*
X60960000Y-41402000D02*
X60706000Y-41148000D01*
X72136000Y-35596000D02*
X72168000Y-35628000D01*
X84664000Y-48895000D02*
X85598000Y-48895000D01*
X85598000Y-48895000D02*
X86868000Y-47625000D01*
X86868000Y-47625000D02*
X86868000Y-43561000D01*
X86868000Y-43561000D02*
X85185000Y-41878000D01*
X85185000Y-41878000D02*
X78418000Y-41878000D01*
X84664000Y-47625000D02*
X85979000Y-47625000D01*
X85350000Y-42678000D02*
X78418000Y-42678000D01*
X86461598Y-43789598D02*
X85350000Y-42678000D01*
X86461598Y-47142402D02*
X86461598Y-43789598D01*
X85979000Y-47625000D02*
X86461598Y-47142402D01*
X61849000Y-42672000D02*
X61341000Y-42672000D01*
X61341000Y-42672000D02*
X59944000Y-41275000D01*
X59944000Y-41275000D02*
X59944000Y-38989000D01*
X59944000Y-38989000D02*
X58801000Y-37846000D01*
X58801000Y-37846000D02*
X49530000Y-37846000D01*
X49530000Y-37846000D02*
X41783000Y-30099000D01*
X41783000Y-30099000D02*
X34544000Y-30099000D01*
X61849000Y-46482000D02*
X61341000Y-46482000D01*
X61341000Y-46482000D02*
X60579000Y-45720000D01*
X60579000Y-45720000D02*
X60579000Y-44069000D01*
X60579000Y-44069000D02*
X57150000Y-40640000D01*
X57150000Y-40640000D02*
X57150000Y-39370000D01*
X57150000Y-39370000D02*
X56134000Y-38354000D01*
X56134000Y-38354000D02*
X49149000Y-38354000D01*
X49149000Y-38354000D02*
X41783000Y-30988000D01*
X41783000Y-30988000D02*
X31750000Y-30988000D01*
X31750000Y-30988000D02*
X31115000Y-30353000D01*
X31115000Y-30353000D02*
X31115000Y-28829000D01*
X70358000Y-85725000D02*
X34544000Y-85725000D01*
X70485000Y-85725000D02*
X70358000Y-85725000D01*
X34671000Y-84074000D02*
X70485000Y-84074000D01*
X34544000Y-83947000D02*
X34671000Y-84074000D01*
X118999000Y-85852000D02*
X84455000Y-85852000D01*
X84582000Y-84074000D02*
X118999000Y-84074000D01*
X84455000Y-83947000D02*
X84582000Y-84074000D01*
X153507000Y-49546000D02*
X153507000Y-49285500D01*
D33*
X153507000Y-49546000D02*
X155956000Y-47097000D01*
X156992000Y-47097000D02*
X155956000Y-47097000D01*
D32*
X154555000Y-48498000D02*
X155956000Y-47097000D01*
X153507000Y-49285500D02*
X152719500Y-48498000D01*
D35*
X97366000Y-34737000D02*
X99228000Y-34737000D01*
X99228000Y-34737000D02*
X99949000Y-34016000D01*
X127235000Y-40021000D02*
X105954000Y-40021000D01*
X105954000Y-40021000D02*
X99949000Y-34016000D01*
D33*
X153507000Y-52705000D02*
X153507000Y-49546000D01*
X127235000Y-40021000D02*
X154702000Y-40021000D01*
X154702000Y-40021000D02*
X157861000Y-43180000D01*
X157861000Y-43180000D02*
X157861000Y-46228000D01*
X157861000Y-46228000D02*
X156992000Y-47097000D01*
D34*
X153416000Y-52614000D02*
X153507000Y-52705000D01*
D32*
X152719500Y-48498000D02*
X154555000Y-48498000D01*
D34*
X97366000Y-36637000D02*
X96581000Y-36637000D01*
X96708000Y-34737000D02*
X97366000Y-34737000D01*
X96266000Y-35179000D02*
X96708000Y-34737000D01*
X96266000Y-36322000D02*
X96266000Y-35179000D01*
X96581000Y-36637000D02*
X96266000Y-36322000D01*
D32*
X152507000Y-44196000D02*
X152507000Y-46285500D01*
X152507000Y-46285500D02*
X152719500Y-46498000D01*
D34*
X149082000Y-48498000D02*
X149082000Y-52630000D01*
X149082000Y-52630000D02*
X149007000Y-52705000D01*
D32*
X149794500Y-47998000D02*
X149106000Y-47998000D01*
X149082000Y-48498000D02*
X149794500Y-48498000D01*
X148971000Y-48387000D02*
X149082000Y-48498000D01*
X148971000Y-48133000D02*
X148971000Y-48387000D01*
X149106000Y-47998000D02*
X148971000Y-48133000D01*
X76510801Y-34507277D02*
X76413599Y-34604479D01*
X76413599Y-34604479D02*
X76413599Y-35382401D01*
X76058000Y-31369000D02*
X76228599Y-31539599D01*
X76228599Y-31539599D02*
X76228599Y-32264086D01*
X76228599Y-32264086D02*
X76510801Y-32546288D01*
X76510801Y-32546288D02*
X76510801Y-34507277D01*
X76413599Y-35382401D02*
X76168000Y-35628000D01*
X76708000Y-31369000D02*
X76708000Y-31372422D01*
X76708000Y-31372422D02*
X76878599Y-31543021D01*
X76878599Y-31543021D02*
X76878599Y-32267521D01*
X76878599Y-32267521D02*
X76968000Y-32356922D01*
X76968000Y-32356922D02*
X76968000Y-35285200D01*
X76968000Y-35285200D02*
X76968000Y-35628000D01*
X76708000Y-31369000D02*
X76708000Y-31444264D01*
X76968000Y-35234400D02*
X76968000Y-35628000D01*
G36*
X71411569Y-27492110D02*
X71360560Y-27744000D01*
X71360560Y-29644000D01*
X71404838Y-29879317D01*
X71543910Y-30095441D01*
X71756110Y-30240431D01*
X71930056Y-30275656D01*
X71923000Y-30292690D01*
X71923000Y-30996750D01*
X72081750Y-31155500D01*
X73544500Y-31155500D01*
X73544500Y-31135500D01*
X73671500Y-31135500D01*
X73671500Y-31155500D01*
X73691500Y-31155500D01*
X73691500Y-31282500D01*
X73671500Y-31282500D01*
X73671500Y-32495250D01*
X73830250Y-32654000D01*
X74784309Y-32654000D01*
X74903632Y-32604575D01*
X74956110Y-32640431D01*
X75208000Y-32691440D01*
X75608000Y-32691440D01*
X75614492Y-32690218D01*
X75665128Y-32766001D01*
X75689784Y-32802901D01*
X75748801Y-32861918D01*
X75748801Y-34201985D01*
X75643000Y-34180560D01*
X75093000Y-34180560D01*
X74963411Y-34204944D01*
X74843000Y-34180560D01*
X74293000Y-34180560D01*
X74163411Y-34204944D01*
X74043000Y-34180560D01*
X73694307Y-34180560D01*
X73671996Y-34068395D01*
X73569949Y-33915671D01*
X73506816Y-33821185D01*
X72674815Y-32989185D01*
X72542837Y-32901000D01*
X72427605Y-32824004D01*
X72136000Y-32766000D01*
X69469000Y-32766000D01*
X69177395Y-32824004D01*
X68930185Y-32989185D01*
X65851370Y-36068000D01*
X60325000Y-36068000D01*
X60033395Y-36126004D01*
X59972316Y-36166816D01*
X59786185Y-36291184D01*
X59755312Y-36322057D01*
X59463641Y-36321802D01*
X59043388Y-36495446D01*
X58721577Y-36816697D01*
X58610583Y-37084000D01*
X49845631Y-37084000D01*
X46303465Y-33541834D01*
X49434543Y-33541834D01*
X49834853Y-34510658D01*
X50575443Y-35252542D01*
X51543567Y-35654542D01*
X52591834Y-35655457D01*
X53560658Y-35255147D01*
X54302542Y-34514557D01*
X54704542Y-33546433D01*
X54705457Y-32498166D01*
X54305147Y-31529342D01*
X54217209Y-31441250D01*
X71923000Y-31441250D01*
X71923000Y-32145310D01*
X72019673Y-32378699D01*
X72198302Y-32557327D01*
X72431691Y-32654000D01*
X73385750Y-32654000D01*
X73544500Y-32495250D01*
X73544500Y-31282500D01*
X72081750Y-31282500D01*
X71923000Y-31441250D01*
X54217209Y-31441250D01*
X53564557Y-30787458D01*
X52596433Y-30385458D01*
X51548166Y-30384543D01*
X50579342Y-30784853D01*
X49837458Y-31525443D01*
X49435458Y-32493567D01*
X49434543Y-33541834D01*
X46303465Y-33541834D01*
X42850630Y-30089000D01*
X43318750Y-30089000D01*
X43477500Y-29930250D01*
X43477500Y-28892500D01*
X43604500Y-28892500D01*
X43604500Y-29930250D01*
X43763250Y-30089000D01*
X44417309Y-30089000D01*
X44650698Y-29992327D01*
X44829327Y-29813699D01*
X44926000Y-29580310D01*
X44926000Y-29051250D01*
X44767250Y-28892500D01*
X43604500Y-28892500D01*
X43477500Y-28892500D01*
X43457500Y-28892500D01*
X43457500Y-28765500D01*
X43477500Y-28765500D01*
X43477500Y-27727750D01*
X43604500Y-27727750D01*
X43604500Y-28765500D01*
X44767250Y-28765500D01*
X44926000Y-28606750D01*
X44926000Y-28077690D01*
X44829327Y-27844301D01*
X44650698Y-27665673D01*
X44417309Y-27569000D01*
X43763250Y-27569000D01*
X43604500Y-27727750D01*
X43477500Y-27727750D01*
X43318750Y-27569000D01*
X42664691Y-27569000D01*
X42431302Y-27665673D01*
X42290064Y-27806910D01*
X42255090Y-27752559D01*
X42042890Y-27607569D01*
X41791000Y-27556560D01*
X40291000Y-27556560D01*
X40055683Y-27600838D01*
X39923338Y-27686000D01*
X39116425Y-27686000D01*
X38889641Y-27685802D01*
X38469388Y-27859446D01*
X38147577Y-28180697D01*
X37973199Y-28600646D01*
X37972802Y-29055359D01*
X38089173Y-29337000D01*
X35398367Y-29337000D01*
X35192303Y-29130577D01*
X34772354Y-28956199D01*
X34317641Y-28955802D01*
X33897388Y-29129446D01*
X33575577Y-29450697D01*
X33401199Y-29870646D01*
X33400889Y-30226000D01*
X32065631Y-30226000D01*
X31877000Y-30037370D01*
X31877000Y-29683367D01*
X32083423Y-29477303D01*
X32257801Y-29057354D01*
X32258198Y-28602641D01*
X32084554Y-28182388D01*
X31763303Y-27860577D01*
X31343354Y-27686199D01*
X30888641Y-27685802D01*
X30468388Y-27859446D01*
X30146577Y-28180697D01*
X29972199Y-28600646D01*
X29971802Y-29055359D01*
X30145446Y-29475612D01*
X30353000Y-29683528D01*
X30353000Y-30353000D01*
X30411004Y-30644605D01*
X30499868Y-30777599D01*
X30576185Y-30891815D01*
X31211185Y-31526816D01*
X31290033Y-31579500D01*
X31458395Y-31691996D01*
X31750000Y-31750000D01*
X41467370Y-31750000D01*
X48610185Y-38892815D01*
X48857395Y-39057996D01*
X49149000Y-39116000D01*
X53440797Y-39116000D01*
X53328388Y-39162446D01*
X53006577Y-39483697D01*
X52832199Y-39903646D01*
X52831802Y-40358359D01*
X53005446Y-40778612D01*
X53213000Y-40986528D01*
X53213000Y-43688000D01*
X53271004Y-43979605D01*
X53351326Y-44099815D01*
X53436185Y-44226815D01*
X54280060Y-45070691D01*
X54280060Y-45466000D01*
X54324338Y-45701317D01*
X54415104Y-45842371D01*
X54389173Y-45868302D01*
X54292500Y-46101691D01*
X54292500Y-46259750D01*
X54451250Y-46418500D01*
X55435500Y-46418500D01*
X55435500Y-46398500D01*
X55562500Y-46398500D01*
X55562500Y-46418500D01*
X56546750Y-46418500D01*
X56705500Y-46259750D01*
X56705500Y-46101691D01*
X56608827Y-45868302D01*
X56582291Y-45841765D01*
X56666931Y-45717890D01*
X56717940Y-45466000D01*
X56717940Y-44958000D01*
X56673662Y-44722683D01*
X56579334Y-44576093D01*
X56666931Y-44447890D01*
X56717940Y-44196000D01*
X56717940Y-43688000D01*
X56673662Y-43452683D01*
X56582896Y-43311629D01*
X56608827Y-43285698D01*
X56705500Y-43052309D01*
X56705500Y-42894250D01*
X56546750Y-42735500D01*
X55562500Y-42735500D01*
X55562500Y-42755500D01*
X55435500Y-42755500D01*
X55435500Y-42735500D01*
X55415500Y-42735500D01*
X55415500Y-42608500D01*
X55435500Y-42608500D01*
X55435500Y-42588500D01*
X55562500Y-42588500D01*
X55562500Y-42608500D01*
X56546750Y-42608500D01*
X56705500Y-42449750D01*
X56705500Y-42291691D01*
X56608827Y-42058302D01*
X56582291Y-42031765D01*
X56666931Y-41907890D01*
X56717940Y-41656000D01*
X56717940Y-41285570D01*
X59817000Y-44384631D01*
X59817000Y-45720000D01*
X59875004Y-46011605D01*
X60036968Y-46254000D01*
X60040185Y-46258815D01*
X60656179Y-46874810D01*
X60674338Y-46971317D01*
X60765104Y-47112371D01*
X60739173Y-47138302D01*
X60642500Y-47371691D01*
X60642500Y-47529750D01*
X60801250Y-47688500D01*
X61785500Y-47688500D01*
X61785500Y-47668500D01*
X61912500Y-47668500D01*
X61912500Y-47688500D01*
X62896750Y-47688500D01*
X63055500Y-47529750D01*
X63055500Y-47371691D01*
X62958827Y-47138302D01*
X62932291Y-47111765D01*
X63016931Y-46987890D01*
X63067940Y-46736000D01*
X63067940Y-46430250D01*
X66177000Y-46430250D01*
X66177000Y-47084309D01*
X66273673Y-47317698D01*
X66452301Y-47496327D01*
X66685690Y-47593000D01*
X67214750Y-47593000D01*
X67373500Y-47434250D01*
X67373500Y-46271500D01*
X67500500Y-46271500D01*
X67500500Y-47434250D01*
X67659250Y-47593000D01*
X68188310Y-47593000D01*
X68421699Y-47496327D01*
X68600327Y-47317698D01*
X68697000Y-47084309D01*
X68697000Y-46430250D01*
X68538250Y-46271500D01*
X67500500Y-46271500D01*
X67373500Y-46271500D01*
X66335750Y-46271500D01*
X66177000Y-46430250D01*
X63067940Y-46430250D01*
X63067940Y-46228000D01*
X63023662Y-45992683D01*
X62952753Y-45882488D01*
X63149815Y-45750815D01*
X63911816Y-44988815D01*
X63967030Y-44906181D01*
X63993000Y-44911440D01*
X65293000Y-44911440D01*
X65528317Y-44867162D01*
X65744441Y-44728090D01*
X65889431Y-44515890D01*
X65898724Y-44470000D01*
X66166818Y-44470000D01*
X66208838Y-44693317D01*
X66347910Y-44909441D01*
X66416006Y-44955969D01*
X66273673Y-45098302D01*
X66177000Y-45331691D01*
X66177000Y-45985750D01*
X66335750Y-46144500D01*
X67373500Y-46144500D01*
X67373500Y-46124500D01*
X67500500Y-46124500D01*
X67500500Y-46144500D01*
X68538250Y-46144500D01*
X68697000Y-45985750D01*
X68697000Y-45331691D01*
X68600327Y-45098302D01*
X68459090Y-44957064D01*
X68513441Y-44922090D01*
X68658431Y-44709890D01*
X68681292Y-44597000D01*
X68888000Y-44597000D01*
X69228206Y-44529329D01*
X69516618Y-44336618D01*
X70252796Y-43600440D01*
X70445560Y-43600440D01*
X70445560Y-44928000D01*
X70489838Y-45163317D01*
X70606000Y-45343838D01*
X70606000Y-47811370D01*
X68422185Y-49995185D01*
X68257004Y-50242395D01*
X68199000Y-50534000D01*
X68199000Y-69466000D01*
X68257004Y-69757605D01*
X68381756Y-69944309D01*
X68422185Y-70004815D01*
X70061474Y-71644104D01*
X70055559Y-71647910D01*
X69917477Y-71850000D01*
X67492992Y-71850000D01*
X67371090Y-71660559D01*
X67158890Y-71515569D01*
X66907000Y-71464560D01*
X63707000Y-71464560D01*
X63471683Y-71508838D01*
X63255559Y-71647910D01*
X63110569Y-71860110D01*
X63059560Y-72112000D01*
X63059560Y-73112000D01*
X63103838Y-73347317D01*
X63242910Y-73563441D01*
X63455110Y-73708431D01*
X63707000Y-73759440D01*
X66907000Y-73759440D01*
X67142317Y-73715162D01*
X67358441Y-73576090D01*
X67496523Y-73374000D01*
X69921008Y-73374000D01*
X70042910Y-73563441D01*
X70255110Y-73708431D01*
X70507000Y-73759440D01*
X73707000Y-73759440D01*
X73942317Y-73715162D01*
X74158441Y-73576090D01*
X74303431Y-73363890D01*
X74354440Y-73112000D01*
X74354440Y-72112000D01*
X74310162Y-71876683D01*
X74171090Y-71660559D01*
X73958890Y-71515569D01*
X73707000Y-71464560D01*
X72037190Y-71464560D01*
X70276453Y-69703823D01*
X70380691Y-69747000D01*
X71884750Y-69747000D01*
X72043500Y-69588250D01*
X72043500Y-68675500D01*
X72170500Y-68675500D01*
X72170500Y-69588250D01*
X72329250Y-69747000D01*
X73833309Y-69747000D01*
X74066698Y-69650327D01*
X74245327Y-69471699D01*
X74320485Y-69290250D01*
X99959000Y-69290250D01*
X99959000Y-69944309D01*
X100055673Y-70177698D01*
X100234301Y-70356327D01*
X100467690Y-70453000D01*
X100996750Y-70453000D01*
X101155500Y-70294250D01*
X101155500Y-69131500D01*
X101282500Y-69131500D01*
X101282500Y-70294250D01*
X101441250Y-70453000D01*
X101970310Y-70453000D01*
X102203699Y-70356327D01*
X102382327Y-70177698D01*
X102479000Y-69944309D01*
X102479000Y-69290250D01*
X102320250Y-69131500D01*
X101282500Y-69131500D01*
X101155500Y-69131500D01*
X100117750Y-69131500D01*
X99959000Y-69290250D01*
X74320485Y-69290250D01*
X74342000Y-69238310D01*
X74342000Y-68834250D01*
X74183250Y-68675500D01*
X72170500Y-68675500D01*
X72043500Y-68675500D01*
X70030750Y-68675500D01*
X69872000Y-68834250D01*
X69872000Y-69238310D01*
X69915176Y-69342546D01*
X69723000Y-69150370D01*
X69723000Y-67985690D01*
X69872000Y-67985690D01*
X69872000Y-68389750D01*
X70030750Y-68548500D01*
X72043500Y-68548500D01*
X72043500Y-67635750D01*
X72170500Y-67635750D01*
X72170500Y-68548500D01*
X74183250Y-68548500D01*
X74342000Y-68389750D01*
X74342000Y-67985690D01*
X74245327Y-67752301D01*
X74066698Y-67573673D01*
X73833309Y-67477000D01*
X72329250Y-67477000D01*
X72170500Y-67635750D01*
X72043500Y-67635750D01*
X71884750Y-67477000D01*
X70380691Y-67477000D01*
X70147302Y-67573673D01*
X69968673Y-67752301D01*
X69872000Y-67985690D01*
X69723000Y-67985690D01*
X69723000Y-63050630D01*
X70061474Y-63389104D01*
X70055559Y-63392910D01*
X69910569Y-63605110D01*
X69859560Y-63857000D01*
X69859560Y-64857000D01*
X69903838Y-65092317D01*
X70042910Y-65308441D01*
X70255110Y-65453431D01*
X70507000Y-65504440D01*
X73707000Y-65504440D01*
X73942317Y-65460162D01*
X74158441Y-65321090D01*
X74303431Y-65108890D01*
X74354440Y-64857000D01*
X74354440Y-63857000D01*
X74310162Y-63621683D01*
X74171090Y-63405559D01*
X73958890Y-63260569D01*
X73707000Y-63209560D01*
X73278810Y-63209560D01*
X73279198Y-62765641D01*
X73105554Y-62345388D01*
X72784303Y-62023577D01*
X72364354Y-61849199D01*
X71909641Y-61848802D01*
X71489388Y-62022446D01*
X71169454Y-62341823D01*
X70276453Y-61448823D01*
X70380691Y-61492000D01*
X71884750Y-61492000D01*
X72043500Y-61333250D01*
X72043500Y-60420500D01*
X72170500Y-60420500D01*
X72170500Y-61333250D01*
X72329250Y-61492000D01*
X73833309Y-61492000D01*
X74066698Y-61395327D01*
X74245327Y-61216699D01*
X74342000Y-60983310D01*
X74342000Y-60579250D01*
X74183250Y-60420500D01*
X72170500Y-60420500D01*
X72043500Y-60420500D01*
X72023500Y-60420500D01*
X72023500Y-60293500D01*
X72043500Y-60293500D01*
X72043500Y-59380750D01*
X72170500Y-59380750D01*
X72170500Y-60293500D01*
X74183250Y-60293500D01*
X74342000Y-60134750D01*
X74342000Y-59730690D01*
X74245327Y-59497301D01*
X74066698Y-59318673D01*
X73833309Y-59222000D01*
X72329250Y-59222000D01*
X72170500Y-59380750D01*
X72043500Y-59380750D01*
X71884750Y-59222000D01*
X70380691Y-59222000D01*
X70231000Y-59284004D01*
X70231000Y-57054957D01*
X70255110Y-57071431D01*
X70507000Y-57122440D01*
X73707000Y-57122440D01*
X73942317Y-57078162D01*
X74158441Y-56939090D01*
X74303431Y-56726890D01*
X74354440Y-56475000D01*
X74354440Y-55475000D01*
X74310162Y-55239683D01*
X74171090Y-55023559D01*
X73958890Y-54878569D01*
X73707000Y-54827560D01*
X73230548Y-54827560D01*
X73278801Y-54711354D01*
X73279198Y-54256641D01*
X73105554Y-53836388D01*
X72784303Y-53514577D01*
X72364354Y-53340199D01*
X71909641Y-53339802D01*
X71489388Y-53513446D01*
X71167577Y-53834697D01*
X71131415Y-53921785D01*
X70739000Y-53529370D01*
X70739000Y-53110000D01*
X71884750Y-53110000D01*
X72043500Y-52951250D01*
X72043500Y-52038500D01*
X72170500Y-52038500D01*
X72170500Y-52951250D01*
X72329250Y-53110000D01*
X73833309Y-53110000D01*
X74066698Y-53013327D01*
X74245327Y-52834699D01*
X74294183Y-52716750D01*
X75130500Y-52716750D01*
X75130500Y-53370809D01*
X75227173Y-53604198D01*
X75405801Y-53782827D01*
X75639190Y-53879500D01*
X76168250Y-53879500D01*
X76327000Y-53720750D01*
X76327000Y-52558000D01*
X76454000Y-52558000D01*
X76454000Y-53720750D01*
X76612750Y-53879500D01*
X77141810Y-53879500D01*
X77375199Y-53782827D01*
X77553827Y-53604198D01*
X77650500Y-53370809D01*
X77650500Y-52716750D01*
X77670500Y-52716750D01*
X77670500Y-53370809D01*
X77767173Y-53604198D01*
X77945801Y-53782827D01*
X78179190Y-53879500D01*
X78708250Y-53879500D01*
X78867000Y-53720750D01*
X78867000Y-52558000D01*
X78994000Y-52558000D01*
X78994000Y-53720750D01*
X79152750Y-53879500D01*
X79681810Y-53879500D01*
X79915199Y-53782827D01*
X80093827Y-53604198D01*
X80190500Y-53370809D01*
X80190500Y-52716750D01*
X80031750Y-52558000D01*
X78994000Y-52558000D01*
X78867000Y-52558000D01*
X77829250Y-52558000D01*
X77670500Y-52716750D01*
X77650500Y-52716750D01*
X77491750Y-52558000D01*
X76454000Y-52558000D01*
X76327000Y-52558000D01*
X75289250Y-52558000D01*
X75130500Y-52716750D01*
X74294183Y-52716750D01*
X74342000Y-52601310D01*
X74342000Y-52197250D01*
X74183250Y-52038500D01*
X72170500Y-52038500D01*
X72043500Y-52038500D01*
X72023500Y-52038500D01*
X72023500Y-51911500D01*
X72043500Y-51911500D01*
X72043500Y-50998750D01*
X72170500Y-50998750D01*
X72170500Y-51911500D01*
X74183250Y-51911500D01*
X74342000Y-51752750D01*
X74342000Y-51348690D01*
X74245327Y-51115301D01*
X74066698Y-50936673D01*
X73833309Y-50840000D01*
X72329250Y-50840000D01*
X72170500Y-50998750D01*
X72043500Y-50998750D01*
X71884750Y-50840000D01*
X71395630Y-50840000D01*
X73506816Y-48728815D01*
X73630086Y-48544327D01*
X73671996Y-48481605D01*
X73730000Y-48190000D01*
X73730000Y-45575440D01*
X74043000Y-45575440D01*
X74172589Y-45551056D01*
X74293000Y-45575440D01*
X74843000Y-45575440D01*
X74972589Y-45551056D01*
X75093000Y-45575440D01*
X75406000Y-45575440D01*
X75406000Y-46148064D01*
X75314069Y-46282610D01*
X75263060Y-46534500D01*
X75263060Y-48334500D01*
X75307338Y-48569817D01*
X75405138Y-48721802D01*
X75314059Y-48780410D01*
X75169069Y-48992610D01*
X75118060Y-49244500D01*
X75118060Y-50744500D01*
X75162338Y-50979817D01*
X75301410Y-51195941D01*
X75369506Y-51242469D01*
X75227173Y-51384802D01*
X75130500Y-51618191D01*
X75130500Y-52272250D01*
X75289250Y-52431000D01*
X76327000Y-52431000D01*
X76327000Y-52411000D01*
X76454000Y-52411000D01*
X76454000Y-52431000D01*
X77491750Y-52431000D01*
X77650500Y-52272250D01*
X77650500Y-51618191D01*
X77553827Y-51384802D01*
X77412590Y-51243564D01*
X77466941Y-51208590D01*
X77611931Y-50996390D01*
X77660410Y-50756991D01*
X77702338Y-50979817D01*
X77841410Y-51195941D01*
X77909506Y-51242469D01*
X77767173Y-51384802D01*
X77670500Y-51618191D01*
X77670500Y-52272250D01*
X77829250Y-52431000D01*
X78867000Y-52431000D01*
X78867000Y-52411000D01*
X78994000Y-52411000D01*
X78994000Y-52431000D01*
X80031750Y-52431000D01*
X80190500Y-52272250D01*
X80190500Y-51618191D01*
X80093827Y-51384802D01*
X79952590Y-51243564D01*
X80006941Y-51208590D01*
X80151931Y-50996390D01*
X80202940Y-50744500D01*
X80202940Y-49244500D01*
X80158662Y-49009183D01*
X80019590Y-48793059D01*
X79914692Y-48721386D01*
X80006931Y-48586390D01*
X80057940Y-48334500D01*
X80057940Y-46534500D01*
X80013662Y-46299183D01*
X79874590Y-46083059D01*
X79662390Y-45938069D01*
X79410500Y-45887060D01*
X78440690Y-45887060D01*
X77796440Y-45242810D01*
X77839431Y-45179890D01*
X77890440Y-44928000D01*
X77890440Y-43600440D01*
X79218000Y-43600440D01*
X79453317Y-43556162D01*
X79633838Y-43440000D01*
X85034370Y-43440000D01*
X85699598Y-44105228D01*
X85699598Y-46602560D01*
X83464000Y-46602560D01*
X83228683Y-46646838D01*
X83012559Y-46785910D01*
X82867569Y-46998110D01*
X82816560Y-47250000D01*
X82816560Y-48000000D01*
X82860838Y-48235317D01*
X82874970Y-48257279D01*
X82867569Y-48268110D01*
X82816560Y-48520000D01*
X82816560Y-49270000D01*
X82860838Y-49505317D01*
X82874970Y-49527279D01*
X82867569Y-49538110D01*
X82816560Y-49790000D01*
X82816560Y-50540000D01*
X82860838Y-50775317D01*
X82874970Y-50797279D01*
X82867569Y-50808110D01*
X82816560Y-51060000D01*
X82816560Y-51810000D01*
X82841586Y-51943000D01*
X82261367Y-51943000D01*
X82055303Y-51736577D01*
X81635354Y-51562199D01*
X81180641Y-51561802D01*
X80760388Y-51735446D01*
X80438577Y-52056697D01*
X80264199Y-52476646D01*
X80263802Y-52931359D01*
X80437446Y-53351612D01*
X80645000Y-53559528D01*
X80645000Y-54631548D01*
X80633559Y-54638910D01*
X80488569Y-54851110D01*
X80437560Y-55103000D01*
X80437560Y-56403000D01*
X80481838Y-56638317D01*
X80608311Y-56834862D01*
X80488569Y-57010110D01*
X80437560Y-57262000D01*
X80437560Y-58562000D01*
X80481838Y-58797317D01*
X80620910Y-59013441D01*
X80685907Y-59057851D01*
X80606559Y-59108910D01*
X80461569Y-59321110D01*
X80410560Y-59573000D01*
X80410560Y-60823000D01*
X80454838Y-61058317D01*
X80593910Y-61274441D01*
X80806110Y-61419431D01*
X81058000Y-61470440D01*
X82558000Y-61470440D01*
X82793317Y-61426162D01*
X83009441Y-61287090D01*
X83055969Y-61218994D01*
X83198302Y-61361327D01*
X83431691Y-61458000D01*
X84085750Y-61458000D01*
X84244500Y-61299250D01*
X84244500Y-60261500D01*
X84371500Y-60261500D01*
X84371500Y-61299250D01*
X84530250Y-61458000D01*
X85184309Y-61458000D01*
X85417698Y-61361327D01*
X85596327Y-61182699D01*
X85693000Y-60949310D01*
X85693000Y-60420250D01*
X85534250Y-60261500D01*
X84371500Y-60261500D01*
X84244500Y-60261500D01*
X84224500Y-60261500D01*
X84224500Y-60134500D01*
X84244500Y-60134500D01*
X84244500Y-60114500D01*
X84371500Y-60114500D01*
X84371500Y-60134500D01*
X85534250Y-60134500D01*
X85693000Y-59975750D01*
X85693000Y-59446690D01*
X85596327Y-59213301D01*
X85537275Y-59154250D01*
X85736441Y-59026090D01*
X85881431Y-58813890D01*
X85909759Y-58674000D01*
X88519000Y-58674000D01*
X88810605Y-58615996D01*
X89057815Y-58450815D01*
X89243271Y-58265359D01*
X92963802Y-58265359D01*
X93137446Y-58685612D01*
X93458697Y-59007423D01*
X93878646Y-59181801D01*
X94333359Y-59182198D01*
X94333838Y-59182000D01*
X96520000Y-59182000D01*
X96957407Y-59094994D01*
X97328223Y-58847223D01*
X99025446Y-57150000D01*
X99314000Y-57150000D01*
X99314000Y-64008000D01*
X99459009Y-64737012D01*
X99871962Y-65355038D01*
X100057213Y-65478819D01*
X99997569Y-65566110D01*
X99946560Y-65818000D01*
X99946560Y-67318000D01*
X99990838Y-67553317D01*
X100129910Y-67769441D01*
X100198006Y-67815969D01*
X100055673Y-67958302D01*
X99959000Y-68191691D01*
X99959000Y-68845750D01*
X100117750Y-69004500D01*
X101155500Y-69004500D01*
X101155500Y-68984500D01*
X101282500Y-68984500D01*
X101282500Y-69004500D01*
X102320250Y-69004500D01*
X102479000Y-68845750D01*
X102479000Y-68191691D01*
X102382327Y-67958302D01*
X102241090Y-67817064D01*
X102295441Y-67782090D01*
X102440431Y-67569890D01*
X102491440Y-67318000D01*
X102491440Y-65818000D01*
X102447162Y-65582683D01*
X102380466Y-65479034D01*
X102566038Y-65355038D01*
X102978991Y-64737012D01*
X103124000Y-64008000D01*
X103124000Y-59401446D01*
X103343446Y-59182000D01*
X104012575Y-59182000D01*
X104239359Y-59182198D01*
X104659612Y-59008554D01*
X104981423Y-58687303D01*
X104981622Y-58686824D01*
X105300196Y-58368250D01*
X108976000Y-58368250D01*
X108976000Y-59022309D01*
X109072673Y-59255698D01*
X109251301Y-59434327D01*
X109484690Y-59531000D01*
X110013750Y-59531000D01*
X110172500Y-59372250D01*
X110172500Y-58209500D01*
X110299500Y-58209500D01*
X110299500Y-59372250D01*
X110458250Y-59531000D01*
X110987310Y-59531000D01*
X111220699Y-59434327D01*
X111399327Y-59255698D01*
X111496000Y-59022309D01*
X111496000Y-58368250D01*
X111337250Y-58209500D01*
X110299500Y-58209500D01*
X110172500Y-58209500D01*
X109134750Y-58209500D01*
X108976000Y-58368250D01*
X105300196Y-58368250D01*
X106518446Y-57150000D01*
X108330575Y-57150000D01*
X108557359Y-57150198D01*
X108977612Y-56976554D01*
X109131281Y-56823153D01*
X109146910Y-56847441D01*
X109215006Y-56893969D01*
X109072673Y-57036302D01*
X108976000Y-57269691D01*
X108976000Y-57923750D01*
X109134750Y-58082500D01*
X110172500Y-58082500D01*
X110172500Y-58062500D01*
X110299500Y-58062500D01*
X110299500Y-58082500D01*
X111337250Y-58082500D01*
X111496000Y-57923750D01*
X111496000Y-57269691D01*
X111399327Y-57036302D01*
X111258090Y-56895064D01*
X111312441Y-56860090D01*
X111457431Y-56647890D01*
X111508440Y-56396000D01*
X111508440Y-54896000D01*
X111464162Y-54660683D01*
X111325090Y-54444559D01*
X111112890Y-54299569D01*
X110861000Y-54248560D01*
X109611000Y-54248560D01*
X109375683Y-54292838D01*
X109159559Y-54431910D01*
X109110985Y-54503000D01*
X108692000Y-54503000D01*
X108254593Y-54590006D01*
X107883777Y-54837777D01*
X107857554Y-54864000D01*
X106045000Y-54864000D01*
X105607593Y-54951006D01*
X105236777Y-55198777D01*
X103539554Y-56896000D01*
X103124000Y-56896000D01*
X103124000Y-49911000D01*
X102978991Y-49181988D01*
X102566038Y-48563962D01*
X101948012Y-48151009D01*
X101219000Y-48006000D01*
X100489988Y-48151009D01*
X99871962Y-48563962D01*
X99459009Y-49181988D01*
X99314000Y-49911000D01*
X99314000Y-54771554D01*
X99221554Y-54864000D01*
X98552425Y-54864000D01*
X98325641Y-54863802D01*
X97905388Y-55037446D01*
X97583577Y-55358697D01*
X97583378Y-55359176D01*
X96046554Y-56896000D01*
X94107425Y-56896000D01*
X93880641Y-56895802D01*
X93460388Y-57069446D01*
X93138577Y-57390697D01*
X92964199Y-57810646D01*
X92963802Y-58265359D01*
X89243271Y-58265359D01*
X98357815Y-49150815D01*
X98522996Y-48903605D01*
X98531073Y-48863000D01*
X98581000Y-48612000D01*
X98581000Y-47216440D01*
X99419000Y-47216440D01*
X99654317Y-47172162D01*
X99870441Y-47033090D01*
X100008523Y-46831000D01*
X102433008Y-46831000D01*
X102554910Y-47020441D01*
X102767110Y-47165431D01*
X103019000Y-47216440D01*
X106219000Y-47216440D01*
X106454317Y-47172162D01*
X106670441Y-47033090D01*
X106815431Y-46820890D01*
X106866440Y-46569000D01*
X106866440Y-45569000D01*
X106822162Y-45333683D01*
X106683090Y-45117559D01*
X106470890Y-44972569D01*
X106219000Y-44921560D01*
X103019000Y-44921560D01*
X102783683Y-44965838D01*
X102567559Y-45104910D01*
X102429477Y-45307000D01*
X100004992Y-45307000D01*
X99883090Y-45117559D01*
X99670890Y-44972569D01*
X99419000Y-44921560D01*
X96219000Y-44921560D01*
X95983683Y-44965838D01*
X95767559Y-45104910D01*
X95622569Y-45317110D01*
X95571560Y-45569000D01*
X95571560Y-46569000D01*
X95615838Y-46804317D01*
X95754910Y-47020441D01*
X95967110Y-47165431D01*
X96219000Y-47216440D01*
X97057000Y-47216440D01*
X97057000Y-48296370D01*
X88203370Y-57150000D01*
X85911366Y-57150000D01*
X85888162Y-57026683D01*
X85761689Y-56830138D01*
X85881431Y-56654890D01*
X85932440Y-56403000D01*
X85932440Y-55433190D01*
X87279815Y-54085815D01*
X87444996Y-53838605D01*
X87461827Y-53753988D01*
X87467108Y-53727440D01*
X89764000Y-53727440D01*
X89999317Y-53683162D01*
X90215441Y-53544090D01*
X90360431Y-53331890D01*
X90411440Y-53080000D01*
X90411440Y-52330000D01*
X90367162Y-52094683D01*
X90353030Y-52072721D01*
X90360431Y-52061890D01*
X90411440Y-51810000D01*
X90411440Y-51060000D01*
X90367162Y-50824683D01*
X90346622Y-50792762D01*
X90399000Y-50666310D01*
X90399000Y-50387250D01*
X90240250Y-50228500D01*
X88627500Y-50228500D01*
X88627500Y-50248500D01*
X88500500Y-50248500D01*
X88500500Y-50228500D01*
X88480500Y-50228500D01*
X88480500Y-50101500D01*
X88500500Y-50101500D01*
X88500500Y-48958500D01*
X88627500Y-48958500D01*
X88627500Y-50101500D01*
X90240250Y-50101500D01*
X90399000Y-49942750D01*
X90399000Y-49663690D01*
X90343624Y-49530000D01*
X90399000Y-49396310D01*
X90399000Y-49117250D01*
X90240250Y-48958500D01*
X88627500Y-48958500D01*
X88500500Y-48958500D01*
X88480500Y-48958500D01*
X88480500Y-48831500D01*
X88500500Y-48831500D01*
X88500500Y-48811500D01*
X88627500Y-48811500D01*
X88627500Y-48831500D01*
X90240250Y-48831500D01*
X90399000Y-48672750D01*
X90399000Y-48393690D01*
X90347876Y-48270265D01*
X90360431Y-48251890D01*
X90411440Y-48000000D01*
X90411440Y-47250000D01*
X90367162Y-47014683D01*
X90228090Y-46798559D01*
X90015890Y-46653569D01*
X89764000Y-46602560D01*
X89453000Y-46602560D01*
X89453000Y-44375000D01*
X89385329Y-44034794D01*
X89192618Y-43746382D01*
X89067236Y-43621000D01*
X119337560Y-43621000D01*
X119337560Y-45221000D01*
X119381838Y-45456317D01*
X119520910Y-45672441D01*
X119733110Y-45817431D01*
X119985000Y-45868440D01*
X123385000Y-45868440D01*
X123620317Y-45824162D01*
X123836441Y-45685090D01*
X123981431Y-45472890D01*
X124032440Y-45221000D01*
X124032440Y-43621000D01*
X123988162Y-43385683D01*
X123849090Y-43169559D01*
X123636890Y-43024569D01*
X123385000Y-42973560D01*
X119985000Y-42973560D01*
X119749683Y-43017838D01*
X119533559Y-43156910D01*
X119388569Y-43369110D01*
X119337560Y-43621000D01*
X89067236Y-43621000D01*
X86701676Y-41255440D01*
X87112000Y-41255440D01*
X87347317Y-41211162D01*
X87563441Y-41072090D01*
X87698790Y-40874000D01*
X89803764Y-40874000D01*
X89813120Y-40883356D01*
X89812630Y-41443815D01*
X90136980Y-42228800D01*
X90737041Y-42829909D01*
X91521459Y-43155628D01*
X92370815Y-43156370D01*
X93155800Y-42832020D01*
X93697514Y-42291250D01*
X95584000Y-42291250D01*
X95584000Y-42695310D01*
X95680673Y-42928699D01*
X95859302Y-43107327D01*
X96092691Y-43204000D01*
X97596750Y-43204000D01*
X97755500Y-43045250D01*
X97755500Y-42132500D01*
X97882500Y-42132500D01*
X97882500Y-43045250D01*
X98041250Y-43204000D01*
X99545309Y-43204000D01*
X99778698Y-43107327D01*
X99957327Y-42928699D01*
X100054000Y-42695310D01*
X100054000Y-42291250D01*
X102384000Y-42291250D01*
X102384000Y-42695310D01*
X102480673Y-42928699D01*
X102659302Y-43107327D01*
X102892691Y-43204000D01*
X104396750Y-43204000D01*
X104555500Y-43045250D01*
X104555500Y-42132500D01*
X104682500Y-42132500D01*
X104682500Y-43045250D01*
X104841250Y-43204000D01*
X106345309Y-43204000D01*
X106578698Y-43107327D01*
X106757327Y-42928699D01*
X106854000Y-42695310D01*
X106854000Y-42291250D01*
X106806000Y-42243250D01*
X124850000Y-42243250D01*
X124850000Y-42647309D01*
X124946673Y-42880698D01*
X125125301Y-43059327D01*
X125358690Y-43156000D01*
X127012750Y-43156000D01*
X127171500Y-42997250D01*
X127171500Y-42084500D01*
X127298500Y-42084500D01*
X127298500Y-42997250D01*
X127457250Y-43156000D01*
X129111310Y-43156000D01*
X129281050Y-43085691D01*
X142250000Y-43085691D01*
X142250000Y-43739750D01*
X142408750Y-43898500D01*
X143446500Y-43898500D01*
X143446500Y-42735750D01*
X143573500Y-42735750D01*
X143573500Y-43898500D01*
X145478500Y-43898500D01*
X145478500Y-42735750D01*
X145605500Y-42735750D01*
X145605500Y-43898500D01*
X147510500Y-43898500D01*
X147510500Y-42735750D01*
X147351750Y-42577000D01*
X146822690Y-42577000D01*
X146589301Y-42673673D01*
X146558000Y-42704974D01*
X146526699Y-42673673D01*
X146293310Y-42577000D01*
X145764250Y-42577000D01*
X145605500Y-42735750D01*
X145478500Y-42735750D01*
X145319750Y-42577000D01*
X144790690Y-42577000D01*
X144557301Y-42673673D01*
X144526000Y-42704974D01*
X144494699Y-42673673D01*
X144261310Y-42577000D01*
X143732250Y-42577000D01*
X143573500Y-42735750D01*
X143446500Y-42735750D01*
X143287750Y-42577000D01*
X142758690Y-42577000D01*
X142525301Y-42673673D01*
X142346673Y-42852302D01*
X142250000Y-43085691D01*
X129281050Y-43085691D01*
X129344699Y-43059327D01*
X129523327Y-42880698D01*
X129620000Y-42647309D01*
X129620000Y-42243250D01*
X129461250Y-42084500D01*
X127298500Y-42084500D01*
X127171500Y-42084500D01*
X125008750Y-42084500D01*
X124850000Y-42243250D01*
X106806000Y-42243250D01*
X106695250Y-42132500D01*
X104682500Y-42132500D01*
X104555500Y-42132500D01*
X102542750Y-42132500D01*
X102384000Y-42291250D01*
X100054000Y-42291250D01*
X99895250Y-42132500D01*
X97882500Y-42132500D01*
X97755500Y-42132500D01*
X95742750Y-42132500D01*
X95584000Y-42291250D01*
X93697514Y-42291250D01*
X93756909Y-42231959D01*
X94082628Y-41447541D01*
X94082632Y-41442690D01*
X95584000Y-41442690D01*
X95584000Y-41846750D01*
X95742750Y-42005500D01*
X97755500Y-42005500D01*
X97755500Y-41092750D01*
X97882500Y-41092750D01*
X97882500Y-42005500D01*
X99895250Y-42005500D01*
X100054000Y-41846750D01*
X100054000Y-41442690D01*
X102384000Y-41442690D01*
X102384000Y-41846750D01*
X102542750Y-42005500D01*
X104555500Y-42005500D01*
X104555500Y-41092750D01*
X104396750Y-40934000D01*
X102892691Y-40934000D01*
X102659302Y-41030673D01*
X102480673Y-41209301D01*
X102384000Y-41442690D01*
X100054000Y-41442690D01*
X99957327Y-41209301D01*
X99778698Y-41030673D01*
X99545309Y-40934000D01*
X98041250Y-40934000D01*
X97882500Y-41092750D01*
X97755500Y-41092750D01*
X97596750Y-40934000D01*
X96092691Y-40934000D01*
X95859302Y-41030673D01*
X95680673Y-41209301D01*
X95584000Y-41442690D01*
X94082632Y-41442690D01*
X94083370Y-40598185D01*
X93759020Y-39813200D01*
X93726000Y-39780122D01*
X93726000Y-39693474D01*
X93801910Y-39811441D01*
X94014110Y-39956431D01*
X94266000Y-40007440D01*
X95766000Y-40007440D01*
X96001317Y-39963162D01*
X96217441Y-39824090D01*
X96263969Y-39755994D01*
X96406302Y-39898327D01*
X96639691Y-39995000D01*
X97293750Y-39995000D01*
X97452500Y-39836250D01*
X97452500Y-38798500D01*
X97579500Y-38798500D01*
X97579500Y-39836250D01*
X97738250Y-39995000D01*
X98392309Y-39995000D01*
X98625698Y-39898327D01*
X98804327Y-39719699D01*
X98901000Y-39486310D01*
X98901000Y-38957250D01*
X98742250Y-38798500D01*
X97579500Y-38798500D01*
X97452500Y-38798500D01*
X97432500Y-38798500D01*
X97432500Y-38671500D01*
X97452500Y-38671500D01*
X97452500Y-38651500D01*
X97579500Y-38651500D01*
X97579500Y-38671500D01*
X98742250Y-38671500D01*
X98901000Y-38512750D01*
X98901000Y-37983690D01*
X98804327Y-37750301D01*
X98625698Y-37571673D01*
X98392309Y-37475000D01*
X98271433Y-37475000D01*
X98347441Y-37426090D01*
X98492431Y-37213890D01*
X98543440Y-36962000D01*
X98543440Y-36312000D01*
X98517081Y-36171914D01*
X98531000Y-36138310D01*
X98531000Y-35909250D01*
X98374750Y-35753000D01*
X99228000Y-35753000D01*
X99552300Y-35688493D01*
X99616807Y-35675662D01*
X99946420Y-35455420D01*
X99949000Y-35452840D01*
X105235579Y-40739420D01*
X105436991Y-40873999D01*
X105526788Y-40934000D01*
X104841250Y-40934000D01*
X104682500Y-41092750D01*
X104682500Y-42005500D01*
X106695250Y-42005500D01*
X106854000Y-41846750D01*
X106854000Y-41442690D01*
X106757327Y-41209301D01*
X106585025Y-41037000D01*
X125070974Y-41037000D01*
X124946673Y-41161302D01*
X124850000Y-41394691D01*
X124850000Y-41798750D01*
X125008750Y-41957500D01*
X127171500Y-41957500D01*
X127171500Y-41937500D01*
X127298500Y-41937500D01*
X127298500Y-41957500D01*
X129461250Y-41957500D01*
X129620000Y-41798750D01*
X129620000Y-41394691D01*
X129524445Y-41164000D01*
X148522000Y-41164000D01*
X148522000Y-41560750D01*
X148680750Y-41719500D01*
X149843500Y-41719500D01*
X149843500Y-41699500D01*
X149970500Y-41699500D01*
X149970500Y-41719500D01*
X149990500Y-41719500D01*
X149990500Y-41846500D01*
X149970500Y-41846500D01*
X149970500Y-41866500D01*
X149843500Y-41866500D01*
X149843500Y-41846500D01*
X148680750Y-41846500D01*
X148522000Y-42005250D01*
X148522000Y-42559310D01*
X148576917Y-42691891D01*
X148558699Y-42673673D01*
X148325310Y-42577000D01*
X147796250Y-42577000D01*
X147637500Y-42735750D01*
X147637500Y-43898500D01*
X147657500Y-43898500D01*
X147657500Y-44025500D01*
X147637500Y-44025500D01*
X147637500Y-44045500D01*
X147510500Y-44045500D01*
X147510500Y-44025500D01*
X145605500Y-44025500D01*
X145605500Y-44045500D01*
X145478500Y-44045500D01*
X145478500Y-44025500D01*
X143573500Y-44025500D01*
X143573500Y-44045500D01*
X143446500Y-44045500D01*
X143446500Y-44025500D01*
X142408750Y-44025500D01*
X142250000Y-44184250D01*
X142250000Y-44838309D01*
X142346673Y-45071698D01*
X142487910Y-45212936D01*
X142433559Y-45247910D01*
X142288569Y-45460110D01*
X142237560Y-45712000D01*
X142237560Y-45720000D01*
X141859425Y-45720000D01*
X141632641Y-45719802D01*
X141632162Y-45720000D01*
X141351000Y-45720000D01*
X141120205Y-45763427D01*
X140908233Y-45899827D01*
X140766029Y-46107949D01*
X140716000Y-46355000D01*
X140716000Y-46862309D01*
X140715802Y-47089359D01*
X140716000Y-47089838D01*
X140716000Y-49911000D01*
X140759427Y-50141795D01*
X140895827Y-50353767D01*
X141103949Y-50495971D01*
X141351000Y-50546000D01*
X143538235Y-50546000D01*
X143479091Y-50605041D01*
X143153372Y-51389459D01*
X143152630Y-52238815D01*
X143476980Y-53023800D01*
X144077041Y-53624909D01*
X144861459Y-53950628D01*
X145710815Y-53951370D01*
X146495800Y-53627020D01*
X147096909Y-53026959D01*
X147359560Y-52394426D01*
X147359560Y-53705000D01*
X147403838Y-53940317D01*
X147542910Y-54156441D01*
X147755110Y-54301431D01*
X148007000Y-54352440D01*
X150007000Y-54352440D01*
X150242317Y-54308162D01*
X150458441Y-54169090D01*
X150603431Y-53956890D01*
X150654440Y-53705000D01*
X150654440Y-51705000D01*
X150610162Y-51469683D01*
X150471090Y-51253559D01*
X150258890Y-51108569D01*
X150007000Y-51057560D01*
X149971000Y-51057560D01*
X149971000Y-49285440D01*
X150194500Y-49285440D01*
X150429817Y-49241162D01*
X150481352Y-49208000D01*
X151034750Y-49208000D01*
X151193500Y-49049250D01*
X151193500Y-47561500D01*
X151173500Y-47561500D01*
X151173500Y-47434500D01*
X151193500Y-47434500D01*
X151193500Y-45946750D01*
X151034750Y-45788000D01*
X150485073Y-45788000D01*
X150446390Y-45761569D01*
X150194500Y-45710560D01*
X149394500Y-45710560D01*
X149159183Y-45754838D01*
X148995933Y-45859886D01*
X148926549Y-45816521D01*
X148846440Y-45793546D01*
X148846440Y-45712000D01*
X148802162Y-45476683D01*
X148663090Y-45260559D01*
X148594994Y-45214031D01*
X148692211Y-45116814D01*
X148718673Y-45180699D01*
X148897302Y-45359327D01*
X149130691Y-45456000D01*
X149784750Y-45456000D01*
X149943500Y-45297250D01*
X149943500Y-44259500D01*
X149923500Y-44259500D01*
X149923500Y-44132500D01*
X149943500Y-44132500D01*
X149943500Y-44112500D01*
X150070500Y-44112500D01*
X150070500Y-44132500D01*
X150090500Y-44132500D01*
X150090500Y-44259500D01*
X150070500Y-44259500D01*
X150070500Y-45297250D01*
X150229250Y-45456000D01*
X150883309Y-45456000D01*
X151116698Y-45359327D01*
X151257936Y-45218090D01*
X151292910Y-45272441D01*
X151505110Y-45417431D01*
X151745000Y-45466010D01*
X151745000Y-45788000D01*
X151479250Y-45788000D01*
X151320500Y-45946750D01*
X151320500Y-47434500D01*
X151340500Y-47434500D01*
X151340500Y-47561500D01*
X151320500Y-47561500D01*
X151320500Y-49049250D01*
X151479250Y-49208000D01*
X152028927Y-49208000D01*
X152067610Y-49234431D01*
X152216196Y-49264520D01*
X152364000Y-49757199D01*
X152364000Y-51084467D01*
X152271683Y-51101838D01*
X152055559Y-51240910D01*
X151910569Y-51453110D01*
X151859560Y-51705000D01*
X151859560Y-53705000D01*
X151903838Y-53940317D01*
X152042910Y-54156441D01*
X152255110Y-54301431D01*
X152507000Y-54352440D01*
X154507000Y-54352440D01*
X154742317Y-54308162D01*
X154958441Y-54169090D01*
X155103431Y-53956890D01*
X155154440Y-53705000D01*
X155154440Y-51705000D01*
X155110162Y-51469683D01*
X154971090Y-51253559D01*
X154758890Y-51108569D01*
X154650000Y-51086518D01*
X154650000Y-50240250D01*
X155077000Y-50240250D01*
X155077000Y-50894309D01*
X155173673Y-51127698D01*
X155352301Y-51306327D01*
X155585690Y-51403000D01*
X156114750Y-51403000D01*
X156273500Y-51244250D01*
X156273500Y-50081500D01*
X156400500Y-50081500D01*
X156400500Y-51244250D01*
X156559250Y-51403000D01*
X157088310Y-51403000D01*
X157321699Y-51306327D01*
X157500327Y-51127698D01*
X157597000Y-50894309D01*
X157597000Y-50240250D01*
X157438250Y-50081500D01*
X156400500Y-50081500D01*
X156273500Y-50081500D01*
X155235750Y-50081500D01*
X155077000Y-50240250D01*
X154650000Y-50240250D01*
X154650000Y-50067673D01*
X155077000Y-49593229D01*
X155077000Y-49795750D01*
X155235750Y-49954500D01*
X156273500Y-49954500D01*
X156273500Y-49934500D01*
X156400500Y-49934500D01*
X156400500Y-49954500D01*
X157438250Y-49954500D01*
X157597000Y-49795750D01*
X157597000Y-49141691D01*
X157500327Y-48908302D01*
X157359090Y-48767064D01*
X157413441Y-48732090D01*
X157558431Y-48519890D01*
X157609440Y-48268000D01*
X157609440Y-48032700D01*
X157800223Y-47905223D01*
X158669223Y-47036223D01*
X158916994Y-46665407D01*
X159004000Y-46228000D01*
X159004000Y-43180000D01*
X158916994Y-42742593D01*
X158669223Y-42371777D01*
X155510223Y-39212777D01*
X155139407Y-38965006D01*
X154702000Y-38878000D01*
X129006925Y-38878000D01*
X128985000Y-38873560D01*
X125485000Y-38873560D01*
X125249683Y-38917838D01*
X125114229Y-39005000D01*
X123650096Y-39005000D01*
X123836441Y-38885090D01*
X123981431Y-38672890D01*
X124032440Y-38421000D01*
X124032440Y-36821000D01*
X123988162Y-36585683D01*
X123849090Y-36369559D01*
X123636890Y-36224569D01*
X123385000Y-36173560D01*
X119985000Y-36173560D01*
X119749683Y-36217838D01*
X119533559Y-36356910D01*
X119388569Y-36569110D01*
X119337560Y-36821000D01*
X119337560Y-38421000D01*
X119381838Y-38656317D01*
X119520910Y-38872441D01*
X119714917Y-39005000D01*
X106374841Y-39005000D01*
X102750032Y-35380191D01*
X122951612Y-35380191D01*
X123105410Y-35706665D01*
X123886792Y-36039605D01*
X124736104Y-36048178D01*
X125524047Y-35731082D01*
X125560590Y-35706665D01*
X125714388Y-35380191D01*
X124333000Y-33998803D01*
X122951612Y-35380191D01*
X102750032Y-35380191D01*
X101681945Y-34312104D01*
X122193822Y-34312104D01*
X122510918Y-35100047D01*
X122535335Y-35136590D01*
X122861809Y-35290388D01*
X124243197Y-33909000D01*
X124422803Y-33909000D01*
X125804191Y-35290388D01*
X126130665Y-35136590D01*
X126463605Y-34355208D01*
X126471815Y-33541834D01*
X148494543Y-33541834D01*
X148894853Y-34510658D01*
X149635443Y-35252542D01*
X150603567Y-35654542D01*
X151651834Y-35655457D01*
X152574425Y-35274250D01*
X159036000Y-35274250D01*
X159036000Y-35803310D01*
X159132673Y-36036699D01*
X159311302Y-36215327D01*
X159544691Y-36312000D01*
X160198750Y-36312000D01*
X160357500Y-36153250D01*
X160357500Y-35115500D01*
X159194750Y-35115500D01*
X159036000Y-35274250D01*
X152574425Y-35274250D01*
X152620658Y-35255147D01*
X153362542Y-34514557D01*
X153451347Y-34300690D01*
X159036000Y-34300690D01*
X159036000Y-34829750D01*
X159194750Y-34988500D01*
X160357500Y-34988500D01*
X160357500Y-33950750D01*
X160484500Y-33950750D01*
X160484500Y-34988500D01*
X160504500Y-34988500D01*
X160504500Y-35115500D01*
X160484500Y-35115500D01*
X160484500Y-36153250D01*
X160643250Y-36312000D01*
X161297309Y-36312000D01*
X161530698Y-36215327D01*
X161671936Y-36074090D01*
X161706910Y-36128441D01*
X161919110Y-36273431D01*
X162171000Y-36324440D01*
X163671000Y-36324440D01*
X163906317Y-36280162D01*
X164038662Y-36195000D01*
X172059275Y-36195000D01*
X172364646Y-36321801D01*
X172819359Y-36322198D01*
X173239612Y-36148554D01*
X173561423Y-35827303D01*
X173735801Y-35407354D01*
X173736198Y-34952641D01*
X173562554Y-34532388D01*
X173241303Y-34210577D01*
X173197010Y-34192185D01*
X172903407Y-33996006D01*
X172466000Y-33909000D01*
X164037678Y-33909000D01*
X163922890Y-33830569D01*
X163671000Y-33779560D01*
X162171000Y-33779560D01*
X161935683Y-33823838D01*
X161719559Y-33962910D01*
X161673031Y-34031006D01*
X161530698Y-33888673D01*
X161297309Y-33792000D01*
X160643250Y-33792000D01*
X160484500Y-33950750D01*
X160357500Y-33950750D01*
X160198750Y-33792000D01*
X159544691Y-33792000D01*
X159311302Y-33888673D01*
X159132673Y-34067301D01*
X159036000Y-34300690D01*
X153451347Y-34300690D01*
X153764542Y-33546433D01*
X153765457Y-32498166D01*
X153365147Y-31529342D01*
X152624557Y-30787458D01*
X151656433Y-30385458D01*
X150608166Y-30384543D01*
X149639342Y-30784853D01*
X148897458Y-31525443D01*
X148495458Y-32493567D01*
X148494543Y-33541834D01*
X126471815Y-33541834D01*
X126472178Y-33505896D01*
X126155082Y-32717953D01*
X126130665Y-32681410D01*
X125804191Y-32527612D01*
X124422803Y-33909000D01*
X124243197Y-33909000D01*
X122861809Y-32527612D01*
X122535335Y-32681410D01*
X122202395Y-33462792D01*
X122193822Y-34312104D01*
X101681945Y-34312104D01*
X101221440Y-33851600D01*
X101221440Y-33266000D01*
X101177162Y-33030683D01*
X101038090Y-32814559D01*
X100969994Y-32768031D01*
X101112327Y-32625698D01*
X101190153Y-32437809D01*
X122951612Y-32437809D01*
X124333000Y-33819197D01*
X125714388Y-32437809D01*
X125560590Y-32111335D01*
X124779208Y-31778395D01*
X123929896Y-31769822D01*
X123141953Y-32086918D01*
X123105410Y-32111335D01*
X122951612Y-32437809D01*
X101190153Y-32437809D01*
X101209000Y-32392309D01*
X101209000Y-31738250D01*
X101050250Y-31579500D01*
X100012500Y-31579500D01*
X100012500Y-31599500D01*
X99885500Y-31599500D01*
X99885500Y-31579500D01*
X98847750Y-31579500D01*
X98689000Y-31738250D01*
X98689000Y-32392309D01*
X98785673Y-32625698D01*
X98926910Y-32766936D01*
X98872559Y-32801910D01*
X98727569Y-33014110D01*
X98676560Y-33266000D01*
X98676560Y-33721000D01*
X97366000Y-33721000D01*
X97147008Y-33764560D01*
X96836000Y-33764560D01*
X96600683Y-33808838D01*
X96464577Y-33896420D01*
X96367794Y-33915671D01*
X96202343Y-34026222D01*
X96160090Y-33960559D01*
X95947890Y-33815569D01*
X95833312Y-33792366D01*
X95705173Y-33593233D01*
X95497051Y-33451029D01*
X95250000Y-33401000D01*
X93728440Y-33401000D01*
X93728440Y-33266000D01*
X93684162Y-33030683D01*
X93545090Y-32814559D01*
X93476994Y-32768031D01*
X93619327Y-32625698D01*
X93716000Y-32392309D01*
X93716000Y-31738250D01*
X93557250Y-31579500D01*
X92519500Y-31579500D01*
X92519500Y-31599500D01*
X92392500Y-31599500D01*
X92392500Y-31579500D01*
X91354750Y-31579500D01*
X91196000Y-31738250D01*
X91196000Y-32392309D01*
X91292673Y-32625698D01*
X91433910Y-32766936D01*
X91379559Y-32801910D01*
X91234569Y-33014110D01*
X91183560Y-33266000D01*
X91183560Y-33401000D01*
X90043000Y-33401000D01*
X89812205Y-33444427D01*
X89600233Y-33580827D01*
X89458029Y-33788949D01*
X89408000Y-34036000D01*
X89408000Y-38842000D01*
X87695418Y-38842000D01*
X87576090Y-38656559D01*
X87507994Y-38610031D01*
X87650327Y-38467698D01*
X87747000Y-38234309D01*
X87747000Y-37580250D01*
X87588250Y-37421500D01*
X86550500Y-37421500D01*
X86550500Y-37441500D01*
X86423500Y-37441500D01*
X86423500Y-37421500D01*
X85385750Y-37421500D01*
X85344000Y-37463250D01*
X85302250Y-37421500D01*
X84264500Y-37421500D01*
X84264500Y-37441500D01*
X84137500Y-37441500D01*
X84137500Y-37421500D01*
X83099750Y-37421500D01*
X83058000Y-37463250D01*
X83016250Y-37421500D01*
X81978500Y-37421500D01*
X81978500Y-37441500D01*
X81851500Y-37441500D01*
X81851500Y-37421500D01*
X80813750Y-37421500D01*
X80655000Y-37580250D01*
X80655000Y-38234309D01*
X80751673Y-38467698D01*
X80892910Y-38608936D01*
X80838559Y-38643910D01*
X80693569Y-38856110D01*
X80642560Y-39108000D01*
X80642560Y-39516000D01*
X79630048Y-39516000D01*
X79574603Y-39478116D01*
X79669441Y-39417090D01*
X79671211Y-39414500D01*
X79694250Y-39414500D01*
X79853000Y-39255750D01*
X79853000Y-39076690D01*
X79844532Y-39056247D01*
X79865440Y-38953000D01*
X79865440Y-38403000D01*
X79841056Y-38273411D01*
X79865440Y-38153000D01*
X79865440Y-37794163D01*
X79926605Y-37781996D01*
X80173815Y-37616815D01*
X80655000Y-37135630D01*
X80655000Y-37135750D01*
X80813750Y-37294500D01*
X81851500Y-37294500D01*
X81851500Y-36131750D01*
X81978500Y-36131750D01*
X81978500Y-37294500D01*
X83016250Y-37294500D01*
X83058000Y-37252750D01*
X83099750Y-37294500D01*
X84137500Y-37294500D01*
X84137500Y-36131750D01*
X84264500Y-36131750D01*
X84264500Y-37294500D01*
X85302250Y-37294500D01*
X85344000Y-37252750D01*
X85385750Y-37294500D01*
X86423500Y-37294500D01*
X86423500Y-36131750D01*
X86550500Y-36131750D01*
X86550500Y-37294500D01*
X87588250Y-37294500D01*
X87747000Y-37135750D01*
X87747000Y-36481691D01*
X87650327Y-36248302D01*
X87471699Y-36069673D01*
X87238310Y-35973000D01*
X86709250Y-35973000D01*
X86550500Y-36131750D01*
X86423500Y-36131750D01*
X86264750Y-35973000D01*
X85735690Y-35973000D01*
X85502301Y-36069673D01*
X85344000Y-36227975D01*
X85185699Y-36069673D01*
X84952310Y-35973000D01*
X84423250Y-35973000D01*
X84264500Y-36131750D01*
X84137500Y-36131750D01*
X83978750Y-35973000D01*
X83449690Y-35973000D01*
X83216301Y-36069673D01*
X83058000Y-36227975D01*
X82899699Y-36069673D01*
X82666310Y-35973000D01*
X82137250Y-35973000D01*
X81978500Y-36131750D01*
X81851500Y-36131750D01*
X81755190Y-36035440D01*
X87056631Y-30734000D01*
X87791633Y-30734000D01*
X87997697Y-30940423D01*
X88417646Y-31114801D01*
X88872359Y-31115198D01*
X89292612Y-30941554D01*
X89595001Y-30639691D01*
X91196000Y-30639691D01*
X91196000Y-31293750D01*
X91354750Y-31452500D01*
X92392500Y-31452500D01*
X92392500Y-30289750D01*
X92519500Y-30289750D01*
X92519500Y-31452500D01*
X93557250Y-31452500D01*
X93716000Y-31293750D01*
X93716000Y-30639691D01*
X98689000Y-30639691D01*
X98689000Y-31293750D01*
X98847750Y-31452500D01*
X99885500Y-31452500D01*
X99885500Y-30289750D01*
X100012500Y-30289750D01*
X100012500Y-31452500D01*
X101050250Y-31452500D01*
X101209000Y-31293750D01*
X101209000Y-30639691D01*
X101112327Y-30406302D01*
X100933699Y-30227673D01*
X100862929Y-30198359D01*
X110108802Y-30198359D01*
X110282446Y-30618612D01*
X110603697Y-30940423D01*
X111023646Y-31114801D01*
X111478359Y-31115198D01*
X111898612Y-30941554D01*
X112106528Y-30734000D01*
X135416633Y-30734000D01*
X135498013Y-30815522D01*
X135427338Y-30861000D01*
X134747425Y-30861000D01*
X134520641Y-30860802D01*
X134100388Y-31034446D01*
X133778577Y-31355697D01*
X133604199Y-31775646D01*
X133603802Y-32230359D01*
X133777446Y-32650612D01*
X134098697Y-32972423D01*
X134518646Y-33146801D01*
X134973359Y-33147198D01*
X134973838Y-33147000D01*
X135428322Y-33147000D01*
X135543110Y-33225431D01*
X135795000Y-33276440D01*
X137295000Y-33276440D01*
X137530317Y-33232162D01*
X137746441Y-33093090D01*
X137792969Y-33024994D01*
X137935302Y-33167327D01*
X138168691Y-33264000D01*
X138822750Y-33264000D01*
X138981500Y-33105250D01*
X138981500Y-32067500D01*
X139108500Y-32067500D01*
X139108500Y-33105250D01*
X139267250Y-33264000D01*
X139921309Y-33264000D01*
X140154698Y-33167327D01*
X140333327Y-32988699D01*
X140430000Y-32755310D01*
X140430000Y-32226250D01*
X140271250Y-32067500D01*
X139108500Y-32067500D01*
X138981500Y-32067500D01*
X138961500Y-32067500D01*
X138961500Y-31940500D01*
X138981500Y-31940500D01*
X138981500Y-30902750D01*
X139108500Y-30902750D01*
X139108500Y-31940500D01*
X140271250Y-31940500D01*
X140430000Y-31781750D01*
X140430000Y-31252690D01*
X140333327Y-31019301D01*
X140154698Y-30840673D01*
X139921309Y-30744000D01*
X139267250Y-30744000D01*
X139108500Y-30902750D01*
X138981500Y-30902750D01*
X138822750Y-30744000D01*
X138168691Y-30744000D01*
X137935302Y-30840673D01*
X137794064Y-30981910D01*
X137759090Y-30927559D01*
X137546890Y-30782569D01*
X137295000Y-30731560D01*
X137127972Y-30731560D01*
X137239423Y-30620303D01*
X137413801Y-30200354D01*
X137414198Y-29745641D01*
X137240554Y-29325388D01*
X136919303Y-29003577D01*
X136499354Y-28829199D01*
X136044641Y-28828802D01*
X135624388Y-29002446D01*
X135416472Y-29210000D01*
X112106367Y-29210000D01*
X111900303Y-29003577D01*
X111480354Y-28829199D01*
X111025641Y-28828802D01*
X110605388Y-29002446D01*
X110283577Y-29323697D01*
X110109199Y-29743646D01*
X110108802Y-30198359D01*
X100862929Y-30198359D01*
X100700310Y-30131000D01*
X100171250Y-30131000D01*
X100012500Y-30289750D01*
X99885500Y-30289750D01*
X99726750Y-30131000D01*
X99197690Y-30131000D01*
X98964301Y-30227673D01*
X98785673Y-30406302D01*
X98689000Y-30639691D01*
X93716000Y-30639691D01*
X93619327Y-30406302D01*
X93440699Y-30227673D01*
X93207310Y-30131000D01*
X92678250Y-30131000D01*
X92519500Y-30289750D01*
X92392500Y-30289750D01*
X92233750Y-30131000D01*
X91704690Y-30131000D01*
X91471301Y-30227673D01*
X91292673Y-30406302D01*
X91196000Y-30639691D01*
X89595001Y-30639691D01*
X89614423Y-30620303D01*
X89788801Y-30200354D01*
X89789198Y-29745641D01*
X89615554Y-29325388D01*
X89294303Y-29003577D01*
X88874354Y-28829199D01*
X88419641Y-28828802D01*
X87999388Y-29002446D01*
X87791472Y-29210000D01*
X86741000Y-29210000D01*
X86449396Y-29268003D01*
X86202185Y-29433184D01*
X79435720Y-36199649D01*
X79218000Y-36155560D01*
X77890440Y-36155560D01*
X77890440Y-34828000D01*
X77846162Y-34592683D01*
X77730000Y-34412162D01*
X77730000Y-32679000D01*
X77785750Y-32679000D01*
X77861395Y-32603355D01*
X78009441Y-32508090D01*
X78071500Y-32417264D01*
X78071500Y-32520250D01*
X78230250Y-32679000D01*
X78334309Y-32679000D01*
X78513178Y-32604910D01*
X78631691Y-32654000D01*
X79585750Y-32654000D01*
X79744500Y-32495250D01*
X79744500Y-31282500D01*
X79871500Y-31282500D01*
X79871500Y-32495250D01*
X80030250Y-32654000D01*
X80984309Y-32654000D01*
X81217698Y-32557327D01*
X81396327Y-32378699D01*
X81493000Y-32145310D01*
X81493000Y-31441250D01*
X81334250Y-31282500D01*
X79871500Y-31282500D01*
X79744500Y-31282500D01*
X79724500Y-31282500D01*
X79724500Y-31155500D01*
X79744500Y-31155500D01*
X79744500Y-31135500D01*
X79871500Y-31135500D01*
X79871500Y-31155500D01*
X81334250Y-31155500D01*
X81493000Y-30996750D01*
X81493000Y-30292690D01*
X81486374Y-30276693D01*
X81643317Y-30247162D01*
X81859441Y-30108090D01*
X82004431Y-29895890D01*
X82055440Y-29644000D01*
X82055440Y-27744000D01*
X82011162Y-27508683D01*
X81880096Y-27305000D01*
X177245509Y-27305000D01*
X158403033Y-86741000D01*
X119726306Y-86741000D01*
X119967423Y-86500303D01*
X120141801Y-86080354D01*
X120142198Y-85625641D01*
X119968554Y-85205388D01*
X119726447Y-84962859D01*
X119967423Y-84722303D01*
X120141801Y-84302354D01*
X120142028Y-84042250D01*
X136557000Y-84042250D01*
X136557000Y-84571310D01*
X136653673Y-84804699D01*
X136832302Y-84983327D01*
X137065691Y-85080000D01*
X137719750Y-85080000D01*
X137878500Y-84921250D01*
X137878500Y-83883500D01*
X136715750Y-83883500D01*
X136557000Y-84042250D01*
X120142028Y-84042250D01*
X120142198Y-83847641D01*
X119968554Y-83427388D01*
X119647303Y-83105577D01*
X119558470Y-83068690D01*
X136557000Y-83068690D01*
X136557000Y-83597750D01*
X136715750Y-83756500D01*
X137878500Y-83756500D01*
X137878500Y-82718750D01*
X138005500Y-82718750D01*
X138005500Y-83756500D01*
X138025500Y-83756500D01*
X138025500Y-83883500D01*
X138005500Y-83883500D01*
X138005500Y-84921250D01*
X138164250Y-85080000D01*
X138818309Y-85080000D01*
X139051698Y-84983327D01*
X139192936Y-84842090D01*
X139227910Y-84896441D01*
X139440110Y-85041431D01*
X139692000Y-85092440D01*
X141192000Y-85092440D01*
X141317145Y-85068892D01*
X141891988Y-85452991D01*
X142621000Y-85597999D01*
X143350012Y-85452991D01*
X143968038Y-85040038D01*
X147220077Y-81788000D01*
X148971000Y-81788000D01*
X149700012Y-81642991D01*
X150318038Y-81230038D01*
X150730991Y-80612012D01*
X150876000Y-79883000D01*
X150730991Y-79153988D01*
X150318038Y-78535962D01*
X149700012Y-78123009D01*
X148971000Y-77978000D01*
X146431000Y-77978000D01*
X145701988Y-78123009D01*
X145083962Y-78535961D01*
X141273962Y-82345962D01*
X141139258Y-82547560D01*
X139692000Y-82547560D01*
X139456683Y-82591838D01*
X139240559Y-82730910D01*
X139194031Y-82799006D01*
X139051698Y-82656673D01*
X138818309Y-82560000D01*
X138164250Y-82560000D01*
X138005500Y-82718750D01*
X137878500Y-82718750D01*
X137719750Y-82560000D01*
X137065691Y-82560000D01*
X136832302Y-82656673D01*
X136653673Y-82835301D01*
X136557000Y-83068690D01*
X119558470Y-83068690D01*
X119227354Y-82931199D01*
X118772641Y-82930802D01*
X118352388Y-83104446D01*
X118144472Y-83312000D01*
X85429352Y-83312000D01*
X85424554Y-83300388D01*
X85103303Y-82978577D01*
X84683354Y-82804199D01*
X84228641Y-82803802D01*
X83808388Y-82977446D01*
X83486577Y-83298697D01*
X83312199Y-83718646D01*
X83311802Y-84173359D01*
X83485446Y-84593612D01*
X83791053Y-84899751D01*
X83486577Y-85203697D01*
X83312199Y-85623646D01*
X83311802Y-86078359D01*
X83485446Y-86498612D01*
X83727412Y-86741000D01*
X71019203Y-86741000D01*
X71131612Y-86694554D01*
X71453423Y-86373303D01*
X71627801Y-85953354D01*
X71628198Y-85498641D01*
X71454554Y-85078388D01*
X71275947Y-84899470D01*
X71453423Y-84722303D01*
X71627801Y-84302354D01*
X71628198Y-83847641D01*
X71454554Y-83427388D01*
X71133303Y-83105577D01*
X70713354Y-82931199D01*
X70258641Y-82930802D01*
X69838388Y-83104446D01*
X69630472Y-83312000D01*
X35518352Y-83312000D01*
X35513554Y-83300388D01*
X35192303Y-82978577D01*
X34772354Y-82804199D01*
X34317641Y-82803802D01*
X33897388Y-82977446D01*
X33575577Y-83298697D01*
X33401199Y-83718646D01*
X33400802Y-84173359D01*
X33574446Y-84593612D01*
X33816553Y-84836141D01*
X33575577Y-85076697D01*
X33401199Y-85496646D01*
X33400802Y-85951359D01*
X33574446Y-86371612D01*
X33895697Y-86693423D01*
X34010275Y-86741000D01*
X26890779Y-86741000D01*
X31396356Y-78994000D01*
X32131000Y-78994000D01*
X32276009Y-79723012D01*
X32688962Y-80341038D01*
X33306988Y-80753991D01*
X34036000Y-80899000D01*
X44450000Y-80899000D01*
X45179012Y-80753991D01*
X45797038Y-80341038D01*
X45933372Y-80137000D01*
X46020322Y-80137000D01*
X46135110Y-80215431D01*
X46387000Y-80266440D01*
X47887000Y-80266440D01*
X48122317Y-80222162D01*
X48338441Y-80083090D01*
X48384969Y-80014994D01*
X48527302Y-80157327D01*
X48760691Y-80254000D01*
X49414750Y-80254000D01*
X49573500Y-80095250D01*
X49573500Y-79057500D01*
X49700500Y-79057500D01*
X49700500Y-80095250D01*
X49859250Y-80254000D01*
X50513309Y-80254000D01*
X50746698Y-80157327D01*
X50925327Y-79978699D01*
X51022000Y-79745310D01*
X51022000Y-79216250D01*
X55023000Y-79216250D01*
X55023000Y-79745310D01*
X55119673Y-79978699D01*
X55298302Y-80157327D01*
X55531691Y-80254000D01*
X56185750Y-80254000D01*
X56344500Y-80095250D01*
X56344500Y-79057500D01*
X55181750Y-79057500D01*
X55023000Y-79216250D01*
X51022000Y-79216250D01*
X50863250Y-79057500D01*
X49700500Y-79057500D01*
X49573500Y-79057500D01*
X49553500Y-79057500D01*
X49553500Y-78930500D01*
X49573500Y-78930500D01*
X49573500Y-77892750D01*
X49700500Y-77892750D01*
X49700500Y-78930500D01*
X50863250Y-78930500D01*
X51022000Y-78771750D01*
X51022000Y-78242690D01*
X55023000Y-78242690D01*
X55023000Y-78771750D01*
X55181750Y-78930500D01*
X56344500Y-78930500D01*
X56344500Y-77892750D01*
X56471500Y-77892750D01*
X56471500Y-78930500D01*
X56491500Y-78930500D01*
X56491500Y-79057500D01*
X56471500Y-79057500D01*
X56471500Y-80095250D01*
X56630250Y-80254000D01*
X57284309Y-80254000D01*
X57517698Y-80157327D01*
X57658936Y-80016090D01*
X57693910Y-80070441D01*
X57906110Y-80215431D01*
X58158000Y-80266440D01*
X59658000Y-80266440D01*
X59893317Y-80222162D01*
X60025662Y-80137000D01*
X60069487Y-80137000D01*
X60120962Y-80214038D01*
X60738988Y-80626991D01*
X61468000Y-80772000D01*
X72517000Y-80772000D01*
X73246012Y-80626991D01*
X73864038Y-80214038D01*
X74276991Y-79596012D01*
X74422000Y-78867000D01*
X80899000Y-78867000D01*
X81044009Y-79596012D01*
X81456962Y-80214038D01*
X82074988Y-80626991D01*
X82804000Y-80772000D01*
X93218000Y-80772000D01*
X93947012Y-80626991D01*
X94565038Y-80214038D01*
X94649011Y-80088364D01*
X94649110Y-80088431D01*
X94901000Y-80139440D01*
X96401000Y-80139440D01*
X96636317Y-80095162D01*
X96852441Y-79956090D01*
X96898969Y-79887994D01*
X97041302Y-80030327D01*
X97274691Y-80127000D01*
X97928750Y-80127000D01*
X98087500Y-79968250D01*
X98087500Y-78930500D01*
X98214500Y-78930500D01*
X98214500Y-79968250D01*
X98373250Y-80127000D01*
X99027309Y-80127000D01*
X99260698Y-80030327D01*
X99439327Y-79851699D01*
X99536000Y-79618310D01*
X99536000Y-79089250D01*
X104045000Y-79089250D01*
X104045000Y-79618310D01*
X104141673Y-79851699D01*
X104320302Y-80030327D01*
X104553691Y-80127000D01*
X105207750Y-80127000D01*
X105366500Y-79968250D01*
X105366500Y-78930500D01*
X104203750Y-78930500D01*
X104045000Y-79089250D01*
X99536000Y-79089250D01*
X99377250Y-78930500D01*
X98214500Y-78930500D01*
X98087500Y-78930500D01*
X98067500Y-78930500D01*
X98067500Y-78803500D01*
X98087500Y-78803500D01*
X98087500Y-77765750D01*
X98214500Y-77765750D01*
X98214500Y-78803500D01*
X99377250Y-78803500D01*
X99536000Y-78644750D01*
X99536000Y-78115690D01*
X104045000Y-78115690D01*
X104045000Y-78644750D01*
X104203750Y-78803500D01*
X105366500Y-78803500D01*
X105366500Y-77765750D01*
X105493500Y-77765750D01*
X105493500Y-78803500D01*
X105513500Y-78803500D01*
X105513500Y-78930500D01*
X105493500Y-78930500D01*
X105493500Y-79968250D01*
X105652250Y-80127000D01*
X106306309Y-80127000D01*
X106539698Y-80030327D01*
X106680936Y-79889090D01*
X106715910Y-79943441D01*
X106928110Y-80088431D01*
X107180000Y-80139440D01*
X108680000Y-80139440D01*
X108915317Y-80095162D01*
X108930153Y-80085616D01*
X109015962Y-80214038D01*
X109633988Y-80626991D01*
X110363000Y-80772000D01*
X120269000Y-80772000D01*
X120998012Y-80626991D01*
X121616038Y-80214038D01*
X122028991Y-79596012D01*
X122174000Y-78867000D01*
X122028991Y-78137988D01*
X121616038Y-77519962D01*
X120998012Y-77107009D01*
X120269000Y-76962000D01*
X110363000Y-76962000D01*
X109633988Y-77107009D01*
X109015962Y-77519962D01*
X108931989Y-77645636D01*
X108931890Y-77645569D01*
X108680000Y-77594560D01*
X107180000Y-77594560D01*
X106944683Y-77638838D01*
X106728559Y-77777910D01*
X106682031Y-77846006D01*
X106539698Y-77703673D01*
X106306309Y-77607000D01*
X105652250Y-77607000D01*
X105493500Y-77765750D01*
X105366500Y-77765750D01*
X105207750Y-77607000D01*
X104553691Y-77607000D01*
X104320302Y-77703673D01*
X104141673Y-77882301D01*
X104045000Y-78115690D01*
X99536000Y-78115690D01*
X99439327Y-77882301D01*
X99260698Y-77703673D01*
X99027309Y-77607000D01*
X98373250Y-77607000D01*
X98214500Y-77765750D01*
X98087500Y-77765750D01*
X97928750Y-77607000D01*
X97274691Y-77607000D01*
X97041302Y-77703673D01*
X96900064Y-77844910D01*
X96865090Y-77790559D01*
X96652890Y-77645569D01*
X96401000Y-77594560D01*
X94901000Y-77594560D01*
X94665683Y-77638838D01*
X94650847Y-77648384D01*
X94565038Y-77519962D01*
X93947012Y-77107009D01*
X93218000Y-76962000D01*
X82804000Y-76962000D01*
X82074988Y-77107009D01*
X81456962Y-77519962D01*
X81044009Y-78137988D01*
X80899000Y-78867000D01*
X74422000Y-78867000D01*
X74276991Y-78137988D01*
X73864038Y-77519962D01*
X73246012Y-77107009D01*
X72517000Y-76962000D01*
X61468000Y-76962000D01*
X60738988Y-77107009D01*
X60120962Y-77519962D01*
X59938921Y-77792405D01*
X59909890Y-77772569D01*
X59658000Y-77721560D01*
X58158000Y-77721560D01*
X57922683Y-77765838D01*
X57706559Y-77904910D01*
X57660031Y-77973006D01*
X57517698Y-77830673D01*
X57284309Y-77734000D01*
X56630250Y-77734000D01*
X56471500Y-77892750D01*
X56344500Y-77892750D01*
X56185750Y-77734000D01*
X55531691Y-77734000D01*
X55298302Y-77830673D01*
X55119673Y-78009301D01*
X55023000Y-78242690D01*
X51022000Y-78242690D01*
X50925327Y-78009301D01*
X50746698Y-77830673D01*
X50513309Y-77734000D01*
X49859250Y-77734000D01*
X49700500Y-77892750D01*
X49573500Y-77892750D01*
X49414750Y-77734000D01*
X48760691Y-77734000D01*
X48527302Y-77830673D01*
X48386064Y-77971910D01*
X48351090Y-77917559D01*
X48138890Y-77772569D01*
X47887000Y-77721560D01*
X46387000Y-77721560D01*
X46151683Y-77765838D01*
X46019338Y-77851000D01*
X45933372Y-77851000D01*
X45797038Y-77646962D01*
X45179012Y-77234009D01*
X44450000Y-77089000D01*
X34036000Y-77089000D01*
X33306988Y-77234009D01*
X32688962Y-77646962D01*
X32276009Y-78264988D01*
X32131000Y-78994000D01*
X31396356Y-78994000D01*
X36818373Y-69671250D01*
X50937000Y-69671250D01*
X50937000Y-70325309D01*
X51033673Y-70558698D01*
X51212301Y-70737327D01*
X51445690Y-70834000D01*
X51974750Y-70834000D01*
X52133500Y-70675250D01*
X52133500Y-69512500D01*
X52260500Y-69512500D01*
X52260500Y-70675250D01*
X52419250Y-70834000D01*
X52948310Y-70834000D01*
X53181699Y-70737327D01*
X53360327Y-70558698D01*
X53457000Y-70325309D01*
X53457000Y-69671250D01*
X53298250Y-69512500D01*
X52260500Y-69512500D01*
X52133500Y-69512500D01*
X51095750Y-69512500D01*
X50937000Y-69671250D01*
X36818373Y-69671250D01*
X43451925Y-58265359D01*
X44068802Y-58265359D01*
X44242446Y-58685612D01*
X44563697Y-59007423D01*
X44983646Y-59181801D01*
X45438359Y-59182198D01*
X45438838Y-59182000D01*
X47117000Y-59182000D01*
X47554407Y-59094994D01*
X47925223Y-58847223D01*
X49749446Y-57023000D01*
X49818554Y-57023000D01*
X50292000Y-57496446D01*
X50292000Y-64008000D01*
X50437009Y-64737012D01*
X50849962Y-65355038D01*
X51054000Y-65491372D01*
X51054000Y-65832322D01*
X50975569Y-65947110D01*
X50924560Y-66199000D01*
X50924560Y-67699000D01*
X50968838Y-67934317D01*
X51107910Y-68150441D01*
X51176006Y-68196969D01*
X51033673Y-68339302D01*
X50937000Y-68572691D01*
X50937000Y-69226750D01*
X51095750Y-69385500D01*
X52133500Y-69385500D01*
X52133500Y-69365500D01*
X52260500Y-69365500D01*
X52260500Y-69385500D01*
X53298250Y-69385500D01*
X53457000Y-69226750D01*
X53457000Y-68834250D01*
X63072000Y-68834250D01*
X63072000Y-69238310D01*
X63168673Y-69471699D01*
X63347302Y-69650327D01*
X63580691Y-69747000D01*
X65084750Y-69747000D01*
X65243500Y-69588250D01*
X65243500Y-68675500D01*
X65370500Y-68675500D01*
X65370500Y-69588250D01*
X65529250Y-69747000D01*
X67033309Y-69747000D01*
X67266698Y-69650327D01*
X67445327Y-69471699D01*
X67542000Y-69238310D01*
X67542000Y-68834250D01*
X67383250Y-68675500D01*
X65370500Y-68675500D01*
X65243500Y-68675500D01*
X63230750Y-68675500D01*
X63072000Y-68834250D01*
X53457000Y-68834250D01*
X53457000Y-68572691D01*
X53360327Y-68339302D01*
X53219090Y-68198064D01*
X53273441Y-68163090D01*
X53394653Y-67985690D01*
X63072000Y-67985690D01*
X63072000Y-68389750D01*
X63230750Y-68548500D01*
X65243500Y-68548500D01*
X65243500Y-67635750D01*
X65370500Y-67635750D01*
X65370500Y-68548500D01*
X67383250Y-68548500D01*
X67542000Y-68389750D01*
X67542000Y-67985690D01*
X67445327Y-67752301D01*
X67266698Y-67573673D01*
X67033309Y-67477000D01*
X65529250Y-67477000D01*
X65370500Y-67635750D01*
X65243500Y-67635750D01*
X65084750Y-67477000D01*
X63580691Y-67477000D01*
X63347302Y-67573673D01*
X63168673Y-67752301D01*
X63072000Y-67985690D01*
X53394653Y-67985690D01*
X53418431Y-67950890D01*
X53469440Y-67699000D01*
X53469440Y-66199000D01*
X53425162Y-65963683D01*
X53340000Y-65831338D01*
X53340000Y-65491372D01*
X53544038Y-65355038D01*
X53956991Y-64737012D01*
X54102000Y-64008000D01*
X54102000Y-63857000D01*
X63059560Y-63857000D01*
X63059560Y-64857000D01*
X63103838Y-65092317D01*
X63242910Y-65308441D01*
X63455110Y-65453431D01*
X63707000Y-65504440D01*
X66907000Y-65504440D01*
X67142317Y-65460162D01*
X67358441Y-65321090D01*
X67503431Y-65108890D01*
X67554440Y-64857000D01*
X67554440Y-63857000D01*
X67510162Y-63621683D01*
X67371090Y-63405559D01*
X67158890Y-63260569D01*
X66907000Y-63209560D01*
X66420810Y-63209560D01*
X66421198Y-62765641D01*
X66247554Y-62345388D01*
X65926303Y-62023577D01*
X65506354Y-61849199D01*
X65051641Y-61848802D01*
X64631388Y-62022446D01*
X64309577Y-62343697D01*
X64135199Y-62763646D01*
X64134810Y-63209560D01*
X63707000Y-63209560D01*
X63471683Y-63253838D01*
X63255559Y-63392910D01*
X63110569Y-63605110D01*
X63059560Y-63857000D01*
X54102000Y-63857000D01*
X54102000Y-60579250D01*
X63072000Y-60579250D01*
X63072000Y-60983310D01*
X63168673Y-61216699D01*
X63347302Y-61395327D01*
X63580691Y-61492000D01*
X65084750Y-61492000D01*
X65243500Y-61333250D01*
X65243500Y-60420500D01*
X65370500Y-60420500D01*
X65370500Y-61333250D01*
X65529250Y-61492000D01*
X67033309Y-61492000D01*
X67266698Y-61395327D01*
X67445327Y-61216699D01*
X67542000Y-60983310D01*
X67542000Y-60579250D01*
X67383250Y-60420500D01*
X65370500Y-60420500D01*
X65243500Y-60420500D01*
X63230750Y-60420500D01*
X63072000Y-60579250D01*
X54102000Y-60579250D01*
X54102000Y-59106214D01*
X54483000Y-59182000D01*
X54990575Y-59182000D01*
X55217359Y-59182198D01*
X55637612Y-59008554D01*
X55959423Y-58687303D01*
X55959622Y-58686824D01*
X56024196Y-58622250D01*
X59700000Y-58622250D01*
X59700000Y-59276309D01*
X59796673Y-59509698D01*
X59975301Y-59688327D01*
X60208690Y-59785000D01*
X60737750Y-59785000D01*
X60896500Y-59626250D01*
X60896500Y-58463500D01*
X61023500Y-58463500D01*
X61023500Y-59626250D01*
X61182250Y-59785000D01*
X61711310Y-59785000D01*
X61842425Y-59730690D01*
X63072000Y-59730690D01*
X63072000Y-60134750D01*
X63230750Y-60293500D01*
X65243500Y-60293500D01*
X65243500Y-59380750D01*
X65370500Y-59380750D01*
X65370500Y-60293500D01*
X67383250Y-60293500D01*
X67542000Y-60134750D01*
X67542000Y-59730690D01*
X67445327Y-59497301D01*
X67266698Y-59318673D01*
X67033309Y-59222000D01*
X65529250Y-59222000D01*
X65370500Y-59380750D01*
X65243500Y-59380750D01*
X65084750Y-59222000D01*
X63580691Y-59222000D01*
X63347302Y-59318673D01*
X63168673Y-59497301D01*
X63072000Y-59730690D01*
X61842425Y-59730690D01*
X61944699Y-59688327D01*
X62123327Y-59509698D01*
X62220000Y-59276309D01*
X62220000Y-58622250D01*
X62061250Y-58463500D01*
X61023500Y-58463500D01*
X60896500Y-58463500D01*
X59858750Y-58463500D01*
X59700000Y-58622250D01*
X56024196Y-58622250D01*
X57496446Y-57150000D01*
X59308575Y-57150000D01*
X59535359Y-57150198D01*
X59794799Y-57043000D01*
X59833304Y-57043000D01*
X59870910Y-57101441D01*
X59939006Y-57147969D01*
X59796673Y-57290302D01*
X59700000Y-57523691D01*
X59700000Y-58177750D01*
X59858750Y-58336500D01*
X60896500Y-58336500D01*
X60896500Y-58316500D01*
X61023500Y-58316500D01*
X61023500Y-58336500D01*
X62061250Y-58336500D01*
X62220000Y-58177750D01*
X62220000Y-57523691D01*
X62123327Y-57290302D01*
X61982090Y-57149064D01*
X62036441Y-57114090D01*
X62181431Y-56901890D01*
X62232440Y-56650000D01*
X62232440Y-55475000D01*
X63059560Y-55475000D01*
X63059560Y-56475000D01*
X63103838Y-56710317D01*
X63242910Y-56926441D01*
X63455110Y-57071431D01*
X63707000Y-57122440D01*
X66907000Y-57122440D01*
X67142317Y-57078162D01*
X67358441Y-56939090D01*
X67503431Y-56726890D01*
X67554440Y-56475000D01*
X67554440Y-55475000D01*
X67510162Y-55239683D01*
X67441477Y-55132943D01*
X67563801Y-54838354D01*
X67564198Y-54383641D01*
X67390554Y-53963388D01*
X67069303Y-53641577D01*
X66649354Y-53467199D01*
X66194641Y-53466802D01*
X65774388Y-53640446D01*
X65452577Y-53961697D01*
X65278199Y-54381646D01*
X65277943Y-54675427D01*
X65125810Y-54827560D01*
X63707000Y-54827560D01*
X63471683Y-54871838D01*
X63255559Y-55010910D01*
X63110569Y-55223110D01*
X63059560Y-55475000D01*
X62232440Y-55475000D01*
X62232440Y-55150000D01*
X62188162Y-54914683D01*
X62049090Y-54698559D01*
X61836890Y-54553569D01*
X61585000Y-54502560D01*
X60335000Y-54502560D01*
X60099683Y-54546838D01*
X59883559Y-54685910D01*
X59834985Y-54757000D01*
X59416000Y-54757000D01*
X58978593Y-54844006D01*
X58948670Y-54864000D01*
X57023000Y-54864000D01*
X56585593Y-54951006D01*
X56214777Y-55198777D01*
X54737000Y-56676554D01*
X54102000Y-56041554D01*
X54102000Y-52197250D01*
X63072000Y-52197250D01*
X63072000Y-52601310D01*
X63168673Y-52834699D01*
X63347302Y-53013327D01*
X63580691Y-53110000D01*
X65084750Y-53110000D01*
X65243500Y-52951250D01*
X65243500Y-52038500D01*
X65370500Y-52038500D01*
X65370500Y-52951250D01*
X65529250Y-53110000D01*
X67033309Y-53110000D01*
X67266698Y-53013327D01*
X67445327Y-52834699D01*
X67542000Y-52601310D01*
X67542000Y-52197250D01*
X67383250Y-52038500D01*
X65370500Y-52038500D01*
X65243500Y-52038500D01*
X63230750Y-52038500D01*
X63072000Y-52197250D01*
X54102000Y-52197250D01*
X54102000Y-51348690D01*
X63072000Y-51348690D01*
X63072000Y-51752750D01*
X63230750Y-51911500D01*
X65243500Y-51911500D01*
X65243500Y-50998750D01*
X65370500Y-50998750D01*
X65370500Y-51911500D01*
X67383250Y-51911500D01*
X67542000Y-51752750D01*
X67542000Y-51348690D01*
X67445327Y-51115301D01*
X67266698Y-50936673D01*
X67033309Y-50840000D01*
X65529250Y-50840000D01*
X65370500Y-50998750D01*
X65243500Y-50998750D01*
X65084750Y-50840000D01*
X63580691Y-50840000D01*
X63347302Y-50936673D01*
X63168673Y-51115301D01*
X63072000Y-51348690D01*
X54102000Y-51348690D01*
X54102000Y-49911000D01*
X53956991Y-49181988D01*
X53544038Y-48563962D01*
X52926012Y-48151009D01*
X52197000Y-48006000D01*
X51467988Y-48151009D01*
X50849962Y-48563962D01*
X50437009Y-49181988D01*
X50292000Y-49911000D01*
X50292000Y-54737000D01*
X49276425Y-54737000D01*
X49049641Y-54736802D01*
X48629388Y-54910446D01*
X48307577Y-55231697D01*
X48307378Y-55232176D01*
X46643554Y-56896000D01*
X45212425Y-56896000D01*
X44985641Y-56895802D01*
X44565388Y-57069446D01*
X44243577Y-57390697D01*
X44069199Y-57810646D01*
X44068802Y-58265359D01*
X43451925Y-58265359D01*
X44432783Y-56578849D01*
X44448975Y-56531107D01*
X44445316Y-56480826D01*
X44432855Y-56451275D01*
X39239181Y-47498000D01*
X54280060Y-47498000D01*
X54280060Y-48006000D01*
X54324338Y-48241317D01*
X54463410Y-48457441D01*
X54675610Y-48602431D01*
X54927500Y-48653440D01*
X56070500Y-48653440D01*
X56305817Y-48609162D01*
X56521941Y-48470090D01*
X56666931Y-48257890D01*
X56717940Y-48006000D01*
X56717940Y-47974250D01*
X60642500Y-47974250D01*
X60642500Y-48132309D01*
X60739173Y-48365698D01*
X60917801Y-48544327D01*
X61151190Y-48641000D01*
X61626750Y-48641000D01*
X61785500Y-48482250D01*
X61785500Y-47815500D01*
X61912500Y-47815500D01*
X61912500Y-48482250D01*
X62071250Y-48641000D01*
X62546810Y-48641000D01*
X62780199Y-48544327D01*
X62958827Y-48365698D01*
X63055500Y-48132309D01*
X63055500Y-47974250D01*
X62896750Y-47815500D01*
X61912500Y-47815500D01*
X61785500Y-47815500D01*
X60801250Y-47815500D01*
X60642500Y-47974250D01*
X56717940Y-47974250D01*
X56717940Y-47498000D01*
X56673662Y-47262683D01*
X56582896Y-47121629D01*
X56608827Y-47095698D01*
X56705500Y-46862309D01*
X56705500Y-46704250D01*
X56546750Y-46545500D01*
X55562500Y-46545500D01*
X55562500Y-46565500D01*
X55435500Y-46565500D01*
X55435500Y-46545500D01*
X54451250Y-46545500D01*
X54292500Y-46704250D01*
X54292500Y-46862309D01*
X54389173Y-47095698D01*
X54415709Y-47122235D01*
X54331069Y-47246110D01*
X54280060Y-47498000D01*
X39239181Y-47498000D01*
X27525492Y-27305000D01*
X71539416Y-27305000D01*
X71411569Y-27492110D01*
X71411569Y-27492110D01*
G37*
X71411569Y-27492110D02*
X71360560Y-27744000D01*
X71360560Y-29644000D01*
X71404838Y-29879317D01*
X71543910Y-30095441D01*
X71756110Y-30240431D01*
X71930056Y-30275656D01*
X71923000Y-30292690D01*
X71923000Y-30996750D01*
X72081750Y-31155500D01*
X73544500Y-31155500D01*
X73544500Y-31135500D01*
X73671500Y-31135500D01*
X73671500Y-31155500D01*
X73691500Y-31155500D01*
X73691500Y-31282500D01*
X73671500Y-31282500D01*
X73671500Y-32495250D01*
X73830250Y-32654000D01*
X74784309Y-32654000D01*
X74903632Y-32604575D01*
X74956110Y-32640431D01*
X75208000Y-32691440D01*
X75608000Y-32691440D01*
X75614492Y-32690218D01*
X75665128Y-32766001D01*
X75689784Y-32802901D01*
X75748801Y-32861918D01*
X75748801Y-34201985D01*
X75643000Y-34180560D01*
X75093000Y-34180560D01*
X74963411Y-34204944D01*
X74843000Y-34180560D01*
X74293000Y-34180560D01*
X74163411Y-34204944D01*
X74043000Y-34180560D01*
X73694307Y-34180560D01*
X73671996Y-34068395D01*
X73569949Y-33915671D01*
X73506816Y-33821185D01*
X72674815Y-32989185D01*
X72542837Y-32901000D01*
X72427605Y-32824004D01*
X72136000Y-32766000D01*
X69469000Y-32766000D01*
X69177395Y-32824004D01*
X68930185Y-32989185D01*
X65851370Y-36068000D01*
X60325000Y-36068000D01*
X60033395Y-36126004D01*
X59972316Y-36166816D01*
X59786185Y-36291184D01*
X59755312Y-36322057D01*
X59463641Y-36321802D01*
X59043388Y-36495446D01*
X58721577Y-36816697D01*
X58610583Y-37084000D01*
X49845631Y-37084000D01*
X46303465Y-33541834D01*
X49434543Y-33541834D01*
X49834853Y-34510658D01*
X50575443Y-35252542D01*
X51543567Y-35654542D01*
X52591834Y-35655457D01*
X53560658Y-35255147D01*
X54302542Y-34514557D01*
X54704542Y-33546433D01*
X54705457Y-32498166D01*
X54305147Y-31529342D01*
X54217209Y-31441250D01*
X71923000Y-31441250D01*
X71923000Y-32145310D01*
X72019673Y-32378699D01*
X72198302Y-32557327D01*
X72431691Y-32654000D01*
X73385750Y-32654000D01*
X73544500Y-32495250D01*
X73544500Y-31282500D01*
X72081750Y-31282500D01*
X71923000Y-31441250D01*
X54217209Y-31441250D01*
X53564557Y-30787458D01*
X52596433Y-30385458D01*
X51548166Y-30384543D01*
X50579342Y-30784853D01*
X49837458Y-31525443D01*
X49435458Y-32493567D01*
X49434543Y-33541834D01*
X46303465Y-33541834D01*
X42850630Y-30089000D01*
X43318750Y-30089000D01*
X43477500Y-29930250D01*
X43477500Y-28892500D01*
X43604500Y-28892500D01*
X43604500Y-29930250D01*
X43763250Y-30089000D01*
X44417309Y-30089000D01*
X44650698Y-29992327D01*
X44829327Y-29813699D01*
X44926000Y-29580310D01*
X44926000Y-29051250D01*
X44767250Y-28892500D01*
X43604500Y-28892500D01*
X43477500Y-28892500D01*
X43457500Y-28892500D01*
X43457500Y-28765500D01*
X43477500Y-28765500D01*
X43477500Y-27727750D01*
X43604500Y-27727750D01*
X43604500Y-28765500D01*
X44767250Y-28765500D01*
X44926000Y-28606750D01*
X44926000Y-28077690D01*
X44829327Y-27844301D01*
X44650698Y-27665673D01*
X44417309Y-27569000D01*
X43763250Y-27569000D01*
X43604500Y-27727750D01*
X43477500Y-27727750D01*
X43318750Y-27569000D01*
X42664691Y-27569000D01*
X42431302Y-27665673D01*
X42290064Y-27806910D01*
X42255090Y-27752559D01*
X42042890Y-27607569D01*
X41791000Y-27556560D01*
X40291000Y-27556560D01*
X40055683Y-27600838D01*
X39923338Y-27686000D01*
X39116425Y-27686000D01*
X38889641Y-27685802D01*
X38469388Y-27859446D01*
X38147577Y-28180697D01*
X37973199Y-28600646D01*
X37972802Y-29055359D01*
X38089173Y-29337000D01*
X35398367Y-29337000D01*
X35192303Y-29130577D01*
X34772354Y-28956199D01*
X34317641Y-28955802D01*
X33897388Y-29129446D01*
X33575577Y-29450697D01*
X33401199Y-29870646D01*
X33400889Y-30226000D01*
X32065631Y-30226000D01*
X31877000Y-30037370D01*
X31877000Y-29683367D01*
X32083423Y-29477303D01*
X32257801Y-29057354D01*
X32258198Y-28602641D01*
X32084554Y-28182388D01*
X31763303Y-27860577D01*
X31343354Y-27686199D01*
X30888641Y-27685802D01*
X30468388Y-27859446D01*
X30146577Y-28180697D01*
X29972199Y-28600646D01*
X29971802Y-29055359D01*
X30145446Y-29475612D01*
X30353000Y-29683528D01*
X30353000Y-30353000D01*
X30411004Y-30644605D01*
X30499868Y-30777599D01*
X30576185Y-30891815D01*
X31211185Y-31526816D01*
X31290033Y-31579500D01*
X31458395Y-31691996D01*
X31750000Y-31750000D01*
X41467370Y-31750000D01*
X48610185Y-38892815D01*
X48857395Y-39057996D01*
X49149000Y-39116000D01*
X53440797Y-39116000D01*
X53328388Y-39162446D01*
X53006577Y-39483697D01*
X52832199Y-39903646D01*
X52831802Y-40358359D01*
X53005446Y-40778612D01*
X53213000Y-40986528D01*
X53213000Y-43688000D01*
X53271004Y-43979605D01*
X53351326Y-44099815D01*
X53436185Y-44226815D01*
X54280060Y-45070691D01*
X54280060Y-45466000D01*
X54324338Y-45701317D01*
X54415104Y-45842371D01*
X54389173Y-45868302D01*
X54292500Y-46101691D01*
X54292500Y-46259750D01*
X54451250Y-46418500D01*
X55435500Y-46418500D01*
X55435500Y-46398500D01*
X55562500Y-46398500D01*
X55562500Y-46418500D01*
X56546750Y-46418500D01*
X56705500Y-46259750D01*
X56705500Y-46101691D01*
X56608827Y-45868302D01*
X56582291Y-45841765D01*
X56666931Y-45717890D01*
X56717940Y-45466000D01*
X56717940Y-44958000D01*
X56673662Y-44722683D01*
X56579334Y-44576093D01*
X56666931Y-44447890D01*
X56717940Y-44196000D01*
X56717940Y-43688000D01*
X56673662Y-43452683D01*
X56582896Y-43311629D01*
X56608827Y-43285698D01*
X56705500Y-43052309D01*
X56705500Y-42894250D01*
X56546750Y-42735500D01*
X55562500Y-42735500D01*
X55562500Y-42755500D01*
X55435500Y-42755500D01*
X55435500Y-42735500D01*
X55415500Y-42735500D01*
X55415500Y-42608500D01*
X55435500Y-42608500D01*
X55435500Y-42588500D01*
X55562500Y-42588500D01*
X55562500Y-42608500D01*
X56546750Y-42608500D01*
X56705500Y-42449750D01*
X56705500Y-42291691D01*
X56608827Y-42058302D01*
X56582291Y-42031765D01*
X56666931Y-41907890D01*
X56717940Y-41656000D01*
X56717940Y-41285570D01*
X59817000Y-44384631D01*
X59817000Y-45720000D01*
X59875004Y-46011605D01*
X60036968Y-46254000D01*
X60040185Y-46258815D01*
X60656179Y-46874810D01*
X60674338Y-46971317D01*
X60765104Y-47112371D01*
X60739173Y-47138302D01*
X60642500Y-47371691D01*
X60642500Y-47529750D01*
X60801250Y-47688500D01*
X61785500Y-47688500D01*
X61785500Y-47668500D01*
X61912500Y-47668500D01*
X61912500Y-47688500D01*
X62896750Y-47688500D01*
X63055500Y-47529750D01*
X63055500Y-47371691D01*
X62958827Y-47138302D01*
X62932291Y-47111765D01*
X63016931Y-46987890D01*
X63067940Y-46736000D01*
X63067940Y-46430250D01*
X66177000Y-46430250D01*
X66177000Y-47084309D01*
X66273673Y-47317698D01*
X66452301Y-47496327D01*
X66685690Y-47593000D01*
X67214750Y-47593000D01*
X67373500Y-47434250D01*
X67373500Y-46271500D01*
X67500500Y-46271500D01*
X67500500Y-47434250D01*
X67659250Y-47593000D01*
X68188310Y-47593000D01*
X68421699Y-47496327D01*
X68600327Y-47317698D01*
X68697000Y-47084309D01*
X68697000Y-46430250D01*
X68538250Y-46271500D01*
X67500500Y-46271500D01*
X67373500Y-46271500D01*
X66335750Y-46271500D01*
X66177000Y-46430250D01*
X63067940Y-46430250D01*
X63067940Y-46228000D01*
X63023662Y-45992683D01*
X62952753Y-45882488D01*
X63149815Y-45750815D01*
X63911816Y-44988815D01*
X63967030Y-44906181D01*
X63993000Y-44911440D01*
X65293000Y-44911440D01*
X65528317Y-44867162D01*
X65744441Y-44728090D01*
X65889431Y-44515890D01*
X65898724Y-44470000D01*
X66166818Y-44470000D01*
X66208838Y-44693317D01*
X66347910Y-44909441D01*
X66416006Y-44955969D01*
X66273673Y-45098302D01*
X66177000Y-45331691D01*
X66177000Y-45985750D01*
X66335750Y-46144500D01*
X67373500Y-46144500D01*
X67373500Y-46124500D01*
X67500500Y-46124500D01*
X67500500Y-46144500D01*
X68538250Y-46144500D01*
X68697000Y-45985750D01*
X68697000Y-45331691D01*
X68600327Y-45098302D01*
X68459090Y-44957064D01*
X68513441Y-44922090D01*
X68658431Y-44709890D01*
X68681292Y-44597000D01*
X68888000Y-44597000D01*
X69228206Y-44529329D01*
X69516618Y-44336618D01*
X70252796Y-43600440D01*
X70445560Y-43600440D01*
X70445560Y-44928000D01*
X70489838Y-45163317D01*
X70606000Y-45343838D01*
X70606000Y-47811370D01*
X68422185Y-49995185D01*
X68257004Y-50242395D01*
X68199000Y-50534000D01*
X68199000Y-69466000D01*
X68257004Y-69757605D01*
X68381756Y-69944309D01*
X68422185Y-70004815D01*
X70061474Y-71644104D01*
X70055559Y-71647910D01*
X69917477Y-71850000D01*
X67492992Y-71850000D01*
X67371090Y-71660559D01*
X67158890Y-71515569D01*
X66907000Y-71464560D01*
X63707000Y-71464560D01*
X63471683Y-71508838D01*
X63255559Y-71647910D01*
X63110569Y-71860110D01*
X63059560Y-72112000D01*
X63059560Y-73112000D01*
X63103838Y-73347317D01*
X63242910Y-73563441D01*
X63455110Y-73708431D01*
X63707000Y-73759440D01*
X66907000Y-73759440D01*
X67142317Y-73715162D01*
X67358441Y-73576090D01*
X67496523Y-73374000D01*
X69921008Y-73374000D01*
X70042910Y-73563441D01*
X70255110Y-73708431D01*
X70507000Y-73759440D01*
X73707000Y-73759440D01*
X73942317Y-73715162D01*
X74158441Y-73576090D01*
X74303431Y-73363890D01*
X74354440Y-73112000D01*
X74354440Y-72112000D01*
X74310162Y-71876683D01*
X74171090Y-71660559D01*
X73958890Y-71515569D01*
X73707000Y-71464560D01*
X72037190Y-71464560D01*
X70276453Y-69703823D01*
X70380691Y-69747000D01*
X71884750Y-69747000D01*
X72043500Y-69588250D01*
X72043500Y-68675500D01*
X72170500Y-68675500D01*
X72170500Y-69588250D01*
X72329250Y-69747000D01*
X73833309Y-69747000D01*
X74066698Y-69650327D01*
X74245327Y-69471699D01*
X74320485Y-69290250D01*
X99959000Y-69290250D01*
X99959000Y-69944309D01*
X100055673Y-70177698D01*
X100234301Y-70356327D01*
X100467690Y-70453000D01*
X100996750Y-70453000D01*
X101155500Y-70294250D01*
X101155500Y-69131500D01*
X101282500Y-69131500D01*
X101282500Y-70294250D01*
X101441250Y-70453000D01*
X101970310Y-70453000D01*
X102203699Y-70356327D01*
X102382327Y-70177698D01*
X102479000Y-69944309D01*
X102479000Y-69290250D01*
X102320250Y-69131500D01*
X101282500Y-69131500D01*
X101155500Y-69131500D01*
X100117750Y-69131500D01*
X99959000Y-69290250D01*
X74320485Y-69290250D01*
X74342000Y-69238310D01*
X74342000Y-68834250D01*
X74183250Y-68675500D01*
X72170500Y-68675500D01*
X72043500Y-68675500D01*
X70030750Y-68675500D01*
X69872000Y-68834250D01*
X69872000Y-69238310D01*
X69915176Y-69342546D01*
X69723000Y-69150370D01*
X69723000Y-67985690D01*
X69872000Y-67985690D01*
X69872000Y-68389750D01*
X70030750Y-68548500D01*
X72043500Y-68548500D01*
X72043500Y-67635750D01*
X72170500Y-67635750D01*
X72170500Y-68548500D01*
X74183250Y-68548500D01*
X74342000Y-68389750D01*
X74342000Y-67985690D01*
X74245327Y-67752301D01*
X74066698Y-67573673D01*
X73833309Y-67477000D01*
X72329250Y-67477000D01*
X72170500Y-67635750D01*
X72043500Y-67635750D01*
X71884750Y-67477000D01*
X70380691Y-67477000D01*
X70147302Y-67573673D01*
X69968673Y-67752301D01*
X69872000Y-67985690D01*
X69723000Y-67985690D01*
X69723000Y-63050630D01*
X70061474Y-63389104D01*
X70055559Y-63392910D01*
X69910569Y-63605110D01*
X69859560Y-63857000D01*
X69859560Y-64857000D01*
X69903838Y-65092317D01*
X70042910Y-65308441D01*
X70255110Y-65453431D01*
X70507000Y-65504440D01*
X73707000Y-65504440D01*
X73942317Y-65460162D01*
X74158441Y-65321090D01*
X74303431Y-65108890D01*
X74354440Y-64857000D01*
X74354440Y-63857000D01*
X74310162Y-63621683D01*
X74171090Y-63405559D01*
X73958890Y-63260569D01*
X73707000Y-63209560D01*
X73278810Y-63209560D01*
X73279198Y-62765641D01*
X73105554Y-62345388D01*
X72784303Y-62023577D01*
X72364354Y-61849199D01*
X71909641Y-61848802D01*
X71489388Y-62022446D01*
X71169454Y-62341823D01*
X70276453Y-61448823D01*
X70380691Y-61492000D01*
X71884750Y-61492000D01*
X72043500Y-61333250D01*
X72043500Y-60420500D01*
X72170500Y-60420500D01*
X72170500Y-61333250D01*
X72329250Y-61492000D01*
X73833309Y-61492000D01*
X74066698Y-61395327D01*
X74245327Y-61216699D01*
X74342000Y-60983310D01*
X74342000Y-60579250D01*
X74183250Y-60420500D01*
X72170500Y-60420500D01*
X72043500Y-60420500D01*
X72023500Y-60420500D01*
X72023500Y-60293500D01*
X72043500Y-60293500D01*
X72043500Y-59380750D01*
X72170500Y-59380750D01*
X72170500Y-60293500D01*
X74183250Y-60293500D01*
X74342000Y-60134750D01*
X74342000Y-59730690D01*
X74245327Y-59497301D01*
X74066698Y-59318673D01*
X73833309Y-59222000D01*
X72329250Y-59222000D01*
X72170500Y-59380750D01*
X72043500Y-59380750D01*
X71884750Y-59222000D01*
X70380691Y-59222000D01*
X70231000Y-59284004D01*
X70231000Y-57054957D01*
X70255110Y-57071431D01*
X70507000Y-57122440D01*
X73707000Y-57122440D01*
X73942317Y-57078162D01*
X74158441Y-56939090D01*
X74303431Y-56726890D01*
X74354440Y-56475000D01*
X74354440Y-55475000D01*
X74310162Y-55239683D01*
X74171090Y-55023559D01*
X73958890Y-54878569D01*
X73707000Y-54827560D01*
X73230548Y-54827560D01*
X73278801Y-54711354D01*
X73279198Y-54256641D01*
X73105554Y-53836388D01*
X72784303Y-53514577D01*
X72364354Y-53340199D01*
X71909641Y-53339802D01*
X71489388Y-53513446D01*
X71167577Y-53834697D01*
X71131415Y-53921785D01*
X70739000Y-53529370D01*
X70739000Y-53110000D01*
X71884750Y-53110000D01*
X72043500Y-52951250D01*
X72043500Y-52038500D01*
X72170500Y-52038500D01*
X72170500Y-52951250D01*
X72329250Y-53110000D01*
X73833309Y-53110000D01*
X74066698Y-53013327D01*
X74245327Y-52834699D01*
X74294183Y-52716750D01*
X75130500Y-52716750D01*
X75130500Y-53370809D01*
X75227173Y-53604198D01*
X75405801Y-53782827D01*
X75639190Y-53879500D01*
X76168250Y-53879500D01*
X76327000Y-53720750D01*
X76327000Y-52558000D01*
X76454000Y-52558000D01*
X76454000Y-53720750D01*
X76612750Y-53879500D01*
X77141810Y-53879500D01*
X77375199Y-53782827D01*
X77553827Y-53604198D01*
X77650500Y-53370809D01*
X77650500Y-52716750D01*
X77670500Y-52716750D01*
X77670500Y-53370809D01*
X77767173Y-53604198D01*
X77945801Y-53782827D01*
X78179190Y-53879500D01*
X78708250Y-53879500D01*
X78867000Y-53720750D01*
X78867000Y-52558000D01*
X78994000Y-52558000D01*
X78994000Y-53720750D01*
X79152750Y-53879500D01*
X79681810Y-53879500D01*
X79915199Y-53782827D01*
X80093827Y-53604198D01*
X80190500Y-53370809D01*
X80190500Y-52716750D01*
X80031750Y-52558000D01*
X78994000Y-52558000D01*
X78867000Y-52558000D01*
X77829250Y-52558000D01*
X77670500Y-52716750D01*
X77650500Y-52716750D01*
X77491750Y-52558000D01*
X76454000Y-52558000D01*
X76327000Y-52558000D01*
X75289250Y-52558000D01*
X75130500Y-52716750D01*
X74294183Y-52716750D01*
X74342000Y-52601310D01*
X74342000Y-52197250D01*
X74183250Y-52038500D01*
X72170500Y-52038500D01*
X72043500Y-52038500D01*
X72023500Y-52038500D01*
X72023500Y-51911500D01*
X72043500Y-51911500D01*
X72043500Y-50998750D01*
X72170500Y-50998750D01*
X72170500Y-51911500D01*
X74183250Y-51911500D01*
X74342000Y-51752750D01*
X74342000Y-51348690D01*
X74245327Y-51115301D01*
X74066698Y-50936673D01*
X73833309Y-50840000D01*
X72329250Y-50840000D01*
X72170500Y-50998750D01*
X72043500Y-50998750D01*
X71884750Y-50840000D01*
X71395630Y-50840000D01*
X73506816Y-48728815D01*
X73630086Y-48544327D01*
X73671996Y-48481605D01*
X73730000Y-48190000D01*
X73730000Y-45575440D01*
X74043000Y-45575440D01*
X74172589Y-45551056D01*
X74293000Y-45575440D01*
X74843000Y-45575440D01*
X74972589Y-45551056D01*
X75093000Y-45575440D01*
X75406000Y-45575440D01*
X75406000Y-46148064D01*
X75314069Y-46282610D01*
X75263060Y-46534500D01*
X75263060Y-48334500D01*
X75307338Y-48569817D01*
X75405138Y-48721802D01*
X75314059Y-48780410D01*
X75169069Y-48992610D01*
X75118060Y-49244500D01*
X75118060Y-50744500D01*
X75162338Y-50979817D01*
X75301410Y-51195941D01*
X75369506Y-51242469D01*
X75227173Y-51384802D01*
X75130500Y-51618191D01*
X75130500Y-52272250D01*
X75289250Y-52431000D01*
X76327000Y-52431000D01*
X76327000Y-52411000D01*
X76454000Y-52411000D01*
X76454000Y-52431000D01*
X77491750Y-52431000D01*
X77650500Y-52272250D01*
X77650500Y-51618191D01*
X77553827Y-51384802D01*
X77412590Y-51243564D01*
X77466941Y-51208590D01*
X77611931Y-50996390D01*
X77660410Y-50756991D01*
X77702338Y-50979817D01*
X77841410Y-51195941D01*
X77909506Y-51242469D01*
X77767173Y-51384802D01*
X77670500Y-51618191D01*
X77670500Y-52272250D01*
X77829250Y-52431000D01*
X78867000Y-52431000D01*
X78867000Y-52411000D01*
X78994000Y-52411000D01*
X78994000Y-52431000D01*
X80031750Y-52431000D01*
X80190500Y-52272250D01*
X80190500Y-51618191D01*
X80093827Y-51384802D01*
X79952590Y-51243564D01*
X80006941Y-51208590D01*
X80151931Y-50996390D01*
X80202940Y-50744500D01*
X80202940Y-49244500D01*
X80158662Y-49009183D01*
X80019590Y-48793059D01*
X79914692Y-48721386D01*
X80006931Y-48586390D01*
X80057940Y-48334500D01*
X80057940Y-46534500D01*
X80013662Y-46299183D01*
X79874590Y-46083059D01*
X79662390Y-45938069D01*
X79410500Y-45887060D01*
X78440690Y-45887060D01*
X77796440Y-45242810D01*
X77839431Y-45179890D01*
X77890440Y-44928000D01*
X77890440Y-43600440D01*
X79218000Y-43600440D01*
X79453317Y-43556162D01*
X79633838Y-43440000D01*
X85034370Y-43440000D01*
X85699598Y-44105228D01*
X85699598Y-46602560D01*
X83464000Y-46602560D01*
X83228683Y-46646838D01*
X83012559Y-46785910D01*
X82867569Y-46998110D01*
X82816560Y-47250000D01*
X82816560Y-48000000D01*
X82860838Y-48235317D01*
X82874970Y-48257279D01*
X82867569Y-48268110D01*
X82816560Y-48520000D01*
X82816560Y-49270000D01*
X82860838Y-49505317D01*
X82874970Y-49527279D01*
X82867569Y-49538110D01*
X82816560Y-49790000D01*
X82816560Y-50540000D01*
X82860838Y-50775317D01*
X82874970Y-50797279D01*
X82867569Y-50808110D01*
X82816560Y-51060000D01*
X82816560Y-51810000D01*
X82841586Y-51943000D01*
X82261367Y-51943000D01*
X82055303Y-51736577D01*
X81635354Y-51562199D01*
X81180641Y-51561802D01*
X80760388Y-51735446D01*
X80438577Y-52056697D01*
X80264199Y-52476646D01*
X80263802Y-52931359D01*
X80437446Y-53351612D01*
X80645000Y-53559528D01*
X80645000Y-54631548D01*
X80633559Y-54638910D01*
X80488569Y-54851110D01*
X80437560Y-55103000D01*
X80437560Y-56403000D01*
X80481838Y-56638317D01*
X80608311Y-56834862D01*
X80488569Y-57010110D01*
X80437560Y-57262000D01*
X80437560Y-58562000D01*
X80481838Y-58797317D01*
X80620910Y-59013441D01*
X80685907Y-59057851D01*
X80606559Y-59108910D01*
X80461569Y-59321110D01*
X80410560Y-59573000D01*
X80410560Y-60823000D01*
X80454838Y-61058317D01*
X80593910Y-61274441D01*
X80806110Y-61419431D01*
X81058000Y-61470440D01*
X82558000Y-61470440D01*
X82793317Y-61426162D01*
X83009441Y-61287090D01*
X83055969Y-61218994D01*
X83198302Y-61361327D01*
X83431691Y-61458000D01*
X84085750Y-61458000D01*
X84244500Y-61299250D01*
X84244500Y-60261500D01*
X84371500Y-60261500D01*
X84371500Y-61299250D01*
X84530250Y-61458000D01*
X85184309Y-61458000D01*
X85417698Y-61361327D01*
X85596327Y-61182699D01*
X85693000Y-60949310D01*
X85693000Y-60420250D01*
X85534250Y-60261500D01*
X84371500Y-60261500D01*
X84244500Y-60261500D01*
X84224500Y-60261500D01*
X84224500Y-60134500D01*
X84244500Y-60134500D01*
X84244500Y-60114500D01*
X84371500Y-60114500D01*
X84371500Y-60134500D01*
X85534250Y-60134500D01*
X85693000Y-59975750D01*
X85693000Y-59446690D01*
X85596327Y-59213301D01*
X85537275Y-59154250D01*
X85736441Y-59026090D01*
X85881431Y-58813890D01*
X85909759Y-58674000D01*
X88519000Y-58674000D01*
X88810605Y-58615996D01*
X89057815Y-58450815D01*
X89243271Y-58265359D01*
X92963802Y-58265359D01*
X93137446Y-58685612D01*
X93458697Y-59007423D01*
X93878646Y-59181801D01*
X94333359Y-59182198D01*
X94333838Y-59182000D01*
X96520000Y-59182000D01*
X96957407Y-59094994D01*
X97328223Y-58847223D01*
X99025446Y-57150000D01*
X99314000Y-57150000D01*
X99314000Y-64008000D01*
X99459009Y-64737012D01*
X99871962Y-65355038D01*
X100057213Y-65478819D01*
X99997569Y-65566110D01*
X99946560Y-65818000D01*
X99946560Y-67318000D01*
X99990838Y-67553317D01*
X100129910Y-67769441D01*
X100198006Y-67815969D01*
X100055673Y-67958302D01*
X99959000Y-68191691D01*
X99959000Y-68845750D01*
X100117750Y-69004500D01*
X101155500Y-69004500D01*
X101155500Y-68984500D01*
X101282500Y-68984500D01*
X101282500Y-69004500D01*
X102320250Y-69004500D01*
X102479000Y-68845750D01*
X102479000Y-68191691D01*
X102382327Y-67958302D01*
X102241090Y-67817064D01*
X102295441Y-67782090D01*
X102440431Y-67569890D01*
X102491440Y-67318000D01*
X102491440Y-65818000D01*
X102447162Y-65582683D01*
X102380466Y-65479034D01*
X102566038Y-65355038D01*
X102978991Y-64737012D01*
X103124000Y-64008000D01*
X103124000Y-59401446D01*
X103343446Y-59182000D01*
X104012575Y-59182000D01*
X104239359Y-59182198D01*
X104659612Y-59008554D01*
X104981423Y-58687303D01*
X104981622Y-58686824D01*
X105300196Y-58368250D01*
X108976000Y-58368250D01*
X108976000Y-59022309D01*
X109072673Y-59255698D01*
X109251301Y-59434327D01*
X109484690Y-59531000D01*
X110013750Y-59531000D01*
X110172500Y-59372250D01*
X110172500Y-58209500D01*
X110299500Y-58209500D01*
X110299500Y-59372250D01*
X110458250Y-59531000D01*
X110987310Y-59531000D01*
X111220699Y-59434327D01*
X111399327Y-59255698D01*
X111496000Y-59022309D01*
X111496000Y-58368250D01*
X111337250Y-58209500D01*
X110299500Y-58209500D01*
X110172500Y-58209500D01*
X109134750Y-58209500D01*
X108976000Y-58368250D01*
X105300196Y-58368250D01*
X106518446Y-57150000D01*
X108330575Y-57150000D01*
X108557359Y-57150198D01*
X108977612Y-56976554D01*
X109131281Y-56823153D01*
X109146910Y-56847441D01*
X109215006Y-56893969D01*
X109072673Y-57036302D01*
X108976000Y-57269691D01*
X108976000Y-57923750D01*
X109134750Y-58082500D01*
X110172500Y-58082500D01*
X110172500Y-58062500D01*
X110299500Y-58062500D01*
X110299500Y-58082500D01*
X111337250Y-58082500D01*
X111496000Y-57923750D01*
X111496000Y-57269691D01*
X111399327Y-57036302D01*
X111258090Y-56895064D01*
X111312441Y-56860090D01*
X111457431Y-56647890D01*
X111508440Y-56396000D01*
X111508440Y-54896000D01*
X111464162Y-54660683D01*
X111325090Y-54444559D01*
X111112890Y-54299569D01*
X110861000Y-54248560D01*
X109611000Y-54248560D01*
X109375683Y-54292838D01*
X109159559Y-54431910D01*
X109110985Y-54503000D01*
X108692000Y-54503000D01*
X108254593Y-54590006D01*
X107883777Y-54837777D01*
X107857554Y-54864000D01*
X106045000Y-54864000D01*
X105607593Y-54951006D01*
X105236777Y-55198777D01*
X103539554Y-56896000D01*
X103124000Y-56896000D01*
X103124000Y-49911000D01*
X102978991Y-49181988D01*
X102566038Y-48563962D01*
X101948012Y-48151009D01*
X101219000Y-48006000D01*
X100489988Y-48151009D01*
X99871962Y-48563962D01*
X99459009Y-49181988D01*
X99314000Y-49911000D01*
X99314000Y-54771554D01*
X99221554Y-54864000D01*
X98552425Y-54864000D01*
X98325641Y-54863802D01*
X97905388Y-55037446D01*
X97583577Y-55358697D01*
X97583378Y-55359176D01*
X96046554Y-56896000D01*
X94107425Y-56896000D01*
X93880641Y-56895802D01*
X93460388Y-57069446D01*
X93138577Y-57390697D01*
X92964199Y-57810646D01*
X92963802Y-58265359D01*
X89243271Y-58265359D01*
X98357815Y-49150815D01*
X98522996Y-48903605D01*
X98531073Y-48863000D01*
X98581000Y-48612000D01*
X98581000Y-47216440D01*
X99419000Y-47216440D01*
X99654317Y-47172162D01*
X99870441Y-47033090D01*
X100008523Y-46831000D01*
X102433008Y-46831000D01*
X102554910Y-47020441D01*
X102767110Y-47165431D01*
X103019000Y-47216440D01*
X106219000Y-47216440D01*
X106454317Y-47172162D01*
X106670441Y-47033090D01*
X106815431Y-46820890D01*
X106866440Y-46569000D01*
X106866440Y-45569000D01*
X106822162Y-45333683D01*
X106683090Y-45117559D01*
X106470890Y-44972569D01*
X106219000Y-44921560D01*
X103019000Y-44921560D01*
X102783683Y-44965838D01*
X102567559Y-45104910D01*
X102429477Y-45307000D01*
X100004992Y-45307000D01*
X99883090Y-45117559D01*
X99670890Y-44972569D01*
X99419000Y-44921560D01*
X96219000Y-44921560D01*
X95983683Y-44965838D01*
X95767559Y-45104910D01*
X95622569Y-45317110D01*
X95571560Y-45569000D01*
X95571560Y-46569000D01*
X95615838Y-46804317D01*
X95754910Y-47020441D01*
X95967110Y-47165431D01*
X96219000Y-47216440D01*
X97057000Y-47216440D01*
X97057000Y-48296370D01*
X88203370Y-57150000D01*
X85911366Y-57150000D01*
X85888162Y-57026683D01*
X85761689Y-56830138D01*
X85881431Y-56654890D01*
X85932440Y-56403000D01*
X85932440Y-55433190D01*
X87279815Y-54085815D01*
X87444996Y-53838605D01*
X87461827Y-53753988D01*
X87467108Y-53727440D01*
X89764000Y-53727440D01*
X89999317Y-53683162D01*
X90215441Y-53544090D01*
X90360431Y-53331890D01*
X90411440Y-53080000D01*
X90411440Y-52330000D01*
X90367162Y-52094683D01*
X90353030Y-52072721D01*
X90360431Y-52061890D01*
X90411440Y-51810000D01*
X90411440Y-51060000D01*
X90367162Y-50824683D01*
X90346622Y-50792762D01*
X90399000Y-50666310D01*
X90399000Y-50387250D01*
X90240250Y-50228500D01*
X88627500Y-50228500D01*
X88627500Y-50248500D01*
X88500500Y-50248500D01*
X88500500Y-50228500D01*
X88480500Y-50228500D01*
X88480500Y-50101500D01*
X88500500Y-50101500D01*
X88500500Y-48958500D01*
X88627500Y-48958500D01*
X88627500Y-50101500D01*
X90240250Y-50101500D01*
X90399000Y-49942750D01*
X90399000Y-49663690D01*
X90343624Y-49530000D01*
X90399000Y-49396310D01*
X90399000Y-49117250D01*
X90240250Y-48958500D01*
X88627500Y-48958500D01*
X88500500Y-48958500D01*
X88480500Y-48958500D01*
X88480500Y-48831500D01*
X88500500Y-48831500D01*
X88500500Y-48811500D01*
X88627500Y-48811500D01*
X88627500Y-48831500D01*
X90240250Y-48831500D01*
X90399000Y-48672750D01*
X90399000Y-48393690D01*
X90347876Y-48270265D01*
X90360431Y-48251890D01*
X90411440Y-48000000D01*
X90411440Y-47250000D01*
X90367162Y-47014683D01*
X90228090Y-46798559D01*
X90015890Y-46653569D01*
X89764000Y-46602560D01*
X89453000Y-46602560D01*
X89453000Y-44375000D01*
X89385329Y-44034794D01*
X89192618Y-43746382D01*
X89067236Y-43621000D01*
X119337560Y-43621000D01*
X119337560Y-45221000D01*
X119381838Y-45456317D01*
X119520910Y-45672441D01*
X119733110Y-45817431D01*
X119985000Y-45868440D01*
X123385000Y-45868440D01*
X123620317Y-45824162D01*
X123836441Y-45685090D01*
X123981431Y-45472890D01*
X124032440Y-45221000D01*
X124032440Y-43621000D01*
X123988162Y-43385683D01*
X123849090Y-43169559D01*
X123636890Y-43024569D01*
X123385000Y-42973560D01*
X119985000Y-42973560D01*
X119749683Y-43017838D01*
X119533559Y-43156910D01*
X119388569Y-43369110D01*
X119337560Y-43621000D01*
X89067236Y-43621000D01*
X86701676Y-41255440D01*
X87112000Y-41255440D01*
X87347317Y-41211162D01*
X87563441Y-41072090D01*
X87698790Y-40874000D01*
X89803764Y-40874000D01*
X89813120Y-40883356D01*
X89812630Y-41443815D01*
X90136980Y-42228800D01*
X90737041Y-42829909D01*
X91521459Y-43155628D01*
X92370815Y-43156370D01*
X93155800Y-42832020D01*
X93697514Y-42291250D01*
X95584000Y-42291250D01*
X95584000Y-42695310D01*
X95680673Y-42928699D01*
X95859302Y-43107327D01*
X96092691Y-43204000D01*
X97596750Y-43204000D01*
X97755500Y-43045250D01*
X97755500Y-42132500D01*
X97882500Y-42132500D01*
X97882500Y-43045250D01*
X98041250Y-43204000D01*
X99545309Y-43204000D01*
X99778698Y-43107327D01*
X99957327Y-42928699D01*
X100054000Y-42695310D01*
X100054000Y-42291250D01*
X102384000Y-42291250D01*
X102384000Y-42695310D01*
X102480673Y-42928699D01*
X102659302Y-43107327D01*
X102892691Y-43204000D01*
X104396750Y-43204000D01*
X104555500Y-43045250D01*
X104555500Y-42132500D01*
X104682500Y-42132500D01*
X104682500Y-43045250D01*
X104841250Y-43204000D01*
X106345309Y-43204000D01*
X106578698Y-43107327D01*
X106757327Y-42928699D01*
X106854000Y-42695310D01*
X106854000Y-42291250D01*
X106806000Y-42243250D01*
X124850000Y-42243250D01*
X124850000Y-42647309D01*
X124946673Y-42880698D01*
X125125301Y-43059327D01*
X125358690Y-43156000D01*
X127012750Y-43156000D01*
X127171500Y-42997250D01*
X127171500Y-42084500D01*
X127298500Y-42084500D01*
X127298500Y-42997250D01*
X127457250Y-43156000D01*
X129111310Y-43156000D01*
X129281050Y-43085691D01*
X142250000Y-43085691D01*
X142250000Y-43739750D01*
X142408750Y-43898500D01*
X143446500Y-43898500D01*
X143446500Y-42735750D01*
X143573500Y-42735750D01*
X143573500Y-43898500D01*
X145478500Y-43898500D01*
X145478500Y-42735750D01*
X145605500Y-42735750D01*
X145605500Y-43898500D01*
X147510500Y-43898500D01*
X147510500Y-42735750D01*
X147351750Y-42577000D01*
X146822690Y-42577000D01*
X146589301Y-42673673D01*
X146558000Y-42704974D01*
X146526699Y-42673673D01*
X146293310Y-42577000D01*
X145764250Y-42577000D01*
X145605500Y-42735750D01*
X145478500Y-42735750D01*
X145319750Y-42577000D01*
X144790690Y-42577000D01*
X144557301Y-42673673D01*
X144526000Y-42704974D01*
X144494699Y-42673673D01*
X144261310Y-42577000D01*
X143732250Y-42577000D01*
X143573500Y-42735750D01*
X143446500Y-42735750D01*
X143287750Y-42577000D01*
X142758690Y-42577000D01*
X142525301Y-42673673D01*
X142346673Y-42852302D01*
X142250000Y-43085691D01*
X129281050Y-43085691D01*
X129344699Y-43059327D01*
X129523327Y-42880698D01*
X129620000Y-42647309D01*
X129620000Y-42243250D01*
X129461250Y-42084500D01*
X127298500Y-42084500D01*
X127171500Y-42084500D01*
X125008750Y-42084500D01*
X124850000Y-42243250D01*
X106806000Y-42243250D01*
X106695250Y-42132500D01*
X104682500Y-42132500D01*
X104555500Y-42132500D01*
X102542750Y-42132500D01*
X102384000Y-42291250D01*
X100054000Y-42291250D01*
X99895250Y-42132500D01*
X97882500Y-42132500D01*
X97755500Y-42132500D01*
X95742750Y-42132500D01*
X95584000Y-42291250D01*
X93697514Y-42291250D01*
X93756909Y-42231959D01*
X94082628Y-41447541D01*
X94082632Y-41442690D01*
X95584000Y-41442690D01*
X95584000Y-41846750D01*
X95742750Y-42005500D01*
X97755500Y-42005500D01*
X97755500Y-41092750D01*
X97882500Y-41092750D01*
X97882500Y-42005500D01*
X99895250Y-42005500D01*
X100054000Y-41846750D01*
X100054000Y-41442690D01*
X102384000Y-41442690D01*
X102384000Y-41846750D01*
X102542750Y-42005500D01*
X104555500Y-42005500D01*
X104555500Y-41092750D01*
X104396750Y-40934000D01*
X102892691Y-40934000D01*
X102659302Y-41030673D01*
X102480673Y-41209301D01*
X102384000Y-41442690D01*
X100054000Y-41442690D01*
X99957327Y-41209301D01*
X99778698Y-41030673D01*
X99545309Y-40934000D01*
X98041250Y-40934000D01*
X97882500Y-41092750D01*
X97755500Y-41092750D01*
X97596750Y-40934000D01*
X96092691Y-40934000D01*
X95859302Y-41030673D01*
X95680673Y-41209301D01*
X95584000Y-41442690D01*
X94082632Y-41442690D01*
X94083370Y-40598185D01*
X93759020Y-39813200D01*
X93726000Y-39780122D01*
X93726000Y-39693474D01*
X93801910Y-39811441D01*
X94014110Y-39956431D01*
X94266000Y-40007440D01*
X95766000Y-40007440D01*
X96001317Y-39963162D01*
X96217441Y-39824090D01*
X96263969Y-39755994D01*
X96406302Y-39898327D01*
X96639691Y-39995000D01*
X97293750Y-39995000D01*
X97452500Y-39836250D01*
X97452500Y-38798500D01*
X97579500Y-38798500D01*
X97579500Y-39836250D01*
X97738250Y-39995000D01*
X98392309Y-39995000D01*
X98625698Y-39898327D01*
X98804327Y-39719699D01*
X98901000Y-39486310D01*
X98901000Y-38957250D01*
X98742250Y-38798500D01*
X97579500Y-38798500D01*
X97452500Y-38798500D01*
X97432500Y-38798500D01*
X97432500Y-38671500D01*
X97452500Y-38671500D01*
X97452500Y-38651500D01*
X97579500Y-38651500D01*
X97579500Y-38671500D01*
X98742250Y-38671500D01*
X98901000Y-38512750D01*
X98901000Y-37983690D01*
X98804327Y-37750301D01*
X98625698Y-37571673D01*
X98392309Y-37475000D01*
X98271433Y-37475000D01*
X98347441Y-37426090D01*
X98492431Y-37213890D01*
X98543440Y-36962000D01*
X98543440Y-36312000D01*
X98517081Y-36171914D01*
X98531000Y-36138310D01*
X98531000Y-35909250D01*
X98374750Y-35753000D01*
X99228000Y-35753000D01*
X99552300Y-35688493D01*
X99616807Y-35675662D01*
X99946420Y-35455420D01*
X99949000Y-35452840D01*
X105235579Y-40739420D01*
X105436991Y-40873999D01*
X105526788Y-40934000D01*
X104841250Y-40934000D01*
X104682500Y-41092750D01*
X104682500Y-42005500D01*
X106695250Y-42005500D01*
X106854000Y-41846750D01*
X106854000Y-41442690D01*
X106757327Y-41209301D01*
X106585025Y-41037000D01*
X125070974Y-41037000D01*
X124946673Y-41161302D01*
X124850000Y-41394691D01*
X124850000Y-41798750D01*
X125008750Y-41957500D01*
X127171500Y-41957500D01*
X127171500Y-41937500D01*
X127298500Y-41937500D01*
X127298500Y-41957500D01*
X129461250Y-41957500D01*
X129620000Y-41798750D01*
X129620000Y-41394691D01*
X129524445Y-41164000D01*
X148522000Y-41164000D01*
X148522000Y-41560750D01*
X148680750Y-41719500D01*
X149843500Y-41719500D01*
X149843500Y-41699500D01*
X149970500Y-41699500D01*
X149970500Y-41719500D01*
X149990500Y-41719500D01*
X149990500Y-41846500D01*
X149970500Y-41846500D01*
X149970500Y-41866500D01*
X149843500Y-41866500D01*
X149843500Y-41846500D01*
X148680750Y-41846500D01*
X148522000Y-42005250D01*
X148522000Y-42559310D01*
X148576917Y-42691891D01*
X148558699Y-42673673D01*
X148325310Y-42577000D01*
X147796250Y-42577000D01*
X147637500Y-42735750D01*
X147637500Y-43898500D01*
X147657500Y-43898500D01*
X147657500Y-44025500D01*
X147637500Y-44025500D01*
X147637500Y-44045500D01*
X147510500Y-44045500D01*
X147510500Y-44025500D01*
X145605500Y-44025500D01*
X145605500Y-44045500D01*
X145478500Y-44045500D01*
X145478500Y-44025500D01*
X143573500Y-44025500D01*
X143573500Y-44045500D01*
X143446500Y-44045500D01*
X143446500Y-44025500D01*
X142408750Y-44025500D01*
X142250000Y-44184250D01*
X142250000Y-44838309D01*
X142346673Y-45071698D01*
X142487910Y-45212936D01*
X142433559Y-45247910D01*
X142288569Y-45460110D01*
X142237560Y-45712000D01*
X142237560Y-45720000D01*
X141859425Y-45720000D01*
X141632641Y-45719802D01*
X141632162Y-45720000D01*
X141351000Y-45720000D01*
X141120205Y-45763427D01*
X140908233Y-45899827D01*
X140766029Y-46107949D01*
X140716000Y-46355000D01*
X140716000Y-46862309D01*
X140715802Y-47089359D01*
X140716000Y-47089838D01*
X140716000Y-49911000D01*
X140759427Y-50141795D01*
X140895827Y-50353767D01*
X141103949Y-50495971D01*
X141351000Y-50546000D01*
X143538235Y-50546000D01*
X143479091Y-50605041D01*
X143153372Y-51389459D01*
X143152630Y-52238815D01*
X143476980Y-53023800D01*
X144077041Y-53624909D01*
X144861459Y-53950628D01*
X145710815Y-53951370D01*
X146495800Y-53627020D01*
X147096909Y-53026959D01*
X147359560Y-52394426D01*
X147359560Y-53705000D01*
X147403838Y-53940317D01*
X147542910Y-54156441D01*
X147755110Y-54301431D01*
X148007000Y-54352440D01*
X150007000Y-54352440D01*
X150242317Y-54308162D01*
X150458441Y-54169090D01*
X150603431Y-53956890D01*
X150654440Y-53705000D01*
X150654440Y-51705000D01*
X150610162Y-51469683D01*
X150471090Y-51253559D01*
X150258890Y-51108569D01*
X150007000Y-51057560D01*
X149971000Y-51057560D01*
X149971000Y-49285440D01*
X150194500Y-49285440D01*
X150429817Y-49241162D01*
X150481352Y-49208000D01*
X151034750Y-49208000D01*
X151193500Y-49049250D01*
X151193500Y-47561500D01*
X151173500Y-47561500D01*
X151173500Y-47434500D01*
X151193500Y-47434500D01*
X151193500Y-45946750D01*
X151034750Y-45788000D01*
X150485073Y-45788000D01*
X150446390Y-45761569D01*
X150194500Y-45710560D01*
X149394500Y-45710560D01*
X149159183Y-45754838D01*
X148995933Y-45859886D01*
X148926549Y-45816521D01*
X148846440Y-45793546D01*
X148846440Y-45712000D01*
X148802162Y-45476683D01*
X148663090Y-45260559D01*
X148594994Y-45214031D01*
X148692211Y-45116814D01*
X148718673Y-45180699D01*
X148897302Y-45359327D01*
X149130691Y-45456000D01*
X149784750Y-45456000D01*
X149943500Y-45297250D01*
X149943500Y-44259500D01*
X149923500Y-44259500D01*
X149923500Y-44132500D01*
X149943500Y-44132500D01*
X149943500Y-44112500D01*
X150070500Y-44112500D01*
X150070500Y-44132500D01*
X150090500Y-44132500D01*
X150090500Y-44259500D01*
X150070500Y-44259500D01*
X150070500Y-45297250D01*
X150229250Y-45456000D01*
X150883309Y-45456000D01*
X151116698Y-45359327D01*
X151257936Y-45218090D01*
X151292910Y-45272441D01*
X151505110Y-45417431D01*
X151745000Y-45466010D01*
X151745000Y-45788000D01*
X151479250Y-45788000D01*
X151320500Y-45946750D01*
X151320500Y-47434500D01*
X151340500Y-47434500D01*
X151340500Y-47561500D01*
X151320500Y-47561500D01*
X151320500Y-49049250D01*
X151479250Y-49208000D01*
X152028927Y-49208000D01*
X152067610Y-49234431D01*
X152216196Y-49264520D01*
X152364000Y-49757199D01*
X152364000Y-51084467D01*
X152271683Y-51101838D01*
X152055559Y-51240910D01*
X151910569Y-51453110D01*
X151859560Y-51705000D01*
X151859560Y-53705000D01*
X151903838Y-53940317D01*
X152042910Y-54156441D01*
X152255110Y-54301431D01*
X152507000Y-54352440D01*
X154507000Y-54352440D01*
X154742317Y-54308162D01*
X154958441Y-54169090D01*
X155103431Y-53956890D01*
X155154440Y-53705000D01*
X155154440Y-51705000D01*
X155110162Y-51469683D01*
X154971090Y-51253559D01*
X154758890Y-51108569D01*
X154650000Y-51086518D01*
X154650000Y-50240250D01*
X155077000Y-50240250D01*
X155077000Y-50894309D01*
X155173673Y-51127698D01*
X155352301Y-51306327D01*
X155585690Y-51403000D01*
X156114750Y-51403000D01*
X156273500Y-51244250D01*
X156273500Y-50081500D01*
X156400500Y-50081500D01*
X156400500Y-51244250D01*
X156559250Y-51403000D01*
X157088310Y-51403000D01*
X157321699Y-51306327D01*
X157500327Y-51127698D01*
X157597000Y-50894309D01*
X157597000Y-50240250D01*
X157438250Y-50081500D01*
X156400500Y-50081500D01*
X156273500Y-50081500D01*
X155235750Y-50081500D01*
X155077000Y-50240250D01*
X154650000Y-50240250D01*
X154650000Y-50067673D01*
X155077000Y-49593229D01*
X155077000Y-49795750D01*
X155235750Y-49954500D01*
X156273500Y-49954500D01*
X156273500Y-49934500D01*
X156400500Y-49934500D01*
X156400500Y-49954500D01*
X157438250Y-49954500D01*
X157597000Y-49795750D01*
X157597000Y-49141691D01*
X157500327Y-48908302D01*
X157359090Y-48767064D01*
X157413441Y-48732090D01*
X157558431Y-48519890D01*
X157609440Y-48268000D01*
X157609440Y-48032700D01*
X157800223Y-47905223D01*
X158669223Y-47036223D01*
X158916994Y-46665407D01*
X159004000Y-46228000D01*
X159004000Y-43180000D01*
X158916994Y-42742593D01*
X158669223Y-42371777D01*
X155510223Y-39212777D01*
X155139407Y-38965006D01*
X154702000Y-38878000D01*
X129006925Y-38878000D01*
X128985000Y-38873560D01*
X125485000Y-38873560D01*
X125249683Y-38917838D01*
X125114229Y-39005000D01*
X123650096Y-39005000D01*
X123836441Y-38885090D01*
X123981431Y-38672890D01*
X124032440Y-38421000D01*
X124032440Y-36821000D01*
X123988162Y-36585683D01*
X123849090Y-36369559D01*
X123636890Y-36224569D01*
X123385000Y-36173560D01*
X119985000Y-36173560D01*
X119749683Y-36217838D01*
X119533559Y-36356910D01*
X119388569Y-36569110D01*
X119337560Y-36821000D01*
X119337560Y-38421000D01*
X119381838Y-38656317D01*
X119520910Y-38872441D01*
X119714917Y-39005000D01*
X106374841Y-39005000D01*
X102750032Y-35380191D01*
X122951612Y-35380191D01*
X123105410Y-35706665D01*
X123886792Y-36039605D01*
X124736104Y-36048178D01*
X125524047Y-35731082D01*
X125560590Y-35706665D01*
X125714388Y-35380191D01*
X124333000Y-33998803D01*
X122951612Y-35380191D01*
X102750032Y-35380191D01*
X101681945Y-34312104D01*
X122193822Y-34312104D01*
X122510918Y-35100047D01*
X122535335Y-35136590D01*
X122861809Y-35290388D01*
X124243197Y-33909000D01*
X124422803Y-33909000D01*
X125804191Y-35290388D01*
X126130665Y-35136590D01*
X126463605Y-34355208D01*
X126471815Y-33541834D01*
X148494543Y-33541834D01*
X148894853Y-34510658D01*
X149635443Y-35252542D01*
X150603567Y-35654542D01*
X151651834Y-35655457D01*
X152574425Y-35274250D01*
X159036000Y-35274250D01*
X159036000Y-35803310D01*
X159132673Y-36036699D01*
X159311302Y-36215327D01*
X159544691Y-36312000D01*
X160198750Y-36312000D01*
X160357500Y-36153250D01*
X160357500Y-35115500D01*
X159194750Y-35115500D01*
X159036000Y-35274250D01*
X152574425Y-35274250D01*
X152620658Y-35255147D01*
X153362542Y-34514557D01*
X153451347Y-34300690D01*
X159036000Y-34300690D01*
X159036000Y-34829750D01*
X159194750Y-34988500D01*
X160357500Y-34988500D01*
X160357500Y-33950750D01*
X160484500Y-33950750D01*
X160484500Y-34988500D01*
X160504500Y-34988500D01*
X160504500Y-35115500D01*
X160484500Y-35115500D01*
X160484500Y-36153250D01*
X160643250Y-36312000D01*
X161297309Y-36312000D01*
X161530698Y-36215327D01*
X161671936Y-36074090D01*
X161706910Y-36128441D01*
X161919110Y-36273431D01*
X162171000Y-36324440D01*
X163671000Y-36324440D01*
X163906317Y-36280162D01*
X164038662Y-36195000D01*
X172059275Y-36195000D01*
X172364646Y-36321801D01*
X172819359Y-36322198D01*
X173239612Y-36148554D01*
X173561423Y-35827303D01*
X173735801Y-35407354D01*
X173736198Y-34952641D01*
X173562554Y-34532388D01*
X173241303Y-34210577D01*
X173197010Y-34192185D01*
X172903407Y-33996006D01*
X172466000Y-33909000D01*
X164037678Y-33909000D01*
X163922890Y-33830569D01*
X163671000Y-33779560D01*
X162171000Y-33779560D01*
X161935683Y-33823838D01*
X161719559Y-33962910D01*
X161673031Y-34031006D01*
X161530698Y-33888673D01*
X161297309Y-33792000D01*
X160643250Y-33792000D01*
X160484500Y-33950750D01*
X160357500Y-33950750D01*
X160198750Y-33792000D01*
X159544691Y-33792000D01*
X159311302Y-33888673D01*
X159132673Y-34067301D01*
X159036000Y-34300690D01*
X153451347Y-34300690D01*
X153764542Y-33546433D01*
X153765457Y-32498166D01*
X153365147Y-31529342D01*
X152624557Y-30787458D01*
X151656433Y-30385458D01*
X150608166Y-30384543D01*
X149639342Y-30784853D01*
X148897458Y-31525443D01*
X148495458Y-32493567D01*
X148494543Y-33541834D01*
X126471815Y-33541834D01*
X126472178Y-33505896D01*
X126155082Y-32717953D01*
X126130665Y-32681410D01*
X125804191Y-32527612D01*
X124422803Y-33909000D01*
X124243197Y-33909000D01*
X122861809Y-32527612D01*
X122535335Y-32681410D01*
X122202395Y-33462792D01*
X122193822Y-34312104D01*
X101681945Y-34312104D01*
X101221440Y-33851600D01*
X101221440Y-33266000D01*
X101177162Y-33030683D01*
X101038090Y-32814559D01*
X100969994Y-32768031D01*
X101112327Y-32625698D01*
X101190153Y-32437809D01*
X122951612Y-32437809D01*
X124333000Y-33819197D01*
X125714388Y-32437809D01*
X125560590Y-32111335D01*
X124779208Y-31778395D01*
X123929896Y-31769822D01*
X123141953Y-32086918D01*
X123105410Y-32111335D01*
X122951612Y-32437809D01*
X101190153Y-32437809D01*
X101209000Y-32392309D01*
X101209000Y-31738250D01*
X101050250Y-31579500D01*
X100012500Y-31579500D01*
X100012500Y-31599500D01*
X99885500Y-31599500D01*
X99885500Y-31579500D01*
X98847750Y-31579500D01*
X98689000Y-31738250D01*
X98689000Y-32392309D01*
X98785673Y-32625698D01*
X98926910Y-32766936D01*
X98872559Y-32801910D01*
X98727569Y-33014110D01*
X98676560Y-33266000D01*
X98676560Y-33721000D01*
X97366000Y-33721000D01*
X97147008Y-33764560D01*
X96836000Y-33764560D01*
X96600683Y-33808838D01*
X96464577Y-33896420D01*
X96367794Y-33915671D01*
X96202343Y-34026222D01*
X96160090Y-33960559D01*
X95947890Y-33815569D01*
X95833312Y-33792366D01*
X95705173Y-33593233D01*
X95497051Y-33451029D01*
X95250000Y-33401000D01*
X93728440Y-33401000D01*
X93728440Y-33266000D01*
X93684162Y-33030683D01*
X93545090Y-32814559D01*
X93476994Y-32768031D01*
X93619327Y-32625698D01*
X93716000Y-32392309D01*
X93716000Y-31738250D01*
X93557250Y-31579500D01*
X92519500Y-31579500D01*
X92519500Y-31599500D01*
X92392500Y-31599500D01*
X92392500Y-31579500D01*
X91354750Y-31579500D01*
X91196000Y-31738250D01*
X91196000Y-32392309D01*
X91292673Y-32625698D01*
X91433910Y-32766936D01*
X91379559Y-32801910D01*
X91234569Y-33014110D01*
X91183560Y-33266000D01*
X91183560Y-33401000D01*
X90043000Y-33401000D01*
X89812205Y-33444427D01*
X89600233Y-33580827D01*
X89458029Y-33788949D01*
X89408000Y-34036000D01*
X89408000Y-38842000D01*
X87695418Y-38842000D01*
X87576090Y-38656559D01*
X87507994Y-38610031D01*
X87650327Y-38467698D01*
X87747000Y-38234309D01*
X87747000Y-37580250D01*
X87588250Y-37421500D01*
X86550500Y-37421500D01*
X86550500Y-37441500D01*
X86423500Y-37441500D01*
X86423500Y-37421500D01*
X85385750Y-37421500D01*
X85344000Y-37463250D01*
X85302250Y-37421500D01*
X84264500Y-37421500D01*
X84264500Y-37441500D01*
X84137500Y-37441500D01*
X84137500Y-37421500D01*
X83099750Y-37421500D01*
X83058000Y-37463250D01*
X83016250Y-37421500D01*
X81978500Y-37421500D01*
X81978500Y-37441500D01*
X81851500Y-37441500D01*
X81851500Y-37421500D01*
X80813750Y-37421500D01*
X80655000Y-37580250D01*
X80655000Y-38234309D01*
X80751673Y-38467698D01*
X80892910Y-38608936D01*
X80838559Y-38643910D01*
X80693569Y-38856110D01*
X80642560Y-39108000D01*
X80642560Y-39516000D01*
X79630048Y-39516000D01*
X79574603Y-39478116D01*
X79669441Y-39417090D01*
X79671211Y-39414500D01*
X79694250Y-39414500D01*
X79853000Y-39255750D01*
X79853000Y-39076690D01*
X79844532Y-39056247D01*
X79865440Y-38953000D01*
X79865440Y-38403000D01*
X79841056Y-38273411D01*
X79865440Y-38153000D01*
X79865440Y-37794163D01*
X79926605Y-37781996D01*
X80173815Y-37616815D01*
X80655000Y-37135630D01*
X80655000Y-37135750D01*
X80813750Y-37294500D01*
X81851500Y-37294500D01*
X81851500Y-36131750D01*
X81978500Y-36131750D01*
X81978500Y-37294500D01*
X83016250Y-37294500D01*
X83058000Y-37252750D01*
X83099750Y-37294500D01*
X84137500Y-37294500D01*
X84137500Y-36131750D01*
X84264500Y-36131750D01*
X84264500Y-37294500D01*
X85302250Y-37294500D01*
X85344000Y-37252750D01*
X85385750Y-37294500D01*
X86423500Y-37294500D01*
X86423500Y-36131750D01*
X86550500Y-36131750D01*
X86550500Y-37294500D01*
X87588250Y-37294500D01*
X87747000Y-37135750D01*
X87747000Y-36481691D01*
X87650327Y-36248302D01*
X87471699Y-36069673D01*
X87238310Y-35973000D01*
X86709250Y-35973000D01*
X86550500Y-36131750D01*
X86423500Y-36131750D01*
X86264750Y-35973000D01*
X85735690Y-35973000D01*
X85502301Y-36069673D01*
X85344000Y-36227975D01*
X85185699Y-36069673D01*
X84952310Y-35973000D01*
X84423250Y-35973000D01*
X84264500Y-36131750D01*
X84137500Y-36131750D01*
X83978750Y-35973000D01*
X83449690Y-35973000D01*
X83216301Y-36069673D01*
X83058000Y-36227975D01*
X82899699Y-36069673D01*
X82666310Y-35973000D01*
X82137250Y-35973000D01*
X81978500Y-36131750D01*
X81851500Y-36131750D01*
X81755190Y-36035440D01*
X87056631Y-30734000D01*
X87791633Y-30734000D01*
X87997697Y-30940423D01*
X88417646Y-31114801D01*
X88872359Y-31115198D01*
X89292612Y-30941554D01*
X89595001Y-30639691D01*
X91196000Y-30639691D01*
X91196000Y-31293750D01*
X91354750Y-31452500D01*
X92392500Y-31452500D01*
X92392500Y-30289750D01*
X92519500Y-30289750D01*
X92519500Y-31452500D01*
X93557250Y-31452500D01*
X93716000Y-31293750D01*
X93716000Y-30639691D01*
X98689000Y-30639691D01*
X98689000Y-31293750D01*
X98847750Y-31452500D01*
X99885500Y-31452500D01*
X99885500Y-30289750D01*
X100012500Y-30289750D01*
X100012500Y-31452500D01*
X101050250Y-31452500D01*
X101209000Y-31293750D01*
X101209000Y-30639691D01*
X101112327Y-30406302D01*
X100933699Y-30227673D01*
X100862929Y-30198359D01*
X110108802Y-30198359D01*
X110282446Y-30618612D01*
X110603697Y-30940423D01*
X111023646Y-31114801D01*
X111478359Y-31115198D01*
X111898612Y-30941554D01*
X112106528Y-30734000D01*
X135416633Y-30734000D01*
X135498013Y-30815522D01*
X135427338Y-30861000D01*
X134747425Y-30861000D01*
X134520641Y-30860802D01*
X134100388Y-31034446D01*
X133778577Y-31355697D01*
X133604199Y-31775646D01*
X133603802Y-32230359D01*
X133777446Y-32650612D01*
X134098697Y-32972423D01*
X134518646Y-33146801D01*
X134973359Y-33147198D01*
X134973838Y-33147000D01*
X135428322Y-33147000D01*
X135543110Y-33225431D01*
X135795000Y-33276440D01*
X137295000Y-33276440D01*
X137530317Y-33232162D01*
X137746441Y-33093090D01*
X137792969Y-33024994D01*
X137935302Y-33167327D01*
X138168691Y-33264000D01*
X138822750Y-33264000D01*
X138981500Y-33105250D01*
X138981500Y-32067500D01*
X139108500Y-32067500D01*
X139108500Y-33105250D01*
X139267250Y-33264000D01*
X139921309Y-33264000D01*
X140154698Y-33167327D01*
X140333327Y-32988699D01*
X140430000Y-32755310D01*
X140430000Y-32226250D01*
X140271250Y-32067500D01*
X139108500Y-32067500D01*
X138981500Y-32067500D01*
X138961500Y-32067500D01*
X138961500Y-31940500D01*
X138981500Y-31940500D01*
X138981500Y-30902750D01*
X139108500Y-30902750D01*
X139108500Y-31940500D01*
X140271250Y-31940500D01*
X140430000Y-31781750D01*
X140430000Y-31252690D01*
X140333327Y-31019301D01*
X140154698Y-30840673D01*
X139921309Y-30744000D01*
X139267250Y-30744000D01*
X139108500Y-30902750D01*
X138981500Y-30902750D01*
X138822750Y-30744000D01*
X138168691Y-30744000D01*
X137935302Y-30840673D01*
X137794064Y-30981910D01*
X137759090Y-30927559D01*
X137546890Y-30782569D01*
X137295000Y-30731560D01*
X137127972Y-30731560D01*
X137239423Y-30620303D01*
X137413801Y-30200354D01*
X137414198Y-29745641D01*
X137240554Y-29325388D01*
X136919303Y-29003577D01*
X136499354Y-28829199D01*
X136044641Y-28828802D01*
X135624388Y-29002446D01*
X135416472Y-29210000D01*
X112106367Y-29210000D01*
X111900303Y-29003577D01*
X111480354Y-28829199D01*
X111025641Y-28828802D01*
X110605388Y-29002446D01*
X110283577Y-29323697D01*
X110109199Y-29743646D01*
X110108802Y-30198359D01*
X100862929Y-30198359D01*
X100700310Y-30131000D01*
X100171250Y-30131000D01*
X100012500Y-30289750D01*
X99885500Y-30289750D01*
X99726750Y-30131000D01*
X99197690Y-30131000D01*
X98964301Y-30227673D01*
X98785673Y-30406302D01*
X98689000Y-30639691D01*
X93716000Y-30639691D01*
X93619327Y-30406302D01*
X93440699Y-30227673D01*
X93207310Y-30131000D01*
X92678250Y-30131000D01*
X92519500Y-30289750D01*
X92392500Y-30289750D01*
X92233750Y-30131000D01*
X91704690Y-30131000D01*
X91471301Y-30227673D01*
X91292673Y-30406302D01*
X91196000Y-30639691D01*
X89595001Y-30639691D01*
X89614423Y-30620303D01*
X89788801Y-30200354D01*
X89789198Y-29745641D01*
X89615554Y-29325388D01*
X89294303Y-29003577D01*
X88874354Y-28829199D01*
X88419641Y-28828802D01*
X87999388Y-29002446D01*
X87791472Y-29210000D01*
X86741000Y-29210000D01*
X86449396Y-29268003D01*
X86202185Y-29433184D01*
X79435720Y-36199649D01*
X79218000Y-36155560D01*
X77890440Y-36155560D01*
X77890440Y-34828000D01*
X77846162Y-34592683D01*
X77730000Y-34412162D01*
X77730000Y-32679000D01*
X77785750Y-32679000D01*
X77861395Y-32603355D01*
X78009441Y-32508090D01*
X78071500Y-32417264D01*
X78071500Y-32520250D01*
X78230250Y-32679000D01*
X78334309Y-32679000D01*
X78513178Y-32604910D01*
X78631691Y-32654000D01*
X79585750Y-32654000D01*
X79744500Y-32495250D01*
X79744500Y-31282500D01*
X79871500Y-31282500D01*
X79871500Y-32495250D01*
X80030250Y-32654000D01*
X80984309Y-32654000D01*
X81217698Y-32557327D01*
X81396327Y-32378699D01*
X81493000Y-32145310D01*
X81493000Y-31441250D01*
X81334250Y-31282500D01*
X79871500Y-31282500D01*
X79744500Y-31282500D01*
X79724500Y-31282500D01*
X79724500Y-31155500D01*
X79744500Y-31155500D01*
X79744500Y-31135500D01*
X79871500Y-31135500D01*
X79871500Y-31155500D01*
X81334250Y-31155500D01*
X81493000Y-30996750D01*
X81493000Y-30292690D01*
X81486374Y-30276693D01*
X81643317Y-30247162D01*
X81859441Y-30108090D01*
X82004431Y-29895890D01*
X82055440Y-29644000D01*
X82055440Y-27744000D01*
X82011162Y-27508683D01*
X81880096Y-27305000D01*
X177245509Y-27305000D01*
X158403033Y-86741000D01*
X119726306Y-86741000D01*
X119967423Y-86500303D01*
X120141801Y-86080354D01*
X120142198Y-85625641D01*
X119968554Y-85205388D01*
X119726447Y-84962859D01*
X119967423Y-84722303D01*
X120141801Y-84302354D01*
X120142028Y-84042250D01*
X136557000Y-84042250D01*
X136557000Y-84571310D01*
X136653673Y-84804699D01*
X136832302Y-84983327D01*
X137065691Y-85080000D01*
X137719750Y-85080000D01*
X137878500Y-84921250D01*
X137878500Y-83883500D01*
X136715750Y-83883500D01*
X136557000Y-84042250D01*
X120142028Y-84042250D01*
X120142198Y-83847641D01*
X119968554Y-83427388D01*
X119647303Y-83105577D01*
X119558470Y-83068690D01*
X136557000Y-83068690D01*
X136557000Y-83597750D01*
X136715750Y-83756500D01*
X137878500Y-83756500D01*
X137878500Y-82718750D01*
X138005500Y-82718750D01*
X138005500Y-83756500D01*
X138025500Y-83756500D01*
X138025500Y-83883500D01*
X138005500Y-83883500D01*
X138005500Y-84921250D01*
X138164250Y-85080000D01*
X138818309Y-85080000D01*
X139051698Y-84983327D01*
X139192936Y-84842090D01*
X139227910Y-84896441D01*
X139440110Y-85041431D01*
X139692000Y-85092440D01*
X141192000Y-85092440D01*
X141317145Y-85068892D01*
X141891988Y-85452991D01*
X142621000Y-85597999D01*
X143350012Y-85452991D01*
X143968038Y-85040038D01*
X147220077Y-81788000D01*
X148971000Y-81788000D01*
X149700012Y-81642991D01*
X150318038Y-81230038D01*
X150730991Y-80612012D01*
X150876000Y-79883000D01*
X150730991Y-79153988D01*
X150318038Y-78535962D01*
X149700012Y-78123009D01*
X148971000Y-77978000D01*
X146431000Y-77978000D01*
X145701988Y-78123009D01*
X145083962Y-78535961D01*
X141273962Y-82345962D01*
X141139258Y-82547560D01*
X139692000Y-82547560D01*
X139456683Y-82591838D01*
X139240559Y-82730910D01*
X139194031Y-82799006D01*
X139051698Y-82656673D01*
X138818309Y-82560000D01*
X138164250Y-82560000D01*
X138005500Y-82718750D01*
X137878500Y-82718750D01*
X137719750Y-82560000D01*
X137065691Y-82560000D01*
X136832302Y-82656673D01*
X136653673Y-82835301D01*
X136557000Y-83068690D01*
X119558470Y-83068690D01*
X119227354Y-82931199D01*
X118772641Y-82930802D01*
X118352388Y-83104446D01*
X118144472Y-83312000D01*
X85429352Y-83312000D01*
X85424554Y-83300388D01*
X85103303Y-82978577D01*
X84683354Y-82804199D01*
X84228641Y-82803802D01*
X83808388Y-82977446D01*
X83486577Y-83298697D01*
X83312199Y-83718646D01*
X83311802Y-84173359D01*
X83485446Y-84593612D01*
X83791053Y-84899751D01*
X83486577Y-85203697D01*
X83312199Y-85623646D01*
X83311802Y-86078359D01*
X83485446Y-86498612D01*
X83727412Y-86741000D01*
X71019203Y-86741000D01*
X71131612Y-86694554D01*
X71453423Y-86373303D01*
X71627801Y-85953354D01*
X71628198Y-85498641D01*
X71454554Y-85078388D01*
X71275947Y-84899470D01*
X71453423Y-84722303D01*
X71627801Y-84302354D01*
X71628198Y-83847641D01*
X71454554Y-83427388D01*
X71133303Y-83105577D01*
X70713354Y-82931199D01*
X70258641Y-82930802D01*
X69838388Y-83104446D01*
X69630472Y-83312000D01*
X35518352Y-83312000D01*
X35513554Y-83300388D01*
X35192303Y-82978577D01*
X34772354Y-82804199D01*
X34317641Y-82803802D01*
X33897388Y-82977446D01*
X33575577Y-83298697D01*
X33401199Y-83718646D01*
X33400802Y-84173359D01*
X33574446Y-84593612D01*
X33816553Y-84836141D01*
X33575577Y-85076697D01*
X33401199Y-85496646D01*
X33400802Y-85951359D01*
X33574446Y-86371612D01*
X33895697Y-86693423D01*
X34010275Y-86741000D01*
X26890779Y-86741000D01*
X31396356Y-78994000D01*
X32131000Y-78994000D01*
X32276009Y-79723012D01*
X32688962Y-80341038D01*
X33306988Y-80753991D01*
X34036000Y-80899000D01*
X44450000Y-80899000D01*
X45179012Y-80753991D01*
X45797038Y-80341038D01*
X45933372Y-80137000D01*
X46020322Y-80137000D01*
X46135110Y-80215431D01*
X46387000Y-80266440D01*
X47887000Y-80266440D01*
X48122317Y-80222162D01*
X48338441Y-80083090D01*
X48384969Y-80014994D01*
X48527302Y-80157327D01*
X48760691Y-80254000D01*
X49414750Y-80254000D01*
X49573500Y-80095250D01*
X49573500Y-79057500D01*
X49700500Y-79057500D01*
X49700500Y-80095250D01*
X49859250Y-80254000D01*
X50513309Y-80254000D01*
X50746698Y-80157327D01*
X50925327Y-79978699D01*
X51022000Y-79745310D01*
X51022000Y-79216250D01*
X55023000Y-79216250D01*
X55023000Y-79745310D01*
X55119673Y-79978699D01*
X55298302Y-80157327D01*
X55531691Y-80254000D01*
X56185750Y-80254000D01*
X56344500Y-80095250D01*
X56344500Y-79057500D01*
X55181750Y-79057500D01*
X55023000Y-79216250D01*
X51022000Y-79216250D01*
X50863250Y-79057500D01*
X49700500Y-79057500D01*
X49573500Y-79057500D01*
X49553500Y-79057500D01*
X49553500Y-78930500D01*
X49573500Y-78930500D01*
X49573500Y-77892750D01*
X49700500Y-77892750D01*
X49700500Y-78930500D01*
X50863250Y-78930500D01*
X51022000Y-78771750D01*
X51022000Y-78242690D01*
X55023000Y-78242690D01*
X55023000Y-78771750D01*
X55181750Y-78930500D01*
X56344500Y-78930500D01*
X56344500Y-77892750D01*
X56471500Y-77892750D01*
X56471500Y-78930500D01*
X56491500Y-78930500D01*
X56491500Y-79057500D01*
X56471500Y-79057500D01*
X56471500Y-80095250D01*
X56630250Y-80254000D01*
X57284309Y-80254000D01*
X57517698Y-80157327D01*
X57658936Y-80016090D01*
X57693910Y-80070441D01*
X57906110Y-80215431D01*
X58158000Y-80266440D01*
X59658000Y-80266440D01*
X59893317Y-80222162D01*
X60025662Y-80137000D01*
X60069487Y-80137000D01*
X60120962Y-80214038D01*
X60738988Y-80626991D01*
X61468000Y-80772000D01*
X72517000Y-80772000D01*
X73246012Y-80626991D01*
X73864038Y-80214038D01*
X74276991Y-79596012D01*
X74422000Y-78867000D01*
X80899000Y-78867000D01*
X81044009Y-79596012D01*
X81456962Y-80214038D01*
X82074988Y-80626991D01*
X82804000Y-80772000D01*
X93218000Y-80772000D01*
X93947012Y-80626991D01*
X94565038Y-80214038D01*
X94649011Y-80088364D01*
X94649110Y-80088431D01*
X94901000Y-80139440D01*
X96401000Y-80139440D01*
X96636317Y-80095162D01*
X96852441Y-79956090D01*
X96898969Y-79887994D01*
X97041302Y-80030327D01*
X97274691Y-80127000D01*
X97928750Y-80127000D01*
X98087500Y-79968250D01*
X98087500Y-78930500D01*
X98214500Y-78930500D01*
X98214500Y-79968250D01*
X98373250Y-80127000D01*
X99027309Y-80127000D01*
X99260698Y-80030327D01*
X99439327Y-79851699D01*
X99536000Y-79618310D01*
X99536000Y-79089250D01*
X104045000Y-79089250D01*
X104045000Y-79618310D01*
X104141673Y-79851699D01*
X104320302Y-80030327D01*
X104553691Y-80127000D01*
X105207750Y-80127000D01*
X105366500Y-79968250D01*
X105366500Y-78930500D01*
X104203750Y-78930500D01*
X104045000Y-79089250D01*
X99536000Y-79089250D01*
X99377250Y-78930500D01*
X98214500Y-78930500D01*
X98087500Y-78930500D01*
X98067500Y-78930500D01*
X98067500Y-78803500D01*
X98087500Y-78803500D01*
X98087500Y-77765750D01*
X98214500Y-77765750D01*
X98214500Y-78803500D01*
X99377250Y-78803500D01*
X99536000Y-78644750D01*
X99536000Y-78115690D01*
X104045000Y-78115690D01*
X104045000Y-78644750D01*
X104203750Y-78803500D01*
X105366500Y-78803500D01*
X105366500Y-77765750D01*
X105493500Y-77765750D01*
X105493500Y-78803500D01*
X105513500Y-78803500D01*
X105513500Y-78930500D01*
X105493500Y-78930500D01*
X105493500Y-79968250D01*
X105652250Y-80127000D01*
X106306309Y-80127000D01*
X106539698Y-80030327D01*
X106680936Y-79889090D01*
X106715910Y-79943441D01*
X106928110Y-80088431D01*
X107180000Y-80139440D01*
X108680000Y-80139440D01*
X108915317Y-80095162D01*
X108930153Y-80085616D01*
X109015962Y-80214038D01*
X109633988Y-80626991D01*
X110363000Y-80772000D01*
X120269000Y-80772000D01*
X120998012Y-80626991D01*
X121616038Y-80214038D01*
X122028991Y-79596012D01*
X122174000Y-78867000D01*
X122028991Y-78137988D01*
X121616038Y-77519962D01*
X120998012Y-77107009D01*
X120269000Y-76962000D01*
X110363000Y-76962000D01*
X109633988Y-77107009D01*
X109015962Y-77519962D01*
X108931989Y-77645636D01*
X108931890Y-77645569D01*
X108680000Y-77594560D01*
X107180000Y-77594560D01*
X106944683Y-77638838D01*
X106728559Y-77777910D01*
X106682031Y-77846006D01*
X106539698Y-77703673D01*
X106306309Y-77607000D01*
X105652250Y-77607000D01*
X105493500Y-77765750D01*
X105366500Y-77765750D01*
X105207750Y-77607000D01*
X104553691Y-77607000D01*
X104320302Y-77703673D01*
X104141673Y-77882301D01*
X104045000Y-78115690D01*
X99536000Y-78115690D01*
X99439327Y-77882301D01*
X99260698Y-77703673D01*
X99027309Y-77607000D01*
X98373250Y-77607000D01*
X98214500Y-77765750D01*
X98087500Y-77765750D01*
X97928750Y-77607000D01*
X97274691Y-77607000D01*
X97041302Y-77703673D01*
X96900064Y-77844910D01*
X96865090Y-77790559D01*
X96652890Y-77645569D01*
X96401000Y-77594560D01*
X94901000Y-77594560D01*
X94665683Y-77638838D01*
X94650847Y-77648384D01*
X94565038Y-77519962D01*
X93947012Y-77107009D01*
X93218000Y-76962000D01*
X82804000Y-76962000D01*
X82074988Y-77107009D01*
X81456962Y-77519962D01*
X81044009Y-78137988D01*
X80899000Y-78867000D01*
X74422000Y-78867000D01*
X74276991Y-78137988D01*
X73864038Y-77519962D01*
X73246012Y-77107009D01*
X72517000Y-76962000D01*
X61468000Y-76962000D01*
X60738988Y-77107009D01*
X60120962Y-77519962D01*
X59938921Y-77792405D01*
X59909890Y-77772569D01*
X59658000Y-77721560D01*
X58158000Y-77721560D01*
X57922683Y-77765838D01*
X57706559Y-77904910D01*
X57660031Y-77973006D01*
X57517698Y-77830673D01*
X57284309Y-77734000D01*
X56630250Y-77734000D01*
X56471500Y-77892750D01*
X56344500Y-77892750D01*
X56185750Y-77734000D01*
X55531691Y-77734000D01*
X55298302Y-77830673D01*
X55119673Y-78009301D01*
X55023000Y-78242690D01*
X51022000Y-78242690D01*
X50925327Y-78009301D01*
X50746698Y-77830673D01*
X50513309Y-77734000D01*
X49859250Y-77734000D01*
X49700500Y-77892750D01*
X49573500Y-77892750D01*
X49414750Y-77734000D01*
X48760691Y-77734000D01*
X48527302Y-77830673D01*
X48386064Y-77971910D01*
X48351090Y-77917559D01*
X48138890Y-77772569D01*
X47887000Y-77721560D01*
X46387000Y-77721560D01*
X46151683Y-77765838D01*
X46019338Y-77851000D01*
X45933372Y-77851000D01*
X45797038Y-77646962D01*
X45179012Y-77234009D01*
X44450000Y-77089000D01*
X34036000Y-77089000D01*
X33306988Y-77234009D01*
X32688962Y-77646962D01*
X32276009Y-78264988D01*
X32131000Y-78994000D01*
X31396356Y-78994000D01*
X36818373Y-69671250D01*
X50937000Y-69671250D01*
X50937000Y-70325309D01*
X51033673Y-70558698D01*
X51212301Y-70737327D01*
X51445690Y-70834000D01*
X51974750Y-70834000D01*
X52133500Y-70675250D01*
X52133500Y-69512500D01*
X52260500Y-69512500D01*
X52260500Y-70675250D01*
X52419250Y-70834000D01*
X52948310Y-70834000D01*
X53181699Y-70737327D01*
X53360327Y-70558698D01*
X53457000Y-70325309D01*
X53457000Y-69671250D01*
X53298250Y-69512500D01*
X52260500Y-69512500D01*
X52133500Y-69512500D01*
X51095750Y-69512500D01*
X50937000Y-69671250D01*
X36818373Y-69671250D01*
X43451925Y-58265359D01*
X44068802Y-58265359D01*
X44242446Y-58685612D01*
X44563697Y-59007423D01*
X44983646Y-59181801D01*
X45438359Y-59182198D01*
X45438838Y-59182000D01*
X47117000Y-59182000D01*
X47554407Y-59094994D01*
X47925223Y-58847223D01*
X49749446Y-57023000D01*
X49818554Y-57023000D01*
X50292000Y-57496446D01*
X50292000Y-64008000D01*
X50437009Y-64737012D01*
X50849962Y-65355038D01*
X51054000Y-65491372D01*
X51054000Y-65832322D01*
X50975569Y-65947110D01*
X50924560Y-66199000D01*
X50924560Y-67699000D01*
X50968838Y-67934317D01*
X51107910Y-68150441D01*
X51176006Y-68196969D01*
X51033673Y-68339302D01*
X50937000Y-68572691D01*
X50937000Y-69226750D01*
X51095750Y-69385500D01*
X52133500Y-69385500D01*
X52133500Y-69365500D01*
X52260500Y-69365500D01*
X52260500Y-69385500D01*
X53298250Y-69385500D01*
X53457000Y-69226750D01*
X53457000Y-68834250D01*
X63072000Y-68834250D01*
X63072000Y-69238310D01*
X63168673Y-69471699D01*
X63347302Y-69650327D01*
X63580691Y-69747000D01*
X65084750Y-69747000D01*
X65243500Y-69588250D01*
X65243500Y-68675500D01*
X65370500Y-68675500D01*
X65370500Y-69588250D01*
X65529250Y-69747000D01*
X67033309Y-69747000D01*
X67266698Y-69650327D01*
X67445327Y-69471699D01*
X67542000Y-69238310D01*
X67542000Y-68834250D01*
X67383250Y-68675500D01*
X65370500Y-68675500D01*
X65243500Y-68675500D01*
X63230750Y-68675500D01*
X63072000Y-68834250D01*
X53457000Y-68834250D01*
X53457000Y-68572691D01*
X53360327Y-68339302D01*
X53219090Y-68198064D01*
X53273441Y-68163090D01*
X53394653Y-67985690D01*
X63072000Y-67985690D01*
X63072000Y-68389750D01*
X63230750Y-68548500D01*
X65243500Y-68548500D01*
X65243500Y-67635750D01*
X65370500Y-67635750D01*
X65370500Y-68548500D01*
X67383250Y-68548500D01*
X67542000Y-68389750D01*
X67542000Y-67985690D01*
X67445327Y-67752301D01*
X67266698Y-67573673D01*
X67033309Y-67477000D01*
X65529250Y-67477000D01*
X65370500Y-67635750D01*
X65243500Y-67635750D01*
X65084750Y-67477000D01*
X63580691Y-67477000D01*
X63347302Y-67573673D01*
X63168673Y-67752301D01*
X63072000Y-67985690D01*
X53394653Y-67985690D01*
X53418431Y-67950890D01*
X53469440Y-67699000D01*
X53469440Y-66199000D01*
X53425162Y-65963683D01*
X53340000Y-65831338D01*
X53340000Y-65491372D01*
X53544038Y-65355038D01*
X53956991Y-64737012D01*
X54102000Y-64008000D01*
X54102000Y-63857000D01*
X63059560Y-63857000D01*
X63059560Y-64857000D01*
X63103838Y-65092317D01*
X63242910Y-65308441D01*
X63455110Y-65453431D01*
X63707000Y-65504440D01*
X66907000Y-65504440D01*
X67142317Y-65460162D01*
X67358441Y-65321090D01*
X67503431Y-65108890D01*
X67554440Y-64857000D01*
X67554440Y-63857000D01*
X67510162Y-63621683D01*
X67371090Y-63405559D01*
X67158890Y-63260569D01*
X66907000Y-63209560D01*
X66420810Y-63209560D01*
X66421198Y-62765641D01*
X66247554Y-62345388D01*
X65926303Y-62023577D01*
X65506354Y-61849199D01*
X65051641Y-61848802D01*
X64631388Y-62022446D01*
X64309577Y-62343697D01*
X64135199Y-62763646D01*
X64134810Y-63209560D01*
X63707000Y-63209560D01*
X63471683Y-63253838D01*
X63255559Y-63392910D01*
X63110569Y-63605110D01*
X63059560Y-63857000D01*
X54102000Y-63857000D01*
X54102000Y-60579250D01*
X63072000Y-60579250D01*
X63072000Y-60983310D01*
X63168673Y-61216699D01*
X63347302Y-61395327D01*
X63580691Y-61492000D01*
X65084750Y-61492000D01*
X65243500Y-61333250D01*
X65243500Y-60420500D01*
X65370500Y-60420500D01*
X65370500Y-61333250D01*
X65529250Y-61492000D01*
X67033309Y-61492000D01*
X67266698Y-61395327D01*
X67445327Y-61216699D01*
X67542000Y-60983310D01*
X67542000Y-60579250D01*
X67383250Y-60420500D01*
X65370500Y-60420500D01*
X65243500Y-60420500D01*
X63230750Y-60420500D01*
X63072000Y-60579250D01*
X54102000Y-60579250D01*
X54102000Y-59106214D01*
X54483000Y-59182000D01*
X54990575Y-59182000D01*
X55217359Y-59182198D01*
X55637612Y-59008554D01*
X55959423Y-58687303D01*
X55959622Y-58686824D01*
X56024196Y-58622250D01*
X59700000Y-58622250D01*
X59700000Y-59276309D01*
X59796673Y-59509698D01*
X59975301Y-59688327D01*
X60208690Y-59785000D01*
X60737750Y-59785000D01*
X60896500Y-59626250D01*
X60896500Y-58463500D01*
X61023500Y-58463500D01*
X61023500Y-59626250D01*
X61182250Y-59785000D01*
X61711310Y-59785000D01*
X61842425Y-59730690D01*
X63072000Y-59730690D01*
X63072000Y-60134750D01*
X63230750Y-60293500D01*
X65243500Y-60293500D01*
X65243500Y-59380750D01*
X65370500Y-59380750D01*
X65370500Y-60293500D01*
X67383250Y-60293500D01*
X67542000Y-60134750D01*
X67542000Y-59730690D01*
X67445327Y-59497301D01*
X67266698Y-59318673D01*
X67033309Y-59222000D01*
X65529250Y-59222000D01*
X65370500Y-59380750D01*
X65243500Y-59380750D01*
X65084750Y-59222000D01*
X63580691Y-59222000D01*
X63347302Y-59318673D01*
X63168673Y-59497301D01*
X63072000Y-59730690D01*
X61842425Y-59730690D01*
X61944699Y-59688327D01*
X62123327Y-59509698D01*
X62220000Y-59276309D01*
X62220000Y-58622250D01*
X62061250Y-58463500D01*
X61023500Y-58463500D01*
X60896500Y-58463500D01*
X59858750Y-58463500D01*
X59700000Y-58622250D01*
X56024196Y-58622250D01*
X57496446Y-57150000D01*
X59308575Y-57150000D01*
X59535359Y-57150198D01*
X59794799Y-57043000D01*
X59833304Y-57043000D01*
X59870910Y-57101441D01*
X59939006Y-57147969D01*
X59796673Y-57290302D01*
X59700000Y-57523691D01*
X59700000Y-58177750D01*
X59858750Y-58336500D01*
X60896500Y-58336500D01*
X60896500Y-58316500D01*
X61023500Y-58316500D01*
X61023500Y-58336500D01*
X62061250Y-58336500D01*
X62220000Y-58177750D01*
X62220000Y-57523691D01*
X62123327Y-57290302D01*
X61982090Y-57149064D01*
X62036441Y-57114090D01*
X62181431Y-56901890D01*
X62232440Y-56650000D01*
X62232440Y-55475000D01*
X63059560Y-55475000D01*
X63059560Y-56475000D01*
X63103838Y-56710317D01*
X63242910Y-56926441D01*
X63455110Y-57071431D01*
X63707000Y-57122440D01*
X66907000Y-57122440D01*
X67142317Y-57078162D01*
X67358441Y-56939090D01*
X67503431Y-56726890D01*
X67554440Y-56475000D01*
X67554440Y-55475000D01*
X67510162Y-55239683D01*
X67441477Y-55132943D01*
X67563801Y-54838354D01*
X67564198Y-54383641D01*
X67390554Y-53963388D01*
X67069303Y-53641577D01*
X66649354Y-53467199D01*
X66194641Y-53466802D01*
X65774388Y-53640446D01*
X65452577Y-53961697D01*
X65278199Y-54381646D01*
X65277943Y-54675427D01*
X65125810Y-54827560D01*
X63707000Y-54827560D01*
X63471683Y-54871838D01*
X63255559Y-55010910D01*
X63110569Y-55223110D01*
X63059560Y-55475000D01*
X62232440Y-55475000D01*
X62232440Y-55150000D01*
X62188162Y-54914683D01*
X62049090Y-54698559D01*
X61836890Y-54553569D01*
X61585000Y-54502560D01*
X60335000Y-54502560D01*
X60099683Y-54546838D01*
X59883559Y-54685910D01*
X59834985Y-54757000D01*
X59416000Y-54757000D01*
X58978593Y-54844006D01*
X58948670Y-54864000D01*
X57023000Y-54864000D01*
X56585593Y-54951006D01*
X56214777Y-55198777D01*
X54737000Y-56676554D01*
X54102000Y-56041554D01*
X54102000Y-52197250D01*
X63072000Y-52197250D01*
X63072000Y-52601310D01*
X63168673Y-52834699D01*
X63347302Y-53013327D01*
X63580691Y-53110000D01*
X65084750Y-53110000D01*
X65243500Y-52951250D01*
X65243500Y-52038500D01*
X65370500Y-52038500D01*
X65370500Y-52951250D01*
X65529250Y-53110000D01*
X67033309Y-53110000D01*
X67266698Y-53013327D01*
X67445327Y-52834699D01*
X67542000Y-52601310D01*
X67542000Y-52197250D01*
X67383250Y-52038500D01*
X65370500Y-52038500D01*
X65243500Y-52038500D01*
X63230750Y-52038500D01*
X63072000Y-52197250D01*
X54102000Y-52197250D01*
X54102000Y-51348690D01*
X63072000Y-51348690D01*
X63072000Y-51752750D01*
X63230750Y-51911500D01*
X65243500Y-51911500D01*
X65243500Y-50998750D01*
X65370500Y-50998750D01*
X65370500Y-51911500D01*
X67383250Y-51911500D01*
X67542000Y-51752750D01*
X67542000Y-51348690D01*
X67445327Y-51115301D01*
X67266698Y-50936673D01*
X67033309Y-50840000D01*
X65529250Y-50840000D01*
X65370500Y-50998750D01*
X65243500Y-50998750D01*
X65084750Y-50840000D01*
X63580691Y-50840000D01*
X63347302Y-50936673D01*
X63168673Y-51115301D01*
X63072000Y-51348690D01*
X54102000Y-51348690D01*
X54102000Y-49911000D01*
X53956991Y-49181988D01*
X53544038Y-48563962D01*
X52926012Y-48151009D01*
X52197000Y-48006000D01*
X51467988Y-48151009D01*
X50849962Y-48563962D01*
X50437009Y-49181988D01*
X50292000Y-49911000D01*
X50292000Y-54737000D01*
X49276425Y-54737000D01*
X49049641Y-54736802D01*
X48629388Y-54910446D01*
X48307577Y-55231697D01*
X48307378Y-55232176D01*
X46643554Y-56896000D01*
X45212425Y-56896000D01*
X44985641Y-56895802D01*
X44565388Y-57069446D01*
X44243577Y-57390697D01*
X44069199Y-57810646D01*
X44068802Y-58265359D01*
X43451925Y-58265359D01*
X44432783Y-56578849D01*
X44448975Y-56531107D01*
X44445316Y-56480826D01*
X44432855Y-56451275D01*
X39239181Y-47498000D01*
X54280060Y-47498000D01*
X54280060Y-48006000D01*
X54324338Y-48241317D01*
X54463410Y-48457441D01*
X54675610Y-48602431D01*
X54927500Y-48653440D01*
X56070500Y-48653440D01*
X56305817Y-48609162D01*
X56521941Y-48470090D01*
X56666931Y-48257890D01*
X56717940Y-48006000D01*
X56717940Y-47974250D01*
X60642500Y-47974250D01*
X60642500Y-48132309D01*
X60739173Y-48365698D01*
X60917801Y-48544327D01*
X61151190Y-48641000D01*
X61626750Y-48641000D01*
X61785500Y-48482250D01*
X61785500Y-47815500D01*
X61912500Y-47815500D01*
X61912500Y-48482250D01*
X62071250Y-48641000D01*
X62546810Y-48641000D01*
X62780199Y-48544327D01*
X62958827Y-48365698D01*
X63055500Y-48132309D01*
X63055500Y-47974250D01*
X62896750Y-47815500D01*
X61912500Y-47815500D01*
X61785500Y-47815500D01*
X60801250Y-47815500D01*
X60642500Y-47974250D01*
X56717940Y-47974250D01*
X56717940Y-47498000D01*
X56673662Y-47262683D01*
X56582896Y-47121629D01*
X56608827Y-47095698D01*
X56705500Y-46862309D01*
X56705500Y-46704250D01*
X56546750Y-46545500D01*
X55562500Y-46545500D01*
X55562500Y-46565500D01*
X55435500Y-46565500D01*
X55435500Y-46545500D01*
X54451250Y-46545500D01*
X54292500Y-46704250D01*
X54292500Y-46862309D01*
X54389173Y-47095698D01*
X54415709Y-47122235D01*
X54331069Y-47246110D01*
X54280060Y-47498000D01*
X39239181Y-47498000D01*
X27525492Y-27305000D01*
X71539416Y-27305000D01*
X71411569Y-27492110D01*
G36*
X68470560Y-37353000D02*
X68494944Y-37482589D01*
X68470560Y-37603000D01*
X68470560Y-38153000D01*
X68494944Y-38282589D01*
X68470560Y-38403000D01*
X68470560Y-38953000D01*
X68494944Y-39082589D01*
X68470560Y-39203000D01*
X68470560Y-39753000D01*
X68494944Y-39882589D01*
X68470560Y-40003000D01*
X68470560Y-40553000D01*
X68494944Y-40682589D01*
X68470560Y-40803000D01*
X68470560Y-41353000D01*
X68490450Y-41458705D01*
X68483000Y-41476690D01*
X68483000Y-41655750D01*
X68641750Y-41814500D01*
X68668632Y-41814500D01*
X68761397Y-41877884D01*
X68666559Y-41938910D01*
X68664789Y-41941500D01*
X68641750Y-41941500D01*
X68483000Y-42100250D01*
X68483000Y-42279310D01*
X68491468Y-42299753D01*
X68470560Y-42403000D01*
X68470560Y-42468617D01*
X68313890Y-42361569D01*
X68062000Y-42310560D01*
X66844070Y-42310560D01*
X67594815Y-41559815D01*
X67759996Y-41312605D01*
X67767516Y-41274801D01*
X67818000Y-41021000D01*
X67818000Y-37653630D01*
X68470560Y-37001071D01*
X68470560Y-37353000D01*
X68470560Y-37353000D01*
G37*
X68470560Y-37353000D02*
X68494944Y-37482589D01*
X68470560Y-37603000D01*
X68470560Y-38153000D01*
X68494944Y-38282589D01*
X68470560Y-38403000D01*
X68470560Y-38953000D01*
X68494944Y-39082589D01*
X68470560Y-39203000D01*
X68470560Y-39753000D01*
X68494944Y-39882589D01*
X68470560Y-40003000D01*
X68470560Y-40553000D01*
X68494944Y-40682589D01*
X68470560Y-40803000D01*
X68470560Y-41353000D01*
X68490450Y-41458705D01*
X68483000Y-41476690D01*
X68483000Y-41655750D01*
X68641750Y-41814500D01*
X68668632Y-41814500D01*
X68761397Y-41877884D01*
X68666559Y-41938910D01*
X68664789Y-41941500D01*
X68641750Y-41941500D01*
X68483000Y-42100250D01*
X68483000Y-42279310D01*
X68491468Y-42299753D01*
X68470560Y-42403000D01*
X68470560Y-42468617D01*
X68313890Y-42361569D01*
X68062000Y-42310560D01*
X66844070Y-42310560D01*
X67594815Y-41559815D01*
X67759996Y-41312605D01*
X67767516Y-41274801D01*
X67818000Y-41021000D01*
X67818000Y-37653630D01*
X68470560Y-37001071D01*
X68470560Y-37353000D01*
G36*
X149034973Y-46782873D02*
X149116046Y-46908865D01*
X149243366Y-46995859D01*
X149394500Y-47026464D01*
X149424718Y-47026464D01*
X149479000Y-47060390D01*
X149479000Y-47469536D01*
X149394500Y-47469536D01*
X149285744Y-47490000D01*
X149106000Y-47490000D01*
X149065781Y-47498000D01*
X148971000Y-47498000D01*
X148921590Y-47508006D01*
X148881197Y-47535197D01*
X148839654Y-47576740D01*
X148746790Y-47638790D01*
X148611790Y-47773790D01*
X148549740Y-47866654D01*
X147865197Y-48551197D01*
X147837334Y-48593211D01*
X147828000Y-48641000D01*
X147828000Y-49784000D01*
X141478000Y-49784000D01*
X141478000Y-46482000D01*
X148553576Y-46482000D01*
X149034973Y-46782873D01*
X149034973Y-46782873D01*
G37*
X149034973Y-46782873D02*
X149116046Y-46908865D01*
X149243366Y-46995859D01*
X149394500Y-47026464D01*
X149424718Y-47026464D01*
X149479000Y-47060390D01*
X149479000Y-47469536D01*
X149394500Y-47469536D01*
X149285744Y-47490000D01*
X149106000Y-47490000D01*
X149065781Y-47498000D01*
X148971000Y-47498000D01*
X148921590Y-47508006D01*
X148881197Y-47535197D01*
X148839654Y-47576740D01*
X148746790Y-47638790D01*
X148611790Y-47773790D01*
X148549740Y-47866654D01*
X147865197Y-48551197D01*
X147837334Y-48593211D01*
X147828000Y-48641000D01*
X147828000Y-49784000D01*
X141478000Y-49784000D01*
X141478000Y-46482000D01*
X148553576Y-46482000D01*
X149034973Y-46782873D01*
G36*
X95123000Y-35121689D02*
X93006974Y-36988771D01*
X92976545Y-37028964D01*
X92964000Y-37084000D01*
X92964000Y-40513000D01*
X90978981Y-40513000D01*
X90170000Y-39819587D01*
X90170000Y-34163000D01*
X95123000Y-34163000D01*
X95123000Y-35121689D01*
X95123000Y-35121689D01*
G37*
X95123000Y-35121689D02*
X93006974Y-36988771D01*
X92976545Y-37028964D01*
X92964000Y-37084000D01*
X92964000Y-40513000D01*
X90978981Y-40513000D01*
X90170000Y-39819587D01*
X90170000Y-34163000D01*
X95123000Y-34163000D01*
X95123000Y-35121689D01*
G36*
X154920982Y-48627508D02*
X153994439Y-49657000D01*
X153129492Y-49657000D01*
X152790332Y-48526464D01*
X152900100Y-48526464D01*
X154920982Y-48627508D01*
X154920982Y-48627508D01*
G37*
X154920982Y-48627508D02*
X153994439Y-49657000D01*
X153129492Y-49657000D01*
X152790332Y-48526464D01*
X152900100Y-48526464D01*
X154920982Y-48627508D01*
M02*
