G04 #@! TF.FileFunction,Copper,L2,Bot,Signal*
%FSLAX46Y46*%
G04 Gerber Fmt 4.6, Leading zero omitted, Abs format (unit mm)*
G04 Created by KiCad (PCBNEW 4.0.4+e1-6308~48~ubuntu14.04.1-stable) date Tue May 30 16:51:29 2017*
%MOMM*%
%LPD*%
G01*
G04 APERTURE LIST*
%ADD10C,0.100000*%
%ADD11R,1.250000X1.500000*%
%ADD12R,1.500000X1.250000*%
%ADD13R,1.000000X3.500000*%
%ADD14R,1.600000X3.400000*%
%ADD15R,1.500000X1.300000*%
%ADD16R,1.300000X1.500000*%
%ADD17R,1.060000X0.650000*%
%ADD18R,0.550000X1.600000*%
%ADD19R,1.600000X0.550000*%
%ADD20R,1.143000X0.508000*%
%ADD21C,3.000000*%
%ADD22R,1.000000X1.800000*%
%ADD23R,2.000000X2.000000*%
%ADD24R,0.800000X0.280000*%
%ADD25R,1.600000X2.150000*%
%ADD26R,2.400000X0.750000*%
%ADD27R,3.200000X1.000000*%
%ADD28R,0.400000X1.350000*%
%ADD29R,2.100000X1.600000*%
%ADD30R,1.800000X1.900000*%
%ADD31R,0.750000X1.200000*%
%ADD32C,1.016000*%
%ADD33C,1.016000*%
%ADD34C,0.762000*%
%ADD35C,0.508000*%
%ADD36C,0.254000*%
%ADD37C,2.540000*%
G04 APERTURE END LIST*
D10*
D11*
X99949000Y-34016000D03*
X99949000Y-31516000D03*
D12*
X95016000Y-38735000D03*
X97516000Y-38735000D03*
D11*
X92456000Y-34016000D03*
X92456000Y-31516000D03*
X67437000Y-43708000D03*
X67437000Y-46208000D03*
D12*
X81808000Y-60198000D03*
X84308000Y-60198000D03*
D11*
X81915000Y-39858000D03*
X81915000Y-37358000D03*
X86487000Y-39858000D03*
X86487000Y-37358000D03*
X84201000Y-39858000D03*
X84201000Y-37358000D03*
X101219000Y-66568000D03*
X101219000Y-69068000D03*
X110236000Y-55646000D03*
X110236000Y-58146000D03*
D12*
X95651000Y-78867000D03*
X98151000Y-78867000D03*
X136545000Y-32004000D03*
X139045000Y-32004000D03*
X107930000Y-78867000D03*
X105430000Y-78867000D03*
X58908000Y-78994000D03*
X56408000Y-78994000D03*
X162921000Y-35052000D03*
X160421000Y-35052000D03*
X41041000Y-28829000D03*
X43541000Y-28829000D03*
X47137000Y-78994000D03*
X49637000Y-78994000D03*
X140442000Y-83820000D03*
X137942000Y-83820000D03*
D11*
X60960000Y-55900000D03*
X60960000Y-58400000D03*
X52197000Y-66949000D03*
X52197000Y-69449000D03*
D13*
X125079000Y-43453000D03*
X123079000Y-43453000D03*
D14*
X127479000Y-49003000D03*
X120679000Y-49003000D03*
D15*
X81835000Y-57912000D03*
X84535000Y-57912000D03*
X84535000Y-55753000D03*
X81835000Y-55753000D03*
D16*
X64643000Y-43514000D03*
X64643000Y-40814000D03*
D17*
X97366000Y-34737000D03*
X97366000Y-35687000D03*
X97366000Y-36637000D03*
X95166000Y-36637000D03*
X95166000Y-34737000D03*
D18*
X76968000Y-44128000D03*
X76168000Y-44128000D03*
X75368000Y-44128000D03*
X74568000Y-44128000D03*
X73768000Y-44128000D03*
X72968000Y-44128000D03*
X72168000Y-44128000D03*
X71368000Y-44128000D03*
D19*
X69918000Y-42678000D03*
X69918000Y-41878000D03*
X69918000Y-41078000D03*
X69918000Y-40278000D03*
X69918000Y-39478000D03*
X69918000Y-38678000D03*
X69918000Y-37878000D03*
X69918000Y-37078000D03*
D18*
X71368000Y-35628000D03*
X72168000Y-35628000D03*
X72968000Y-35628000D03*
X73768000Y-35628000D03*
X74568000Y-35628000D03*
X75368000Y-35628000D03*
X76168000Y-35628000D03*
X76968000Y-35628000D03*
D19*
X78418000Y-37078000D03*
X78418000Y-37878000D03*
X78418000Y-38678000D03*
X78418000Y-39478000D03*
X78418000Y-40278000D03*
X78418000Y-41078000D03*
X78418000Y-41878000D03*
X78418000Y-42678000D03*
D20*
X61849000Y-40132000D03*
X61849000Y-41402000D03*
X61849000Y-42672000D03*
X61849000Y-43942000D03*
X61849000Y-45212000D03*
X61849000Y-46482000D03*
X61849000Y-47752000D03*
X55499000Y-47752000D03*
X55499000Y-46482000D03*
X55499000Y-43942000D03*
X55499000Y-42672000D03*
X55499000Y-41402000D03*
X55499000Y-40132000D03*
X55499000Y-45212000D03*
D21*
X124333000Y-33909000D03*
X91948000Y-41021000D03*
X145288000Y-51816000D03*
D22*
X76410500Y-47434500D03*
X78910500Y-47434500D03*
D11*
X156337000Y-47518000D03*
X156337000Y-50018000D03*
D12*
X152507000Y-44196000D03*
X150007000Y-44196000D03*
D11*
X143510000Y-46462000D03*
X143510000Y-43962000D03*
X145542000Y-46462000D03*
X145542000Y-43962000D03*
X147574000Y-46462000D03*
X147574000Y-43962000D03*
D23*
X153507000Y-52705000D03*
X149007000Y-52705000D03*
D24*
X152719500Y-48498000D03*
X149794500Y-48498000D03*
X152719500Y-47998000D03*
X149794500Y-47998000D03*
X152719500Y-47498000D03*
X149794500Y-47498000D03*
X152719500Y-46998000D03*
X149794500Y-46998000D03*
X152719500Y-46498000D03*
X149794500Y-46498000D03*
D25*
X151257000Y-47498000D03*
D26*
X88564000Y-47625000D03*
X84664000Y-47625000D03*
X88564000Y-48895000D03*
X84664000Y-48895000D03*
X88564000Y-50165000D03*
X84664000Y-50165000D03*
X88564000Y-51435000D03*
X84664000Y-51435000D03*
X88564000Y-52705000D03*
X84664000Y-52705000D03*
D27*
X97819000Y-42069000D03*
X104619000Y-42069000D03*
X104619000Y-46069000D03*
X97819000Y-46069000D03*
X72107000Y-55975000D03*
X65307000Y-55975000D03*
X65307000Y-51975000D03*
X72107000Y-51975000D03*
X72107000Y-64357000D03*
X65307000Y-64357000D03*
X65307000Y-60357000D03*
X72107000Y-60357000D03*
X72107000Y-72612000D03*
X65307000Y-72612000D03*
X65307000Y-68612000D03*
X72107000Y-68612000D03*
D28*
X75408000Y-31369000D03*
X76058000Y-31369000D03*
X76708000Y-31369000D03*
X77358000Y-31369000D03*
X78008000Y-31369000D03*
D29*
X73608000Y-31219000D03*
X79808000Y-31219000D03*
D30*
X75558000Y-28694000D03*
X77858000Y-28694000D03*
X80508000Y-28694000D03*
X72908000Y-28694000D03*
D15*
X152607000Y-41783000D03*
X149907000Y-41783000D03*
D31*
X76327000Y-50104000D03*
X76327000Y-52004000D03*
X78867000Y-50104000D03*
X78867000Y-52004000D03*
D32*
X121539000Y-38227000D03*
X121539000Y-43434000D03*
X45085000Y-49911000D03*
X45212000Y-56007000D03*
X41529000Y-43942000D03*
X34544000Y-32004000D03*
X37973000Y-37973000D03*
X108331000Y-58039000D03*
X59309000Y-58039000D03*
X74295000Y-47498000D03*
X68072000Y-41910000D03*
X65659000Y-32004000D03*
X166116000Y-31877000D03*
X164211000Y-37973000D03*
X162687000Y-43942000D03*
X155575000Y-67945000D03*
X157226000Y-61976000D03*
X159131000Y-55880000D03*
X160655000Y-49911000D03*
X153797000Y-74041000D03*
X152146000Y-79883000D03*
X153416000Y-85979000D03*
X143129000Y-85979000D03*
X141224000Y-79883000D03*
X139700000Y-73914000D03*
X137795000Y-67945000D03*
X135763000Y-61976000D03*
X134112000Y-55880000D03*
X132207000Y-49911000D03*
X130683000Y-43942000D03*
X128651000Y-37973000D03*
X127127000Y-32004000D03*
X114681000Y-31877000D03*
X111125000Y-37973000D03*
X107696000Y-43942000D03*
X104267000Y-49911000D03*
X108585000Y-64008000D03*
X112014000Y-69977000D03*
X115570000Y-76073000D03*
X119126000Y-82042000D03*
X88773000Y-82042000D03*
X91821000Y-76073000D03*
X94869000Y-70104000D03*
X98298000Y-64008000D03*
X54889400Y-56007000D03*
X104013000Y-56007000D03*
X98552000Y-58039000D03*
X94107000Y-56007000D03*
X93980000Y-49911000D03*
X90424000Y-43942000D03*
X83566000Y-31877000D03*
X38735000Y-82042000D03*
X42418000Y-76073000D03*
X70485000Y-82042000D03*
X67056000Y-76073000D03*
X63500000Y-70104000D03*
X60071000Y-64008000D03*
X45974000Y-70104000D03*
X49403000Y-64008000D03*
X58555000Y-43950000D03*
X55118000Y-49911000D03*
X49479200Y-58039000D03*
X140462000Y-45593000D03*
X162941000Y-33020000D03*
X145288000Y-54610000D03*
X141859000Y-46863000D03*
X140335000Y-48768000D03*
X142621000Y-83693000D03*
X148971000Y-79883000D03*
X172593000Y-35179000D03*
X134747000Y-32004000D03*
X39116000Y-28829000D03*
X153797000Y-45847000D03*
X53975000Y-40132000D03*
X101219000Y-49911000D03*
X101219000Y-64135000D03*
X93218000Y-78867000D03*
X82804000Y-78867000D03*
X44450000Y-78994000D03*
X34036000Y-78994000D03*
X52197000Y-64008000D03*
X52197000Y-49911000D03*
X110363000Y-78867000D03*
X120269000Y-78867000D03*
X61468000Y-78867000D03*
X72517000Y-78867000D03*
X146939000Y-49149000D03*
X141986000Y-49276000D03*
X94107000Y-58039000D03*
X98552000Y-56007000D03*
X108331000Y-56007000D03*
X104013000Y-58039000D03*
X49530000Y-55880000D03*
X59309000Y-56007000D03*
X54991000Y-58039000D03*
X81407000Y-52705000D03*
X76708000Y-37846000D03*
X154559000Y-41910000D03*
X136271000Y-29972000D03*
X111252000Y-29972000D03*
X88646000Y-29972000D03*
X59690000Y-37465000D03*
X58293000Y-38862000D03*
X66421000Y-54610000D03*
X72136000Y-54483000D03*
X65278000Y-62992000D03*
X72136000Y-62992000D03*
X34544000Y-30099000D03*
X31115000Y-28829000D03*
X34544000Y-85725000D03*
X70485000Y-85725000D03*
X70485000Y-84074000D03*
X34544000Y-83947000D03*
X84455000Y-85852000D03*
X118999000Y-85852000D03*
X118999000Y-84074000D03*
X84455000Y-83947000D03*
D33*
X123079000Y-43453000D02*
X123079000Y-46720000D01*
X123079000Y-46720000D02*
X122999500Y-46799500D01*
X123079000Y-43453000D02*
X121558000Y-43453000D01*
X124333000Y-35433000D02*
X124333000Y-33909000D01*
X121539000Y-38227000D02*
X124333000Y-35433000D01*
X121558000Y-43453000D02*
X121539000Y-43434000D01*
D34*
X145542000Y-43962000D02*
X143510000Y-43962000D01*
X147574000Y-43962000D02*
X145542000Y-43962000D01*
X150007000Y-44196000D02*
X147808000Y-44196000D01*
X147808000Y-44196000D02*
X147574000Y-43962000D01*
X150007000Y-44196000D02*
X150007000Y-41883000D01*
X150007000Y-41883000D02*
X149907000Y-41783000D01*
X151257000Y-47498000D02*
X151257000Y-45446000D01*
X151257000Y-45446000D02*
X150007000Y-44196000D01*
D33*
X151257000Y-47498000D02*
X151257000Y-55245000D01*
X156337000Y-54991000D02*
X156337000Y-50018000D01*
X156464000Y-55118000D02*
X156337000Y-54991000D01*
X151384000Y-55118000D02*
X156464000Y-55118000D01*
X151257000Y-55245000D02*
X151384000Y-55118000D01*
D35*
X69918000Y-41878000D02*
X74200000Y-41878000D01*
X76600000Y-39478000D02*
X78418000Y-39478000D01*
X74200000Y-41878000D02*
X76600000Y-39478000D01*
D36*
X78008000Y-31369000D02*
X78008000Y-32796000D01*
X78008000Y-32796000D02*
X78867000Y-33655000D01*
D33*
X110236000Y-58146000D02*
X108438000Y-58146000D01*
X108438000Y-58146000D02*
X108331000Y-58039000D01*
X60960000Y-58400000D02*
X59670000Y-58400000D01*
X59670000Y-58400000D02*
X59309000Y-58039000D01*
D35*
X78418000Y-39478000D02*
X79795000Y-39478000D01*
X79795000Y-39478000D02*
X81915000Y-37358000D01*
D34*
X97366000Y-35687000D02*
X98552000Y-35687000D01*
X99187000Y-37064000D02*
X97516000Y-38735000D01*
X99187000Y-36322000D02*
X99187000Y-37064000D01*
X98552000Y-35687000D02*
X99187000Y-36322000D01*
D35*
X69918000Y-41878000D02*
X68104000Y-41878000D01*
X68104000Y-41878000D02*
X68072000Y-41910000D01*
D33*
X58555000Y-43950000D02*
X58547000Y-43942000D01*
D34*
X95166000Y-36637000D02*
X95166000Y-38585000D01*
X95166000Y-38585000D02*
X95016000Y-38735000D01*
D35*
X91948000Y-41021000D02*
X91208000Y-41021000D01*
X91208000Y-41021000D02*
X90045000Y-39858000D01*
D36*
X88564000Y-47625000D02*
X87630000Y-47625000D01*
X87630000Y-47625000D02*
X86741000Y-48514000D01*
X86741000Y-53547000D02*
X84535000Y-55753000D01*
X86741000Y-48514000D02*
X86741000Y-53547000D01*
X67437000Y-43708000D02*
X64837000Y-43708000D01*
X64837000Y-43708000D02*
X64643000Y-43514000D01*
D35*
X67437000Y-43708000D02*
X68888000Y-43708000D01*
X68888000Y-43708000D02*
X69918000Y-42678000D01*
X78418000Y-41078000D02*
X76016000Y-41078000D01*
X74416000Y-42678000D02*
X69918000Y-42678000D01*
X76016000Y-41078000D02*
X74416000Y-42678000D01*
X88564000Y-47625000D02*
X88564000Y-44375000D01*
X88564000Y-44375000D02*
X85267000Y-41078000D01*
D34*
X86487000Y-39858000D02*
X90045000Y-39858000D01*
X90045000Y-39858000D02*
X95166000Y-34737000D01*
X95166000Y-34737000D02*
X93177000Y-34737000D01*
X93177000Y-34737000D02*
X92456000Y-34016000D01*
D35*
X84201000Y-39858000D02*
X84201000Y-40640000D01*
X84201000Y-40640000D02*
X84639000Y-41078000D01*
X78418000Y-41078000D02*
X84639000Y-41078000D01*
X84639000Y-41078000D02*
X85267000Y-41078000D01*
X85267000Y-41078000D02*
X86487000Y-39858000D01*
D36*
X53975000Y-43688000D02*
X53975000Y-44399200D01*
X53975000Y-40894000D02*
X53975000Y-43688000D01*
X54787800Y-45212000D02*
X55499000Y-45212000D01*
X53975000Y-44399200D02*
X54787800Y-45212000D01*
D33*
X141859000Y-46863000D02*
X141732000Y-46863000D01*
X141732000Y-46863000D02*
X140462000Y-45593000D01*
X162921000Y-35052000D02*
X162921000Y-33040000D01*
X162921000Y-33040000D02*
X162941000Y-33020000D01*
X145288000Y-51816000D02*
X145288000Y-54610000D01*
X145288000Y-51816000D02*
X145288000Y-48006000D01*
X141859000Y-47244000D02*
X141859000Y-46863000D01*
X140335000Y-48768000D02*
X141859000Y-47244000D01*
X140569000Y-83693000D02*
X142621000Y-83693000D01*
D37*
X146431000Y-79883000D02*
X142621000Y-83693000D01*
X148971000Y-79883000D02*
X146431000Y-79883000D01*
D33*
X140569000Y-83693000D02*
X140442000Y-83820000D01*
X52197000Y-64008000D02*
X52197000Y-66949000D01*
X172466000Y-35052000D02*
X162921000Y-35052000D01*
X172593000Y-35179000D02*
X172466000Y-35052000D01*
X136545000Y-32004000D02*
X134747000Y-32004000D01*
X49530000Y-55880000D02*
X50292000Y-55880000D01*
X50292000Y-55880000D02*
X52197000Y-57785000D01*
X54991000Y-58039000D02*
X54483000Y-58039000D01*
X54483000Y-58039000D02*
X52197000Y-55753000D01*
X98552000Y-56007000D02*
X99695000Y-56007000D01*
X99695000Y-56007000D02*
X101219000Y-54483000D01*
X104013000Y-58039000D02*
X102870000Y-58039000D01*
X101092000Y-59944000D02*
X101219000Y-59944000D01*
X101219000Y-59817000D02*
X101092000Y-59944000D01*
X101219000Y-59690000D02*
X101219000Y-59817000D01*
X102870000Y-58039000D02*
X101219000Y-59690000D01*
X110236000Y-55646000D02*
X108692000Y-55646000D01*
X108692000Y-55646000D02*
X108331000Y-56007000D01*
X60960000Y-55900000D02*
X59416000Y-55900000D01*
X59416000Y-55900000D02*
X59309000Y-56007000D01*
X39116000Y-28829000D02*
X41041000Y-28829000D01*
D36*
X152719500Y-46998000D02*
X153408000Y-46998000D01*
X153797000Y-46609000D02*
X153797000Y-45847000D01*
X153408000Y-46998000D02*
X153797000Y-46609000D01*
X55499000Y-40132000D02*
X53975000Y-40132000D01*
X54038500Y-40322500D02*
X53975000Y-40386000D01*
D33*
X101219000Y-66568000D02*
X101219000Y-64135000D01*
D37*
X101219000Y-54483000D02*
X101219000Y-49911000D01*
X101219000Y-59944000D02*
X101219000Y-54483000D01*
X101219000Y-64008000D02*
X101219000Y-59944000D01*
D33*
X101219000Y-64135000D02*
X101219000Y-64008000D01*
X107930000Y-78867000D02*
X110363000Y-78867000D01*
X95651000Y-78867000D02*
X93218000Y-78867000D01*
D37*
X93218000Y-78867000D02*
X82804000Y-78867000D01*
D33*
X58908000Y-78994000D02*
X61341000Y-78994000D01*
X61341000Y-78994000D02*
X61468000Y-78867000D01*
X47137000Y-78994000D02*
X44450000Y-78994000D01*
D37*
X44450000Y-78994000D02*
X34036000Y-78994000D01*
X52197000Y-64008000D02*
X52197000Y-57785000D01*
X52197000Y-57785000D02*
X52197000Y-55753000D01*
X52197000Y-55753000D02*
X52197000Y-49911000D01*
D36*
X55499000Y-41402000D02*
X54356000Y-41402000D01*
X54229000Y-40132000D02*
X55499000Y-40132000D01*
X54038500Y-40322500D02*
X54229000Y-40132000D01*
X53975000Y-41021000D02*
X53975000Y-40894000D01*
X53975000Y-40894000D02*
X53975000Y-40386000D01*
X54356000Y-41402000D02*
X53975000Y-41021000D01*
D37*
X120269000Y-78867000D02*
X110363000Y-78867000D01*
X72517000Y-78867000D02*
X61468000Y-78867000D01*
D36*
X149794500Y-47498000D02*
X148590000Y-47498000D01*
X148590000Y-47498000D02*
X146939000Y-49149000D01*
X149794500Y-46998000D02*
X148110000Y-46998000D01*
X148110000Y-46998000D02*
X147574000Y-46462000D01*
D35*
X145288000Y-48006000D02*
X146030000Y-48006000D01*
X146030000Y-48006000D02*
X147574000Y-46462000D01*
X145288000Y-48240000D02*
X145288000Y-48006000D01*
X145288000Y-48006000D02*
X145288000Y-46716000D01*
X145288000Y-46716000D02*
X145542000Y-46462000D01*
X145288000Y-49276000D02*
X145288000Y-48240000D01*
X145288000Y-51816000D02*
X145288000Y-49276000D01*
X145288000Y-48240000D02*
X143510000Y-46462000D01*
D36*
X149786500Y-46990000D02*
X149794500Y-46998000D01*
D33*
X96520000Y-58039000D02*
X94107000Y-58039000D01*
X98552000Y-56007000D02*
X96520000Y-58039000D01*
X106045000Y-56007000D02*
X108331000Y-56007000D01*
X104013000Y-58039000D02*
X106045000Y-56007000D01*
X57023000Y-56007000D02*
X59309000Y-56007000D01*
X54991000Y-58039000D02*
X57023000Y-56007000D01*
D36*
X81835000Y-55753000D02*
X81835000Y-57912000D01*
X81835000Y-57912000D02*
X81808000Y-57939000D01*
X81808000Y-57939000D02*
X81808000Y-60198000D01*
X81808000Y-56288000D02*
X81835000Y-56261000D01*
X81407000Y-52705000D02*
X81407000Y-55833000D01*
X81407000Y-55833000D02*
X81835000Y-56261000D01*
X78418000Y-37878000D02*
X76740000Y-37878000D01*
X81407000Y-52705000D02*
X84664000Y-52705000D01*
X76740000Y-37878000D02*
X76708000Y-37846000D01*
X78418000Y-40278000D02*
X81495000Y-40278000D01*
X81495000Y-40278000D02*
X81915000Y-39858000D01*
X76168000Y-44128000D02*
X76168000Y-47192000D01*
X76168000Y-47192000D02*
X76390500Y-47414500D01*
X76390500Y-47414500D02*
X76390500Y-49994500D01*
X78930500Y-49994500D02*
X78930500Y-47454500D01*
X78930500Y-47454500D02*
X76968000Y-45492000D01*
X76968000Y-45492000D02*
X76968000Y-44128000D01*
X152719500Y-47998000D02*
X153805000Y-47998000D01*
X154601777Y-43777777D02*
X152607000Y-41783000D01*
X154940000Y-44116000D02*
X154601777Y-43777777D01*
X154940000Y-46863000D02*
X154940000Y-44116000D01*
X153805000Y-47998000D02*
X154940000Y-46863000D01*
X79635000Y-37078000D02*
X82994500Y-33718500D01*
X78418000Y-37078000D02*
X79635000Y-37078000D01*
X84899500Y-33718500D02*
X88646000Y-29972000D01*
X82994500Y-33718500D02*
X84899500Y-33718500D01*
X154432000Y-41783000D02*
X152607000Y-41783000D01*
X154559000Y-41910000D02*
X154432000Y-41783000D01*
X111252000Y-29972000D02*
X136271000Y-29972000D01*
X84535000Y-57912000D02*
X88519000Y-57912000D01*
X97819000Y-48612000D02*
X97819000Y-46069000D01*
X88519000Y-57912000D02*
X97819000Y-48612000D01*
X104619000Y-46069000D02*
X97819000Y-46069000D01*
X61849000Y-43942000D02*
X61468000Y-43942000D01*
X61468000Y-43942000D02*
X58293000Y-40767000D01*
X72968000Y-34360000D02*
X72968000Y-35628000D01*
X72136000Y-33528000D02*
X72968000Y-34360000D01*
X69469000Y-33528000D02*
X72136000Y-33528000D01*
X66167000Y-36830000D02*
X69469000Y-33528000D01*
X60325000Y-36830000D02*
X66167000Y-36830000D01*
X59690000Y-37465000D02*
X60325000Y-36830000D01*
X58293000Y-40767000D02*
X58293000Y-38862000D01*
X61849000Y-43942000D02*
X62484000Y-43942000D01*
X62865000Y-43561000D02*
X62865000Y-40132000D01*
X62484000Y-43942000D02*
X62865000Y-43561000D01*
X61849000Y-40132000D02*
X62865000Y-40132000D01*
X62865000Y-40132000D02*
X63961000Y-40132000D01*
X63961000Y-40132000D02*
X64643000Y-40814000D01*
X65307000Y-55975000D02*
X65307000Y-55724000D01*
X65307000Y-55724000D02*
X66421000Y-54610000D01*
X72136000Y-54483000D02*
X72107000Y-54512000D01*
X72107000Y-54512000D02*
X72107000Y-55975000D01*
X72968000Y-44128000D02*
X72968000Y-48190000D01*
X69977000Y-53845000D02*
X72107000Y-55975000D01*
X69977000Y-51181000D02*
X69977000Y-53845000D01*
X72968000Y-48190000D02*
X69977000Y-51181000D01*
X72107000Y-64357000D02*
X72107000Y-63021000D01*
X65307000Y-63021000D02*
X65307000Y-64357000D01*
X65278000Y-62992000D02*
X65307000Y-63021000D01*
X72107000Y-63021000D02*
X72136000Y-62992000D01*
X72168000Y-44128000D02*
X72168000Y-48101000D01*
X69469000Y-61719000D02*
X72107000Y-64357000D01*
X69469000Y-50800000D02*
X69469000Y-61719000D01*
X72168000Y-48101000D02*
X69469000Y-50800000D01*
X65307000Y-72612000D02*
X72107000Y-72612000D01*
X71368000Y-44128000D02*
X71368000Y-48127000D01*
X68961000Y-69466000D02*
X72107000Y-72612000D01*
X68961000Y-50534000D02*
X68961000Y-69466000D01*
X71368000Y-48127000D02*
X68961000Y-50534000D01*
X67056000Y-41021000D02*
X67056000Y-37338000D01*
X62611000Y-45212000D02*
X63373000Y-44450000D01*
X63373000Y-44450000D02*
X63373000Y-42672000D01*
X63373000Y-42672000D02*
X63881000Y-42164000D01*
X63881000Y-42164000D02*
X65913000Y-42164000D01*
X65913000Y-42164000D02*
X67056000Y-41021000D01*
X61849000Y-45212000D02*
X62611000Y-45212000D01*
X68766000Y-35628000D02*
X71368000Y-35628000D01*
X67056000Y-37338000D02*
X68766000Y-35628000D01*
X71755000Y-34036000D02*
X69672200Y-34036000D01*
X60960000Y-41402000D02*
X60706000Y-41148000D01*
X60706000Y-41148000D02*
X60706000Y-39624000D01*
X60706000Y-39624000D02*
X61341000Y-38989000D01*
X61341000Y-38989000D02*
X64770000Y-38989000D01*
X71755000Y-34036000D02*
X72136000Y-34417000D01*
X72136000Y-35596000D02*
X72136000Y-34417000D01*
X60960000Y-41402000D02*
X61849000Y-41402000D01*
X64770000Y-38938200D02*
X64770000Y-38989000D01*
X69672200Y-34036000D02*
X64770000Y-38938200D01*
X72136000Y-35596000D02*
X72168000Y-35628000D01*
X84664000Y-48895000D02*
X85598000Y-48895000D01*
X85598000Y-48895000D02*
X86868000Y-47625000D01*
X86868000Y-47625000D02*
X86868000Y-43561000D01*
X86868000Y-43561000D02*
X85185000Y-41878000D01*
X85185000Y-41878000D02*
X78418000Y-41878000D01*
X78418000Y-42678000D02*
X85197600Y-42678000D01*
X85979000Y-47625000D02*
X84664000Y-47625000D01*
X86360000Y-47244000D02*
X85979000Y-47625000D01*
X86360000Y-43840400D02*
X86360000Y-47244000D01*
X85197600Y-42678000D02*
X86360000Y-43840400D01*
X61849000Y-42672000D02*
X61341000Y-42672000D01*
X61341000Y-42672000D02*
X59944000Y-41275000D01*
X59944000Y-41275000D02*
X59944000Y-38989000D01*
X59944000Y-38989000D02*
X58801000Y-37846000D01*
X58801000Y-37846000D02*
X49530000Y-37846000D01*
X49530000Y-37846000D02*
X41783000Y-30099000D01*
X41783000Y-30099000D02*
X34544000Y-30099000D01*
X61849000Y-46482000D02*
X61341000Y-46482000D01*
X61341000Y-46482000D02*
X60579000Y-45720000D01*
X60579000Y-45720000D02*
X60579000Y-44069000D01*
X60579000Y-44069000D02*
X57150000Y-40640000D01*
X57150000Y-40640000D02*
X57150000Y-39370000D01*
X57150000Y-39370000D02*
X56134000Y-38354000D01*
X56134000Y-38354000D02*
X49149000Y-38354000D01*
X49149000Y-38354000D02*
X41783000Y-30988000D01*
X41783000Y-30988000D02*
X31750000Y-30988000D01*
X31750000Y-30988000D02*
X31115000Y-30353000D01*
X31115000Y-30353000D02*
X31115000Y-28829000D01*
X70358000Y-85725000D02*
X34544000Y-85725000D01*
X70485000Y-85725000D02*
X70358000Y-85725000D01*
X34671000Y-84074000D02*
X70485000Y-84074000D01*
X34544000Y-83947000D02*
X34671000Y-84074000D01*
X118999000Y-85852000D02*
X84455000Y-85852000D01*
X84582000Y-84074000D02*
X118999000Y-84074000D01*
X84455000Y-83947000D02*
X84582000Y-84074000D01*
D35*
X99949000Y-34016000D02*
X98087000Y-34016000D01*
X98087000Y-34016000D02*
X97366000Y-34737000D01*
D33*
X125079000Y-40021000D02*
X109045500Y-40021000D01*
X103040500Y-34016000D02*
X99949000Y-34016000D01*
X109045500Y-40021000D02*
X103040500Y-34016000D01*
X125079000Y-43453000D02*
X125079000Y-40259000D01*
X125079000Y-40259000D02*
X125079000Y-40021000D01*
X125079000Y-40021000D02*
X127235000Y-40021000D01*
X127235000Y-40021000D02*
X154702000Y-40021000D01*
X154702000Y-40021000D02*
X157861000Y-43180000D01*
X157861000Y-43180000D02*
X157861000Y-46228000D01*
D36*
X153507000Y-49546000D02*
X153507000Y-49285500D01*
D33*
X153507000Y-49546000D02*
X155956000Y-47097000D01*
X156992000Y-47097000D02*
X155956000Y-47097000D01*
D36*
X154555000Y-48498000D02*
X155956000Y-47097000D01*
X153507000Y-49285500D02*
X152719500Y-48498000D01*
D33*
X153507000Y-52705000D02*
X153507000Y-49546000D01*
X157861000Y-46228000D02*
X156992000Y-47097000D01*
D35*
X153416000Y-52614000D02*
X153507000Y-52705000D01*
D36*
X152719500Y-48498000D02*
X154555000Y-48498000D01*
D35*
X97366000Y-36637000D02*
X96581000Y-36637000D01*
X96581000Y-36637000D02*
X96266000Y-36322000D01*
X96266000Y-36322000D02*
X96266000Y-35179000D01*
X96266000Y-35179000D02*
X96708000Y-34737000D01*
X96708000Y-34737000D02*
X97366000Y-34737000D01*
D36*
X152507000Y-44196000D02*
X152507000Y-46285500D01*
X152507000Y-46285500D02*
X152719500Y-46498000D01*
D35*
X149082000Y-48498000D02*
X149082000Y-52630000D01*
X149082000Y-52630000D02*
X149007000Y-52705000D01*
D36*
X149794500Y-47998000D02*
X149106000Y-47998000D01*
X149082000Y-48498000D02*
X149794500Y-48498000D01*
X148971000Y-48387000D02*
X149082000Y-48498000D01*
X148971000Y-48133000D02*
X148971000Y-48387000D01*
X149106000Y-47998000D02*
X148971000Y-48133000D01*
X76510801Y-34507277D02*
X76413599Y-34604479D01*
X76413599Y-34604479D02*
X76413599Y-35382401D01*
X76058000Y-31369000D02*
X76228599Y-31539599D01*
X76228599Y-31539599D02*
X76228599Y-32264086D01*
X76228599Y-32264086D02*
X76510801Y-32546288D01*
X76510801Y-32546288D02*
X76510801Y-34507277D01*
X76413599Y-35382401D02*
X76168000Y-35628000D01*
X76708000Y-31369000D02*
X76708000Y-31372422D01*
X76708000Y-31372422D02*
X76878599Y-31543021D01*
X76878599Y-31543021D02*
X76878599Y-32267521D01*
X76878599Y-32267521D02*
X76968000Y-32356922D01*
X76968000Y-32356922D02*
X76968000Y-35285200D01*
X76968000Y-35285200D02*
X76968000Y-35628000D01*
X76708000Y-31369000D02*
X76708000Y-31444264D01*
X76968000Y-35234400D02*
X76968000Y-35628000D01*
G36*
X42431302Y-27665673D02*
X42252673Y-27844301D01*
X42217637Y-27928886D01*
X42162272Y-27842847D01*
X41992512Y-27726855D01*
X41791000Y-27686048D01*
X40291000Y-27686048D01*
X40102747Y-27721470D01*
X39960505Y-27813000D01*
X39116887Y-27813000D01*
X38914792Y-27812824D01*
X38541234Y-27967175D01*
X38255179Y-28252731D01*
X38100176Y-28626018D01*
X38099824Y-29030208D01*
X38254175Y-29403766D01*
X38314304Y-29464000D01*
X35345696Y-29464000D01*
X35120269Y-29238179D01*
X34746982Y-29083176D01*
X34342792Y-29082824D01*
X33969234Y-29237175D01*
X33683179Y-29522731D01*
X33528176Y-29896018D01*
X33527824Y-30300208D01*
X33549637Y-30353000D01*
X32013026Y-30353000D01*
X31750000Y-30089974D01*
X31750000Y-29630696D01*
X31975821Y-29405269D01*
X32130824Y-29031982D01*
X32131176Y-28627792D01*
X31976825Y-28254234D01*
X31691269Y-27968179D01*
X31317982Y-27813176D01*
X30913792Y-27812824D01*
X30540234Y-27967175D01*
X30254179Y-28252731D01*
X30099176Y-28626018D01*
X30098824Y-29030208D01*
X30253175Y-29403766D01*
X30480000Y-29630987D01*
X30480000Y-30353000D01*
X30528336Y-30596004D01*
X30665987Y-30802013D01*
X31300987Y-31437013D01*
X31506996Y-31574664D01*
X31750000Y-31623001D01*
X31750005Y-31623000D01*
X41519974Y-31623000D01*
X48699987Y-38803013D01*
X48905996Y-38940664D01*
X49149000Y-38989000D01*
X55870974Y-38989000D01*
X56306164Y-39424190D01*
X56272012Y-39400855D01*
X56070500Y-39360048D01*
X54927500Y-39360048D01*
X54739247Y-39395470D01*
X54700337Y-39420508D01*
X54551269Y-39271179D01*
X54177982Y-39116176D01*
X53773792Y-39115824D01*
X53400234Y-39270175D01*
X53114179Y-39555731D01*
X52959176Y-39929018D01*
X52958824Y-40333208D01*
X53113175Y-40706766D01*
X53340000Y-40933987D01*
X53340000Y-44399200D01*
X53388336Y-44642204D01*
X53525987Y-44848213D01*
X54338787Y-45661013D01*
X54493251Y-45764223D01*
X54389173Y-45868302D01*
X54292500Y-46101691D01*
X54292500Y-46259750D01*
X54451250Y-46418500D01*
X55435500Y-46418500D01*
X55435500Y-46398500D01*
X55562500Y-46398500D01*
X55562500Y-46418500D01*
X56546750Y-46418500D01*
X56705500Y-46259750D01*
X56705500Y-46101691D01*
X56608827Y-45868302D01*
X56490976Y-45750450D01*
X56547645Y-45667512D01*
X56588452Y-45466000D01*
X56588452Y-44958000D01*
X56553030Y-44769747D01*
X56441772Y-44596847D01*
X56414573Y-44578263D01*
X56431653Y-44567272D01*
X56547645Y-44397512D01*
X56588452Y-44196000D01*
X56588452Y-43688000D01*
X56553030Y-43499747D01*
X56491069Y-43403457D01*
X56608827Y-43285698D01*
X56705500Y-43052309D01*
X56705500Y-42894250D01*
X56546750Y-42735500D01*
X55562500Y-42735500D01*
X55562500Y-42755500D01*
X55435500Y-42755500D01*
X55435500Y-42735500D01*
X55415500Y-42735500D01*
X55415500Y-42608500D01*
X55435500Y-42608500D01*
X55435500Y-42588500D01*
X55562500Y-42588500D01*
X55562500Y-42608500D01*
X56546750Y-42608500D01*
X56705500Y-42449750D01*
X56705500Y-42291691D01*
X56608827Y-42058302D01*
X56490976Y-41940450D01*
X56547645Y-41857512D01*
X56588452Y-41656000D01*
X56588452Y-41148000D01*
X56553030Y-40959747D01*
X56441772Y-40786847D01*
X56414573Y-40768263D01*
X56431653Y-40757272D01*
X56515000Y-40635290D01*
X56515000Y-40640000D01*
X56563336Y-40883004D01*
X56700987Y-41089013D01*
X59944000Y-44332026D01*
X59944000Y-45720000D01*
X59992336Y-45963004D01*
X60129987Y-46169013D01*
X60774051Y-46813077D01*
X60794970Y-46924253D01*
X60856931Y-47020543D01*
X60739173Y-47138302D01*
X60642500Y-47371691D01*
X60642500Y-47529750D01*
X60801250Y-47688500D01*
X61785500Y-47688500D01*
X61785500Y-47668500D01*
X61912500Y-47668500D01*
X61912500Y-47688500D01*
X62896750Y-47688500D01*
X63055500Y-47529750D01*
X63055500Y-47371691D01*
X62958827Y-47138302D01*
X62840976Y-47020450D01*
X62897645Y-46937512D01*
X62938452Y-46736000D01*
X62938452Y-46430250D01*
X66177000Y-46430250D01*
X66177000Y-47084309D01*
X66273673Y-47317698D01*
X66452301Y-47496327D01*
X66685690Y-47593000D01*
X67214750Y-47593000D01*
X67373500Y-47434250D01*
X67373500Y-46271500D01*
X67500500Y-46271500D01*
X67500500Y-47434250D01*
X67659250Y-47593000D01*
X68188310Y-47593000D01*
X68421699Y-47496327D01*
X68600327Y-47317698D01*
X68697000Y-47084309D01*
X68697000Y-46430250D01*
X68538250Y-46271500D01*
X67500500Y-46271500D01*
X67373500Y-46271500D01*
X66335750Y-46271500D01*
X66177000Y-46430250D01*
X62938452Y-46430250D01*
X62938452Y-46228000D01*
X62903030Y-46039747D01*
X62791772Y-45866847D01*
X62764573Y-45848263D01*
X62781653Y-45837272D01*
X62800802Y-45809246D01*
X62854004Y-45798664D01*
X63060013Y-45661013D01*
X63822013Y-44899013D01*
X63911287Y-44765405D01*
X63993000Y-44781952D01*
X65293000Y-44781952D01*
X65481253Y-44746530D01*
X65654153Y-44635272D01*
X65770145Y-44465512D01*
X65794954Y-44343000D01*
X66294048Y-44343000D01*
X66294048Y-44458000D01*
X66329470Y-44646253D01*
X66440728Y-44819153D01*
X66536687Y-44884719D01*
X66452301Y-44919673D01*
X66273673Y-45098302D01*
X66177000Y-45331691D01*
X66177000Y-45985750D01*
X66335750Y-46144500D01*
X67373500Y-46144500D01*
X67373500Y-46124500D01*
X67500500Y-46124500D01*
X67500500Y-46144500D01*
X68538250Y-46144500D01*
X68697000Y-45985750D01*
X68697000Y-45331691D01*
X68600327Y-45098302D01*
X68421699Y-44919673D01*
X68337114Y-44884637D01*
X68423153Y-44829272D01*
X68539145Y-44659512D01*
X68577522Y-44470000D01*
X68888000Y-44470000D01*
X69179605Y-44411996D01*
X69426815Y-44246815D01*
X70202678Y-43470952D01*
X70575048Y-43470952D01*
X70575048Y-44928000D01*
X70610470Y-45116253D01*
X70721728Y-45289153D01*
X70733000Y-45296855D01*
X70733000Y-47863974D01*
X68511987Y-50084987D01*
X68374336Y-50290996D01*
X68326000Y-50534000D01*
X68326000Y-69466000D01*
X68374336Y-69709004D01*
X68511987Y-69915013D01*
X70262584Y-71665610D01*
X70145847Y-71740728D01*
X70029855Y-71910488D01*
X70016386Y-71977000D01*
X67399550Y-71977000D01*
X67389530Y-71923747D01*
X67278272Y-71750847D01*
X67108512Y-71634855D01*
X66907000Y-71594048D01*
X63707000Y-71594048D01*
X63518747Y-71629470D01*
X63345847Y-71740728D01*
X63229855Y-71910488D01*
X63189048Y-72112000D01*
X63189048Y-73112000D01*
X63224470Y-73300253D01*
X63335728Y-73473153D01*
X63505488Y-73589145D01*
X63707000Y-73629952D01*
X66907000Y-73629952D01*
X67095253Y-73594530D01*
X67268153Y-73483272D01*
X67384145Y-73313512D01*
X67397614Y-73247000D01*
X70014450Y-73247000D01*
X70024470Y-73300253D01*
X70135728Y-73473153D01*
X70305488Y-73589145D01*
X70507000Y-73629952D01*
X73707000Y-73629952D01*
X73895253Y-73594530D01*
X74068153Y-73483272D01*
X74184145Y-73313512D01*
X74224952Y-73112000D01*
X74224952Y-72112000D01*
X74189530Y-71923747D01*
X74078272Y-71750847D01*
X73908512Y-71634855D01*
X73707000Y-71594048D01*
X71987074Y-71594048D01*
X69596000Y-69202974D01*
X69596000Y-68834250D01*
X69872000Y-68834250D01*
X69872000Y-69238310D01*
X69968673Y-69471699D01*
X70147302Y-69650327D01*
X70380691Y-69747000D01*
X71884750Y-69747000D01*
X72043500Y-69588250D01*
X72043500Y-68675500D01*
X72170500Y-68675500D01*
X72170500Y-69588250D01*
X72329250Y-69747000D01*
X73833309Y-69747000D01*
X74066698Y-69650327D01*
X74245327Y-69471699D01*
X74320485Y-69290250D01*
X99959000Y-69290250D01*
X99959000Y-69944309D01*
X100055673Y-70177698D01*
X100234301Y-70356327D01*
X100467690Y-70453000D01*
X100996750Y-70453000D01*
X101155500Y-70294250D01*
X101155500Y-69131500D01*
X101282500Y-69131500D01*
X101282500Y-70294250D01*
X101441250Y-70453000D01*
X101970310Y-70453000D01*
X102203699Y-70356327D01*
X102382327Y-70177698D01*
X102479000Y-69944309D01*
X102479000Y-69290250D01*
X102320250Y-69131500D01*
X101282500Y-69131500D01*
X101155500Y-69131500D01*
X100117750Y-69131500D01*
X99959000Y-69290250D01*
X74320485Y-69290250D01*
X74342000Y-69238310D01*
X74342000Y-68834250D01*
X74183250Y-68675500D01*
X72170500Y-68675500D01*
X72043500Y-68675500D01*
X70030750Y-68675500D01*
X69872000Y-68834250D01*
X69596000Y-68834250D01*
X69596000Y-67985690D01*
X69872000Y-67985690D01*
X69872000Y-68389750D01*
X70030750Y-68548500D01*
X72043500Y-68548500D01*
X72043500Y-67635750D01*
X72170500Y-67635750D01*
X72170500Y-68548500D01*
X74183250Y-68548500D01*
X74342000Y-68389750D01*
X74342000Y-67985690D01*
X74245327Y-67752301D01*
X74066698Y-67573673D01*
X73833309Y-67477000D01*
X72329250Y-67477000D01*
X72170500Y-67635750D01*
X72043500Y-67635750D01*
X71884750Y-67477000D01*
X70380691Y-67477000D01*
X70147302Y-67573673D01*
X69968673Y-67752301D01*
X69872000Y-67985690D01*
X69596000Y-67985690D01*
X69596000Y-62744026D01*
X70262584Y-63410610D01*
X70145847Y-63485728D01*
X70029855Y-63655488D01*
X69989048Y-63857000D01*
X69989048Y-64857000D01*
X70024470Y-65045253D01*
X70135728Y-65218153D01*
X70305488Y-65334145D01*
X70507000Y-65374952D01*
X73707000Y-65374952D01*
X73895253Y-65339530D01*
X74068153Y-65228272D01*
X74184145Y-65058512D01*
X74224952Y-64857000D01*
X74224952Y-63857000D01*
X74189530Y-63668747D01*
X74078272Y-63495847D01*
X73908512Y-63379855D01*
X73707000Y-63339048D01*
X73092002Y-63339048D01*
X73151824Y-63194982D01*
X73152176Y-62790792D01*
X72997825Y-62417234D01*
X72712269Y-62131179D01*
X72338982Y-61976176D01*
X71934792Y-61975824D01*
X71561234Y-62130175D01*
X71275179Y-62415731D01*
X71213147Y-62565121D01*
X70104000Y-61455974D01*
X70104000Y-61352025D01*
X70147302Y-61395327D01*
X70380691Y-61492000D01*
X71884750Y-61492000D01*
X72043500Y-61333250D01*
X72043500Y-60420500D01*
X72170500Y-60420500D01*
X72170500Y-61333250D01*
X72329250Y-61492000D01*
X73833309Y-61492000D01*
X74066698Y-61395327D01*
X74245327Y-61216699D01*
X74342000Y-60983310D01*
X74342000Y-60579250D01*
X74183250Y-60420500D01*
X72170500Y-60420500D01*
X72043500Y-60420500D01*
X72023500Y-60420500D01*
X72023500Y-60293500D01*
X72043500Y-60293500D01*
X72043500Y-59380750D01*
X72170500Y-59380750D01*
X72170500Y-60293500D01*
X74183250Y-60293500D01*
X74342000Y-60134750D01*
X74342000Y-59730690D01*
X74245327Y-59497301D01*
X74066698Y-59318673D01*
X73833309Y-59222000D01*
X72329250Y-59222000D01*
X72170500Y-59380750D01*
X72043500Y-59380750D01*
X71884750Y-59222000D01*
X70380691Y-59222000D01*
X70147302Y-59318673D01*
X70104000Y-59361975D01*
X70104000Y-56786846D01*
X70135728Y-56836153D01*
X70305488Y-56952145D01*
X70507000Y-56992952D01*
X73707000Y-56992952D01*
X73895253Y-56957530D01*
X74068153Y-56846272D01*
X74184145Y-56676512D01*
X74224952Y-56475000D01*
X74224952Y-55475000D01*
X74189530Y-55286747D01*
X74078272Y-55113847D01*
X73908512Y-54997855D01*
X73707000Y-54957048D01*
X73039267Y-54957048D01*
X73151824Y-54685982D01*
X73152176Y-54281792D01*
X72997825Y-53908234D01*
X72712269Y-53622179D01*
X72338982Y-53467176D01*
X71934792Y-53466824D01*
X71561234Y-53621175D01*
X71275179Y-53906731D01*
X71175884Y-54145858D01*
X70612000Y-53581974D01*
X70612000Y-53110000D01*
X71884750Y-53110000D01*
X72043500Y-52951250D01*
X72043500Y-52038500D01*
X72170500Y-52038500D01*
X72170500Y-52951250D01*
X72329250Y-53110000D01*
X73833309Y-53110000D01*
X74066698Y-53013327D01*
X74245327Y-52834699D01*
X74342000Y-52601310D01*
X74342000Y-52226250D01*
X75317000Y-52226250D01*
X75317000Y-52730309D01*
X75413673Y-52963698D01*
X75592301Y-53142327D01*
X75825690Y-53239000D01*
X76104750Y-53239000D01*
X76263500Y-53080250D01*
X76263500Y-52067500D01*
X76390500Y-52067500D01*
X76390500Y-53080250D01*
X76549250Y-53239000D01*
X76828310Y-53239000D01*
X77061699Y-53142327D01*
X77240327Y-52963698D01*
X77337000Y-52730309D01*
X77337000Y-52226250D01*
X77857000Y-52226250D01*
X77857000Y-52730309D01*
X77953673Y-52963698D01*
X78132301Y-53142327D01*
X78365690Y-53239000D01*
X78644750Y-53239000D01*
X78803500Y-53080250D01*
X78803500Y-52067500D01*
X78930500Y-52067500D01*
X78930500Y-53080250D01*
X79089250Y-53239000D01*
X79368310Y-53239000D01*
X79601699Y-53142327D01*
X79780327Y-52963698D01*
X79877000Y-52730309D01*
X79877000Y-52226250D01*
X79718250Y-52067500D01*
X78930500Y-52067500D01*
X78803500Y-52067500D01*
X78015750Y-52067500D01*
X77857000Y-52226250D01*
X77337000Y-52226250D01*
X77178250Y-52067500D01*
X76390500Y-52067500D01*
X76263500Y-52067500D01*
X75475750Y-52067500D01*
X75317000Y-52226250D01*
X74342000Y-52226250D01*
X74342000Y-52197250D01*
X74183250Y-52038500D01*
X72170500Y-52038500D01*
X72043500Y-52038500D01*
X72023500Y-52038500D01*
X72023500Y-51911500D01*
X72043500Y-51911500D01*
X72043500Y-50998750D01*
X72170500Y-50998750D01*
X72170500Y-51911500D01*
X74183250Y-51911500D01*
X74342000Y-51752750D01*
X74342000Y-51348690D01*
X74245327Y-51115301D01*
X74066698Y-50936673D01*
X73833309Y-50840000D01*
X72329250Y-50840000D01*
X72170500Y-50998750D01*
X72043500Y-50998750D01*
X71884750Y-50840000D01*
X71216026Y-50840000D01*
X73417013Y-48639013D01*
X73554664Y-48433004D01*
X73603000Y-48190000D01*
X73603000Y-45445952D01*
X74043000Y-45445952D01*
X74172589Y-45421568D01*
X74293000Y-45445952D01*
X74843000Y-45445952D01*
X74972589Y-45421568D01*
X75093000Y-45445952D01*
X75533000Y-45445952D01*
X75533000Y-46187153D01*
X75433355Y-46332988D01*
X75392548Y-46534500D01*
X75392548Y-48334500D01*
X75427970Y-48522753D01*
X75539228Y-48695653D01*
X75708988Y-48811645D01*
X75755500Y-48821064D01*
X75755500Y-49026777D01*
X75590847Y-49132728D01*
X75474855Y-49302488D01*
X75434048Y-49504000D01*
X75434048Y-50704000D01*
X75469470Y-50892253D01*
X75507156Y-50950819D01*
X75413673Y-51044302D01*
X75317000Y-51277691D01*
X75317000Y-51781750D01*
X75475750Y-51940500D01*
X76263500Y-51940500D01*
X76263500Y-51920500D01*
X76390500Y-51920500D01*
X76390500Y-51940500D01*
X77178250Y-51940500D01*
X77337000Y-51781750D01*
X77337000Y-51277691D01*
X77240327Y-51044302D01*
X77147643Y-50951617D01*
X77179145Y-50905512D01*
X77219952Y-50704000D01*
X77219952Y-49504000D01*
X77184530Y-49315747D01*
X77073272Y-49142847D01*
X77025500Y-49110206D01*
X77025500Y-48830813D01*
X77098753Y-48817030D01*
X77271653Y-48705772D01*
X77387645Y-48536012D01*
X77428452Y-48334500D01*
X77428452Y-46850478D01*
X77892548Y-47314574D01*
X77892548Y-48334500D01*
X77927970Y-48522753D01*
X78039228Y-48695653D01*
X78208988Y-48811645D01*
X78295500Y-48829164D01*
X78295500Y-49026777D01*
X78130847Y-49132728D01*
X78014855Y-49302488D01*
X77974048Y-49504000D01*
X77974048Y-50704000D01*
X78009470Y-50892253D01*
X78047156Y-50950819D01*
X77953673Y-51044302D01*
X77857000Y-51277691D01*
X77857000Y-51781750D01*
X78015750Y-51940500D01*
X78803500Y-51940500D01*
X78803500Y-51920500D01*
X78930500Y-51920500D01*
X78930500Y-51940500D01*
X79718250Y-51940500D01*
X79877000Y-51781750D01*
X79877000Y-51277691D01*
X79780327Y-51044302D01*
X79687643Y-50951617D01*
X79719145Y-50905512D01*
X79759952Y-50704000D01*
X79759952Y-49504000D01*
X79724530Y-49315747D01*
X79613272Y-49142847D01*
X79565500Y-49110206D01*
X79565500Y-48823287D01*
X79598753Y-48817030D01*
X79771653Y-48705772D01*
X79887645Y-48536012D01*
X79928452Y-48334500D01*
X79928452Y-46534500D01*
X79893030Y-46346247D01*
X79781772Y-46173347D01*
X79612012Y-46057355D01*
X79410500Y-46016548D01*
X78410500Y-46016548D01*
X78393730Y-46019704D01*
X77632220Y-45258194D01*
X77720145Y-45129512D01*
X77760952Y-44928000D01*
X77760952Y-43470952D01*
X79218000Y-43470952D01*
X79406253Y-43435530D01*
X79579153Y-43324272D01*
X79586855Y-43313000D01*
X84934574Y-43313000D01*
X85725000Y-44103426D01*
X85725000Y-46732048D01*
X83464000Y-46732048D01*
X83275747Y-46767470D01*
X83102847Y-46878728D01*
X82986855Y-47048488D01*
X82946048Y-47250000D01*
X82946048Y-48000000D01*
X82981470Y-48188253D01*
X83027240Y-48259382D01*
X82986855Y-48318488D01*
X82946048Y-48520000D01*
X82946048Y-49270000D01*
X82981470Y-49458253D01*
X83027240Y-49529382D01*
X82986855Y-49588488D01*
X82946048Y-49790000D01*
X82946048Y-50540000D01*
X82981470Y-50728253D01*
X83027240Y-50799382D01*
X82986855Y-50858488D01*
X82946048Y-51060000D01*
X82946048Y-51810000D01*
X82981470Y-51998253D01*
X83027240Y-52069382D01*
X83026818Y-52070000D01*
X82208696Y-52070000D01*
X81983269Y-51844179D01*
X81609982Y-51689176D01*
X81205792Y-51688824D01*
X80832234Y-51843175D01*
X80546179Y-52128731D01*
X80391176Y-52502018D01*
X80390824Y-52906208D01*
X80545175Y-53279766D01*
X80772000Y-53506987D01*
X80772000Y-54700742D01*
X80723847Y-54731728D01*
X80607855Y-54901488D01*
X80567048Y-55103000D01*
X80567048Y-56403000D01*
X80602470Y-56591253D01*
X80713728Y-56764153D01*
X80814038Y-56832692D01*
X80723847Y-56890728D01*
X80607855Y-57060488D01*
X80567048Y-57262000D01*
X80567048Y-58562000D01*
X80602470Y-58750253D01*
X80713728Y-58923153D01*
X80883488Y-59039145D01*
X81008248Y-59064409D01*
X80869747Y-59090470D01*
X80696847Y-59201728D01*
X80580855Y-59371488D01*
X80540048Y-59573000D01*
X80540048Y-60823000D01*
X80575470Y-61011253D01*
X80686728Y-61184153D01*
X80856488Y-61300145D01*
X81058000Y-61340952D01*
X82558000Y-61340952D01*
X82746253Y-61305530D01*
X82919153Y-61194272D01*
X82984719Y-61098313D01*
X83019673Y-61182699D01*
X83198302Y-61361327D01*
X83431691Y-61458000D01*
X84085750Y-61458000D01*
X84244500Y-61299250D01*
X84244500Y-60261500D01*
X84371500Y-60261500D01*
X84371500Y-61299250D01*
X84530250Y-61458000D01*
X85184309Y-61458000D01*
X85417698Y-61361327D01*
X85596327Y-61182699D01*
X85693000Y-60949310D01*
X85693000Y-60420250D01*
X85534250Y-60261500D01*
X84371500Y-60261500D01*
X84244500Y-60261500D01*
X84224500Y-60261500D01*
X84224500Y-60134500D01*
X84244500Y-60134500D01*
X84244500Y-60114500D01*
X84371500Y-60114500D01*
X84371500Y-60134500D01*
X85534250Y-60134500D01*
X85693000Y-59975750D01*
X85693000Y-59446690D01*
X85596327Y-59213301D01*
X85434792Y-59051767D01*
X85473253Y-59044530D01*
X85646153Y-58933272D01*
X85762145Y-58763512D01*
X85802952Y-58562000D01*
X85802952Y-58547000D01*
X88519000Y-58547000D01*
X88762004Y-58498664D01*
X88968013Y-58361013D01*
X89088818Y-58240208D01*
X93090824Y-58240208D01*
X93245175Y-58613766D01*
X93530731Y-58899821D01*
X93904018Y-59054824D01*
X94308208Y-59055176D01*
X94308634Y-59055000D01*
X96520000Y-59055000D01*
X96844300Y-58990493D01*
X96908807Y-58977662D01*
X97238420Y-58757420D01*
X98972841Y-57023000D01*
X99441000Y-57023000D01*
X99441000Y-64008000D01*
X99576342Y-64688411D01*
X99961764Y-65265236D01*
X100203000Y-65426425D01*
X100203000Y-65490411D01*
X100116855Y-65616488D01*
X100076048Y-65818000D01*
X100076048Y-67318000D01*
X100111470Y-67506253D01*
X100222728Y-67679153D01*
X100318687Y-67744719D01*
X100234301Y-67779673D01*
X100055673Y-67958302D01*
X99959000Y-68191691D01*
X99959000Y-68845750D01*
X100117750Y-69004500D01*
X101155500Y-69004500D01*
X101155500Y-68984500D01*
X101282500Y-68984500D01*
X101282500Y-69004500D01*
X102320250Y-69004500D01*
X102479000Y-68845750D01*
X102479000Y-68191691D01*
X102382327Y-67958302D01*
X102203699Y-67779673D01*
X102119114Y-67744637D01*
X102205153Y-67689272D01*
X102321145Y-67519512D01*
X102361952Y-67318000D01*
X102361952Y-65818000D01*
X102326530Y-65629747D01*
X102235000Y-65487505D01*
X102235000Y-65426425D01*
X102476236Y-65265236D01*
X102861658Y-64688411D01*
X102997000Y-64008000D01*
X102997000Y-59348841D01*
X103290841Y-59055000D01*
X104012113Y-59055000D01*
X104214208Y-59055176D01*
X104401806Y-58977662D01*
X104401807Y-58977662D01*
X104401808Y-58977661D01*
X104587766Y-58900825D01*
X104873821Y-58615269D01*
X104873998Y-58614842D01*
X105120590Y-58368250D01*
X108976000Y-58368250D01*
X108976000Y-59022309D01*
X109072673Y-59255698D01*
X109251301Y-59434327D01*
X109484690Y-59531000D01*
X110013750Y-59531000D01*
X110172500Y-59372250D01*
X110172500Y-58209500D01*
X110299500Y-58209500D01*
X110299500Y-59372250D01*
X110458250Y-59531000D01*
X110987310Y-59531000D01*
X111220699Y-59434327D01*
X111399327Y-59255698D01*
X111496000Y-59022309D01*
X111496000Y-58368250D01*
X111337250Y-58209500D01*
X110299500Y-58209500D01*
X110172500Y-58209500D01*
X109134750Y-58209500D01*
X108976000Y-58368250D01*
X105120590Y-58368250D01*
X106465841Y-57023000D01*
X108330113Y-57023000D01*
X108532208Y-57023176D01*
X108719806Y-56945662D01*
X108719807Y-56945662D01*
X108719808Y-56945661D01*
X108905766Y-56868825D01*
X109112952Y-56662000D01*
X109178499Y-56662000D01*
X109239728Y-56757153D01*
X109335687Y-56822719D01*
X109251301Y-56857673D01*
X109072673Y-57036302D01*
X108976000Y-57269691D01*
X108976000Y-57923750D01*
X109134750Y-58082500D01*
X110172500Y-58082500D01*
X110172500Y-58062500D01*
X110299500Y-58062500D01*
X110299500Y-58082500D01*
X111337250Y-58082500D01*
X111496000Y-57923750D01*
X111496000Y-57269691D01*
X111399327Y-57036302D01*
X111220699Y-56857673D01*
X111136114Y-56822637D01*
X111222153Y-56767272D01*
X111338145Y-56597512D01*
X111378952Y-56396000D01*
X111378952Y-54896000D01*
X111343530Y-54707747D01*
X111232272Y-54534847D01*
X111062512Y-54418855D01*
X110861000Y-54378048D01*
X109611000Y-54378048D01*
X109422747Y-54413470D01*
X109249847Y-54524728D01*
X109177918Y-54630000D01*
X108692000Y-54630000D01*
X108367796Y-54694488D01*
X108303193Y-54707338D01*
X107973579Y-54927580D01*
X107910159Y-54991000D01*
X106045000Y-54991000D01*
X105720700Y-55055507D01*
X105656193Y-55068338D01*
X105326580Y-55288579D01*
X103592160Y-57023000D01*
X102997000Y-57023000D01*
X102997000Y-49911000D01*
X102861658Y-49230589D01*
X102476236Y-48653764D01*
X101899411Y-48268342D01*
X101219000Y-48133000D01*
X100538589Y-48268342D01*
X99961764Y-48653764D01*
X99576342Y-49230589D01*
X99441000Y-49911000D01*
X99441000Y-54824160D01*
X99274160Y-54991000D01*
X98552887Y-54991000D01*
X98350792Y-54990824D01*
X98163194Y-55068338D01*
X98163193Y-55068338D01*
X98163192Y-55068339D01*
X97977234Y-55145175D01*
X97691179Y-55430731D01*
X97691002Y-55431157D01*
X96099160Y-57023000D01*
X94107887Y-57023000D01*
X93905792Y-57022824D01*
X93532234Y-57177175D01*
X93246179Y-57462731D01*
X93091176Y-57836018D01*
X93090824Y-58240208D01*
X89088818Y-58240208D01*
X98268013Y-49061013D01*
X98405664Y-48855004D01*
X98454000Y-48612000D01*
X98454000Y-47303000D01*
X119361048Y-47303000D01*
X119361048Y-50703000D01*
X119396470Y-50891253D01*
X119507728Y-51064153D01*
X119677488Y-51180145D01*
X119879000Y-51220952D01*
X121479000Y-51220952D01*
X121667253Y-51185530D01*
X121840153Y-51074272D01*
X121956145Y-50904512D01*
X121996952Y-50703000D01*
X121996952Y-47303000D01*
X126161048Y-47303000D01*
X126161048Y-50703000D01*
X126196470Y-50891253D01*
X126307728Y-51064153D01*
X126477488Y-51180145D01*
X126679000Y-51220952D01*
X128279000Y-51220952D01*
X128467253Y-51185530D01*
X128640153Y-51074272D01*
X128756145Y-50904512D01*
X128796952Y-50703000D01*
X128796952Y-47303000D01*
X128761530Y-47114747D01*
X128650272Y-46941847D01*
X128480512Y-46825855D01*
X128279000Y-46785048D01*
X126679000Y-46785048D01*
X126490747Y-46820470D01*
X126317847Y-46931728D01*
X126201855Y-47101488D01*
X126161048Y-47303000D01*
X121996952Y-47303000D01*
X121961530Y-47114747D01*
X121850272Y-46941847D01*
X121680512Y-46825855D01*
X121479000Y-46785048D01*
X119879000Y-46785048D01*
X119690747Y-46820470D01*
X119517847Y-46931728D01*
X119401855Y-47101488D01*
X119361048Y-47303000D01*
X98454000Y-47303000D01*
X98454000Y-47086952D01*
X99419000Y-47086952D01*
X99607253Y-47051530D01*
X99780153Y-46940272D01*
X99896145Y-46770512D01*
X99909614Y-46704000D01*
X102526450Y-46704000D01*
X102536470Y-46757253D01*
X102647728Y-46930153D01*
X102817488Y-47046145D01*
X103019000Y-47086952D01*
X106219000Y-47086952D01*
X106407253Y-47051530D01*
X106580153Y-46940272D01*
X106696145Y-46770512D01*
X106736952Y-46569000D01*
X106736952Y-45569000D01*
X106701530Y-45380747D01*
X106590272Y-45207847D01*
X106420512Y-45091855D01*
X106219000Y-45051048D01*
X103019000Y-45051048D01*
X102830747Y-45086470D01*
X102657847Y-45197728D01*
X102541855Y-45367488D01*
X102528386Y-45434000D01*
X99911550Y-45434000D01*
X99901530Y-45380747D01*
X99790272Y-45207847D01*
X99620512Y-45091855D01*
X99419000Y-45051048D01*
X96219000Y-45051048D01*
X96030747Y-45086470D01*
X95857847Y-45197728D01*
X95741855Y-45367488D01*
X95701048Y-45569000D01*
X95701048Y-46569000D01*
X95736470Y-46757253D01*
X95847728Y-46930153D01*
X96017488Y-47046145D01*
X96219000Y-47086952D01*
X97184000Y-47086952D01*
X97184000Y-48348974D01*
X88255974Y-57277000D01*
X85802952Y-57277000D01*
X85802952Y-57262000D01*
X85767530Y-57073747D01*
X85656272Y-56900847D01*
X85555962Y-56832308D01*
X85646153Y-56774272D01*
X85762145Y-56604512D01*
X85802952Y-56403000D01*
X85802952Y-55383074D01*
X87190013Y-53996013D01*
X87327664Y-53790004D01*
X87365865Y-53597952D01*
X89764000Y-53597952D01*
X89952253Y-53562530D01*
X90125153Y-53451272D01*
X90241145Y-53281512D01*
X90281952Y-53080000D01*
X90281952Y-52330000D01*
X90246530Y-52141747D01*
X90200760Y-52070618D01*
X90241145Y-52011512D01*
X90281952Y-51810000D01*
X90281952Y-51060000D01*
X90259793Y-50942233D01*
X90302327Y-50899699D01*
X90399000Y-50666310D01*
X90399000Y-50387250D01*
X90240250Y-50228500D01*
X88627500Y-50228500D01*
X88627500Y-50248500D01*
X88500500Y-50248500D01*
X88500500Y-50228500D01*
X88480500Y-50228500D01*
X88480500Y-50101500D01*
X88500500Y-50101500D01*
X88500500Y-48958500D01*
X88627500Y-48958500D01*
X88627500Y-50101500D01*
X90240250Y-50101500D01*
X90399000Y-49942750D01*
X90399000Y-49663690D01*
X90343624Y-49530000D01*
X90399000Y-49396310D01*
X90399000Y-49117250D01*
X90240250Y-48958500D01*
X88627500Y-48958500D01*
X88500500Y-48958500D01*
X88480500Y-48958500D01*
X88480500Y-48831500D01*
X88500500Y-48831500D01*
X88500500Y-48811500D01*
X88627500Y-48811500D01*
X88627500Y-48831500D01*
X90240250Y-48831500D01*
X90399000Y-48672750D01*
X90399000Y-48393690D01*
X90302327Y-48160301D01*
X90258388Y-48116362D01*
X90281952Y-48000000D01*
X90281952Y-47250000D01*
X90246530Y-47061747D01*
X90135272Y-46888847D01*
X89965512Y-46772855D01*
X89764000Y-46732048D01*
X89326000Y-46732048D01*
X89326000Y-44375000D01*
X89267996Y-44083395D01*
X89102815Y-43836185D01*
X88941880Y-43675250D01*
X121944000Y-43675250D01*
X121944000Y-45329310D01*
X122040673Y-45562699D01*
X122219302Y-45741327D01*
X122452691Y-45838000D01*
X122856750Y-45838000D01*
X123015500Y-45679250D01*
X123015500Y-43516500D01*
X122102750Y-43516500D01*
X121944000Y-43675250D01*
X88941880Y-43675250D01*
X86392582Y-41125952D01*
X87112000Y-41125952D01*
X87300253Y-41090530D01*
X87473153Y-40979272D01*
X87589145Y-40809512D01*
X87601804Y-40747000D01*
X89856370Y-40747000D01*
X89940165Y-40830795D01*
X89939652Y-41418664D01*
X90244708Y-42156955D01*
X90809074Y-42722307D01*
X91546832Y-43028651D01*
X92345664Y-43029348D01*
X93083955Y-42724292D01*
X93517753Y-42291250D01*
X95584000Y-42291250D01*
X95584000Y-42695310D01*
X95680673Y-42928699D01*
X95859302Y-43107327D01*
X96092691Y-43204000D01*
X97596750Y-43204000D01*
X97755500Y-43045250D01*
X97755500Y-42132500D01*
X97882500Y-42132500D01*
X97882500Y-43045250D01*
X98041250Y-43204000D01*
X99545309Y-43204000D01*
X99778698Y-43107327D01*
X99957327Y-42928699D01*
X100054000Y-42695310D01*
X100054000Y-42291250D01*
X102384000Y-42291250D01*
X102384000Y-42695310D01*
X102480673Y-42928699D01*
X102659302Y-43107327D01*
X102892691Y-43204000D01*
X104396750Y-43204000D01*
X104555500Y-43045250D01*
X104555500Y-42132500D01*
X104682500Y-42132500D01*
X104682500Y-43045250D01*
X104841250Y-43204000D01*
X106345309Y-43204000D01*
X106578698Y-43107327D01*
X106757327Y-42928699D01*
X106854000Y-42695310D01*
X106854000Y-42291250D01*
X106695250Y-42132500D01*
X104682500Y-42132500D01*
X104555500Y-42132500D01*
X102542750Y-42132500D01*
X102384000Y-42291250D01*
X100054000Y-42291250D01*
X99895250Y-42132500D01*
X97882500Y-42132500D01*
X97755500Y-42132500D01*
X95742750Y-42132500D01*
X95584000Y-42291250D01*
X93517753Y-42291250D01*
X93649307Y-42159926D01*
X93947129Y-41442690D01*
X95584000Y-41442690D01*
X95584000Y-41846750D01*
X95742750Y-42005500D01*
X97755500Y-42005500D01*
X97755500Y-41092750D01*
X97882500Y-41092750D01*
X97882500Y-42005500D01*
X99895250Y-42005500D01*
X100054000Y-41846750D01*
X100054000Y-41442690D01*
X102384000Y-41442690D01*
X102384000Y-41846750D01*
X102542750Y-42005500D01*
X104555500Y-42005500D01*
X104555500Y-41092750D01*
X104682500Y-41092750D01*
X104682500Y-42005500D01*
X106695250Y-42005500D01*
X106854000Y-41846750D01*
X106854000Y-41576690D01*
X121944000Y-41576690D01*
X121944000Y-43230750D01*
X122102750Y-43389500D01*
X123015500Y-43389500D01*
X123015500Y-41226750D01*
X122856750Y-41068000D01*
X122452691Y-41068000D01*
X122219302Y-41164673D01*
X122040673Y-41343301D01*
X121944000Y-41576690D01*
X106854000Y-41576690D01*
X106854000Y-41442690D01*
X106757327Y-41209301D01*
X106578698Y-41030673D01*
X106345309Y-40934000D01*
X104841250Y-40934000D01*
X104682500Y-41092750D01*
X104555500Y-41092750D01*
X104396750Y-40934000D01*
X102892691Y-40934000D01*
X102659302Y-41030673D01*
X102480673Y-41209301D01*
X102384000Y-41442690D01*
X100054000Y-41442690D01*
X99957327Y-41209301D01*
X99778698Y-41030673D01*
X99545309Y-40934000D01*
X98041250Y-40934000D01*
X97882500Y-41092750D01*
X97755500Y-41092750D01*
X97596750Y-40934000D01*
X96092691Y-40934000D01*
X95859302Y-41030673D01*
X95680673Y-41209301D01*
X95584000Y-41442690D01*
X93947129Y-41442690D01*
X93955651Y-41422168D01*
X93956348Y-40623336D01*
X93651292Y-39885045D01*
X93599000Y-39832662D01*
X93599000Y-37561236D01*
X94130747Y-37029489D01*
X94153470Y-37150253D01*
X94264728Y-37323153D01*
X94277000Y-37331538D01*
X94277000Y-37592048D01*
X94266000Y-37592048D01*
X94077747Y-37627470D01*
X93904847Y-37738728D01*
X93788855Y-37908488D01*
X93748048Y-38110000D01*
X93748048Y-39360000D01*
X93783470Y-39548253D01*
X93894728Y-39721153D01*
X94064488Y-39837145D01*
X94266000Y-39877952D01*
X95766000Y-39877952D01*
X95954253Y-39842530D01*
X96127153Y-39731272D01*
X96192719Y-39635313D01*
X96227673Y-39719699D01*
X96406302Y-39898327D01*
X96639691Y-39995000D01*
X97293750Y-39995000D01*
X97452500Y-39836250D01*
X97452500Y-38798500D01*
X97579500Y-38798500D01*
X97579500Y-39836250D01*
X97738250Y-39995000D01*
X98392309Y-39995000D01*
X98625698Y-39898327D01*
X98804327Y-39719699D01*
X98901000Y-39486310D01*
X98901000Y-38957250D01*
X98742250Y-38798500D01*
X97579500Y-38798500D01*
X97452500Y-38798500D01*
X97432500Y-38798500D01*
X97432500Y-38671500D01*
X97452500Y-38671500D01*
X97452500Y-38651500D01*
X97579500Y-38651500D01*
X97579500Y-38671500D01*
X98742250Y-38671500D01*
X98901000Y-38512750D01*
X98901000Y-37983690D01*
X98804327Y-37750301D01*
X98625698Y-37571673D01*
X98392309Y-37475000D01*
X97922318Y-37475000D01*
X98084253Y-37444530D01*
X98257153Y-37333272D01*
X98373145Y-37163512D01*
X98413952Y-36962000D01*
X98413952Y-36392074D01*
X98434327Y-36371699D01*
X98531000Y-36138310D01*
X98531000Y-35909250D01*
X98372250Y-35750500D01*
X97429500Y-35750500D01*
X97429500Y-35770500D01*
X97302500Y-35770500D01*
X97302500Y-35750500D01*
X97282500Y-35750500D01*
X97282500Y-35623500D01*
X97302500Y-35623500D01*
X97302500Y-35603500D01*
X97429500Y-35603500D01*
X97429500Y-35623500D01*
X98372250Y-35623500D01*
X98531000Y-35464750D01*
X98531000Y-35235690D01*
X98434327Y-35002301D01*
X98413952Y-34981926D01*
X98413952Y-34778000D01*
X98808306Y-34778000D01*
X98841470Y-34954253D01*
X98952728Y-35127153D01*
X99122488Y-35243145D01*
X99324000Y-35283952D01*
X100574000Y-35283952D01*
X100762253Y-35248530D01*
X100935153Y-35137272D01*
X101007082Y-35032000D01*
X102619660Y-35032000D01*
X108327079Y-40739420D01*
X108456636Y-40825987D01*
X108656694Y-40959662D01*
X109045500Y-41037000D01*
X124063000Y-41037000D01*
X124063000Y-41288974D01*
X123938698Y-41164673D01*
X123705309Y-41068000D01*
X123301250Y-41068000D01*
X123142500Y-41226750D01*
X123142500Y-43389500D01*
X123162500Y-43389500D01*
X123162500Y-43516500D01*
X123142500Y-43516500D01*
X123142500Y-45679250D01*
X123301250Y-45838000D01*
X123705309Y-45838000D01*
X123938698Y-45741327D01*
X124117327Y-45562699D01*
X124152363Y-45478114D01*
X124207728Y-45564153D01*
X124377488Y-45680145D01*
X124579000Y-45720952D01*
X125579000Y-45720952D01*
X125767253Y-45685530D01*
X125940153Y-45574272D01*
X126056145Y-45404512D01*
X126096952Y-45203000D01*
X126096952Y-43085691D01*
X142250000Y-43085691D01*
X142250000Y-43739750D01*
X142408750Y-43898500D01*
X143446500Y-43898500D01*
X143446500Y-42735750D01*
X143573500Y-42735750D01*
X143573500Y-43898500D01*
X145478500Y-43898500D01*
X145478500Y-42735750D01*
X145605500Y-42735750D01*
X145605500Y-43898500D01*
X147510500Y-43898500D01*
X147510500Y-42735750D01*
X147351750Y-42577000D01*
X146822690Y-42577000D01*
X146589301Y-42673673D01*
X146558000Y-42704974D01*
X146526699Y-42673673D01*
X146293310Y-42577000D01*
X145764250Y-42577000D01*
X145605500Y-42735750D01*
X145478500Y-42735750D01*
X145319750Y-42577000D01*
X144790690Y-42577000D01*
X144557301Y-42673673D01*
X144526000Y-42704974D01*
X144494699Y-42673673D01*
X144261310Y-42577000D01*
X143732250Y-42577000D01*
X143573500Y-42735750D01*
X143446500Y-42735750D01*
X143287750Y-42577000D01*
X142758690Y-42577000D01*
X142525301Y-42673673D01*
X142346673Y-42852302D01*
X142250000Y-43085691D01*
X126096952Y-43085691D01*
X126096952Y-41703000D01*
X126095000Y-41692626D01*
X126095000Y-41037000D01*
X148522000Y-41037000D01*
X148522000Y-41560750D01*
X148680750Y-41719500D01*
X149843500Y-41719500D01*
X149843500Y-41699500D01*
X149970500Y-41699500D01*
X149970500Y-41719500D01*
X151133250Y-41719500D01*
X151292000Y-41560750D01*
X151292000Y-41037000D01*
X151358488Y-41037000D01*
X151339048Y-41133000D01*
X151339048Y-42433000D01*
X151374470Y-42621253D01*
X151485728Y-42794153D01*
X151655488Y-42910145D01*
X151857000Y-42950952D01*
X152876926Y-42950952D01*
X152979022Y-43053048D01*
X151757000Y-43053048D01*
X151568747Y-43088470D01*
X151395847Y-43199728D01*
X151330281Y-43295687D01*
X151295327Y-43211301D01*
X151116698Y-43032673D01*
X150992647Y-42981289D01*
X151016698Y-42971327D01*
X151195327Y-42792699D01*
X151292000Y-42559310D01*
X151292000Y-42005250D01*
X151133250Y-41846500D01*
X149970500Y-41846500D01*
X149970500Y-41866500D01*
X149843500Y-41866500D01*
X149843500Y-41846500D01*
X148680750Y-41846500D01*
X148522000Y-42005250D01*
X148522000Y-42559310D01*
X148576917Y-42691891D01*
X148558699Y-42673673D01*
X148325310Y-42577000D01*
X147796250Y-42577000D01*
X147637500Y-42735750D01*
X147637500Y-43898500D01*
X147657500Y-43898500D01*
X147657500Y-44025500D01*
X147637500Y-44025500D01*
X147637500Y-44045500D01*
X147510500Y-44045500D01*
X147510500Y-44025500D01*
X145605500Y-44025500D01*
X145605500Y-44045500D01*
X145478500Y-44045500D01*
X145478500Y-44025500D01*
X143573500Y-44025500D01*
X143573500Y-44045500D01*
X143446500Y-44045500D01*
X143446500Y-44025500D01*
X142408750Y-44025500D01*
X142250000Y-44184250D01*
X142250000Y-44838309D01*
X142346673Y-45071698D01*
X142525301Y-45250327D01*
X142609886Y-45285363D01*
X142523847Y-45340728D01*
X142407855Y-45510488D01*
X142367048Y-45712000D01*
X142367048Y-45847000D01*
X142152841Y-45847000D01*
X141181333Y-44875493D01*
X141038269Y-44732179D01*
X140664982Y-44577176D01*
X140260792Y-44576824D01*
X140073194Y-44654338D01*
X140073193Y-44654338D01*
X140073192Y-44654339D01*
X139887234Y-44731175D01*
X139601179Y-45016731D01*
X139446176Y-45390018D01*
X139445824Y-45794208D01*
X139600175Y-46167766D01*
X139885731Y-46453821D01*
X139886158Y-46453998D01*
X140549159Y-47117000D01*
X139617493Y-48048667D01*
X139474179Y-48191731D01*
X139319176Y-48565018D01*
X139318824Y-48969208D01*
X139473175Y-49342766D01*
X139758731Y-49628821D01*
X140132018Y-49783824D01*
X140536208Y-49784176D01*
X140723806Y-49706662D01*
X140723807Y-49706662D01*
X140723808Y-49706661D01*
X140843000Y-49657412D01*
X140843000Y-49911000D01*
X140877742Y-50095636D01*
X140986862Y-50265214D01*
X141153360Y-50378977D01*
X141351000Y-50419000D01*
X143845218Y-50419000D01*
X143586693Y-50677074D01*
X143280349Y-51414832D01*
X143279652Y-52213664D01*
X143584708Y-52951955D01*
X144149074Y-53517307D01*
X144272000Y-53568350D01*
X144272000Y-54609113D01*
X144271824Y-54811208D01*
X144426175Y-55184766D01*
X144711731Y-55470821D01*
X145085018Y-55625824D01*
X145489208Y-55626176D01*
X145862766Y-55471825D01*
X146148821Y-55186269D01*
X146303824Y-54812982D01*
X146304176Y-54408792D01*
X146304000Y-54408366D01*
X146304000Y-53568856D01*
X146423955Y-53519292D01*
X146989307Y-52954926D01*
X147295651Y-52217168D01*
X147296348Y-51418336D01*
X146991292Y-50680045D01*
X146730702Y-50419000D01*
X147828000Y-50419000D01*
X147828000Y-51220729D01*
X147818747Y-51222470D01*
X147645847Y-51333728D01*
X147529855Y-51503488D01*
X147489048Y-51705000D01*
X147489048Y-53705000D01*
X147524470Y-53893253D01*
X147635728Y-54066153D01*
X147805488Y-54182145D01*
X148007000Y-54222952D01*
X150007000Y-54222952D01*
X150195253Y-54187530D01*
X150368153Y-54076272D01*
X150484145Y-53906512D01*
X150524952Y-53705000D01*
X150524952Y-51705000D01*
X150489530Y-51516747D01*
X150378272Y-51343847D01*
X150208512Y-51227855D01*
X150114000Y-51208716D01*
X150114000Y-49155952D01*
X150194500Y-49155952D01*
X150201744Y-49154589D01*
X150330690Y-49208000D01*
X151034750Y-49208000D01*
X151193500Y-49049250D01*
X151193500Y-47561500D01*
X151173500Y-47561500D01*
X151173500Y-47434500D01*
X151193500Y-47434500D01*
X151193500Y-45946750D01*
X151034750Y-45788000D01*
X150330690Y-45788000D01*
X150201576Y-45841481D01*
X150194500Y-45840048D01*
X149394500Y-45840048D01*
X149206247Y-45875470D01*
X149033347Y-45986728D01*
X149011175Y-46019177D01*
X148859239Y-45924217D01*
X148716952Y-45883409D01*
X148716952Y-45712000D01*
X148681530Y-45523747D01*
X148570272Y-45350847D01*
X148474313Y-45285281D01*
X148558699Y-45250327D01*
X148692211Y-45116814D01*
X148718673Y-45180699D01*
X148897302Y-45359327D01*
X149130691Y-45456000D01*
X149784750Y-45456000D01*
X149943500Y-45297250D01*
X149943500Y-44259500D01*
X149923500Y-44259500D01*
X149923500Y-44132500D01*
X149943500Y-44132500D01*
X149943500Y-44112500D01*
X150070500Y-44112500D01*
X150070500Y-44132500D01*
X150090500Y-44132500D01*
X150090500Y-44259500D01*
X150070500Y-44259500D01*
X150070500Y-45297250D01*
X150229250Y-45456000D01*
X150883309Y-45456000D01*
X151116698Y-45359327D01*
X151295327Y-45180699D01*
X151330363Y-45096114D01*
X151385728Y-45182153D01*
X151555488Y-45298145D01*
X151757000Y-45338952D01*
X151872000Y-45338952D01*
X151872000Y-45788000D01*
X151479250Y-45788000D01*
X151320500Y-45946750D01*
X151320500Y-47434500D01*
X151340500Y-47434500D01*
X151340500Y-47561500D01*
X151320500Y-47561500D01*
X151320500Y-49049250D01*
X151479250Y-49208000D01*
X152183310Y-49208000D01*
X152312424Y-49154519D01*
X152316005Y-49155244D01*
X152491000Y-49738560D01*
X152491000Y-51190059D01*
X152318747Y-51222470D01*
X152145847Y-51333728D01*
X152029855Y-51503488D01*
X151989048Y-51705000D01*
X151989048Y-53705000D01*
X152024470Y-53893253D01*
X152135728Y-54066153D01*
X152305488Y-54182145D01*
X152507000Y-54222952D01*
X154507000Y-54222952D01*
X154695253Y-54187530D01*
X154868153Y-54076272D01*
X154984145Y-53906512D01*
X155024952Y-53705000D01*
X155024952Y-51705000D01*
X154989530Y-51516747D01*
X154878272Y-51343847D01*
X154708512Y-51227855D01*
X154523000Y-51190288D01*
X154523000Y-50240250D01*
X155077000Y-50240250D01*
X155077000Y-50894309D01*
X155173673Y-51127698D01*
X155352301Y-51306327D01*
X155585690Y-51403000D01*
X156114750Y-51403000D01*
X156273500Y-51244250D01*
X156273500Y-50081500D01*
X156400500Y-50081500D01*
X156400500Y-51244250D01*
X156559250Y-51403000D01*
X157088310Y-51403000D01*
X157321699Y-51306327D01*
X157500327Y-51127698D01*
X157597000Y-50894309D01*
X157597000Y-50240250D01*
X157438250Y-50081500D01*
X156400500Y-50081500D01*
X156273500Y-50081500D01*
X155235750Y-50081500D01*
X155077000Y-50240250D01*
X154523000Y-50240250D01*
X154523000Y-50018937D01*
X154991876Y-49497964D01*
X155077000Y-49412840D01*
X155077000Y-49795750D01*
X155235750Y-49954500D01*
X156273500Y-49954500D01*
X156273500Y-49934500D01*
X156400500Y-49934500D01*
X156400500Y-49954500D01*
X157438250Y-49954500D01*
X157597000Y-49795750D01*
X157597000Y-49141691D01*
X157500327Y-48908302D01*
X157321699Y-48729673D01*
X157237114Y-48694637D01*
X157323153Y-48639272D01*
X157439145Y-48469512D01*
X157479952Y-48268000D01*
X157479952Y-47969415D01*
X157710420Y-47815420D01*
X158579421Y-46946420D01*
X158799662Y-46616807D01*
X158877000Y-46228000D01*
X158877000Y-43180000D01*
X158858241Y-43085691D01*
X158799662Y-42791193D01*
X158579421Y-42461580D01*
X155420420Y-39302580D01*
X155090807Y-39082338D01*
X155003551Y-39064982D01*
X154702000Y-39005000D01*
X109466341Y-39005000D01*
X105841532Y-35380191D01*
X122951612Y-35380191D01*
X123105410Y-35706665D01*
X123886792Y-36039605D01*
X124736104Y-36048178D01*
X125524047Y-35731082D01*
X125560590Y-35706665D01*
X125714388Y-35380191D01*
X124333000Y-33998803D01*
X122951612Y-35380191D01*
X105841532Y-35380191D01*
X104773445Y-34312104D01*
X122193822Y-34312104D01*
X122510918Y-35100047D01*
X122535335Y-35136590D01*
X122861809Y-35290388D01*
X124243197Y-33909000D01*
X124422803Y-33909000D01*
X125804191Y-35290388D01*
X126130665Y-35136590D01*
X126463605Y-34355208D01*
X126472069Y-33516683D01*
X148621565Y-33516683D01*
X149002581Y-34438812D01*
X149707477Y-35144939D01*
X150628939Y-35527564D01*
X151626683Y-35528435D01*
X152241857Y-35274250D01*
X159036000Y-35274250D01*
X159036000Y-35803310D01*
X159132673Y-36036699D01*
X159311302Y-36215327D01*
X159544691Y-36312000D01*
X160198750Y-36312000D01*
X160357500Y-36153250D01*
X160357500Y-35115500D01*
X159194750Y-35115500D01*
X159036000Y-35274250D01*
X152241857Y-35274250D01*
X152548812Y-35147419D01*
X153254939Y-34442523D01*
X153313833Y-34300690D01*
X159036000Y-34300690D01*
X159036000Y-34829750D01*
X159194750Y-34988500D01*
X160357500Y-34988500D01*
X160357500Y-33950750D01*
X160484500Y-33950750D01*
X160484500Y-34988500D01*
X160504500Y-34988500D01*
X160504500Y-35115500D01*
X160484500Y-35115500D01*
X160484500Y-36153250D01*
X160643250Y-36312000D01*
X161297309Y-36312000D01*
X161530698Y-36215327D01*
X161709327Y-36036699D01*
X161744363Y-35952114D01*
X161799728Y-36038153D01*
X161969488Y-36154145D01*
X162171000Y-36194952D01*
X163671000Y-36194952D01*
X163859253Y-36159530D01*
X164001495Y-36068000D01*
X172084593Y-36068000D01*
X172390018Y-36194824D01*
X172794208Y-36195176D01*
X172981806Y-36117662D01*
X172981807Y-36117662D01*
X172981808Y-36117661D01*
X173167766Y-36040825D01*
X173453821Y-35755269D01*
X173608824Y-35381982D01*
X173609176Y-34977792D01*
X173454825Y-34604234D01*
X173169269Y-34318179D01*
X173148405Y-34309516D01*
X172854807Y-34113338D01*
X172790300Y-34100507D01*
X172466000Y-34036000D01*
X163998589Y-34036000D01*
X163937000Y-33993918D01*
X163937000Y-33270723D01*
X163956824Y-33222982D01*
X163957176Y-32818792D01*
X163802825Y-32445234D01*
X163517269Y-32159179D01*
X163143982Y-32004176D01*
X162739792Y-32003824D01*
X162366234Y-32158175D01*
X162080179Y-32443731D01*
X162013231Y-32604958D01*
X161982338Y-32651193D01*
X161982338Y-32651194D01*
X161971585Y-32705253D01*
X161925176Y-32817018D01*
X161925070Y-32939102D01*
X161905000Y-33040000D01*
X161905000Y-33994499D01*
X161809847Y-34055728D01*
X161744281Y-34151687D01*
X161709327Y-34067301D01*
X161530698Y-33888673D01*
X161297309Y-33792000D01*
X160643250Y-33792000D01*
X160484500Y-33950750D01*
X160357500Y-33950750D01*
X160198750Y-33792000D01*
X159544691Y-33792000D01*
X159311302Y-33888673D01*
X159132673Y-34067301D01*
X159036000Y-34300690D01*
X153313833Y-34300690D01*
X153637564Y-33521061D01*
X153638435Y-32523317D01*
X153257419Y-31601188D01*
X152552523Y-30895061D01*
X151631061Y-30512436D01*
X150633317Y-30511565D01*
X149711188Y-30892581D01*
X149005061Y-31597477D01*
X148622436Y-32518939D01*
X148621565Y-33516683D01*
X126472069Y-33516683D01*
X126472178Y-33505896D01*
X126155082Y-32717953D01*
X126130665Y-32681410D01*
X125804191Y-32527612D01*
X124422803Y-33909000D01*
X124243197Y-33909000D01*
X122861809Y-32527612D01*
X122535335Y-32681410D01*
X122202395Y-33462792D01*
X122193822Y-34312104D01*
X104773445Y-34312104D01*
X103758920Y-33297580D01*
X103429307Y-33077338D01*
X103364704Y-33064488D01*
X103040500Y-33000000D01*
X101006501Y-33000000D01*
X100945272Y-32904847D01*
X100849313Y-32839281D01*
X100933699Y-32804327D01*
X101112327Y-32625698D01*
X101190153Y-32437809D01*
X122951612Y-32437809D01*
X124333000Y-33819197D01*
X125714388Y-32437809D01*
X125560590Y-32111335D01*
X124779208Y-31778395D01*
X123929896Y-31769822D01*
X123141953Y-32086918D01*
X123105410Y-32111335D01*
X122951612Y-32437809D01*
X101190153Y-32437809D01*
X101209000Y-32392309D01*
X101209000Y-31738250D01*
X101050250Y-31579500D01*
X100012500Y-31579500D01*
X100012500Y-31599500D01*
X99885500Y-31599500D01*
X99885500Y-31579500D01*
X98847750Y-31579500D01*
X98689000Y-31738250D01*
X98689000Y-32392309D01*
X98785673Y-32625698D01*
X98964301Y-32804327D01*
X99048886Y-32839363D01*
X98962847Y-32894728D01*
X98846855Y-33064488D01*
X98808478Y-33254000D01*
X98087000Y-33254000D01*
X97795395Y-33312004D01*
X97662204Y-33401000D01*
X97548185Y-33477185D01*
X97131322Y-33894048D01*
X96836000Y-33894048D01*
X96647747Y-33929470D01*
X96518374Y-34012719D01*
X96416395Y-34033004D01*
X96169184Y-34198185D01*
X96164862Y-34202507D01*
X96067272Y-34050847D01*
X95897512Y-33934855D01*
X95732688Y-33901477D01*
X95723258Y-33851364D01*
X95614138Y-33681786D01*
X95447640Y-33568023D01*
X95250000Y-33528000D01*
X93598952Y-33528000D01*
X93598952Y-33266000D01*
X93563530Y-33077747D01*
X93452272Y-32904847D01*
X93356313Y-32839281D01*
X93440699Y-32804327D01*
X93619327Y-32625698D01*
X93716000Y-32392309D01*
X93716000Y-31738250D01*
X93557250Y-31579500D01*
X92519500Y-31579500D01*
X92519500Y-31599500D01*
X92392500Y-31599500D01*
X92392500Y-31579500D01*
X91354750Y-31579500D01*
X91196000Y-31738250D01*
X91196000Y-32392309D01*
X91292673Y-32625698D01*
X91471301Y-32804327D01*
X91555886Y-32839363D01*
X91469847Y-32894728D01*
X91353855Y-33064488D01*
X91313048Y-33266000D01*
X91313048Y-33528000D01*
X90043000Y-33528000D01*
X89858364Y-33562742D01*
X89688786Y-33671862D01*
X89575023Y-33838360D01*
X89535000Y-34036000D01*
X89535000Y-38969000D01*
X87603798Y-38969000D01*
X87594530Y-38919747D01*
X87483272Y-38746847D01*
X87387313Y-38681281D01*
X87471699Y-38646327D01*
X87650327Y-38467698D01*
X87747000Y-38234309D01*
X87747000Y-37580250D01*
X87588250Y-37421500D01*
X86550500Y-37421500D01*
X86550500Y-37441500D01*
X86423500Y-37441500D01*
X86423500Y-37421500D01*
X85385750Y-37421500D01*
X85344000Y-37463250D01*
X85302250Y-37421500D01*
X84264500Y-37421500D01*
X84264500Y-37441500D01*
X84137500Y-37441500D01*
X84137500Y-37421500D01*
X83099750Y-37421500D01*
X83058000Y-37463250D01*
X83016250Y-37421500D01*
X81978500Y-37421500D01*
X81978500Y-37441500D01*
X81851500Y-37441500D01*
X81851500Y-37421500D01*
X80813750Y-37421500D01*
X80655000Y-37580250D01*
X80655000Y-38234309D01*
X80751673Y-38467698D01*
X80930301Y-38646327D01*
X81014886Y-38681363D01*
X80928847Y-38736728D01*
X80812855Y-38906488D01*
X80772048Y-39108000D01*
X80772048Y-39643000D01*
X79795750Y-39643000D01*
X79694250Y-39541500D01*
X79442409Y-39541500D01*
X79419512Y-39525855D01*
X79218000Y-39485048D01*
X77618000Y-39485048D01*
X77429747Y-39520470D01*
X77397065Y-39541500D01*
X77141750Y-39541500D01*
X76983000Y-39700250D01*
X76983000Y-39879310D01*
X77079673Y-40112699D01*
X77100048Y-40133074D01*
X77100048Y-40316000D01*
X76016000Y-40316000D01*
X75724395Y-40374004D01*
X75638005Y-40431728D01*
X75477185Y-40539184D01*
X74100370Y-41916000D01*
X70870846Y-41916000D01*
X70718000Y-41885048D01*
X69118000Y-41885048D01*
X68929747Y-41920470D01*
X68897065Y-41941500D01*
X68641750Y-41941500D01*
X68483000Y-42100250D01*
X68483000Y-42279310D01*
X68579673Y-42512699D01*
X68600048Y-42533074D01*
X68600048Y-42918322D01*
X68576851Y-42941519D01*
X68544530Y-42769747D01*
X68433272Y-42596847D01*
X68263512Y-42480855D01*
X68062000Y-42440048D01*
X66812000Y-42440048D01*
X66623747Y-42475470D01*
X66450847Y-42586728D01*
X66334855Y-42756488D01*
X66294048Y-42958000D01*
X66294048Y-43073000D01*
X65810952Y-43073000D01*
X65810952Y-42799000D01*
X65913000Y-42799000D01*
X66156004Y-42750664D01*
X66362013Y-42613013D01*
X67505013Y-41470013D01*
X67642664Y-41264004D01*
X67691000Y-41021000D01*
X67691000Y-37601026D01*
X68628239Y-36663787D01*
X68600048Y-36803000D01*
X68600048Y-37353000D01*
X68624432Y-37482589D01*
X68600048Y-37603000D01*
X68600048Y-38153000D01*
X68624432Y-38282589D01*
X68600048Y-38403000D01*
X68600048Y-38953000D01*
X68624432Y-39082589D01*
X68600048Y-39203000D01*
X68600048Y-39753000D01*
X68624432Y-39882589D01*
X68600048Y-40003000D01*
X68600048Y-40553000D01*
X68624432Y-40682589D01*
X68600048Y-40803000D01*
X68600048Y-41222926D01*
X68579673Y-41243301D01*
X68483000Y-41476690D01*
X68483000Y-41655750D01*
X68641750Y-41814500D01*
X68893591Y-41814500D01*
X68916488Y-41830145D01*
X69118000Y-41870952D01*
X70718000Y-41870952D01*
X70906253Y-41835530D01*
X70938935Y-41814500D01*
X71194250Y-41814500D01*
X71353000Y-41655750D01*
X71353000Y-41476690D01*
X71256327Y-41243301D01*
X71235952Y-41222926D01*
X71235952Y-40803000D01*
X71211568Y-40673411D01*
X71235952Y-40553000D01*
X71235952Y-40003000D01*
X71211568Y-39873411D01*
X71235952Y-39753000D01*
X71235952Y-39203000D01*
X71211568Y-39073411D01*
X71235952Y-38953000D01*
X71235952Y-38403000D01*
X71211568Y-38273411D01*
X71235952Y-38153000D01*
X71235952Y-37603000D01*
X71211568Y-37473411D01*
X71235952Y-37353000D01*
X71235952Y-36945952D01*
X71643000Y-36945952D01*
X71772589Y-36921568D01*
X71893000Y-36945952D01*
X72443000Y-36945952D01*
X72572589Y-36921568D01*
X72693000Y-36945952D01*
X73243000Y-36945952D01*
X73372589Y-36921568D01*
X73493000Y-36945952D01*
X74043000Y-36945952D01*
X74172589Y-36921568D01*
X74293000Y-36945952D01*
X74843000Y-36945952D01*
X74972589Y-36921568D01*
X75093000Y-36945952D01*
X75643000Y-36945952D01*
X75772589Y-36921568D01*
X75893000Y-36945952D01*
X76225741Y-36945952D01*
X76133234Y-36984175D01*
X75847179Y-37269731D01*
X75692176Y-37643018D01*
X75691824Y-38047208D01*
X75846175Y-38420766D01*
X76131731Y-38706821D01*
X76505018Y-38861824D01*
X76909208Y-38862176D01*
X77100048Y-38783323D01*
X77100048Y-38822926D01*
X77079673Y-38843301D01*
X76983000Y-39076690D01*
X76983000Y-39255750D01*
X77141750Y-39414500D01*
X77393591Y-39414500D01*
X77416488Y-39430145D01*
X77618000Y-39470952D01*
X79218000Y-39470952D01*
X79406253Y-39435530D01*
X79438935Y-39414500D01*
X79694250Y-39414500D01*
X79853000Y-39255750D01*
X79853000Y-39076690D01*
X79756327Y-38843301D01*
X79735952Y-38822926D01*
X79735952Y-38403000D01*
X79711568Y-38273411D01*
X79735952Y-38153000D01*
X79735952Y-37692920D01*
X79878004Y-37664664D01*
X80084013Y-37527013D01*
X80655000Y-36956026D01*
X80655000Y-37135750D01*
X80813750Y-37294500D01*
X81851500Y-37294500D01*
X81851500Y-36131750D01*
X81978500Y-36131750D01*
X81978500Y-37294500D01*
X83016250Y-37294500D01*
X83058000Y-37252750D01*
X83099750Y-37294500D01*
X84137500Y-37294500D01*
X84137500Y-36131750D01*
X84264500Y-36131750D01*
X84264500Y-37294500D01*
X85302250Y-37294500D01*
X85344000Y-37252750D01*
X85385750Y-37294500D01*
X86423500Y-37294500D01*
X86423500Y-36131750D01*
X86550500Y-36131750D01*
X86550500Y-37294500D01*
X87588250Y-37294500D01*
X87747000Y-37135750D01*
X87747000Y-36481691D01*
X87650327Y-36248302D01*
X87471699Y-36069673D01*
X87238310Y-35973000D01*
X86709250Y-35973000D01*
X86550500Y-36131750D01*
X86423500Y-36131750D01*
X86264750Y-35973000D01*
X85735690Y-35973000D01*
X85502301Y-36069673D01*
X85344000Y-36227975D01*
X85185699Y-36069673D01*
X84952310Y-35973000D01*
X84423250Y-35973000D01*
X84264500Y-36131750D01*
X84137500Y-36131750D01*
X83978750Y-35973000D01*
X83449690Y-35973000D01*
X83216301Y-36069673D01*
X83058000Y-36227975D01*
X82899699Y-36069673D01*
X82666310Y-35973000D01*
X82137250Y-35973000D01*
X81978500Y-36131750D01*
X81851500Y-36131750D01*
X81692750Y-35973000D01*
X81638026Y-35973000D01*
X83257525Y-34353500D01*
X84899500Y-34353500D01*
X85142504Y-34305164D01*
X85348513Y-34167513D01*
X88528128Y-30987898D01*
X88847208Y-30988176D01*
X89220766Y-30833825D01*
X89415239Y-30639691D01*
X91196000Y-30639691D01*
X91196000Y-31293750D01*
X91354750Y-31452500D01*
X92392500Y-31452500D01*
X92392500Y-30289750D01*
X92519500Y-30289750D01*
X92519500Y-31452500D01*
X93557250Y-31452500D01*
X93716000Y-31293750D01*
X93716000Y-30639691D01*
X98689000Y-30639691D01*
X98689000Y-31293750D01*
X98847750Y-31452500D01*
X99885500Y-31452500D01*
X99885500Y-30289750D01*
X100012500Y-30289750D01*
X100012500Y-31452500D01*
X101050250Y-31452500D01*
X101209000Y-31293750D01*
X101209000Y-30639691D01*
X101112327Y-30406302D01*
X100933699Y-30227673D01*
X100802210Y-30173208D01*
X110235824Y-30173208D01*
X110390175Y-30546766D01*
X110675731Y-30832821D01*
X111049018Y-30987824D01*
X111453208Y-30988176D01*
X111826766Y-30833825D01*
X112053987Y-30607000D01*
X135469304Y-30607000D01*
X135694731Y-30832821D01*
X135772778Y-30865229D01*
X135606747Y-30896470D01*
X135464505Y-30988000D01*
X134747887Y-30988000D01*
X134545792Y-30987824D01*
X134172234Y-31142175D01*
X133886179Y-31427731D01*
X133731176Y-31801018D01*
X133730824Y-32205208D01*
X133885175Y-32578766D01*
X134170731Y-32864821D01*
X134544018Y-33019824D01*
X134948208Y-33020176D01*
X134948634Y-33020000D01*
X135467411Y-33020000D01*
X135593488Y-33106145D01*
X135795000Y-33146952D01*
X137295000Y-33146952D01*
X137483253Y-33111530D01*
X137656153Y-33000272D01*
X137721719Y-32904313D01*
X137756673Y-32988699D01*
X137935302Y-33167327D01*
X138168691Y-33264000D01*
X138822750Y-33264000D01*
X138981500Y-33105250D01*
X138981500Y-32067500D01*
X139108500Y-32067500D01*
X139108500Y-33105250D01*
X139267250Y-33264000D01*
X139921309Y-33264000D01*
X140154698Y-33167327D01*
X140333327Y-32988699D01*
X140430000Y-32755310D01*
X140430000Y-32226250D01*
X140271250Y-32067500D01*
X139108500Y-32067500D01*
X138981500Y-32067500D01*
X138961500Y-32067500D01*
X138961500Y-31940500D01*
X138981500Y-31940500D01*
X138981500Y-30902750D01*
X139108500Y-30902750D01*
X139108500Y-31940500D01*
X140271250Y-31940500D01*
X140430000Y-31781750D01*
X140430000Y-31252690D01*
X140333327Y-31019301D01*
X140154698Y-30840673D01*
X139921309Y-30744000D01*
X139267250Y-30744000D01*
X139108500Y-30902750D01*
X138981500Y-30902750D01*
X138822750Y-30744000D01*
X138168691Y-30744000D01*
X137935302Y-30840673D01*
X137756673Y-31019301D01*
X137721637Y-31103886D01*
X137666272Y-31017847D01*
X137496512Y-30901855D01*
X137295000Y-30861048D01*
X136779881Y-30861048D01*
X136845766Y-30833825D01*
X137131821Y-30548269D01*
X137286824Y-30174982D01*
X137287176Y-29770792D01*
X137132825Y-29397234D01*
X136847269Y-29111179D01*
X136473982Y-28956176D01*
X136069792Y-28955824D01*
X135696234Y-29110175D01*
X135469013Y-29337000D01*
X112053696Y-29337000D01*
X111828269Y-29111179D01*
X111454982Y-28956176D01*
X111050792Y-28955824D01*
X110677234Y-29110175D01*
X110391179Y-29395731D01*
X110236176Y-29769018D01*
X110235824Y-30173208D01*
X100802210Y-30173208D01*
X100700310Y-30131000D01*
X100171250Y-30131000D01*
X100012500Y-30289750D01*
X99885500Y-30289750D01*
X99726750Y-30131000D01*
X99197690Y-30131000D01*
X98964301Y-30227673D01*
X98785673Y-30406302D01*
X98689000Y-30639691D01*
X93716000Y-30639691D01*
X93619327Y-30406302D01*
X93440699Y-30227673D01*
X93207310Y-30131000D01*
X92678250Y-30131000D01*
X92519500Y-30289750D01*
X92392500Y-30289750D01*
X92233750Y-30131000D01*
X91704690Y-30131000D01*
X91471301Y-30227673D01*
X91292673Y-30406302D01*
X91196000Y-30639691D01*
X89415239Y-30639691D01*
X89506821Y-30548269D01*
X89661824Y-30174982D01*
X89662176Y-29770792D01*
X89507825Y-29397234D01*
X89222269Y-29111179D01*
X88848982Y-28956176D01*
X88444792Y-28955824D01*
X88071234Y-29110175D01*
X87785179Y-29395731D01*
X87630176Y-29769018D01*
X87629896Y-30090078D01*
X84636474Y-33083500D01*
X82994500Y-33083500D01*
X82751495Y-33131836D01*
X82728873Y-33146952D01*
X82545487Y-33269487D01*
X82545485Y-33269490D01*
X79460864Y-36354110D01*
X79419512Y-36325855D01*
X79218000Y-36285048D01*
X77760952Y-36285048D01*
X77760952Y-34828000D01*
X77725530Y-34639747D01*
X77614272Y-34466847D01*
X77603000Y-34459145D01*
X77603000Y-32646405D01*
X77681691Y-32679000D01*
X77785750Y-32679000D01*
X77944500Y-32520250D01*
X77944500Y-32378175D01*
X78035145Y-32245512D01*
X78071500Y-32065985D01*
X78071500Y-32520250D01*
X78230250Y-32679000D01*
X78334309Y-32679000D01*
X78513178Y-32604910D01*
X78631691Y-32654000D01*
X79585750Y-32654000D01*
X79744500Y-32495250D01*
X79744500Y-31282500D01*
X79871500Y-31282500D01*
X79871500Y-32495250D01*
X80030250Y-32654000D01*
X80984309Y-32654000D01*
X81217698Y-32557327D01*
X81396327Y-32378699D01*
X81493000Y-32145310D01*
X81493000Y-31441250D01*
X81334250Y-31282500D01*
X79871500Y-31282500D01*
X79744500Y-31282500D01*
X79724500Y-31282500D01*
X79724500Y-31155500D01*
X79744500Y-31155500D01*
X79744500Y-31135500D01*
X79871500Y-31135500D01*
X79871500Y-31155500D01*
X81334250Y-31155500D01*
X81493000Y-30996750D01*
X81493000Y-30292690D01*
X81436616Y-30156568D01*
X81596253Y-30126530D01*
X81769153Y-30015272D01*
X81885145Y-29845512D01*
X81925952Y-29644000D01*
X81925952Y-27744000D01*
X81895658Y-27583000D01*
X175895000Y-27583000D01*
X175895000Y-30167112D01*
X158172433Y-86417000D01*
X119864500Y-86417000D01*
X120014824Y-86054982D01*
X120015176Y-85650792D01*
X119860825Y-85277234D01*
X119575269Y-84991179D01*
X119507701Y-84963122D01*
X119573766Y-84935825D01*
X119859821Y-84650269D01*
X120014824Y-84276982D01*
X120015028Y-84042250D01*
X136557000Y-84042250D01*
X136557000Y-84571310D01*
X136653673Y-84804699D01*
X136832302Y-84983327D01*
X137065691Y-85080000D01*
X137719750Y-85080000D01*
X137878500Y-84921250D01*
X137878500Y-83883500D01*
X136715750Y-83883500D01*
X136557000Y-84042250D01*
X120015028Y-84042250D01*
X120015176Y-83872792D01*
X119860825Y-83499234D01*
X119575269Y-83213179D01*
X119227303Y-83068690D01*
X136557000Y-83068690D01*
X136557000Y-83597750D01*
X136715750Y-83756500D01*
X137878500Y-83756500D01*
X137878500Y-82718750D01*
X138005500Y-82718750D01*
X138005500Y-83756500D01*
X138025500Y-83756500D01*
X138025500Y-83883500D01*
X138005500Y-83883500D01*
X138005500Y-84921250D01*
X138164250Y-85080000D01*
X138818309Y-85080000D01*
X139051698Y-84983327D01*
X139230327Y-84804699D01*
X139265363Y-84720114D01*
X139320728Y-84806153D01*
X139490488Y-84922145D01*
X139692000Y-84962952D01*
X141192000Y-84962952D01*
X141352128Y-84932822D01*
X141363764Y-84950236D01*
X141940589Y-85335658D01*
X142621000Y-85471000D01*
X143301411Y-85335658D01*
X143878236Y-84950236D01*
X147167472Y-81661000D01*
X148971000Y-81661000D01*
X149651411Y-81525658D01*
X150228236Y-81140236D01*
X150613658Y-80563411D01*
X150749000Y-79883000D01*
X150613658Y-79202589D01*
X150228236Y-78625764D01*
X149651411Y-78240342D01*
X148971000Y-78105000D01*
X146431000Y-78105000D01*
X145750589Y-78240342D01*
X145173764Y-78625764D01*
X141363764Y-82435764D01*
X141202575Y-82677000D01*
X140569000Y-82677000D01*
X140568759Y-82677048D01*
X139692000Y-82677048D01*
X139503747Y-82712470D01*
X139330847Y-82823728D01*
X139265281Y-82919687D01*
X139230327Y-82835301D01*
X139051698Y-82656673D01*
X138818309Y-82560000D01*
X138164250Y-82560000D01*
X138005500Y-82718750D01*
X137878500Y-82718750D01*
X137719750Y-82560000D01*
X137065691Y-82560000D01*
X136832302Y-82656673D01*
X136653673Y-82835301D01*
X136557000Y-83068690D01*
X119227303Y-83068690D01*
X119201982Y-83058176D01*
X118797792Y-83057824D01*
X118424234Y-83212175D01*
X118197013Y-83439000D01*
X85344412Y-83439000D01*
X85316825Y-83372234D01*
X85031269Y-83086179D01*
X84657982Y-82931176D01*
X84253792Y-82930824D01*
X83880234Y-83085175D01*
X83594179Y-83370731D01*
X83439176Y-83744018D01*
X83438824Y-84148208D01*
X83593175Y-84521766D01*
X83878731Y-84807821D01*
X84099601Y-84899535D01*
X83880234Y-84990175D01*
X83594179Y-85275731D01*
X83439176Y-85649018D01*
X83438824Y-86053208D01*
X83589140Y-86417000D01*
X71229888Y-86417000D01*
X71345821Y-86301269D01*
X71500824Y-85927982D01*
X71501176Y-85523792D01*
X71346825Y-85150234D01*
X71096342Y-84899313D01*
X71345821Y-84650269D01*
X71500824Y-84276982D01*
X71501176Y-83872792D01*
X71346825Y-83499234D01*
X71061269Y-83213179D01*
X70687982Y-83058176D01*
X70283792Y-83057824D01*
X69910234Y-83212175D01*
X69683013Y-83439000D01*
X35433412Y-83439000D01*
X35405825Y-83372234D01*
X35120269Y-83086179D01*
X34746982Y-82931176D01*
X34342792Y-82930824D01*
X33969234Y-83085175D01*
X33683179Y-83370731D01*
X33528176Y-83744018D01*
X33527824Y-84148208D01*
X33682175Y-84521766D01*
X33967731Y-84807821D01*
X34035299Y-84835878D01*
X33969234Y-84863175D01*
X33683179Y-85148731D01*
X33528176Y-85522018D01*
X33527824Y-85926208D01*
X33682175Y-86299766D01*
X33799204Y-86417000D01*
X29286200Y-86417000D01*
X29286200Y-83426000D01*
X31861551Y-78994000D01*
X32258000Y-78994000D01*
X32393342Y-79674411D01*
X32778764Y-80251236D01*
X33355589Y-80636658D01*
X34036000Y-80772000D01*
X44450000Y-80772000D01*
X45130411Y-80636658D01*
X45707236Y-80251236D01*
X45868425Y-80010000D01*
X46059411Y-80010000D01*
X46185488Y-80096145D01*
X46387000Y-80136952D01*
X47887000Y-80136952D01*
X48075253Y-80101530D01*
X48248153Y-79990272D01*
X48313719Y-79894313D01*
X48348673Y-79978699D01*
X48527302Y-80157327D01*
X48760691Y-80254000D01*
X49414750Y-80254000D01*
X49573500Y-80095250D01*
X49573500Y-79057500D01*
X49700500Y-79057500D01*
X49700500Y-80095250D01*
X49859250Y-80254000D01*
X50513309Y-80254000D01*
X50746698Y-80157327D01*
X50925327Y-79978699D01*
X51022000Y-79745310D01*
X51022000Y-79216250D01*
X55023000Y-79216250D01*
X55023000Y-79745310D01*
X55119673Y-79978699D01*
X55298302Y-80157327D01*
X55531691Y-80254000D01*
X56185750Y-80254000D01*
X56344500Y-80095250D01*
X56344500Y-79057500D01*
X55181750Y-79057500D01*
X55023000Y-79216250D01*
X51022000Y-79216250D01*
X50863250Y-79057500D01*
X49700500Y-79057500D01*
X49573500Y-79057500D01*
X49553500Y-79057500D01*
X49553500Y-78930500D01*
X49573500Y-78930500D01*
X49573500Y-77892750D01*
X49700500Y-77892750D01*
X49700500Y-78930500D01*
X50863250Y-78930500D01*
X51022000Y-78771750D01*
X51022000Y-78242690D01*
X55023000Y-78242690D01*
X55023000Y-78771750D01*
X55181750Y-78930500D01*
X56344500Y-78930500D01*
X56344500Y-77892750D01*
X56471500Y-77892750D01*
X56471500Y-78930500D01*
X56491500Y-78930500D01*
X56491500Y-79057500D01*
X56471500Y-79057500D01*
X56471500Y-80095250D01*
X56630250Y-80254000D01*
X57284309Y-80254000D01*
X57517698Y-80157327D01*
X57696327Y-79978699D01*
X57731363Y-79894114D01*
X57786728Y-79980153D01*
X57956488Y-80096145D01*
X58158000Y-80136952D01*
X59658000Y-80136952D01*
X59846253Y-80101530D01*
X59988495Y-80010000D01*
X60134434Y-80010000D01*
X60210764Y-80124236D01*
X60787589Y-80509658D01*
X61468000Y-80645000D01*
X72517000Y-80645000D01*
X73197411Y-80509658D01*
X73774236Y-80124236D01*
X74159658Y-79547411D01*
X74295000Y-78867000D01*
X81026000Y-78867000D01*
X81161342Y-79547411D01*
X81546764Y-80124236D01*
X82123589Y-80509658D01*
X82804000Y-80645000D01*
X93218000Y-80645000D01*
X93898411Y-80509658D01*
X94475236Y-80124236D01*
X94616673Y-79912560D01*
X94699488Y-79969145D01*
X94901000Y-80009952D01*
X96401000Y-80009952D01*
X96589253Y-79974530D01*
X96762153Y-79863272D01*
X96827719Y-79767313D01*
X96862673Y-79851699D01*
X97041302Y-80030327D01*
X97274691Y-80127000D01*
X97928750Y-80127000D01*
X98087500Y-79968250D01*
X98087500Y-78930500D01*
X98214500Y-78930500D01*
X98214500Y-79968250D01*
X98373250Y-80127000D01*
X99027309Y-80127000D01*
X99260698Y-80030327D01*
X99439327Y-79851699D01*
X99536000Y-79618310D01*
X99536000Y-79089250D01*
X104045000Y-79089250D01*
X104045000Y-79618310D01*
X104141673Y-79851699D01*
X104320302Y-80030327D01*
X104553691Y-80127000D01*
X105207750Y-80127000D01*
X105366500Y-79968250D01*
X105366500Y-78930500D01*
X104203750Y-78930500D01*
X104045000Y-79089250D01*
X99536000Y-79089250D01*
X99377250Y-78930500D01*
X98214500Y-78930500D01*
X98087500Y-78930500D01*
X98067500Y-78930500D01*
X98067500Y-78803500D01*
X98087500Y-78803500D01*
X98087500Y-77765750D01*
X98214500Y-77765750D01*
X98214500Y-78803500D01*
X99377250Y-78803500D01*
X99536000Y-78644750D01*
X99536000Y-78115690D01*
X104045000Y-78115690D01*
X104045000Y-78644750D01*
X104203750Y-78803500D01*
X105366500Y-78803500D01*
X105366500Y-77765750D01*
X105493500Y-77765750D01*
X105493500Y-78803500D01*
X105513500Y-78803500D01*
X105513500Y-78930500D01*
X105493500Y-78930500D01*
X105493500Y-79968250D01*
X105652250Y-80127000D01*
X106306309Y-80127000D01*
X106539698Y-80030327D01*
X106718327Y-79851699D01*
X106753363Y-79767114D01*
X106808728Y-79853153D01*
X106978488Y-79969145D01*
X107180000Y-80009952D01*
X108680000Y-80009952D01*
X108868253Y-79974530D01*
X108964396Y-79912664D01*
X109105764Y-80124236D01*
X109682589Y-80509658D01*
X110363000Y-80645000D01*
X120269000Y-80645000D01*
X120949411Y-80509658D01*
X121526236Y-80124236D01*
X121911658Y-79547411D01*
X122047000Y-78867000D01*
X121911658Y-78186589D01*
X121526236Y-77609764D01*
X120949411Y-77224342D01*
X120269000Y-77089000D01*
X110363000Y-77089000D01*
X109682589Y-77224342D01*
X109105764Y-77609764D01*
X108964327Y-77821440D01*
X108881512Y-77764855D01*
X108680000Y-77724048D01*
X107180000Y-77724048D01*
X106991747Y-77759470D01*
X106818847Y-77870728D01*
X106753281Y-77966687D01*
X106718327Y-77882301D01*
X106539698Y-77703673D01*
X106306309Y-77607000D01*
X105652250Y-77607000D01*
X105493500Y-77765750D01*
X105366500Y-77765750D01*
X105207750Y-77607000D01*
X104553691Y-77607000D01*
X104320302Y-77703673D01*
X104141673Y-77882301D01*
X104045000Y-78115690D01*
X99536000Y-78115690D01*
X99439327Y-77882301D01*
X99260698Y-77703673D01*
X99027309Y-77607000D01*
X98373250Y-77607000D01*
X98214500Y-77765750D01*
X98087500Y-77765750D01*
X97928750Y-77607000D01*
X97274691Y-77607000D01*
X97041302Y-77703673D01*
X96862673Y-77882301D01*
X96827637Y-77966886D01*
X96772272Y-77880847D01*
X96602512Y-77764855D01*
X96401000Y-77724048D01*
X94901000Y-77724048D01*
X94712747Y-77759470D01*
X94616604Y-77821336D01*
X94475236Y-77609764D01*
X93898411Y-77224342D01*
X93218000Y-77089000D01*
X82804000Y-77089000D01*
X82123589Y-77224342D01*
X81546764Y-77609764D01*
X81161342Y-78186589D01*
X81026000Y-78867000D01*
X74295000Y-78867000D01*
X74159658Y-78186589D01*
X73774236Y-77609764D01*
X73197411Y-77224342D01*
X72517000Y-77089000D01*
X61468000Y-77089000D01*
X60787589Y-77224342D01*
X60210764Y-77609764D01*
X59971259Y-77968209D01*
X59859512Y-77891855D01*
X59658000Y-77851048D01*
X58158000Y-77851048D01*
X57969747Y-77886470D01*
X57796847Y-77997728D01*
X57731281Y-78093687D01*
X57696327Y-78009301D01*
X57517698Y-77830673D01*
X57284309Y-77734000D01*
X56630250Y-77734000D01*
X56471500Y-77892750D01*
X56344500Y-77892750D01*
X56185750Y-77734000D01*
X55531691Y-77734000D01*
X55298302Y-77830673D01*
X55119673Y-78009301D01*
X55023000Y-78242690D01*
X51022000Y-78242690D01*
X50925327Y-78009301D01*
X50746698Y-77830673D01*
X50513309Y-77734000D01*
X49859250Y-77734000D01*
X49700500Y-77892750D01*
X49573500Y-77892750D01*
X49414750Y-77734000D01*
X48760691Y-77734000D01*
X48527302Y-77830673D01*
X48348673Y-78009301D01*
X48313637Y-78093886D01*
X48258272Y-78007847D01*
X48088512Y-77891855D01*
X47887000Y-77851048D01*
X46387000Y-77851048D01*
X46198747Y-77886470D01*
X46056505Y-77978000D01*
X45868425Y-77978000D01*
X45707236Y-77736764D01*
X45130411Y-77351342D01*
X44450000Y-77216000D01*
X34036000Y-77216000D01*
X33355589Y-77351342D01*
X32778764Y-77736764D01*
X32393342Y-78313589D01*
X32258000Y-78994000D01*
X31861551Y-78994000D01*
X37278824Y-69671250D01*
X50937000Y-69671250D01*
X50937000Y-70325309D01*
X51033673Y-70558698D01*
X51212301Y-70737327D01*
X51445690Y-70834000D01*
X51974750Y-70834000D01*
X52133500Y-70675250D01*
X52133500Y-69512500D01*
X52260500Y-69512500D01*
X52260500Y-70675250D01*
X52419250Y-70834000D01*
X52948310Y-70834000D01*
X53181699Y-70737327D01*
X53360327Y-70558698D01*
X53457000Y-70325309D01*
X53457000Y-69671250D01*
X53298250Y-69512500D01*
X52260500Y-69512500D01*
X52133500Y-69512500D01*
X51095750Y-69512500D01*
X50937000Y-69671250D01*
X37278824Y-69671250D01*
X44704077Y-56892909D01*
X44729060Y-56819981D01*
X44763148Y-56750843D01*
X44765605Y-56713303D01*
X44777798Y-56677711D01*
X44772971Y-56600775D01*
X44778006Y-56523853D01*
X44765910Y-56488229D01*
X44763554Y-56450682D01*
X44729653Y-56381450D01*
X44704868Y-56308457D01*
X44573640Y-56081208D01*
X48513824Y-56081208D01*
X48668175Y-56454766D01*
X48953731Y-56740821D01*
X49327018Y-56895824D01*
X49731208Y-56896176D01*
X49731634Y-56896000D01*
X49871160Y-56896000D01*
X50419000Y-57443840D01*
X50419000Y-64008000D01*
X50554342Y-64688411D01*
X50939764Y-65265236D01*
X51181000Y-65426425D01*
X51181000Y-65871411D01*
X51094855Y-65997488D01*
X51054048Y-66199000D01*
X51054048Y-67699000D01*
X51089470Y-67887253D01*
X51200728Y-68060153D01*
X51296687Y-68125719D01*
X51212301Y-68160673D01*
X51033673Y-68339302D01*
X50937000Y-68572691D01*
X50937000Y-69226750D01*
X51095750Y-69385500D01*
X52133500Y-69385500D01*
X52133500Y-69365500D01*
X52260500Y-69365500D01*
X52260500Y-69385500D01*
X53298250Y-69385500D01*
X53457000Y-69226750D01*
X53457000Y-68834250D01*
X63072000Y-68834250D01*
X63072000Y-69238310D01*
X63168673Y-69471699D01*
X63347302Y-69650327D01*
X63580691Y-69747000D01*
X65084750Y-69747000D01*
X65243500Y-69588250D01*
X65243500Y-68675500D01*
X65370500Y-68675500D01*
X65370500Y-69588250D01*
X65529250Y-69747000D01*
X67033309Y-69747000D01*
X67266698Y-69650327D01*
X67445327Y-69471699D01*
X67542000Y-69238310D01*
X67542000Y-68834250D01*
X67383250Y-68675500D01*
X65370500Y-68675500D01*
X65243500Y-68675500D01*
X63230750Y-68675500D01*
X63072000Y-68834250D01*
X53457000Y-68834250D01*
X53457000Y-68572691D01*
X53360327Y-68339302D01*
X53181699Y-68160673D01*
X53097114Y-68125637D01*
X53183153Y-68070272D01*
X53240945Y-67985690D01*
X63072000Y-67985690D01*
X63072000Y-68389750D01*
X63230750Y-68548500D01*
X65243500Y-68548500D01*
X65243500Y-67635750D01*
X65370500Y-67635750D01*
X65370500Y-68548500D01*
X67383250Y-68548500D01*
X67542000Y-68389750D01*
X67542000Y-67985690D01*
X67445327Y-67752301D01*
X67266698Y-67573673D01*
X67033309Y-67477000D01*
X65529250Y-67477000D01*
X65370500Y-67635750D01*
X65243500Y-67635750D01*
X65084750Y-67477000D01*
X63580691Y-67477000D01*
X63347302Y-67573673D01*
X63168673Y-67752301D01*
X63072000Y-67985690D01*
X53240945Y-67985690D01*
X53299145Y-67900512D01*
X53339952Y-67699000D01*
X53339952Y-66199000D01*
X53304530Y-66010747D01*
X53213000Y-65868505D01*
X53213000Y-65426425D01*
X53454236Y-65265236D01*
X53839658Y-64688411D01*
X53975000Y-64008000D01*
X53975000Y-63857000D01*
X63189048Y-63857000D01*
X63189048Y-64857000D01*
X63224470Y-65045253D01*
X63335728Y-65218153D01*
X63505488Y-65334145D01*
X63707000Y-65374952D01*
X66907000Y-65374952D01*
X67095253Y-65339530D01*
X67268153Y-65228272D01*
X67384145Y-65058512D01*
X67424952Y-64857000D01*
X67424952Y-63857000D01*
X67389530Y-63668747D01*
X67278272Y-63495847D01*
X67108512Y-63379855D01*
X66907000Y-63339048D01*
X66234002Y-63339048D01*
X66293824Y-63194982D01*
X66294176Y-62790792D01*
X66139825Y-62417234D01*
X65854269Y-62131179D01*
X65480982Y-61976176D01*
X65076792Y-61975824D01*
X64703234Y-62130175D01*
X64417179Y-62415731D01*
X64262176Y-62789018D01*
X64261824Y-63193208D01*
X64322084Y-63339048D01*
X63707000Y-63339048D01*
X63518747Y-63374470D01*
X63345847Y-63485728D01*
X63229855Y-63655488D01*
X63189048Y-63857000D01*
X53975000Y-63857000D01*
X53975000Y-60579250D01*
X63072000Y-60579250D01*
X63072000Y-60983310D01*
X63168673Y-61216699D01*
X63347302Y-61395327D01*
X63580691Y-61492000D01*
X65084750Y-61492000D01*
X65243500Y-61333250D01*
X65243500Y-60420500D01*
X65370500Y-60420500D01*
X65370500Y-61333250D01*
X65529250Y-61492000D01*
X67033309Y-61492000D01*
X67266698Y-61395327D01*
X67445327Y-61216699D01*
X67542000Y-60983310D01*
X67542000Y-60579250D01*
X67383250Y-60420500D01*
X65370500Y-60420500D01*
X65243500Y-60420500D01*
X63230750Y-60420500D01*
X63072000Y-60579250D01*
X53975000Y-60579250D01*
X53975000Y-58898019D01*
X54094194Y-58977662D01*
X54483000Y-59055000D01*
X54990113Y-59055000D01*
X55192208Y-59055176D01*
X55379806Y-58977662D01*
X55379807Y-58977662D01*
X55379808Y-58977661D01*
X55565766Y-58900825D01*
X55844827Y-58622250D01*
X59700000Y-58622250D01*
X59700000Y-59276309D01*
X59796673Y-59509698D01*
X59975301Y-59688327D01*
X60208690Y-59785000D01*
X60737750Y-59785000D01*
X60896500Y-59626250D01*
X60896500Y-58463500D01*
X61023500Y-58463500D01*
X61023500Y-59626250D01*
X61182250Y-59785000D01*
X61711310Y-59785000D01*
X61842425Y-59730690D01*
X63072000Y-59730690D01*
X63072000Y-60134750D01*
X63230750Y-60293500D01*
X65243500Y-60293500D01*
X65243500Y-59380750D01*
X65370500Y-59380750D01*
X65370500Y-60293500D01*
X67383250Y-60293500D01*
X67542000Y-60134750D01*
X67542000Y-59730690D01*
X67445327Y-59497301D01*
X67266698Y-59318673D01*
X67033309Y-59222000D01*
X65529250Y-59222000D01*
X65370500Y-59380750D01*
X65243500Y-59380750D01*
X65084750Y-59222000D01*
X63580691Y-59222000D01*
X63347302Y-59318673D01*
X63168673Y-59497301D01*
X63072000Y-59730690D01*
X61842425Y-59730690D01*
X61944699Y-59688327D01*
X62123327Y-59509698D01*
X62220000Y-59276309D01*
X62220000Y-58622250D01*
X62061250Y-58463500D01*
X61023500Y-58463500D01*
X60896500Y-58463500D01*
X59858750Y-58463500D01*
X59700000Y-58622250D01*
X55844827Y-58622250D01*
X55851821Y-58615269D01*
X55851998Y-58614842D01*
X57443841Y-57023000D01*
X59308113Y-57023000D01*
X59510208Y-57023176D01*
X59697806Y-56945662D01*
X59697807Y-56945662D01*
X59697808Y-56945661D01*
X59769594Y-56916000D01*
X59902499Y-56916000D01*
X59963728Y-57011153D01*
X60059687Y-57076719D01*
X59975301Y-57111673D01*
X59796673Y-57290302D01*
X59700000Y-57523691D01*
X59700000Y-58177750D01*
X59858750Y-58336500D01*
X60896500Y-58336500D01*
X60896500Y-58316500D01*
X61023500Y-58316500D01*
X61023500Y-58336500D01*
X62061250Y-58336500D01*
X62220000Y-58177750D01*
X62220000Y-57523691D01*
X62123327Y-57290302D01*
X61944699Y-57111673D01*
X61860114Y-57076637D01*
X61946153Y-57021272D01*
X62062145Y-56851512D01*
X62102952Y-56650000D01*
X62102952Y-55475000D01*
X63189048Y-55475000D01*
X63189048Y-56475000D01*
X63224470Y-56663253D01*
X63335728Y-56836153D01*
X63505488Y-56952145D01*
X63707000Y-56992952D01*
X66907000Y-56992952D01*
X67095253Y-56957530D01*
X67268153Y-56846272D01*
X67384145Y-56676512D01*
X67424952Y-56475000D01*
X67424952Y-55475000D01*
X67389530Y-55286747D01*
X67298707Y-55145604D01*
X67436824Y-54812982D01*
X67437176Y-54408792D01*
X67282825Y-54035234D01*
X66997269Y-53749179D01*
X66623982Y-53594176D01*
X66219792Y-53593824D01*
X65846234Y-53748175D01*
X65560179Y-54033731D01*
X65405176Y-54407018D01*
X65404896Y-54728078D01*
X65175926Y-54957048D01*
X63707000Y-54957048D01*
X63518747Y-54992470D01*
X63345847Y-55103728D01*
X63229855Y-55273488D01*
X63189048Y-55475000D01*
X62102952Y-55475000D01*
X62102952Y-55150000D01*
X62067530Y-54961747D01*
X61956272Y-54788847D01*
X61786512Y-54672855D01*
X61585000Y-54632048D01*
X60335000Y-54632048D01*
X60146747Y-54667470D01*
X59973847Y-54778728D01*
X59901918Y-54884000D01*
X59416000Y-54884000D01*
X59091796Y-54948488D01*
X59027193Y-54961338D01*
X58982801Y-54991000D01*
X57023000Y-54991000D01*
X56698700Y-55055507D01*
X56634193Y-55068338D01*
X56304580Y-55288579D01*
X54737000Y-56856159D01*
X53975000Y-56094160D01*
X53975000Y-52197250D01*
X63072000Y-52197250D01*
X63072000Y-52601310D01*
X63168673Y-52834699D01*
X63347302Y-53013327D01*
X63580691Y-53110000D01*
X65084750Y-53110000D01*
X65243500Y-52951250D01*
X65243500Y-52038500D01*
X65370500Y-52038500D01*
X65370500Y-52951250D01*
X65529250Y-53110000D01*
X67033309Y-53110000D01*
X67266698Y-53013327D01*
X67445327Y-52834699D01*
X67542000Y-52601310D01*
X67542000Y-52197250D01*
X67383250Y-52038500D01*
X65370500Y-52038500D01*
X65243500Y-52038500D01*
X63230750Y-52038500D01*
X63072000Y-52197250D01*
X53975000Y-52197250D01*
X53975000Y-51348690D01*
X63072000Y-51348690D01*
X63072000Y-51752750D01*
X63230750Y-51911500D01*
X65243500Y-51911500D01*
X65243500Y-50998750D01*
X65370500Y-50998750D01*
X65370500Y-51911500D01*
X67383250Y-51911500D01*
X67542000Y-51752750D01*
X67542000Y-51348690D01*
X67445327Y-51115301D01*
X67266698Y-50936673D01*
X67033309Y-50840000D01*
X65529250Y-50840000D01*
X65370500Y-50998750D01*
X65243500Y-50998750D01*
X65084750Y-50840000D01*
X63580691Y-50840000D01*
X63347302Y-50936673D01*
X63168673Y-51115301D01*
X63072000Y-51348690D01*
X53975000Y-51348690D01*
X53975000Y-49911000D01*
X53839658Y-49230589D01*
X53454236Y-48653764D01*
X52877411Y-48268342D01*
X52197000Y-48133000D01*
X51516589Y-48268342D01*
X50939764Y-48653764D01*
X50554342Y-49230589D01*
X50419000Y-49911000D01*
X50419000Y-54889262D01*
X50292000Y-54864000D01*
X49530887Y-54864000D01*
X49328792Y-54863824D01*
X48955234Y-55018175D01*
X48669179Y-55303731D01*
X48514176Y-55677018D01*
X48513824Y-56081208D01*
X44573640Y-56081208D01*
X39158777Y-46704250D01*
X54292500Y-46704250D01*
X54292500Y-46862309D01*
X54389173Y-47095698D01*
X54507024Y-47213550D01*
X54450355Y-47296488D01*
X54409548Y-47498000D01*
X54409548Y-48006000D01*
X54444970Y-48194253D01*
X54556228Y-48367153D01*
X54725988Y-48483145D01*
X54927500Y-48523952D01*
X56070500Y-48523952D01*
X56258753Y-48488530D01*
X56431653Y-48377272D01*
X56547645Y-48207512D01*
X56588452Y-48006000D01*
X56588452Y-47974250D01*
X60642500Y-47974250D01*
X60642500Y-48132309D01*
X60739173Y-48365698D01*
X60917801Y-48544327D01*
X61151190Y-48641000D01*
X61626750Y-48641000D01*
X61785500Y-48482250D01*
X61785500Y-47815500D01*
X61912500Y-47815500D01*
X61912500Y-48482250D01*
X62071250Y-48641000D01*
X62546810Y-48641000D01*
X62780199Y-48544327D01*
X62958827Y-48365698D01*
X63055500Y-48132309D01*
X63055500Y-47974250D01*
X62896750Y-47815500D01*
X61912500Y-47815500D01*
X61785500Y-47815500D01*
X60801250Y-47815500D01*
X60642500Y-47974250D01*
X56588452Y-47974250D01*
X56588452Y-47498000D01*
X56553030Y-47309747D01*
X56491069Y-47213457D01*
X56608827Y-47095698D01*
X56705500Y-46862309D01*
X56705500Y-46704250D01*
X56546750Y-46545500D01*
X55562500Y-46545500D01*
X55562500Y-46565500D01*
X55435500Y-46565500D01*
X55435500Y-46545500D01*
X54451250Y-46545500D01*
X54292500Y-46704250D01*
X39158777Y-46704250D01*
X28383000Y-28043759D01*
X28383000Y-27583000D01*
X42630892Y-27583000D01*
X42431302Y-27665673D01*
X42431302Y-27665673D01*
G37*
X42431302Y-27665673D02*
X42252673Y-27844301D01*
X42217637Y-27928886D01*
X42162272Y-27842847D01*
X41992512Y-27726855D01*
X41791000Y-27686048D01*
X40291000Y-27686048D01*
X40102747Y-27721470D01*
X39960505Y-27813000D01*
X39116887Y-27813000D01*
X38914792Y-27812824D01*
X38541234Y-27967175D01*
X38255179Y-28252731D01*
X38100176Y-28626018D01*
X38099824Y-29030208D01*
X38254175Y-29403766D01*
X38314304Y-29464000D01*
X35345696Y-29464000D01*
X35120269Y-29238179D01*
X34746982Y-29083176D01*
X34342792Y-29082824D01*
X33969234Y-29237175D01*
X33683179Y-29522731D01*
X33528176Y-29896018D01*
X33527824Y-30300208D01*
X33549637Y-30353000D01*
X32013026Y-30353000D01*
X31750000Y-30089974D01*
X31750000Y-29630696D01*
X31975821Y-29405269D01*
X32130824Y-29031982D01*
X32131176Y-28627792D01*
X31976825Y-28254234D01*
X31691269Y-27968179D01*
X31317982Y-27813176D01*
X30913792Y-27812824D01*
X30540234Y-27967175D01*
X30254179Y-28252731D01*
X30099176Y-28626018D01*
X30098824Y-29030208D01*
X30253175Y-29403766D01*
X30480000Y-29630987D01*
X30480000Y-30353000D01*
X30528336Y-30596004D01*
X30665987Y-30802013D01*
X31300987Y-31437013D01*
X31506996Y-31574664D01*
X31750000Y-31623001D01*
X31750005Y-31623000D01*
X41519974Y-31623000D01*
X48699987Y-38803013D01*
X48905996Y-38940664D01*
X49149000Y-38989000D01*
X55870974Y-38989000D01*
X56306164Y-39424190D01*
X56272012Y-39400855D01*
X56070500Y-39360048D01*
X54927500Y-39360048D01*
X54739247Y-39395470D01*
X54700337Y-39420508D01*
X54551269Y-39271179D01*
X54177982Y-39116176D01*
X53773792Y-39115824D01*
X53400234Y-39270175D01*
X53114179Y-39555731D01*
X52959176Y-39929018D01*
X52958824Y-40333208D01*
X53113175Y-40706766D01*
X53340000Y-40933987D01*
X53340000Y-44399200D01*
X53388336Y-44642204D01*
X53525987Y-44848213D01*
X54338787Y-45661013D01*
X54493251Y-45764223D01*
X54389173Y-45868302D01*
X54292500Y-46101691D01*
X54292500Y-46259750D01*
X54451250Y-46418500D01*
X55435500Y-46418500D01*
X55435500Y-46398500D01*
X55562500Y-46398500D01*
X55562500Y-46418500D01*
X56546750Y-46418500D01*
X56705500Y-46259750D01*
X56705500Y-46101691D01*
X56608827Y-45868302D01*
X56490976Y-45750450D01*
X56547645Y-45667512D01*
X56588452Y-45466000D01*
X56588452Y-44958000D01*
X56553030Y-44769747D01*
X56441772Y-44596847D01*
X56414573Y-44578263D01*
X56431653Y-44567272D01*
X56547645Y-44397512D01*
X56588452Y-44196000D01*
X56588452Y-43688000D01*
X56553030Y-43499747D01*
X56491069Y-43403457D01*
X56608827Y-43285698D01*
X56705500Y-43052309D01*
X56705500Y-42894250D01*
X56546750Y-42735500D01*
X55562500Y-42735500D01*
X55562500Y-42755500D01*
X55435500Y-42755500D01*
X55435500Y-42735500D01*
X55415500Y-42735500D01*
X55415500Y-42608500D01*
X55435500Y-42608500D01*
X55435500Y-42588500D01*
X55562500Y-42588500D01*
X55562500Y-42608500D01*
X56546750Y-42608500D01*
X56705500Y-42449750D01*
X56705500Y-42291691D01*
X56608827Y-42058302D01*
X56490976Y-41940450D01*
X56547645Y-41857512D01*
X56588452Y-41656000D01*
X56588452Y-41148000D01*
X56553030Y-40959747D01*
X56441772Y-40786847D01*
X56414573Y-40768263D01*
X56431653Y-40757272D01*
X56515000Y-40635290D01*
X56515000Y-40640000D01*
X56563336Y-40883004D01*
X56700987Y-41089013D01*
X59944000Y-44332026D01*
X59944000Y-45720000D01*
X59992336Y-45963004D01*
X60129987Y-46169013D01*
X60774051Y-46813077D01*
X60794970Y-46924253D01*
X60856931Y-47020543D01*
X60739173Y-47138302D01*
X60642500Y-47371691D01*
X60642500Y-47529750D01*
X60801250Y-47688500D01*
X61785500Y-47688500D01*
X61785500Y-47668500D01*
X61912500Y-47668500D01*
X61912500Y-47688500D01*
X62896750Y-47688500D01*
X63055500Y-47529750D01*
X63055500Y-47371691D01*
X62958827Y-47138302D01*
X62840976Y-47020450D01*
X62897645Y-46937512D01*
X62938452Y-46736000D01*
X62938452Y-46430250D01*
X66177000Y-46430250D01*
X66177000Y-47084309D01*
X66273673Y-47317698D01*
X66452301Y-47496327D01*
X66685690Y-47593000D01*
X67214750Y-47593000D01*
X67373500Y-47434250D01*
X67373500Y-46271500D01*
X67500500Y-46271500D01*
X67500500Y-47434250D01*
X67659250Y-47593000D01*
X68188310Y-47593000D01*
X68421699Y-47496327D01*
X68600327Y-47317698D01*
X68697000Y-47084309D01*
X68697000Y-46430250D01*
X68538250Y-46271500D01*
X67500500Y-46271500D01*
X67373500Y-46271500D01*
X66335750Y-46271500D01*
X66177000Y-46430250D01*
X62938452Y-46430250D01*
X62938452Y-46228000D01*
X62903030Y-46039747D01*
X62791772Y-45866847D01*
X62764573Y-45848263D01*
X62781653Y-45837272D01*
X62800802Y-45809246D01*
X62854004Y-45798664D01*
X63060013Y-45661013D01*
X63822013Y-44899013D01*
X63911287Y-44765405D01*
X63993000Y-44781952D01*
X65293000Y-44781952D01*
X65481253Y-44746530D01*
X65654153Y-44635272D01*
X65770145Y-44465512D01*
X65794954Y-44343000D01*
X66294048Y-44343000D01*
X66294048Y-44458000D01*
X66329470Y-44646253D01*
X66440728Y-44819153D01*
X66536687Y-44884719D01*
X66452301Y-44919673D01*
X66273673Y-45098302D01*
X66177000Y-45331691D01*
X66177000Y-45985750D01*
X66335750Y-46144500D01*
X67373500Y-46144500D01*
X67373500Y-46124500D01*
X67500500Y-46124500D01*
X67500500Y-46144500D01*
X68538250Y-46144500D01*
X68697000Y-45985750D01*
X68697000Y-45331691D01*
X68600327Y-45098302D01*
X68421699Y-44919673D01*
X68337114Y-44884637D01*
X68423153Y-44829272D01*
X68539145Y-44659512D01*
X68577522Y-44470000D01*
X68888000Y-44470000D01*
X69179605Y-44411996D01*
X69426815Y-44246815D01*
X70202678Y-43470952D01*
X70575048Y-43470952D01*
X70575048Y-44928000D01*
X70610470Y-45116253D01*
X70721728Y-45289153D01*
X70733000Y-45296855D01*
X70733000Y-47863974D01*
X68511987Y-50084987D01*
X68374336Y-50290996D01*
X68326000Y-50534000D01*
X68326000Y-69466000D01*
X68374336Y-69709004D01*
X68511987Y-69915013D01*
X70262584Y-71665610D01*
X70145847Y-71740728D01*
X70029855Y-71910488D01*
X70016386Y-71977000D01*
X67399550Y-71977000D01*
X67389530Y-71923747D01*
X67278272Y-71750847D01*
X67108512Y-71634855D01*
X66907000Y-71594048D01*
X63707000Y-71594048D01*
X63518747Y-71629470D01*
X63345847Y-71740728D01*
X63229855Y-71910488D01*
X63189048Y-72112000D01*
X63189048Y-73112000D01*
X63224470Y-73300253D01*
X63335728Y-73473153D01*
X63505488Y-73589145D01*
X63707000Y-73629952D01*
X66907000Y-73629952D01*
X67095253Y-73594530D01*
X67268153Y-73483272D01*
X67384145Y-73313512D01*
X67397614Y-73247000D01*
X70014450Y-73247000D01*
X70024470Y-73300253D01*
X70135728Y-73473153D01*
X70305488Y-73589145D01*
X70507000Y-73629952D01*
X73707000Y-73629952D01*
X73895253Y-73594530D01*
X74068153Y-73483272D01*
X74184145Y-73313512D01*
X74224952Y-73112000D01*
X74224952Y-72112000D01*
X74189530Y-71923747D01*
X74078272Y-71750847D01*
X73908512Y-71634855D01*
X73707000Y-71594048D01*
X71987074Y-71594048D01*
X69596000Y-69202974D01*
X69596000Y-68834250D01*
X69872000Y-68834250D01*
X69872000Y-69238310D01*
X69968673Y-69471699D01*
X70147302Y-69650327D01*
X70380691Y-69747000D01*
X71884750Y-69747000D01*
X72043500Y-69588250D01*
X72043500Y-68675500D01*
X72170500Y-68675500D01*
X72170500Y-69588250D01*
X72329250Y-69747000D01*
X73833309Y-69747000D01*
X74066698Y-69650327D01*
X74245327Y-69471699D01*
X74320485Y-69290250D01*
X99959000Y-69290250D01*
X99959000Y-69944309D01*
X100055673Y-70177698D01*
X100234301Y-70356327D01*
X100467690Y-70453000D01*
X100996750Y-70453000D01*
X101155500Y-70294250D01*
X101155500Y-69131500D01*
X101282500Y-69131500D01*
X101282500Y-70294250D01*
X101441250Y-70453000D01*
X101970310Y-70453000D01*
X102203699Y-70356327D01*
X102382327Y-70177698D01*
X102479000Y-69944309D01*
X102479000Y-69290250D01*
X102320250Y-69131500D01*
X101282500Y-69131500D01*
X101155500Y-69131500D01*
X100117750Y-69131500D01*
X99959000Y-69290250D01*
X74320485Y-69290250D01*
X74342000Y-69238310D01*
X74342000Y-68834250D01*
X74183250Y-68675500D01*
X72170500Y-68675500D01*
X72043500Y-68675500D01*
X70030750Y-68675500D01*
X69872000Y-68834250D01*
X69596000Y-68834250D01*
X69596000Y-67985690D01*
X69872000Y-67985690D01*
X69872000Y-68389750D01*
X70030750Y-68548500D01*
X72043500Y-68548500D01*
X72043500Y-67635750D01*
X72170500Y-67635750D01*
X72170500Y-68548500D01*
X74183250Y-68548500D01*
X74342000Y-68389750D01*
X74342000Y-67985690D01*
X74245327Y-67752301D01*
X74066698Y-67573673D01*
X73833309Y-67477000D01*
X72329250Y-67477000D01*
X72170500Y-67635750D01*
X72043500Y-67635750D01*
X71884750Y-67477000D01*
X70380691Y-67477000D01*
X70147302Y-67573673D01*
X69968673Y-67752301D01*
X69872000Y-67985690D01*
X69596000Y-67985690D01*
X69596000Y-62744026D01*
X70262584Y-63410610D01*
X70145847Y-63485728D01*
X70029855Y-63655488D01*
X69989048Y-63857000D01*
X69989048Y-64857000D01*
X70024470Y-65045253D01*
X70135728Y-65218153D01*
X70305488Y-65334145D01*
X70507000Y-65374952D01*
X73707000Y-65374952D01*
X73895253Y-65339530D01*
X74068153Y-65228272D01*
X74184145Y-65058512D01*
X74224952Y-64857000D01*
X74224952Y-63857000D01*
X74189530Y-63668747D01*
X74078272Y-63495847D01*
X73908512Y-63379855D01*
X73707000Y-63339048D01*
X73092002Y-63339048D01*
X73151824Y-63194982D01*
X73152176Y-62790792D01*
X72997825Y-62417234D01*
X72712269Y-62131179D01*
X72338982Y-61976176D01*
X71934792Y-61975824D01*
X71561234Y-62130175D01*
X71275179Y-62415731D01*
X71213147Y-62565121D01*
X70104000Y-61455974D01*
X70104000Y-61352025D01*
X70147302Y-61395327D01*
X70380691Y-61492000D01*
X71884750Y-61492000D01*
X72043500Y-61333250D01*
X72043500Y-60420500D01*
X72170500Y-60420500D01*
X72170500Y-61333250D01*
X72329250Y-61492000D01*
X73833309Y-61492000D01*
X74066698Y-61395327D01*
X74245327Y-61216699D01*
X74342000Y-60983310D01*
X74342000Y-60579250D01*
X74183250Y-60420500D01*
X72170500Y-60420500D01*
X72043500Y-60420500D01*
X72023500Y-60420500D01*
X72023500Y-60293500D01*
X72043500Y-60293500D01*
X72043500Y-59380750D01*
X72170500Y-59380750D01*
X72170500Y-60293500D01*
X74183250Y-60293500D01*
X74342000Y-60134750D01*
X74342000Y-59730690D01*
X74245327Y-59497301D01*
X74066698Y-59318673D01*
X73833309Y-59222000D01*
X72329250Y-59222000D01*
X72170500Y-59380750D01*
X72043500Y-59380750D01*
X71884750Y-59222000D01*
X70380691Y-59222000D01*
X70147302Y-59318673D01*
X70104000Y-59361975D01*
X70104000Y-56786846D01*
X70135728Y-56836153D01*
X70305488Y-56952145D01*
X70507000Y-56992952D01*
X73707000Y-56992952D01*
X73895253Y-56957530D01*
X74068153Y-56846272D01*
X74184145Y-56676512D01*
X74224952Y-56475000D01*
X74224952Y-55475000D01*
X74189530Y-55286747D01*
X74078272Y-55113847D01*
X73908512Y-54997855D01*
X73707000Y-54957048D01*
X73039267Y-54957048D01*
X73151824Y-54685982D01*
X73152176Y-54281792D01*
X72997825Y-53908234D01*
X72712269Y-53622179D01*
X72338982Y-53467176D01*
X71934792Y-53466824D01*
X71561234Y-53621175D01*
X71275179Y-53906731D01*
X71175884Y-54145858D01*
X70612000Y-53581974D01*
X70612000Y-53110000D01*
X71884750Y-53110000D01*
X72043500Y-52951250D01*
X72043500Y-52038500D01*
X72170500Y-52038500D01*
X72170500Y-52951250D01*
X72329250Y-53110000D01*
X73833309Y-53110000D01*
X74066698Y-53013327D01*
X74245327Y-52834699D01*
X74342000Y-52601310D01*
X74342000Y-52226250D01*
X75317000Y-52226250D01*
X75317000Y-52730309D01*
X75413673Y-52963698D01*
X75592301Y-53142327D01*
X75825690Y-53239000D01*
X76104750Y-53239000D01*
X76263500Y-53080250D01*
X76263500Y-52067500D01*
X76390500Y-52067500D01*
X76390500Y-53080250D01*
X76549250Y-53239000D01*
X76828310Y-53239000D01*
X77061699Y-53142327D01*
X77240327Y-52963698D01*
X77337000Y-52730309D01*
X77337000Y-52226250D01*
X77857000Y-52226250D01*
X77857000Y-52730309D01*
X77953673Y-52963698D01*
X78132301Y-53142327D01*
X78365690Y-53239000D01*
X78644750Y-53239000D01*
X78803500Y-53080250D01*
X78803500Y-52067500D01*
X78930500Y-52067500D01*
X78930500Y-53080250D01*
X79089250Y-53239000D01*
X79368310Y-53239000D01*
X79601699Y-53142327D01*
X79780327Y-52963698D01*
X79877000Y-52730309D01*
X79877000Y-52226250D01*
X79718250Y-52067500D01*
X78930500Y-52067500D01*
X78803500Y-52067500D01*
X78015750Y-52067500D01*
X77857000Y-52226250D01*
X77337000Y-52226250D01*
X77178250Y-52067500D01*
X76390500Y-52067500D01*
X76263500Y-52067500D01*
X75475750Y-52067500D01*
X75317000Y-52226250D01*
X74342000Y-52226250D01*
X74342000Y-52197250D01*
X74183250Y-52038500D01*
X72170500Y-52038500D01*
X72043500Y-52038500D01*
X72023500Y-52038500D01*
X72023500Y-51911500D01*
X72043500Y-51911500D01*
X72043500Y-50998750D01*
X72170500Y-50998750D01*
X72170500Y-51911500D01*
X74183250Y-51911500D01*
X74342000Y-51752750D01*
X74342000Y-51348690D01*
X74245327Y-51115301D01*
X74066698Y-50936673D01*
X73833309Y-50840000D01*
X72329250Y-50840000D01*
X72170500Y-50998750D01*
X72043500Y-50998750D01*
X71884750Y-50840000D01*
X71216026Y-50840000D01*
X73417013Y-48639013D01*
X73554664Y-48433004D01*
X73603000Y-48190000D01*
X73603000Y-45445952D01*
X74043000Y-45445952D01*
X74172589Y-45421568D01*
X74293000Y-45445952D01*
X74843000Y-45445952D01*
X74972589Y-45421568D01*
X75093000Y-45445952D01*
X75533000Y-45445952D01*
X75533000Y-46187153D01*
X75433355Y-46332988D01*
X75392548Y-46534500D01*
X75392548Y-48334500D01*
X75427970Y-48522753D01*
X75539228Y-48695653D01*
X75708988Y-48811645D01*
X75755500Y-48821064D01*
X75755500Y-49026777D01*
X75590847Y-49132728D01*
X75474855Y-49302488D01*
X75434048Y-49504000D01*
X75434048Y-50704000D01*
X75469470Y-50892253D01*
X75507156Y-50950819D01*
X75413673Y-51044302D01*
X75317000Y-51277691D01*
X75317000Y-51781750D01*
X75475750Y-51940500D01*
X76263500Y-51940500D01*
X76263500Y-51920500D01*
X76390500Y-51920500D01*
X76390500Y-51940500D01*
X77178250Y-51940500D01*
X77337000Y-51781750D01*
X77337000Y-51277691D01*
X77240327Y-51044302D01*
X77147643Y-50951617D01*
X77179145Y-50905512D01*
X77219952Y-50704000D01*
X77219952Y-49504000D01*
X77184530Y-49315747D01*
X77073272Y-49142847D01*
X77025500Y-49110206D01*
X77025500Y-48830813D01*
X77098753Y-48817030D01*
X77271653Y-48705772D01*
X77387645Y-48536012D01*
X77428452Y-48334500D01*
X77428452Y-46850478D01*
X77892548Y-47314574D01*
X77892548Y-48334500D01*
X77927970Y-48522753D01*
X78039228Y-48695653D01*
X78208988Y-48811645D01*
X78295500Y-48829164D01*
X78295500Y-49026777D01*
X78130847Y-49132728D01*
X78014855Y-49302488D01*
X77974048Y-49504000D01*
X77974048Y-50704000D01*
X78009470Y-50892253D01*
X78047156Y-50950819D01*
X77953673Y-51044302D01*
X77857000Y-51277691D01*
X77857000Y-51781750D01*
X78015750Y-51940500D01*
X78803500Y-51940500D01*
X78803500Y-51920500D01*
X78930500Y-51920500D01*
X78930500Y-51940500D01*
X79718250Y-51940500D01*
X79877000Y-51781750D01*
X79877000Y-51277691D01*
X79780327Y-51044302D01*
X79687643Y-50951617D01*
X79719145Y-50905512D01*
X79759952Y-50704000D01*
X79759952Y-49504000D01*
X79724530Y-49315747D01*
X79613272Y-49142847D01*
X79565500Y-49110206D01*
X79565500Y-48823287D01*
X79598753Y-48817030D01*
X79771653Y-48705772D01*
X79887645Y-48536012D01*
X79928452Y-48334500D01*
X79928452Y-46534500D01*
X79893030Y-46346247D01*
X79781772Y-46173347D01*
X79612012Y-46057355D01*
X79410500Y-46016548D01*
X78410500Y-46016548D01*
X78393730Y-46019704D01*
X77632220Y-45258194D01*
X77720145Y-45129512D01*
X77760952Y-44928000D01*
X77760952Y-43470952D01*
X79218000Y-43470952D01*
X79406253Y-43435530D01*
X79579153Y-43324272D01*
X79586855Y-43313000D01*
X84934574Y-43313000D01*
X85725000Y-44103426D01*
X85725000Y-46732048D01*
X83464000Y-46732048D01*
X83275747Y-46767470D01*
X83102847Y-46878728D01*
X82986855Y-47048488D01*
X82946048Y-47250000D01*
X82946048Y-48000000D01*
X82981470Y-48188253D01*
X83027240Y-48259382D01*
X82986855Y-48318488D01*
X82946048Y-48520000D01*
X82946048Y-49270000D01*
X82981470Y-49458253D01*
X83027240Y-49529382D01*
X82986855Y-49588488D01*
X82946048Y-49790000D01*
X82946048Y-50540000D01*
X82981470Y-50728253D01*
X83027240Y-50799382D01*
X82986855Y-50858488D01*
X82946048Y-51060000D01*
X82946048Y-51810000D01*
X82981470Y-51998253D01*
X83027240Y-52069382D01*
X83026818Y-52070000D01*
X82208696Y-52070000D01*
X81983269Y-51844179D01*
X81609982Y-51689176D01*
X81205792Y-51688824D01*
X80832234Y-51843175D01*
X80546179Y-52128731D01*
X80391176Y-52502018D01*
X80390824Y-52906208D01*
X80545175Y-53279766D01*
X80772000Y-53506987D01*
X80772000Y-54700742D01*
X80723847Y-54731728D01*
X80607855Y-54901488D01*
X80567048Y-55103000D01*
X80567048Y-56403000D01*
X80602470Y-56591253D01*
X80713728Y-56764153D01*
X80814038Y-56832692D01*
X80723847Y-56890728D01*
X80607855Y-57060488D01*
X80567048Y-57262000D01*
X80567048Y-58562000D01*
X80602470Y-58750253D01*
X80713728Y-58923153D01*
X80883488Y-59039145D01*
X81008248Y-59064409D01*
X80869747Y-59090470D01*
X80696847Y-59201728D01*
X80580855Y-59371488D01*
X80540048Y-59573000D01*
X80540048Y-60823000D01*
X80575470Y-61011253D01*
X80686728Y-61184153D01*
X80856488Y-61300145D01*
X81058000Y-61340952D01*
X82558000Y-61340952D01*
X82746253Y-61305530D01*
X82919153Y-61194272D01*
X82984719Y-61098313D01*
X83019673Y-61182699D01*
X83198302Y-61361327D01*
X83431691Y-61458000D01*
X84085750Y-61458000D01*
X84244500Y-61299250D01*
X84244500Y-60261500D01*
X84371500Y-60261500D01*
X84371500Y-61299250D01*
X84530250Y-61458000D01*
X85184309Y-61458000D01*
X85417698Y-61361327D01*
X85596327Y-61182699D01*
X85693000Y-60949310D01*
X85693000Y-60420250D01*
X85534250Y-60261500D01*
X84371500Y-60261500D01*
X84244500Y-60261500D01*
X84224500Y-60261500D01*
X84224500Y-60134500D01*
X84244500Y-60134500D01*
X84244500Y-60114500D01*
X84371500Y-60114500D01*
X84371500Y-60134500D01*
X85534250Y-60134500D01*
X85693000Y-59975750D01*
X85693000Y-59446690D01*
X85596327Y-59213301D01*
X85434792Y-59051767D01*
X85473253Y-59044530D01*
X85646153Y-58933272D01*
X85762145Y-58763512D01*
X85802952Y-58562000D01*
X85802952Y-58547000D01*
X88519000Y-58547000D01*
X88762004Y-58498664D01*
X88968013Y-58361013D01*
X89088818Y-58240208D01*
X93090824Y-58240208D01*
X93245175Y-58613766D01*
X93530731Y-58899821D01*
X93904018Y-59054824D01*
X94308208Y-59055176D01*
X94308634Y-59055000D01*
X96520000Y-59055000D01*
X96844300Y-58990493D01*
X96908807Y-58977662D01*
X97238420Y-58757420D01*
X98972841Y-57023000D01*
X99441000Y-57023000D01*
X99441000Y-64008000D01*
X99576342Y-64688411D01*
X99961764Y-65265236D01*
X100203000Y-65426425D01*
X100203000Y-65490411D01*
X100116855Y-65616488D01*
X100076048Y-65818000D01*
X100076048Y-67318000D01*
X100111470Y-67506253D01*
X100222728Y-67679153D01*
X100318687Y-67744719D01*
X100234301Y-67779673D01*
X100055673Y-67958302D01*
X99959000Y-68191691D01*
X99959000Y-68845750D01*
X100117750Y-69004500D01*
X101155500Y-69004500D01*
X101155500Y-68984500D01*
X101282500Y-68984500D01*
X101282500Y-69004500D01*
X102320250Y-69004500D01*
X102479000Y-68845750D01*
X102479000Y-68191691D01*
X102382327Y-67958302D01*
X102203699Y-67779673D01*
X102119114Y-67744637D01*
X102205153Y-67689272D01*
X102321145Y-67519512D01*
X102361952Y-67318000D01*
X102361952Y-65818000D01*
X102326530Y-65629747D01*
X102235000Y-65487505D01*
X102235000Y-65426425D01*
X102476236Y-65265236D01*
X102861658Y-64688411D01*
X102997000Y-64008000D01*
X102997000Y-59348841D01*
X103290841Y-59055000D01*
X104012113Y-59055000D01*
X104214208Y-59055176D01*
X104401806Y-58977662D01*
X104401807Y-58977662D01*
X104401808Y-58977661D01*
X104587766Y-58900825D01*
X104873821Y-58615269D01*
X104873998Y-58614842D01*
X105120590Y-58368250D01*
X108976000Y-58368250D01*
X108976000Y-59022309D01*
X109072673Y-59255698D01*
X109251301Y-59434327D01*
X109484690Y-59531000D01*
X110013750Y-59531000D01*
X110172500Y-59372250D01*
X110172500Y-58209500D01*
X110299500Y-58209500D01*
X110299500Y-59372250D01*
X110458250Y-59531000D01*
X110987310Y-59531000D01*
X111220699Y-59434327D01*
X111399327Y-59255698D01*
X111496000Y-59022309D01*
X111496000Y-58368250D01*
X111337250Y-58209500D01*
X110299500Y-58209500D01*
X110172500Y-58209500D01*
X109134750Y-58209500D01*
X108976000Y-58368250D01*
X105120590Y-58368250D01*
X106465841Y-57023000D01*
X108330113Y-57023000D01*
X108532208Y-57023176D01*
X108719806Y-56945662D01*
X108719807Y-56945662D01*
X108719808Y-56945661D01*
X108905766Y-56868825D01*
X109112952Y-56662000D01*
X109178499Y-56662000D01*
X109239728Y-56757153D01*
X109335687Y-56822719D01*
X109251301Y-56857673D01*
X109072673Y-57036302D01*
X108976000Y-57269691D01*
X108976000Y-57923750D01*
X109134750Y-58082500D01*
X110172500Y-58082500D01*
X110172500Y-58062500D01*
X110299500Y-58062500D01*
X110299500Y-58082500D01*
X111337250Y-58082500D01*
X111496000Y-57923750D01*
X111496000Y-57269691D01*
X111399327Y-57036302D01*
X111220699Y-56857673D01*
X111136114Y-56822637D01*
X111222153Y-56767272D01*
X111338145Y-56597512D01*
X111378952Y-56396000D01*
X111378952Y-54896000D01*
X111343530Y-54707747D01*
X111232272Y-54534847D01*
X111062512Y-54418855D01*
X110861000Y-54378048D01*
X109611000Y-54378048D01*
X109422747Y-54413470D01*
X109249847Y-54524728D01*
X109177918Y-54630000D01*
X108692000Y-54630000D01*
X108367796Y-54694488D01*
X108303193Y-54707338D01*
X107973579Y-54927580D01*
X107910159Y-54991000D01*
X106045000Y-54991000D01*
X105720700Y-55055507D01*
X105656193Y-55068338D01*
X105326580Y-55288579D01*
X103592160Y-57023000D01*
X102997000Y-57023000D01*
X102997000Y-49911000D01*
X102861658Y-49230589D01*
X102476236Y-48653764D01*
X101899411Y-48268342D01*
X101219000Y-48133000D01*
X100538589Y-48268342D01*
X99961764Y-48653764D01*
X99576342Y-49230589D01*
X99441000Y-49911000D01*
X99441000Y-54824160D01*
X99274160Y-54991000D01*
X98552887Y-54991000D01*
X98350792Y-54990824D01*
X98163194Y-55068338D01*
X98163193Y-55068338D01*
X98163192Y-55068339D01*
X97977234Y-55145175D01*
X97691179Y-55430731D01*
X97691002Y-55431157D01*
X96099160Y-57023000D01*
X94107887Y-57023000D01*
X93905792Y-57022824D01*
X93532234Y-57177175D01*
X93246179Y-57462731D01*
X93091176Y-57836018D01*
X93090824Y-58240208D01*
X89088818Y-58240208D01*
X98268013Y-49061013D01*
X98405664Y-48855004D01*
X98454000Y-48612000D01*
X98454000Y-47303000D01*
X119361048Y-47303000D01*
X119361048Y-50703000D01*
X119396470Y-50891253D01*
X119507728Y-51064153D01*
X119677488Y-51180145D01*
X119879000Y-51220952D01*
X121479000Y-51220952D01*
X121667253Y-51185530D01*
X121840153Y-51074272D01*
X121956145Y-50904512D01*
X121996952Y-50703000D01*
X121996952Y-47303000D01*
X126161048Y-47303000D01*
X126161048Y-50703000D01*
X126196470Y-50891253D01*
X126307728Y-51064153D01*
X126477488Y-51180145D01*
X126679000Y-51220952D01*
X128279000Y-51220952D01*
X128467253Y-51185530D01*
X128640153Y-51074272D01*
X128756145Y-50904512D01*
X128796952Y-50703000D01*
X128796952Y-47303000D01*
X128761530Y-47114747D01*
X128650272Y-46941847D01*
X128480512Y-46825855D01*
X128279000Y-46785048D01*
X126679000Y-46785048D01*
X126490747Y-46820470D01*
X126317847Y-46931728D01*
X126201855Y-47101488D01*
X126161048Y-47303000D01*
X121996952Y-47303000D01*
X121961530Y-47114747D01*
X121850272Y-46941847D01*
X121680512Y-46825855D01*
X121479000Y-46785048D01*
X119879000Y-46785048D01*
X119690747Y-46820470D01*
X119517847Y-46931728D01*
X119401855Y-47101488D01*
X119361048Y-47303000D01*
X98454000Y-47303000D01*
X98454000Y-47086952D01*
X99419000Y-47086952D01*
X99607253Y-47051530D01*
X99780153Y-46940272D01*
X99896145Y-46770512D01*
X99909614Y-46704000D01*
X102526450Y-46704000D01*
X102536470Y-46757253D01*
X102647728Y-46930153D01*
X102817488Y-47046145D01*
X103019000Y-47086952D01*
X106219000Y-47086952D01*
X106407253Y-47051530D01*
X106580153Y-46940272D01*
X106696145Y-46770512D01*
X106736952Y-46569000D01*
X106736952Y-45569000D01*
X106701530Y-45380747D01*
X106590272Y-45207847D01*
X106420512Y-45091855D01*
X106219000Y-45051048D01*
X103019000Y-45051048D01*
X102830747Y-45086470D01*
X102657847Y-45197728D01*
X102541855Y-45367488D01*
X102528386Y-45434000D01*
X99911550Y-45434000D01*
X99901530Y-45380747D01*
X99790272Y-45207847D01*
X99620512Y-45091855D01*
X99419000Y-45051048D01*
X96219000Y-45051048D01*
X96030747Y-45086470D01*
X95857847Y-45197728D01*
X95741855Y-45367488D01*
X95701048Y-45569000D01*
X95701048Y-46569000D01*
X95736470Y-46757253D01*
X95847728Y-46930153D01*
X96017488Y-47046145D01*
X96219000Y-47086952D01*
X97184000Y-47086952D01*
X97184000Y-48348974D01*
X88255974Y-57277000D01*
X85802952Y-57277000D01*
X85802952Y-57262000D01*
X85767530Y-57073747D01*
X85656272Y-56900847D01*
X85555962Y-56832308D01*
X85646153Y-56774272D01*
X85762145Y-56604512D01*
X85802952Y-56403000D01*
X85802952Y-55383074D01*
X87190013Y-53996013D01*
X87327664Y-53790004D01*
X87365865Y-53597952D01*
X89764000Y-53597952D01*
X89952253Y-53562530D01*
X90125153Y-53451272D01*
X90241145Y-53281512D01*
X90281952Y-53080000D01*
X90281952Y-52330000D01*
X90246530Y-52141747D01*
X90200760Y-52070618D01*
X90241145Y-52011512D01*
X90281952Y-51810000D01*
X90281952Y-51060000D01*
X90259793Y-50942233D01*
X90302327Y-50899699D01*
X90399000Y-50666310D01*
X90399000Y-50387250D01*
X90240250Y-50228500D01*
X88627500Y-50228500D01*
X88627500Y-50248500D01*
X88500500Y-50248500D01*
X88500500Y-50228500D01*
X88480500Y-50228500D01*
X88480500Y-50101500D01*
X88500500Y-50101500D01*
X88500500Y-48958500D01*
X88627500Y-48958500D01*
X88627500Y-50101500D01*
X90240250Y-50101500D01*
X90399000Y-49942750D01*
X90399000Y-49663690D01*
X90343624Y-49530000D01*
X90399000Y-49396310D01*
X90399000Y-49117250D01*
X90240250Y-48958500D01*
X88627500Y-48958500D01*
X88500500Y-48958500D01*
X88480500Y-48958500D01*
X88480500Y-48831500D01*
X88500500Y-48831500D01*
X88500500Y-48811500D01*
X88627500Y-48811500D01*
X88627500Y-48831500D01*
X90240250Y-48831500D01*
X90399000Y-48672750D01*
X90399000Y-48393690D01*
X90302327Y-48160301D01*
X90258388Y-48116362D01*
X90281952Y-48000000D01*
X90281952Y-47250000D01*
X90246530Y-47061747D01*
X90135272Y-46888847D01*
X89965512Y-46772855D01*
X89764000Y-46732048D01*
X89326000Y-46732048D01*
X89326000Y-44375000D01*
X89267996Y-44083395D01*
X89102815Y-43836185D01*
X88941880Y-43675250D01*
X121944000Y-43675250D01*
X121944000Y-45329310D01*
X122040673Y-45562699D01*
X122219302Y-45741327D01*
X122452691Y-45838000D01*
X122856750Y-45838000D01*
X123015500Y-45679250D01*
X123015500Y-43516500D01*
X122102750Y-43516500D01*
X121944000Y-43675250D01*
X88941880Y-43675250D01*
X86392582Y-41125952D01*
X87112000Y-41125952D01*
X87300253Y-41090530D01*
X87473153Y-40979272D01*
X87589145Y-40809512D01*
X87601804Y-40747000D01*
X89856370Y-40747000D01*
X89940165Y-40830795D01*
X89939652Y-41418664D01*
X90244708Y-42156955D01*
X90809074Y-42722307D01*
X91546832Y-43028651D01*
X92345664Y-43029348D01*
X93083955Y-42724292D01*
X93517753Y-42291250D01*
X95584000Y-42291250D01*
X95584000Y-42695310D01*
X95680673Y-42928699D01*
X95859302Y-43107327D01*
X96092691Y-43204000D01*
X97596750Y-43204000D01*
X97755500Y-43045250D01*
X97755500Y-42132500D01*
X97882500Y-42132500D01*
X97882500Y-43045250D01*
X98041250Y-43204000D01*
X99545309Y-43204000D01*
X99778698Y-43107327D01*
X99957327Y-42928699D01*
X100054000Y-42695310D01*
X100054000Y-42291250D01*
X102384000Y-42291250D01*
X102384000Y-42695310D01*
X102480673Y-42928699D01*
X102659302Y-43107327D01*
X102892691Y-43204000D01*
X104396750Y-43204000D01*
X104555500Y-43045250D01*
X104555500Y-42132500D01*
X104682500Y-42132500D01*
X104682500Y-43045250D01*
X104841250Y-43204000D01*
X106345309Y-43204000D01*
X106578698Y-43107327D01*
X106757327Y-42928699D01*
X106854000Y-42695310D01*
X106854000Y-42291250D01*
X106695250Y-42132500D01*
X104682500Y-42132500D01*
X104555500Y-42132500D01*
X102542750Y-42132500D01*
X102384000Y-42291250D01*
X100054000Y-42291250D01*
X99895250Y-42132500D01*
X97882500Y-42132500D01*
X97755500Y-42132500D01*
X95742750Y-42132500D01*
X95584000Y-42291250D01*
X93517753Y-42291250D01*
X93649307Y-42159926D01*
X93947129Y-41442690D01*
X95584000Y-41442690D01*
X95584000Y-41846750D01*
X95742750Y-42005500D01*
X97755500Y-42005500D01*
X97755500Y-41092750D01*
X97882500Y-41092750D01*
X97882500Y-42005500D01*
X99895250Y-42005500D01*
X100054000Y-41846750D01*
X100054000Y-41442690D01*
X102384000Y-41442690D01*
X102384000Y-41846750D01*
X102542750Y-42005500D01*
X104555500Y-42005500D01*
X104555500Y-41092750D01*
X104682500Y-41092750D01*
X104682500Y-42005500D01*
X106695250Y-42005500D01*
X106854000Y-41846750D01*
X106854000Y-41576690D01*
X121944000Y-41576690D01*
X121944000Y-43230750D01*
X122102750Y-43389500D01*
X123015500Y-43389500D01*
X123015500Y-41226750D01*
X122856750Y-41068000D01*
X122452691Y-41068000D01*
X122219302Y-41164673D01*
X122040673Y-41343301D01*
X121944000Y-41576690D01*
X106854000Y-41576690D01*
X106854000Y-41442690D01*
X106757327Y-41209301D01*
X106578698Y-41030673D01*
X106345309Y-40934000D01*
X104841250Y-40934000D01*
X104682500Y-41092750D01*
X104555500Y-41092750D01*
X104396750Y-40934000D01*
X102892691Y-40934000D01*
X102659302Y-41030673D01*
X102480673Y-41209301D01*
X102384000Y-41442690D01*
X100054000Y-41442690D01*
X99957327Y-41209301D01*
X99778698Y-41030673D01*
X99545309Y-40934000D01*
X98041250Y-40934000D01*
X97882500Y-41092750D01*
X97755500Y-41092750D01*
X97596750Y-40934000D01*
X96092691Y-40934000D01*
X95859302Y-41030673D01*
X95680673Y-41209301D01*
X95584000Y-41442690D01*
X93947129Y-41442690D01*
X93955651Y-41422168D01*
X93956348Y-40623336D01*
X93651292Y-39885045D01*
X93599000Y-39832662D01*
X93599000Y-37561236D01*
X94130747Y-37029489D01*
X94153470Y-37150253D01*
X94264728Y-37323153D01*
X94277000Y-37331538D01*
X94277000Y-37592048D01*
X94266000Y-37592048D01*
X94077747Y-37627470D01*
X93904847Y-37738728D01*
X93788855Y-37908488D01*
X93748048Y-38110000D01*
X93748048Y-39360000D01*
X93783470Y-39548253D01*
X93894728Y-39721153D01*
X94064488Y-39837145D01*
X94266000Y-39877952D01*
X95766000Y-39877952D01*
X95954253Y-39842530D01*
X96127153Y-39731272D01*
X96192719Y-39635313D01*
X96227673Y-39719699D01*
X96406302Y-39898327D01*
X96639691Y-39995000D01*
X97293750Y-39995000D01*
X97452500Y-39836250D01*
X97452500Y-38798500D01*
X97579500Y-38798500D01*
X97579500Y-39836250D01*
X97738250Y-39995000D01*
X98392309Y-39995000D01*
X98625698Y-39898327D01*
X98804327Y-39719699D01*
X98901000Y-39486310D01*
X98901000Y-38957250D01*
X98742250Y-38798500D01*
X97579500Y-38798500D01*
X97452500Y-38798500D01*
X97432500Y-38798500D01*
X97432500Y-38671500D01*
X97452500Y-38671500D01*
X97452500Y-38651500D01*
X97579500Y-38651500D01*
X97579500Y-38671500D01*
X98742250Y-38671500D01*
X98901000Y-38512750D01*
X98901000Y-37983690D01*
X98804327Y-37750301D01*
X98625698Y-37571673D01*
X98392309Y-37475000D01*
X97922318Y-37475000D01*
X98084253Y-37444530D01*
X98257153Y-37333272D01*
X98373145Y-37163512D01*
X98413952Y-36962000D01*
X98413952Y-36392074D01*
X98434327Y-36371699D01*
X98531000Y-36138310D01*
X98531000Y-35909250D01*
X98372250Y-35750500D01*
X97429500Y-35750500D01*
X97429500Y-35770500D01*
X97302500Y-35770500D01*
X97302500Y-35750500D01*
X97282500Y-35750500D01*
X97282500Y-35623500D01*
X97302500Y-35623500D01*
X97302500Y-35603500D01*
X97429500Y-35603500D01*
X97429500Y-35623500D01*
X98372250Y-35623500D01*
X98531000Y-35464750D01*
X98531000Y-35235690D01*
X98434327Y-35002301D01*
X98413952Y-34981926D01*
X98413952Y-34778000D01*
X98808306Y-34778000D01*
X98841470Y-34954253D01*
X98952728Y-35127153D01*
X99122488Y-35243145D01*
X99324000Y-35283952D01*
X100574000Y-35283952D01*
X100762253Y-35248530D01*
X100935153Y-35137272D01*
X101007082Y-35032000D01*
X102619660Y-35032000D01*
X108327079Y-40739420D01*
X108456636Y-40825987D01*
X108656694Y-40959662D01*
X109045500Y-41037000D01*
X124063000Y-41037000D01*
X124063000Y-41288974D01*
X123938698Y-41164673D01*
X123705309Y-41068000D01*
X123301250Y-41068000D01*
X123142500Y-41226750D01*
X123142500Y-43389500D01*
X123162500Y-43389500D01*
X123162500Y-43516500D01*
X123142500Y-43516500D01*
X123142500Y-45679250D01*
X123301250Y-45838000D01*
X123705309Y-45838000D01*
X123938698Y-45741327D01*
X124117327Y-45562699D01*
X124152363Y-45478114D01*
X124207728Y-45564153D01*
X124377488Y-45680145D01*
X124579000Y-45720952D01*
X125579000Y-45720952D01*
X125767253Y-45685530D01*
X125940153Y-45574272D01*
X126056145Y-45404512D01*
X126096952Y-45203000D01*
X126096952Y-43085691D01*
X142250000Y-43085691D01*
X142250000Y-43739750D01*
X142408750Y-43898500D01*
X143446500Y-43898500D01*
X143446500Y-42735750D01*
X143573500Y-42735750D01*
X143573500Y-43898500D01*
X145478500Y-43898500D01*
X145478500Y-42735750D01*
X145605500Y-42735750D01*
X145605500Y-43898500D01*
X147510500Y-43898500D01*
X147510500Y-42735750D01*
X147351750Y-42577000D01*
X146822690Y-42577000D01*
X146589301Y-42673673D01*
X146558000Y-42704974D01*
X146526699Y-42673673D01*
X146293310Y-42577000D01*
X145764250Y-42577000D01*
X145605500Y-42735750D01*
X145478500Y-42735750D01*
X145319750Y-42577000D01*
X144790690Y-42577000D01*
X144557301Y-42673673D01*
X144526000Y-42704974D01*
X144494699Y-42673673D01*
X144261310Y-42577000D01*
X143732250Y-42577000D01*
X143573500Y-42735750D01*
X143446500Y-42735750D01*
X143287750Y-42577000D01*
X142758690Y-42577000D01*
X142525301Y-42673673D01*
X142346673Y-42852302D01*
X142250000Y-43085691D01*
X126096952Y-43085691D01*
X126096952Y-41703000D01*
X126095000Y-41692626D01*
X126095000Y-41037000D01*
X148522000Y-41037000D01*
X148522000Y-41560750D01*
X148680750Y-41719500D01*
X149843500Y-41719500D01*
X149843500Y-41699500D01*
X149970500Y-41699500D01*
X149970500Y-41719500D01*
X151133250Y-41719500D01*
X151292000Y-41560750D01*
X151292000Y-41037000D01*
X151358488Y-41037000D01*
X151339048Y-41133000D01*
X151339048Y-42433000D01*
X151374470Y-42621253D01*
X151485728Y-42794153D01*
X151655488Y-42910145D01*
X151857000Y-42950952D01*
X152876926Y-42950952D01*
X152979022Y-43053048D01*
X151757000Y-43053048D01*
X151568747Y-43088470D01*
X151395847Y-43199728D01*
X151330281Y-43295687D01*
X151295327Y-43211301D01*
X151116698Y-43032673D01*
X150992647Y-42981289D01*
X151016698Y-42971327D01*
X151195327Y-42792699D01*
X151292000Y-42559310D01*
X151292000Y-42005250D01*
X151133250Y-41846500D01*
X149970500Y-41846500D01*
X149970500Y-41866500D01*
X149843500Y-41866500D01*
X149843500Y-41846500D01*
X148680750Y-41846500D01*
X148522000Y-42005250D01*
X148522000Y-42559310D01*
X148576917Y-42691891D01*
X148558699Y-42673673D01*
X148325310Y-42577000D01*
X147796250Y-42577000D01*
X147637500Y-42735750D01*
X147637500Y-43898500D01*
X147657500Y-43898500D01*
X147657500Y-44025500D01*
X147637500Y-44025500D01*
X147637500Y-44045500D01*
X147510500Y-44045500D01*
X147510500Y-44025500D01*
X145605500Y-44025500D01*
X145605500Y-44045500D01*
X145478500Y-44045500D01*
X145478500Y-44025500D01*
X143573500Y-44025500D01*
X143573500Y-44045500D01*
X143446500Y-44045500D01*
X143446500Y-44025500D01*
X142408750Y-44025500D01*
X142250000Y-44184250D01*
X142250000Y-44838309D01*
X142346673Y-45071698D01*
X142525301Y-45250327D01*
X142609886Y-45285363D01*
X142523847Y-45340728D01*
X142407855Y-45510488D01*
X142367048Y-45712000D01*
X142367048Y-45847000D01*
X142152841Y-45847000D01*
X141181333Y-44875493D01*
X141038269Y-44732179D01*
X140664982Y-44577176D01*
X140260792Y-44576824D01*
X140073194Y-44654338D01*
X140073193Y-44654338D01*
X140073192Y-44654339D01*
X139887234Y-44731175D01*
X139601179Y-45016731D01*
X139446176Y-45390018D01*
X139445824Y-45794208D01*
X139600175Y-46167766D01*
X139885731Y-46453821D01*
X139886158Y-46453998D01*
X140549159Y-47117000D01*
X139617493Y-48048667D01*
X139474179Y-48191731D01*
X139319176Y-48565018D01*
X139318824Y-48969208D01*
X139473175Y-49342766D01*
X139758731Y-49628821D01*
X140132018Y-49783824D01*
X140536208Y-49784176D01*
X140723806Y-49706662D01*
X140723807Y-49706662D01*
X140723808Y-49706661D01*
X140843000Y-49657412D01*
X140843000Y-49911000D01*
X140877742Y-50095636D01*
X140986862Y-50265214D01*
X141153360Y-50378977D01*
X141351000Y-50419000D01*
X143845218Y-50419000D01*
X143586693Y-50677074D01*
X143280349Y-51414832D01*
X143279652Y-52213664D01*
X143584708Y-52951955D01*
X144149074Y-53517307D01*
X144272000Y-53568350D01*
X144272000Y-54609113D01*
X144271824Y-54811208D01*
X144426175Y-55184766D01*
X144711731Y-55470821D01*
X145085018Y-55625824D01*
X145489208Y-55626176D01*
X145862766Y-55471825D01*
X146148821Y-55186269D01*
X146303824Y-54812982D01*
X146304176Y-54408792D01*
X146304000Y-54408366D01*
X146304000Y-53568856D01*
X146423955Y-53519292D01*
X146989307Y-52954926D01*
X147295651Y-52217168D01*
X147296348Y-51418336D01*
X146991292Y-50680045D01*
X146730702Y-50419000D01*
X147828000Y-50419000D01*
X147828000Y-51220729D01*
X147818747Y-51222470D01*
X147645847Y-51333728D01*
X147529855Y-51503488D01*
X147489048Y-51705000D01*
X147489048Y-53705000D01*
X147524470Y-53893253D01*
X147635728Y-54066153D01*
X147805488Y-54182145D01*
X148007000Y-54222952D01*
X150007000Y-54222952D01*
X150195253Y-54187530D01*
X150368153Y-54076272D01*
X150484145Y-53906512D01*
X150524952Y-53705000D01*
X150524952Y-51705000D01*
X150489530Y-51516747D01*
X150378272Y-51343847D01*
X150208512Y-51227855D01*
X150114000Y-51208716D01*
X150114000Y-49155952D01*
X150194500Y-49155952D01*
X150201744Y-49154589D01*
X150330690Y-49208000D01*
X151034750Y-49208000D01*
X151193500Y-49049250D01*
X151193500Y-47561500D01*
X151173500Y-47561500D01*
X151173500Y-47434500D01*
X151193500Y-47434500D01*
X151193500Y-45946750D01*
X151034750Y-45788000D01*
X150330690Y-45788000D01*
X150201576Y-45841481D01*
X150194500Y-45840048D01*
X149394500Y-45840048D01*
X149206247Y-45875470D01*
X149033347Y-45986728D01*
X149011175Y-46019177D01*
X148859239Y-45924217D01*
X148716952Y-45883409D01*
X148716952Y-45712000D01*
X148681530Y-45523747D01*
X148570272Y-45350847D01*
X148474313Y-45285281D01*
X148558699Y-45250327D01*
X148692211Y-45116814D01*
X148718673Y-45180699D01*
X148897302Y-45359327D01*
X149130691Y-45456000D01*
X149784750Y-45456000D01*
X149943500Y-45297250D01*
X149943500Y-44259500D01*
X149923500Y-44259500D01*
X149923500Y-44132500D01*
X149943500Y-44132500D01*
X149943500Y-44112500D01*
X150070500Y-44112500D01*
X150070500Y-44132500D01*
X150090500Y-44132500D01*
X150090500Y-44259500D01*
X150070500Y-44259500D01*
X150070500Y-45297250D01*
X150229250Y-45456000D01*
X150883309Y-45456000D01*
X151116698Y-45359327D01*
X151295327Y-45180699D01*
X151330363Y-45096114D01*
X151385728Y-45182153D01*
X151555488Y-45298145D01*
X151757000Y-45338952D01*
X151872000Y-45338952D01*
X151872000Y-45788000D01*
X151479250Y-45788000D01*
X151320500Y-45946750D01*
X151320500Y-47434500D01*
X151340500Y-47434500D01*
X151340500Y-47561500D01*
X151320500Y-47561500D01*
X151320500Y-49049250D01*
X151479250Y-49208000D01*
X152183310Y-49208000D01*
X152312424Y-49154519D01*
X152316005Y-49155244D01*
X152491000Y-49738560D01*
X152491000Y-51190059D01*
X152318747Y-51222470D01*
X152145847Y-51333728D01*
X152029855Y-51503488D01*
X151989048Y-51705000D01*
X151989048Y-53705000D01*
X152024470Y-53893253D01*
X152135728Y-54066153D01*
X152305488Y-54182145D01*
X152507000Y-54222952D01*
X154507000Y-54222952D01*
X154695253Y-54187530D01*
X154868153Y-54076272D01*
X154984145Y-53906512D01*
X155024952Y-53705000D01*
X155024952Y-51705000D01*
X154989530Y-51516747D01*
X154878272Y-51343847D01*
X154708512Y-51227855D01*
X154523000Y-51190288D01*
X154523000Y-50240250D01*
X155077000Y-50240250D01*
X155077000Y-50894309D01*
X155173673Y-51127698D01*
X155352301Y-51306327D01*
X155585690Y-51403000D01*
X156114750Y-51403000D01*
X156273500Y-51244250D01*
X156273500Y-50081500D01*
X156400500Y-50081500D01*
X156400500Y-51244250D01*
X156559250Y-51403000D01*
X157088310Y-51403000D01*
X157321699Y-51306327D01*
X157500327Y-51127698D01*
X157597000Y-50894309D01*
X157597000Y-50240250D01*
X157438250Y-50081500D01*
X156400500Y-50081500D01*
X156273500Y-50081500D01*
X155235750Y-50081500D01*
X155077000Y-50240250D01*
X154523000Y-50240250D01*
X154523000Y-50018937D01*
X154991876Y-49497964D01*
X155077000Y-49412840D01*
X155077000Y-49795750D01*
X155235750Y-49954500D01*
X156273500Y-49954500D01*
X156273500Y-49934500D01*
X156400500Y-49934500D01*
X156400500Y-49954500D01*
X157438250Y-49954500D01*
X157597000Y-49795750D01*
X157597000Y-49141691D01*
X157500327Y-48908302D01*
X157321699Y-48729673D01*
X157237114Y-48694637D01*
X157323153Y-48639272D01*
X157439145Y-48469512D01*
X157479952Y-48268000D01*
X157479952Y-47969415D01*
X157710420Y-47815420D01*
X158579421Y-46946420D01*
X158799662Y-46616807D01*
X158877000Y-46228000D01*
X158877000Y-43180000D01*
X158858241Y-43085691D01*
X158799662Y-42791193D01*
X158579421Y-42461580D01*
X155420420Y-39302580D01*
X155090807Y-39082338D01*
X155003551Y-39064982D01*
X154702000Y-39005000D01*
X109466341Y-39005000D01*
X105841532Y-35380191D01*
X122951612Y-35380191D01*
X123105410Y-35706665D01*
X123886792Y-36039605D01*
X124736104Y-36048178D01*
X125524047Y-35731082D01*
X125560590Y-35706665D01*
X125714388Y-35380191D01*
X124333000Y-33998803D01*
X122951612Y-35380191D01*
X105841532Y-35380191D01*
X104773445Y-34312104D01*
X122193822Y-34312104D01*
X122510918Y-35100047D01*
X122535335Y-35136590D01*
X122861809Y-35290388D01*
X124243197Y-33909000D01*
X124422803Y-33909000D01*
X125804191Y-35290388D01*
X126130665Y-35136590D01*
X126463605Y-34355208D01*
X126472069Y-33516683D01*
X148621565Y-33516683D01*
X149002581Y-34438812D01*
X149707477Y-35144939D01*
X150628939Y-35527564D01*
X151626683Y-35528435D01*
X152241857Y-35274250D01*
X159036000Y-35274250D01*
X159036000Y-35803310D01*
X159132673Y-36036699D01*
X159311302Y-36215327D01*
X159544691Y-36312000D01*
X160198750Y-36312000D01*
X160357500Y-36153250D01*
X160357500Y-35115500D01*
X159194750Y-35115500D01*
X159036000Y-35274250D01*
X152241857Y-35274250D01*
X152548812Y-35147419D01*
X153254939Y-34442523D01*
X153313833Y-34300690D01*
X159036000Y-34300690D01*
X159036000Y-34829750D01*
X159194750Y-34988500D01*
X160357500Y-34988500D01*
X160357500Y-33950750D01*
X160484500Y-33950750D01*
X160484500Y-34988500D01*
X160504500Y-34988500D01*
X160504500Y-35115500D01*
X160484500Y-35115500D01*
X160484500Y-36153250D01*
X160643250Y-36312000D01*
X161297309Y-36312000D01*
X161530698Y-36215327D01*
X161709327Y-36036699D01*
X161744363Y-35952114D01*
X161799728Y-36038153D01*
X161969488Y-36154145D01*
X162171000Y-36194952D01*
X163671000Y-36194952D01*
X163859253Y-36159530D01*
X164001495Y-36068000D01*
X172084593Y-36068000D01*
X172390018Y-36194824D01*
X172794208Y-36195176D01*
X172981806Y-36117662D01*
X172981807Y-36117662D01*
X172981808Y-36117661D01*
X173167766Y-36040825D01*
X173453821Y-35755269D01*
X173608824Y-35381982D01*
X173609176Y-34977792D01*
X173454825Y-34604234D01*
X173169269Y-34318179D01*
X173148405Y-34309516D01*
X172854807Y-34113338D01*
X172790300Y-34100507D01*
X172466000Y-34036000D01*
X163998589Y-34036000D01*
X163937000Y-33993918D01*
X163937000Y-33270723D01*
X163956824Y-33222982D01*
X163957176Y-32818792D01*
X163802825Y-32445234D01*
X163517269Y-32159179D01*
X163143982Y-32004176D01*
X162739792Y-32003824D01*
X162366234Y-32158175D01*
X162080179Y-32443731D01*
X162013231Y-32604958D01*
X161982338Y-32651193D01*
X161982338Y-32651194D01*
X161971585Y-32705253D01*
X161925176Y-32817018D01*
X161925070Y-32939102D01*
X161905000Y-33040000D01*
X161905000Y-33994499D01*
X161809847Y-34055728D01*
X161744281Y-34151687D01*
X161709327Y-34067301D01*
X161530698Y-33888673D01*
X161297309Y-33792000D01*
X160643250Y-33792000D01*
X160484500Y-33950750D01*
X160357500Y-33950750D01*
X160198750Y-33792000D01*
X159544691Y-33792000D01*
X159311302Y-33888673D01*
X159132673Y-34067301D01*
X159036000Y-34300690D01*
X153313833Y-34300690D01*
X153637564Y-33521061D01*
X153638435Y-32523317D01*
X153257419Y-31601188D01*
X152552523Y-30895061D01*
X151631061Y-30512436D01*
X150633317Y-30511565D01*
X149711188Y-30892581D01*
X149005061Y-31597477D01*
X148622436Y-32518939D01*
X148621565Y-33516683D01*
X126472069Y-33516683D01*
X126472178Y-33505896D01*
X126155082Y-32717953D01*
X126130665Y-32681410D01*
X125804191Y-32527612D01*
X124422803Y-33909000D01*
X124243197Y-33909000D01*
X122861809Y-32527612D01*
X122535335Y-32681410D01*
X122202395Y-33462792D01*
X122193822Y-34312104D01*
X104773445Y-34312104D01*
X103758920Y-33297580D01*
X103429307Y-33077338D01*
X103364704Y-33064488D01*
X103040500Y-33000000D01*
X101006501Y-33000000D01*
X100945272Y-32904847D01*
X100849313Y-32839281D01*
X100933699Y-32804327D01*
X101112327Y-32625698D01*
X101190153Y-32437809D01*
X122951612Y-32437809D01*
X124333000Y-33819197D01*
X125714388Y-32437809D01*
X125560590Y-32111335D01*
X124779208Y-31778395D01*
X123929896Y-31769822D01*
X123141953Y-32086918D01*
X123105410Y-32111335D01*
X122951612Y-32437809D01*
X101190153Y-32437809D01*
X101209000Y-32392309D01*
X101209000Y-31738250D01*
X101050250Y-31579500D01*
X100012500Y-31579500D01*
X100012500Y-31599500D01*
X99885500Y-31599500D01*
X99885500Y-31579500D01*
X98847750Y-31579500D01*
X98689000Y-31738250D01*
X98689000Y-32392309D01*
X98785673Y-32625698D01*
X98964301Y-32804327D01*
X99048886Y-32839363D01*
X98962847Y-32894728D01*
X98846855Y-33064488D01*
X98808478Y-33254000D01*
X98087000Y-33254000D01*
X97795395Y-33312004D01*
X97662204Y-33401000D01*
X97548185Y-33477185D01*
X97131322Y-33894048D01*
X96836000Y-33894048D01*
X96647747Y-33929470D01*
X96518374Y-34012719D01*
X96416395Y-34033004D01*
X96169184Y-34198185D01*
X96164862Y-34202507D01*
X96067272Y-34050847D01*
X95897512Y-33934855D01*
X95732688Y-33901477D01*
X95723258Y-33851364D01*
X95614138Y-33681786D01*
X95447640Y-33568023D01*
X95250000Y-33528000D01*
X93598952Y-33528000D01*
X93598952Y-33266000D01*
X93563530Y-33077747D01*
X93452272Y-32904847D01*
X93356313Y-32839281D01*
X93440699Y-32804327D01*
X93619327Y-32625698D01*
X93716000Y-32392309D01*
X93716000Y-31738250D01*
X93557250Y-31579500D01*
X92519500Y-31579500D01*
X92519500Y-31599500D01*
X92392500Y-31599500D01*
X92392500Y-31579500D01*
X91354750Y-31579500D01*
X91196000Y-31738250D01*
X91196000Y-32392309D01*
X91292673Y-32625698D01*
X91471301Y-32804327D01*
X91555886Y-32839363D01*
X91469847Y-32894728D01*
X91353855Y-33064488D01*
X91313048Y-33266000D01*
X91313048Y-33528000D01*
X90043000Y-33528000D01*
X89858364Y-33562742D01*
X89688786Y-33671862D01*
X89575023Y-33838360D01*
X89535000Y-34036000D01*
X89535000Y-38969000D01*
X87603798Y-38969000D01*
X87594530Y-38919747D01*
X87483272Y-38746847D01*
X87387313Y-38681281D01*
X87471699Y-38646327D01*
X87650327Y-38467698D01*
X87747000Y-38234309D01*
X87747000Y-37580250D01*
X87588250Y-37421500D01*
X86550500Y-37421500D01*
X86550500Y-37441500D01*
X86423500Y-37441500D01*
X86423500Y-37421500D01*
X85385750Y-37421500D01*
X85344000Y-37463250D01*
X85302250Y-37421500D01*
X84264500Y-37421500D01*
X84264500Y-37441500D01*
X84137500Y-37441500D01*
X84137500Y-37421500D01*
X83099750Y-37421500D01*
X83058000Y-37463250D01*
X83016250Y-37421500D01*
X81978500Y-37421500D01*
X81978500Y-37441500D01*
X81851500Y-37441500D01*
X81851500Y-37421500D01*
X80813750Y-37421500D01*
X80655000Y-37580250D01*
X80655000Y-38234309D01*
X80751673Y-38467698D01*
X80930301Y-38646327D01*
X81014886Y-38681363D01*
X80928847Y-38736728D01*
X80812855Y-38906488D01*
X80772048Y-39108000D01*
X80772048Y-39643000D01*
X79795750Y-39643000D01*
X79694250Y-39541500D01*
X79442409Y-39541500D01*
X79419512Y-39525855D01*
X79218000Y-39485048D01*
X77618000Y-39485048D01*
X77429747Y-39520470D01*
X77397065Y-39541500D01*
X77141750Y-39541500D01*
X76983000Y-39700250D01*
X76983000Y-39879310D01*
X77079673Y-40112699D01*
X77100048Y-40133074D01*
X77100048Y-40316000D01*
X76016000Y-40316000D01*
X75724395Y-40374004D01*
X75638005Y-40431728D01*
X75477185Y-40539184D01*
X74100370Y-41916000D01*
X70870846Y-41916000D01*
X70718000Y-41885048D01*
X69118000Y-41885048D01*
X68929747Y-41920470D01*
X68897065Y-41941500D01*
X68641750Y-41941500D01*
X68483000Y-42100250D01*
X68483000Y-42279310D01*
X68579673Y-42512699D01*
X68600048Y-42533074D01*
X68600048Y-42918322D01*
X68576851Y-42941519D01*
X68544530Y-42769747D01*
X68433272Y-42596847D01*
X68263512Y-42480855D01*
X68062000Y-42440048D01*
X66812000Y-42440048D01*
X66623747Y-42475470D01*
X66450847Y-42586728D01*
X66334855Y-42756488D01*
X66294048Y-42958000D01*
X66294048Y-43073000D01*
X65810952Y-43073000D01*
X65810952Y-42799000D01*
X65913000Y-42799000D01*
X66156004Y-42750664D01*
X66362013Y-42613013D01*
X67505013Y-41470013D01*
X67642664Y-41264004D01*
X67691000Y-41021000D01*
X67691000Y-37601026D01*
X68628239Y-36663787D01*
X68600048Y-36803000D01*
X68600048Y-37353000D01*
X68624432Y-37482589D01*
X68600048Y-37603000D01*
X68600048Y-38153000D01*
X68624432Y-38282589D01*
X68600048Y-38403000D01*
X68600048Y-38953000D01*
X68624432Y-39082589D01*
X68600048Y-39203000D01*
X68600048Y-39753000D01*
X68624432Y-39882589D01*
X68600048Y-40003000D01*
X68600048Y-40553000D01*
X68624432Y-40682589D01*
X68600048Y-40803000D01*
X68600048Y-41222926D01*
X68579673Y-41243301D01*
X68483000Y-41476690D01*
X68483000Y-41655750D01*
X68641750Y-41814500D01*
X68893591Y-41814500D01*
X68916488Y-41830145D01*
X69118000Y-41870952D01*
X70718000Y-41870952D01*
X70906253Y-41835530D01*
X70938935Y-41814500D01*
X71194250Y-41814500D01*
X71353000Y-41655750D01*
X71353000Y-41476690D01*
X71256327Y-41243301D01*
X71235952Y-41222926D01*
X71235952Y-40803000D01*
X71211568Y-40673411D01*
X71235952Y-40553000D01*
X71235952Y-40003000D01*
X71211568Y-39873411D01*
X71235952Y-39753000D01*
X71235952Y-39203000D01*
X71211568Y-39073411D01*
X71235952Y-38953000D01*
X71235952Y-38403000D01*
X71211568Y-38273411D01*
X71235952Y-38153000D01*
X71235952Y-37603000D01*
X71211568Y-37473411D01*
X71235952Y-37353000D01*
X71235952Y-36945952D01*
X71643000Y-36945952D01*
X71772589Y-36921568D01*
X71893000Y-36945952D01*
X72443000Y-36945952D01*
X72572589Y-36921568D01*
X72693000Y-36945952D01*
X73243000Y-36945952D01*
X73372589Y-36921568D01*
X73493000Y-36945952D01*
X74043000Y-36945952D01*
X74172589Y-36921568D01*
X74293000Y-36945952D01*
X74843000Y-36945952D01*
X74972589Y-36921568D01*
X75093000Y-36945952D01*
X75643000Y-36945952D01*
X75772589Y-36921568D01*
X75893000Y-36945952D01*
X76225741Y-36945952D01*
X76133234Y-36984175D01*
X75847179Y-37269731D01*
X75692176Y-37643018D01*
X75691824Y-38047208D01*
X75846175Y-38420766D01*
X76131731Y-38706821D01*
X76505018Y-38861824D01*
X76909208Y-38862176D01*
X77100048Y-38783323D01*
X77100048Y-38822926D01*
X77079673Y-38843301D01*
X76983000Y-39076690D01*
X76983000Y-39255750D01*
X77141750Y-39414500D01*
X77393591Y-39414500D01*
X77416488Y-39430145D01*
X77618000Y-39470952D01*
X79218000Y-39470952D01*
X79406253Y-39435530D01*
X79438935Y-39414500D01*
X79694250Y-39414500D01*
X79853000Y-39255750D01*
X79853000Y-39076690D01*
X79756327Y-38843301D01*
X79735952Y-38822926D01*
X79735952Y-38403000D01*
X79711568Y-38273411D01*
X79735952Y-38153000D01*
X79735952Y-37692920D01*
X79878004Y-37664664D01*
X80084013Y-37527013D01*
X80655000Y-36956026D01*
X80655000Y-37135750D01*
X80813750Y-37294500D01*
X81851500Y-37294500D01*
X81851500Y-36131750D01*
X81978500Y-36131750D01*
X81978500Y-37294500D01*
X83016250Y-37294500D01*
X83058000Y-37252750D01*
X83099750Y-37294500D01*
X84137500Y-37294500D01*
X84137500Y-36131750D01*
X84264500Y-36131750D01*
X84264500Y-37294500D01*
X85302250Y-37294500D01*
X85344000Y-37252750D01*
X85385750Y-37294500D01*
X86423500Y-37294500D01*
X86423500Y-36131750D01*
X86550500Y-36131750D01*
X86550500Y-37294500D01*
X87588250Y-37294500D01*
X87747000Y-37135750D01*
X87747000Y-36481691D01*
X87650327Y-36248302D01*
X87471699Y-36069673D01*
X87238310Y-35973000D01*
X86709250Y-35973000D01*
X86550500Y-36131750D01*
X86423500Y-36131750D01*
X86264750Y-35973000D01*
X85735690Y-35973000D01*
X85502301Y-36069673D01*
X85344000Y-36227975D01*
X85185699Y-36069673D01*
X84952310Y-35973000D01*
X84423250Y-35973000D01*
X84264500Y-36131750D01*
X84137500Y-36131750D01*
X83978750Y-35973000D01*
X83449690Y-35973000D01*
X83216301Y-36069673D01*
X83058000Y-36227975D01*
X82899699Y-36069673D01*
X82666310Y-35973000D01*
X82137250Y-35973000D01*
X81978500Y-36131750D01*
X81851500Y-36131750D01*
X81692750Y-35973000D01*
X81638026Y-35973000D01*
X83257525Y-34353500D01*
X84899500Y-34353500D01*
X85142504Y-34305164D01*
X85348513Y-34167513D01*
X88528128Y-30987898D01*
X88847208Y-30988176D01*
X89220766Y-30833825D01*
X89415239Y-30639691D01*
X91196000Y-30639691D01*
X91196000Y-31293750D01*
X91354750Y-31452500D01*
X92392500Y-31452500D01*
X92392500Y-30289750D01*
X92519500Y-30289750D01*
X92519500Y-31452500D01*
X93557250Y-31452500D01*
X93716000Y-31293750D01*
X93716000Y-30639691D01*
X98689000Y-30639691D01*
X98689000Y-31293750D01*
X98847750Y-31452500D01*
X99885500Y-31452500D01*
X99885500Y-30289750D01*
X100012500Y-30289750D01*
X100012500Y-31452500D01*
X101050250Y-31452500D01*
X101209000Y-31293750D01*
X101209000Y-30639691D01*
X101112327Y-30406302D01*
X100933699Y-30227673D01*
X100802210Y-30173208D01*
X110235824Y-30173208D01*
X110390175Y-30546766D01*
X110675731Y-30832821D01*
X111049018Y-30987824D01*
X111453208Y-30988176D01*
X111826766Y-30833825D01*
X112053987Y-30607000D01*
X135469304Y-30607000D01*
X135694731Y-30832821D01*
X135772778Y-30865229D01*
X135606747Y-30896470D01*
X135464505Y-30988000D01*
X134747887Y-30988000D01*
X134545792Y-30987824D01*
X134172234Y-31142175D01*
X133886179Y-31427731D01*
X133731176Y-31801018D01*
X133730824Y-32205208D01*
X133885175Y-32578766D01*
X134170731Y-32864821D01*
X134544018Y-33019824D01*
X134948208Y-33020176D01*
X134948634Y-33020000D01*
X135467411Y-33020000D01*
X135593488Y-33106145D01*
X135795000Y-33146952D01*
X137295000Y-33146952D01*
X137483253Y-33111530D01*
X137656153Y-33000272D01*
X137721719Y-32904313D01*
X137756673Y-32988699D01*
X137935302Y-33167327D01*
X138168691Y-33264000D01*
X138822750Y-33264000D01*
X138981500Y-33105250D01*
X138981500Y-32067500D01*
X139108500Y-32067500D01*
X139108500Y-33105250D01*
X139267250Y-33264000D01*
X139921309Y-33264000D01*
X140154698Y-33167327D01*
X140333327Y-32988699D01*
X140430000Y-32755310D01*
X140430000Y-32226250D01*
X140271250Y-32067500D01*
X139108500Y-32067500D01*
X138981500Y-32067500D01*
X138961500Y-32067500D01*
X138961500Y-31940500D01*
X138981500Y-31940500D01*
X138981500Y-30902750D01*
X139108500Y-30902750D01*
X139108500Y-31940500D01*
X140271250Y-31940500D01*
X140430000Y-31781750D01*
X140430000Y-31252690D01*
X140333327Y-31019301D01*
X140154698Y-30840673D01*
X139921309Y-30744000D01*
X139267250Y-30744000D01*
X139108500Y-30902750D01*
X138981500Y-30902750D01*
X138822750Y-30744000D01*
X138168691Y-30744000D01*
X137935302Y-30840673D01*
X137756673Y-31019301D01*
X137721637Y-31103886D01*
X137666272Y-31017847D01*
X137496512Y-30901855D01*
X137295000Y-30861048D01*
X136779881Y-30861048D01*
X136845766Y-30833825D01*
X137131821Y-30548269D01*
X137286824Y-30174982D01*
X137287176Y-29770792D01*
X137132825Y-29397234D01*
X136847269Y-29111179D01*
X136473982Y-28956176D01*
X136069792Y-28955824D01*
X135696234Y-29110175D01*
X135469013Y-29337000D01*
X112053696Y-29337000D01*
X111828269Y-29111179D01*
X111454982Y-28956176D01*
X111050792Y-28955824D01*
X110677234Y-29110175D01*
X110391179Y-29395731D01*
X110236176Y-29769018D01*
X110235824Y-30173208D01*
X100802210Y-30173208D01*
X100700310Y-30131000D01*
X100171250Y-30131000D01*
X100012500Y-30289750D01*
X99885500Y-30289750D01*
X99726750Y-30131000D01*
X99197690Y-30131000D01*
X98964301Y-30227673D01*
X98785673Y-30406302D01*
X98689000Y-30639691D01*
X93716000Y-30639691D01*
X93619327Y-30406302D01*
X93440699Y-30227673D01*
X93207310Y-30131000D01*
X92678250Y-30131000D01*
X92519500Y-30289750D01*
X92392500Y-30289750D01*
X92233750Y-30131000D01*
X91704690Y-30131000D01*
X91471301Y-30227673D01*
X91292673Y-30406302D01*
X91196000Y-30639691D01*
X89415239Y-30639691D01*
X89506821Y-30548269D01*
X89661824Y-30174982D01*
X89662176Y-29770792D01*
X89507825Y-29397234D01*
X89222269Y-29111179D01*
X88848982Y-28956176D01*
X88444792Y-28955824D01*
X88071234Y-29110175D01*
X87785179Y-29395731D01*
X87630176Y-29769018D01*
X87629896Y-30090078D01*
X84636474Y-33083500D01*
X82994500Y-33083500D01*
X82751495Y-33131836D01*
X82728873Y-33146952D01*
X82545487Y-33269487D01*
X82545485Y-33269490D01*
X79460864Y-36354110D01*
X79419512Y-36325855D01*
X79218000Y-36285048D01*
X77760952Y-36285048D01*
X77760952Y-34828000D01*
X77725530Y-34639747D01*
X77614272Y-34466847D01*
X77603000Y-34459145D01*
X77603000Y-32646405D01*
X77681691Y-32679000D01*
X77785750Y-32679000D01*
X77944500Y-32520250D01*
X77944500Y-32378175D01*
X78035145Y-32245512D01*
X78071500Y-32065985D01*
X78071500Y-32520250D01*
X78230250Y-32679000D01*
X78334309Y-32679000D01*
X78513178Y-32604910D01*
X78631691Y-32654000D01*
X79585750Y-32654000D01*
X79744500Y-32495250D01*
X79744500Y-31282500D01*
X79871500Y-31282500D01*
X79871500Y-32495250D01*
X80030250Y-32654000D01*
X80984309Y-32654000D01*
X81217698Y-32557327D01*
X81396327Y-32378699D01*
X81493000Y-32145310D01*
X81493000Y-31441250D01*
X81334250Y-31282500D01*
X79871500Y-31282500D01*
X79744500Y-31282500D01*
X79724500Y-31282500D01*
X79724500Y-31155500D01*
X79744500Y-31155500D01*
X79744500Y-31135500D01*
X79871500Y-31135500D01*
X79871500Y-31155500D01*
X81334250Y-31155500D01*
X81493000Y-30996750D01*
X81493000Y-30292690D01*
X81436616Y-30156568D01*
X81596253Y-30126530D01*
X81769153Y-30015272D01*
X81885145Y-29845512D01*
X81925952Y-29644000D01*
X81925952Y-27744000D01*
X81895658Y-27583000D01*
X175895000Y-27583000D01*
X175895000Y-30167112D01*
X158172433Y-86417000D01*
X119864500Y-86417000D01*
X120014824Y-86054982D01*
X120015176Y-85650792D01*
X119860825Y-85277234D01*
X119575269Y-84991179D01*
X119507701Y-84963122D01*
X119573766Y-84935825D01*
X119859821Y-84650269D01*
X120014824Y-84276982D01*
X120015028Y-84042250D01*
X136557000Y-84042250D01*
X136557000Y-84571310D01*
X136653673Y-84804699D01*
X136832302Y-84983327D01*
X137065691Y-85080000D01*
X137719750Y-85080000D01*
X137878500Y-84921250D01*
X137878500Y-83883500D01*
X136715750Y-83883500D01*
X136557000Y-84042250D01*
X120015028Y-84042250D01*
X120015176Y-83872792D01*
X119860825Y-83499234D01*
X119575269Y-83213179D01*
X119227303Y-83068690D01*
X136557000Y-83068690D01*
X136557000Y-83597750D01*
X136715750Y-83756500D01*
X137878500Y-83756500D01*
X137878500Y-82718750D01*
X138005500Y-82718750D01*
X138005500Y-83756500D01*
X138025500Y-83756500D01*
X138025500Y-83883500D01*
X138005500Y-83883500D01*
X138005500Y-84921250D01*
X138164250Y-85080000D01*
X138818309Y-85080000D01*
X139051698Y-84983327D01*
X139230327Y-84804699D01*
X139265363Y-84720114D01*
X139320728Y-84806153D01*
X139490488Y-84922145D01*
X139692000Y-84962952D01*
X141192000Y-84962952D01*
X141352128Y-84932822D01*
X141363764Y-84950236D01*
X141940589Y-85335658D01*
X142621000Y-85471000D01*
X143301411Y-85335658D01*
X143878236Y-84950236D01*
X147167472Y-81661000D01*
X148971000Y-81661000D01*
X149651411Y-81525658D01*
X150228236Y-81140236D01*
X150613658Y-80563411D01*
X150749000Y-79883000D01*
X150613658Y-79202589D01*
X150228236Y-78625764D01*
X149651411Y-78240342D01*
X148971000Y-78105000D01*
X146431000Y-78105000D01*
X145750589Y-78240342D01*
X145173764Y-78625764D01*
X141363764Y-82435764D01*
X141202575Y-82677000D01*
X140569000Y-82677000D01*
X140568759Y-82677048D01*
X139692000Y-82677048D01*
X139503747Y-82712470D01*
X139330847Y-82823728D01*
X139265281Y-82919687D01*
X139230327Y-82835301D01*
X139051698Y-82656673D01*
X138818309Y-82560000D01*
X138164250Y-82560000D01*
X138005500Y-82718750D01*
X137878500Y-82718750D01*
X137719750Y-82560000D01*
X137065691Y-82560000D01*
X136832302Y-82656673D01*
X136653673Y-82835301D01*
X136557000Y-83068690D01*
X119227303Y-83068690D01*
X119201982Y-83058176D01*
X118797792Y-83057824D01*
X118424234Y-83212175D01*
X118197013Y-83439000D01*
X85344412Y-83439000D01*
X85316825Y-83372234D01*
X85031269Y-83086179D01*
X84657982Y-82931176D01*
X84253792Y-82930824D01*
X83880234Y-83085175D01*
X83594179Y-83370731D01*
X83439176Y-83744018D01*
X83438824Y-84148208D01*
X83593175Y-84521766D01*
X83878731Y-84807821D01*
X84099601Y-84899535D01*
X83880234Y-84990175D01*
X83594179Y-85275731D01*
X83439176Y-85649018D01*
X83438824Y-86053208D01*
X83589140Y-86417000D01*
X71229888Y-86417000D01*
X71345821Y-86301269D01*
X71500824Y-85927982D01*
X71501176Y-85523792D01*
X71346825Y-85150234D01*
X71096342Y-84899313D01*
X71345821Y-84650269D01*
X71500824Y-84276982D01*
X71501176Y-83872792D01*
X71346825Y-83499234D01*
X71061269Y-83213179D01*
X70687982Y-83058176D01*
X70283792Y-83057824D01*
X69910234Y-83212175D01*
X69683013Y-83439000D01*
X35433412Y-83439000D01*
X35405825Y-83372234D01*
X35120269Y-83086179D01*
X34746982Y-82931176D01*
X34342792Y-82930824D01*
X33969234Y-83085175D01*
X33683179Y-83370731D01*
X33528176Y-83744018D01*
X33527824Y-84148208D01*
X33682175Y-84521766D01*
X33967731Y-84807821D01*
X34035299Y-84835878D01*
X33969234Y-84863175D01*
X33683179Y-85148731D01*
X33528176Y-85522018D01*
X33527824Y-85926208D01*
X33682175Y-86299766D01*
X33799204Y-86417000D01*
X29286200Y-86417000D01*
X29286200Y-83426000D01*
X31861551Y-78994000D01*
X32258000Y-78994000D01*
X32393342Y-79674411D01*
X32778764Y-80251236D01*
X33355589Y-80636658D01*
X34036000Y-80772000D01*
X44450000Y-80772000D01*
X45130411Y-80636658D01*
X45707236Y-80251236D01*
X45868425Y-80010000D01*
X46059411Y-80010000D01*
X46185488Y-80096145D01*
X46387000Y-80136952D01*
X47887000Y-80136952D01*
X48075253Y-80101530D01*
X48248153Y-79990272D01*
X48313719Y-79894313D01*
X48348673Y-79978699D01*
X48527302Y-80157327D01*
X48760691Y-80254000D01*
X49414750Y-80254000D01*
X49573500Y-80095250D01*
X49573500Y-79057500D01*
X49700500Y-79057500D01*
X49700500Y-80095250D01*
X49859250Y-80254000D01*
X50513309Y-80254000D01*
X50746698Y-80157327D01*
X50925327Y-79978699D01*
X51022000Y-79745310D01*
X51022000Y-79216250D01*
X55023000Y-79216250D01*
X55023000Y-79745310D01*
X55119673Y-79978699D01*
X55298302Y-80157327D01*
X55531691Y-80254000D01*
X56185750Y-80254000D01*
X56344500Y-80095250D01*
X56344500Y-79057500D01*
X55181750Y-79057500D01*
X55023000Y-79216250D01*
X51022000Y-79216250D01*
X50863250Y-79057500D01*
X49700500Y-79057500D01*
X49573500Y-79057500D01*
X49553500Y-79057500D01*
X49553500Y-78930500D01*
X49573500Y-78930500D01*
X49573500Y-77892750D01*
X49700500Y-77892750D01*
X49700500Y-78930500D01*
X50863250Y-78930500D01*
X51022000Y-78771750D01*
X51022000Y-78242690D01*
X55023000Y-78242690D01*
X55023000Y-78771750D01*
X55181750Y-78930500D01*
X56344500Y-78930500D01*
X56344500Y-77892750D01*
X56471500Y-77892750D01*
X56471500Y-78930500D01*
X56491500Y-78930500D01*
X56491500Y-79057500D01*
X56471500Y-79057500D01*
X56471500Y-80095250D01*
X56630250Y-80254000D01*
X57284309Y-80254000D01*
X57517698Y-80157327D01*
X57696327Y-79978699D01*
X57731363Y-79894114D01*
X57786728Y-79980153D01*
X57956488Y-80096145D01*
X58158000Y-80136952D01*
X59658000Y-80136952D01*
X59846253Y-80101530D01*
X59988495Y-80010000D01*
X60134434Y-80010000D01*
X60210764Y-80124236D01*
X60787589Y-80509658D01*
X61468000Y-80645000D01*
X72517000Y-80645000D01*
X73197411Y-80509658D01*
X73774236Y-80124236D01*
X74159658Y-79547411D01*
X74295000Y-78867000D01*
X81026000Y-78867000D01*
X81161342Y-79547411D01*
X81546764Y-80124236D01*
X82123589Y-80509658D01*
X82804000Y-80645000D01*
X93218000Y-80645000D01*
X93898411Y-80509658D01*
X94475236Y-80124236D01*
X94616673Y-79912560D01*
X94699488Y-79969145D01*
X94901000Y-80009952D01*
X96401000Y-80009952D01*
X96589253Y-79974530D01*
X96762153Y-79863272D01*
X96827719Y-79767313D01*
X96862673Y-79851699D01*
X97041302Y-80030327D01*
X97274691Y-80127000D01*
X97928750Y-80127000D01*
X98087500Y-79968250D01*
X98087500Y-78930500D01*
X98214500Y-78930500D01*
X98214500Y-79968250D01*
X98373250Y-80127000D01*
X99027309Y-80127000D01*
X99260698Y-80030327D01*
X99439327Y-79851699D01*
X99536000Y-79618310D01*
X99536000Y-79089250D01*
X104045000Y-79089250D01*
X104045000Y-79618310D01*
X104141673Y-79851699D01*
X104320302Y-80030327D01*
X104553691Y-80127000D01*
X105207750Y-80127000D01*
X105366500Y-79968250D01*
X105366500Y-78930500D01*
X104203750Y-78930500D01*
X104045000Y-79089250D01*
X99536000Y-79089250D01*
X99377250Y-78930500D01*
X98214500Y-78930500D01*
X98087500Y-78930500D01*
X98067500Y-78930500D01*
X98067500Y-78803500D01*
X98087500Y-78803500D01*
X98087500Y-77765750D01*
X98214500Y-77765750D01*
X98214500Y-78803500D01*
X99377250Y-78803500D01*
X99536000Y-78644750D01*
X99536000Y-78115690D01*
X104045000Y-78115690D01*
X104045000Y-78644750D01*
X104203750Y-78803500D01*
X105366500Y-78803500D01*
X105366500Y-77765750D01*
X105493500Y-77765750D01*
X105493500Y-78803500D01*
X105513500Y-78803500D01*
X105513500Y-78930500D01*
X105493500Y-78930500D01*
X105493500Y-79968250D01*
X105652250Y-80127000D01*
X106306309Y-80127000D01*
X106539698Y-80030327D01*
X106718327Y-79851699D01*
X106753363Y-79767114D01*
X106808728Y-79853153D01*
X106978488Y-79969145D01*
X107180000Y-80009952D01*
X108680000Y-80009952D01*
X108868253Y-79974530D01*
X108964396Y-79912664D01*
X109105764Y-80124236D01*
X109682589Y-80509658D01*
X110363000Y-80645000D01*
X120269000Y-80645000D01*
X120949411Y-80509658D01*
X121526236Y-80124236D01*
X121911658Y-79547411D01*
X122047000Y-78867000D01*
X121911658Y-78186589D01*
X121526236Y-77609764D01*
X120949411Y-77224342D01*
X120269000Y-77089000D01*
X110363000Y-77089000D01*
X109682589Y-77224342D01*
X109105764Y-77609764D01*
X108964327Y-77821440D01*
X108881512Y-77764855D01*
X108680000Y-77724048D01*
X107180000Y-77724048D01*
X106991747Y-77759470D01*
X106818847Y-77870728D01*
X106753281Y-77966687D01*
X106718327Y-77882301D01*
X106539698Y-77703673D01*
X106306309Y-77607000D01*
X105652250Y-77607000D01*
X105493500Y-77765750D01*
X105366500Y-77765750D01*
X105207750Y-77607000D01*
X104553691Y-77607000D01*
X104320302Y-77703673D01*
X104141673Y-77882301D01*
X104045000Y-78115690D01*
X99536000Y-78115690D01*
X99439327Y-77882301D01*
X99260698Y-77703673D01*
X99027309Y-77607000D01*
X98373250Y-77607000D01*
X98214500Y-77765750D01*
X98087500Y-77765750D01*
X97928750Y-77607000D01*
X97274691Y-77607000D01*
X97041302Y-77703673D01*
X96862673Y-77882301D01*
X96827637Y-77966886D01*
X96772272Y-77880847D01*
X96602512Y-77764855D01*
X96401000Y-77724048D01*
X94901000Y-77724048D01*
X94712747Y-77759470D01*
X94616604Y-77821336D01*
X94475236Y-77609764D01*
X93898411Y-77224342D01*
X93218000Y-77089000D01*
X82804000Y-77089000D01*
X82123589Y-77224342D01*
X81546764Y-77609764D01*
X81161342Y-78186589D01*
X81026000Y-78867000D01*
X74295000Y-78867000D01*
X74159658Y-78186589D01*
X73774236Y-77609764D01*
X73197411Y-77224342D01*
X72517000Y-77089000D01*
X61468000Y-77089000D01*
X60787589Y-77224342D01*
X60210764Y-77609764D01*
X59971259Y-77968209D01*
X59859512Y-77891855D01*
X59658000Y-77851048D01*
X58158000Y-77851048D01*
X57969747Y-77886470D01*
X57796847Y-77997728D01*
X57731281Y-78093687D01*
X57696327Y-78009301D01*
X57517698Y-77830673D01*
X57284309Y-77734000D01*
X56630250Y-77734000D01*
X56471500Y-77892750D01*
X56344500Y-77892750D01*
X56185750Y-77734000D01*
X55531691Y-77734000D01*
X55298302Y-77830673D01*
X55119673Y-78009301D01*
X55023000Y-78242690D01*
X51022000Y-78242690D01*
X50925327Y-78009301D01*
X50746698Y-77830673D01*
X50513309Y-77734000D01*
X49859250Y-77734000D01*
X49700500Y-77892750D01*
X49573500Y-77892750D01*
X49414750Y-77734000D01*
X48760691Y-77734000D01*
X48527302Y-77830673D01*
X48348673Y-78009301D01*
X48313637Y-78093886D01*
X48258272Y-78007847D01*
X48088512Y-77891855D01*
X47887000Y-77851048D01*
X46387000Y-77851048D01*
X46198747Y-77886470D01*
X46056505Y-77978000D01*
X45868425Y-77978000D01*
X45707236Y-77736764D01*
X45130411Y-77351342D01*
X44450000Y-77216000D01*
X34036000Y-77216000D01*
X33355589Y-77351342D01*
X32778764Y-77736764D01*
X32393342Y-78313589D01*
X32258000Y-78994000D01*
X31861551Y-78994000D01*
X37278824Y-69671250D01*
X50937000Y-69671250D01*
X50937000Y-70325309D01*
X51033673Y-70558698D01*
X51212301Y-70737327D01*
X51445690Y-70834000D01*
X51974750Y-70834000D01*
X52133500Y-70675250D01*
X52133500Y-69512500D01*
X52260500Y-69512500D01*
X52260500Y-70675250D01*
X52419250Y-70834000D01*
X52948310Y-70834000D01*
X53181699Y-70737327D01*
X53360327Y-70558698D01*
X53457000Y-70325309D01*
X53457000Y-69671250D01*
X53298250Y-69512500D01*
X52260500Y-69512500D01*
X52133500Y-69512500D01*
X51095750Y-69512500D01*
X50937000Y-69671250D01*
X37278824Y-69671250D01*
X44704077Y-56892909D01*
X44729060Y-56819981D01*
X44763148Y-56750843D01*
X44765605Y-56713303D01*
X44777798Y-56677711D01*
X44772971Y-56600775D01*
X44778006Y-56523853D01*
X44765910Y-56488229D01*
X44763554Y-56450682D01*
X44729653Y-56381450D01*
X44704868Y-56308457D01*
X44573640Y-56081208D01*
X48513824Y-56081208D01*
X48668175Y-56454766D01*
X48953731Y-56740821D01*
X49327018Y-56895824D01*
X49731208Y-56896176D01*
X49731634Y-56896000D01*
X49871160Y-56896000D01*
X50419000Y-57443840D01*
X50419000Y-64008000D01*
X50554342Y-64688411D01*
X50939764Y-65265236D01*
X51181000Y-65426425D01*
X51181000Y-65871411D01*
X51094855Y-65997488D01*
X51054048Y-66199000D01*
X51054048Y-67699000D01*
X51089470Y-67887253D01*
X51200728Y-68060153D01*
X51296687Y-68125719D01*
X51212301Y-68160673D01*
X51033673Y-68339302D01*
X50937000Y-68572691D01*
X50937000Y-69226750D01*
X51095750Y-69385500D01*
X52133500Y-69385500D01*
X52133500Y-69365500D01*
X52260500Y-69365500D01*
X52260500Y-69385500D01*
X53298250Y-69385500D01*
X53457000Y-69226750D01*
X53457000Y-68834250D01*
X63072000Y-68834250D01*
X63072000Y-69238310D01*
X63168673Y-69471699D01*
X63347302Y-69650327D01*
X63580691Y-69747000D01*
X65084750Y-69747000D01*
X65243500Y-69588250D01*
X65243500Y-68675500D01*
X65370500Y-68675500D01*
X65370500Y-69588250D01*
X65529250Y-69747000D01*
X67033309Y-69747000D01*
X67266698Y-69650327D01*
X67445327Y-69471699D01*
X67542000Y-69238310D01*
X67542000Y-68834250D01*
X67383250Y-68675500D01*
X65370500Y-68675500D01*
X65243500Y-68675500D01*
X63230750Y-68675500D01*
X63072000Y-68834250D01*
X53457000Y-68834250D01*
X53457000Y-68572691D01*
X53360327Y-68339302D01*
X53181699Y-68160673D01*
X53097114Y-68125637D01*
X53183153Y-68070272D01*
X53240945Y-67985690D01*
X63072000Y-67985690D01*
X63072000Y-68389750D01*
X63230750Y-68548500D01*
X65243500Y-68548500D01*
X65243500Y-67635750D01*
X65370500Y-67635750D01*
X65370500Y-68548500D01*
X67383250Y-68548500D01*
X67542000Y-68389750D01*
X67542000Y-67985690D01*
X67445327Y-67752301D01*
X67266698Y-67573673D01*
X67033309Y-67477000D01*
X65529250Y-67477000D01*
X65370500Y-67635750D01*
X65243500Y-67635750D01*
X65084750Y-67477000D01*
X63580691Y-67477000D01*
X63347302Y-67573673D01*
X63168673Y-67752301D01*
X63072000Y-67985690D01*
X53240945Y-67985690D01*
X53299145Y-67900512D01*
X53339952Y-67699000D01*
X53339952Y-66199000D01*
X53304530Y-66010747D01*
X53213000Y-65868505D01*
X53213000Y-65426425D01*
X53454236Y-65265236D01*
X53839658Y-64688411D01*
X53975000Y-64008000D01*
X53975000Y-63857000D01*
X63189048Y-63857000D01*
X63189048Y-64857000D01*
X63224470Y-65045253D01*
X63335728Y-65218153D01*
X63505488Y-65334145D01*
X63707000Y-65374952D01*
X66907000Y-65374952D01*
X67095253Y-65339530D01*
X67268153Y-65228272D01*
X67384145Y-65058512D01*
X67424952Y-64857000D01*
X67424952Y-63857000D01*
X67389530Y-63668747D01*
X67278272Y-63495847D01*
X67108512Y-63379855D01*
X66907000Y-63339048D01*
X66234002Y-63339048D01*
X66293824Y-63194982D01*
X66294176Y-62790792D01*
X66139825Y-62417234D01*
X65854269Y-62131179D01*
X65480982Y-61976176D01*
X65076792Y-61975824D01*
X64703234Y-62130175D01*
X64417179Y-62415731D01*
X64262176Y-62789018D01*
X64261824Y-63193208D01*
X64322084Y-63339048D01*
X63707000Y-63339048D01*
X63518747Y-63374470D01*
X63345847Y-63485728D01*
X63229855Y-63655488D01*
X63189048Y-63857000D01*
X53975000Y-63857000D01*
X53975000Y-60579250D01*
X63072000Y-60579250D01*
X63072000Y-60983310D01*
X63168673Y-61216699D01*
X63347302Y-61395327D01*
X63580691Y-61492000D01*
X65084750Y-61492000D01*
X65243500Y-61333250D01*
X65243500Y-60420500D01*
X65370500Y-60420500D01*
X65370500Y-61333250D01*
X65529250Y-61492000D01*
X67033309Y-61492000D01*
X67266698Y-61395327D01*
X67445327Y-61216699D01*
X67542000Y-60983310D01*
X67542000Y-60579250D01*
X67383250Y-60420500D01*
X65370500Y-60420500D01*
X65243500Y-60420500D01*
X63230750Y-60420500D01*
X63072000Y-60579250D01*
X53975000Y-60579250D01*
X53975000Y-58898019D01*
X54094194Y-58977662D01*
X54483000Y-59055000D01*
X54990113Y-59055000D01*
X55192208Y-59055176D01*
X55379806Y-58977662D01*
X55379807Y-58977662D01*
X55379808Y-58977661D01*
X55565766Y-58900825D01*
X55844827Y-58622250D01*
X59700000Y-58622250D01*
X59700000Y-59276309D01*
X59796673Y-59509698D01*
X59975301Y-59688327D01*
X60208690Y-59785000D01*
X60737750Y-59785000D01*
X60896500Y-59626250D01*
X60896500Y-58463500D01*
X61023500Y-58463500D01*
X61023500Y-59626250D01*
X61182250Y-59785000D01*
X61711310Y-59785000D01*
X61842425Y-59730690D01*
X63072000Y-59730690D01*
X63072000Y-60134750D01*
X63230750Y-60293500D01*
X65243500Y-60293500D01*
X65243500Y-59380750D01*
X65370500Y-59380750D01*
X65370500Y-60293500D01*
X67383250Y-60293500D01*
X67542000Y-60134750D01*
X67542000Y-59730690D01*
X67445327Y-59497301D01*
X67266698Y-59318673D01*
X67033309Y-59222000D01*
X65529250Y-59222000D01*
X65370500Y-59380750D01*
X65243500Y-59380750D01*
X65084750Y-59222000D01*
X63580691Y-59222000D01*
X63347302Y-59318673D01*
X63168673Y-59497301D01*
X63072000Y-59730690D01*
X61842425Y-59730690D01*
X61944699Y-59688327D01*
X62123327Y-59509698D01*
X62220000Y-59276309D01*
X62220000Y-58622250D01*
X62061250Y-58463500D01*
X61023500Y-58463500D01*
X60896500Y-58463500D01*
X59858750Y-58463500D01*
X59700000Y-58622250D01*
X55844827Y-58622250D01*
X55851821Y-58615269D01*
X55851998Y-58614842D01*
X57443841Y-57023000D01*
X59308113Y-57023000D01*
X59510208Y-57023176D01*
X59697806Y-56945662D01*
X59697807Y-56945662D01*
X59697808Y-56945661D01*
X59769594Y-56916000D01*
X59902499Y-56916000D01*
X59963728Y-57011153D01*
X60059687Y-57076719D01*
X59975301Y-57111673D01*
X59796673Y-57290302D01*
X59700000Y-57523691D01*
X59700000Y-58177750D01*
X59858750Y-58336500D01*
X60896500Y-58336500D01*
X60896500Y-58316500D01*
X61023500Y-58316500D01*
X61023500Y-58336500D01*
X62061250Y-58336500D01*
X62220000Y-58177750D01*
X62220000Y-57523691D01*
X62123327Y-57290302D01*
X61944699Y-57111673D01*
X61860114Y-57076637D01*
X61946153Y-57021272D01*
X62062145Y-56851512D01*
X62102952Y-56650000D01*
X62102952Y-55475000D01*
X63189048Y-55475000D01*
X63189048Y-56475000D01*
X63224470Y-56663253D01*
X63335728Y-56836153D01*
X63505488Y-56952145D01*
X63707000Y-56992952D01*
X66907000Y-56992952D01*
X67095253Y-56957530D01*
X67268153Y-56846272D01*
X67384145Y-56676512D01*
X67424952Y-56475000D01*
X67424952Y-55475000D01*
X67389530Y-55286747D01*
X67298707Y-55145604D01*
X67436824Y-54812982D01*
X67437176Y-54408792D01*
X67282825Y-54035234D01*
X66997269Y-53749179D01*
X66623982Y-53594176D01*
X66219792Y-53593824D01*
X65846234Y-53748175D01*
X65560179Y-54033731D01*
X65405176Y-54407018D01*
X65404896Y-54728078D01*
X65175926Y-54957048D01*
X63707000Y-54957048D01*
X63518747Y-54992470D01*
X63345847Y-55103728D01*
X63229855Y-55273488D01*
X63189048Y-55475000D01*
X62102952Y-55475000D01*
X62102952Y-55150000D01*
X62067530Y-54961747D01*
X61956272Y-54788847D01*
X61786512Y-54672855D01*
X61585000Y-54632048D01*
X60335000Y-54632048D01*
X60146747Y-54667470D01*
X59973847Y-54778728D01*
X59901918Y-54884000D01*
X59416000Y-54884000D01*
X59091796Y-54948488D01*
X59027193Y-54961338D01*
X58982801Y-54991000D01*
X57023000Y-54991000D01*
X56698700Y-55055507D01*
X56634193Y-55068338D01*
X56304580Y-55288579D01*
X54737000Y-56856159D01*
X53975000Y-56094160D01*
X53975000Y-52197250D01*
X63072000Y-52197250D01*
X63072000Y-52601310D01*
X63168673Y-52834699D01*
X63347302Y-53013327D01*
X63580691Y-53110000D01*
X65084750Y-53110000D01*
X65243500Y-52951250D01*
X65243500Y-52038500D01*
X65370500Y-52038500D01*
X65370500Y-52951250D01*
X65529250Y-53110000D01*
X67033309Y-53110000D01*
X67266698Y-53013327D01*
X67445327Y-52834699D01*
X67542000Y-52601310D01*
X67542000Y-52197250D01*
X67383250Y-52038500D01*
X65370500Y-52038500D01*
X65243500Y-52038500D01*
X63230750Y-52038500D01*
X63072000Y-52197250D01*
X53975000Y-52197250D01*
X53975000Y-51348690D01*
X63072000Y-51348690D01*
X63072000Y-51752750D01*
X63230750Y-51911500D01*
X65243500Y-51911500D01*
X65243500Y-50998750D01*
X65370500Y-50998750D01*
X65370500Y-51911500D01*
X67383250Y-51911500D01*
X67542000Y-51752750D01*
X67542000Y-51348690D01*
X67445327Y-51115301D01*
X67266698Y-50936673D01*
X67033309Y-50840000D01*
X65529250Y-50840000D01*
X65370500Y-50998750D01*
X65243500Y-50998750D01*
X65084750Y-50840000D01*
X63580691Y-50840000D01*
X63347302Y-50936673D01*
X63168673Y-51115301D01*
X63072000Y-51348690D01*
X53975000Y-51348690D01*
X53975000Y-49911000D01*
X53839658Y-49230589D01*
X53454236Y-48653764D01*
X52877411Y-48268342D01*
X52197000Y-48133000D01*
X51516589Y-48268342D01*
X50939764Y-48653764D01*
X50554342Y-49230589D01*
X50419000Y-49911000D01*
X50419000Y-54889262D01*
X50292000Y-54864000D01*
X49530887Y-54864000D01*
X49328792Y-54863824D01*
X48955234Y-55018175D01*
X48669179Y-55303731D01*
X48514176Y-55677018D01*
X48513824Y-56081208D01*
X44573640Y-56081208D01*
X39158777Y-46704250D01*
X54292500Y-46704250D01*
X54292500Y-46862309D01*
X54389173Y-47095698D01*
X54507024Y-47213550D01*
X54450355Y-47296488D01*
X54409548Y-47498000D01*
X54409548Y-48006000D01*
X54444970Y-48194253D01*
X54556228Y-48367153D01*
X54725988Y-48483145D01*
X54927500Y-48523952D01*
X56070500Y-48523952D01*
X56258753Y-48488530D01*
X56431653Y-48377272D01*
X56547645Y-48207512D01*
X56588452Y-48006000D01*
X56588452Y-47974250D01*
X60642500Y-47974250D01*
X60642500Y-48132309D01*
X60739173Y-48365698D01*
X60917801Y-48544327D01*
X61151190Y-48641000D01*
X61626750Y-48641000D01*
X61785500Y-48482250D01*
X61785500Y-47815500D01*
X61912500Y-47815500D01*
X61912500Y-48482250D01*
X62071250Y-48641000D01*
X62546810Y-48641000D01*
X62780199Y-48544327D01*
X62958827Y-48365698D01*
X63055500Y-48132309D01*
X63055500Y-47974250D01*
X62896750Y-47815500D01*
X61912500Y-47815500D01*
X61785500Y-47815500D01*
X60801250Y-47815500D01*
X60642500Y-47974250D01*
X56588452Y-47974250D01*
X56588452Y-47498000D01*
X56553030Y-47309747D01*
X56491069Y-47213457D01*
X56608827Y-47095698D01*
X56705500Y-46862309D01*
X56705500Y-46704250D01*
X56546750Y-46545500D01*
X55562500Y-46545500D01*
X55562500Y-46565500D01*
X55435500Y-46565500D01*
X55435500Y-46545500D01*
X54451250Y-46545500D01*
X54292500Y-46704250D01*
X39158777Y-46704250D01*
X28383000Y-28043759D01*
X28383000Y-27583000D01*
X42630892Y-27583000D01*
X42431302Y-27665673D01*
G36*
X71490048Y-27744000D02*
X71490048Y-29644000D01*
X71525470Y-29832253D01*
X71636728Y-30005153D01*
X71806488Y-30121145D01*
X71979541Y-30156189D01*
X71923000Y-30292690D01*
X71923000Y-30996750D01*
X72081750Y-31155500D01*
X73544500Y-31155500D01*
X73544500Y-31135500D01*
X73671500Y-31135500D01*
X73671500Y-31155500D01*
X73691500Y-31155500D01*
X73691500Y-31282500D01*
X73671500Y-31282500D01*
X73671500Y-32495250D01*
X73830250Y-32654000D01*
X74784309Y-32654000D01*
X75017698Y-32557327D01*
X75045899Y-32529126D01*
X75208000Y-32561952D01*
X75608000Y-32561952D01*
X75670709Y-32550153D01*
X75779586Y-32713099D01*
X75875801Y-32809314D01*
X75875801Y-34288342D01*
X75856738Y-34316871D01*
X75763411Y-34334432D01*
X75643000Y-34310048D01*
X75093000Y-34310048D01*
X74963411Y-34334432D01*
X74843000Y-34310048D01*
X74293000Y-34310048D01*
X74163411Y-34334432D01*
X74043000Y-34310048D01*
X73593064Y-34310048D01*
X73554664Y-34116996D01*
X73417013Y-33910987D01*
X72585013Y-33078987D01*
X72379004Y-32941336D01*
X72136000Y-32893000D01*
X69469000Y-32893000D01*
X69225996Y-32941336D01*
X69019987Y-33078987D01*
X65903974Y-36195000D01*
X60325005Y-36195000D01*
X60325000Y-36194999D01*
X60081996Y-36243336D01*
X59875987Y-36380987D01*
X59807872Y-36449102D01*
X59488792Y-36448824D01*
X59115234Y-36603175D01*
X58829179Y-36888731D01*
X58695361Y-37211000D01*
X49793025Y-37211000D01*
X46098709Y-33516683D01*
X49561565Y-33516683D01*
X49942581Y-34438812D01*
X50647477Y-35144939D01*
X51568939Y-35527564D01*
X52566683Y-35528435D01*
X53488812Y-35147419D01*
X54194939Y-34442523D01*
X54577564Y-33521061D01*
X54578435Y-32523317D01*
X54197419Y-31601188D01*
X54037760Y-31441250D01*
X71923000Y-31441250D01*
X71923000Y-32145310D01*
X72019673Y-32378699D01*
X72198302Y-32557327D01*
X72431691Y-32654000D01*
X73385750Y-32654000D01*
X73544500Y-32495250D01*
X73544500Y-31282500D01*
X72081750Y-31282500D01*
X71923000Y-31441250D01*
X54037760Y-31441250D01*
X53492523Y-30895061D01*
X52571061Y-30512436D01*
X51573317Y-30511565D01*
X50651188Y-30892581D01*
X49945061Y-31597477D01*
X49562436Y-32518939D01*
X49561565Y-33516683D01*
X46098709Y-33516683D01*
X42671026Y-30089000D01*
X43318750Y-30089000D01*
X43477500Y-29930250D01*
X43477500Y-28892500D01*
X43604500Y-28892500D01*
X43604500Y-29930250D01*
X43763250Y-30089000D01*
X44417309Y-30089000D01*
X44650698Y-29992327D01*
X44829327Y-29813699D01*
X44926000Y-29580310D01*
X44926000Y-29051250D01*
X44767250Y-28892500D01*
X43604500Y-28892500D01*
X43477500Y-28892500D01*
X43457500Y-28892500D01*
X43457500Y-28765500D01*
X43477500Y-28765500D01*
X43477500Y-28745500D01*
X43604500Y-28745500D01*
X43604500Y-28765500D01*
X44767250Y-28765500D01*
X44926000Y-28606750D01*
X44926000Y-28077690D01*
X44829327Y-27844301D01*
X44650698Y-27665673D01*
X44451108Y-27583000D01*
X71522651Y-27583000D01*
X71490048Y-27744000D01*
X71490048Y-27744000D01*
G37*
X71490048Y-27744000D02*
X71490048Y-29644000D01*
X71525470Y-29832253D01*
X71636728Y-30005153D01*
X71806488Y-30121145D01*
X71979541Y-30156189D01*
X71923000Y-30292690D01*
X71923000Y-30996750D01*
X72081750Y-31155500D01*
X73544500Y-31155500D01*
X73544500Y-31135500D01*
X73671500Y-31135500D01*
X73671500Y-31155500D01*
X73691500Y-31155500D01*
X73691500Y-31282500D01*
X73671500Y-31282500D01*
X73671500Y-32495250D01*
X73830250Y-32654000D01*
X74784309Y-32654000D01*
X75017698Y-32557327D01*
X75045899Y-32529126D01*
X75208000Y-32561952D01*
X75608000Y-32561952D01*
X75670709Y-32550153D01*
X75779586Y-32713099D01*
X75875801Y-32809314D01*
X75875801Y-34288342D01*
X75856738Y-34316871D01*
X75763411Y-34334432D01*
X75643000Y-34310048D01*
X75093000Y-34310048D01*
X74963411Y-34334432D01*
X74843000Y-34310048D01*
X74293000Y-34310048D01*
X74163411Y-34334432D01*
X74043000Y-34310048D01*
X73593064Y-34310048D01*
X73554664Y-34116996D01*
X73417013Y-33910987D01*
X72585013Y-33078987D01*
X72379004Y-32941336D01*
X72136000Y-32893000D01*
X69469000Y-32893000D01*
X69225996Y-32941336D01*
X69019987Y-33078987D01*
X65903974Y-36195000D01*
X60325005Y-36195000D01*
X60325000Y-36194999D01*
X60081996Y-36243336D01*
X59875987Y-36380987D01*
X59807872Y-36449102D01*
X59488792Y-36448824D01*
X59115234Y-36603175D01*
X58829179Y-36888731D01*
X58695361Y-37211000D01*
X49793025Y-37211000D01*
X46098709Y-33516683D01*
X49561565Y-33516683D01*
X49942581Y-34438812D01*
X50647477Y-35144939D01*
X51568939Y-35527564D01*
X52566683Y-35528435D01*
X53488812Y-35147419D01*
X54194939Y-34442523D01*
X54577564Y-33521061D01*
X54578435Y-32523317D01*
X54197419Y-31601188D01*
X54037760Y-31441250D01*
X71923000Y-31441250D01*
X71923000Y-32145310D01*
X72019673Y-32378699D01*
X72198302Y-32557327D01*
X72431691Y-32654000D01*
X73385750Y-32654000D01*
X73544500Y-32495250D01*
X73544500Y-31282500D01*
X72081750Y-31282500D01*
X71923000Y-31441250D01*
X54037760Y-31441250D01*
X53492523Y-30895061D01*
X52571061Y-30512436D01*
X51573317Y-30511565D01*
X50651188Y-30892581D01*
X49945061Y-31597477D01*
X49562436Y-32518939D01*
X49561565Y-33516683D01*
X46098709Y-33516683D01*
X42671026Y-30089000D01*
X43318750Y-30089000D01*
X43477500Y-29930250D01*
X43477500Y-28892500D01*
X43604500Y-28892500D01*
X43604500Y-29930250D01*
X43763250Y-30089000D01*
X44417309Y-30089000D01*
X44650698Y-29992327D01*
X44829327Y-29813699D01*
X44926000Y-29580310D01*
X44926000Y-29051250D01*
X44767250Y-28892500D01*
X43604500Y-28892500D01*
X43477500Y-28892500D01*
X43457500Y-28892500D01*
X43457500Y-28765500D01*
X43477500Y-28765500D01*
X43477500Y-28745500D01*
X43604500Y-28745500D01*
X43604500Y-28765500D01*
X44767250Y-28765500D01*
X44926000Y-28606750D01*
X44926000Y-28077690D01*
X44829327Y-27844301D01*
X44650698Y-27665673D01*
X44451108Y-27583000D01*
X71522651Y-27583000D01*
X71490048Y-27744000D01*
G36*
X149034973Y-46782873D02*
X149116046Y-46908865D01*
X149243366Y-46995859D01*
X149394500Y-47026464D01*
X149424718Y-47026464D01*
X149479000Y-47060390D01*
X149479000Y-47469536D01*
X149394500Y-47469536D01*
X149285744Y-47490000D01*
X149106000Y-47490000D01*
X149065781Y-47498000D01*
X148971000Y-47498000D01*
X148921590Y-47508006D01*
X148881197Y-47535197D01*
X148839654Y-47576740D01*
X148746790Y-47638790D01*
X148611790Y-47773790D01*
X148549740Y-47866654D01*
X147865197Y-48551197D01*
X147837334Y-48593211D01*
X147828000Y-48641000D01*
X147828000Y-49784000D01*
X141478000Y-49784000D01*
X141478000Y-46482000D01*
X148553576Y-46482000D01*
X149034973Y-46782873D01*
X149034973Y-46782873D01*
G37*
X149034973Y-46782873D02*
X149116046Y-46908865D01*
X149243366Y-46995859D01*
X149394500Y-47026464D01*
X149424718Y-47026464D01*
X149479000Y-47060390D01*
X149479000Y-47469536D01*
X149394500Y-47469536D01*
X149285744Y-47490000D01*
X149106000Y-47490000D01*
X149065781Y-47498000D01*
X148971000Y-47498000D01*
X148921590Y-47508006D01*
X148881197Y-47535197D01*
X148839654Y-47576740D01*
X148746790Y-47638790D01*
X148611790Y-47773790D01*
X148549740Y-47866654D01*
X147865197Y-48551197D01*
X147837334Y-48593211D01*
X147828000Y-48641000D01*
X147828000Y-49784000D01*
X141478000Y-49784000D01*
X141478000Y-46482000D01*
X148553576Y-46482000D01*
X149034973Y-46782873D01*
G36*
X95123000Y-35121689D02*
X93006974Y-36988771D01*
X92976545Y-37028964D01*
X92964000Y-37084000D01*
X92964000Y-40513000D01*
X90978981Y-40513000D01*
X90170000Y-39819587D01*
X90170000Y-34163000D01*
X95123000Y-34163000D01*
X95123000Y-35121689D01*
X95123000Y-35121689D01*
G37*
X95123000Y-35121689D02*
X93006974Y-36988771D01*
X92976545Y-37028964D01*
X92964000Y-37084000D01*
X92964000Y-40513000D01*
X90978981Y-40513000D01*
X90170000Y-39819587D01*
X90170000Y-34163000D01*
X95123000Y-34163000D01*
X95123000Y-35121689D01*
G36*
X154920982Y-48627508D02*
X153994439Y-49657000D01*
X153129492Y-49657000D01*
X152790332Y-48526464D01*
X152900100Y-48526464D01*
X154920982Y-48627508D01*
X154920982Y-48627508D01*
G37*
X154920982Y-48627508D02*
X153994439Y-49657000D01*
X153129492Y-49657000D01*
X152790332Y-48526464D01*
X152900100Y-48526464D01*
X154920982Y-48627508D01*
G36*
X149394500Y-48026464D02*
X149479000Y-48026464D01*
X149479000Y-51689000D01*
X148463000Y-51689000D01*
X148463000Y-48693606D01*
X149150606Y-48006000D01*
X149293444Y-48006000D01*
X149394500Y-48026464D01*
X149394500Y-48026464D01*
G37*
X149394500Y-48026464D02*
X149479000Y-48026464D01*
X149479000Y-51689000D01*
X148463000Y-51689000D01*
X148463000Y-48693606D01*
X149150606Y-48006000D01*
X149293444Y-48006000D01*
X149394500Y-48026464D01*
M02*
