G04 #@! TF.FileFunction,Legend,Bot*
%FSLAX46Y46*%
G04 Gerber Fmt 4.6, Leading zero omitted, Abs format (unit mm)*
G04 Created by KiCad (PCBNEW 4.0.5+dfsg1-4) date Mon May 29 03:33:36 2017*
%MOMM*%
%LPD*%
G01*
G04 APERTURE LIST*
%ADD10C,0.100000*%
%ADD11C,0.150000*%
%ADD12C,0.120000*%
%ADD13R,1.650000X1.900000*%
%ADD14R,1.900000X1.650000*%
%ADD15R,3.900000X1.400000*%
%ADD16R,3.800000X2.000000*%
%ADD17R,1.900000X1.700000*%
%ADD18R,1.700000X1.900000*%
%ADD19R,1.460000X1.050000*%
%ADD20R,0.950000X2.000000*%
%ADD21R,2.000000X0.950000*%
%ADD22R,1.543000X0.908000*%
%ADD23C,3.400000*%
%ADD24R,1.400000X2.200000*%
%ADD25C,4.400000*%
%ADD26R,2.400000X2.400000*%
%ADD27R,1.200000X0.680000*%
%ADD28R,2.000000X2.550000*%
%ADD29R,2.800000X1.150000*%
%ADD30R,3.600000X1.400000*%
%ADD31R,0.800000X1.750000*%
%ADD32R,2.500000X2.000000*%
%ADD33R,2.200000X2.300000*%
G04 APERTURE END LIST*
D10*
D11*
X100799000Y-32266000D02*
X100799000Y-33266000D01*
X99099000Y-33266000D02*
X99099000Y-32266000D01*
X96766000Y-39585000D02*
X95766000Y-39585000D01*
X95766000Y-37885000D02*
X96766000Y-37885000D01*
X93306000Y-32266000D02*
X93306000Y-33266000D01*
X91606000Y-33266000D02*
X91606000Y-32266000D01*
X66587000Y-45458000D02*
X66587000Y-44458000D01*
X68287000Y-44458000D02*
X68287000Y-45458000D01*
X83558000Y-61048000D02*
X82558000Y-61048000D01*
X82558000Y-59348000D02*
X83558000Y-59348000D01*
X82765000Y-38108000D02*
X82765000Y-39108000D01*
X81065000Y-39108000D02*
X81065000Y-38108000D01*
X87337000Y-38108000D02*
X87337000Y-39108000D01*
X85637000Y-39108000D02*
X85637000Y-38108000D01*
X85051000Y-38108000D02*
X85051000Y-39108000D01*
X83351000Y-39108000D02*
X83351000Y-38108000D01*
X75540500Y-51744500D02*
X75540500Y-50744500D01*
X77240500Y-50744500D02*
X77240500Y-51744500D01*
X78080500Y-51744500D02*
X78080500Y-50744500D01*
X79780500Y-50744500D02*
X79780500Y-51744500D01*
X100369000Y-68318000D02*
X100369000Y-67318000D01*
X102069000Y-67318000D02*
X102069000Y-68318000D01*
X109386000Y-57396000D02*
X109386000Y-56396000D01*
X111086000Y-56396000D02*
X111086000Y-57396000D01*
X97401000Y-79717000D02*
X96401000Y-79717000D01*
X96401000Y-78017000D02*
X97401000Y-78017000D01*
X138295000Y-32854000D02*
X137295000Y-32854000D01*
X137295000Y-31154000D02*
X138295000Y-31154000D01*
X106180000Y-78017000D02*
X107180000Y-78017000D01*
X107180000Y-79717000D02*
X106180000Y-79717000D01*
X57158000Y-78144000D02*
X58158000Y-78144000D01*
X58158000Y-79844000D02*
X57158000Y-79844000D01*
X161171000Y-34202000D02*
X162171000Y-34202000D01*
X162171000Y-35902000D02*
X161171000Y-35902000D01*
X42791000Y-29679000D02*
X41791000Y-29679000D01*
X41791000Y-27979000D02*
X42791000Y-27979000D01*
X48887000Y-79844000D02*
X47887000Y-79844000D01*
X47887000Y-78144000D02*
X48887000Y-78144000D01*
X138692000Y-82970000D02*
X139692000Y-82970000D01*
X139692000Y-84670000D02*
X138692000Y-84670000D01*
X60110000Y-57650000D02*
X60110000Y-56650000D01*
X61810000Y-56650000D02*
X61810000Y-57650000D01*
X51347000Y-68699000D02*
X51347000Y-67699000D01*
X53047000Y-67699000D02*
X53047000Y-68699000D01*
X127235000Y-43421000D02*
G75*
G03X127235000Y-43421000I-250000J0D01*
G01*
X120235000Y-41521000D02*
X121235000Y-41521000D01*
X121235000Y-41521000D02*
X121235000Y-40521000D01*
X121235000Y-40521000D02*
X120235000Y-40521000D01*
X126235000Y-42921000D02*
X126235000Y-44171000D01*
X126235000Y-44171000D02*
X127835000Y-44171000D01*
X127835000Y-44171000D02*
X127835000Y-44971000D01*
X127835000Y-44971000D02*
X123735000Y-44971000D01*
X126235000Y-44171000D02*
X126235000Y-44971000D01*
X126235000Y-39121000D02*
X126235000Y-37871000D01*
X126235000Y-37871000D02*
X127835000Y-37871000D01*
X127835000Y-37871000D02*
X127835000Y-37071000D01*
X127835000Y-37071000D02*
X123735000Y-37071000D01*
X126235000Y-37871000D02*
X126235000Y-37071000D01*
X120235000Y-43221000D02*
X120235000Y-38821000D01*
X125135000Y-43221000D02*
X121735000Y-43221000D01*
X121735000Y-43221000D02*
X121735000Y-42221000D01*
X121735000Y-42221000D02*
X125135000Y-42221000D01*
X125135000Y-42221000D02*
X125135000Y-43221000D01*
X125135000Y-38821000D02*
X121735000Y-38821000D01*
X121735000Y-38821000D02*
X121735000Y-39821000D01*
X121735000Y-39821000D02*
X125135000Y-39821000D01*
X125135000Y-39821000D02*
X125135000Y-38821000D01*
X126235000Y-41121000D02*
X126235000Y-40921000D01*
X83785000Y-57037000D02*
X82585000Y-57037000D01*
X82585000Y-58787000D02*
X83785000Y-58787000D01*
X82585000Y-56628000D02*
X83785000Y-56628000D01*
X83785000Y-54878000D02*
X82585000Y-54878000D01*
X63768000Y-41564000D02*
X63768000Y-42764000D01*
X65518000Y-42764000D02*
X65518000Y-41564000D01*
D12*
X97166000Y-37297000D02*
X95366000Y-37297000D01*
X95366000Y-34077000D02*
X97816000Y-34077000D01*
D11*
X77793000Y-43503000D02*
X77568000Y-43503000D01*
X77793000Y-36253000D02*
X77468000Y-36253000D01*
X70543000Y-36253000D02*
X70868000Y-36253000D01*
X70543000Y-43503000D02*
X70868000Y-43503000D01*
X77793000Y-43503000D02*
X77793000Y-43178000D01*
X70543000Y-43503000D02*
X70543000Y-43178000D01*
X70543000Y-36253000D02*
X70543000Y-36578000D01*
X77793000Y-36253000D02*
X77793000Y-36578000D01*
X77568000Y-43503000D02*
X77568000Y-44928000D01*
X56261000Y-49022000D02*
X61087000Y-49022000D01*
X61087000Y-49022000D02*
X61087000Y-38862000D01*
X61087000Y-38862000D02*
X56261000Y-38862000D01*
X56261000Y-38862000D02*
X56261000Y-49022000D01*
X58039000Y-38862000D02*
X58039000Y-39497000D01*
X58039000Y-39497000D02*
X59309000Y-39497000D01*
X59309000Y-39497000D02*
X59309000Y-38862000D01*
X78160500Y-48334500D02*
X77160500Y-48334500D01*
X78160500Y-46534500D02*
X77160500Y-46534500D01*
X155487000Y-49268000D02*
X155487000Y-48268000D01*
X157187000Y-48268000D02*
X157187000Y-49268000D01*
X150757000Y-43346000D02*
X151757000Y-43346000D01*
X151757000Y-45046000D02*
X150757000Y-45046000D01*
X144360000Y-44712000D02*
X144360000Y-45712000D01*
X142660000Y-45712000D02*
X142660000Y-44712000D01*
X146392000Y-44712000D02*
X146392000Y-45712000D01*
X144692000Y-45712000D02*
X144692000Y-44712000D01*
X148424000Y-44712000D02*
X148424000Y-45712000D01*
X146724000Y-45712000D02*
X146724000Y-44712000D01*
X153857000Y-53905000D02*
X153857000Y-55305000D01*
X153857000Y-55305000D02*
X148657000Y-55305000D01*
X148657000Y-55305000D02*
X148657000Y-53905000D01*
X153857000Y-50105000D02*
X148657000Y-50105000D01*
X148657000Y-50105000D02*
X148657000Y-51505000D01*
X153857000Y-50105000D02*
X153857000Y-51505000D01*
D12*
X87944000Y-46950000D02*
X87944000Y-46930000D01*
X87944000Y-46930000D02*
X85284000Y-46930000D01*
X85284000Y-46930000D02*
X85284000Y-46950000D01*
X87944000Y-53380000D02*
X87944000Y-53400000D01*
X87944000Y-53400000D02*
X85284000Y-53400000D01*
X85284000Y-53400000D02*
X85284000Y-53380000D01*
X90249000Y-46950000D02*
X87944000Y-46950000D01*
D11*
X97969000Y-41069000D02*
X97969000Y-41269000D01*
X97969000Y-47069000D02*
X97969000Y-46869000D01*
X104469000Y-47069000D02*
X104469000Y-46869000D01*
X104469000Y-41069000D02*
X104469000Y-41269000D01*
X104469000Y-42869000D02*
X104469000Y-45269000D01*
X97969000Y-42869000D02*
X97969000Y-45269000D01*
X97969000Y-41069000D02*
X104469000Y-41069000D01*
X104469000Y-47069000D02*
X97969000Y-47069000D01*
X102219000Y-44069000D02*
G75*
G03X102219000Y-44069000I-1000000J0D01*
G01*
X102719000Y-44069000D02*
G75*
G03X102719000Y-44069000I-1500000J0D01*
G01*
X71957000Y-56975000D02*
X71957000Y-56775000D01*
X71957000Y-50975000D02*
X71957000Y-51175000D01*
X65457000Y-50975000D02*
X65457000Y-51175000D01*
X65457000Y-56975000D02*
X65457000Y-56775000D01*
X65457000Y-55175000D02*
X65457000Y-52775000D01*
X71957000Y-55175000D02*
X71957000Y-52775000D01*
X71957000Y-56975000D02*
X65457000Y-56975000D01*
X65457000Y-50975000D02*
X71957000Y-50975000D01*
X69707000Y-53975000D02*
G75*
G03X69707000Y-53975000I-1000000J0D01*
G01*
X70207000Y-53975000D02*
G75*
G03X70207000Y-53975000I-1500000J0D01*
G01*
X71957000Y-65357000D02*
X71957000Y-65157000D01*
X71957000Y-59357000D02*
X71957000Y-59557000D01*
X65457000Y-59357000D02*
X65457000Y-59557000D01*
X65457000Y-65357000D02*
X65457000Y-65157000D01*
X65457000Y-63557000D02*
X65457000Y-61157000D01*
X71957000Y-63557000D02*
X71957000Y-61157000D01*
X71957000Y-65357000D02*
X65457000Y-65357000D01*
X65457000Y-59357000D02*
X71957000Y-59357000D01*
X69707000Y-62357000D02*
G75*
G03X69707000Y-62357000I-1000000J0D01*
G01*
X70207000Y-62357000D02*
G75*
G03X70207000Y-62357000I-1500000J0D01*
G01*
X71957000Y-73612000D02*
X71957000Y-73412000D01*
X71957000Y-67612000D02*
X71957000Y-67812000D01*
X65457000Y-67612000D02*
X65457000Y-67812000D01*
X65457000Y-73612000D02*
X65457000Y-73412000D01*
X65457000Y-71812000D02*
X65457000Y-69412000D01*
X71957000Y-71812000D02*
X71957000Y-69412000D01*
X71957000Y-73612000D02*
X65457000Y-73612000D01*
X65457000Y-67612000D02*
X71957000Y-67612000D01*
X69707000Y-70612000D02*
G75*
G03X69707000Y-70612000I-1000000J0D01*
G01*
X70207000Y-70612000D02*
G75*
G03X70207000Y-70612000I-1500000J0D01*
G01*
X150657000Y-42658000D02*
X151857000Y-42658000D01*
X151857000Y-40908000D02*
X150657000Y-40908000D01*
D10*
X99329857Y-35493334D02*
X99348905Y-35474286D01*
X99367952Y-35417143D01*
X99367952Y-35379048D01*
X99348905Y-35321905D01*
X99310810Y-35283810D01*
X99272714Y-35264762D01*
X99196524Y-35245714D01*
X99139381Y-35245714D01*
X99063190Y-35264762D01*
X99025095Y-35283810D01*
X98987000Y-35321905D01*
X98967952Y-35379048D01*
X98967952Y-35417143D01*
X98987000Y-35474286D01*
X99006048Y-35493334D01*
X99367952Y-35874286D02*
X99367952Y-35645714D01*
X99367952Y-35760000D02*
X98967952Y-35760000D01*
X99025095Y-35721905D01*
X99063190Y-35683810D01*
X99082238Y-35645714D01*
X99253666Y-38242857D02*
X99272714Y-38261905D01*
X99329857Y-38280952D01*
X99367952Y-38280952D01*
X99425095Y-38261905D01*
X99463190Y-38223810D01*
X99482238Y-38185714D01*
X99501286Y-38109524D01*
X99501286Y-38052381D01*
X99482238Y-37976190D01*
X99463190Y-37938095D01*
X99425095Y-37900000D01*
X99367952Y-37880952D01*
X99329857Y-37880952D01*
X99272714Y-37900000D01*
X99253666Y-37919048D01*
X99101286Y-37919048D02*
X99082238Y-37900000D01*
X99044143Y-37880952D01*
X98948905Y-37880952D01*
X98910809Y-37900000D01*
X98891762Y-37919048D01*
X98872714Y-37957143D01*
X98872714Y-37995238D01*
X98891762Y-38052381D01*
X99120333Y-38280952D01*
X98872714Y-38280952D01*
X92090857Y-35366334D02*
X92109905Y-35347286D01*
X92128952Y-35290143D01*
X92128952Y-35252048D01*
X92109905Y-35194905D01*
X92071810Y-35156810D01*
X92033714Y-35137762D01*
X91957524Y-35118714D01*
X91900381Y-35118714D01*
X91824190Y-35137762D01*
X91786095Y-35156810D01*
X91748000Y-35194905D01*
X91728952Y-35252048D01*
X91728952Y-35290143D01*
X91748000Y-35347286D01*
X91767048Y-35366334D01*
X91728952Y-35499667D02*
X91728952Y-35747286D01*
X91881333Y-35613953D01*
X91881333Y-35671095D01*
X91900381Y-35709191D01*
X91919429Y-35728238D01*
X91957524Y-35747286D01*
X92052762Y-35747286D01*
X92090857Y-35728238D01*
X92109905Y-35709191D01*
X92128952Y-35671095D01*
X92128952Y-35556810D01*
X92109905Y-35518714D01*
X92090857Y-35499667D01*
X68341857Y-47685334D02*
X68360905Y-47666286D01*
X68379952Y-47609143D01*
X68379952Y-47571048D01*
X68360905Y-47513905D01*
X68322810Y-47475810D01*
X68284714Y-47456762D01*
X68208524Y-47437714D01*
X68151381Y-47437714D01*
X68075190Y-47456762D01*
X68037095Y-47475810D01*
X67999000Y-47513905D01*
X67979952Y-47571048D01*
X67979952Y-47609143D01*
X67999000Y-47666286D01*
X68018048Y-47685334D01*
X67979952Y-47818667D02*
X67979952Y-48085334D01*
X68379952Y-47913905D01*
X80203666Y-61102857D02*
X80222714Y-61121905D01*
X80279857Y-61140952D01*
X80317952Y-61140952D01*
X80375095Y-61121905D01*
X80413190Y-61083810D01*
X80432238Y-61045714D01*
X80451286Y-60969524D01*
X80451286Y-60912381D01*
X80432238Y-60836190D01*
X80413190Y-60798095D01*
X80375095Y-60760000D01*
X80317952Y-60740952D01*
X80279857Y-60740952D01*
X80222714Y-60760000D01*
X80203666Y-60779048D01*
X79975095Y-60912381D02*
X80013190Y-60893333D01*
X80032238Y-60874286D01*
X80051286Y-60836190D01*
X80051286Y-60817143D01*
X80032238Y-60779048D01*
X80013190Y-60760000D01*
X79975095Y-60740952D01*
X79898905Y-60740952D01*
X79860809Y-60760000D01*
X79841762Y-60779048D01*
X79822714Y-60817143D01*
X79822714Y-60836190D01*
X79841762Y-60874286D01*
X79860809Y-60893333D01*
X79898905Y-60912381D01*
X79975095Y-60912381D01*
X80013190Y-60931429D01*
X80032238Y-60950476D01*
X80051286Y-60988571D01*
X80051286Y-61064762D01*
X80032238Y-61102857D01*
X80013190Y-61121905D01*
X79975095Y-61140952D01*
X79898905Y-61140952D01*
X79860809Y-61121905D01*
X79841762Y-61102857D01*
X79822714Y-61064762D01*
X79822714Y-60988571D01*
X79841762Y-60950476D01*
X79860809Y-60931429D01*
X79898905Y-60912381D01*
X81422857Y-35747334D02*
X81441905Y-35728286D01*
X81460952Y-35671143D01*
X81460952Y-35633048D01*
X81441905Y-35575905D01*
X81403810Y-35537810D01*
X81365714Y-35518762D01*
X81289524Y-35499714D01*
X81232381Y-35499714D01*
X81156190Y-35518762D01*
X81118095Y-35537810D01*
X81080000Y-35575905D01*
X81060952Y-35633048D01*
X81060952Y-35671143D01*
X81080000Y-35728286D01*
X81099048Y-35747334D01*
X81460952Y-35937810D02*
X81460952Y-36014000D01*
X81441905Y-36052095D01*
X81422857Y-36071143D01*
X81365714Y-36109238D01*
X81289524Y-36128286D01*
X81137143Y-36128286D01*
X81099048Y-36109238D01*
X81080000Y-36090191D01*
X81060952Y-36052095D01*
X81060952Y-35975905D01*
X81080000Y-35937810D01*
X81099048Y-35918762D01*
X81137143Y-35899714D01*
X81232381Y-35899714D01*
X81270476Y-35918762D01*
X81289524Y-35937810D01*
X81308571Y-35975905D01*
X81308571Y-36052095D01*
X81289524Y-36090191D01*
X81270476Y-36109238D01*
X81232381Y-36128286D01*
X88729857Y-38350858D02*
X88748905Y-38331810D01*
X88767952Y-38274667D01*
X88767952Y-38236572D01*
X88748905Y-38179429D01*
X88710810Y-38141334D01*
X88672714Y-38122286D01*
X88596524Y-38103238D01*
X88539381Y-38103238D01*
X88463190Y-38122286D01*
X88425095Y-38141334D01*
X88387000Y-38179429D01*
X88367952Y-38236572D01*
X88367952Y-38274667D01*
X88387000Y-38331810D01*
X88406048Y-38350858D01*
X88767952Y-38731810D02*
X88767952Y-38503238D01*
X88767952Y-38617524D02*
X88367952Y-38617524D01*
X88425095Y-38579429D01*
X88463190Y-38541334D01*
X88482238Y-38503238D01*
X88367952Y-38979429D02*
X88367952Y-39017524D01*
X88387000Y-39055619D01*
X88406048Y-39074667D01*
X88444143Y-39093714D01*
X88520333Y-39112762D01*
X88615571Y-39112762D01*
X88691762Y-39093714D01*
X88729857Y-39074667D01*
X88748905Y-39055619D01*
X88767952Y-39017524D01*
X88767952Y-38979429D01*
X88748905Y-38941333D01*
X88729857Y-38922286D01*
X88691762Y-38903238D01*
X88615571Y-38884190D01*
X88520333Y-38884190D01*
X88444143Y-38903238D01*
X88406048Y-38922286D01*
X88387000Y-38941333D01*
X88367952Y-38979429D01*
X83581857Y-35429858D02*
X83600905Y-35410810D01*
X83619952Y-35353667D01*
X83619952Y-35315572D01*
X83600905Y-35258429D01*
X83562810Y-35220334D01*
X83524714Y-35201286D01*
X83448524Y-35182238D01*
X83391381Y-35182238D01*
X83315190Y-35201286D01*
X83277095Y-35220334D01*
X83239000Y-35258429D01*
X83219952Y-35315572D01*
X83219952Y-35353667D01*
X83239000Y-35410810D01*
X83258048Y-35429858D01*
X83619952Y-35810810D02*
X83619952Y-35582238D01*
X83619952Y-35696524D02*
X83219952Y-35696524D01*
X83277095Y-35658429D01*
X83315190Y-35620334D01*
X83334238Y-35582238D01*
X83619952Y-36191762D02*
X83619952Y-35963190D01*
X83619952Y-36077476D02*
X83219952Y-36077476D01*
X83277095Y-36039381D01*
X83315190Y-36001286D01*
X83334238Y-35963190D01*
X75136357Y-49209358D02*
X75155405Y-49190310D01*
X75174452Y-49133167D01*
X75174452Y-49095072D01*
X75155405Y-49037929D01*
X75117310Y-48999834D01*
X75079214Y-48980786D01*
X75003024Y-48961738D01*
X74945881Y-48961738D01*
X74869690Y-48980786D01*
X74831595Y-48999834D01*
X74793500Y-49037929D01*
X74774452Y-49095072D01*
X74774452Y-49133167D01*
X74793500Y-49190310D01*
X74812548Y-49209358D01*
X75174452Y-49590310D02*
X75174452Y-49361738D01*
X75174452Y-49476024D02*
X74774452Y-49476024D01*
X74831595Y-49437929D01*
X74869690Y-49399834D01*
X74888738Y-49361738D01*
X74812548Y-49742690D02*
X74793500Y-49761738D01*
X74774452Y-49799833D01*
X74774452Y-49895071D01*
X74793500Y-49933167D01*
X74812548Y-49952214D01*
X74850643Y-49971262D01*
X74888738Y-49971262D01*
X74945881Y-49952214D01*
X75174452Y-49723643D01*
X75174452Y-49971262D01*
X80470357Y-49336358D02*
X80489405Y-49317310D01*
X80508452Y-49260167D01*
X80508452Y-49222072D01*
X80489405Y-49164929D01*
X80451310Y-49126834D01*
X80413214Y-49107786D01*
X80337024Y-49088738D01*
X80279881Y-49088738D01*
X80203690Y-49107786D01*
X80165595Y-49126834D01*
X80127500Y-49164929D01*
X80108452Y-49222072D01*
X80108452Y-49260167D01*
X80127500Y-49317310D01*
X80146548Y-49336358D01*
X80508452Y-49717310D02*
X80508452Y-49488738D01*
X80508452Y-49603024D02*
X80108452Y-49603024D01*
X80165595Y-49564929D01*
X80203690Y-49526834D01*
X80222738Y-49488738D01*
X80108452Y-49850643D02*
X80108452Y-50098262D01*
X80260833Y-49964929D01*
X80260833Y-50022071D01*
X80279881Y-50060167D01*
X80298929Y-50079214D01*
X80337024Y-50098262D01*
X80432262Y-50098262D01*
X80470357Y-50079214D01*
X80489405Y-50060167D01*
X80508452Y-50022071D01*
X80508452Y-49907786D01*
X80489405Y-49869690D01*
X80470357Y-49850643D01*
D11*
X99476143Y-67175143D02*
X99523762Y-67127524D01*
X99571381Y-66984667D01*
X99571381Y-66889429D01*
X99523762Y-66746571D01*
X99428524Y-66651333D01*
X99333286Y-66603714D01*
X99142810Y-66556095D01*
X98999952Y-66556095D01*
X98809476Y-66603714D01*
X98714238Y-66651333D01*
X98619000Y-66746571D01*
X98571381Y-66889429D01*
X98571381Y-66984667D01*
X98619000Y-67127524D01*
X98666619Y-67175143D01*
X99571381Y-68127524D02*
X99571381Y-67556095D01*
X99571381Y-67841809D02*
X98571381Y-67841809D01*
X98714238Y-67746571D01*
X98809476Y-67651333D01*
X98857095Y-67556095D01*
X98571381Y-69032286D02*
X98571381Y-68556095D01*
X99047571Y-68508476D01*
X98999952Y-68556095D01*
X98952333Y-68651333D01*
X98952333Y-68889429D01*
X98999952Y-68984667D01*
X99047571Y-69032286D01*
X99142810Y-69079905D01*
X99380905Y-69079905D01*
X99476143Y-69032286D01*
X99523762Y-68984667D01*
X99571381Y-68889429D01*
X99571381Y-68651333D01*
X99523762Y-68556095D01*
X99476143Y-68508476D01*
D10*
X111267857Y-53590858D02*
X111286905Y-53571810D01*
X111305952Y-53514667D01*
X111305952Y-53476572D01*
X111286905Y-53419429D01*
X111248810Y-53381334D01*
X111210714Y-53362286D01*
X111134524Y-53343238D01*
X111077381Y-53343238D01*
X111001190Y-53362286D01*
X110963095Y-53381334D01*
X110925000Y-53419429D01*
X110905952Y-53476572D01*
X110905952Y-53514667D01*
X110925000Y-53571810D01*
X110944048Y-53590858D01*
X111305952Y-53971810D02*
X111305952Y-53743238D01*
X111305952Y-53857524D02*
X110905952Y-53857524D01*
X110963095Y-53819429D01*
X111001190Y-53781334D01*
X111020238Y-53743238D01*
X110905952Y-54314667D02*
X110905952Y-54238476D01*
X110925000Y-54200381D01*
X110944048Y-54181333D01*
X111001190Y-54143238D01*
X111077381Y-54124190D01*
X111229762Y-54124190D01*
X111267857Y-54143238D01*
X111286905Y-54162286D01*
X111305952Y-54200381D01*
X111305952Y-54276571D01*
X111286905Y-54314667D01*
X111267857Y-54333714D01*
X111229762Y-54352762D01*
X111134524Y-54352762D01*
X111096429Y-54333714D01*
X111077381Y-54314667D01*
X111058333Y-54276571D01*
X111058333Y-54200381D01*
X111077381Y-54162286D01*
X111096429Y-54143238D01*
X111134524Y-54124190D01*
X98936142Y-77485857D02*
X98955190Y-77504905D01*
X99012333Y-77523952D01*
X99050428Y-77523952D01*
X99107571Y-77504905D01*
X99145666Y-77466810D01*
X99164714Y-77428714D01*
X99183762Y-77352524D01*
X99183762Y-77295381D01*
X99164714Y-77219190D01*
X99145666Y-77181095D01*
X99107571Y-77143000D01*
X99050428Y-77123952D01*
X99012333Y-77123952D01*
X98955190Y-77143000D01*
X98936142Y-77162048D01*
X98555190Y-77523952D02*
X98783762Y-77523952D01*
X98669476Y-77523952D02*
X98669476Y-77123952D01*
X98707571Y-77181095D01*
X98745666Y-77219190D01*
X98783762Y-77238238D01*
X98421857Y-77123952D02*
X98155190Y-77123952D01*
X98326619Y-77523952D01*
X138052142Y-34246857D02*
X138071190Y-34265905D01*
X138128333Y-34284952D01*
X138166428Y-34284952D01*
X138223571Y-34265905D01*
X138261666Y-34227810D01*
X138280714Y-34189714D01*
X138299762Y-34113524D01*
X138299762Y-34056381D01*
X138280714Y-33980190D01*
X138261666Y-33942095D01*
X138223571Y-33904000D01*
X138166428Y-33884952D01*
X138128333Y-33884952D01*
X138071190Y-33904000D01*
X138052142Y-33923048D01*
X137671190Y-34284952D02*
X137899762Y-34284952D01*
X137785476Y-34284952D02*
X137785476Y-33884952D01*
X137823571Y-33942095D01*
X137861666Y-33980190D01*
X137899762Y-33999238D01*
X137442619Y-34056381D02*
X137480714Y-34037333D01*
X137499762Y-34018286D01*
X137518810Y-33980190D01*
X137518810Y-33961143D01*
X137499762Y-33923048D01*
X137480714Y-33904000D01*
X137442619Y-33884952D01*
X137366429Y-33884952D01*
X137328333Y-33904000D01*
X137309286Y-33923048D01*
X137290238Y-33961143D01*
X137290238Y-33980190D01*
X137309286Y-34018286D01*
X137328333Y-34037333D01*
X137366429Y-34056381D01*
X137442619Y-34056381D01*
X137480714Y-34075429D01*
X137499762Y-34094476D01*
X137518810Y-34132571D01*
X137518810Y-34208762D01*
X137499762Y-34246857D01*
X137480714Y-34265905D01*
X137442619Y-34284952D01*
X137366429Y-34284952D01*
X137328333Y-34265905D01*
X137309286Y-34246857D01*
X137290238Y-34208762D01*
X137290238Y-34132571D01*
X137309286Y-34094476D01*
X137328333Y-34075429D01*
X137366429Y-34056381D01*
X105286142Y-77485857D02*
X105305190Y-77504905D01*
X105362333Y-77523952D01*
X105400428Y-77523952D01*
X105457571Y-77504905D01*
X105495666Y-77466810D01*
X105514714Y-77428714D01*
X105533762Y-77352524D01*
X105533762Y-77295381D01*
X105514714Y-77219190D01*
X105495666Y-77181095D01*
X105457571Y-77143000D01*
X105400428Y-77123952D01*
X105362333Y-77123952D01*
X105305190Y-77143000D01*
X105286142Y-77162048D01*
X104905190Y-77523952D02*
X105133762Y-77523952D01*
X105019476Y-77523952D02*
X105019476Y-77123952D01*
X105057571Y-77181095D01*
X105095666Y-77219190D01*
X105133762Y-77238238D01*
X104714714Y-77523952D02*
X104638524Y-77523952D01*
X104600429Y-77504905D01*
X104581381Y-77485857D01*
X104543286Y-77428714D01*
X104524238Y-77352524D01*
X104524238Y-77200143D01*
X104543286Y-77162048D01*
X104562333Y-77143000D01*
X104600429Y-77123952D01*
X104676619Y-77123952D01*
X104714714Y-77143000D01*
X104733762Y-77162048D01*
X104752810Y-77200143D01*
X104752810Y-77295381D01*
X104733762Y-77333476D01*
X104714714Y-77352524D01*
X104676619Y-77371571D01*
X104600429Y-77371571D01*
X104562333Y-77352524D01*
X104543286Y-77333476D01*
X104524238Y-77295381D01*
X56137142Y-77739857D02*
X56156190Y-77758905D01*
X56213333Y-77777952D01*
X56251428Y-77777952D01*
X56308571Y-77758905D01*
X56346666Y-77720810D01*
X56365714Y-77682714D01*
X56384762Y-77606524D01*
X56384762Y-77549381D01*
X56365714Y-77473190D01*
X56346666Y-77435095D01*
X56308571Y-77397000D01*
X56251428Y-77377952D01*
X56213333Y-77377952D01*
X56156190Y-77397000D01*
X56137142Y-77416048D01*
X55984762Y-77416048D02*
X55965714Y-77397000D01*
X55927619Y-77377952D01*
X55832381Y-77377952D01*
X55794285Y-77397000D01*
X55775238Y-77416048D01*
X55756190Y-77454143D01*
X55756190Y-77492238D01*
X55775238Y-77549381D01*
X56003809Y-77777952D01*
X55756190Y-77777952D01*
X55508571Y-77377952D02*
X55470476Y-77377952D01*
X55432381Y-77397000D01*
X55413333Y-77416048D01*
X55394286Y-77454143D01*
X55375238Y-77530333D01*
X55375238Y-77625571D01*
X55394286Y-77701762D01*
X55413333Y-77739857D01*
X55432381Y-77758905D01*
X55470476Y-77777952D01*
X55508571Y-77777952D01*
X55546667Y-77758905D01*
X55565714Y-77739857D01*
X55584762Y-77701762D01*
X55603810Y-77625571D01*
X55603810Y-77530333D01*
X55584762Y-77454143D01*
X55565714Y-77416048D01*
X55546667Y-77397000D01*
X55508571Y-77377952D01*
X159007142Y-35956857D02*
X159026190Y-35975905D01*
X159083333Y-35994952D01*
X159121428Y-35994952D01*
X159178571Y-35975905D01*
X159216666Y-35937810D01*
X159235714Y-35899714D01*
X159254762Y-35823524D01*
X159254762Y-35766381D01*
X159235714Y-35690190D01*
X159216666Y-35652095D01*
X159178571Y-35614000D01*
X159121428Y-35594952D01*
X159083333Y-35594952D01*
X159026190Y-35614000D01*
X159007142Y-35633048D01*
X158854762Y-35633048D02*
X158835714Y-35614000D01*
X158797619Y-35594952D01*
X158702381Y-35594952D01*
X158664285Y-35614000D01*
X158645238Y-35633048D01*
X158626190Y-35671143D01*
X158626190Y-35709238D01*
X158645238Y-35766381D01*
X158873809Y-35994952D01*
X158626190Y-35994952D01*
X158245238Y-35994952D02*
X158473810Y-35994952D01*
X158359524Y-35994952D02*
X158359524Y-35594952D01*
X158397619Y-35652095D01*
X158435714Y-35690190D01*
X158473810Y-35709238D01*
X45723142Y-29733857D02*
X45742190Y-29752905D01*
X45799333Y-29771952D01*
X45837428Y-29771952D01*
X45894571Y-29752905D01*
X45932666Y-29714810D01*
X45951714Y-29676714D01*
X45970762Y-29600524D01*
X45970762Y-29543381D01*
X45951714Y-29467190D01*
X45932666Y-29429095D01*
X45894571Y-29391000D01*
X45837428Y-29371952D01*
X45799333Y-29371952D01*
X45742190Y-29391000D01*
X45723142Y-29410048D01*
X45570762Y-29410048D02*
X45551714Y-29391000D01*
X45513619Y-29371952D01*
X45418381Y-29371952D01*
X45380285Y-29391000D01*
X45361238Y-29410048D01*
X45342190Y-29448143D01*
X45342190Y-29486238D01*
X45361238Y-29543381D01*
X45589809Y-29771952D01*
X45342190Y-29771952D01*
X45189810Y-29410048D02*
X45170762Y-29391000D01*
X45132667Y-29371952D01*
X45037429Y-29371952D01*
X44999333Y-29391000D01*
X44980286Y-29410048D01*
X44961238Y-29448143D01*
X44961238Y-29486238D01*
X44980286Y-29543381D01*
X45208857Y-29771952D01*
X44961238Y-29771952D01*
X50549142Y-77612857D02*
X50568190Y-77631905D01*
X50625333Y-77650952D01*
X50663428Y-77650952D01*
X50720571Y-77631905D01*
X50758666Y-77593810D01*
X50777714Y-77555714D01*
X50796762Y-77479524D01*
X50796762Y-77422381D01*
X50777714Y-77346190D01*
X50758666Y-77308095D01*
X50720571Y-77270000D01*
X50663428Y-77250952D01*
X50625333Y-77250952D01*
X50568190Y-77270000D01*
X50549142Y-77289048D01*
X50396762Y-77289048D02*
X50377714Y-77270000D01*
X50339619Y-77250952D01*
X50244381Y-77250952D01*
X50206285Y-77270000D01*
X50187238Y-77289048D01*
X50168190Y-77327143D01*
X50168190Y-77365238D01*
X50187238Y-77422381D01*
X50415809Y-77650952D01*
X50168190Y-77650952D01*
X50034857Y-77250952D02*
X49787238Y-77250952D01*
X49920571Y-77403333D01*
X49863429Y-77403333D01*
X49825333Y-77422381D01*
X49806286Y-77441429D01*
X49787238Y-77479524D01*
X49787238Y-77574762D01*
X49806286Y-77612857D01*
X49825333Y-77631905D01*
X49863429Y-77650952D01*
X49977714Y-77650952D01*
X50015810Y-77631905D01*
X50034857Y-77612857D01*
X139449142Y-81862857D02*
X139468190Y-81881905D01*
X139525333Y-81900952D01*
X139563428Y-81900952D01*
X139620571Y-81881905D01*
X139658666Y-81843810D01*
X139677714Y-81805714D01*
X139696762Y-81729524D01*
X139696762Y-81672381D01*
X139677714Y-81596190D01*
X139658666Y-81558095D01*
X139620571Y-81520000D01*
X139563428Y-81500952D01*
X139525333Y-81500952D01*
X139468190Y-81520000D01*
X139449142Y-81539048D01*
X139296762Y-81539048D02*
X139277714Y-81520000D01*
X139239619Y-81500952D01*
X139144381Y-81500952D01*
X139106285Y-81520000D01*
X139087238Y-81539048D01*
X139068190Y-81577143D01*
X139068190Y-81615238D01*
X139087238Y-81672381D01*
X139315809Y-81900952D01*
X139068190Y-81900952D01*
X138725333Y-81634286D02*
X138725333Y-81900952D01*
X138820571Y-81481905D02*
X138915810Y-81767619D01*
X138668190Y-81767619D01*
X61864857Y-53844858D02*
X61883905Y-53825810D01*
X61902952Y-53768667D01*
X61902952Y-53730572D01*
X61883905Y-53673429D01*
X61845810Y-53635334D01*
X61807714Y-53616286D01*
X61731524Y-53597238D01*
X61674381Y-53597238D01*
X61598190Y-53616286D01*
X61560095Y-53635334D01*
X61522000Y-53673429D01*
X61502952Y-53730572D01*
X61502952Y-53768667D01*
X61522000Y-53825810D01*
X61541048Y-53844858D01*
X61541048Y-53997238D02*
X61522000Y-54016286D01*
X61502952Y-54054381D01*
X61502952Y-54149619D01*
X61522000Y-54187715D01*
X61541048Y-54206762D01*
X61579143Y-54225810D01*
X61617238Y-54225810D01*
X61674381Y-54206762D01*
X61902952Y-53978191D01*
X61902952Y-54225810D01*
X61502952Y-54587714D02*
X61502952Y-54397238D01*
X61693429Y-54378190D01*
X61674381Y-54397238D01*
X61655333Y-54435333D01*
X61655333Y-54530571D01*
X61674381Y-54568667D01*
X61693429Y-54587714D01*
X61731524Y-54606762D01*
X61826762Y-54606762D01*
X61864857Y-54587714D01*
X61883905Y-54568667D01*
X61902952Y-54530571D01*
X61902952Y-54435333D01*
X61883905Y-54397238D01*
X61864857Y-54378190D01*
X51450857Y-64766858D02*
X51469905Y-64747810D01*
X51488952Y-64690667D01*
X51488952Y-64652572D01*
X51469905Y-64595429D01*
X51431810Y-64557334D01*
X51393714Y-64538286D01*
X51317524Y-64519238D01*
X51260381Y-64519238D01*
X51184190Y-64538286D01*
X51146095Y-64557334D01*
X51108000Y-64595429D01*
X51088952Y-64652572D01*
X51088952Y-64690667D01*
X51108000Y-64747810D01*
X51127048Y-64766858D01*
X51127048Y-64919238D02*
X51108000Y-64938286D01*
X51088952Y-64976381D01*
X51088952Y-65071619D01*
X51108000Y-65109715D01*
X51127048Y-65128762D01*
X51165143Y-65147810D01*
X51203238Y-65147810D01*
X51260381Y-65128762D01*
X51488952Y-64900191D01*
X51488952Y-65147810D01*
X51088952Y-65490667D02*
X51088952Y-65414476D01*
X51108000Y-65376381D01*
X51127048Y-65357333D01*
X51184190Y-65319238D01*
X51260381Y-65300190D01*
X51412762Y-65300190D01*
X51450857Y-65319238D01*
X51469905Y-65338286D01*
X51488952Y-65376381D01*
X51488952Y-65452571D01*
X51469905Y-65490667D01*
X51450857Y-65509714D01*
X51412762Y-65528762D01*
X51317524Y-65528762D01*
X51279429Y-65509714D01*
X51260381Y-65490667D01*
X51241333Y-65452571D01*
X51241333Y-65376381D01*
X51260381Y-65338286D01*
X51279429Y-65319238D01*
X51317524Y-65300190D01*
D11*
X130912381Y-41782905D02*
X129912381Y-41782905D01*
X129912381Y-42163858D01*
X129960000Y-42259096D01*
X130007619Y-42306715D01*
X130102857Y-42354334D01*
X130245714Y-42354334D01*
X130340952Y-42306715D01*
X130388571Y-42259096D01*
X130436190Y-42163858D01*
X130436190Y-41782905D01*
X130912381Y-43306715D02*
X130912381Y-42735286D01*
X130912381Y-43021000D02*
X129912381Y-43021000D01*
X130055238Y-42925762D01*
X130150476Y-42830524D01*
X130198095Y-42735286D01*
D10*
X80203666Y-58727952D02*
X80337000Y-58537476D01*
X80432238Y-58727952D02*
X80432238Y-58327952D01*
X80279857Y-58327952D01*
X80241762Y-58347000D01*
X80222714Y-58366048D01*
X80203666Y-58404143D01*
X80203666Y-58461286D01*
X80222714Y-58499381D01*
X80241762Y-58518429D01*
X80279857Y-58537476D01*
X80432238Y-58537476D01*
X79841762Y-58327952D02*
X80032238Y-58327952D01*
X80051286Y-58518429D01*
X80032238Y-58499381D01*
X79994143Y-58480333D01*
X79898905Y-58480333D01*
X79860809Y-58499381D01*
X79841762Y-58518429D01*
X79822714Y-58556524D01*
X79822714Y-58651762D01*
X79841762Y-58689857D01*
X79860809Y-58708905D01*
X79898905Y-58727952D01*
X79994143Y-58727952D01*
X80032238Y-58708905D01*
X80051286Y-58689857D01*
X80330666Y-56695952D02*
X80464000Y-56505476D01*
X80559238Y-56695952D02*
X80559238Y-56295952D01*
X80406857Y-56295952D01*
X80368762Y-56315000D01*
X80349714Y-56334048D01*
X80330666Y-56372143D01*
X80330666Y-56429286D01*
X80349714Y-56467381D01*
X80368762Y-56486429D01*
X80406857Y-56505476D01*
X80559238Y-56505476D01*
X79987809Y-56295952D02*
X80064000Y-56295952D01*
X80102095Y-56315000D01*
X80121143Y-56334048D01*
X80159238Y-56391190D01*
X80178286Y-56467381D01*
X80178286Y-56619762D01*
X80159238Y-56657857D01*
X80140190Y-56676905D01*
X80102095Y-56695952D01*
X80025905Y-56695952D01*
X79987809Y-56676905D01*
X79968762Y-56657857D01*
X79949714Y-56619762D01*
X79949714Y-56524524D01*
X79968762Y-56486429D01*
X79987809Y-56467381D01*
X80025905Y-56448333D01*
X80102095Y-56448333D01*
X80140190Y-56467381D01*
X80159238Y-56486429D01*
X80178286Y-56524524D01*
X64061952Y-39176334D02*
X63871476Y-39043000D01*
X64061952Y-38947762D02*
X63661952Y-38947762D01*
X63661952Y-39100143D01*
X63681000Y-39138238D01*
X63700048Y-39157286D01*
X63738143Y-39176334D01*
X63795286Y-39176334D01*
X63833381Y-39157286D01*
X63852429Y-39138238D01*
X63871476Y-39100143D01*
X63871476Y-38947762D01*
X63661952Y-39309667D02*
X63661952Y-39576334D01*
X64061952Y-39404905D01*
X96570762Y-32927952D02*
X96570762Y-33251762D01*
X96551714Y-33289857D01*
X96532667Y-33308905D01*
X96494571Y-33327952D01*
X96418381Y-33327952D01*
X96380286Y-33308905D01*
X96361238Y-33289857D01*
X96342190Y-33251762D01*
X96342190Y-32927952D01*
X95942190Y-33327952D02*
X96170762Y-33327952D01*
X96056476Y-33327952D02*
X96056476Y-32927952D01*
X96094571Y-32985095D01*
X96132666Y-33023190D01*
X96170762Y-33042238D01*
D11*
X78192381Y-43434095D02*
X79001905Y-43434095D01*
X79097143Y-43481714D01*
X79144762Y-43529333D01*
X79192381Y-43624571D01*
X79192381Y-43815048D01*
X79144762Y-43910286D01*
X79097143Y-43957905D01*
X79001905Y-44005524D01*
X78192381Y-44005524D01*
X78192381Y-44386476D02*
X78192381Y-45005524D01*
X78573333Y-44672190D01*
X78573333Y-44815048D01*
X78620952Y-44910286D01*
X78668571Y-44957905D01*
X78763810Y-45005524D01*
X79001905Y-45005524D01*
X79097143Y-44957905D01*
X79144762Y-44910286D01*
X79192381Y-44815048D01*
X79192381Y-44529333D01*
X79144762Y-44434095D01*
X79097143Y-44386476D01*
X56729381Y-43180095D02*
X57538905Y-43180095D01*
X57634143Y-43227714D01*
X57681762Y-43275333D01*
X57729381Y-43370571D01*
X57729381Y-43561048D01*
X57681762Y-43656286D01*
X57634143Y-43703905D01*
X57538905Y-43751524D01*
X56729381Y-43751524D01*
X57062714Y-44656286D02*
X57729381Y-44656286D01*
X56681762Y-44418190D02*
X57396048Y-44180095D01*
X57396048Y-44799143D01*
X125237762Y-36361381D02*
X124999667Y-37361381D01*
X124809190Y-36647095D01*
X124618714Y-37361381D01*
X124380619Y-36361381D01*
X123475857Y-37361381D02*
X124047286Y-37361381D01*
X123761572Y-37361381D02*
X123761572Y-36361381D01*
X123856810Y-36504238D01*
X123952048Y-36599476D01*
X124047286Y-36647095D01*
X93138476Y-37473381D02*
X92519428Y-37473381D01*
X92852762Y-37854333D01*
X92709904Y-37854333D01*
X92614666Y-37901952D01*
X92567047Y-37949571D01*
X92519428Y-38044810D01*
X92519428Y-38282905D01*
X92567047Y-38378143D01*
X92614666Y-38425762D01*
X92709904Y-38473381D01*
X92995619Y-38473381D01*
X93090857Y-38425762D01*
X93138476Y-38378143D01*
X92186095Y-37806714D02*
X91948000Y-38473381D01*
X91709904Y-37806714D01*
X91424190Y-37473381D02*
X90805142Y-37473381D01*
X91138476Y-37854333D01*
X90995618Y-37854333D01*
X90900380Y-37901952D01*
X90852761Y-37949571D01*
X90805142Y-38044810D01*
X90805142Y-38282905D01*
X90852761Y-38378143D01*
X90900380Y-38425762D01*
X90995618Y-38473381D01*
X91281333Y-38473381D01*
X91376571Y-38425762D01*
X91424190Y-38378143D01*
X145430857Y-53808381D02*
X145907048Y-53808381D01*
X145954667Y-54284571D01*
X145907048Y-54236952D01*
X145811810Y-54189333D01*
X145573714Y-54189333D01*
X145478476Y-54236952D01*
X145430857Y-54284571D01*
X145383238Y-54379810D01*
X145383238Y-54617905D01*
X145430857Y-54713143D01*
X145478476Y-54760762D01*
X145573714Y-54808381D01*
X145811810Y-54808381D01*
X145907048Y-54760762D01*
X145954667Y-54713143D01*
X145049905Y-54141714D02*
X144811810Y-54808381D01*
X144573714Y-54141714D01*
D10*
X75120475Y-48250476D02*
X75120475Y-48440952D01*
X75253809Y-48040952D02*
X75120475Y-48250476D01*
X74987142Y-48040952D01*
X74644285Y-48440952D02*
X74872857Y-48440952D01*
X74758571Y-48440952D02*
X74758571Y-48040952D01*
X74796666Y-48098095D01*
X74834761Y-48136190D01*
X74872857Y-48155238D01*
X155717857Y-45780334D02*
X155736905Y-45761286D01*
X155755952Y-45704143D01*
X155755952Y-45666048D01*
X155736905Y-45608905D01*
X155698810Y-45570810D01*
X155660714Y-45551762D01*
X155584524Y-45532714D01*
X155527381Y-45532714D01*
X155451190Y-45551762D01*
X155413095Y-45570810D01*
X155375000Y-45608905D01*
X155355952Y-45666048D01*
X155355952Y-45704143D01*
X155375000Y-45761286D01*
X155394048Y-45780334D01*
X155489286Y-46123191D02*
X155755952Y-46123191D01*
X155336905Y-46027953D02*
X155622619Y-45932714D01*
X155622619Y-46180334D01*
X154117666Y-43576857D02*
X154136714Y-43595905D01*
X154193857Y-43614952D01*
X154231952Y-43614952D01*
X154289095Y-43595905D01*
X154327190Y-43557810D01*
X154346238Y-43519714D01*
X154365286Y-43443524D01*
X154365286Y-43386381D01*
X154346238Y-43310190D01*
X154327190Y-43272095D01*
X154289095Y-43234000D01*
X154231952Y-43214952D01*
X154193857Y-43214952D01*
X154136714Y-43234000D01*
X154117666Y-43253048D01*
X153755762Y-43214952D02*
X153946238Y-43214952D01*
X153965286Y-43405429D01*
X153946238Y-43386381D01*
X153908143Y-43367333D01*
X153812905Y-43367333D01*
X153774809Y-43386381D01*
X153755762Y-43405429D01*
X153736714Y-43443524D01*
X153736714Y-43538762D01*
X153755762Y-43576857D01*
X153774809Y-43595905D01*
X153812905Y-43614952D01*
X153908143Y-43614952D01*
X153946238Y-43595905D01*
X153965286Y-43576857D01*
X144287857Y-48066334D02*
X144306905Y-48047286D01*
X144325952Y-47990143D01*
X144325952Y-47952048D01*
X144306905Y-47894905D01*
X144268810Y-47856810D01*
X144230714Y-47837762D01*
X144154524Y-47818714D01*
X144097381Y-47818714D01*
X144021190Y-47837762D01*
X143983095Y-47856810D01*
X143945000Y-47894905D01*
X143925952Y-47952048D01*
X143925952Y-47990143D01*
X143945000Y-48047286D01*
X143964048Y-48066334D01*
X143925952Y-48409191D02*
X143925952Y-48333000D01*
X143945000Y-48294905D01*
X143964048Y-48275857D01*
X144021190Y-48237762D01*
X144097381Y-48218714D01*
X144249762Y-48218714D01*
X144287857Y-48237762D01*
X144306905Y-48256810D01*
X144325952Y-48294905D01*
X144325952Y-48371095D01*
X144306905Y-48409191D01*
X144287857Y-48428238D01*
X144249762Y-48447286D01*
X144154524Y-48447286D01*
X144116429Y-48428238D01*
X144097381Y-48409191D01*
X144078333Y-48371095D01*
X144078333Y-48294905D01*
X144097381Y-48256810D01*
X144116429Y-48237762D01*
X144154524Y-48218714D01*
X146319857Y-48002858D02*
X146338905Y-47983810D01*
X146357952Y-47926667D01*
X146357952Y-47888572D01*
X146338905Y-47831429D01*
X146300810Y-47793334D01*
X146262714Y-47774286D01*
X146186524Y-47755238D01*
X146129381Y-47755238D01*
X146053190Y-47774286D01*
X146015095Y-47793334D01*
X145977000Y-47831429D01*
X145957952Y-47888572D01*
X145957952Y-47926667D01*
X145977000Y-47983810D01*
X145996048Y-48002858D01*
X146357952Y-48383810D02*
X146357952Y-48155238D01*
X146357952Y-48269524D02*
X145957952Y-48269524D01*
X146015095Y-48231429D01*
X146053190Y-48193334D01*
X146072238Y-48155238D01*
X146091286Y-48726667D02*
X146357952Y-48726667D01*
X145938905Y-48631429D02*
X146224619Y-48536190D01*
X146224619Y-48783810D01*
X148351857Y-48002858D02*
X148370905Y-47983810D01*
X148389952Y-47926667D01*
X148389952Y-47888572D01*
X148370905Y-47831429D01*
X148332810Y-47793334D01*
X148294714Y-47774286D01*
X148218524Y-47755238D01*
X148161381Y-47755238D01*
X148085190Y-47774286D01*
X148047095Y-47793334D01*
X148009000Y-47831429D01*
X147989952Y-47888572D01*
X147989952Y-47926667D01*
X148009000Y-47983810D01*
X148028048Y-48002858D01*
X148028048Y-48155238D02*
X148009000Y-48174286D01*
X147989952Y-48212381D01*
X147989952Y-48307619D01*
X148009000Y-48345715D01*
X148028048Y-48364762D01*
X148066143Y-48383810D01*
X148104238Y-48383810D01*
X148161381Y-48364762D01*
X148389952Y-48136191D01*
X148389952Y-48383810D01*
X147989952Y-48517143D02*
X147989952Y-48783810D01*
X148389952Y-48612381D01*
X151340333Y-49883190D02*
X151578428Y-49883190D01*
X151578428Y-49383190D01*
X150911762Y-49883190D02*
X151197476Y-49883190D01*
X151054619Y-49883190D02*
X151054619Y-49383190D01*
X151102238Y-49454619D01*
X151149857Y-49502238D01*
X151197476Y-49526048D01*
X151561762Y-45500952D02*
X151561762Y-45824762D01*
X151542714Y-45862857D01*
X151523667Y-45881905D01*
X151485571Y-45900952D01*
X151409381Y-45900952D01*
X151371286Y-45881905D01*
X151352238Y-45862857D01*
X151333190Y-45824762D01*
X151333190Y-45500952D01*
X151161762Y-45539048D02*
X151142714Y-45520000D01*
X151104619Y-45500952D01*
X151009381Y-45500952D01*
X150971285Y-45520000D01*
X150952238Y-45539048D01*
X150933190Y-45577143D01*
X150933190Y-45615238D01*
X150952238Y-45672381D01*
X151180809Y-45900952D01*
X150933190Y-45900952D01*
D11*
X91090190Y-54757143D02*
X91137809Y-54804762D01*
X91280666Y-54852381D01*
X91375904Y-54852381D01*
X91518762Y-54804762D01*
X91614000Y-54709524D01*
X91661619Y-54614286D01*
X91709238Y-54423810D01*
X91709238Y-54280952D01*
X91661619Y-54090476D01*
X91614000Y-53995238D01*
X91518762Y-53900000D01*
X91375904Y-53852381D01*
X91280666Y-53852381D01*
X91137809Y-53900000D01*
X91090190Y-53947619D01*
X90471143Y-53852381D02*
X90280666Y-53852381D01*
X90185428Y-53900000D01*
X90090190Y-53995238D01*
X90042571Y-54185714D01*
X90042571Y-54519048D01*
X90090190Y-54709524D01*
X90185428Y-54804762D01*
X90280666Y-54852381D01*
X90471143Y-54852381D01*
X90566381Y-54804762D01*
X90661619Y-54709524D01*
X90709238Y-54519048D01*
X90709238Y-54185714D01*
X90661619Y-53995238D01*
X90566381Y-53900000D01*
X90471143Y-53852381D01*
X89614000Y-54852381D02*
X89614000Y-53852381D01*
X89042571Y-54852381D01*
X89042571Y-53852381D01*
X88566381Y-54852381D02*
X88566381Y-53852381D01*
X87994952Y-54852381D01*
X87994952Y-53852381D01*
X87756857Y-54947619D02*
X86994952Y-54947619D01*
X86185428Y-54757143D02*
X86233047Y-54804762D01*
X86375904Y-54852381D01*
X86471142Y-54852381D01*
X86614000Y-54804762D01*
X86709238Y-54709524D01*
X86756857Y-54614286D01*
X86804476Y-54423810D01*
X86804476Y-54280952D01*
X86756857Y-54090476D01*
X86709238Y-53995238D01*
X86614000Y-53900000D01*
X86471142Y-53852381D01*
X86375904Y-53852381D01*
X86233047Y-53900000D01*
X86185428Y-53947619D01*
X85566381Y-53852381D02*
X85375904Y-53852381D01*
X85280666Y-53900000D01*
X85185428Y-53995238D01*
X85137809Y-54185714D01*
X85137809Y-54519048D01*
X85185428Y-54709524D01*
X85280666Y-54804762D01*
X85375904Y-54852381D01*
X85566381Y-54852381D01*
X85661619Y-54804762D01*
X85756857Y-54709524D01*
X85804476Y-54519048D01*
X85804476Y-54185714D01*
X85756857Y-53995238D01*
X85661619Y-53900000D01*
X85566381Y-53852381D01*
X84137809Y-54852381D02*
X84471143Y-54376190D01*
X84709238Y-54852381D02*
X84709238Y-53852381D01*
X84328285Y-53852381D01*
X84233047Y-53900000D01*
X84185428Y-53947619D01*
X84137809Y-54042857D01*
X84137809Y-54185714D01*
X84185428Y-54280952D01*
X84233047Y-54328571D01*
X84328285Y-54376190D01*
X84709238Y-54376190D01*
X83852095Y-53852381D02*
X83280666Y-53852381D01*
X83566381Y-54852381D02*
X83566381Y-53852381D01*
X82947333Y-54328571D02*
X82613999Y-54328571D01*
X82471142Y-54852381D02*
X82947333Y-54852381D01*
X82947333Y-53852381D01*
X82471142Y-53852381D01*
X82137809Y-53852381D02*
X81471142Y-54852381D01*
X81471142Y-53852381D02*
X82137809Y-54852381D01*
X102671381Y-48771381D02*
X103004715Y-48295190D01*
X103242810Y-48771381D02*
X103242810Y-47771381D01*
X102861857Y-47771381D01*
X102766619Y-47819000D01*
X102719000Y-47866619D01*
X102671381Y-47961857D01*
X102671381Y-48104714D01*
X102719000Y-48199952D01*
X102766619Y-48247571D01*
X102861857Y-48295190D01*
X103242810Y-48295190D01*
X102242810Y-48247571D02*
X101909476Y-48247571D01*
X101766619Y-48771381D02*
X102242810Y-48771381D01*
X102242810Y-47771381D01*
X101766619Y-47771381D01*
X101385667Y-48723762D02*
X101242810Y-48771381D01*
X101004714Y-48771381D01*
X100909476Y-48723762D01*
X100861857Y-48676143D01*
X100814238Y-48580905D01*
X100814238Y-48485667D01*
X100861857Y-48390429D01*
X100909476Y-48342810D01*
X101004714Y-48295190D01*
X101195191Y-48247571D01*
X101290429Y-48199952D01*
X101338048Y-48152333D01*
X101385667Y-48057095D01*
X101385667Y-47961857D01*
X101338048Y-47866619D01*
X101290429Y-47819000D01*
X101195191Y-47771381D01*
X100957095Y-47771381D01*
X100814238Y-47819000D01*
X100385667Y-48247571D02*
X100052333Y-48247571D01*
X99909476Y-48771381D02*
X100385667Y-48771381D01*
X100385667Y-47771381D01*
X99909476Y-47771381D01*
X99623762Y-47771381D02*
X99052333Y-47771381D01*
X99338048Y-48771381D02*
X99338048Y-47771381D01*
X70040333Y-50177381D02*
X70040333Y-49177381D01*
X69659380Y-49177381D01*
X69564142Y-49225000D01*
X69516523Y-49272619D01*
X69468904Y-49367857D01*
X69468904Y-49510714D01*
X69516523Y-49605952D01*
X69564142Y-49653571D01*
X69659380Y-49701190D01*
X70040333Y-49701190D01*
X69135571Y-49177381D02*
X68897476Y-50177381D01*
X68706999Y-49463095D01*
X68516523Y-50177381D01*
X68278428Y-49177381D01*
X67326047Y-50177381D02*
X67659381Y-49701190D01*
X67897476Y-50177381D02*
X67897476Y-49177381D01*
X67516523Y-49177381D01*
X67421285Y-49225000D01*
X67373666Y-49272619D01*
X67326047Y-49367857D01*
X67326047Y-49510714D01*
X67373666Y-49605952D01*
X67421285Y-49653571D01*
X67516523Y-49701190D01*
X67897476Y-49701190D01*
X70516524Y-58559381D02*
X70516524Y-57559381D01*
X70183190Y-58273667D01*
X69849857Y-57559381D01*
X69849857Y-58559381D01*
X69183191Y-57559381D02*
X68992714Y-57559381D01*
X68897476Y-57607000D01*
X68802238Y-57702238D01*
X68754619Y-57892714D01*
X68754619Y-58226048D01*
X68802238Y-58416524D01*
X68897476Y-58511762D01*
X68992714Y-58559381D01*
X69183191Y-58559381D01*
X69278429Y-58511762D01*
X69373667Y-58416524D01*
X69421286Y-58226048D01*
X69421286Y-57892714D01*
X69373667Y-57702238D01*
X69278429Y-57607000D01*
X69183191Y-57559381D01*
X68326048Y-58559381D02*
X68326048Y-57559381D01*
X68087953Y-57559381D01*
X67945095Y-57607000D01*
X67849857Y-57702238D01*
X67802238Y-57797476D01*
X67754619Y-57987952D01*
X67754619Y-58130810D01*
X67802238Y-58321286D01*
X67849857Y-58416524D01*
X67945095Y-58511762D01*
X68087953Y-58559381D01*
X68326048Y-58559381D01*
X67326048Y-58035571D02*
X66992714Y-58035571D01*
X66849857Y-58559381D02*
X67326048Y-58559381D01*
X67326048Y-57559381D01*
X66849857Y-57559381D01*
X70778428Y-66290571D02*
X70635571Y-66338190D01*
X70587952Y-66385810D01*
X70540333Y-66481048D01*
X70540333Y-66623905D01*
X70587952Y-66719143D01*
X70635571Y-66766762D01*
X70730809Y-66814381D01*
X71111762Y-66814381D01*
X71111762Y-65814381D01*
X70778428Y-65814381D01*
X70683190Y-65862000D01*
X70635571Y-65909619D01*
X70587952Y-66004857D01*
X70587952Y-66100095D01*
X70635571Y-66195333D01*
X70683190Y-66242952D01*
X70778428Y-66290571D01*
X71111762Y-66290571D01*
X69540333Y-66814381D02*
X69873667Y-66338190D01*
X70111762Y-66814381D02*
X70111762Y-65814381D01*
X69730809Y-65814381D01*
X69635571Y-65862000D01*
X69587952Y-65909619D01*
X69540333Y-66004857D01*
X69540333Y-66147714D01*
X69587952Y-66242952D01*
X69635571Y-66290571D01*
X69730809Y-66338190D01*
X70111762Y-66338190D01*
X69111762Y-66814381D02*
X69111762Y-65814381D01*
X68111762Y-65862000D02*
X68207000Y-65814381D01*
X68349857Y-65814381D01*
X68492715Y-65862000D01*
X68587953Y-65957238D01*
X68635572Y-66052476D01*
X68683191Y-66242952D01*
X68683191Y-66385810D01*
X68635572Y-66576286D01*
X68587953Y-66671524D01*
X68492715Y-66766762D01*
X68349857Y-66814381D01*
X68254619Y-66814381D01*
X68111762Y-66766762D01*
X68064143Y-66719143D01*
X68064143Y-66385810D01*
X68254619Y-66385810D01*
X67635572Y-66814381D02*
X67635572Y-65814381D01*
X67635572Y-66290571D02*
X67064143Y-66290571D01*
X67064143Y-66814381D02*
X67064143Y-65814381D01*
X66730810Y-65814381D02*
X66159381Y-65814381D01*
X66445096Y-66814381D02*
X66445096Y-65814381D01*
D10*
X154117666Y-42852952D02*
X154251000Y-42662476D01*
X154346238Y-42852952D02*
X154346238Y-42452952D01*
X154193857Y-42452952D01*
X154155762Y-42472000D01*
X154136714Y-42491048D01*
X154117666Y-42529143D01*
X154117666Y-42586286D01*
X154136714Y-42624381D01*
X154155762Y-42643429D01*
X154193857Y-42662476D01*
X154346238Y-42662476D01*
X153736714Y-42852952D02*
X153965286Y-42852952D01*
X153851000Y-42852952D02*
X153851000Y-42452952D01*
X153889095Y-42510095D01*
X153927190Y-42548190D01*
X153965286Y-42567238D01*
%LPC*%
D13*
X99949000Y-34016000D03*
X99949000Y-31516000D03*
D14*
X95016000Y-38735000D03*
X97516000Y-38735000D03*
D13*
X92456000Y-34016000D03*
X92456000Y-31516000D03*
X67437000Y-43708000D03*
X67437000Y-46208000D03*
D14*
X81808000Y-60198000D03*
X84308000Y-60198000D03*
D13*
X81915000Y-39858000D03*
X81915000Y-37358000D03*
X86487000Y-39858000D03*
X86487000Y-37358000D03*
X84201000Y-39858000D03*
X84201000Y-37358000D03*
X76390500Y-49994500D03*
X76390500Y-52494500D03*
X78930500Y-49994500D03*
X78930500Y-52494500D03*
X101219000Y-66568000D03*
X101219000Y-69068000D03*
X110236000Y-55646000D03*
X110236000Y-58146000D03*
D14*
X95651000Y-78867000D03*
X98151000Y-78867000D03*
X136545000Y-32004000D03*
X139045000Y-32004000D03*
X107930000Y-78867000D03*
X105430000Y-78867000D03*
X58908000Y-78994000D03*
X56408000Y-78994000D03*
X162921000Y-35052000D03*
X160421000Y-35052000D03*
X41041000Y-28829000D03*
X43541000Y-28829000D03*
X47137000Y-78994000D03*
X49637000Y-78994000D03*
X140442000Y-83820000D03*
X137942000Y-83820000D03*
D13*
X60960000Y-55900000D03*
X60960000Y-58400000D03*
X52197000Y-66949000D03*
X52197000Y-69449000D03*
D15*
X127235000Y-42021000D03*
X127235000Y-40021000D03*
D16*
X121685000Y-44421000D03*
X121685000Y-37621000D03*
D17*
X81835000Y-57912000D03*
X84535000Y-57912000D03*
X84535000Y-55753000D03*
X81835000Y-55753000D03*
D18*
X64643000Y-43514000D03*
X64643000Y-40814000D03*
D19*
X97366000Y-34737000D03*
X97366000Y-35687000D03*
X97366000Y-36637000D03*
X95166000Y-36637000D03*
X95166000Y-34737000D03*
D20*
X76968000Y-44128000D03*
X76168000Y-44128000D03*
X75368000Y-44128000D03*
X74568000Y-44128000D03*
X73768000Y-44128000D03*
X72968000Y-44128000D03*
X72168000Y-44128000D03*
X71368000Y-44128000D03*
D21*
X69918000Y-42678000D03*
X69918000Y-41878000D03*
X69918000Y-41078000D03*
X69918000Y-40278000D03*
X69918000Y-39478000D03*
X69918000Y-38678000D03*
X69918000Y-37878000D03*
X69918000Y-37078000D03*
D20*
X71368000Y-35628000D03*
X72168000Y-35628000D03*
X72968000Y-35628000D03*
X73768000Y-35628000D03*
X74568000Y-35628000D03*
X75368000Y-35628000D03*
X76168000Y-35628000D03*
X76968000Y-35628000D03*
D21*
X78418000Y-37078000D03*
X78418000Y-37878000D03*
X78418000Y-38678000D03*
X78418000Y-39478000D03*
X78418000Y-40278000D03*
X78418000Y-41078000D03*
X78418000Y-41878000D03*
X78418000Y-42678000D03*
D22*
X61849000Y-40132000D03*
X61849000Y-41402000D03*
X61849000Y-42672000D03*
X61849000Y-43942000D03*
X61849000Y-45212000D03*
X61849000Y-46482000D03*
X61849000Y-47752000D03*
X55499000Y-47752000D03*
X55499000Y-46482000D03*
X55499000Y-43942000D03*
X55499000Y-42672000D03*
X55499000Y-41402000D03*
X55499000Y-40132000D03*
X55499000Y-45212000D03*
D23*
X124333000Y-33909000D03*
X91948000Y-41021000D03*
X145288000Y-51816000D03*
D24*
X76410500Y-47434500D03*
X78910500Y-47434500D03*
D25*
X52070000Y-33020000D03*
X151130000Y-33020000D03*
D13*
X156337000Y-47518000D03*
X156337000Y-50018000D03*
D14*
X152507000Y-44196000D03*
X150007000Y-44196000D03*
D13*
X143510000Y-46462000D03*
X143510000Y-43962000D03*
X145542000Y-46462000D03*
X145542000Y-43962000D03*
X147574000Y-46462000D03*
X147574000Y-43962000D03*
D26*
X153507000Y-52705000D03*
X149007000Y-52705000D03*
D27*
X152719500Y-48498000D03*
X149794500Y-48498000D03*
X152719500Y-47998000D03*
X149794500Y-47998000D03*
X152719500Y-47498000D03*
X149794500Y-47498000D03*
X152719500Y-46998000D03*
X149794500Y-46998000D03*
X152719500Y-46498000D03*
X149794500Y-46498000D03*
D28*
X151257000Y-47498000D03*
D29*
X88564000Y-47625000D03*
X84664000Y-47625000D03*
X88564000Y-48895000D03*
X84664000Y-48895000D03*
X88564000Y-50165000D03*
X84664000Y-50165000D03*
X88564000Y-51435000D03*
X84664000Y-51435000D03*
X88564000Y-52705000D03*
X84664000Y-52705000D03*
D30*
X97819000Y-42069000D03*
X104619000Y-42069000D03*
X104619000Y-46069000D03*
X97819000Y-46069000D03*
X72107000Y-55975000D03*
X65307000Y-55975000D03*
X65307000Y-51975000D03*
X72107000Y-51975000D03*
X72107000Y-64357000D03*
X65307000Y-64357000D03*
X65307000Y-60357000D03*
X72107000Y-60357000D03*
X72107000Y-72612000D03*
X65307000Y-72612000D03*
X65307000Y-68612000D03*
X72107000Y-68612000D03*
D31*
X75408000Y-31369000D03*
X76058000Y-31369000D03*
X76708000Y-31369000D03*
X77358000Y-31369000D03*
X78008000Y-31369000D03*
D32*
X73608000Y-31219000D03*
X79808000Y-31219000D03*
D33*
X75558000Y-28694000D03*
X77858000Y-28694000D03*
X80508000Y-28694000D03*
X72908000Y-28694000D03*
D17*
X152607000Y-41783000D03*
X149907000Y-41783000D03*
M02*
