G04 #@! TF.FileFunction,Soldermask,Bot*
%FSLAX46Y46*%
G04 Gerber Fmt 4.6, Leading zero omitted, Abs format (unit mm)*
G04 Created by KiCad (PCBNEW 4.0.4+e1-6308~48~ubuntu14.04.1-stable) date Tue May 30 16:51:29 2017*
%MOMM*%
%LPD*%
G01*
G04 APERTURE LIST*
%ADD10C,0.100000*%
G04 APERTURE END LIST*
D10*
G36*
X141268200Y-84521200D02*
X139615800Y-84521200D01*
X139615800Y-83118800D01*
X141268200Y-83118800D01*
X141268200Y-84521200D01*
X141268200Y-84521200D01*
G37*
G36*
X138768200Y-84521200D02*
X137115800Y-84521200D01*
X137115800Y-83118800D01*
X138768200Y-83118800D01*
X138768200Y-84521200D01*
X138768200Y-84521200D01*
G37*
G36*
X57234200Y-79695200D02*
X55581800Y-79695200D01*
X55581800Y-78292800D01*
X57234200Y-78292800D01*
X57234200Y-79695200D01*
X57234200Y-79695200D01*
G37*
G36*
X59734200Y-79695200D02*
X58081800Y-79695200D01*
X58081800Y-78292800D01*
X59734200Y-78292800D01*
X59734200Y-79695200D01*
X59734200Y-79695200D01*
G37*
G36*
X47963200Y-79695200D02*
X46310800Y-79695200D01*
X46310800Y-78292800D01*
X47963200Y-78292800D01*
X47963200Y-79695200D01*
X47963200Y-79695200D01*
G37*
G36*
X50463200Y-79695200D02*
X48810800Y-79695200D01*
X48810800Y-78292800D01*
X50463200Y-78292800D01*
X50463200Y-79695200D01*
X50463200Y-79695200D01*
G37*
G36*
X96477200Y-79568200D02*
X94824800Y-79568200D01*
X94824800Y-78165800D01*
X96477200Y-78165800D01*
X96477200Y-79568200D01*
X96477200Y-79568200D01*
G37*
G36*
X106256200Y-79568200D02*
X104603800Y-79568200D01*
X104603800Y-78165800D01*
X106256200Y-78165800D01*
X106256200Y-79568200D01*
X106256200Y-79568200D01*
G37*
G36*
X108756200Y-79568200D02*
X107103800Y-79568200D01*
X107103800Y-78165800D01*
X108756200Y-78165800D01*
X108756200Y-79568200D01*
X108756200Y-79568200D01*
G37*
G36*
X98977200Y-79568200D02*
X97324800Y-79568200D01*
X97324800Y-78165800D01*
X98977200Y-78165800D01*
X98977200Y-79568200D01*
X98977200Y-79568200D01*
G37*
G36*
X66983200Y-73188200D02*
X63630800Y-73188200D01*
X63630800Y-72035800D01*
X66983200Y-72035800D01*
X66983200Y-73188200D01*
X66983200Y-73188200D01*
G37*
G36*
X73783200Y-73188200D02*
X70430800Y-73188200D01*
X70430800Y-72035800D01*
X73783200Y-72035800D01*
X73783200Y-73188200D01*
X73783200Y-73188200D01*
G37*
G36*
X52898200Y-70275200D02*
X51495800Y-70275200D01*
X51495800Y-68622800D01*
X52898200Y-68622800D01*
X52898200Y-70275200D01*
X52898200Y-70275200D01*
G37*
G36*
X101920200Y-69894200D02*
X100517800Y-69894200D01*
X100517800Y-68241800D01*
X101920200Y-68241800D01*
X101920200Y-69894200D01*
X101920200Y-69894200D01*
G37*
G36*
X73783200Y-69188200D02*
X70430800Y-69188200D01*
X70430800Y-68035800D01*
X73783200Y-68035800D01*
X73783200Y-69188200D01*
X73783200Y-69188200D01*
G37*
G36*
X66983200Y-69188200D02*
X63630800Y-69188200D01*
X63630800Y-68035800D01*
X66983200Y-68035800D01*
X66983200Y-69188200D01*
X66983200Y-69188200D01*
G37*
G36*
X52898200Y-67775200D02*
X51495800Y-67775200D01*
X51495800Y-66122800D01*
X52898200Y-66122800D01*
X52898200Y-67775200D01*
X52898200Y-67775200D01*
G37*
G36*
X101920200Y-67394200D02*
X100517800Y-67394200D01*
X100517800Y-65741800D01*
X101920200Y-65741800D01*
X101920200Y-67394200D01*
X101920200Y-67394200D01*
G37*
G36*
X66983200Y-64933200D02*
X63630800Y-64933200D01*
X63630800Y-63780800D01*
X66983200Y-63780800D01*
X66983200Y-64933200D01*
X66983200Y-64933200D01*
G37*
G36*
X73783200Y-64933200D02*
X70430800Y-64933200D01*
X70430800Y-63780800D01*
X73783200Y-63780800D01*
X73783200Y-64933200D01*
X73783200Y-64933200D01*
G37*
G36*
X66983200Y-60933200D02*
X63630800Y-60933200D01*
X63630800Y-59780800D01*
X66983200Y-59780800D01*
X66983200Y-60933200D01*
X66983200Y-60933200D01*
G37*
G36*
X73783200Y-60933200D02*
X70430800Y-60933200D01*
X70430800Y-59780800D01*
X73783200Y-59780800D01*
X73783200Y-60933200D01*
X73783200Y-60933200D01*
G37*
G36*
X82634200Y-60899200D02*
X80981800Y-60899200D01*
X80981800Y-59496800D01*
X82634200Y-59496800D01*
X82634200Y-60899200D01*
X82634200Y-60899200D01*
G37*
G36*
X85134200Y-60899200D02*
X83481800Y-60899200D01*
X83481800Y-59496800D01*
X85134200Y-59496800D01*
X85134200Y-60899200D01*
X85134200Y-60899200D01*
G37*
G36*
X61661200Y-59226200D02*
X60258800Y-59226200D01*
X60258800Y-57573800D01*
X61661200Y-57573800D01*
X61661200Y-59226200D01*
X61661200Y-59226200D01*
G37*
G36*
X110937200Y-58972200D02*
X109534800Y-58972200D01*
X109534800Y-57319800D01*
X110937200Y-57319800D01*
X110937200Y-58972200D01*
X110937200Y-58972200D01*
G37*
G36*
X82661200Y-58638200D02*
X81008800Y-58638200D01*
X81008800Y-57185800D01*
X82661200Y-57185800D01*
X82661200Y-58638200D01*
X82661200Y-58638200D01*
G37*
G36*
X85361200Y-58638200D02*
X83708800Y-58638200D01*
X83708800Y-57185800D01*
X85361200Y-57185800D01*
X85361200Y-58638200D01*
X85361200Y-58638200D01*
G37*
G36*
X61661200Y-56726200D02*
X60258800Y-56726200D01*
X60258800Y-55073800D01*
X61661200Y-55073800D01*
X61661200Y-56726200D01*
X61661200Y-56726200D01*
G37*
G36*
X66983200Y-56551200D02*
X63630800Y-56551200D01*
X63630800Y-55398800D01*
X66983200Y-55398800D01*
X66983200Y-56551200D01*
X66983200Y-56551200D01*
G37*
G36*
X73783200Y-56551200D02*
X70430800Y-56551200D01*
X70430800Y-55398800D01*
X73783200Y-55398800D01*
X73783200Y-56551200D01*
X73783200Y-56551200D01*
G37*
G36*
X85361200Y-56479200D02*
X83708800Y-56479200D01*
X83708800Y-55026800D01*
X85361200Y-55026800D01*
X85361200Y-56479200D01*
X85361200Y-56479200D01*
G37*
G36*
X82661200Y-56479200D02*
X81008800Y-56479200D01*
X81008800Y-55026800D01*
X82661200Y-55026800D01*
X82661200Y-56479200D01*
X82661200Y-56479200D01*
G37*
G36*
X110937200Y-56472200D02*
X109534800Y-56472200D01*
X109534800Y-54819800D01*
X110937200Y-54819800D01*
X110937200Y-56472200D01*
X110937200Y-56472200D01*
G37*
G36*
X150083200Y-53781200D02*
X147930800Y-53781200D01*
X147930800Y-51628800D01*
X150083200Y-51628800D01*
X150083200Y-53781200D01*
X150083200Y-53781200D01*
G37*
G36*
X154583200Y-53781200D02*
X152430800Y-53781200D01*
X152430800Y-51628800D01*
X154583200Y-51628800D01*
X154583200Y-53781200D01*
X154583200Y-53781200D01*
G37*
G36*
X145453559Y-50240848D02*
X145756347Y-50303002D01*
X146041310Y-50422789D01*
X146297572Y-50595640D01*
X146515380Y-50814974D01*
X146686436Y-51072436D01*
X146804229Y-51358221D01*
X146864199Y-51661096D01*
X146864268Y-51661446D01*
X146859338Y-52014506D01*
X146859261Y-52014844D01*
X146859261Y-52014853D01*
X146790856Y-52315937D01*
X146665132Y-52598318D01*
X146486950Y-52850906D01*
X146263102Y-53064074D01*
X146002113Y-53229703D01*
X145713920Y-53341485D01*
X145409512Y-53395161D01*
X145100469Y-53388687D01*
X144798569Y-53322310D01*
X144515312Y-53198558D01*
X144261494Y-53022150D01*
X144046764Y-52799790D01*
X143879318Y-52539965D01*
X143765525Y-52252558D01*
X143709727Y-51948534D01*
X143714042Y-51639454D01*
X143778310Y-51337097D01*
X143900080Y-51052985D01*
X144074717Y-50797935D01*
X144295566Y-50581663D01*
X144554219Y-50412406D01*
X144840821Y-50296610D01*
X145144451Y-50238690D01*
X145453559Y-50240848D01*
X145453559Y-50240848D01*
G37*
G36*
X89840200Y-53156200D02*
X87287800Y-53156200D01*
X87287800Y-52253800D01*
X89840200Y-52253800D01*
X89840200Y-53156200D01*
X89840200Y-53156200D01*
G37*
G36*
X85940200Y-53156200D02*
X83387800Y-53156200D01*
X83387800Y-52253800D01*
X85940200Y-52253800D01*
X85940200Y-53156200D01*
X85940200Y-53156200D01*
G37*
G36*
X79318200Y-52680200D02*
X78415800Y-52680200D01*
X78415800Y-51327800D01*
X79318200Y-51327800D01*
X79318200Y-52680200D01*
X79318200Y-52680200D01*
G37*
G36*
X76778200Y-52680200D02*
X75875800Y-52680200D01*
X75875800Y-51327800D01*
X76778200Y-51327800D01*
X76778200Y-52680200D01*
X76778200Y-52680200D01*
G37*
G36*
X66983200Y-52551200D02*
X63630800Y-52551200D01*
X63630800Y-51398800D01*
X66983200Y-51398800D01*
X66983200Y-52551200D01*
X66983200Y-52551200D01*
G37*
G36*
X73783200Y-52551200D02*
X70430800Y-52551200D01*
X70430800Y-51398800D01*
X73783200Y-51398800D01*
X73783200Y-52551200D01*
X73783200Y-52551200D01*
G37*
G36*
X89840200Y-51886200D02*
X87287800Y-51886200D01*
X87287800Y-50983800D01*
X89840200Y-50983800D01*
X89840200Y-51886200D01*
X89840200Y-51886200D01*
G37*
G36*
X85940200Y-51886200D02*
X83387800Y-51886200D01*
X83387800Y-50983800D01*
X85940200Y-50983800D01*
X85940200Y-51886200D01*
X85940200Y-51886200D01*
G37*
G36*
X157038200Y-50844200D02*
X155635800Y-50844200D01*
X155635800Y-49191800D01*
X157038200Y-49191800D01*
X157038200Y-50844200D01*
X157038200Y-50844200D01*
G37*
G36*
X79318200Y-50780200D02*
X78415800Y-50780200D01*
X78415800Y-49427800D01*
X79318200Y-49427800D01*
X79318200Y-50780200D01*
X79318200Y-50780200D01*
G37*
G36*
X76778200Y-50780200D02*
X75875800Y-50780200D01*
X75875800Y-49427800D01*
X76778200Y-49427800D01*
X76778200Y-50780200D01*
X76778200Y-50780200D01*
G37*
G36*
X128355200Y-50779200D02*
X126602800Y-50779200D01*
X126602800Y-47226800D01*
X128355200Y-47226800D01*
X128355200Y-50779200D01*
X128355200Y-50779200D01*
G37*
G36*
X121555200Y-50779200D02*
X119802800Y-50779200D01*
X119802800Y-47226800D01*
X121555200Y-47226800D01*
X121555200Y-50779200D01*
X121555200Y-50779200D01*
G37*
G36*
X85940200Y-50616200D02*
X83387800Y-50616200D01*
X83387800Y-49713800D01*
X85940200Y-49713800D01*
X85940200Y-50616200D01*
X85940200Y-50616200D01*
G37*
G36*
X89840200Y-50616200D02*
X87287800Y-50616200D01*
X87287800Y-49713800D01*
X89840200Y-49713800D01*
X89840200Y-50616200D01*
X89840200Y-50616200D01*
G37*
G36*
X89840200Y-49346200D02*
X87287800Y-49346200D01*
X87287800Y-48443800D01*
X89840200Y-48443800D01*
X89840200Y-49346200D01*
X89840200Y-49346200D01*
G37*
G36*
X85940200Y-49346200D02*
X83387800Y-49346200D01*
X83387800Y-48443800D01*
X85940200Y-48443800D01*
X85940200Y-49346200D01*
X85940200Y-49346200D01*
G37*
G36*
X150270700Y-48714200D02*
X149318300Y-48714200D01*
X149318300Y-46281800D01*
X150270700Y-46281800D01*
X150270700Y-48714200D01*
X150270700Y-48714200D01*
G37*
G36*
X153195700Y-48714200D02*
X152243300Y-48714200D01*
X152243300Y-46281800D01*
X153195700Y-46281800D01*
X153195700Y-48714200D01*
X153195700Y-48714200D01*
G37*
G36*
X152133200Y-48649200D02*
X150380800Y-48649200D01*
X150380800Y-46346800D01*
X152133200Y-46346800D01*
X152133200Y-48649200D01*
X152133200Y-48649200D01*
G37*
G36*
X76986700Y-48410700D02*
X75834300Y-48410700D01*
X75834300Y-46458300D01*
X76986700Y-46458300D01*
X76986700Y-48410700D01*
X76986700Y-48410700D01*
G37*
G36*
X79486700Y-48410700D02*
X78334300Y-48410700D01*
X78334300Y-46458300D01*
X79486700Y-46458300D01*
X79486700Y-48410700D01*
X79486700Y-48410700D01*
G37*
G36*
X157038200Y-48344200D02*
X155635800Y-48344200D01*
X155635800Y-46691800D01*
X157038200Y-46691800D01*
X157038200Y-48344200D01*
X157038200Y-48344200D01*
G37*
G36*
X62496700Y-48082200D02*
X61201300Y-48082200D01*
X61201300Y-47421800D01*
X62496700Y-47421800D01*
X62496700Y-48082200D01*
X62496700Y-48082200D01*
G37*
G36*
X56146700Y-48082200D02*
X54851300Y-48082200D01*
X54851300Y-47421800D01*
X56146700Y-47421800D01*
X56146700Y-48082200D01*
X56146700Y-48082200D01*
G37*
G36*
X85940200Y-48076200D02*
X83387800Y-48076200D01*
X83387800Y-47173800D01*
X85940200Y-47173800D01*
X85940200Y-48076200D01*
X85940200Y-48076200D01*
G37*
G36*
X89840200Y-48076200D02*
X87287800Y-48076200D01*
X87287800Y-47173800D01*
X89840200Y-47173800D01*
X89840200Y-48076200D01*
X89840200Y-48076200D01*
G37*
G36*
X146243200Y-47288200D02*
X144840800Y-47288200D01*
X144840800Y-45635800D01*
X146243200Y-45635800D01*
X146243200Y-47288200D01*
X146243200Y-47288200D01*
G37*
G36*
X148275200Y-47288200D02*
X146872800Y-47288200D01*
X146872800Y-45635800D01*
X148275200Y-45635800D01*
X148275200Y-47288200D01*
X148275200Y-47288200D01*
G37*
G36*
X144211200Y-47288200D02*
X142808800Y-47288200D01*
X142808800Y-45635800D01*
X144211200Y-45635800D01*
X144211200Y-47288200D01*
X144211200Y-47288200D01*
G37*
G36*
X68138200Y-47034200D02*
X66735800Y-47034200D01*
X66735800Y-45381800D01*
X68138200Y-45381800D01*
X68138200Y-47034200D01*
X68138200Y-47034200D01*
G37*
G36*
X62496700Y-46812200D02*
X61201300Y-46812200D01*
X61201300Y-46151800D01*
X62496700Y-46151800D01*
X62496700Y-46812200D01*
X62496700Y-46812200D01*
G37*
G36*
X56146700Y-46812200D02*
X54851300Y-46812200D01*
X54851300Y-46151800D01*
X56146700Y-46151800D01*
X56146700Y-46812200D01*
X56146700Y-46812200D01*
G37*
G36*
X99495200Y-46645200D02*
X96142800Y-46645200D01*
X96142800Y-45492800D01*
X99495200Y-45492800D01*
X99495200Y-46645200D01*
X99495200Y-46645200D01*
G37*
G36*
X106295200Y-46645200D02*
X102942800Y-46645200D01*
X102942800Y-45492800D01*
X106295200Y-45492800D01*
X106295200Y-46645200D01*
X106295200Y-46645200D01*
G37*
G36*
X56146700Y-45542200D02*
X54851300Y-45542200D01*
X54851300Y-44881800D01*
X56146700Y-44881800D01*
X56146700Y-45542200D01*
X56146700Y-45542200D01*
G37*
G36*
X62496700Y-45542200D02*
X61201300Y-45542200D01*
X61201300Y-44881800D01*
X62496700Y-44881800D01*
X62496700Y-45542200D01*
X62496700Y-45542200D01*
G37*
G36*
X123655200Y-45279200D02*
X122502800Y-45279200D01*
X122502800Y-41626800D01*
X123655200Y-41626800D01*
X123655200Y-45279200D01*
X123655200Y-45279200D01*
G37*
G36*
X125655200Y-45279200D02*
X124502800Y-45279200D01*
X124502800Y-41626800D01*
X125655200Y-41626800D01*
X125655200Y-45279200D01*
X125655200Y-45279200D01*
G37*
G36*
X77319200Y-45004200D02*
X71016800Y-45004200D01*
X71016800Y-43251800D01*
X77319200Y-43251800D01*
X77319200Y-45004200D01*
X77319200Y-45004200D01*
G37*
G36*
X153333200Y-44897200D02*
X151680800Y-44897200D01*
X151680800Y-43494800D01*
X153333200Y-43494800D01*
X153333200Y-44897200D01*
X153333200Y-44897200D01*
G37*
G36*
X150833200Y-44897200D02*
X149180800Y-44897200D01*
X149180800Y-43494800D01*
X150833200Y-43494800D01*
X150833200Y-44897200D01*
X150833200Y-44897200D01*
G37*
G36*
X144211200Y-44788200D02*
X142808800Y-44788200D01*
X142808800Y-43135800D01*
X144211200Y-43135800D01*
X144211200Y-44788200D01*
X144211200Y-44788200D01*
G37*
G36*
X146243200Y-44788200D02*
X144840800Y-44788200D01*
X144840800Y-43135800D01*
X146243200Y-43135800D01*
X146243200Y-44788200D01*
X146243200Y-44788200D01*
G37*
G36*
X148275200Y-44788200D02*
X146872800Y-44788200D01*
X146872800Y-43135800D01*
X148275200Y-43135800D01*
X148275200Y-44788200D01*
X148275200Y-44788200D01*
G37*
G36*
X68138200Y-44534200D02*
X66735800Y-44534200D01*
X66735800Y-42881800D01*
X68138200Y-42881800D01*
X68138200Y-44534200D01*
X68138200Y-44534200D01*
G37*
G36*
X65369200Y-44340200D02*
X63916800Y-44340200D01*
X63916800Y-42687800D01*
X65369200Y-42687800D01*
X65369200Y-44340200D01*
X65369200Y-44340200D01*
G37*
G36*
X62496700Y-44272200D02*
X61201300Y-44272200D01*
X61201300Y-43611800D01*
X62496700Y-43611800D01*
X62496700Y-44272200D01*
X62496700Y-44272200D01*
G37*
G36*
X56146700Y-44272200D02*
X54851300Y-44272200D01*
X54851300Y-43611800D01*
X56146700Y-43611800D01*
X56146700Y-44272200D01*
X56146700Y-44272200D01*
G37*
G36*
X79294200Y-43029200D02*
X77541800Y-43029200D01*
X77541800Y-36726800D01*
X79294200Y-36726800D01*
X79294200Y-43029200D01*
X79294200Y-43029200D01*
G37*
G36*
X70794200Y-43029200D02*
X69041800Y-43029200D01*
X69041800Y-36726800D01*
X70794200Y-36726800D01*
X70794200Y-43029200D01*
X70794200Y-43029200D01*
G37*
G36*
X62496700Y-43002200D02*
X61201300Y-43002200D01*
X61201300Y-42341800D01*
X62496700Y-42341800D01*
X62496700Y-43002200D01*
X62496700Y-43002200D01*
G37*
G36*
X56146700Y-43002200D02*
X54851300Y-43002200D01*
X54851300Y-42341800D01*
X56146700Y-42341800D01*
X56146700Y-43002200D01*
X56146700Y-43002200D01*
G37*
G36*
X99495200Y-42645200D02*
X96142800Y-42645200D01*
X96142800Y-41492800D01*
X99495200Y-41492800D01*
X99495200Y-42645200D01*
X99495200Y-42645200D01*
G37*
G36*
X106295200Y-42645200D02*
X102942800Y-42645200D01*
X102942800Y-41492800D01*
X106295200Y-41492800D01*
X106295200Y-42645200D01*
X106295200Y-42645200D01*
G37*
G36*
X92113559Y-39445848D02*
X92416347Y-39508002D01*
X92701310Y-39627789D01*
X92957572Y-39800640D01*
X93175380Y-40019974D01*
X93346436Y-40277436D01*
X93464229Y-40563221D01*
X93524199Y-40866096D01*
X93524268Y-40866446D01*
X93519338Y-41219506D01*
X93519261Y-41219844D01*
X93519261Y-41219853D01*
X93450856Y-41520937D01*
X93325132Y-41803318D01*
X93146950Y-42055906D01*
X92923102Y-42269074D01*
X92662113Y-42434703D01*
X92373920Y-42546485D01*
X92069512Y-42600161D01*
X91760469Y-42593687D01*
X91458569Y-42527310D01*
X91175312Y-42403558D01*
X90921494Y-42227150D01*
X90706764Y-42004790D01*
X90539318Y-41744965D01*
X90425525Y-41457558D01*
X90369727Y-41153534D01*
X90374042Y-40844454D01*
X90438310Y-40542097D01*
X90560080Y-40257985D01*
X90734717Y-40002935D01*
X90955566Y-39786663D01*
X91214219Y-39617406D01*
X91500821Y-39501610D01*
X91804451Y-39443690D01*
X92113559Y-39445848D01*
X92113559Y-39445848D01*
G37*
G36*
X153433200Y-42509200D02*
X151780800Y-42509200D01*
X151780800Y-41056800D01*
X153433200Y-41056800D01*
X153433200Y-42509200D01*
X153433200Y-42509200D01*
G37*
G36*
X150733200Y-42509200D02*
X149080800Y-42509200D01*
X149080800Y-41056800D01*
X150733200Y-41056800D01*
X150733200Y-42509200D01*
X150733200Y-42509200D01*
G37*
G36*
X56146700Y-41732200D02*
X54851300Y-41732200D01*
X54851300Y-41071800D01*
X56146700Y-41071800D01*
X56146700Y-41732200D01*
X56146700Y-41732200D01*
G37*
G36*
X62496700Y-41732200D02*
X61201300Y-41732200D01*
X61201300Y-41071800D01*
X62496700Y-41071800D01*
X62496700Y-41732200D01*
X62496700Y-41732200D01*
G37*
G36*
X65369200Y-41640200D02*
X63916800Y-41640200D01*
X63916800Y-39987800D01*
X65369200Y-39987800D01*
X65369200Y-41640200D01*
X65369200Y-41640200D01*
G37*
G36*
X87188200Y-40684200D02*
X85785800Y-40684200D01*
X85785800Y-39031800D01*
X87188200Y-39031800D01*
X87188200Y-40684200D01*
X87188200Y-40684200D01*
G37*
G36*
X82616200Y-40684200D02*
X81213800Y-40684200D01*
X81213800Y-39031800D01*
X82616200Y-39031800D01*
X82616200Y-40684200D01*
X82616200Y-40684200D01*
G37*
G36*
X84902200Y-40684200D02*
X83499800Y-40684200D01*
X83499800Y-39031800D01*
X84902200Y-39031800D01*
X84902200Y-40684200D01*
X84902200Y-40684200D01*
G37*
G36*
X56146700Y-40462200D02*
X54851300Y-40462200D01*
X54851300Y-39801800D01*
X56146700Y-39801800D01*
X56146700Y-40462200D01*
X56146700Y-40462200D01*
G37*
G36*
X62496700Y-40462200D02*
X61201300Y-40462200D01*
X61201300Y-39801800D01*
X62496700Y-39801800D01*
X62496700Y-40462200D01*
X62496700Y-40462200D01*
G37*
G36*
X95842200Y-39436200D02*
X94189800Y-39436200D01*
X94189800Y-38033800D01*
X95842200Y-38033800D01*
X95842200Y-39436200D01*
X95842200Y-39436200D01*
G37*
G36*
X98342200Y-39436200D02*
X96689800Y-39436200D01*
X96689800Y-38033800D01*
X98342200Y-38033800D01*
X98342200Y-39436200D01*
X98342200Y-39436200D01*
G37*
G36*
X87188200Y-38184200D02*
X85785800Y-38184200D01*
X85785800Y-36531800D01*
X87188200Y-36531800D01*
X87188200Y-38184200D01*
X87188200Y-38184200D01*
G37*
G36*
X84902200Y-38184200D02*
X83499800Y-38184200D01*
X83499800Y-36531800D01*
X84902200Y-36531800D01*
X84902200Y-38184200D01*
X84902200Y-38184200D01*
G37*
G36*
X82616200Y-38184200D02*
X81213800Y-38184200D01*
X81213800Y-36531800D01*
X82616200Y-36531800D01*
X82616200Y-38184200D01*
X82616200Y-38184200D01*
G37*
G36*
X97972200Y-37038200D02*
X96759800Y-37038200D01*
X96759800Y-36235800D01*
X97972200Y-36235800D01*
X97972200Y-37038200D01*
X97972200Y-37038200D01*
G37*
G36*
X95772200Y-37038200D02*
X94559800Y-37038200D01*
X94559800Y-36235800D01*
X95772200Y-36235800D01*
X95772200Y-37038200D01*
X95772200Y-37038200D01*
G37*
G36*
X77319200Y-36504200D02*
X71016800Y-36504200D01*
X71016800Y-34751800D01*
X77319200Y-34751800D01*
X77319200Y-36504200D01*
X77319200Y-36504200D01*
G37*
G36*
X97972200Y-36088200D02*
X96759800Y-36088200D01*
X96759800Y-35285800D01*
X97972200Y-35285800D01*
X97972200Y-36088200D01*
X97972200Y-36088200D01*
G37*
G36*
X161247200Y-35753200D02*
X159594800Y-35753200D01*
X159594800Y-34350800D01*
X161247200Y-34350800D01*
X161247200Y-35753200D01*
X161247200Y-35753200D01*
G37*
G36*
X163747200Y-35753200D02*
X162094800Y-35753200D01*
X162094800Y-34350800D01*
X163747200Y-34350800D01*
X163747200Y-35753200D01*
X163747200Y-35753200D01*
G37*
G36*
X124498559Y-32333848D02*
X124801347Y-32396002D01*
X125086310Y-32515789D01*
X125342572Y-32688640D01*
X125560380Y-32907974D01*
X125731436Y-33165436D01*
X125849229Y-33451221D01*
X125909199Y-33754096D01*
X125909268Y-33754446D01*
X125904338Y-34107506D01*
X125904261Y-34107844D01*
X125904261Y-34107853D01*
X125835856Y-34408937D01*
X125710132Y-34691318D01*
X125531950Y-34943906D01*
X125308102Y-35157074D01*
X125047113Y-35322703D01*
X124758920Y-35434485D01*
X124454512Y-35488161D01*
X124145469Y-35481687D01*
X123843569Y-35415310D01*
X123560312Y-35291558D01*
X123306494Y-35115150D01*
X123091764Y-34892790D01*
X122924318Y-34632965D01*
X122810525Y-34345558D01*
X122754727Y-34041534D01*
X122759042Y-33732454D01*
X122823310Y-33430097D01*
X122945080Y-33145985D01*
X123119717Y-32890935D01*
X123340566Y-32674663D01*
X123599219Y-32505406D01*
X123885821Y-32389610D01*
X124189451Y-32331690D01*
X124498559Y-32333848D01*
X124498559Y-32333848D01*
G37*
G36*
X97972200Y-35138200D02*
X96759800Y-35138200D01*
X96759800Y-34335800D01*
X97972200Y-34335800D01*
X97972200Y-35138200D01*
X97972200Y-35138200D01*
G37*
G36*
X95772200Y-35138200D02*
X94559800Y-35138200D01*
X94559800Y-34335800D01*
X95772200Y-34335800D01*
X95772200Y-35138200D01*
X95772200Y-35138200D01*
G37*
G36*
X151348076Y-30945180D02*
X151746916Y-31027051D01*
X152122273Y-31184836D01*
X152459826Y-31412519D01*
X152746728Y-31701430D01*
X152972047Y-32040564D01*
X153127205Y-32417006D01*
X153206222Y-32816069D01*
X153206222Y-32816079D01*
X153206289Y-32816418D01*
X153199795Y-33281476D01*
X153199719Y-33281810D01*
X153199719Y-33281823D01*
X153109590Y-33678525D01*
X152943984Y-34050484D01*
X152709279Y-34383197D01*
X152414422Y-34663986D01*
X152070643Y-34882156D01*
X151691031Y-35029397D01*
X151290057Y-35100100D01*
X150882980Y-35091572D01*
X150485312Y-35004139D01*
X150112201Y-34841131D01*
X149777863Y-34608760D01*
X149495022Y-34315870D01*
X149274458Y-33973620D01*
X149124568Y-33595044D01*
X149051069Y-33194575D01*
X149056753Y-32787449D01*
X149141408Y-32389180D01*
X149301806Y-32014943D01*
X149531841Y-31678985D01*
X149822748Y-31394108D01*
X150163450Y-31171159D01*
X150540967Y-31018632D01*
X150940916Y-30942338D01*
X151348076Y-30945180D01*
X151348076Y-30945180D01*
G37*
G36*
X52288076Y-30945180D02*
X52686916Y-31027051D01*
X53062273Y-31184836D01*
X53399826Y-31412519D01*
X53686728Y-31701430D01*
X53912047Y-32040564D01*
X54067205Y-32417006D01*
X54146222Y-32816069D01*
X54146222Y-32816079D01*
X54146289Y-32816418D01*
X54139795Y-33281476D01*
X54139719Y-33281810D01*
X54139719Y-33281823D01*
X54049590Y-33678525D01*
X53883984Y-34050484D01*
X53649279Y-34383197D01*
X53354422Y-34663986D01*
X53010643Y-34882156D01*
X52631031Y-35029397D01*
X52230057Y-35100100D01*
X51822980Y-35091572D01*
X51425312Y-35004139D01*
X51052201Y-34841131D01*
X50717863Y-34608760D01*
X50435022Y-34315870D01*
X50214458Y-33973620D01*
X50064568Y-33595044D01*
X49991069Y-33194575D01*
X49996753Y-32787449D01*
X50081408Y-32389180D01*
X50241806Y-32014943D01*
X50471841Y-31678985D01*
X50762748Y-31394108D01*
X51103450Y-31171159D01*
X51480967Y-31018632D01*
X51880916Y-30942338D01*
X52288076Y-30945180D01*
X52288076Y-30945180D01*
G37*
G36*
X93157200Y-34842200D02*
X91754800Y-34842200D01*
X91754800Y-33189800D01*
X93157200Y-33189800D01*
X93157200Y-34842200D01*
X93157200Y-34842200D01*
G37*
G36*
X100650200Y-34842200D02*
X99247800Y-34842200D01*
X99247800Y-33189800D01*
X100650200Y-33189800D01*
X100650200Y-34842200D01*
X100650200Y-34842200D01*
G37*
G36*
X139871200Y-32705200D02*
X138218800Y-32705200D01*
X138218800Y-31302800D01*
X139871200Y-31302800D01*
X139871200Y-32705200D01*
X139871200Y-32705200D01*
G37*
G36*
X137371200Y-32705200D02*
X135718800Y-32705200D01*
X135718800Y-31302800D01*
X137371200Y-31302800D01*
X137371200Y-32705200D01*
X137371200Y-32705200D01*
G37*
G36*
X100650200Y-32342200D02*
X99247800Y-32342200D01*
X99247800Y-30689800D01*
X100650200Y-30689800D01*
X100650200Y-32342200D01*
X100650200Y-32342200D01*
G37*
G36*
X93157200Y-32342200D02*
X91754800Y-32342200D01*
X91754800Y-30689800D01*
X93157200Y-30689800D01*
X93157200Y-32342200D01*
X93157200Y-32342200D01*
G37*
G36*
X78284200Y-32120200D02*
X75131800Y-32120200D01*
X75131800Y-30617800D01*
X78284200Y-30617800D01*
X78284200Y-32120200D01*
X78284200Y-32120200D01*
G37*
G36*
X80934200Y-32095200D02*
X78681800Y-32095200D01*
X78681800Y-30342800D01*
X80934200Y-30342800D01*
X80934200Y-32095200D01*
X80934200Y-32095200D01*
G37*
G36*
X74734200Y-32095200D02*
X72481800Y-32095200D01*
X72481800Y-30342800D01*
X74734200Y-30342800D01*
X74734200Y-32095200D01*
X74734200Y-32095200D01*
G37*
G36*
X73884200Y-29720200D02*
X71931800Y-29720200D01*
X71931800Y-27667800D01*
X73884200Y-27667800D01*
X73884200Y-29720200D01*
X73884200Y-29720200D01*
G37*
G36*
X81484200Y-29720200D02*
X79531800Y-29720200D01*
X79531800Y-27667800D01*
X81484200Y-27667800D01*
X81484200Y-29720200D01*
X81484200Y-29720200D01*
G37*
G36*
X78834200Y-29720200D02*
X76881800Y-29720200D01*
X76881800Y-27667800D01*
X78834200Y-27667800D01*
X78834200Y-29720200D01*
X78834200Y-29720200D01*
G37*
G36*
X76534200Y-29720200D02*
X74581800Y-29720200D01*
X74581800Y-27667800D01*
X76534200Y-27667800D01*
X76534200Y-29720200D01*
X76534200Y-29720200D01*
G37*
G36*
X44367200Y-29530200D02*
X42714800Y-29530200D01*
X42714800Y-28127800D01*
X44367200Y-28127800D01*
X44367200Y-29530200D01*
X44367200Y-29530200D01*
G37*
G36*
X41867200Y-29530200D02*
X40214800Y-29530200D01*
X40214800Y-28127800D01*
X41867200Y-28127800D01*
X41867200Y-29530200D01*
X41867200Y-29530200D01*
G37*
M02*
