G04 #@! TF.FileFunction,Soldermask,Top*
%FSLAX46Y46*%
G04 Gerber Fmt 4.6, Leading zero omitted, Abs format (unit mm)*
G04 Created by KiCad (PCBNEW 4.0.5+dfsg1-4) date Sun Jun  4 14:23:01 2017*
%MOMM*%
%LPD*%
G01*
G04 APERTURE LIST*
%ADD10C,0.100000*%
G04 APERTURE END LIST*
D10*
G36*
X141569500Y-80467500D02*
X139919500Y-80467500D01*
X139919500Y-79367500D01*
X141569500Y-79367500D01*
X141569500Y-80467500D01*
X141569500Y-80467500D01*
G37*
G36*
X137219500Y-80467500D02*
X135569500Y-80467500D01*
X135569500Y-79367500D01*
X137219500Y-79367500D01*
X137219500Y-80467500D01*
X137219500Y-80467500D01*
G37*
G36*
X130219500Y-80467500D02*
X128569500Y-80467500D01*
X128569500Y-79367500D01*
X130219500Y-79367500D01*
X130219500Y-80467500D01*
X130219500Y-80467500D01*
G37*
G36*
X134569500Y-80467500D02*
X132919500Y-80467500D01*
X132919500Y-79367500D01*
X134569500Y-79367500D01*
X134569500Y-80467500D01*
X134569500Y-80467500D01*
G37*
G36*
X65150000Y-80300000D02*
X63500000Y-80300000D01*
X63500000Y-79400000D01*
X65150000Y-79400000D01*
X65150000Y-80300000D01*
X65150000Y-80300000D01*
G37*
G36*
X69500000Y-80300000D02*
X67850000Y-80300000D01*
X67850000Y-79400000D01*
X69500000Y-79400000D01*
X69500000Y-80300000D01*
X69500000Y-80300000D01*
G37*
G36*
X37150000Y-80292000D02*
X35500000Y-80292000D01*
X35500000Y-79392000D01*
X37150000Y-79392000D01*
X37150000Y-80292000D01*
X37150000Y-80292000D01*
G37*
G36*
X41500000Y-80292000D02*
X39850000Y-80292000D01*
X39850000Y-79392000D01*
X41500000Y-79392000D01*
X41500000Y-80292000D01*
X41500000Y-80292000D01*
G37*
G36*
X109808500Y-80236500D02*
X108158500Y-80236500D01*
X108158500Y-79336500D01*
X109808500Y-79336500D01*
X109808500Y-80236500D01*
X109808500Y-80236500D01*
G37*
G36*
X78458500Y-80236500D02*
X76808500Y-80236500D01*
X76808500Y-79336500D01*
X78458500Y-79336500D01*
X78458500Y-80236500D01*
X78458500Y-80236500D01*
G37*
G36*
X82808500Y-80236500D02*
X81158500Y-80236500D01*
X81158500Y-79336500D01*
X82808500Y-79336500D01*
X82808500Y-80236500D01*
X82808500Y-80236500D01*
G37*
G36*
X105458500Y-80236500D02*
X103808500Y-80236500D01*
X103808500Y-79336500D01*
X105458500Y-79336500D01*
X105458500Y-80236500D01*
X105458500Y-80236500D01*
G37*
G36*
X65150000Y-78450000D02*
X63500000Y-78450000D01*
X63500000Y-77550000D01*
X65150000Y-77550000D01*
X65150000Y-78450000D01*
X65150000Y-78450000D01*
G37*
G36*
X69500000Y-78450000D02*
X67850000Y-78450000D01*
X67850000Y-77550000D01*
X69500000Y-77550000D01*
X69500000Y-78450000D01*
X69500000Y-78450000D01*
G37*
G36*
X41500000Y-78442000D02*
X39850000Y-78442000D01*
X39850000Y-77542000D01*
X41500000Y-77542000D01*
X41500000Y-78442000D01*
X41500000Y-78442000D01*
G37*
G36*
X37150000Y-78442000D02*
X35500000Y-78442000D01*
X35500000Y-77542000D01*
X37150000Y-77542000D01*
X37150000Y-78442000D01*
X37150000Y-78442000D01*
G37*
G36*
X134569500Y-78417500D02*
X132919500Y-78417500D01*
X132919500Y-77517500D01*
X134569500Y-77517500D01*
X134569500Y-78417500D01*
X134569500Y-78417500D01*
G37*
G36*
X130219500Y-78417500D02*
X128569500Y-78417500D01*
X128569500Y-77517500D01*
X130219500Y-77517500D01*
X130219500Y-78417500D01*
X130219500Y-78417500D01*
G37*
G36*
X141569500Y-78417500D02*
X139919500Y-78417500D01*
X139919500Y-77517500D01*
X141569500Y-77517500D01*
X141569500Y-78417500D01*
X141569500Y-78417500D01*
G37*
G36*
X137219500Y-78417500D02*
X135569500Y-78417500D01*
X135569500Y-77517500D01*
X137219500Y-77517500D01*
X137219500Y-78417500D01*
X137219500Y-78417500D01*
G37*
G36*
X105458500Y-78386500D02*
X103808500Y-78386500D01*
X103808500Y-77486500D01*
X105458500Y-77486500D01*
X105458500Y-78386500D01*
X105458500Y-78386500D01*
G37*
G36*
X82808500Y-78386500D02*
X81158500Y-78386500D01*
X81158500Y-77486500D01*
X82808500Y-77486500D01*
X82808500Y-78386500D01*
X82808500Y-78386500D01*
G37*
G36*
X78458500Y-78386500D02*
X76808500Y-78386500D01*
X76808500Y-77486500D01*
X78458500Y-77486500D01*
X78458500Y-78386500D01*
X78458500Y-78386500D01*
G37*
G36*
X109808500Y-78386500D02*
X108158500Y-78386500D01*
X108158500Y-77486500D01*
X109808500Y-77486500D01*
X109808500Y-78386500D01*
X109808500Y-78386500D01*
G37*
G36*
X65150000Y-76600000D02*
X63500000Y-76600000D01*
X63500000Y-75500000D01*
X65150000Y-75500000D01*
X65150000Y-76600000D01*
X65150000Y-76600000D01*
G37*
G36*
X69500000Y-76600000D02*
X67850000Y-76600000D01*
X67850000Y-75500000D01*
X69500000Y-75500000D01*
X69500000Y-76600000D01*
X69500000Y-76600000D01*
G37*
G36*
X37150000Y-76592000D02*
X35500000Y-76592000D01*
X35500000Y-75492000D01*
X37150000Y-75492000D01*
X37150000Y-76592000D01*
X37150000Y-76592000D01*
G37*
G36*
X41500000Y-76592000D02*
X39850000Y-76592000D01*
X39850000Y-75492000D01*
X41500000Y-75492000D01*
X41500000Y-76592000D01*
X41500000Y-76592000D01*
G37*
G36*
X134569500Y-76567500D02*
X132919500Y-76567500D01*
X132919500Y-75667500D01*
X134569500Y-75667500D01*
X134569500Y-76567500D01*
X134569500Y-76567500D01*
G37*
G36*
X130219500Y-76567500D02*
X128569500Y-76567500D01*
X128569500Y-75667500D01*
X130219500Y-75667500D01*
X130219500Y-76567500D01*
X130219500Y-76567500D01*
G37*
G36*
X141569500Y-76567500D02*
X139919500Y-76567500D01*
X139919500Y-75667500D01*
X141569500Y-75667500D01*
X141569500Y-76567500D01*
X141569500Y-76567500D01*
G37*
G36*
X137219500Y-76567500D02*
X135569500Y-76567500D01*
X135569500Y-75667500D01*
X137219500Y-75667500D01*
X137219500Y-76567500D01*
X137219500Y-76567500D01*
G37*
G36*
X82808500Y-76536500D02*
X81158500Y-76536500D01*
X81158500Y-75436500D01*
X82808500Y-75436500D01*
X82808500Y-76536500D01*
X82808500Y-76536500D01*
G37*
G36*
X78458500Y-76536500D02*
X76808500Y-76536500D01*
X76808500Y-75436500D01*
X78458500Y-75436500D01*
X78458500Y-76536500D01*
X78458500Y-76536500D01*
G37*
G36*
X109808500Y-76536500D02*
X108158500Y-76536500D01*
X108158500Y-75436500D01*
X109808500Y-75436500D01*
X109808500Y-76536500D01*
X109808500Y-76536500D01*
G37*
G36*
X105458500Y-76536500D02*
X103808500Y-76536500D01*
X103808500Y-75436500D01*
X105458500Y-75436500D01*
X105458500Y-76536500D01*
X105458500Y-76536500D01*
G37*
G36*
X132569500Y-74467500D02*
X130919500Y-74467500D01*
X130919500Y-73367500D01*
X132569500Y-73367500D01*
X132569500Y-74467500D01*
X132569500Y-74467500D01*
G37*
G36*
X139219500Y-74467500D02*
X137569500Y-74467500D01*
X137569500Y-73367500D01*
X139219500Y-73367500D01*
X139219500Y-74467500D01*
X139219500Y-74467500D01*
G37*
G36*
X128219500Y-74467500D02*
X126569500Y-74467500D01*
X126569500Y-73367500D01*
X128219500Y-73367500D01*
X128219500Y-74467500D01*
X128219500Y-74467500D01*
G37*
G36*
X143569500Y-74467500D02*
X141919500Y-74467500D01*
X141919500Y-73367500D01*
X143569500Y-73367500D01*
X143569500Y-74467500D01*
X143569500Y-74467500D01*
G37*
G36*
X45000000Y-74300000D02*
X43350000Y-74300000D01*
X43350000Y-73400000D01*
X45000000Y-73400000D01*
X45000000Y-74300000D01*
X45000000Y-74300000D01*
G37*
G36*
X66000000Y-74300000D02*
X64350000Y-74300000D01*
X64350000Y-73400000D01*
X66000000Y-73400000D01*
X66000000Y-74300000D01*
X66000000Y-74300000D01*
G37*
G36*
X61650000Y-74300000D02*
X60000000Y-74300000D01*
X60000000Y-73400000D01*
X61650000Y-73400000D01*
X61650000Y-74300000D01*
X61650000Y-74300000D01*
G37*
G36*
X40650000Y-74300000D02*
X39000000Y-74300000D01*
X39000000Y-73400000D01*
X40650000Y-73400000D01*
X40650000Y-74300000D01*
X40650000Y-74300000D01*
G37*
G36*
X101958500Y-74236500D02*
X100308500Y-74236500D01*
X100308500Y-73336500D01*
X101958500Y-73336500D01*
X101958500Y-74236500D01*
X101958500Y-74236500D01*
G37*
G36*
X106308500Y-74236500D02*
X104658500Y-74236500D01*
X104658500Y-73336500D01*
X106308500Y-73336500D01*
X106308500Y-74236500D01*
X106308500Y-74236500D01*
G37*
G36*
X81458500Y-74236500D02*
X79808500Y-74236500D01*
X79808500Y-73336500D01*
X81458500Y-73336500D01*
X81458500Y-74236500D01*
X81458500Y-74236500D01*
G37*
G36*
X85808500Y-74236500D02*
X84158500Y-74236500D01*
X84158500Y-73336500D01*
X85808500Y-73336500D01*
X85808500Y-74236500D01*
X85808500Y-74236500D01*
G37*
G36*
X66000000Y-72450000D02*
X64350000Y-72450000D01*
X64350000Y-71550000D01*
X66000000Y-71550000D01*
X66000000Y-72450000D01*
X66000000Y-72450000D01*
G37*
G36*
X40650000Y-72450000D02*
X39000000Y-72450000D01*
X39000000Y-71550000D01*
X40650000Y-71550000D01*
X40650000Y-72450000D01*
X40650000Y-72450000D01*
G37*
G36*
X61650000Y-72450000D02*
X60000000Y-72450000D01*
X60000000Y-71550000D01*
X61650000Y-71550000D01*
X61650000Y-72450000D01*
X61650000Y-72450000D01*
G37*
G36*
X45000000Y-72450000D02*
X43350000Y-72450000D01*
X43350000Y-71550000D01*
X45000000Y-71550000D01*
X45000000Y-72450000D01*
X45000000Y-72450000D01*
G37*
G36*
X143569500Y-72417500D02*
X141919500Y-72417500D01*
X141919500Y-71517500D01*
X143569500Y-71517500D01*
X143569500Y-72417500D01*
X143569500Y-72417500D01*
G37*
G36*
X128219500Y-72417500D02*
X126569500Y-72417500D01*
X126569500Y-71517500D01*
X128219500Y-71517500D01*
X128219500Y-72417500D01*
X128219500Y-72417500D01*
G37*
G36*
X132569500Y-72417500D02*
X130919500Y-72417500D01*
X130919500Y-71517500D01*
X132569500Y-71517500D01*
X132569500Y-72417500D01*
X132569500Y-72417500D01*
G37*
G36*
X139219500Y-72417500D02*
X137569500Y-72417500D01*
X137569500Y-71517500D01*
X139219500Y-71517500D01*
X139219500Y-72417500D01*
X139219500Y-72417500D01*
G37*
G36*
X106308500Y-72386500D02*
X104658500Y-72386500D01*
X104658500Y-71486500D01*
X106308500Y-71486500D01*
X106308500Y-72386500D01*
X106308500Y-72386500D01*
G37*
G36*
X85808500Y-72386500D02*
X84158500Y-72386500D01*
X84158500Y-71486500D01*
X85808500Y-71486500D01*
X85808500Y-72386500D01*
X85808500Y-72386500D01*
G37*
G36*
X81458500Y-72386500D02*
X79808500Y-72386500D01*
X79808500Y-71486500D01*
X81458500Y-71486500D01*
X81458500Y-72386500D01*
X81458500Y-72386500D01*
G37*
G36*
X101958500Y-72386500D02*
X100308500Y-72386500D01*
X100308500Y-71486500D01*
X101958500Y-71486500D01*
X101958500Y-72386500D01*
X101958500Y-72386500D01*
G37*
G36*
X61650000Y-70600000D02*
X60000000Y-70600000D01*
X60000000Y-69500000D01*
X61650000Y-69500000D01*
X61650000Y-70600000D01*
X61650000Y-70600000D01*
G37*
G36*
X66000000Y-70600000D02*
X64350000Y-70600000D01*
X64350000Y-69500000D01*
X66000000Y-69500000D01*
X66000000Y-70600000D01*
X66000000Y-70600000D01*
G37*
G36*
X45000000Y-70600000D02*
X43350000Y-70600000D01*
X43350000Y-69500000D01*
X45000000Y-69500000D01*
X45000000Y-70600000D01*
X45000000Y-70600000D01*
G37*
G36*
X40650000Y-70600000D02*
X39000000Y-70600000D01*
X39000000Y-69500000D01*
X40650000Y-69500000D01*
X40650000Y-70600000D01*
X40650000Y-70600000D01*
G37*
G36*
X128219500Y-70567500D02*
X126569500Y-70567500D01*
X126569500Y-69667500D01*
X128219500Y-69667500D01*
X128219500Y-70567500D01*
X128219500Y-70567500D01*
G37*
G36*
X139219500Y-70567500D02*
X137569500Y-70567500D01*
X137569500Y-69667500D01*
X139219500Y-69667500D01*
X139219500Y-70567500D01*
X139219500Y-70567500D01*
G37*
G36*
X143569500Y-70567500D02*
X141919500Y-70567500D01*
X141919500Y-69667500D01*
X143569500Y-69667500D01*
X143569500Y-70567500D01*
X143569500Y-70567500D01*
G37*
G36*
X132569500Y-70567500D02*
X130919500Y-70567500D01*
X130919500Y-69667500D01*
X132569500Y-69667500D01*
X132569500Y-70567500D01*
X132569500Y-70567500D01*
G37*
G36*
X106308500Y-70536500D02*
X104658500Y-70536500D01*
X104658500Y-69436500D01*
X106308500Y-69436500D01*
X106308500Y-70536500D01*
X106308500Y-70536500D01*
G37*
G36*
X81458500Y-70536500D02*
X79808500Y-70536500D01*
X79808500Y-69436500D01*
X81458500Y-69436500D01*
X81458500Y-70536500D01*
X81458500Y-70536500D01*
G37*
G36*
X85808500Y-70536500D02*
X84158500Y-70536500D01*
X84158500Y-69436500D01*
X85808500Y-69436500D01*
X85808500Y-70536500D01*
X85808500Y-70536500D01*
G37*
G36*
X101958500Y-70536500D02*
X100308500Y-70536500D01*
X100308500Y-69436500D01*
X101958500Y-69436500D01*
X101958500Y-70536500D01*
X101958500Y-70536500D01*
G37*
G36*
X126719500Y-68467500D02*
X125069500Y-68467500D01*
X125069500Y-67367500D01*
X126719500Y-67367500D01*
X126719500Y-68467500D01*
X126719500Y-68467500D01*
G37*
G36*
X131069500Y-68467500D02*
X129419500Y-68467500D01*
X129419500Y-67367500D01*
X131069500Y-67367500D01*
X131069500Y-68467500D01*
X131069500Y-68467500D01*
G37*
G36*
X145069500Y-68467500D02*
X143419500Y-68467500D01*
X143419500Y-67367500D01*
X145069500Y-67367500D01*
X145069500Y-68467500D01*
X145069500Y-68467500D01*
G37*
G36*
X140719500Y-68467500D02*
X139069500Y-68467500D01*
X139069500Y-67367500D01*
X140719500Y-67367500D01*
X140719500Y-68467500D01*
X140719500Y-68467500D01*
G37*
G36*
X58150000Y-68300000D02*
X56500000Y-68300000D01*
X56500000Y-67400000D01*
X58150000Y-67400000D01*
X58150000Y-68300000D01*
X58150000Y-68300000D01*
G37*
G36*
X62500000Y-68300000D02*
X60850000Y-68300000D01*
X60850000Y-67400000D01*
X62500000Y-67400000D01*
X62500000Y-68300000D01*
X62500000Y-68300000D01*
G37*
G36*
X48500000Y-68300000D02*
X46850000Y-68300000D01*
X46850000Y-67400000D01*
X48500000Y-67400000D01*
X48500000Y-68300000D01*
X48500000Y-68300000D01*
G37*
G36*
X44150000Y-68300000D02*
X42500000Y-68300000D01*
X42500000Y-67400000D01*
X44150000Y-67400000D01*
X44150000Y-68300000D01*
X44150000Y-68300000D01*
G37*
G36*
X98458500Y-68236500D02*
X96808500Y-68236500D01*
X96808500Y-67336500D01*
X98458500Y-67336500D01*
X98458500Y-68236500D01*
X98458500Y-68236500D01*
G37*
G36*
X89308500Y-68236500D02*
X87658500Y-68236500D01*
X87658500Y-67336500D01*
X89308500Y-67336500D01*
X89308500Y-68236500D01*
X89308500Y-68236500D01*
G37*
G36*
X84958500Y-68236500D02*
X83308500Y-68236500D01*
X83308500Y-67336500D01*
X84958500Y-67336500D01*
X84958500Y-68236500D01*
X84958500Y-68236500D01*
G37*
G36*
X102808500Y-68236500D02*
X101158500Y-68236500D01*
X101158500Y-67336500D01*
X102808500Y-67336500D01*
X102808500Y-68236500D01*
X102808500Y-68236500D01*
G37*
G36*
X58150000Y-66450000D02*
X56500000Y-66450000D01*
X56500000Y-65550000D01*
X58150000Y-65550000D01*
X58150000Y-66450000D01*
X58150000Y-66450000D01*
G37*
G36*
X44150000Y-66450000D02*
X42500000Y-66450000D01*
X42500000Y-65550000D01*
X44150000Y-65550000D01*
X44150000Y-66450000D01*
X44150000Y-66450000D01*
G37*
G36*
X48500000Y-66450000D02*
X46850000Y-66450000D01*
X46850000Y-65550000D01*
X48500000Y-65550000D01*
X48500000Y-66450000D01*
X48500000Y-66450000D01*
G37*
G36*
X62500000Y-66450000D02*
X60850000Y-66450000D01*
X60850000Y-65550000D01*
X62500000Y-65550000D01*
X62500000Y-66450000D01*
X62500000Y-66450000D01*
G37*
G36*
X140719500Y-66417500D02*
X139069500Y-66417500D01*
X139069500Y-65517500D01*
X140719500Y-65517500D01*
X140719500Y-66417500D01*
X140719500Y-66417500D01*
G37*
G36*
X145069500Y-66417500D02*
X143419500Y-66417500D01*
X143419500Y-65517500D01*
X145069500Y-65517500D01*
X145069500Y-66417500D01*
X145069500Y-66417500D01*
G37*
G36*
X126719500Y-66417500D02*
X125069500Y-66417500D01*
X125069500Y-65517500D01*
X126719500Y-65517500D01*
X126719500Y-66417500D01*
X126719500Y-66417500D01*
G37*
G36*
X131069500Y-66417500D02*
X129419500Y-66417500D01*
X129419500Y-65517500D01*
X131069500Y-65517500D01*
X131069500Y-66417500D01*
X131069500Y-66417500D01*
G37*
G36*
X84958500Y-66386500D02*
X83308500Y-66386500D01*
X83308500Y-65486500D01*
X84958500Y-65486500D01*
X84958500Y-66386500D01*
X84958500Y-66386500D01*
G37*
G36*
X98458500Y-66386500D02*
X96808500Y-66386500D01*
X96808500Y-65486500D01*
X98458500Y-65486500D01*
X98458500Y-66386500D01*
X98458500Y-66386500D01*
G37*
G36*
X89308500Y-66386500D02*
X87658500Y-66386500D01*
X87658500Y-65486500D01*
X89308500Y-65486500D01*
X89308500Y-66386500D01*
X89308500Y-66386500D01*
G37*
G36*
X102808500Y-66386500D02*
X101158500Y-66386500D01*
X101158500Y-65486500D01*
X102808500Y-65486500D01*
X102808500Y-66386500D01*
X102808500Y-66386500D01*
G37*
G36*
X58150000Y-64600000D02*
X56500000Y-64600000D01*
X56500000Y-63500000D01*
X58150000Y-63500000D01*
X58150000Y-64600000D01*
X58150000Y-64600000D01*
G37*
G36*
X44150000Y-64600000D02*
X42500000Y-64600000D01*
X42500000Y-63500000D01*
X44150000Y-63500000D01*
X44150000Y-64600000D01*
X44150000Y-64600000D01*
G37*
G36*
X48500000Y-64600000D02*
X46850000Y-64600000D01*
X46850000Y-63500000D01*
X48500000Y-63500000D01*
X48500000Y-64600000D01*
X48500000Y-64600000D01*
G37*
G36*
X62500000Y-64600000D02*
X60850000Y-64600000D01*
X60850000Y-63500000D01*
X62500000Y-63500000D01*
X62500000Y-64600000D01*
X62500000Y-64600000D01*
G37*
G36*
X126719500Y-64567500D02*
X125069500Y-64567500D01*
X125069500Y-63667500D01*
X126719500Y-63667500D01*
X126719500Y-64567500D01*
X126719500Y-64567500D01*
G37*
G36*
X145069500Y-64567500D02*
X143419500Y-64567500D01*
X143419500Y-63667500D01*
X145069500Y-63667500D01*
X145069500Y-64567500D01*
X145069500Y-64567500D01*
G37*
G36*
X131069500Y-64567500D02*
X129419500Y-64567500D01*
X129419500Y-63667500D01*
X131069500Y-63667500D01*
X131069500Y-64567500D01*
X131069500Y-64567500D01*
G37*
G36*
X140719500Y-64567500D02*
X139069500Y-64567500D01*
X139069500Y-63667500D01*
X140719500Y-63667500D01*
X140719500Y-64567500D01*
X140719500Y-64567500D01*
G37*
G36*
X89308500Y-64536500D02*
X87658500Y-64536500D01*
X87658500Y-63436500D01*
X89308500Y-63436500D01*
X89308500Y-64536500D01*
X89308500Y-64536500D01*
G37*
G36*
X102808500Y-64536500D02*
X101158500Y-64536500D01*
X101158500Y-63436500D01*
X102808500Y-63436500D01*
X102808500Y-64536500D01*
X102808500Y-64536500D01*
G37*
G36*
X98458500Y-64536500D02*
X96808500Y-64536500D01*
X96808500Y-63436500D01*
X98458500Y-63436500D01*
X98458500Y-64536500D01*
X98458500Y-64536500D01*
G37*
G36*
X84958500Y-64536500D02*
X83308500Y-64536500D01*
X83308500Y-63436500D01*
X84958500Y-63436500D01*
X84958500Y-64536500D01*
X84958500Y-64536500D01*
G37*
G36*
X147069500Y-62467500D02*
X145419500Y-62467500D01*
X145419500Y-61367500D01*
X147069500Y-61367500D01*
X147069500Y-62467500D01*
X147069500Y-62467500D01*
G37*
G36*
X142719500Y-62467500D02*
X141069500Y-62467500D01*
X141069500Y-61367500D01*
X142719500Y-61367500D01*
X142719500Y-62467500D01*
X142719500Y-62467500D01*
G37*
G36*
X129069500Y-62467500D02*
X127419500Y-62467500D01*
X127419500Y-61367500D01*
X129069500Y-61367500D01*
X129069500Y-62467500D01*
X129069500Y-62467500D01*
G37*
G36*
X124719500Y-62467500D02*
X123069500Y-62467500D01*
X123069500Y-61367500D01*
X124719500Y-61367500D01*
X124719500Y-62467500D01*
X124719500Y-62467500D01*
G37*
G36*
X58500000Y-62300000D02*
X56850000Y-62300000D01*
X56850000Y-61400000D01*
X58500000Y-61400000D01*
X58500000Y-62300000D01*
X58500000Y-62300000D01*
G37*
G36*
X54150000Y-62300000D02*
X52500000Y-62300000D01*
X52500000Y-61400000D01*
X54150000Y-61400000D01*
X54150000Y-62300000D01*
X54150000Y-62300000D01*
G37*
G36*
X52000000Y-62300000D02*
X50350000Y-62300000D01*
X50350000Y-61400000D01*
X52000000Y-61400000D01*
X52000000Y-62300000D01*
X52000000Y-62300000D01*
G37*
G36*
X47650000Y-62300000D02*
X46000000Y-62300000D01*
X46000000Y-61400000D01*
X47650000Y-61400000D01*
X47650000Y-62300000D01*
X47650000Y-62300000D01*
G37*
G36*
X88458500Y-62236500D02*
X86808500Y-62236500D01*
X86808500Y-61336500D01*
X88458500Y-61336500D01*
X88458500Y-62236500D01*
X88458500Y-62236500D01*
G37*
G36*
X99308500Y-62236500D02*
X97658500Y-62236500D01*
X97658500Y-61336500D01*
X99308500Y-61336500D01*
X99308500Y-62236500D01*
X99308500Y-62236500D01*
G37*
G36*
X94958500Y-62236500D02*
X93308500Y-62236500D01*
X93308500Y-61336500D01*
X94958500Y-61336500D01*
X94958500Y-62236500D01*
X94958500Y-62236500D01*
G37*
G36*
X92808500Y-62236500D02*
X91158500Y-62236500D01*
X91158500Y-61336500D01*
X92808500Y-61336500D01*
X92808500Y-62236500D01*
X92808500Y-62236500D01*
G37*
G36*
X58500000Y-60450000D02*
X56850000Y-60450000D01*
X56850000Y-59550000D01*
X58500000Y-59550000D01*
X58500000Y-60450000D01*
X58500000Y-60450000D01*
G37*
G36*
X52000000Y-60450000D02*
X50350000Y-60450000D01*
X50350000Y-59550000D01*
X52000000Y-59550000D01*
X52000000Y-60450000D01*
X52000000Y-60450000D01*
G37*
G36*
X47650000Y-60450000D02*
X46000000Y-60450000D01*
X46000000Y-59550000D01*
X47650000Y-59550000D01*
X47650000Y-60450000D01*
X47650000Y-60450000D01*
G37*
G36*
X54150000Y-60450000D02*
X52500000Y-60450000D01*
X52500000Y-59550000D01*
X54150000Y-59550000D01*
X54150000Y-60450000D01*
X54150000Y-60450000D01*
G37*
G36*
X147069500Y-60417500D02*
X145419500Y-60417500D01*
X145419500Y-59517500D01*
X147069500Y-59517500D01*
X147069500Y-60417500D01*
X147069500Y-60417500D01*
G37*
G36*
X129069500Y-60417500D02*
X127419500Y-60417500D01*
X127419500Y-59517500D01*
X129069500Y-59517500D01*
X129069500Y-60417500D01*
X129069500Y-60417500D01*
G37*
G36*
X142719500Y-60417500D02*
X141069500Y-60417500D01*
X141069500Y-59517500D01*
X142719500Y-59517500D01*
X142719500Y-60417500D01*
X142719500Y-60417500D01*
G37*
G36*
X124719500Y-60417500D02*
X123069500Y-60417500D01*
X123069500Y-59517500D01*
X124719500Y-59517500D01*
X124719500Y-60417500D01*
X124719500Y-60417500D01*
G37*
G36*
X99308500Y-60386500D02*
X97658500Y-60386500D01*
X97658500Y-59486500D01*
X99308500Y-59486500D01*
X99308500Y-60386500D01*
X99308500Y-60386500D01*
G37*
G36*
X88458500Y-60386500D02*
X86808500Y-60386500D01*
X86808500Y-59486500D01*
X88458500Y-59486500D01*
X88458500Y-60386500D01*
X88458500Y-60386500D01*
G37*
G36*
X92808500Y-60386500D02*
X91158500Y-60386500D01*
X91158500Y-59486500D01*
X92808500Y-59486500D01*
X92808500Y-60386500D01*
X92808500Y-60386500D01*
G37*
G36*
X94958500Y-60386500D02*
X93308500Y-60386500D01*
X93308500Y-59486500D01*
X94958500Y-59486500D01*
X94958500Y-60386500D01*
X94958500Y-60386500D01*
G37*
G36*
X58500000Y-58600000D02*
X56850000Y-58600000D01*
X56850000Y-57500000D01*
X58500000Y-57500000D01*
X58500000Y-58600000D01*
X58500000Y-58600000D01*
G37*
G36*
X52000000Y-58600000D02*
X50350000Y-58600000D01*
X50350000Y-57500000D01*
X52000000Y-57500000D01*
X52000000Y-58600000D01*
X52000000Y-58600000D01*
G37*
G36*
X47650000Y-58600000D02*
X46000000Y-58600000D01*
X46000000Y-57500000D01*
X47650000Y-57500000D01*
X47650000Y-58600000D01*
X47650000Y-58600000D01*
G37*
G36*
X54150000Y-58600000D02*
X52500000Y-58600000D01*
X52500000Y-57500000D01*
X54150000Y-57500000D01*
X54150000Y-58600000D01*
X54150000Y-58600000D01*
G37*
G36*
X129069500Y-58567500D02*
X127419500Y-58567500D01*
X127419500Y-57667500D01*
X129069500Y-57667500D01*
X129069500Y-58567500D01*
X129069500Y-58567500D01*
G37*
G36*
X124719500Y-58567500D02*
X123069500Y-58567500D01*
X123069500Y-57667500D01*
X124719500Y-57667500D01*
X124719500Y-58567500D01*
X124719500Y-58567500D01*
G37*
G36*
X147069500Y-58567500D02*
X145419500Y-58567500D01*
X145419500Y-57667500D01*
X147069500Y-57667500D01*
X147069500Y-58567500D01*
X147069500Y-58567500D01*
G37*
G36*
X142719500Y-58567500D02*
X141069500Y-58567500D01*
X141069500Y-57667500D01*
X142719500Y-57667500D01*
X142719500Y-58567500D01*
X142719500Y-58567500D01*
G37*
G36*
X92808500Y-58536500D02*
X91158500Y-58536500D01*
X91158500Y-57436500D01*
X92808500Y-57436500D01*
X92808500Y-58536500D01*
X92808500Y-58536500D01*
G37*
G36*
X88458500Y-58536500D02*
X86808500Y-58536500D01*
X86808500Y-57436500D01*
X88458500Y-57436500D01*
X88458500Y-58536500D01*
X88458500Y-58536500D01*
G37*
G36*
X99308500Y-58536500D02*
X97658500Y-58536500D01*
X97658500Y-57436500D01*
X99308500Y-57436500D01*
X99308500Y-58536500D01*
X99308500Y-58536500D01*
G37*
G36*
X94958500Y-58536500D02*
X93308500Y-58536500D01*
X93308500Y-57436500D01*
X94958500Y-57436500D01*
X94958500Y-58536500D01*
X94958500Y-58536500D01*
G37*
G36*
X54150000Y-56500000D02*
X52500000Y-56500000D01*
X52500000Y-55400000D01*
X54150000Y-55400000D01*
X54150000Y-56500000D01*
X54150000Y-56500000D01*
G37*
G36*
X47650000Y-56500000D02*
X46000000Y-56500000D01*
X46000000Y-55400000D01*
X47650000Y-55400000D01*
X47650000Y-56500000D01*
X47650000Y-56500000D01*
G37*
G36*
X52000000Y-56500000D02*
X50350000Y-56500000D01*
X50350000Y-55400000D01*
X52000000Y-55400000D01*
X52000000Y-56500000D01*
X52000000Y-56500000D01*
G37*
G36*
X58500000Y-56500000D02*
X56850000Y-56500000D01*
X56850000Y-55400000D01*
X58500000Y-55400000D01*
X58500000Y-56500000D01*
X58500000Y-56500000D01*
G37*
G36*
X144219500Y-56467500D02*
X142569500Y-56467500D01*
X142569500Y-55367500D01*
X144219500Y-55367500D01*
X144219500Y-56467500D01*
X144219500Y-56467500D01*
G37*
G36*
X148569500Y-56467500D02*
X146919500Y-56467500D01*
X146919500Y-55367500D01*
X148569500Y-55367500D01*
X148569500Y-56467500D01*
X148569500Y-56467500D01*
G37*
G36*
X122719500Y-56467500D02*
X121069500Y-56467500D01*
X121069500Y-55367500D01*
X122719500Y-55367500D01*
X122719500Y-56467500D01*
X122719500Y-56467500D01*
G37*
G36*
X127069500Y-56467500D02*
X125419500Y-56467500D01*
X125419500Y-55367500D01*
X127069500Y-55367500D01*
X127069500Y-56467500D01*
X127069500Y-56467500D01*
G37*
G36*
X99308500Y-56436500D02*
X97658500Y-56436500D01*
X97658500Y-55336500D01*
X99308500Y-55336500D01*
X99308500Y-56436500D01*
X99308500Y-56436500D01*
G37*
G36*
X94958500Y-56436500D02*
X93308500Y-56436500D01*
X93308500Y-55336500D01*
X94958500Y-55336500D01*
X94958500Y-56436500D01*
X94958500Y-56436500D01*
G37*
G36*
X92808500Y-56436500D02*
X91158500Y-56436500D01*
X91158500Y-55336500D01*
X92808500Y-55336500D01*
X92808500Y-56436500D01*
X92808500Y-56436500D01*
G37*
G36*
X88458500Y-56436500D02*
X86808500Y-56436500D01*
X86808500Y-55336500D01*
X88458500Y-55336500D01*
X88458500Y-56436500D01*
X88458500Y-56436500D01*
G37*
G36*
X47650000Y-54450000D02*
X46000000Y-54450000D01*
X46000000Y-53550000D01*
X47650000Y-53550000D01*
X47650000Y-54450000D01*
X47650000Y-54450000D01*
G37*
G36*
X54150000Y-54450000D02*
X52500000Y-54450000D01*
X52500000Y-53550000D01*
X54150000Y-53550000D01*
X54150000Y-54450000D01*
X54150000Y-54450000D01*
G37*
G36*
X58500000Y-54450000D02*
X56850000Y-54450000D01*
X56850000Y-53550000D01*
X58500000Y-53550000D01*
X58500000Y-54450000D01*
X58500000Y-54450000D01*
G37*
G36*
X52000000Y-54450000D02*
X50350000Y-54450000D01*
X50350000Y-53550000D01*
X52000000Y-53550000D01*
X52000000Y-54450000D01*
X52000000Y-54450000D01*
G37*
G36*
X122719500Y-54417500D02*
X121069500Y-54417500D01*
X121069500Y-53517500D01*
X122719500Y-53517500D01*
X122719500Y-54417500D01*
X122719500Y-54417500D01*
G37*
G36*
X148569500Y-54417500D02*
X146919500Y-54417500D01*
X146919500Y-53517500D01*
X148569500Y-53517500D01*
X148569500Y-54417500D01*
X148569500Y-54417500D01*
G37*
G36*
X127069500Y-54417500D02*
X125419500Y-54417500D01*
X125419500Y-53517500D01*
X127069500Y-53517500D01*
X127069500Y-54417500D01*
X127069500Y-54417500D01*
G37*
G36*
X144219500Y-54417500D02*
X142569500Y-54417500D01*
X142569500Y-53517500D01*
X144219500Y-53517500D01*
X144219500Y-54417500D01*
X144219500Y-54417500D01*
G37*
G36*
X92808500Y-54386500D02*
X91158500Y-54386500D01*
X91158500Y-53486500D01*
X92808500Y-53486500D01*
X92808500Y-54386500D01*
X92808500Y-54386500D01*
G37*
G36*
X99308500Y-54386500D02*
X97658500Y-54386500D01*
X97658500Y-53486500D01*
X99308500Y-53486500D01*
X99308500Y-54386500D01*
X99308500Y-54386500D01*
G37*
G36*
X94958500Y-54386500D02*
X93308500Y-54386500D01*
X93308500Y-53486500D01*
X94958500Y-53486500D01*
X94958500Y-54386500D01*
X94958500Y-54386500D01*
G37*
G36*
X88458500Y-54386500D02*
X86808500Y-54386500D01*
X86808500Y-53486500D01*
X88458500Y-53486500D01*
X88458500Y-54386500D01*
X88458500Y-54386500D01*
G37*
G36*
X47650000Y-52600000D02*
X46000000Y-52600000D01*
X46000000Y-51700000D01*
X47650000Y-51700000D01*
X47650000Y-52600000D01*
X47650000Y-52600000D01*
G37*
G36*
X52000000Y-52600000D02*
X50350000Y-52600000D01*
X50350000Y-51700000D01*
X52000000Y-51700000D01*
X52000000Y-52600000D01*
X52000000Y-52600000D01*
G37*
G36*
X54150000Y-52600000D02*
X52500000Y-52600000D01*
X52500000Y-51700000D01*
X54150000Y-51700000D01*
X54150000Y-52600000D01*
X54150000Y-52600000D01*
G37*
G36*
X58500000Y-52600000D02*
X56850000Y-52600000D01*
X56850000Y-51700000D01*
X58500000Y-51700000D01*
X58500000Y-52600000D01*
X58500000Y-52600000D01*
G37*
G36*
X127069500Y-52567500D02*
X125419500Y-52567500D01*
X125419500Y-51667500D01*
X127069500Y-51667500D01*
X127069500Y-52567500D01*
X127069500Y-52567500D01*
G37*
G36*
X148569500Y-52567500D02*
X146919500Y-52567500D01*
X146919500Y-51667500D01*
X148569500Y-51667500D01*
X148569500Y-52567500D01*
X148569500Y-52567500D01*
G37*
G36*
X122719500Y-52567500D02*
X121069500Y-52567500D01*
X121069500Y-51667500D01*
X122719500Y-51667500D01*
X122719500Y-52567500D01*
X122719500Y-52567500D01*
G37*
G36*
X144219500Y-52567500D02*
X142569500Y-52567500D01*
X142569500Y-51667500D01*
X144219500Y-51667500D01*
X144219500Y-52567500D01*
X144219500Y-52567500D01*
G37*
G36*
X88458500Y-52536500D02*
X86808500Y-52536500D01*
X86808500Y-51636500D01*
X88458500Y-51636500D01*
X88458500Y-52536500D01*
X88458500Y-52536500D01*
G37*
G36*
X92808500Y-52536500D02*
X91158500Y-52536500D01*
X91158500Y-51636500D01*
X92808500Y-51636500D01*
X92808500Y-52536500D01*
X92808500Y-52536500D01*
G37*
G36*
X94958500Y-52536500D02*
X93308500Y-52536500D01*
X93308500Y-51636500D01*
X94958500Y-51636500D01*
X94958500Y-52536500D01*
X94958500Y-52536500D01*
G37*
G36*
X99308500Y-52536500D02*
X97658500Y-52536500D01*
X97658500Y-51636500D01*
X99308500Y-51636500D01*
X99308500Y-52536500D01*
X99308500Y-52536500D01*
G37*
G36*
X48500000Y-50500000D02*
X46850000Y-50500000D01*
X46850000Y-49400000D01*
X48500000Y-49400000D01*
X48500000Y-50500000D01*
X48500000Y-50500000D01*
G37*
G36*
X57650000Y-50500000D02*
X56000000Y-50500000D01*
X56000000Y-49400000D01*
X57650000Y-49400000D01*
X57650000Y-50500000D01*
X57650000Y-50500000D01*
G37*
G36*
X44150000Y-50500000D02*
X42500000Y-50500000D01*
X42500000Y-49400000D01*
X44150000Y-49400000D01*
X44150000Y-50500000D01*
X44150000Y-50500000D01*
G37*
G36*
X62000000Y-50500000D02*
X60350000Y-50500000D01*
X60350000Y-49400000D01*
X62000000Y-49400000D01*
X62000000Y-50500000D01*
X62000000Y-50500000D01*
G37*
G36*
X150569500Y-50467500D02*
X148919500Y-50467500D01*
X148919500Y-49367500D01*
X150569500Y-49367500D01*
X150569500Y-50467500D01*
X150569500Y-50467500D01*
G37*
G36*
X146219500Y-50467500D02*
X144569500Y-50467500D01*
X144569500Y-49367500D01*
X146219500Y-49367500D01*
X146219500Y-50467500D01*
X146219500Y-50467500D01*
G37*
G36*
X125569500Y-50467500D02*
X123919500Y-50467500D01*
X123919500Y-49367500D01*
X125569500Y-49367500D01*
X125569500Y-50467500D01*
X125569500Y-50467500D01*
G37*
G36*
X121219500Y-50467500D02*
X119569500Y-50467500D01*
X119569500Y-49367500D01*
X121219500Y-49367500D01*
X121219500Y-50467500D01*
X121219500Y-50467500D01*
G37*
G36*
X98458500Y-50436500D02*
X96808500Y-50436500D01*
X96808500Y-49336500D01*
X98458500Y-49336500D01*
X98458500Y-50436500D01*
X98458500Y-50436500D01*
G37*
G36*
X84958500Y-50436500D02*
X83308500Y-50436500D01*
X83308500Y-49336500D01*
X84958500Y-49336500D01*
X84958500Y-50436500D01*
X84958500Y-50436500D01*
G37*
G36*
X89308500Y-50436500D02*
X87658500Y-50436500D01*
X87658500Y-49336500D01*
X89308500Y-49336500D01*
X89308500Y-50436500D01*
X89308500Y-50436500D01*
G37*
G36*
X102808500Y-50436500D02*
X101158500Y-50436500D01*
X101158500Y-49336500D01*
X102808500Y-49336500D01*
X102808500Y-50436500D01*
X102808500Y-50436500D01*
G37*
G36*
X44150000Y-48450000D02*
X42500000Y-48450000D01*
X42500000Y-47550000D01*
X44150000Y-47550000D01*
X44150000Y-48450000D01*
X44150000Y-48450000D01*
G37*
G36*
X62000000Y-48450000D02*
X60350000Y-48450000D01*
X60350000Y-47550000D01*
X62000000Y-47550000D01*
X62000000Y-48450000D01*
X62000000Y-48450000D01*
G37*
G36*
X57650000Y-48450000D02*
X56000000Y-48450000D01*
X56000000Y-47550000D01*
X57650000Y-47550000D01*
X57650000Y-48450000D01*
X57650000Y-48450000D01*
G37*
G36*
X48500000Y-48450000D02*
X46850000Y-48450000D01*
X46850000Y-47550000D01*
X48500000Y-47550000D01*
X48500000Y-48450000D01*
X48500000Y-48450000D01*
G37*
G36*
X146219500Y-48417500D02*
X144569500Y-48417500D01*
X144569500Y-47517500D01*
X146219500Y-47517500D01*
X146219500Y-48417500D01*
X146219500Y-48417500D01*
G37*
G36*
X150569500Y-48417500D02*
X148919500Y-48417500D01*
X148919500Y-47517500D01*
X150569500Y-47517500D01*
X150569500Y-48417500D01*
X150569500Y-48417500D01*
G37*
G36*
X125569500Y-48417500D02*
X123919500Y-48417500D01*
X123919500Y-47517500D01*
X125569500Y-47517500D01*
X125569500Y-48417500D01*
X125569500Y-48417500D01*
G37*
G36*
X121219500Y-48417500D02*
X119569500Y-48417500D01*
X119569500Y-47517500D01*
X121219500Y-47517500D01*
X121219500Y-48417500D01*
X121219500Y-48417500D01*
G37*
G36*
X98458500Y-48386500D02*
X96808500Y-48386500D01*
X96808500Y-47486500D01*
X98458500Y-47486500D01*
X98458500Y-48386500D01*
X98458500Y-48386500D01*
G37*
G36*
X102808500Y-48386500D02*
X101158500Y-48386500D01*
X101158500Y-47486500D01*
X102808500Y-47486500D01*
X102808500Y-48386500D01*
X102808500Y-48386500D01*
G37*
G36*
X89308500Y-48386500D02*
X87658500Y-48386500D01*
X87658500Y-47486500D01*
X89308500Y-47486500D01*
X89308500Y-48386500D01*
X89308500Y-48386500D01*
G37*
G36*
X84958500Y-48386500D02*
X83308500Y-48386500D01*
X83308500Y-47486500D01*
X84958500Y-47486500D01*
X84958500Y-48386500D01*
X84958500Y-48386500D01*
G37*
G36*
X57650000Y-46600000D02*
X56000000Y-46600000D01*
X56000000Y-45700000D01*
X57650000Y-45700000D01*
X57650000Y-46600000D01*
X57650000Y-46600000D01*
G37*
G36*
X48500000Y-46600000D02*
X46850000Y-46600000D01*
X46850000Y-45700000D01*
X48500000Y-45700000D01*
X48500000Y-46600000D01*
X48500000Y-46600000D01*
G37*
G36*
X44150000Y-46600000D02*
X42500000Y-46600000D01*
X42500000Y-45700000D01*
X44150000Y-45700000D01*
X44150000Y-46600000D01*
X44150000Y-46600000D01*
G37*
G36*
X62000000Y-46600000D02*
X60350000Y-46600000D01*
X60350000Y-45700000D01*
X62000000Y-45700000D01*
X62000000Y-46600000D01*
X62000000Y-46600000D01*
G37*
G36*
X150569500Y-46567500D02*
X148919500Y-46567500D01*
X148919500Y-45667500D01*
X150569500Y-45667500D01*
X150569500Y-46567500D01*
X150569500Y-46567500D01*
G37*
G36*
X125569500Y-46567500D02*
X123919500Y-46567500D01*
X123919500Y-45667500D01*
X125569500Y-45667500D01*
X125569500Y-46567500D01*
X125569500Y-46567500D01*
G37*
G36*
X146219500Y-46567500D02*
X144569500Y-46567500D01*
X144569500Y-45667500D01*
X146219500Y-45667500D01*
X146219500Y-46567500D01*
X146219500Y-46567500D01*
G37*
G36*
X121219500Y-46567500D02*
X119569500Y-46567500D01*
X119569500Y-45667500D01*
X121219500Y-45667500D01*
X121219500Y-46567500D01*
X121219500Y-46567500D01*
G37*
G36*
X89308500Y-46536500D02*
X87658500Y-46536500D01*
X87658500Y-45636500D01*
X89308500Y-45636500D01*
X89308500Y-46536500D01*
X89308500Y-46536500D01*
G37*
G36*
X84958500Y-46536500D02*
X83308500Y-46536500D01*
X83308500Y-45636500D01*
X84958500Y-45636500D01*
X84958500Y-46536500D01*
X84958500Y-46536500D01*
G37*
G36*
X98458500Y-46536500D02*
X96808500Y-46536500D01*
X96808500Y-45636500D01*
X98458500Y-45636500D01*
X98458500Y-46536500D01*
X98458500Y-46536500D01*
G37*
G36*
X102808500Y-46536500D02*
X101158500Y-46536500D01*
X101158500Y-45636500D01*
X102808500Y-45636500D01*
X102808500Y-46536500D01*
X102808500Y-46536500D01*
G37*
G36*
X81400000Y-44500000D02*
X79750000Y-44500000D01*
X79750000Y-43400000D01*
X81400000Y-43400000D01*
X81400000Y-44500000D01*
X81400000Y-44500000D01*
G37*
G36*
X45000000Y-44500000D02*
X43350000Y-44500000D01*
X43350000Y-43400000D01*
X45000000Y-43400000D01*
X45000000Y-44500000D01*
X45000000Y-44500000D01*
G37*
G36*
X85750000Y-44500000D02*
X84100000Y-44500000D01*
X84100000Y-43400000D01*
X85750000Y-43400000D01*
X85750000Y-44500000D01*
X85750000Y-44500000D01*
G37*
G36*
X61150000Y-44500000D02*
X59500000Y-44500000D01*
X59500000Y-43400000D01*
X61150000Y-43400000D01*
X61150000Y-44500000D01*
X61150000Y-44500000D01*
G37*
G36*
X65500000Y-44500000D02*
X63850000Y-44500000D01*
X63850000Y-43400000D01*
X65500000Y-43400000D01*
X65500000Y-44500000D01*
X65500000Y-44500000D01*
G37*
G36*
X40650000Y-44500000D02*
X39000000Y-44500000D01*
X39000000Y-43400000D01*
X40650000Y-43400000D01*
X40650000Y-44500000D01*
X40650000Y-44500000D01*
G37*
G36*
X123569500Y-44467500D02*
X121919500Y-44467500D01*
X121919500Y-43367500D01*
X123569500Y-43367500D01*
X123569500Y-44467500D01*
X123569500Y-44467500D01*
G37*
G36*
X152069500Y-44467500D02*
X150419500Y-44467500D01*
X150419500Y-43367500D01*
X152069500Y-43367500D01*
X152069500Y-44467500D01*
X152069500Y-44467500D01*
G37*
G36*
X147719500Y-44467500D02*
X146069500Y-44467500D01*
X146069500Y-43367500D01*
X147719500Y-43367500D01*
X147719500Y-44467500D01*
X147719500Y-44467500D01*
G37*
G36*
X119219500Y-44467500D02*
X117569500Y-44467500D01*
X117569500Y-43367500D01*
X119219500Y-43367500D01*
X119219500Y-44467500D01*
X119219500Y-44467500D01*
G37*
G36*
X106308500Y-44436500D02*
X104658500Y-44436500D01*
X104658500Y-43336500D01*
X106308500Y-43336500D01*
X106308500Y-44436500D01*
X106308500Y-44436500D01*
G37*
G36*
X101958500Y-44436500D02*
X100308500Y-44436500D01*
X100308500Y-43336500D01*
X101958500Y-43336500D01*
X101958500Y-44436500D01*
X101958500Y-44436500D01*
G37*
G36*
X85750000Y-42450000D02*
X84100000Y-42450000D01*
X84100000Y-41550000D01*
X85750000Y-41550000D01*
X85750000Y-42450000D01*
X85750000Y-42450000D01*
G37*
G36*
X65500000Y-42450000D02*
X63850000Y-42450000D01*
X63850000Y-41550000D01*
X65500000Y-41550000D01*
X65500000Y-42450000D01*
X65500000Y-42450000D01*
G37*
G36*
X40650000Y-42450000D02*
X39000000Y-42450000D01*
X39000000Y-41550000D01*
X40650000Y-41550000D01*
X40650000Y-42450000D01*
X40650000Y-42450000D01*
G37*
G36*
X45000000Y-42450000D02*
X43350000Y-42450000D01*
X43350000Y-41550000D01*
X45000000Y-41550000D01*
X45000000Y-42450000D01*
X45000000Y-42450000D01*
G37*
G36*
X81400000Y-42450000D02*
X79750000Y-42450000D01*
X79750000Y-41550000D01*
X81400000Y-41550000D01*
X81400000Y-42450000D01*
X81400000Y-42450000D01*
G37*
G36*
X61150000Y-42450000D02*
X59500000Y-42450000D01*
X59500000Y-41550000D01*
X61150000Y-41550000D01*
X61150000Y-42450000D01*
X61150000Y-42450000D01*
G37*
G36*
X119219500Y-42417500D02*
X117569500Y-42417500D01*
X117569500Y-41517500D01*
X119219500Y-41517500D01*
X119219500Y-42417500D01*
X119219500Y-42417500D01*
G37*
G36*
X123569500Y-42417500D02*
X121919500Y-42417500D01*
X121919500Y-41517500D01*
X123569500Y-41517500D01*
X123569500Y-42417500D01*
X123569500Y-42417500D01*
G37*
G36*
X147719500Y-42417500D02*
X146069500Y-42417500D01*
X146069500Y-41517500D01*
X147719500Y-41517500D01*
X147719500Y-42417500D01*
X147719500Y-42417500D01*
G37*
G36*
X152069500Y-42417500D02*
X150419500Y-42417500D01*
X150419500Y-41517500D01*
X152069500Y-41517500D01*
X152069500Y-42417500D01*
X152069500Y-42417500D01*
G37*
G36*
X106308500Y-42386500D02*
X104658500Y-42386500D01*
X104658500Y-41486500D01*
X106308500Y-41486500D01*
X106308500Y-42386500D01*
X106308500Y-42386500D01*
G37*
G36*
X101958500Y-42386500D02*
X100308500Y-42386500D01*
X100308500Y-41486500D01*
X101958500Y-41486500D01*
X101958500Y-42386500D01*
X101958500Y-42386500D01*
G37*
G36*
X135320354Y-34952029D02*
X135906276Y-35072302D01*
X136457672Y-35304088D01*
X136953551Y-35638561D01*
X137375020Y-36062984D01*
X137706025Y-36561185D01*
X137933953Y-37114183D01*
X138050065Y-37700588D01*
X138050065Y-37700598D01*
X138050131Y-37700932D01*
X138040591Y-38384116D01*
X138040515Y-38384450D01*
X138040515Y-38384462D01*
X137908079Y-38967387D01*
X137664794Y-39513813D01*
X137320010Y-40002576D01*
X136886851Y-40415066D01*
X136381833Y-40735561D01*
X135824174Y-40951863D01*
X135235128Y-41055727D01*
X134637123Y-41043202D01*
X134052933Y-40914759D01*
X133504827Y-40675297D01*
X133013669Y-40333933D01*
X132598166Y-39903667D01*
X132274153Y-39400898D01*
X132053964Y-38844764D01*
X131945988Y-38256449D01*
X131954340Y-37658373D01*
X132078698Y-37073311D01*
X132314331Y-36523540D01*
X132652258Y-36030011D01*
X133079611Y-35611514D01*
X133580109Y-35283998D01*
X134134691Y-35059932D01*
X134722230Y-34947853D01*
X135320354Y-34952029D01*
X135320354Y-34952029D01*
G37*
G36*
X52570354Y-34952029D02*
X53156276Y-35072302D01*
X53707672Y-35304088D01*
X54203551Y-35638561D01*
X54625020Y-36062984D01*
X54956025Y-36561185D01*
X55183953Y-37114183D01*
X55300065Y-37700588D01*
X55300065Y-37700598D01*
X55300131Y-37700932D01*
X55290591Y-38384116D01*
X55290515Y-38384450D01*
X55290515Y-38384462D01*
X55158079Y-38967387D01*
X54914794Y-39513813D01*
X54570010Y-40002576D01*
X54136851Y-40415066D01*
X53631833Y-40735561D01*
X53074174Y-40951863D01*
X52485128Y-41055727D01*
X51887123Y-41043202D01*
X51302933Y-40914759D01*
X50754827Y-40675297D01*
X50263669Y-40333933D01*
X49848166Y-39903667D01*
X49524153Y-39400898D01*
X49303964Y-38844764D01*
X49195988Y-38256449D01*
X49204340Y-37658373D01*
X49328698Y-37073311D01*
X49564331Y-36523540D01*
X49902258Y-36030011D01*
X50329611Y-35611514D01*
X50830109Y-35283998D01*
X51384691Y-35059932D01*
X51972230Y-34947853D01*
X52570354Y-34952029D01*
X52570354Y-34952029D01*
G37*
G36*
X81400000Y-40600000D02*
X79750000Y-40600000D01*
X79750000Y-39700000D01*
X81400000Y-39700000D01*
X81400000Y-40600000D01*
X81400000Y-40600000D01*
G37*
G36*
X85750000Y-40600000D02*
X84100000Y-40600000D01*
X84100000Y-39700000D01*
X85750000Y-39700000D01*
X85750000Y-40600000D01*
X85750000Y-40600000D01*
G37*
G36*
X45000000Y-40600000D02*
X43350000Y-40600000D01*
X43350000Y-39700000D01*
X45000000Y-39700000D01*
X45000000Y-40600000D01*
X45000000Y-40600000D01*
G37*
G36*
X40650000Y-40600000D02*
X39000000Y-40600000D01*
X39000000Y-39700000D01*
X40650000Y-39700000D01*
X40650000Y-40600000D01*
X40650000Y-40600000D01*
G37*
G36*
X65500000Y-40600000D02*
X63850000Y-40600000D01*
X63850000Y-39700000D01*
X65500000Y-39700000D01*
X65500000Y-40600000D01*
X65500000Y-40600000D01*
G37*
G36*
X61150000Y-40600000D02*
X59500000Y-40600000D01*
X59500000Y-39700000D01*
X61150000Y-39700000D01*
X61150000Y-40600000D01*
X61150000Y-40600000D01*
G37*
G36*
X152069500Y-40567500D02*
X150419500Y-40567500D01*
X150419500Y-39667500D01*
X152069500Y-39667500D01*
X152069500Y-40567500D01*
X152069500Y-40567500D01*
G37*
G36*
X147719500Y-40567500D02*
X146069500Y-40567500D01*
X146069500Y-39667500D01*
X147719500Y-39667500D01*
X147719500Y-40567500D01*
X147719500Y-40567500D01*
G37*
G36*
X123569500Y-40567500D02*
X121919500Y-40567500D01*
X121919500Y-39667500D01*
X123569500Y-39667500D01*
X123569500Y-40567500D01*
X123569500Y-40567500D01*
G37*
G36*
X119219500Y-40567500D02*
X117569500Y-40567500D01*
X117569500Y-39667500D01*
X119219500Y-39667500D01*
X119219500Y-40567500D01*
X119219500Y-40567500D01*
G37*
G36*
X101958500Y-40536500D02*
X100308500Y-40536500D01*
X100308500Y-39636500D01*
X101958500Y-39636500D01*
X101958500Y-40536500D01*
X101958500Y-40536500D01*
G37*
G36*
X106308500Y-40536500D02*
X104658500Y-40536500D01*
X104658500Y-39636500D01*
X106308500Y-39636500D01*
X106308500Y-40536500D01*
X106308500Y-40536500D01*
G37*
G36*
X69000000Y-38500000D02*
X67350000Y-38500000D01*
X67350000Y-37400000D01*
X69000000Y-37400000D01*
X69000000Y-38500000D01*
X69000000Y-38500000D01*
G37*
G36*
X41500000Y-38500000D02*
X39850000Y-38500000D01*
X39850000Y-37400000D01*
X41500000Y-37400000D01*
X41500000Y-38500000D01*
X41500000Y-38500000D01*
G37*
G36*
X37150000Y-38500000D02*
X35500000Y-38500000D01*
X35500000Y-37400000D01*
X37150000Y-37400000D01*
X37150000Y-38500000D01*
X37150000Y-38500000D01*
G37*
G36*
X64650000Y-38500000D02*
X63000000Y-38500000D01*
X63000000Y-37400000D01*
X64650000Y-37400000D01*
X64650000Y-38500000D01*
X64650000Y-38500000D01*
G37*
G36*
X117719500Y-38467500D02*
X116069500Y-38467500D01*
X116069500Y-37367500D01*
X117719500Y-37367500D01*
X117719500Y-38467500D01*
X117719500Y-38467500D01*
G37*
G36*
X122069500Y-38467500D02*
X120419500Y-38467500D01*
X120419500Y-37367500D01*
X122069500Y-37367500D01*
X122069500Y-38467500D01*
X122069500Y-38467500D01*
G37*
G36*
X149719500Y-38467500D02*
X148069500Y-38467500D01*
X148069500Y-37367500D01*
X149719500Y-37367500D01*
X149719500Y-38467500D01*
X149719500Y-38467500D01*
G37*
G36*
X154069500Y-38467500D02*
X152419500Y-38467500D01*
X152419500Y-37367500D01*
X154069500Y-37367500D01*
X154069500Y-38467500D01*
X154069500Y-38467500D01*
G37*
G36*
X105458500Y-38436500D02*
X103808500Y-38436500D01*
X103808500Y-37336500D01*
X105458500Y-37336500D01*
X105458500Y-38436500D01*
X105458500Y-38436500D01*
G37*
G36*
X109808500Y-38436500D02*
X108158500Y-38436500D01*
X108158500Y-37336500D01*
X109808500Y-37336500D01*
X109808500Y-38436500D01*
X109808500Y-38436500D01*
G37*
G36*
X82308500Y-38436500D02*
X80658500Y-38436500D01*
X80658500Y-37336500D01*
X82308500Y-37336500D01*
X82308500Y-38436500D01*
X82308500Y-38436500D01*
G37*
G36*
X77958500Y-38436500D02*
X76308500Y-38436500D01*
X76308500Y-37336500D01*
X77958500Y-37336500D01*
X77958500Y-38436500D01*
X77958500Y-38436500D01*
G37*
G36*
X41500000Y-36450000D02*
X39850000Y-36450000D01*
X39850000Y-35550000D01*
X41500000Y-35550000D01*
X41500000Y-36450000D01*
X41500000Y-36450000D01*
G37*
G36*
X37150000Y-36450000D02*
X35500000Y-36450000D01*
X35500000Y-35550000D01*
X37150000Y-35550000D01*
X37150000Y-36450000D01*
X37150000Y-36450000D01*
G37*
G36*
X64650000Y-36450000D02*
X63000000Y-36450000D01*
X63000000Y-35550000D01*
X64650000Y-35550000D01*
X64650000Y-36450000D01*
X64650000Y-36450000D01*
G37*
G36*
X69000000Y-36450000D02*
X67350000Y-36450000D01*
X67350000Y-35550000D01*
X69000000Y-35550000D01*
X69000000Y-36450000D01*
X69000000Y-36450000D01*
G37*
G36*
X149719500Y-36417500D02*
X148069500Y-36417500D01*
X148069500Y-35517500D01*
X149719500Y-35517500D01*
X149719500Y-36417500D01*
X149719500Y-36417500D01*
G37*
G36*
X154069500Y-36417500D02*
X152419500Y-36417500D01*
X152419500Y-35517500D01*
X154069500Y-35517500D01*
X154069500Y-36417500D01*
X154069500Y-36417500D01*
G37*
G36*
X117719500Y-36417500D02*
X116069500Y-36417500D01*
X116069500Y-35517500D01*
X117719500Y-35517500D01*
X117719500Y-36417500D01*
X117719500Y-36417500D01*
G37*
G36*
X122069500Y-36417500D02*
X120419500Y-36417500D01*
X120419500Y-35517500D01*
X122069500Y-35517500D01*
X122069500Y-36417500D01*
X122069500Y-36417500D01*
G37*
G36*
X77958500Y-36386500D02*
X76308500Y-36386500D01*
X76308500Y-35486500D01*
X77958500Y-35486500D01*
X77958500Y-36386500D01*
X77958500Y-36386500D01*
G37*
G36*
X82308500Y-36386500D02*
X80658500Y-36386500D01*
X80658500Y-35486500D01*
X82308500Y-35486500D01*
X82308500Y-36386500D01*
X82308500Y-36386500D01*
G37*
G36*
X105458500Y-36386500D02*
X103808500Y-36386500D01*
X103808500Y-35486500D01*
X105458500Y-35486500D01*
X105458500Y-36386500D01*
X105458500Y-36386500D01*
G37*
G36*
X109808500Y-36386500D02*
X108158500Y-36386500D01*
X108158500Y-35486500D01*
X109808500Y-35486500D01*
X109808500Y-36386500D01*
X109808500Y-36386500D01*
G37*
G36*
X37150000Y-34600000D02*
X35500000Y-34600000D01*
X35500000Y-33700000D01*
X37150000Y-33700000D01*
X37150000Y-34600000D01*
X37150000Y-34600000D01*
G37*
G36*
X69000000Y-34600000D02*
X67350000Y-34600000D01*
X67350000Y-33700000D01*
X69000000Y-33700000D01*
X69000000Y-34600000D01*
X69000000Y-34600000D01*
G37*
G36*
X41500000Y-34600000D02*
X39850000Y-34600000D01*
X39850000Y-33700000D01*
X41500000Y-33700000D01*
X41500000Y-34600000D01*
X41500000Y-34600000D01*
G37*
G36*
X64650000Y-34600000D02*
X63000000Y-34600000D01*
X63000000Y-33700000D01*
X64650000Y-33700000D01*
X64650000Y-34600000D01*
X64650000Y-34600000D01*
G37*
G36*
X122069500Y-34567500D02*
X120419500Y-34567500D01*
X120419500Y-33667500D01*
X122069500Y-33667500D01*
X122069500Y-34567500D01*
X122069500Y-34567500D01*
G37*
G36*
X117719500Y-34567500D02*
X116069500Y-34567500D01*
X116069500Y-33667500D01*
X117719500Y-33667500D01*
X117719500Y-34567500D01*
X117719500Y-34567500D01*
G37*
G36*
X149719500Y-34567500D02*
X148069500Y-34567500D01*
X148069500Y-33667500D01*
X149719500Y-33667500D01*
X149719500Y-34567500D01*
X149719500Y-34567500D01*
G37*
G36*
X154069500Y-34567500D02*
X152419500Y-34567500D01*
X152419500Y-33667500D01*
X154069500Y-33667500D01*
X154069500Y-34567500D01*
X154069500Y-34567500D01*
G37*
G36*
X82308500Y-34536500D02*
X80658500Y-34536500D01*
X80658500Y-33636500D01*
X82308500Y-33636500D01*
X82308500Y-34536500D01*
X82308500Y-34536500D01*
G37*
G36*
X77958500Y-34536500D02*
X76308500Y-34536500D01*
X76308500Y-33636500D01*
X77958500Y-33636500D01*
X77958500Y-34536500D01*
X77958500Y-34536500D01*
G37*
G36*
X109808500Y-34536500D02*
X108158500Y-34536500D01*
X108158500Y-33636500D01*
X109808500Y-33636500D01*
X109808500Y-34536500D01*
X109808500Y-34536500D01*
G37*
G36*
X105458500Y-34536500D02*
X103808500Y-34536500D01*
X103808500Y-33636500D01*
X105458500Y-33636500D01*
X105458500Y-34536500D01*
X105458500Y-34536500D01*
G37*
M02*
