M48
;DRILL file {KiCad 4.0.5+dfsg1-4} date Wed May 31 23:50:03 2017
;FORMAT={-:-/ absolute / inch / decimal}
FMAT,2
INCH,TZ
T1C0.012
T2C0.157
%
G90
G05
M72
T1
X1.37Y-1.35
X1.43Y-2.9175
X1.49Y-1.42
X1.5Y-1.495
X1.5Y-3.07
X1.505Y-3.145
X1.67Y-1.49
X1.67Y-2.995
X1.77Y-1.965
X1.78Y-2.175
X1.81Y-2.76
X1.945Y-2.52
X1.948Y-2.285
X2.11Y-1.73
X2.161Y-2.205
X2.1625Y-2.285
X2.2Y-1.7275
X2.3575Y-2.3575
X2.365Y-2.52
X2.395Y-2.205
X2.395Y-2.25
X2.395Y-2.295
X2.43Y-1.49
X2.46Y-2.995
X2.495Y-2.625
X2.5Y-2.76
X2.5275Y-2.08
X2.565Y-2.0375
X2.635Y-3.145
X2.64Y-2.995
X2.64Y-3.07
X2.735Y-1.895
X2.735Y-2.46
X2.865Y-1.5925
X2.8775Y-1.8875
X2.9325Y-2.46
X2.94Y-1.47
X2.9425Y-1.63
X2.9425Y-1.8925
X3.075Y-2.935
X3.0925Y-1.685
X3.12Y-3.07
X3.125Y-3.14
X3.2125Y-1.93
X3.2925Y-2.9925
X3.3825Y-2.2
X3.4125Y-2.7575
X3.5475Y-2.5175
X3.5575Y-2.2825
X3.7725Y-2.2025
X3.7725Y-2.2825
X3.78Y-1.965
X3.81Y-1.6625
X3.8675Y-1.6625
X3.9175Y-1.7275
X3.94Y-2.285
X3.9425Y-2.2025
X3.95Y-2.52
X4.0425Y-2.995
X4.0525Y-1.4925
X4.0875Y-2.7525
X4.225Y-3.065
X4.225Y-3.14
X4.2275Y-2.9925
X4.5375Y-1.4925
X4.5975Y-1.7275
X4.6725Y-1.9625
X4.7375Y-2.2025
X4.8175Y-2.4375
X4.845Y-1.495
X4.8925Y-2.6725
X4.9525Y-2.9075
X5.0275Y-3.1475
X5.2575Y-2.9075
X5.3825Y-2.9075
X5.4325Y-3.1475
X5.4475Y-2.6775
X5.5175Y-2.4375
X5.5825Y-2.2025
X5.6525Y-1.9625
X5.71Y-1.73
X5.7975Y-1.4925
X6.1175Y-1.445
T2
X2.0571Y-1.4961
X5.315Y-1.4961
T0
M30
