G04 #@! TF.FileFunction,Legend,Top*
%FSLAX46Y46*%
G04 Gerber Fmt 4.6, Leading zero omitted, Abs format (unit mm)*
G04 Created by KiCad (PCBNEW 4.0.5+dfsg1-4) date Wed May 31 23:57:16 2017*
%MOMM*%
%LPD*%
G01*
G04 APERTURE LIST*
%ADD10C,0.100000*%
%ADD11C,0.010000*%
%ADD12R,1.702400X0.952400*%
%ADD13R,1.702400X1.152400*%
%ADD14C,6.152400*%
G04 APERTURE END LIST*
D10*
D11*
G36*
X48303455Y-39405167D02*
X48863555Y-40367461D01*
X49400643Y-41289728D01*
X49908434Y-42161207D01*
X50380647Y-42971136D01*
X50810997Y-43708755D01*
X51193201Y-44363302D01*
X51520976Y-44924016D01*
X51788039Y-45380137D01*
X51988106Y-45720902D01*
X52114894Y-45935552D01*
X52160918Y-46011660D01*
X52187352Y-46022484D01*
X52232794Y-45993863D01*
X52302278Y-45917552D01*
X52400838Y-45785309D01*
X52533507Y-45588888D01*
X52705320Y-45320046D01*
X52921310Y-44970539D01*
X53186512Y-44532124D01*
X53505959Y-43996555D01*
X53884685Y-43355589D01*
X54327724Y-42600983D01*
X54840110Y-41724492D01*
X55426877Y-40717872D01*
X56093059Y-39572880D01*
X56102974Y-39555827D01*
X59944180Y-32949334D01*
X85278584Y-32949334D01*
X89122792Y-39552657D01*
X89824688Y-40756817D01*
X90446335Y-41819946D01*
X90991396Y-42748093D01*
X91463533Y-43547306D01*
X91866409Y-44223633D01*
X92203688Y-44783125D01*
X92479032Y-45231828D01*
X92696105Y-45575793D01*
X92858569Y-45821066D01*
X92970087Y-45973699D01*
X93034323Y-46039737D01*
X93051667Y-46040348D01*
X93105918Y-45951410D01*
X93238922Y-45726671D01*
X93444456Y-45376796D01*
X93716298Y-44912453D01*
X94048224Y-44344306D01*
X94434012Y-43683022D01*
X94867438Y-42939269D01*
X95342279Y-42123711D01*
X95852313Y-41247015D01*
X96391317Y-40319848D01*
X96904000Y-39437365D01*
X100671667Y-32950014D01*
X112969500Y-32949674D01*
X114398181Y-32949927D01*
X115779828Y-32950747D01*
X117105034Y-32952098D01*
X118364395Y-32953950D01*
X119548505Y-32956268D01*
X120647959Y-32959020D01*
X121653351Y-32962172D01*
X122555277Y-32965693D01*
X123344331Y-32969549D01*
X124011107Y-32973707D01*
X124546200Y-32978134D01*
X124940206Y-32982797D01*
X125183719Y-32987664D01*
X125267332Y-32992702D01*
X125267333Y-32992718D01*
X125291774Y-33075634D01*
X125363160Y-33310929D01*
X125478582Y-33689150D01*
X125635133Y-34200848D01*
X125829906Y-34836572D01*
X126059992Y-35586870D01*
X126322485Y-36442291D01*
X126614476Y-37393385D01*
X126933059Y-38430701D01*
X127275325Y-39544789D01*
X127638368Y-40726196D01*
X128019279Y-41965472D01*
X128415151Y-43253167D01*
X128823076Y-44579830D01*
X129240147Y-45936009D01*
X129663457Y-47312254D01*
X130090097Y-48699114D01*
X130517160Y-50087138D01*
X130941738Y-51466875D01*
X131360925Y-52828874D01*
X131771812Y-54163685D01*
X132171492Y-55461857D01*
X132557057Y-56713938D01*
X132925600Y-57910477D01*
X133274214Y-59042025D01*
X133599989Y-60099130D01*
X133900020Y-61072341D01*
X134171398Y-61952207D01*
X134411216Y-62729278D01*
X134616567Y-63394103D01*
X134784542Y-63937230D01*
X134912234Y-64349209D01*
X134996736Y-64620589D01*
X135032745Y-64734620D01*
X135046329Y-64771867D01*
X135061672Y-64796638D01*
X135080885Y-64802361D01*
X135106078Y-64782466D01*
X135139362Y-64730381D01*
X135182847Y-64639535D01*
X135238644Y-64503357D01*
X135308863Y-64315275D01*
X135395614Y-64068719D01*
X135501008Y-63757117D01*
X135627155Y-63373897D01*
X135776166Y-62912489D01*
X135950152Y-62366322D01*
X136151222Y-61728824D01*
X136381486Y-60993424D01*
X136643057Y-60153551D01*
X136938043Y-59202633D01*
X137268555Y-58134100D01*
X137636704Y-56941379D01*
X138044600Y-55617901D01*
X138494354Y-54157094D01*
X138988076Y-52552386D01*
X139527876Y-50797206D01*
X139954446Y-49409953D01*
X140442005Y-47824236D01*
X140917207Y-46278570D01*
X141377577Y-44781014D01*
X141820639Y-43339624D01*
X142243918Y-41962461D01*
X142644937Y-40657582D01*
X143021222Y-39433046D01*
X143370295Y-38296911D01*
X143689682Y-37257235D01*
X143976907Y-36322078D01*
X144229494Y-35499498D01*
X144444968Y-34797553D01*
X144620852Y-34224301D01*
X144754671Y-33787801D01*
X144843949Y-33496111D01*
X144886211Y-33357290D01*
X144887942Y-33351500D01*
X145007404Y-32949334D01*
X151647369Y-32949334D01*
X152691267Y-32950123D01*
X153684792Y-32952409D01*
X154615138Y-32956070D01*
X155469499Y-32960984D01*
X156235066Y-32967027D01*
X156899035Y-32974078D01*
X157448599Y-32982013D01*
X157870950Y-32990711D01*
X158153284Y-33000050D01*
X158282792Y-33009906D01*
X158289935Y-33012834D01*
X158264843Y-33097713D01*
X158190465Y-33337681D01*
X158068795Y-33726443D01*
X157901826Y-34257705D01*
X157691549Y-34925174D01*
X157439957Y-35722554D01*
X157149043Y-36643552D01*
X156820800Y-37681874D01*
X156457219Y-38831225D01*
X156060295Y-40085312D01*
X155632019Y-41437840D01*
X155174383Y-42882515D01*
X154689382Y-44413043D01*
X154179006Y-46023129D01*
X153645249Y-47706480D01*
X153090103Y-49456802D01*
X152515561Y-51267799D01*
X151923616Y-53133179D01*
X151316260Y-55046647D01*
X150695486Y-57001909D01*
X150691101Y-57015716D01*
X143089667Y-80955098D01*
X127160239Y-80955334D01*
X120108038Y-58751500D01*
X119509300Y-56866649D01*
X118923385Y-55022695D01*
X118352395Y-53226240D01*
X117798435Y-51483889D01*
X117263609Y-49802242D01*
X116750021Y-48187903D01*
X116259775Y-46647474D01*
X115794976Y-45187557D01*
X115357727Y-43814756D01*
X114950133Y-42535673D01*
X114574298Y-41356910D01*
X114232325Y-40285070D01*
X113926320Y-39326755D01*
X113658386Y-38488569D01*
X113430626Y-37777113D01*
X113245146Y-37198991D01*
X113104050Y-36760804D01*
X113009441Y-36469155D01*
X112963424Y-36330647D01*
X112959751Y-36320705D01*
X112942961Y-36294515D01*
X112918103Y-36287520D01*
X112880947Y-36306693D01*
X112827262Y-36359003D01*
X112752815Y-36451422D01*
X112653377Y-36590920D01*
X112524714Y-36784469D01*
X112362597Y-37039040D01*
X112162793Y-37361602D01*
X111921072Y-37759127D01*
X111633202Y-38238587D01*
X111294952Y-38806951D01*
X110902090Y-39471191D01*
X110450386Y-40238278D01*
X109935607Y-41115182D01*
X109353523Y-42108875D01*
X108699903Y-43226327D01*
X107970514Y-44474509D01*
X107161126Y-45860392D01*
X106957646Y-46208877D01*
X101051626Y-56324010D01*
X108206480Y-68596606D01*
X108980894Y-69925198D01*
X109731934Y-71214183D01*
X110455188Y-72455968D01*
X111146244Y-73642960D01*
X111800693Y-74767565D01*
X112414122Y-75822192D01*
X112982120Y-76799246D01*
X113500276Y-77691134D01*
X113964179Y-78490264D01*
X114369417Y-79189042D01*
X114711579Y-79779875D01*
X114986254Y-80255170D01*
X115189030Y-80607334D01*
X115315497Y-80828774D01*
X115361243Y-80911897D01*
X115361333Y-80912268D01*
X115278750Y-80918862D01*
X115039332Y-80925109D01*
X114655578Y-80930933D01*
X114139987Y-80936262D01*
X113505057Y-80941019D01*
X112763288Y-80945132D01*
X111927177Y-80948526D01*
X111009223Y-80951126D01*
X110021925Y-80952858D01*
X108977782Y-80953649D01*
X108397500Y-80953658D01*
X101433667Y-80951983D01*
X97209002Y-73755378D01*
X96615122Y-72744214D01*
X96045761Y-71775765D01*
X95506719Y-70859840D01*
X95003794Y-70006250D01*
X94542787Y-69224807D01*
X94129497Y-68525320D01*
X93769723Y-67917600D01*
X93469265Y-67411459D01*
X93233921Y-67016706D01*
X93069492Y-66743153D01*
X92981776Y-66600610D01*
X92968355Y-66581553D01*
X92924469Y-66656359D01*
X92801254Y-66867615D01*
X92604491Y-67205380D01*
X92339966Y-67659717D01*
X92013461Y-68220685D01*
X91630759Y-68878347D01*
X91197644Y-69622763D01*
X90719900Y-70443995D01*
X90203309Y-71332102D01*
X89653656Y-72277147D01*
X89076722Y-73269189D01*
X88779773Y-73779834D01*
X84607172Y-80955334D01*
X72658086Y-80955042D01*
X60709000Y-80954751D01*
X56481312Y-73760087D01*
X52253623Y-66565423D01*
X51821816Y-67304545D01*
X51714271Y-67488908D01*
X51528590Y-67807542D01*
X51271810Y-68248366D01*
X50950964Y-68799296D01*
X50573088Y-69448249D01*
X50145217Y-70183143D01*
X49674386Y-70991893D01*
X49167630Y-71862418D01*
X48631984Y-72782635D01*
X48074484Y-73740460D01*
X47632711Y-74499500D01*
X43875412Y-80955334D01*
X36894981Y-80955334D01*
X35614058Y-80954928D01*
X34492889Y-80953610D01*
X33521898Y-80951225D01*
X32691507Y-80947622D01*
X31992141Y-80942646D01*
X31414221Y-80936146D01*
X30948171Y-80927967D01*
X30584414Y-80917957D01*
X30313372Y-80905963D01*
X30125470Y-80891831D01*
X30011129Y-80875409D01*
X29960773Y-80856543D01*
X29957098Y-80844455D01*
X30003698Y-80760399D01*
X30131162Y-80537748D01*
X30335032Y-80184173D01*
X30610851Y-79707344D01*
X30954160Y-79114932D01*
X31360502Y-78414609D01*
X31825418Y-77614046D01*
X32344451Y-76720913D01*
X32913142Y-75742881D01*
X33527035Y-74687623D01*
X34181671Y-73562807D01*
X34872591Y-72376107D01*
X35595339Y-71135192D01*
X36345456Y-69847734D01*
X37114731Y-68527843D01*
X44227119Y-56326735D01*
X60319494Y-56326735D01*
X66481935Y-66891433D01*
X72644376Y-77456130D01*
X78803391Y-66889378D01*
X84962405Y-56322626D01*
X78815597Y-45800146D01*
X78098030Y-44571826D01*
X77404018Y-43383929D01*
X76738341Y-42244635D01*
X76105779Y-41162122D01*
X75511114Y-40144566D01*
X74959127Y-39200147D01*
X74454599Y-38337044D01*
X74002310Y-37563433D01*
X73607041Y-36887493D01*
X73273574Y-36317402D01*
X73006689Y-35861339D01*
X72811166Y-35527481D01*
X72691788Y-35324007D01*
X72653278Y-35258940D01*
X72609563Y-35328494D01*
X72485266Y-35536163D01*
X72285160Y-35873812D01*
X72014016Y-36333308D01*
X71676607Y-36906518D01*
X71277705Y-37585306D01*
X70822081Y-38361541D01*
X70314508Y-39227087D01*
X69759757Y-40173810D01*
X69162602Y-41193578D01*
X68527813Y-42278257D01*
X67860163Y-43419712D01*
X67164423Y-44609809D01*
X66478631Y-45783474D01*
X60319494Y-56326735D01*
X44227119Y-56326735D01*
X44229816Y-56322110D01*
X37419908Y-44667124D01*
X36664093Y-43373373D01*
X35931802Y-42119509D01*
X35227568Y-40913310D01*
X34555921Y-39762553D01*
X33921394Y-38675016D01*
X33328519Y-37658475D01*
X32781828Y-36720707D01*
X32285853Y-35869491D01*
X31845125Y-35112603D01*
X31464177Y-34457820D01*
X31147541Y-33912919D01*
X30899748Y-33485678D01*
X30725330Y-33183874D01*
X30628820Y-33015284D01*
X30610000Y-32980736D01*
X30692584Y-32975915D01*
X30932007Y-32971319D01*
X31315774Y-32967006D01*
X31831391Y-32963031D01*
X32466363Y-32959451D01*
X33208195Y-32956322D01*
X34044394Y-32953701D01*
X34962464Y-32951643D01*
X35949911Y-32950205D01*
X36994241Y-32949444D01*
X37578421Y-32949334D01*
X44546842Y-32949334D01*
X48303455Y-39405167D01*
X48303455Y-39405167D01*
G37*
X48303455Y-39405167D02*
X48863555Y-40367461D01*
X49400643Y-41289728D01*
X49908434Y-42161207D01*
X50380647Y-42971136D01*
X50810997Y-43708755D01*
X51193201Y-44363302D01*
X51520976Y-44924016D01*
X51788039Y-45380137D01*
X51988106Y-45720902D01*
X52114894Y-45935552D01*
X52160918Y-46011660D01*
X52187352Y-46022484D01*
X52232794Y-45993863D01*
X52302278Y-45917552D01*
X52400838Y-45785309D01*
X52533507Y-45588888D01*
X52705320Y-45320046D01*
X52921310Y-44970539D01*
X53186512Y-44532124D01*
X53505959Y-43996555D01*
X53884685Y-43355589D01*
X54327724Y-42600983D01*
X54840110Y-41724492D01*
X55426877Y-40717872D01*
X56093059Y-39572880D01*
X56102974Y-39555827D01*
X59944180Y-32949334D01*
X85278584Y-32949334D01*
X89122792Y-39552657D01*
X89824688Y-40756817D01*
X90446335Y-41819946D01*
X90991396Y-42748093D01*
X91463533Y-43547306D01*
X91866409Y-44223633D01*
X92203688Y-44783125D01*
X92479032Y-45231828D01*
X92696105Y-45575793D01*
X92858569Y-45821066D01*
X92970087Y-45973699D01*
X93034323Y-46039737D01*
X93051667Y-46040348D01*
X93105918Y-45951410D01*
X93238922Y-45726671D01*
X93444456Y-45376796D01*
X93716298Y-44912453D01*
X94048224Y-44344306D01*
X94434012Y-43683022D01*
X94867438Y-42939269D01*
X95342279Y-42123711D01*
X95852313Y-41247015D01*
X96391317Y-40319848D01*
X96904000Y-39437365D01*
X100671667Y-32950014D01*
X112969500Y-32949674D01*
X114398181Y-32949927D01*
X115779828Y-32950747D01*
X117105034Y-32952098D01*
X118364395Y-32953950D01*
X119548505Y-32956268D01*
X120647959Y-32959020D01*
X121653351Y-32962172D01*
X122555277Y-32965693D01*
X123344331Y-32969549D01*
X124011107Y-32973707D01*
X124546200Y-32978134D01*
X124940206Y-32982797D01*
X125183719Y-32987664D01*
X125267332Y-32992702D01*
X125267333Y-32992718D01*
X125291774Y-33075634D01*
X125363160Y-33310929D01*
X125478582Y-33689150D01*
X125635133Y-34200848D01*
X125829906Y-34836572D01*
X126059992Y-35586870D01*
X126322485Y-36442291D01*
X126614476Y-37393385D01*
X126933059Y-38430701D01*
X127275325Y-39544789D01*
X127638368Y-40726196D01*
X128019279Y-41965472D01*
X128415151Y-43253167D01*
X128823076Y-44579830D01*
X129240147Y-45936009D01*
X129663457Y-47312254D01*
X130090097Y-48699114D01*
X130517160Y-50087138D01*
X130941738Y-51466875D01*
X131360925Y-52828874D01*
X131771812Y-54163685D01*
X132171492Y-55461857D01*
X132557057Y-56713938D01*
X132925600Y-57910477D01*
X133274214Y-59042025D01*
X133599989Y-60099130D01*
X133900020Y-61072341D01*
X134171398Y-61952207D01*
X134411216Y-62729278D01*
X134616567Y-63394103D01*
X134784542Y-63937230D01*
X134912234Y-64349209D01*
X134996736Y-64620589D01*
X135032745Y-64734620D01*
X135046329Y-64771867D01*
X135061672Y-64796638D01*
X135080885Y-64802361D01*
X135106078Y-64782466D01*
X135139362Y-64730381D01*
X135182847Y-64639535D01*
X135238644Y-64503357D01*
X135308863Y-64315275D01*
X135395614Y-64068719D01*
X135501008Y-63757117D01*
X135627155Y-63373897D01*
X135776166Y-62912489D01*
X135950152Y-62366322D01*
X136151222Y-61728824D01*
X136381486Y-60993424D01*
X136643057Y-60153551D01*
X136938043Y-59202633D01*
X137268555Y-58134100D01*
X137636704Y-56941379D01*
X138044600Y-55617901D01*
X138494354Y-54157094D01*
X138988076Y-52552386D01*
X139527876Y-50797206D01*
X139954446Y-49409953D01*
X140442005Y-47824236D01*
X140917207Y-46278570D01*
X141377577Y-44781014D01*
X141820639Y-43339624D01*
X142243918Y-41962461D01*
X142644937Y-40657582D01*
X143021222Y-39433046D01*
X143370295Y-38296911D01*
X143689682Y-37257235D01*
X143976907Y-36322078D01*
X144229494Y-35499498D01*
X144444968Y-34797553D01*
X144620852Y-34224301D01*
X144754671Y-33787801D01*
X144843949Y-33496111D01*
X144886211Y-33357290D01*
X144887942Y-33351500D01*
X145007404Y-32949334D01*
X151647369Y-32949334D01*
X152691267Y-32950123D01*
X153684792Y-32952409D01*
X154615138Y-32956070D01*
X155469499Y-32960984D01*
X156235066Y-32967027D01*
X156899035Y-32974078D01*
X157448599Y-32982013D01*
X157870950Y-32990711D01*
X158153284Y-33000050D01*
X158282792Y-33009906D01*
X158289935Y-33012834D01*
X158264843Y-33097713D01*
X158190465Y-33337681D01*
X158068795Y-33726443D01*
X157901826Y-34257705D01*
X157691549Y-34925174D01*
X157439957Y-35722554D01*
X157149043Y-36643552D01*
X156820800Y-37681874D01*
X156457219Y-38831225D01*
X156060295Y-40085312D01*
X155632019Y-41437840D01*
X155174383Y-42882515D01*
X154689382Y-44413043D01*
X154179006Y-46023129D01*
X153645249Y-47706480D01*
X153090103Y-49456802D01*
X152515561Y-51267799D01*
X151923616Y-53133179D01*
X151316260Y-55046647D01*
X150695486Y-57001909D01*
X150691101Y-57015716D01*
X143089667Y-80955098D01*
X127160239Y-80955334D01*
X120108038Y-58751500D01*
X119509300Y-56866649D01*
X118923385Y-55022695D01*
X118352395Y-53226240D01*
X117798435Y-51483889D01*
X117263609Y-49802242D01*
X116750021Y-48187903D01*
X116259775Y-46647474D01*
X115794976Y-45187557D01*
X115357727Y-43814756D01*
X114950133Y-42535673D01*
X114574298Y-41356910D01*
X114232325Y-40285070D01*
X113926320Y-39326755D01*
X113658386Y-38488569D01*
X113430626Y-37777113D01*
X113245146Y-37198991D01*
X113104050Y-36760804D01*
X113009441Y-36469155D01*
X112963424Y-36330647D01*
X112959751Y-36320705D01*
X112942961Y-36294515D01*
X112918103Y-36287520D01*
X112880947Y-36306693D01*
X112827262Y-36359003D01*
X112752815Y-36451422D01*
X112653377Y-36590920D01*
X112524714Y-36784469D01*
X112362597Y-37039040D01*
X112162793Y-37361602D01*
X111921072Y-37759127D01*
X111633202Y-38238587D01*
X111294952Y-38806951D01*
X110902090Y-39471191D01*
X110450386Y-40238278D01*
X109935607Y-41115182D01*
X109353523Y-42108875D01*
X108699903Y-43226327D01*
X107970514Y-44474509D01*
X107161126Y-45860392D01*
X106957646Y-46208877D01*
X101051626Y-56324010D01*
X108206480Y-68596606D01*
X108980894Y-69925198D01*
X109731934Y-71214183D01*
X110455188Y-72455968D01*
X111146244Y-73642960D01*
X111800693Y-74767565D01*
X112414122Y-75822192D01*
X112982120Y-76799246D01*
X113500276Y-77691134D01*
X113964179Y-78490264D01*
X114369417Y-79189042D01*
X114711579Y-79779875D01*
X114986254Y-80255170D01*
X115189030Y-80607334D01*
X115315497Y-80828774D01*
X115361243Y-80911897D01*
X115361333Y-80912268D01*
X115278750Y-80918862D01*
X115039332Y-80925109D01*
X114655578Y-80930933D01*
X114139987Y-80936262D01*
X113505057Y-80941019D01*
X112763288Y-80945132D01*
X111927177Y-80948526D01*
X111009223Y-80951126D01*
X110021925Y-80952858D01*
X108977782Y-80953649D01*
X108397500Y-80953658D01*
X101433667Y-80951983D01*
X97209002Y-73755378D01*
X96615122Y-72744214D01*
X96045761Y-71775765D01*
X95506719Y-70859840D01*
X95003794Y-70006250D01*
X94542787Y-69224807D01*
X94129497Y-68525320D01*
X93769723Y-67917600D01*
X93469265Y-67411459D01*
X93233921Y-67016706D01*
X93069492Y-66743153D01*
X92981776Y-66600610D01*
X92968355Y-66581553D01*
X92924469Y-66656359D01*
X92801254Y-66867615D01*
X92604491Y-67205380D01*
X92339966Y-67659717D01*
X92013461Y-68220685D01*
X91630759Y-68878347D01*
X91197644Y-69622763D01*
X90719900Y-70443995D01*
X90203309Y-71332102D01*
X89653656Y-72277147D01*
X89076722Y-73269189D01*
X88779773Y-73779834D01*
X84607172Y-80955334D01*
X72658086Y-80955042D01*
X60709000Y-80954751D01*
X56481312Y-73760087D01*
X52253623Y-66565423D01*
X51821816Y-67304545D01*
X51714271Y-67488908D01*
X51528590Y-67807542D01*
X51271810Y-68248366D01*
X50950964Y-68799296D01*
X50573088Y-69448249D01*
X50145217Y-70183143D01*
X49674386Y-70991893D01*
X49167630Y-71862418D01*
X48631984Y-72782635D01*
X48074484Y-73740460D01*
X47632711Y-74499500D01*
X43875412Y-80955334D01*
X36894981Y-80955334D01*
X35614058Y-80954928D01*
X34492889Y-80953610D01*
X33521898Y-80951225D01*
X32691507Y-80947622D01*
X31992141Y-80942646D01*
X31414221Y-80936146D01*
X30948171Y-80927967D01*
X30584414Y-80917957D01*
X30313372Y-80905963D01*
X30125470Y-80891831D01*
X30011129Y-80875409D01*
X29960773Y-80856543D01*
X29957098Y-80844455D01*
X30003698Y-80760399D01*
X30131162Y-80537748D01*
X30335032Y-80184173D01*
X30610851Y-79707344D01*
X30954160Y-79114932D01*
X31360502Y-78414609D01*
X31825418Y-77614046D01*
X32344451Y-76720913D01*
X32913142Y-75742881D01*
X33527035Y-74687623D01*
X34181671Y-73562807D01*
X34872591Y-72376107D01*
X35595339Y-71135192D01*
X36345456Y-69847734D01*
X37114731Y-68527843D01*
X44227119Y-56326735D01*
X60319494Y-56326735D01*
X66481935Y-66891433D01*
X72644376Y-77456130D01*
X78803391Y-66889378D01*
X84962405Y-56322626D01*
X78815597Y-45800146D01*
X78098030Y-44571826D01*
X77404018Y-43383929D01*
X76738341Y-42244635D01*
X76105779Y-41162122D01*
X75511114Y-40144566D01*
X74959127Y-39200147D01*
X74454599Y-38337044D01*
X74002310Y-37563433D01*
X73607041Y-36887493D01*
X73273574Y-36317402D01*
X73006689Y-35861339D01*
X72811166Y-35527481D01*
X72691788Y-35324007D01*
X72653278Y-35258940D01*
X72609563Y-35328494D01*
X72485266Y-35536163D01*
X72285160Y-35873812D01*
X72014016Y-36333308D01*
X71676607Y-36906518D01*
X71277705Y-37585306D01*
X70822081Y-38361541D01*
X70314508Y-39227087D01*
X69759757Y-40173810D01*
X69162602Y-41193578D01*
X68527813Y-42278257D01*
X67860163Y-43419712D01*
X67164423Y-44609809D01*
X66478631Y-45783474D01*
X60319494Y-56326735D01*
X44227119Y-56326735D01*
X44229816Y-56322110D01*
X37419908Y-44667124D01*
X36664093Y-43373373D01*
X35931802Y-42119509D01*
X35227568Y-40913310D01*
X34555921Y-39762553D01*
X33921394Y-38675016D01*
X33328519Y-37658475D01*
X32781828Y-36720707D01*
X32285853Y-35869491D01*
X31845125Y-35112603D01*
X31464177Y-34457820D01*
X31147541Y-33912919D01*
X30899748Y-33485678D01*
X30725330Y-33183874D01*
X30628820Y-33015284D01*
X30610000Y-32980736D01*
X30692584Y-32975915D01*
X30932007Y-32971319D01*
X31315774Y-32967006D01*
X31831391Y-32963031D01*
X32466363Y-32959451D01*
X33208195Y-32956322D01*
X34044394Y-32953701D01*
X34962464Y-32951643D01*
X35949911Y-32950205D01*
X36994241Y-32949444D01*
X37578421Y-32949334D01*
X44546842Y-32949334D01*
X48303455Y-39405167D01*
%LPC*%
D12*
X133744500Y-76117500D03*
X129394500Y-76117500D03*
X133744500Y-77967500D03*
X129394500Y-77967500D03*
D13*
X133744500Y-79917500D03*
X129394500Y-79917500D03*
D12*
X131744500Y-70117500D03*
X127394500Y-70117500D03*
X131744500Y-71967500D03*
X127394500Y-71967500D03*
D13*
X131744500Y-73917500D03*
X127394500Y-73917500D03*
D12*
X77633500Y-79786500D03*
X81983500Y-79786500D03*
X77633500Y-77936500D03*
X81983500Y-77936500D03*
D13*
X77633500Y-75986500D03*
X81983500Y-75986500D03*
D12*
X36325000Y-79842000D03*
X40675000Y-79842000D03*
X36325000Y-77992000D03*
X40675000Y-77992000D03*
D13*
X36325000Y-76042000D03*
X40675000Y-76042000D03*
D12*
X142744500Y-70117500D03*
X138394500Y-70117500D03*
X142744500Y-71967500D03*
X138394500Y-71967500D03*
D13*
X142744500Y-73917500D03*
X138394500Y-73917500D03*
D12*
X104633500Y-79786500D03*
X108983500Y-79786500D03*
X104633500Y-77936500D03*
X108983500Y-77936500D03*
D13*
X104633500Y-75986500D03*
X108983500Y-75986500D03*
D12*
X64325000Y-79850000D03*
X68675000Y-79850000D03*
X64325000Y-78000000D03*
X68675000Y-78000000D03*
D13*
X64325000Y-76050000D03*
X68675000Y-76050000D03*
D12*
X130244500Y-64117500D03*
X125894500Y-64117500D03*
X130244500Y-65967500D03*
X125894500Y-65967500D03*
D13*
X130244500Y-67917500D03*
X125894500Y-67917500D03*
D12*
X80633500Y-73786500D03*
X84983500Y-73786500D03*
X80633500Y-71936500D03*
X84983500Y-71936500D03*
D13*
X80633500Y-69986500D03*
X84983500Y-69986500D03*
D12*
X39825000Y-73850000D03*
X44175000Y-73850000D03*
X39825000Y-72000000D03*
X44175000Y-72000000D03*
D13*
X39825000Y-70050000D03*
X44175000Y-70050000D03*
D12*
X144244500Y-64117500D03*
X139894500Y-64117500D03*
X144244500Y-65967500D03*
X139894500Y-65967500D03*
D13*
X144244500Y-67917500D03*
X139894500Y-67917500D03*
D12*
X101133500Y-73786500D03*
X105483500Y-73786500D03*
X101133500Y-71936500D03*
X105483500Y-71936500D03*
D13*
X101133500Y-69986500D03*
X105483500Y-69986500D03*
D12*
X60825000Y-73850000D03*
X65175000Y-73850000D03*
X60825000Y-72000000D03*
X65175000Y-72000000D03*
D13*
X60825000Y-70050000D03*
X65175000Y-70050000D03*
D12*
X128244500Y-58117500D03*
X123894500Y-58117500D03*
X128244500Y-59967500D03*
X123894500Y-59967500D03*
D13*
X128244500Y-61917500D03*
X123894500Y-61917500D03*
D12*
X84133500Y-67786500D03*
X88483500Y-67786500D03*
X84133500Y-65936500D03*
X88483500Y-65936500D03*
D13*
X84133500Y-63986500D03*
X88483500Y-63986500D03*
D12*
X43325000Y-67850000D03*
X47675000Y-67850000D03*
X43325000Y-66000000D03*
X47675000Y-66000000D03*
D13*
X43325000Y-64050000D03*
X47675000Y-64050000D03*
D12*
X146244500Y-58117500D03*
X141894500Y-58117500D03*
X146244500Y-59967500D03*
X141894500Y-59967500D03*
D13*
X146244500Y-61917500D03*
X141894500Y-61917500D03*
D12*
X97633500Y-67786500D03*
X101983500Y-67786500D03*
X97633500Y-65936500D03*
X101983500Y-65936500D03*
D13*
X97633500Y-63986500D03*
X101983500Y-63986500D03*
D12*
X57325000Y-67850000D03*
X61675000Y-67850000D03*
X57325000Y-66000000D03*
X61675000Y-66000000D03*
D13*
X57325000Y-64050000D03*
X61675000Y-64050000D03*
D12*
X126244500Y-52117500D03*
X121894500Y-52117500D03*
X126244500Y-53967500D03*
X121894500Y-53967500D03*
D13*
X126244500Y-55917500D03*
X121894500Y-55917500D03*
D12*
X87633500Y-61786500D03*
X91983500Y-61786500D03*
X87633500Y-59936500D03*
X91983500Y-59936500D03*
D13*
X87633500Y-57986500D03*
X91983500Y-57986500D03*
D12*
X46825000Y-61850000D03*
X51175000Y-61850000D03*
X46825000Y-60000000D03*
X51175000Y-60000000D03*
D13*
X46825000Y-58050000D03*
X51175000Y-58050000D03*
D12*
X147744500Y-52117500D03*
X143394500Y-52117500D03*
X147744500Y-53967500D03*
X143394500Y-53967500D03*
D13*
X147744500Y-55917500D03*
X143394500Y-55917500D03*
D12*
X94133500Y-61786500D03*
X98483500Y-61786500D03*
X94133500Y-59936500D03*
X98483500Y-59936500D03*
D13*
X94133500Y-57986500D03*
X98483500Y-57986500D03*
D12*
X53325000Y-61850000D03*
X57675000Y-61850000D03*
X53325000Y-60000000D03*
X57675000Y-60000000D03*
D13*
X53325000Y-58050000D03*
X57675000Y-58050000D03*
D12*
X124744500Y-46117500D03*
X120394500Y-46117500D03*
X124744500Y-47967500D03*
X120394500Y-47967500D03*
D13*
X124744500Y-49917500D03*
X120394500Y-49917500D03*
D12*
X91983500Y-52086500D03*
X87633500Y-52086500D03*
X91983500Y-53936500D03*
X87633500Y-53936500D03*
D13*
X91983500Y-55886500D03*
X87633500Y-55886500D03*
D12*
X51175000Y-52150000D03*
X46825000Y-52150000D03*
X51175000Y-54000000D03*
X46825000Y-54000000D03*
D13*
X51175000Y-55950000D03*
X46825000Y-55950000D03*
D12*
X149744500Y-46117500D03*
X145394500Y-46117500D03*
X149744500Y-47967500D03*
X145394500Y-47967500D03*
D13*
X149744500Y-49917500D03*
X145394500Y-49917500D03*
D12*
X98483500Y-52086500D03*
X94133500Y-52086500D03*
X98483500Y-53936500D03*
X94133500Y-53936500D03*
D13*
X98483500Y-55886500D03*
X94133500Y-55886500D03*
D12*
X57675000Y-52150000D03*
X53325000Y-52150000D03*
X57675000Y-54000000D03*
X53325000Y-54000000D03*
D13*
X57675000Y-55950000D03*
X53325000Y-55950000D03*
D12*
X122744500Y-40117500D03*
X118394500Y-40117500D03*
X122744500Y-41967500D03*
X118394500Y-41967500D03*
D13*
X122744500Y-43917500D03*
X118394500Y-43917500D03*
D12*
X88483500Y-46086500D03*
X84133500Y-46086500D03*
X88483500Y-47936500D03*
X84133500Y-47936500D03*
D13*
X88483500Y-49886500D03*
X84133500Y-49886500D03*
D12*
X47675000Y-46150000D03*
X43325000Y-46150000D03*
X47675000Y-48000000D03*
X43325000Y-48000000D03*
D13*
X47675000Y-49950000D03*
X43325000Y-49950000D03*
D12*
X151244500Y-40117500D03*
X146894500Y-40117500D03*
X151244500Y-41967500D03*
X146894500Y-41967500D03*
D13*
X151244500Y-43917500D03*
X146894500Y-43917500D03*
D12*
X101983500Y-46086500D03*
X97633500Y-46086500D03*
X101983500Y-47936500D03*
X97633500Y-47936500D03*
D13*
X101983500Y-49886500D03*
X97633500Y-49886500D03*
D12*
X61175000Y-46150000D03*
X56825000Y-46150000D03*
X61175000Y-48000000D03*
X56825000Y-48000000D03*
D13*
X61175000Y-49950000D03*
X56825000Y-49950000D03*
D12*
X121244500Y-34117500D03*
X116894500Y-34117500D03*
X121244500Y-35967500D03*
X116894500Y-35967500D03*
D13*
X121244500Y-37917500D03*
X116894500Y-37917500D03*
D12*
X44175000Y-40150000D03*
X39825000Y-40150000D03*
X44175000Y-42000000D03*
X39825000Y-42000000D03*
D13*
X44175000Y-43950000D03*
X39825000Y-43950000D03*
D12*
X153244500Y-34117500D03*
X148894500Y-34117500D03*
X153244500Y-35967500D03*
X148894500Y-35967500D03*
D13*
X153244500Y-37917500D03*
X148894500Y-37917500D03*
D12*
X105483500Y-40086500D03*
X101133500Y-40086500D03*
X105483500Y-41936500D03*
X101133500Y-41936500D03*
D13*
X105483500Y-43886500D03*
X101133500Y-43886500D03*
D12*
X64675000Y-40150000D03*
X60325000Y-40150000D03*
X64675000Y-42000000D03*
X60325000Y-42000000D03*
D13*
X64675000Y-43950000D03*
X60325000Y-43950000D03*
D12*
X81483500Y-34086500D03*
X77133500Y-34086500D03*
X81483500Y-35936500D03*
X77133500Y-35936500D03*
D13*
X81483500Y-37886500D03*
X77133500Y-37886500D03*
D12*
X40675000Y-34150000D03*
X36325000Y-34150000D03*
X40675000Y-36000000D03*
X36325000Y-36000000D03*
D13*
X40675000Y-37950000D03*
X36325000Y-37950000D03*
D12*
X108983500Y-34086500D03*
X104633500Y-34086500D03*
X108983500Y-35936500D03*
X104633500Y-35936500D03*
D13*
X108983500Y-37886500D03*
X104633500Y-37886500D03*
D12*
X68175000Y-34150000D03*
X63825000Y-34150000D03*
X68175000Y-36000000D03*
X63825000Y-36000000D03*
D13*
X68175000Y-37950000D03*
X63825000Y-37950000D03*
D12*
X140744500Y-76117500D03*
X136394500Y-76117500D03*
X140744500Y-77967500D03*
X136394500Y-77967500D03*
D13*
X140744500Y-79917500D03*
X136394500Y-79917500D03*
D14*
X135000000Y-38000000D03*
X52250000Y-38000000D03*
D12*
X84925000Y-40150000D03*
X80575000Y-40150000D03*
X84925000Y-42000000D03*
X80575000Y-42000000D03*
D13*
X84925000Y-43950000D03*
X80575000Y-43950000D03*
M02*
