G04 #@! TF.FileFunction,Legend,Bot*
%FSLAX46Y46*%
G04 Gerber Fmt 4.6, Leading zero omitted, Abs format (unit mm)*
G04 Created by KiCad (PCBNEW 4.0.4+e1-6308~48~ubuntu14.04.1-stable) date Wed Jun 28 21:35:02 2017*
%MOMM*%
%LPD*%
G01*
G04 APERTURE LIST*
%ADD10C,0.100000*%
%ADD11C,0.300000*%
%ADD12C,0.400000*%
%ADD13C,0.150000*%
%ADD14C,0.120000*%
%ADD15C,0.450000*%
%ADD16C,0.889000*%
%ADD17R,0.380000X0.900000*%
%ADD18R,2.250000X1.700000*%
%ADD19R,0.650000X1.700000*%
%ADD20R,1.700000X0.650000*%
%ADD21R,1.100000X3.600000*%
%ADD22R,1.700000X3.500000*%
%ADD23R,0.750000X1.160000*%
%ADD24R,0.608000X1.243000*%
%ADD25C,3.100000*%
%ADD26R,1.100000X1.900000*%
%ADD27R,2.100000X2.100000*%
%ADD28R,2.500000X0.850000*%
%ADD29R,3.300000X1.100000*%
%ADD30R,0.500000X1.450000*%
%ADD31R,2.200000X1.700000*%
%ADD32R,1.900000X2.000000*%
%ADD33C,6.100000*%
%ADD34R,1.298880X1.298880*%
%ADD35R,0.850000X0.900000*%
%ADD36R,1.100000X1.350000*%
%ADD37R,1.350000X1.100000*%
%ADD38R,1.400000X0.800000*%
%ADD39R,0.800000X1.400000*%
%ADD40R,1.000000X0.900000*%
%ADD41R,0.584200X0.965200*%
G04 APERTURE END LIST*
D10*
D11*
X55368963Y-73698571D02*
X55181463Y-72198571D01*
X55270749Y-72912857D02*
X54413606Y-72912857D01*
X54511820Y-73698571D02*
X54324320Y-72198571D01*
X53154677Y-73698571D02*
X53056463Y-72912857D01*
X53110035Y-72770000D01*
X53243963Y-72698571D01*
X53529677Y-72698571D01*
X53681463Y-72770000D01*
X53145749Y-73627143D02*
X53297534Y-73698571D01*
X53654677Y-73698571D01*
X53788606Y-73627143D01*
X53842178Y-73484286D01*
X53824321Y-73341429D01*
X53735034Y-73198571D01*
X53583249Y-73127143D01*
X53226106Y-73127143D01*
X53074320Y-73055714D01*
X51788606Y-73627143D02*
X51940391Y-73698571D01*
X52226105Y-73698571D01*
X52360035Y-73627143D01*
X52422534Y-73555714D01*
X52476106Y-73412857D01*
X52422535Y-72984286D01*
X52333249Y-72841429D01*
X52252892Y-72770000D01*
X52101105Y-72698571D01*
X51815391Y-72698571D01*
X51681463Y-72770000D01*
X51154677Y-73698571D02*
X50967177Y-72198571D01*
X50940392Y-73127143D02*
X50583249Y-73698571D01*
X50458249Y-72698571D02*
X51101106Y-73270000D01*
X48815392Y-73270000D02*
X48101106Y-73270000D01*
X49011820Y-73698571D02*
X48324320Y-72198571D01*
X48011820Y-73698571D01*
X47297534Y-73698571D02*
X47431464Y-73627143D01*
X47485035Y-73484286D01*
X47324320Y-72198571D01*
X46511820Y-73698571D02*
X46645750Y-73627143D01*
X46699321Y-73484286D01*
X46538606Y-72198571D01*
X57074321Y-74748571D02*
X56217178Y-74748571D01*
X56833249Y-76248571D02*
X56645749Y-74748571D01*
X55904678Y-76248571D02*
X55717178Y-74748571D01*
X55261821Y-76248571D02*
X55163607Y-75462857D01*
X55217179Y-75320000D01*
X55351107Y-75248571D01*
X55565392Y-75248571D01*
X55717179Y-75320000D01*
X55797536Y-75391429D01*
X53967179Y-76177143D02*
X54118964Y-76248571D01*
X54404678Y-76248571D01*
X54538607Y-76177143D01*
X54592179Y-76034286D01*
X54520750Y-75462857D01*
X54431464Y-75320000D01*
X54279678Y-75248571D01*
X53993964Y-75248571D01*
X53860036Y-75320000D01*
X53806464Y-75462857D01*
X53824321Y-75605714D01*
X54556464Y-75748571D01*
X52145750Y-74748571D02*
X51288607Y-74748571D01*
X51904678Y-76248571D02*
X51717178Y-74748571D01*
X50976107Y-76248571D02*
X50788607Y-74748571D01*
X50333250Y-76248571D02*
X50235036Y-75462857D01*
X50288608Y-75320000D01*
X50422536Y-75248571D01*
X50636821Y-75248571D01*
X50788608Y-75320000D01*
X50868965Y-75391429D01*
X49618964Y-76248571D02*
X49493964Y-75248571D01*
X49431464Y-74748571D02*
X49511822Y-74820000D01*
X49449322Y-74891429D01*
X49368965Y-74820000D01*
X49431464Y-74748571D01*
X49449322Y-74891429D01*
X48779678Y-75248571D02*
X48904678Y-76248571D01*
X48797536Y-75391429D02*
X48717179Y-75320000D01*
X48565392Y-75248571D01*
X48351107Y-75248571D01*
X48217179Y-75320000D01*
X48163607Y-75462857D01*
X48261821Y-76248571D01*
X46779678Y-75248571D02*
X46931464Y-76462857D01*
X47020750Y-76605714D01*
X47101107Y-76677143D01*
X47252892Y-76748571D01*
X47467178Y-76748571D01*
X47601107Y-76677143D01*
X46895750Y-76177143D02*
X47047535Y-76248571D01*
X47333249Y-76248571D01*
X47467179Y-76177143D01*
X47529678Y-76105714D01*
X47583250Y-75962857D01*
X47529679Y-75534286D01*
X47440393Y-75391429D01*
X47360036Y-75320000D01*
X47208249Y-75248571D01*
X46922535Y-75248571D01*
X46788607Y-75320000D01*
X46252893Y-76177143D02*
X46118964Y-76248571D01*
X45833249Y-76248571D01*
X45681464Y-76177143D01*
X45592179Y-76034286D01*
X45583250Y-75962857D01*
X45636821Y-75820000D01*
X45770749Y-75748571D01*
X45985035Y-75748571D01*
X46118964Y-75677143D01*
X46172536Y-75534286D01*
X46163607Y-75462857D01*
X46074321Y-75320000D01*
X45922535Y-75248571D01*
X45708249Y-75248571D01*
X45574321Y-75320000D01*
X44958249Y-76105714D02*
X44895750Y-76177143D01*
X44976106Y-76248571D01*
X45038607Y-76177143D01*
X44958249Y-76105714D01*
X44976106Y-76248571D01*
X44904678Y-75677143D02*
X44868964Y-74820000D01*
X44788606Y-74748571D01*
X44726107Y-74820000D01*
X44904678Y-75677143D01*
X44788606Y-74748571D01*
D12*
X75564905Y-72405857D02*
X74041095Y-72405857D01*
X74803000Y-73167762D02*
X74803000Y-71643952D01*
D13*
X61145000Y-62800000D02*
X61145000Y-61900000D01*
X70606000Y-49345000D02*
X70381000Y-49345000D01*
X70606000Y-42095000D02*
X70281000Y-42095000D01*
X63356000Y-42095000D02*
X63681000Y-42095000D01*
X63356000Y-49345000D02*
X63681000Y-49345000D01*
X70606000Y-49345000D02*
X70606000Y-49020000D01*
X63356000Y-49345000D02*
X63356000Y-49020000D01*
X63356000Y-42095000D02*
X63356000Y-42420000D01*
X70606000Y-42095000D02*
X70606000Y-42420000D01*
X70381000Y-49345000D02*
X70381000Y-50770000D01*
X74659000Y-63515000D02*
G75*
G03X74659000Y-63515000I-250000J0D01*
G01*
X72509000Y-70265000D02*
X72509000Y-69265000D01*
X72509000Y-69265000D02*
X71509000Y-69265000D01*
X71509000Y-69265000D02*
X71509000Y-70265000D01*
X73909000Y-64265000D02*
X75159000Y-64265000D01*
X75159000Y-64265000D02*
X75159000Y-62665000D01*
X75159000Y-62665000D02*
X75959000Y-62665000D01*
X75959000Y-62665000D02*
X75959000Y-66765000D01*
X75159000Y-64265000D02*
X75959000Y-64265000D01*
X70109000Y-64265000D02*
X68859000Y-64265000D01*
X68859000Y-64265000D02*
X68859000Y-62665000D01*
X68859000Y-62665000D02*
X68059000Y-62665000D01*
X68059000Y-62665000D02*
X68059000Y-66765000D01*
X68859000Y-64265000D02*
X68059000Y-64265000D01*
X74209000Y-70265000D02*
X69809000Y-70265000D01*
X74209000Y-65365000D02*
X74209000Y-68765000D01*
X74209000Y-68765000D02*
X73209000Y-68765000D01*
X73209000Y-68765000D02*
X73209000Y-65365000D01*
X73209000Y-65365000D02*
X74209000Y-65365000D01*
X69809000Y-65365000D02*
X69809000Y-68765000D01*
X69809000Y-68765000D02*
X70809000Y-68765000D01*
X70809000Y-68765000D02*
X70809000Y-65365000D01*
X70809000Y-65365000D02*
X69809000Y-65365000D01*
X72109000Y-64265000D02*
X71909000Y-64265000D01*
D14*
X76624000Y-55637000D02*
X76624000Y-53837000D01*
X79844000Y-53837000D02*
X79844000Y-56287000D01*
D13*
X44958000Y-43180000D02*
X44958000Y-48006000D01*
X44958000Y-48006000D02*
X55118000Y-48006000D01*
X55118000Y-48006000D02*
X55118000Y-43180000D01*
X55118000Y-43180000D02*
X44958000Y-43180000D01*
X55118000Y-44958000D02*
X54483000Y-44958000D01*
X54483000Y-44958000D02*
X54483000Y-46228000D01*
X54483000Y-46228000D02*
X55118000Y-46228000D01*
X70973500Y-54176500D02*
X69973500Y-54176500D01*
X70973500Y-52376500D02*
X69973500Y-52376500D01*
X56675000Y-66475000D02*
X55275000Y-66475000D01*
X55275000Y-66475000D02*
X55275000Y-61275000D01*
X55275000Y-61275000D02*
X56675000Y-61275000D01*
X60475000Y-66475000D02*
X60475000Y-61275000D01*
X60475000Y-61275000D02*
X59075000Y-61275000D01*
X60475000Y-66475000D02*
X59075000Y-66475000D01*
D14*
X92906000Y-35053000D02*
X92906000Y-35033000D01*
X92906000Y-35033000D02*
X90246000Y-35033000D01*
X90246000Y-35033000D02*
X90246000Y-35053000D01*
X92906000Y-41483000D02*
X92906000Y-41503000D01*
X92906000Y-41503000D02*
X90246000Y-41503000D01*
X90246000Y-41503000D02*
X90246000Y-41483000D01*
X95211000Y-35053000D02*
X92906000Y-35053000D01*
D13*
X77250000Y-35250000D02*
X77250000Y-35450000D01*
X77250000Y-41250000D02*
X77250000Y-41050000D01*
X83750000Y-41250000D02*
X83750000Y-41050000D01*
X83750000Y-35250000D02*
X83750000Y-35450000D01*
X83750000Y-37050000D02*
X83750000Y-39450000D01*
X77250000Y-37050000D02*
X77250000Y-39450000D01*
X77250000Y-35250000D02*
X83750000Y-35250000D01*
X83750000Y-41250000D02*
X77250000Y-41250000D01*
X81500000Y-38250000D02*
G75*
G03X81500000Y-38250000I-1000000J0D01*
G01*
X82000000Y-38250000D02*
G75*
G03X82000000Y-38250000I-1500000J0D01*
G01*
X105675500Y-41163500D02*
X105675500Y-40963500D01*
X105675500Y-35163500D02*
X105675500Y-35363500D01*
X99175500Y-35163500D02*
X99175500Y-35363500D01*
X99175500Y-41163500D02*
X99175500Y-40963500D01*
X99175500Y-39363500D02*
X99175500Y-36963500D01*
X105675500Y-39363500D02*
X105675500Y-36963500D01*
X105675500Y-41163500D02*
X99175500Y-41163500D01*
X99175500Y-35163500D02*
X105675500Y-35163500D01*
X103425500Y-38163500D02*
G75*
G03X103425500Y-38163500I-1000000J0D01*
G01*
X103925500Y-38163500D02*
G75*
G03X103925500Y-38163500I-1500000J0D01*
G01*
X118439000Y-41036500D02*
X118439000Y-40836500D01*
X118439000Y-35036500D02*
X118439000Y-35236500D01*
X111939000Y-35036500D02*
X111939000Y-35236500D01*
X111939000Y-41036500D02*
X111939000Y-40836500D01*
X111939000Y-39236500D02*
X111939000Y-36836500D01*
X118439000Y-39236500D02*
X118439000Y-36836500D01*
X118439000Y-41036500D02*
X111939000Y-41036500D01*
X111939000Y-35036500D02*
X118439000Y-35036500D01*
X116189000Y-38036500D02*
G75*
G03X116189000Y-38036500I-1000000J0D01*
G01*
X116689000Y-38036500D02*
G75*
G03X116689000Y-38036500I-1500000J0D01*
G01*
X62369500Y-36119500D02*
X59669500Y-36119500D01*
X62369500Y-34619500D02*
X59669500Y-34619500D01*
X60869500Y-35519500D02*
X60869500Y-35269500D01*
X60869500Y-35269500D02*
X61019500Y-35419500D01*
X61119500Y-35019500D02*
X61119500Y-35719500D01*
X60769500Y-35369500D02*
X60419500Y-35369500D01*
X61119500Y-35369500D02*
X60769500Y-35019500D01*
X60769500Y-35019500D02*
X60769500Y-35719500D01*
X60769500Y-35719500D02*
X61119500Y-35369500D01*
X68615000Y-56165000D02*
X68615000Y-56865000D01*
X69815000Y-56865000D02*
X69815000Y-56165000D01*
X71028000Y-56165000D02*
X71028000Y-56865000D01*
X72228000Y-56865000D02*
X72228000Y-56165000D01*
X81655000Y-59270000D02*
X80655000Y-59270000D01*
X80655000Y-57570000D02*
X81655000Y-57570000D01*
X74336000Y-55237000D02*
X74336000Y-54237000D01*
X76036000Y-54237000D02*
X76036000Y-55237000D01*
X81655000Y-51777000D02*
X80655000Y-51777000D01*
X80655000Y-50077000D02*
X81655000Y-50077000D01*
X60841000Y-67349000D02*
X61841000Y-67349000D01*
X61841000Y-69049000D02*
X60841000Y-69049000D01*
X66597000Y-63300000D02*
X66597000Y-64300000D01*
X64897000Y-64300000D02*
X64897000Y-63300000D01*
X65143000Y-57111000D02*
X64143000Y-57111000D01*
X64143000Y-55411000D02*
X65143000Y-55411000D01*
X65143000Y-59143000D02*
X64143000Y-59143000D01*
X64143000Y-57443000D02*
X65143000Y-57443000D01*
X65143000Y-61175000D02*
X64143000Y-61175000D01*
X64143000Y-59475000D02*
X65143000Y-59475000D01*
X60628500Y-38700000D02*
X60628500Y-37500000D01*
X58878500Y-37500000D02*
X58878500Y-38700000D01*
X59538500Y-50919000D02*
X59538500Y-49919000D01*
X61238500Y-49919000D02*
X61238500Y-50919000D01*
X75589500Y-44013500D02*
X75589500Y-45013500D01*
X73889500Y-45013500D02*
X73889500Y-44013500D01*
X76175500Y-49712500D02*
X76175500Y-48712500D01*
X77875500Y-48712500D02*
X77875500Y-49712500D01*
X77875500Y-44013500D02*
X77875500Y-45013500D01*
X76175500Y-45013500D02*
X76175500Y-44013500D01*
X91940000Y-43903000D02*
X90940000Y-43903000D01*
X90940000Y-42203000D02*
X91940000Y-42203000D01*
X81188000Y-44118500D02*
X82388000Y-44118500D01*
X82388000Y-42368500D02*
X81188000Y-42368500D01*
X82350000Y-45625000D02*
X81150000Y-45625000D01*
X81150000Y-47375000D02*
X82350000Y-47375000D01*
X98877500Y-75350000D02*
X99877500Y-75350000D01*
X99877500Y-77050000D02*
X98877500Y-77050000D01*
X101136000Y-57396000D02*
X101136000Y-56396000D01*
X102836000Y-56396000D02*
X102836000Y-57396000D01*
X126674500Y-38696000D02*
X125674500Y-38696000D01*
X125674500Y-36996000D02*
X126674500Y-36996000D01*
X78955000Y-71128000D02*
X78955000Y-72128000D01*
X77255000Y-72128000D02*
X77255000Y-71128000D01*
X45363500Y-36076000D02*
X45363500Y-37076000D01*
X43663500Y-37076000D02*
X43663500Y-36076000D01*
X148788500Y-34964000D02*
X149788500Y-34964000D01*
X149788500Y-36664000D02*
X148788500Y-36664000D01*
X59063000Y-75223000D02*
X60063000Y-75223000D01*
X60063000Y-76923000D02*
X59063000Y-76923000D01*
X135089000Y-69921500D02*
X135089000Y-70921500D01*
X133389000Y-70921500D02*
X133389000Y-69921500D01*
X57492000Y-40267000D02*
X57492000Y-41267000D01*
X55792000Y-41267000D02*
X55792000Y-40267000D01*
X40251000Y-74954500D02*
X39251000Y-74954500D01*
X39251000Y-73254500D02*
X40251000Y-73254500D01*
D14*
X64899000Y-74033500D02*
X64899000Y-73103500D01*
X64899000Y-70873500D02*
X64899000Y-71803500D01*
X64899000Y-70873500D02*
X67059000Y-70873500D01*
X64899000Y-74033500D02*
X66359000Y-74033500D01*
D13*
X58174000Y-57189000D02*
X59174000Y-57189000D01*
X59174000Y-58889000D02*
X58174000Y-58889000D01*
X42686000Y-45882000D02*
X42686000Y-47082000D01*
X44436000Y-47082000D02*
X44436000Y-45882000D01*
X46517000Y-52945000D02*
X47717000Y-52945000D01*
X47717000Y-51195000D02*
X46517000Y-51195000D01*
X107862000Y-57269000D02*
X107862000Y-56269000D01*
X109562000Y-56269000D02*
X109562000Y-57269000D01*
X77128000Y-62603000D02*
X77128000Y-61603000D01*
X78828000Y-61603000D02*
X78828000Y-62603000D01*
X64617524Y-66046405D02*
X64617524Y-66694024D01*
X64579429Y-66770214D01*
X64541333Y-66808310D01*
X64465143Y-66846405D01*
X64312762Y-66846405D01*
X64236571Y-66808310D01*
X64198476Y-66770214D01*
X64160381Y-66694024D01*
X64160381Y-66046405D01*
X63817524Y-66122595D02*
X63779429Y-66084500D01*
X63703238Y-66046405D01*
X63512762Y-66046405D01*
X63436572Y-66084500D01*
X63398476Y-66122595D01*
X63360381Y-66198786D01*
X63360381Y-66274976D01*
X63398476Y-66389262D01*
X63855619Y-66846405D01*
X63360381Y-66846405D01*
X72314905Y-49490381D02*
X72314905Y-50299905D01*
X72267286Y-50395143D01*
X72219667Y-50442762D01*
X72124429Y-50490381D01*
X71933952Y-50490381D01*
X71838714Y-50442762D01*
X71791095Y-50395143D01*
X71743476Y-50299905D01*
X71743476Y-49490381D01*
X71362524Y-49490381D02*
X70743476Y-49490381D01*
X71076810Y-49871333D01*
X70933952Y-49871333D01*
X70838714Y-49918952D01*
X70791095Y-49966571D01*
X70743476Y-50061810D01*
X70743476Y-50299905D01*
X70791095Y-50395143D01*
X70838714Y-50442762D01*
X70933952Y-50490381D01*
X71219667Y-50490381D01*
X71314905Y-50442762D01*
X71362524Y-50395143D01*
X73128047Y-71968571D02*
X72985190Y-72016190D01*
X72937571Y-72063810D01*
X72889952Y-72159048D01*
X72889952Y-72301905D01*
X72937571Y-72397143D01*
X72985190Y-72444762D01*
X73080428Y-72492381D01*
X73461381Y-72492381D01*
X73461381Y-71492381D01*
X73128047Y-71492381D01*
X73032809Y-71540000D01*
X72985190Y-71587619D01*
X72937571Y-71682857D01*
X72937571Y-71778095D01*
X72985190Y-71873333D01*
X73032809Y-71920952D01*
X73128047Y-71968571D01*
X73461381Y-71968571D01*
X72509000Y-72206667D02*
X72032809Y-72206667D01*
X72604238Y-72492381D02*
X72270905Y-71492381D01*
X71937571Y-72492381D01*
X71747095Y-71492381D02*
X71175666Y-71492381D01*
X71461381Y-72492381D02*
X71461381Y-71492381D01*
X70985190Y-71492381D02*
X70413761Y-71492381D01*
X70699476Y-72492381D02*
X70699476Y-71492381D01*
D10*
X80554952Y-54432238D02*
X80878762Y-54432238D01*
X80916857Y-54451286D01*
X80935905Y-54470333D01*
X80954952Y-54508429D01*
X80954952Y-54584619D01*
X80935905Y-54622714D01*
X80916857Y-54641762D01*
X80878762Y-54660810D01*
X80554952Y-54660810D01*
X80954952Y-55060810D02*
X80954952Y-54832238D01*
X80954952Y-54946524D02*
X80554952Y-54946524D01*
X80612095Y-54908429D01*
X80650190Y-54870334D01*
X80669238Y-54832238D01*
D13*
X50799905Y-43648381D02*
X50799905Y-44457905D01*
X50752286Y-44553143D01*
X50704667Y-44600762D01*
X50609429Y-44648381D01*
X50418952Y-44648381D01*
X50323714Y-44600762D01*
X50276095Y-44553143D01*
X50228476Y-44457905D01*
X50228476Y-43648381D01*
X49323714Y-43981714D02*
X49323714Y-44648381D01*
X49561810Y-43600762D02*
X49799905Y-44315048D01*
X49180857Y-44315048D01*
X83986381Y-52657524D02*
X83986381Y-53276572D01*
X84367333Y-52943238D01*
X84367333Y-53086096D01*
X84414952Y-53181334D01*
X84462571Y-53228953D01*
X84557810Y-53276572D01*
X84795905Y-53276572D01*
X84891143Y-53228953D01*
X84938762Y-53181334D01*
X84986381Y-53086096D01*
X84986381Y-52800381D01*
X84938762Y-52705143D01*
X84891143Y-52657524D01*
X84319714Y-53609905D02*
X84986381Y-53848000D01*
X84319714Y-54086096D01*
X83986381Y-54371810D02*
X83986381Y-54990858D01*
X84367333Y-54657524D01*
X84367333Y-54800382D01*
X84414952Y-54895620D01*
X84462571Y-54943239D01*
X84557810Y-54990858D01*
X84795905Y-54990858D01*
X84891143Y-54943239D01*
X84938762Y-54895620D01*
X84986381Y-54800382D01*
X84986381Y-54514667D01*
X84938762Y-54419429D01*
X84891143Y-54371810D01*
X105616357Y-57427881D02*
X106092548Y-57427881D01*
X106140167Y-57904071D01*
X106092548Y-57856452D01*
X105997310Y-57808833D01*
X105759214Y-57808833D01*
X105663976Y-57856452D01*
X105616357Y-57904071D01*
X105568738Y-57999310D01*
X105568738Y-58237405D01*
X105616357Y-58332643D01*
X105663976Y-58380262D01*
X105759214Y-58427881D01*
X105997310Y-58427881D01*
X106092548Y-58380262D01*
X106140167Y-58332643D01*
X105235405Y-57761214D02*
X104997310Y-58427881D01*
X104759214Y-57761214D01*
X67754452Y-52368452D02*
X67754452Y-52749405D01*
X68021119Y-51949405D02*
X67754452Y-52368452D01*
X67487785Y-51949405D01*
X66802071Y-52749405D02*
X67259214Y-52749405D01*
X67030643Y-52749405D02*
X67030643Y-51949405D01*
X67106833Y-52063690D01*
X67183024Y-52139881D01*
X67259214Y-52177976D01*
X57918333Y-64242905D02*
X58299286Y-64242905D01*
X58299286Y-63442905D01*
X57232619Y-64242905D02*
X57689762Y-64242905D01*
X57461191Y-64242905D02*
X57461191Y-63442905D01*
X57537381Y-63557190D01*
X57613572Y-63633381D01*
X57689762Y-63671476D01*
X93717809Y-34202643D02*
X93765428Y-34250262D01*
X93908285Y-34297881D01*
X94003523Y-34297881D01*
X94146381Y-34250262D01*
X94241619Y-34155024D01*
X94289238Y-34059786D01*
X94336857Y-33869310D01*
X94336857Y-33726452D01*
X94289238Y-33535976D01*
X94241619Y-33440738D01*
X94146381Y-33345500D01*
X94003523Y-33297881D01*
X93908285Y-33297881D01*
X93765428Y-33345500D01*
X93717809Y-33393119D01*
X93098762Y-33297881D02*
X92908285Y-33297881D01*
X92813047Y-33345500D01*
X92717809Y-33440738D01*
X92670190Y-33631214D01*
X92670190Y-33964548D01*
X92717809Y-34155024D01*
X92813047Y-34250262D01*
X92908285Y-34297881D01*
X93098762Y-34297881D01*
X93194000Y-34250262D01*
X93289238Y-34155024D01*
X93336857Y-33964548D01*
X93336857Y-33631214D01*
X93289238Y-33440738D01*
X93194000Y-33345500D01*
X93098762Y-33297881D01*
X91670190Y-34297881D02*
X92003524Y-33821690D01*
X92241619Y-34297881D02*
X92241619Y-33297881D01*
X91860666Y-33297881D01*
X91765428Y-33345500D01*
X91717809Y-33393119D01*
X91670190Y-33488357D01*
X91670190Y-33631214D01*
X91717809Y-33726452D01*
X91765428Y-33774071D01*
X91860666Y-33821690D01*
X92241619Y-33821690D01*
X91384476Y-33297881D02*
X90813047Y-33297881D01*
X91098762Y-34297881D02*
X91098762Y-33297881D01*
X90479714Y-33774071D02*
X90146380Y-33774071D01*
X90003523Y-34297881D02*
X90479714Y-34297881D01*
X90479714Y-33297881D01*
X90003523Y-33297881D01*
X89670190Y-33297881D02*
X89003523Y-34297881D01*
X89003523Y-33297881D02*
X89670190Y-34297881D01*
X81906881Y-34805881D02*
X82240215Y-34329690D01*
X82478310Y-34805881D02*
X82478310Y-33805881D01*
X82097357Y-33805881D01*
X82002119Y-33853500D01*
X81954500Y-33901119D01*
X81906881Y-33996357D01*
X81906881Y-34139214D01*
X81954500Y-34234452D01*
X82002119Y-34282071D01*
X82097357Y-34329690D01*
X82478310Y-34329690D01*
X81478310Y-34282071D02*
X81144976Y-34282071D01*
X81002119Y-34805881D02*
X81478310Y-34805881D01*
X81478310Y-33805881D01*
X81002119Y-33805881D01*
X80621167Y-34758262D02*
X80478310Y-34805881D01*
X80240214Y-34805881D01*
X80144976Y-34758262D01*
X80097357Y-34710643D01*
X80049738Y-34615405D01*
X80049738Y-34520167D01*
X80097357Y-34424929D01*
X80144976Y-34377310D01*
X80240214Y-34329690D01*
X80430691Y-34282071D01*
X80525929Y-34234452D01*
X80573548Y-34186833D01*
X80621167Y-34091595D01*
X80621167Y-33996357D01*
X80573548Y-33901119D01*
X80525929Y-33853500D01*
X80430691Y-33805881D01*
X80192595Y-33805881D01*
X80049738Y-33853500D01*
X79621167Y-34282071D02*
X79287833Y-34282071D01*
X79144976Y-34805881D02*
X79621167Y-34805881D01*
X79621167Y-33805881D01*
X79144976Y-33805881D01*
X78859262Y-33805881D02*
X78287833Y-33805881D01*
X78573548Y-34805881D02*
X78573548Y-33805881D01*
X104235024Y-34678881D02*
X104235024Y-33678881D01*
X103901690Y-34393167D01*
X103568357Y-33678881D01*
X103568357Y-34678881D01*
X102901691Y-33678881D02*
X102711214Y-33678881D01*
X102615976Y-33726500D01*
X102520738Y-33821738D01*
X102473119Y-34012214D01*
X102473119Y-34345548D01*
X102520738Y-34536024D01*
X102615976Y-34631262D01*
X102711214Y-34678881D01*
X102901691Y-34678881D01*
X102996929Y-34631262D01*
X103092167Y-34536024D01*
X103139786Y-34345548D01*
X103139786Y-34012214D01*
X103092167Y-33821738D01*
X102996929Y-33726500D01*
X102901691Y-33678881D01*
X102044548Y-34678881D02*
X102044548Y-33678881D01*
X101806453Y-33678881D01*
X101663595Y-33726500D01*
X101568357Y-33821738D01*
X101520738Y-33916976D01*
X101473119Y-34107452D01*
X101473119Y-34250310D01*
X101520738Y-34440786D01*
X101568357Y-34536024D01*
X101663595Y-34631262D01*
X101806453Y-34678881D01*
X102044548Y-34678881D01*
X101044548Y-34155071D02*
X100711214Y-34155071D01*
X100568357Y-34678881D02*
X101044548Y-34678881D01*
X101044548Y-33678881D01*
X100568357Y-33678881D01*
X117260428Y-34028071D02*
X117117571Y-34075690D01*
X117069952Y-34123310D01*
X117022333Y-34218548D01*
X117022333Y-34361405D01*
X117069952Y-34456643D01*
X117117571Y-34504262D01*
X117212809Y-34551881D01*
X117593762Y-34551881D01*
X117593762Y-33551881D01*
X117260428Y-33551881D01*
X117165190Y-33599500D01*
X117117571Y-33647119D01*
X117069952Y-33742357D01*
X117069952Y-33837595D01*
X117117571Y-33932833D01*
X117165190Y-33980452D01*
X117260428Y-34028071D01*
X117593762Y-34028071D01*
X116022333Y-34551881D02*
X116355667Y-34075690D01*
X116593762Y-34551881D02*
X116593762Y-33551881D01*
X116212809Y-33551881D01*
X116117571Y-33599500D01*
X116069952Y-33647119D01*
X116022333Y-33742357D01*
X116022333Y-33885214D01*
X116069952Y-33980452D01*
X116117571Y-34028071D01*
X116212809Y-34075690D01*
X116593762Y-34075690D01*
X115593762Y-34551881D02*
X115593762Y-33551881D01*
X114593762Y-33599500D02*
X114689000Y-33551881D01*
X114831857Y-33551881D01*
X114974715Y-33599500D01*
X115069953Y-33694738D01*
X115117572Y-33789976D01*
X115165191Y-33980452D01*
X115165191Y-34123310D01*
X115117572Y-34313786D01*
X115069953Y-34409024D01*
X114974715Y-34504262D01*
X114831857Y-34551881D01*
X114736619Y-34551881D01*
X114593762Y-34504262D01*
X114546143Y-34456643D01*
X114546143Y-34123310D01*
X114736619Y-34123310D01*
X114117572Y-34551881D02*
X114117572Y-33551881D01*
X114117572Y-34028071D02*
X113546143Y-34028071D01*
X113546143Y-34551881D02*
X113546143Y-33551881D01*
X113212810Y-33551881D02*
X112641381Y-33551881D01*
X112927096Y-34551881D02*
X112927096Y-33551881D01*
X69602286Y-58896214D02*
X69640381Y-58934310D01*
X69754667Y-58972405D01*
X69830857Y-58972405D01*
X69945143Y-58934310D01*
X70021334Y-58858119D01*
X70059429Y-58781929D01*
X70097524Y-58629548D01*
X70097524Y-58515262D01*
X70059429Y-58362881D01*
X70021334Y-58286690D01*
X69945143Y-58210500D01*
X69830857Y-58172405D01*
X69754667Y-58172405D01*
X69640381Y-58210500D01*
X69602286Y-58248595D01*
X68840381Y-58972405D02*
X69297524Y-58972405D01*
X69068953Y-58972405D02*
X69068953Y-58172405D01*
X69145143Y-58286690D01*
X69221334Y-58362881D01*
X69297524Y-58400976D01*
X68535619Y-58248595D02*
X68497524Y-58210500D01*
X68421333Y-58172405D01*
X68230857Y-58172405D01*
X68154667Y-58210500D01*
X68116571Y-58248595D01*
X68078476Y-58324786D01*
X68078476Y-58400976D01*
X68116571Y-58515262D01*
X68573714Y-58972405D01*
X68078476Y-58972405D01*
X72205786Y-58896214D02*
X72243881Y-58934310D01*
X72358167Y-58972405D01*
X72434357Y-58972405D01*
X72548643Y-58934310D01*
X72624834Y-58858119D01*
X72662929Y-58781929D01*
X72701024Y-58629548D01*
X72701024Y-58515262D01*
X72662929Y-58362881D01*
X72624834Y-58286690D01*
X72548643Y-58210500D01*
X72434357Y-58172405D01*
X72358167Y-58172405D01*
X72243881Y-58210500D01*
X72205786Y-58248595D01*
X71443881Y-58972405D02*
X71901024Y-58972405D01*
X71672453Y-58972405D02*
X71672453Y-58172405D01*
X71748643Y-58286690D01*
X71824834Y-58362881D01*
X71901024Y-58400976D01*
X71177214Y-58172405D02*
X70681976Y-58172405D01*
X70948643Y-58477167D01*
X70834357Y-58477167D01*
X70758167Y-58515262D01*
X70720071Y-58553357D01*
X70681976Y-58629548D01*
X70681976Y-58820024D01*
X70720071Y-58896214D01*
X70758167Y-58934310D01*
X70834357Y-58972405D01*
X71062929Y-58972405D01*
X71139119Y-58934310D01*
X71177214Y-58896214D01*
X81349833Y-60356714D02*
X81387928Y-60394810D01*
X81502214Y-60432905D01*
X81578404Y-60432905D01*
X81692690Y-60394810D01*
X81768881Y-60318619D01*
X81806976Y-60242429D01*
X81845071Y-60090048D01*
X81845071Y-59975762D01*
X81806976Y-59823381D01*
X81768881Y-59747190D01*
X81692690Y-59671000D01*
X81578404Y-59632905D01*
X81502214Y-59632905D01*
X81387928Y-59671000D01*
X81349833Y-59709095D01*
X80587928Y-60432905D02*
X81045071Y-60432905D01*
X80816500Y-60432905D02*
X80816500Y-59632905D01*
X80892690Y-59747190D01*
X80968881Y-59823381D01*
X81045071Y-59861476D01*
X75317333Y-52673214D02*
X75355428Y-52711310D01*
X75469714Y-52749405D01*
X75545904Y-52749405D01*
X75660190Y-52711310D01*
X75736381Y-52635119D01*
X75774476Y-52558929D01*
X75812571Y-52406548D01*
X75812571Y-52292262D01*
X75774476Y-52139881D01*
X75736381Y-52063690D01*
X75660190Y-51987500D01*
X75545904Y-51949405D01*
X75469714Y-51949405D01*
X75355428Y-51987500D01*
X75317333Y-52025595D01*
X75012571Y-52025595D02*
X74974476Y-51987500D01*
X74898285Y-51949405D01*
X74707809Y-51949405D01*
X74631619Y-51987500D01*
X74593523Y-52025595D01*
X74555428Y-52101786D01*
X74555428Y-52177976D01*
X74593523Y-52292262D01*
X75050666Y-52749405D01*
X74555428Y-52749405D01*
X82302333Y-49815714D02*
X82340428Y-49853810D01*
X82454714Y-49891905D01*
X82530904Y-49891905D01*
X82645190Y-49853810D01*
X82721381Y-49777619D01*
X82759476Y-49701429D01*
X82797571Y-49549048D01*
X82797571Y-49434762D01*
X82759476Y-49282381D01*
X82721381Y-49206190D01*
X82645190Y-49130000D01*
X82530904Y-49091905D01*
X82454714Y-49091905D01*
X82340428Y-49130000D01*
X82302333Y-49168095D01*
X82035666Y-49091905D02*
X81540428Y-49091905D01*
X81807095Y-49396667D01*
X81692809Y-49396667D01*
X81616619Y-49434762D01*
X81578523Y-49472857D01*
X81540428Y-49549048D01*
X81540428Y-49739524D01*
X81578523Y-49815714D01*
X81616619Y-49853810D01*
X81692809Y-49891905D01*
X81921381Y-49891905D01*
X81997571Y-49853810D01*
X82035666Y-49815714D01*
X61503833Y-66979214D02*
X61541928Y-67017310D01*
X61656214Y-67055405D01*
X61732404Y-67055405D01*
X61846690Y-67017310D01*
X61922881Y-66941119D01*
X61960976Y-66864929D01*
X61999071Y-66712548D01*
X61999071Y-66598262D01*
X61960976Y-66445881D01*
X61922881Y-66369690D01*
X61846690Y-66293500D01*
X61732404Y-66255405D01*
X61656214Y-66255405D01*
X61541928Y-66293500D01*
X61503833Y-66331595D01*
X60818119Y-66522071D02*
X60818119Y-67055405D01*
X61008595Y-66217310D02*
X61199071Y-66788738D01*
X60703833Y-66788738D01*
X65919333Y-66452714D02*
X65957428Y-66490810D01*
X66071714Y-66528905D01*
X66147904Y-66528905D01*
X66262190Y-66490810D01*
X66338381Y-66414619D01*
X66376476Y-66338429D01*
X66414571Y-66186048D01*
X66414571Y-66071762D01*
X66376476Y-65919381D01*
X66338381Y-65843190D01*
X66262190Y-65767000D01*
X66147904Y-65728905D01*
X66071714Y-65728905D01*
X65957428Y-65767000D01*
X65919333Y-65805095D01*
X65195523Y-65728905D02*
X65576476Y-65728905D01*
X65614571Y-66109857D01*
X65576476Y-66071762D01*
X65500285Y-66033667D01*
X65309809Y-66033667D01*
X65233619Y-66071762D01*
X65195523Y-66109857D01*
X65157428Y-66186048D01*
X65157428Y-66376524D01*
X65195523Y-66452714D01*
X65233619Y-66490810D01*
X65309809Y-66528905D01*
X65500285Y-66528905D01*
X65576476Y-66490810D01*
X65614571Y-66452714D01*
X62084833Y-56564214D02*
X62122928Y-56602310D01*
X62237214Y-56640405D01*
X62313404Y-56640405D01*
X62427690Y-56602310D01*
X62503881Y-56526119D01*
X62541976Y-56449929D01*
X62580071Y-56297548D01*
X62580071Y-56183262D01*
X62541976Y-56030881D01*
X62503881Y-55954690D01*
X62427690Y-55878500D01*
X62313404Y-55840405D01*
X62237214Y-55840405D01*
X62122928Y-55878500D01*
X62084833Y-55916595D01*
X61399119Y-55840405D02*
X61551500Y-55840405D01*
X61627690Y-55878500D01*
X61665785Y-55916595D01*
X61741976Y-56030881D01*
X61780071Y-56183262D01*
X61780071Y-56488024D01*
X61741976Y-56564214D01*
X61703881Y-56602310D01*
X61627690Y-56640405D01*
X61475309Y-56640405D01*
X61399119Y-56602310D01*
X61361023Y-56564214D01*
X61322928Y-56488024D01*
X61322928Y-56297548D01*
X61361023Y-56221357D01*
X61399119Y-56183262D01*
X61475309Y-56145167D01*
X61627690Y-56145167D01*
X61703881Y-56183262D01*
X61741976Y-56221357D01*
X61780071Y-56297548D01*
X62148286Y-58596214D02*
X62186381Y-58634310D01*
X62300667Y-58672405D01*
X62376857Y-58672405D01*
X62491143Y-58634310D01*
X62567334Y-58558119D01*
X62605429Y-58481929D01*
X62643524Y-58329548D01*
X62643524Y-58215262D01*
X62605429Y-58062881D01*
X62567334Y-57986690D01*
X62491143Y-57910500D01*
X62376857Y-57872405D01*
X62300667Y-57872405D01*
X62186381Y-57910500D01*
X62148286Y-57948595D01*
X61386381Y-58672405D02*
X61843524Y-58672405D01*
X61614953Y-58672405D02*
X61614953Y-57872405D01*
X61691143Y-57986690D01*
X61767334Y-58062881D01*
X61843524Y-58100976D01*
X60700667Y-58139071D02*
X60700667Y-58672405D01*
X60891143Y-57834310D02*
X61081619Y-58405738D01*
X60586381Y-58405738D01*
X62148286Y-60755214D02*
X62186381Y-60793310D01*
X62300667Y-60831405D01*
X62376857Y-60831405D01*
X62491143Y-60793310D01*
X62567334Y-60717119D01*
X62605429Y-60640929D01*
X62643524Y-60488548D01*
X62643524Y-60374262D01*
X62605429Y-60221881D01*
X62567334Y-60145690D01*
X62491143Y-60069500D01*
X62376857Y-60031405D01*
X62300667Y-60031405D01*
X62186381Y-60069500D01*
X62148286Y-60107595D01*
X61843524Y-60107595D02*
X61805429Y-60069500D01*
X61729238Y-60031405D01*
X61538762Y-60031405D01*
X61462572Y-60069500D01*
X61424476Y-60107595D01*
X61386381Y-60183786D01*
X61386381Y-60259976D01*
X61424476Y-60374262D01*
X61881619Y-60831405D01*
X61386381Y-60831405D01*
X61119714Y-60031405D02*
X60586381Y-60031405D01*
X60929238Y-60831405D01*
X58045333Y-37255405D02*
X58312000Y-36874452D01*
X58502476Y-37255405D02*
X58502476Y-36455405D01*
X58197714Y-36455405D01*
X58121523Y-36493500D01*
X58083428Y-36531595D01*
X58045333Y-36607786D01*
X58045333Y-36722071D01*
X58083428Y-36798262D01*
X58121523Y-36836357D01*
X58197714Y-36874452D01*
X58502476Y-36874452D01*
X57283428Y-37255405D02*
X57740571Y-37255405D01*
X57512000Y-37255405D02*
X57512000Y-36455405D01*
X57588190Y-36569690D01*
X57664381Y-36645881D01*
X57740571Y-36683976D01*
X60458333Y-48291714D02*
X60496428Y-48329810D01*
X60610714Y-48367905D01*
X60686904Y-48367905D01*
X60801190Y-48329810D01*
X60877381Y-48253619D01*
X60915476Y-48177429D01*
X60953571Y-48025048D01*
X60953571Y-47910762D01*
X60915476Y-47758381D01*
X60877381Y-47682190D01*
X60801190Y-47606000D01*
X60686904Y-47567905D01*
X60610714Y-47567905D01*
X60496428Y-47606000D01*
X60458333Y-47644095D01*
X60191666Y-47567905D02*
X59658333Y-47567905D01*
X60001190Y-48367905D01*
X74809333Y-42449714D02*
X74847428Y-42487810D01*
X74961714Y-42525905D01*
X75037904Y-42525905D01*
X75152190Y-42487810D01*
X75228381Y-42411619D01*
X75266476Y-42335429D01*
X75304571Y-42183048D01*
X75304571Y-42068762D01*
X75266476Y-41916381D01*
X75228381Y-41840190D01*
X75152190Y-41764000D01*
X75037904Y-41725905D01*
X74961714Y-41725905D01*
X74847428Y-41764000D01*
X74809333Y-41802095D01*
X74428381Y-42525905D02*
X74276000Y-42525905D01*
X74199809Y-42487810D01*
X74161714Y-42449714D01*
X74085523Y-42335429D01*
X74047428Y-42183048D01*
X74047428Y-41878286D01*
X74085523Y-41802095D01*
X74123619Y-41764000D01*
X74199809Y-41725905D01*
X74352190Y-41725905D01*
X74428381Y-41764000D01*
X74466476Y-41802095D01*
X74504571Y-41878286D01*
X74504571Y-42068762D01*
X74466476Y-42144952D01*
X74428381Y-42183048D01*
X74352190Y-42221143D01*
X74199809Y-42221143D01*
X74123619Y-42183048D01*
X74085523Y-42144952D01*
X74047428Y-42068762D01*
X77476286Y-51847714D02*
X77514381Y-51885810D01*
X77628667Y-51923905D01*
X77704857Y-51923905D01*
X77819143Y-51885810D01*
X77895334Y-51809619D01*
X77933429Y-51733429D01*
X77971524Y-51581048D01*
X77971524Y-51466762D01*
X77933429Y-51314381D01*
X77895334Y-51238190D01*
X77819143Y-51162000D01*
X77704857Y-51123905D01*
X77628667Y-51123905D01*
X77514381Y-51162000D01*
X77476286Y-51200095D01*
X76714381Y-51923905D02*
X77171524Y-51923905D01*
X76942953Y-51923905D02*
X76942953Y-51123905D01*
X77019143Y-51238190D01*
X77095334Y-51314381D01*
X77171524Y-51352476D01*
X76219143Y-51123905D02*
X76142952Y-51123905D01*
X76066762Y-51162000D01*
X76028667Y-51200095D01*
X75990571Y-51276286D01*
X75952476Y-51428667D01*
X75952476Y-51619143D01*
X75990571Y-51771524D01*
X76028667Y-51847714D01*
X76066762Y-51885810D01*
X76142952Y-51923905D01*
X76219143Y-51923905D01*
X76295333Y-51885810D01*
X76333429Y-51847714D01*
X76371524Y-51771524D01*
X76409619Y-51619143D01*
X76409619Y-51428667D01*
X76371524Y-51276286D01*
X76333429Y-51200095D01*
X76295333Y-51162000D01*
X76219143Y-51123905D01*
X77730286Y-42449714D02*
X77768381Y-42487810D01*
X77882667Y-42525905D01*
X77958857Y-42525905D01*
X78073143Y-42487810D01*
X78149334Y-42411619D01*
X78187429Y-42335429D01*
X78225524Y-42183048D01*
X78225524Y-42068762D01*
X78187429Y-41916381D01*
X78149334Y-41840190D01*
X78073143Y-41764000D01*
X77958857Y-41725905D01*
X77882667Y-41725905D01*
X77768381Y-41764000D01*
X77730286Y-41802095D01*
X76968381Y-42525905D02*
X77425524Y-42525905D01*
X77196953Y-42525905D02*
X77196953Y-41725905D01*
X77273143Y-41840190D01*
X77349334Y-41916381D01*
X77425524Y-41954476D01*
X76206476Y-42525905D02*
X76663619Y-42525905D01*
X76435048Y-42525905D02*
X76435048Y-41725905D01*
X76511238Y-41840190D01*
X76587429Y-41916381D01*
X76663619Y-41954476D01*
X91573333Y-44926214D02*
X91611428Y-44964310D01*
X91725714Y-45002405D01*
X91801904Y-45002405D01*
X91916190Y-44964310D01*
X91992381Y-44888119D01*
X92030476Y-44811929D01*
X92068571Y-44659548D01*
X92068571Y-44545262D01*
X92030476Y-44392881D01*
X91992381Y-44316690D01*
X91916190Y-44240500D01*
X91801904Y-44202405D01*
X91725714Y-44202405D01*
X91611428Y-44240500D01*
X91573333Y-44278595D01*
X91116190Y-44545262D02*
X91192381Y-44507167D01*
X91230476Y-44469071D01*
X91268571Y-44392881D01*
X91268571Y-44354786D01*
X91230476Y-44278595D01*
X91192381Y-44240500D01*
X91116190Y-44202405D01*
X90963809Y-44202405D01*
X90887619Y-44240500D01*
X90849523Y-44278595D01*
X90811428Y-44354786D01*
X90811428Y-44392881D01*
X90849523Y-44469071D01*
X90887619Y-44507167D01*
X90963809Y-44545262D01*
X91116190Y-44545262D01*
X91192381Y-44583357D01*
X91230476Y-44621452D01*
X91268571Y-44697643D01*
X91268571Y-44850024D01*
X91230476Y-44926214D01*
X91192381Y-44964310D01*
X91116190Y-45002405D01*
X90963809Y-45002405D01*
X90887619Y-44964310D01*
X90849523Y-44926214D01*
X90811428Y-44850024D01*
X90811428Y-44697643D01*
X90849523Y-44621452D01*
X90887619Y-44583357D01*
X90963809Y-44545262D01*
X84334333Y-42906905D02*
X84601000Y-42525952D01*
X84791476Y-42906905D02*
X84791476Y-42106905D01*
X84486714Y-42106905D01*
X84410523Y-42145000D01*
X84372428Y-42183095D01*
X84334333Y-42259286D01*
X84334333Y-42373571D01*
X84372428Y-42449762D01*
X84410523Y-42487857D01*
X84486714Y-42525952D01*
X84791476Y-42525952D01*
X83610523Y-42106905D02*
X83991476Y-42106905D01*
X84029571Y-42487857D01*
X83991476Y-42449762D01*
X83915285Y-42411667D01*
X83724809Y-42411667D01*
X83648619Y-42449762D01*
X83610523Y-42487857D01*
X83572428Y-42564048D01*
X83572428Y-42754524D01*
X83610523Y-42830714D01*
X83648619Y-42868810D01*
X83724809Y-42906905D01*
X83915285Y-42906905D01*
X83991476Y-42868810D01*
X84029571Y-42830714D01*
X84524833Y-46208905D02*
X84791500Y-45827952D01*
X84981976Y-46208905D02*
X84981976Y-45408905D01*
X84677214Y-45408905D01*
X84601023Y-45447000D01*
X84562928Y-45485095D01*
X84524833Y-45561286D01*
X84524833Y-45675571D01*
X84562928Y-45751762D01*
X84601023Y-45789857D01*
X84677214Y-45827952D01*
X84981976Y-45827952D01*
X83839119Y-45408905D02*
X83991500Y-45408905D01*
X84067690Y-45447000D01*
X84105785Y-45485095D01*
X84181976Y-45599381D01*
X84220071Y-45751762D01*
X84220071Y-46056524D01*
X84181976Y-46132714D01*
X84143881Y-46170810D01*
X84067690Y-46208905D01*
X83915309Y-46208905D01*
X83839119Y-46170810D01*
X83801023Y-46132714D01*
X83762928Y-46056524D01*
X83762928Y-45866048D01*
X83801023Y-45789857D01*
X83839119Y-45751762D01*
X83915309Y-45713667D01*
X84067690Y-45713667D01*
X84143881Y-45751762D01*
X84181976Y-45789857D01*
X84220071Y-45866048D01*
X99891786Y-74834714D02*
X99929881Y-74872810D01*
X100044167Y-74910905D01*
X100120357Y-74910905D01*
X100234643Y-74872810D01*
X100310834Y-74796619D01*
X100348929Y-74720429D01*
X100387024Y-74568048D01*
X100387024Y-74453762D01*
X100348929Y-74301381D01*
X100310834Y-74225190D01*
X100234643Y-74149000D01*
X100120357Y-74110905D01*
X100044167Y-74110905D01*
X99929881Y-74149000D01*
X99891786Y-74187095D01*
X99129881Y-74910905D02*
X99587024Y-74910905D01*
X99358453Y-74910905D02*
X99358453Y-74110905D01*
X99434643Y-74225190D01*
X99510834Y-74301381D01*
X99587024Y-74339476D01*
X98406071Y-74110905D02*
X98787024Y-74110905D01*
X98825119Y-74491857D01*
X98787024Y-74453762D01*
X98710833Y-74415667D01*
X98520357Y-74415667D01*
X98444167Y-74453762D01*
X98406071Y-74491857D01*
X98367976Y-74568048D01*
X98367976Y-74758524D01*
X98406071Y-74834714D01*
X98444167Y-74872810D01*
X98520357Y-74910905D01*
X98710833Y-74910905D01*
X98787024Y-74872810D01*
X98825119Y-74834714D01*
X102431786Y-54324214D02*
X102469881Y-54362310D01*
X102584167Y-54400405D01*
X102660357Y-54400405D01*
X102774643Y-54362310D01*
X102850834Y-54286119D01*
X102888929Y-54209929D01*
X102927024Y-54057548D01*
X102927024Y-53943262D01*
X102888929Y-53790881D01*
X102850834Y-53714690D01*
X102774643Y-53638500D01*
X102660357Y-53600405D01*
X102584167Y-53600405D01*
X102469881Y-53638500D01*
X102431786Y-53676595D01*
X101669881Y-54400405D02*
X102127024Y-54400405D01*
X101898453Y-54400405D02*
X101898453Y-53600405D01*
X101974643Y-53714690D01*
X102050834Y-53790881D01*
X102127024Y-53828976D01*
X100984167Y-53600405D02*
X101136548Y-53600405D01*
X101212738Y-53638500D01*
X101250833Y-53676595D01*
X101327024Y-53790881D01*
X101365119Y-53943262D01*
X101365119Y-54248024D01*
X101327024Y-54324214D01*
X101288929Y-54362310D01*
X101212738Y-54400405D01*
X101060357Y-54400405D01*
X100984167Y-54362310D01*
X100946071Y-54324214D01*
X100907976Y-54248024D01*
X100907976Y-54057548D01*
X100946071Y-53981357D01*
X100984167Y-53943262D01*
X101060357Y-53905167D01*
X101212738Y-53905167D01*
X101288929Y-53943262D01*
X101327024Y-53981357D01*
X101365119Y-54057548D01*
X126688786Y-39719214D02*
X126726881Y-39757310D01*
X126841167Y-39795405D01*
X126917357Y-39795405D01*
X127031643Y-39757310D01*
X127107834Y-39681119D01*
X127145929Y-39604929D01*
X127184024Y-39452548D01*
X127184024Y-39338262D01*
X127145929Y-39185881D01*
X127107834Y-39109690D01*
X127031643Y-39033500D01*
X126917357Y-38995405D01*
X126841167Y-38995405D01*
X126726881Y-39033500D01*
X126688786Y-39071595D01*
X125926881Y-39795405D02*
X126384024Y-39795405D01*
X126155453Y-39795405D02*
X126155453Y-38995405D01*
X126231643Y-39109690D01*
X126307834Y-39185881D01*
X126384024Y-39223976D01*
X125469738Y-39338262D02*
X125545929Y-39300167D01*
X125584024Y-39262071D01*
X125622119Y-39185881D01*
X125622119Y-39147786D01*
X125584024Y-39071595D01*
X125545929Y-39033500D01*
X125469738Y-38995405D01*
X125317357Y-38995405D01*
X125241167Y-39033500D01*
X125203071Y-39071595D01*
X125164976Y-39147786D01*
X125164976Y-39185881D01*
X125203071Y-39262071D01*
X125241167Y-39300167D01*
X125317357Y-39338262D01*
X125469738Y-39338262D01*
X125545929Y-39376357D01*
X125584024Y-39414452D01*
X125622119Y-39490643D01*
X125622119Y-39643024D01*
X125584024Y-39719214D01*
X125545929Y-39757310D01*
X125469738Y-39795405D01*
X125317357Y-39795405D01*
X125241167Y-39757310D01*
X125203071Y-39719214D01*
X125164976Y-39643024D01*
X125164976Y-39490643D01*
X125203071Y-39414452D01*
X125241167Y-39376357D01*
X125317357Y-39338262D01*
X79000286Y-69437214D02*
X79038381Y-69475310D01*
X79152667Y-69513405D01*
X79228857Y-69513405D01*
X79343143Y-69475310D01*
X79419334Y-69399119D01*
X79457429Y-69322929D01*
X79495524Y-69170548D01*
X79495524Y-69056262D01*
X79457429Y-68903881D01*
X79419334Y-68827690D01*
X79343143Y-68751500D01*
X79228857Y-68713405D01*
X79152667Y-68713405D01*
X79038381Y-68751500D01*
X79000286Y-68789595D01*
X78238381Y-69513405D02*
X78695524Y-69513405D01*
X78466953Y-69513405D02*
X78466953Y-68713405D01*
X78543143Y-68827690D01*
X78619334Y-68903881D01*
X78695524Y-68941976D01*
X77857429Y-69513405D02*
X77705048Y-69513405D01*
X77628857Y-69475310D01*
X77590762Y-69437214D01*
X77514571Y-69322929D01*
X77476476Y-69170548D01*
X77476476Y-68865786D01*
X77514571Y-68789595D01*
X77552667Y-68751500D01*
X77628857Y-68713405D01*
X77781238Y-68713405D01*
X77857429Y-68751500D01*
X77895524Y-68789595D01*
X77933619Y-68865786D01*
X77933619Y-69056262D01*
X77895524Y-69132452D01*
X77857429Y-69170548D01*
X77781238Y-69208643D01*
X77628857Y-69208643D01*
X77552667Y-69170548D01*
X77514571Y-69132452D01*
X77476476Y-69056262D01*
X45027786Y-34321714D02*
X45065881Y-34359810D01*
X45180167Y-34397905D01*
X45256357Y-34397905D01*
X45370643Y-34359810D01*
X45446834Y-34283619D01*
X45484929Y-34207429D01*
X45523024Y-34055048D01*
X45523024Y-33940762D01*
X45484929Y-33788381D01*
X45446834Y-33712190D01*
X45370643Y-33636000D01*
X45256357Y-33597905D01*
X45180167Y-33597905D01*
X45065881Y-33636000D01*
X45027786Y-33674095D01*
X44723024Y-33674095D02*
X44684929Y-33636000D01*
X44608738Y-33597905D01*
X44418262Y-33597905D01*
X44342072Y-33636000D01*
X44303976Y-33674095D01*
X44265881Y-33750286D01*
X44265881Y-33826476D01*
X44303976Y-33940762D01*
X44761119Y-34397905D01*
X44265881Y-34397905D01*
X43770643Y-33597905D02*
X43694452Y-33597905D01*
X43618262Y-33636000D01*
X43580167Y-33674095D01*
X43542071Y-33750286D01*
X43503976Y-33902667D01*
X43503976Y-34093143D01*
X43542071Y-34245524D01*
X43580167Y-34321714D01*
X43618262Y-34359810D01*
X43694452Y-34397905D01*
X43770643Y-34397905D01*
X43846833Y-34359810D01*
X43884929Y-34321714D01*
X43923024Y-34245524D01*
X43961119Y-34093143D01*
X43961119Y-33902667D01*
X43923024Y-33750286D01*
X43884929Y-33674095D01*
X43846833Y-33636000D01*
X43770643Y-33597905D01*
X149802786Y-34321714D02*
X149840881Y-34359810D01*
X149955167Y-34397905D01*
X150031357Y-34397905D01*
X150145643Y-34359810D01*
X150221834Y-34283619D01*
X150259929Y-34207429D01*
X150298024Y-34055048D01*
X150298024Y-33940762D01*
X150259929Y-33788381D01*
X150221834Y-33712190D01*
X150145643Y-33636000D01*
X150031357Y-33597905D01*
X149955167Y-33597905D01*
X149840881Y-33636000D01*
X149802786Y-33674095D01*
X149498024Y-33674095D02*
X149459929Y-33636000D01*
X149383738Y-33597905D01*
X149193262Y-33597905D01*
X149117072Y-33636000D01*
X149078976Y-33674095D01*
X149040881Y-33750286D01*
X149040881Y-33826476D01*
X149078976Y-33940762D01*
X149536119Y-34397905D01*
X149040881Y-34397905D01*
X148278976Y-34397905D02*
X148736119Y-34397905D01*
X148507548Y-34397905D02*
X148507548Y-33597905D01*
X148583738Y-33712190D01*
X148659929Y-33788381D01*
X148736119Y-33826476D01*
X60140786Y-74834714D02*
X60178881Y-74872810D01*
X60293167Y-74910905D01*
X60369357Y-74910905D01*
X60483643Y-74872810D01*
X60559834Y-74796619D01*
X60597929Y-74720429D01*
X60636024Y-74568048D01*
X60636024Y-74453762D01*
X60597929Y-74301381D01*
X60559834Y-74225190D01*
X60483643Y-74149000D01*
X60369357Y-74110905D01*
X60293167Y-74110905D01*
X60178881Y-74149000D01*
X60140786Y-74187095D01*
X59836024Y-74187095D02*
X59797929Y-74149000D01*
X59721738Y-74110905D01*
X59531262Y-74110905D01*
X59455072Y-74149000D01*
X59416976Y-74187095D01*
X59378881Y-74263286D01*
X59378881Y-74339476D01*
X59416976Y-74453762D01*
X59874119Y-74910905D01*
X59378881Y-74910905D01*
X59074119Y-74187095D02*
X59036024Y-74149000D01*
X58959833Y-74110905D01*
X58769357Y-74110905D01*
X58693167Y-74149000D01*
X58655071Y-74187095D01*
X58616976Y-74263286D01*
X58616976Y-74339476D01*
X58655071Y-74453762D01*
X59112214Y-74910905D01*
X58616976Y-74910905D01*
X134816786Y-68103714D02*
X134854881Y-68141810D01*
X134969167Y-68179905D01*
X135045357Y-68179905D01*
X135159643Y-68141810D01*
X135235834Y-68065619D01*
X135273929Y-67989429D01*
X135312024Y-67837048D01*
X135312024Y-67722762D01*
X135273929Y-67570381D01*
X135235834Y-67494190D01*
X135159643Y-67418000D01*
X135045357Y-67379905D01*
X134969167Y-67379905D01*
X134854881Y-67418000D01*
X134816786Y-67456095D01*
X134512024Y-67456095D02*
X134473929Y-67418000D01*
X134397738Y-67379905D01*
X134207262Y-67379905D01*
X134131072Y-67418000D01*
X134092976Y-67456095D01*
X134054881Y-67532286D01*
X134054881Y-67608476D01*
X134092976Y-67722762D01*
X134550119Y-68179905D01*
X134054881Y-68179905D01*
X133369167Y-67646571D02*
X133369167Y-68179905D01*
X133559643Y-67341810D02*
X133750119Y-67913238D01*
X133254881Y-67913238D01*
X57283286Y-38639714D02*
X57321381Y-38677810D01*
X57435667Y-38715905D01*
X57511857Y-38715905D01*
X57626143Y-38677810D01*
X57702334Y-38601619D01*
X57740429Y-38525429D01*
X57778524Y-38373048D01*
X57778524Y-38258762D01*
X57740429Y-38106381D01*
X57702334Y-38030190D01*
X57626143Y-37954000D01*
X57511857Y-37915905D01*
X57435667Y-37915905D01*
X57321381Y-37954000D01*
X57283286Y-37992095D01*
X56978524Y-37992095D02*
X56940429Y-37954000D01*
X56864238Y-37915905D01*
X56673762Y-37915905D01*
X56597572Y-37954000D01*
X56559476Y-37992095D01*
X56521381Y-38068286D01*
X56521381Y-38144476D01*
X56559476Y-38258762D01*
X57016619Y-38715905D01*
X56521381Y-38715905D01*
X55797571Y-37915905D02*
X56178524Y-37915905D01*
X56216619Y-38296857D01*
X56178524Y-38258762D01*
X56102333Y-38220667D01*
X55911857Y-38220667D01*
X55835667Y-38258762D01*
X55797571Y-38296857D01*
X55759476Y-38373048D01*
X55759476Y-38563524D01*
X55797571Y-38639714D01*
X55835667Y-38677810D01*
X55911857Y-38715905D01*
X56102333Y-38715905D01*
X56178524Y-38677810D01*
X56216619Y-38639714D01*
X40328786Y-75977714D02*
X40366881Y-76015810D01*
X40481167Y-76053905D01*
X40557357Y-76053905D01*
X40671643Y-76015810D01*
X40747834Y-75939619D01*
X40785929Y-75863429D01*
X40824024Y-75711048D01*
X40824024Y-75596762D01*
X40785929Y-75444381D01*
X40747834Y-75368190D01*
X40671643Y-75292000D01*
X40557357Y-75253905D01*
X40481167Y-75253905D01*
X40366881Y-75292000D01*
X40328786Y-75330095D01*
X40024024Y-75330095D02*
X39985929Y-75292000D01*
X39909738Y-75253905D01*
X39719262Y-75253905D01*
X39643072Y-75292000D01*
X39604976Y-75330095D01*
X39566881Y-75406286D01*
X39566881Y-75482476D01*
X39604976Y-75596762D01*
X40062119Y-76053905D01*
X39566881Y-76053905D01*
X38881167Y-75253905D02*
X39033548Y-75253905D01*
X39109738Y-75292000D01*
X39147833Y-75330095D01*
X39224024Y-75444381D01*
X39262119Y-75596762D01*
X39262119Y-75901524D01*
X39224024Y-75977714D01*
X39185929Y-76015810D01*
X39109738Y-76053905D01*
X38957357Y-76053905D01*
X38881167Y-76015810D01*
X38843071Y-75977714D01*
X38804976Y-75901524D01*
X38804976Y-75711048D01*
X38843071Y-75634857D01*
X38881167Y-75596762D01*
X38957357Y-75558667D01*
X39109738Y-75558667D01*
X39185929Y-75596762D01*
X39224024Y-75634857D01*
X39262119Y-75711048D01*
X68402190Y-74161595D02*
X68478381Y-74123500D01*
X68554571Y-74047310D01*
X68668857Y-73933024D01*
X68745048Y-73894929D01*
X68821238Y-73894929D01*
X68783143Y-74085405D02*
X68859333Y-74047310D01*
X68935524Y-73971119D01*
X68973619Y-73818738D01*
X68973619Y-73552071D01*
X68935524Y-73399690D01*
X68859333Y-73323500D01*
X68783143Y-73285405D01*
X68630762Y-73285405D01*
X68554571Y-73323500D01*
X68478381Y-73399690D01*
X68440286Y-73552071D01*
X68440286Y-73818738D01*
X68478381Y-73971119D01*
X68554571Y-74047310D01*
X68630762Y-74085405D01*
X68783143Y-74085405D01*
X67678381Y-74085405D02*
X68135524Y-74085405D01*
X67906953Y-74085405D02*
X67906953Y-73285405D01*
X67983143Y-73399690D01*
X68059334Y-73475881D01*
X68135524Y-73513976D01*
X59188286Y-56673714D02*
X59226381Y-56711810D01*
X59340667Y-56749905D01*
X59416857Y-56749905D01*
X59531143Y-56711810D01*
X59607334Y-56635619D01*
X59645429Y-56559429D01*
X59683524Y-56407048D01*
X59683524Y-56292762D01*
X59645429Y-56140381D01*
X59607334Y-56064190D01*
X59531143Y-55988000D01*
X59416857Y-55949905D01*
X59340667Y-55949905D01*
X59226381Y-55988000D01*
X59188286Y-56026095D01*
X58426381Y-56749905D02*
X58883524Y-56749905D01*
X58654953Y-56749905D02*
X58654953Y-55949905D01*
X58731143Y-56064190D01*
X58807334Y-56140381D01*
X58883524Y-56178476D01*
X58159714Y-55949905D02*
X57626381Y-55949905D01*
X57969238Y-56749905D01*
X43694333Y-44684905D02*
X43961000Y-44303952D01*
X44151476Y-44684905D02*
X44151476Y-43884905D01*
X43846714Y-43884905D01*
X43770523Y-43923000D01*
X43732428Y-43961095D01*
X43694333Y-44037286D01*
X43694333Y-44151571D01*
X43732428Y-44227762D01*
X43770523Y-44265857D01*
X43846714Y-44303952D01*
X44151476Y-44303952D01*
X43389571Y-43961095D02*
X43351476Y-43923000D01*
X43275285Y-43884905D01*
X43084809Y-43884905D01*
X43008619Y-43923000D01*
X42970523Y-43961095D01*
X42932428Y-44037286D01*
X42932428Y-44113476D01*
X42970523Y-44227762D01*
X43427666Y-44684905D01*
X42932428Y-44684905D01*
X47186833Y-50780905D02*
X47453500Y-50399952D01*
X47643976Y-50780905D02*
X47643976Y-49980905D01*
X47339214Y-49980905D01*
X47263023Y-50019000D01*
X47224928Y-50057095D01*
X47186833Y-50133286D01*
X47186833Y-50247571D01*
X47224928Y-50323762D01*
X47263023Y-50361857D01*
X47339214Y-50399952D01*
X47643976Y-50399952D01*
X46920166Y-49980905D02*
X46424928Y-49980905D01*
X46691595Y-50285667D01*
X46577309Y-50285667D01*
X46501119Y-50323762D01*
X46463023Y-50361857D01*
X46424928Y-50438048D01*
X46424928Y-50628524D01*
X46463023Y-50704714D01*
X46501119Y-50742810D01*
X46577309Y-50780905D01*
X46805881Y-50780905D01*
X46882071Y-50742810D01*
X46920166Y-50704714D01*
D10*
X109353286Y-54387714D02*
X109391381Y-54425810D01*
X109505667Y-54463905D01*
X109581857Y-54463905D01*
X109696143Y-54425810D01*
X109772334Y-54349619D01*
X109810429Y-54273429D01*
X109848524Y-54121048D01*
X109848524Y-54006762D01*
X109810429Y-53854381D01*
X109772334Y-53778190D01*
X109696143Y-53702000D01*
X109581857Y-53663905D01*
X109505667Y-53663905D01*
X109391381Y-53702000D01*
X109353286Y-53740095D01*
X109048524Y-53740095D02*
X109010429Y-53702000D01*
X108934238Y-53663905D01*
X108743762Y-53663905D01*
X108667572Y-53702000D01*
X108629476Y-53740095D01*
X108591381Y-53816286D01*
X108591381Y-53892476D01*
X108629476Y-54006762D01*
X109086619Y-54463905D01*
X108591381Y-54463905D01*
X108324714Y-53663905D02*
X107829476Y-53663905D01*
X108096143Y-53968667D01*
X107981857Y-53968667D01*
X107905667Y-54006762D01*
X107867571Y-54044857D01*
X107829476Y-54121048D01*
X107829476Y-54311524D01*
X107867571Y-54387714D01*
X107905667Y-54425810D01*
X107981857Y-54463905D01*
X108210429Y-54463905D01*
X108286619Y-54425810D01*
X108324714Y-54387714D01*
X78619286Y-64801714D02*
X78657381Y-64839810D01*
X78771667Y-64877905D01*
X78847857Y-64877905D01*
X78962143Y-64839810D01*
X79038334Y-64763619D01*
X79076429Y-64687429D01*
X79114524Y-64535048D01*
X79114524Y-64420762D01*
X79076429Y-64268381D01*
X79038334Y-64192190D01*
X78962143Y-64116000D01*
X78847857Y-64077905D01*
X78771667Y-64077905D01*
X78657381Y-64116000D01*
X78619286Y-64154095D01*
X78314524Y-64154095D02*
X78276429Y-64116000D01*
X78200238Y-64077905D01*
X78009762Y-64077905D01*
X77933572Y-64116000D01*
X77895476Y-64154095D01*
X77857381Y-64230286D01*
X77857381Y-64306476D01*
X77895476Y-64420762D01*
X78352619Y-64877905D01*
X77857381Y-64877905D01*
X77400238Y-64420762D02*
X77476429Y-64382667D01*
X77514524Y-64344571D01*
X77552619Y-64268381D01*
X77552619Y-64230286D01*
X77514524Y-64154095D01*
X77476429Y-64116000D01*
X77400238Y-64077905D01*
X77247857Y-64077905D01*
X77171667Y-64116000D01*
X77133571Y-64154095D01*
X77095476Y-64230286D01*
X77095476Y-64268381D01*
X77133571Y-64344571D01*
X77171667Y-64382667D01*
X77247857Y-64420762D01*
X77400238Y-64420762D01*
X77476429Y-64458857D01*
X77514524Y-64496952D01*
X77552619Y-64573143D01*
X77552619Y-64725524D01*
X77514524Y-64801714D01*
X77476429Y-64839810D01*
X77400238Y-64877905D01*
X77247857Y-64877905D01*
X77171667Y-64839810D01*
X77133571Y-64801714D01*
X77095476Y-64725524D01*
X77095476Y-64573143D01*
X77133571Y-64496952D01*
X77171667Y-64458857D01*
X77247857Y-64420762D01*
D13*
X63118166Y-74065405D02*
X63118166Y-74636833D01*
X63156262Y-74751119D01*
X63232452Y-74827310D01*
X63346738Y-74865405D01*
X63422928Y-74865405D01*
X62737214Y-74865405D02*
X62737214Y-74065405D01*
X62432452Y-74065405D01*
X62356261Y-74103500D01*
X62318166Y-74141595D01*
X62280071Y-74217786D01*
X62280071Y-74332071D01*
X62318166Y-74408262D01*
X62356261Y-74446357D01*
X62432452Y-74484452D01*
X62737214Y-74484452D01*
X61518166Y-74865405D02*
X61975309Y-74865405D01*
X61746738Y-74865405D02*
X61746738Y-74065405D01*
X61822928Y-74179690D01*
X61899119Y-74255881D01*
X61975309Y-74293976D01*
%LPC*%
D15*
X154750370Y-38793577D02*
X152653350Y-38128363D01*
X152494966Y-38627653D01*
X152499794Y-38958904D01*
X152636156Y-39221974D01*
X152804196Y-39385185D01*
X153171951Y-39611751D01*
X153471525Y-39706781D01*
X153902635Y-39733630D01*
X154134027Y-39697127D01*
X154397097Y-39560764D01*
X154591986Y-39292867D01*
X154750370Y-38793577D01*
X153731883Y-41657784D02*
X153895095Y-41489744D01*
X154021803Y-41090312D01*
X153985298Y-40858919D01*
X153817258Y-40695707D01*
X153018394Y-40442293D01*
X152787001Y-40478797D01*
X152623789Y-40646836D01*
X152497082Y-41046268D01*
X152533586Y-41277661D01*
X152701626Y-41440873D01*
X152901342Y-41504227D01*
X153417827Y-40569000D01*
X153446792Y-42556506D02*
X153483296Y-42787898D01*
X153356589Y-43187331D01*
X153193377Y-43355370D01*
X152961984Y-43391875D01*
X152862126Y-43360198D01*
X152694087Y-43196986D01*
X152657583Y-42965593D01*
X152752613Y-42666019D01*
X152716109Y-42434626D01*
X152548069Y-42271415D01*
X152448211Y-42239738D01*
X152216818Y-42276242D01*
X152053606Y-42444281D01*
X151958576Y-42743855D01*
X151995080Y-42975248D01*
X152976467Y-44385628D02*
X151578453Y-43942152D01*
X150879447Y-43720414D02*
X151010982Y-43652233D01*
X151079163Y-43783768D01*
X150947629Y-43851948D01*
X150879447Y-43720414D01*
X151079163Y-43783768D01*
X150976593Y-45839455D02*
X152674181Y-46377962D01*
X152905574Y-46341457D01*
X153037109Y-46273276D01*
X153200320Y-46105236D01*
X153295351Y-45805662D01*
X153258847Y-45574270D01*
X152274748Y-46251254D02*
X152437960Y-46083215D01*
X152564668Y-45683782D01*
X152528163Y-45452389D01*
X152459982Y-45320855D01*
X152291942Y-45157643D01*
X151692794Y-44967582D01*
X151461401Y-45004086D01*
X151329866Y-45072267D01*
X151166655Y-45240306D01*
X151039947Y-45639739D01*
X151076451Y-45871132D01*
X150659825Y-46838036D02*
X152057838Y-47281512D01*
X150859541Y-46901390D02*
X150728006Y-46969570D01*
X150564795Y-47137609D01*
X150469764Y-47437184D01*
X150506268Y-47668577D01*
X150674308Y-47831789D01*
X151772747Y-48180234D01*
X151102705Y-49946002D02*
X151265917Y-49777963D01*
X151392625Y-49378530D01*
X151356120Y-49147138D01*
X151188081Y-48983926D01*
X150389216Y-48730511D01*
X150157823Y-48767016D01*
X149994611Y-48935054D01*
X149867904Y-49334487D01*
X149904408Y-49565880D01*
X150072448Y-49729092D01*
X150272164Y-49792446D01*
X150788649Y-48857219D01*
X150600703Y-51874982D02*
X148503684Y-51209769D01*
X150500845Y-51843306D02*
X150664057Y-51675266D01*
X150790765Y-51275833D01*
X150754260Y-51044440D01*
X150686079Y-50912906D01*
X150518039Y-50749694D01*
X149918891Y-50559633D01*
X149687498Y-50596138D01*
X149555963Y-50664318D01*
X149392751Y-50832358D01*
X149266044Y-51231790D01*
X149302548Y-51463183D01*
X148456929Y-54821853D02*
X148461757Y-55153104D01*
X148529938Y-55284638D01*
X148697978Y-55447850D01*
X148997551Y-55542880D01*
X149228944Y-55506376D01*
X149360479Y-55438196D01*
X149523691Y-55270156D01*
X149777106Y-54471292D01*
X147680086Y-53806078D01*
X147458348Y-54505084D01*
X147494853Y-54736477D01*
X147563034Y-54868012D01*
X147731074Y-55031223D01*
X147930790Y-55094577D01*
X148162182Y-55058073D01*
X148293717Y-54989892D01*
X148456929Y-54821853D01*
X148678667Y-54122846D01*
X147777232Y-55925119D02*
X149016862Y-56867885D01*
X147460464Y-56923700D02*
X149016862Y-56867885D01*
X149579506Y-56826553D01*
X149711041Y-56758372D01*
X149874252Y-56590333D01*
X146687854Y-60745154D02*
X146619672Y-60613619D01*
X146583168Y-60382227D01*
X146646521Y-60182511D01*
X146809733Y-60014471D01*
X146941268Y-59946290D01*
X147172662Y-59909786D01*
X147372378Y-59973139D01*
X147540416Y-60136351D01*
X147608598Y-60267886D01*
X147645102Y-60499279D01*
X147581748Y-60698995D01*
X147418537Y-60867034D01*
X147287002Y-60935215D01*
X146488137Y-60681801D02*
X147287002Y-60935215D01*
X147355183Y-61066750D01*
X147323506Y-61166608D01*
X147160294Y-61334648D01*
X146928902Y-61371153D01*
X146429611Y-61212768D01*
X146193390Y-60918021D01*
X146088706Y-60555093D01*
X146115555Y-60123985D01*
X146342120Y-59756229D01*
X146636866Y-59520008D01*
X146999794Y-59415323D01*
X147430904Y-59442173D01*
X147798659Y-59668738D01*
X148034880Y-59963484D01*
X148139565Y-60326412D01*
X148112716Y-60757522D01*
X147886151Y-61125276D01*
X147591404Y-61361497D01*
X147242958Y-62459936D02*
X145145939Y-61794722D01*
X146422073Y-62968881D01*
X144702463Y-63192735D01*
X146799483Y-63857948D01*
X146197622Y-65755252D02*
X145099184Y-65406807D01*
X144931144Y-65243595D01*
X144894640Y-65012202D01*
X145021347Y-64612769D01*
X145184559Y-64444731D01*
X146097764Y-65723576D02*
X146260976Y-65555536D01*
X146419361Y-65056245D01*
X146382856Y-64824853D01*
X146214816Y-64661641D01*
X146015101Y-64598288D01*
X145783708Y-64634792D01*
X145620496Y-64802831D01*
X145462112Y-65302121D01*
X145298900Y-65470161D01*
X144577871Y-66010783D02*
X144324457Y-66809647D01*
X143783835Y-66088619D02*
X145581280Y-66658802D01*
X145749319Y-66822013D01*
X145785824Y-67053407D01*
X145722470Y-67253123D01*
X145500732Y-67952130D02*
X144102719Y-67508654D01*
X143403712Y-67286916D02*
X143535247Y-67218735D01*
X143603429Y-67350270D01*
X143471894Y-67418450D01*
X143403712Y-67286916D01*
X143603429Y-67350270D01*
X145183963Y-68950711D02*
X143785950Y-68507235D01*
X144185383Y-68633942D02*
X143953990Y-68670446D01*
X143822455Y-68738627D01*
X143659243Y-68906666D01*
X143595889Y-69106383D01*
D16*
X62801500Y-72428100D02*
X62801500Y-72478900D01*
D17*
X61445000Y-65262500D03*
X61445000Y-62337500D03*
X61945000Y-65262500D03*
X61945000Y-62337500D03*
X62445000Y-65262500D03*
X62445000Y-62337500D03*
X62945000Y-65262500D03*
X62945000Y-62337500D03*
X63445000Y-65262500D03*
X63445000Y-62337500D03*
D18*
X62445000Y-63800000D03*
D19*
X69781000Y-49970000D03*
X68981000Y-49970000D03*
X68181000Y-49970000D03*
X67381000Y-49970000D03*
X66581000Y-49970000D03*
X65781000Y-49970000D03*
X64981000Y-49970000D03*
X64181000Y-49970000D03*
D20*
X62731000Y-48520000D03*
X62731000Y-47720000D03*
X62731000Y-46920000D03*
X62731000Y-46120000D03*
X62731000Y-45320000D03*
X62731000Y-44520000D03*
X62731000Y-43720000D03*
X62731000Y-42920000D03*
D19*
X64181000Y-41470000D03*
X64981000Y-41470000D03*
X65781000Y-41470000D03*
X66581000Y-41470000D03*
X67381000Y-41470000D03*
X68181000Y-41470000D03*
X68981000Y-41470000D03*
X69781000Y-41470000D03*
D20*
X71231000Y-42920000D03*
X71231000Y-43720000D03*
X71231000Y-44520000D03*
X71231000Y-45320000D03*
X71231000Y-46120000D03*
X71231000Y-46920000D03*
X71231000Y-47720000D03*
X71231000Y-48520000D03*
D21*
X73009000Y-63265000D03*
X71009000Y-63265000D03*
D22*
X75409000Y-68815000D03*
X68609000Y-68815000D03*
D23*
X79184000Y-55837000D03*
X78234000Y-55837000D03*
X77284000Y-55837000D03*
X77284000Y-53637000D03*
X79184000Y-53637000D03*
D24*
X53848000Y-48768000D03*
X52578000Y-48768000D03*
X51308000Y-48768000D03*
X50038000Y-48768000D03*
X48768000Y-48768000D03*
X47498000Y-48768000D03*
X46228000Y-48768000D03*
X46228000Y-42418000D03*
X47498000Y-42418000D03*
X50038000Y-42418000D03*
X51308000Y-42418000D03*
X52578000Y-42418000D03*
X53848000Y-42418000D03*
X48768000Y-42418000D03*
D25*
X81534000Y-53848000D03*
X105473500Y-55435500D03*
D26*
X69223500Y-53276500D03*
X71723500Y-53276500D03*
D27*
X57875000Y-66125000D03*
X57875000Y-61625000D03*
D28*
X93526000Y-35728000D03*
X89626000Y-35728000D03*
X93526000Y-36998000D03*
X89626000Y-36998000D03*
X93526000Y-38268000D03*
X89626000Y-38268000D03*
X93526000Y-39538000D03*
X89626000Y-39538000D03*
X93526000Y-40808000D03*
X89626000Y-40808000D03*
D29*
X77100000Y-36250000D03*
X83900000Y-36250000D03*
X83900000Y-40250000D03*
X77100000Y-40250000D03*
X105825500Y-40163500D03*
X99025500Y-40163500D03*
X99025500Y-36163500D03*
X105825500Y-36163500D03*
X118589000Y-40036500D03*
X111789000Y-40036500D03*
X111789000Y-36036500D03*
X118589000Y-36036500D03*
D30*
X68221000Y-37211000D03*
X68871000Y-37211000D03*
X69521000Y-37211000D03*
X70171000Y-37211000D03*
X70821000Y-37211000D03*
D31*
X66421000Y-37061000D03*
X72621000Y-37061000D03*
D32*
X68371000Y-34536000D03*
X70671000Y-34536000D03*
X73321000Y-34536000D03*
X65721000Y-34536000D03*
D33*
X135000000Y-38000000D03*
X52250000Y-38000000D03*
D34*
X59720480Y-35369500D03*
X61818520Y-35369500D03*
D35*
X69215000Y-55765000D03*
X69215000Y-57265000D03*
X71628000Y-55765000D03*
X71628000Y-57265000D03*
D36*
X80155000Y-58420000D03*
X82155000Y-58420000D03*
D37*
X75186000Y-53737000D03*
X75186000Y-55737000D03*
D36*
X80155000Y-50927000D03*
X82155000Y-50927000D03*
X62341000Y-68199000D03*
X60341000Y-68199000D03*
D37*
X65747000Y-64800000D03*
X65747000Y-62800000D03*
D36*
X63643000Y-56261000D03*
X65643000Y-56261000D03*
X63643000Y-58293000D03*
X65643000Y-58293000D03*
X63643000Y-60325000D03*
X65643000Y-60325000D03*
D38*
X59753500Y-37150000D03*
X59753500Y-39050000D03*
D37*
X60388500Y-49419000D03*
X60388500Y-51419000D03*
X74739500Y-45513500D03*
X74739500Y-43513500D03*
X77025500Y-48212500D03*
X77025500Y-50212500D03*
X77025500Y-45513500D03*
X77025500Y-43513500D03*
D36*
X90440000Y-43053000D03*
X92440000Y-43053000D03*
D39*
X82738000Y-43243500D03*
X80838000Y-43243500D03*
X80800000Y-46500000D03*
X82700000Y-46500000D03*
D36*
X100377500Y-76200000D03*
X98377500Y-76200000D03*
D37*
X101986000Y-55896000D03*
X101986000Y-57896000D03*
D36*
X125174500Y-37846000D03*
X127174500Y-37846000D03*
D37*
X78105000Y-72628000D03*
X78105000Y-70628000D03*
X44513500Y-37576000D03*
X44513500Y-35576000D03*
D36*
X150288500Y-35814000D03*
X148288500Y-35814000D03*
X60563000Y-76073000D03*
X58563000Y-76073000D03*
D37*
X134239000Y-71421500D03*
X134239000Y-69421500D03*
X56642000Y-41767000D03*
X56642000Y-39767000D03*
D36*
X38751000Y-74104500D03*
X40751000Y-74104500D03*
D40*
X66659000Y-71503500D03*
X66659000Y-73403500D03*
X64659000Y-72453500D03*
D36*
X59674000Y-58039000D03*
X57674000Y-58039000D03*
D38*
X43561000Y-47432000D03*
X43561000Y-45532000D03*
D39*
X48067000Y-52070000D03*
X46167000Y-52070000D03*
D37*
X108712000Y-55769000D03*
X108712000Y-57769000D03*
X77978000Y-61103000D03*
X77978000Y-63103000D03*
D41*
X63512700Y-72453500D03*
X62090300Y-72453500D03*
D10*
G36*
X63195200Y-71996301D02*
X63195200Y-72910699D01*
X62738000Y-72453501D01*
X62738000Y-72453499D01*
X63195200Y-71996301D01*
X63195200Y-71996301D01*
G37*
G36*
X62674499Y-72072500D02*
X62420501Y-72326500D01*
X62420499Y-72326500D01*
X62166501Y-72072500D01*
X62674499Y-72072500D01*
X62674499Y-72072500D01*
G37*
G36*
X62420501Y-72580500D02*
X62674499Y-72834500D01*
X62166501Y-72834500D01*
X62420499Y-72580500D01*
X62420501Y-72580500D01*
X62420501Y-72580500D01*
G37*
M02*
