G04 #@! TF.FileFunction,Soldermask,Bot*
%FSLAX46Y46*%
G04 Gerber Fmt 4.6, Leading zero omitted, Abs format (unit mm)*
G04 Created by KiCad (PCBNEW 4.0.5+dfsg1-4) date Thu Jun  1 00:26:48 2017*
%MOMM*%
%LPD*%
G01*
G04 APERTURE LIST*
%ADD10C,0.100000*%
G04 APERTURE END LIST*
D10*
G36*
X73317559Y-76466348D02*
X73620347Y-76528502D01*
X73905310Y-76648289D01*
X74161572Y-76821140D01*
X74379380Y-77040474D01*
X74550436Y-77297936D01*
X74668229Y-77583721D01*
X74728199Y-77886596D01*
X74728268Y-77886946D01*
X74723338Y-78240006D01*
X74723261Y-78240344D01*
X74723261Y-78240353D01*
X74654856Y-78541437D01*
X74529132Y-78823818D01*
X74350950Y-79076406D01*
X74127102Y-79289574D01*
X73866113Y-79455203D01*
X73577920Y-79566985D01*
X73273512Y-79620661D01*
X72964469Y-79614187D01*
X72662569Y-79547810D01*
X72379312Y-79424058D01*
X72125494Y-79247650D01*
X71910764Y-79025290D01*
X71743318Y-78765465D01*
X71629525Y-78478058D01*
X71573727Y-78174034D01*
X71578042Y-77864954D01*
X71642310Y-77562597D01*
X71764080Y-77278485D01*
X71938717Y-77023435D01*
X72159566Y-76807163D01*
X72418219Y-76637906D01*
X72704821Y-76522110D01*
X73008451Y-76464190D01*
X73317559Y-76466348D01*
X73317559Y-76466348D01*
G37*
G36*
X101453700Y-76901200D02*
X99801300Y-76901200D01*
X99801300Y-75498800D01*
X101453700Y-75498800D01*
X101453700Y-76901200D01*
X101453700Y-76901200D01*
G37*
G36*
X98953700Y-76901200D02*
X97301300Y-76901200D01*
X97301300Y-75498800D01*
X98953700Y-75498800D01*
X98953700Y-76901200D01*
X98953700Y-76901200D01*
G37*
G36*
X61639200Y-76774200D02*
X59986800Y-76774200D01*
X59986800Y-75371800D01*
X61639200Y-75371800D01*
X61639200Y-76774200D01*
X61639200Y-76774200D01*
G37*
G36*
X59139200Y-76774200D02*
X57486800Y-76774200D01*
X57486800Y-75371800D01*
X59139200Y-75371800D01*
X59139200Y-76774200D01*
X59139200Y-76774200D01*
G37*
G36*
X39327200Y-74805700D02*
X37674800Y-74805700D01*
X37674800Y-73403300D01*
X39327200Y-73403300D01*
X39327200Y-74805700D01*
X39327200Y-74805700D01*
G37*
G36*
X41827200Y-74805700D02*
X40174800Y-74805700D01*
X40174800Y-73403300D01*
X41827200Y-73403300D01*
X41827200Y-74805700D01*
X41827200Y-74805700D01*
G37*
G36*
X78806200Y-73704200D02*
X77403800Y-73704200D01*
X77403800Y-72051800D01*
X78806200Y-72051800D01*
X78806200Y-73704200D01*
X78806200Y-73704200D01*
G37*
G36*
X134940200Y-72497700D02*
X133537800Y-72497700D01*
X133537800Y-70845300D01*
X134940200Y-70845300D01*
X134940200Y-72497700D01*
X134940200Y-72497700D01*
G37*
G36*
X78806200Y-71204200D02*
X77403800Y-71204200D01*
X77403800Y-69551800D01*
X78806200Y-69551800D01*
X78806200Y-71204200D01*
X78806200Y-71204200D01*
G37*
G36*
X134940200Y-69997700D02*
X133537800Y-69997700D01*
X133537800Y-68345300D01*
X134940200Y-68345300D01*
X134940200Y-69997700D01*
X134940200Y-69997700D01*
G37*
G36*
X76276200Y-69801200D02*
X74523800Y-69801200D01*
X74523800Y-66248800D01*
X76276200Y-66248800D01*
X76276200Y-69801200D01*
X76276200Y-69801200D01*
G37*
G36*
X69476200Y-69801200D02*
X67723800Y-69801200D01*
X67723800Y-66248800D01*
X69476200Y-66248800D01*
X69476200Y-69801200D01*
X69476200Y-69801200D01*
G37*
G36*
X63451200Y-69326200D02*
X61798800Y-69326200D01*
X61798800Y-67923800D01*
X63451200Y-67923800D01*
X63451200Y-69326200D01*
X63451200Y-69326200D01*
G37*
G36*
X60951200Y-69326200D02*
X59298800Y-69326200D01*
X59298800Y-67923800D01*
X60951200Y-67923800D01*
X60951200Y-69326200D01*
X60951200Y-69326200D01*
G37*
G36*
X58951200Y-67201200D02*
X56798800Y-67201200D01*
X56798800Y-65048800D01*
X58951200Y-65048800D01*
X58951200Y-67201200D01*
X58951200Y-67201200D01*
G37*
G36*
X66448200Y-65876200D02*
X65045800Y-65876200D01*
X65045800Y-64223800D01*
X66448200Y-64223800D01*
X66448200Y-65876200D01*
X66448200Y-65876200D01*
G37*
G36*
X63661200Y-65738700D02*
X61228800Y-65738700D01*
X61228800Y-64786300D01*
X63661200Y-64786300D01*
X63661200Y-65738700D01*
X63661200Y-65738700D01*
G37*
G36*
X63596200Y-64676200D02*
X61293800Y-64676200D01*
X61293800Y-62923800D01*
X63596200Y-62923800D01*
X63596200Y-64676200D01*
X63596200Y-64676200D01*
G37*
G36*
X71576200Y-64301200D02*
X70423800Y-64301200D01*
X70423800Y-60648800D01*
X71576200Y-60648800D01*
X71576200Y-64301200D01*
X71576200Y-64301200D01*
G37*
G36*
X73576200Y-64301200D02*
X72423800Y-64301200D01*
X72423800Y-60648800D01*
X73576200Y-60648800D01*
X73576200Y-64301200D01*
X73576200Y-64301200D01*
G37*
G36*
X66448200Y-63376200D02*
X65045800Y-63376200D01*
X65045800Y-61723800D01*
X66448200Y-61723800D01*
X66448200Y-63376200D01*
X66448200Y-63376200D01*
G37*
G36*
X63661200Y-62813700D02*
X61228800Y-62813700D01*
X61228800Y-61861300D01*
X63661200Y-61861300D01*
X63661200Y-62813700D01*
X63661200Y-62813700D01*
G37*
G36*
X58951200Y-62701200D02*
X56798800Y-62701200D01*
X56798800Y-60548800D01*
X58951200Y-60548800D01*
X58951200Y-62701200D01*
X58951200Y-62701200D01*
G37*
G36*
X66807200Y-60818200D02*
X65154800Y-60818200D01*
X65154800Y-59415800D01*
X66807200Y-59415800D01*
X66807200Y-60818200D01*
X66807200Y-60818200D01*
G37*
G36*
X64307200Y-60818200D02*
X62654800Y-60818200D01*
X62654800Y-59415800D01*
X64307200Y-59415800D01*
X64307200Y-60818200D01*
X64307200Y-60818200D01*
G37*
G36*
X80731200Y-59121200D02*
X79078800Y-59121200D01*
X79078800Y-57718800D01*
X80731200Y-57718800D01*
X80731200Y-59121200D01*
X80731200Y-59121200D01*
G37*
G36*
X83231200Y-59121200D02*
X81578800Y-59121200D01*
X81578800Y-57718800D01*
X83231200Y-57718800D01*
X83231200Y-59121200D01*
X83231200Y-59121200D01*
G37*
G36*
X102687200Y-58972200D02*
X101284800Y-58972200D01*
X101284800Y-57319800D01*
X102687200Y-57319800D01*
X102687200Y-58972200D01*
X102687200Y-58972200D01*
G37*
G36*
X64307200Y-58786200D02*
X62654800Y-58786200D01*
X62654800Y-57383800D01*
X64307200Y-57383800D01*
X64307200Y-58786200D01*
X64307200Y-58786200D01*
G37*
G36*
X66807200Y-58786200D02*
X65154800Y-58786200D01*
X65154800Y-57383800D01*
X66807200Y-57383800D01*
X66807200Y-58786200D01*
X66807200Y-58786200D01*
G37*
G36*
X72131200Y-58522200D02*
X71228800Y-58522200D01*
X71228800Y-57169800D01*
X72131200Y-57169800D01*
X72131200Y-58522200D01*
X72131200Y-58522200D01*
G37*
G36*
X69591200Y-58522200D02*
X68688800Y-58522200D01*
X68688800Y-57169800D01*
X69591200Y-57169800D01*
X69591200Y-58522200D01*
X69591200Y-58522200D01*
G37*
G36*
X105639059Y-53860348D02*
X105941847Y-53922502D01*
X106226810Y-54042289D01*
X106483072Y-54215140D01*
X106700880Y-54434474D01*
X106871936Y-54691936D01*
X106989729Y-54977721D01*
X107045958Y-55261702D01*
X107049768Y-55280946D01*
X107044838Y-55634006D01*
X107044761Y-55634344D01*
X107044761Y-55634353D01*
X106976356Y-55935437D01*
X106850632Y-56217818D01*
X106672450Y-56470406D01*
X106448602Y-56683574D01*
X106187613Y-56849203D01*
X105899420Y-56960985D01*
X105595012Y-57014661D01*
X105285969Y-57008187D01*
X104984069Y-56941810D01*
X104700812Y-56818058D01*
X104446994Y-56641650D01*
X104232264Y-56419290D01*
X104064818Y-56159465D01*
X103951025Y-55872058D01*
X103895227Y-55568034D01*
X103899542Y-55258954D01*
X103963810Y-54956597D01*
X104085580Y-54672485D01*
X104260217Y-54417435D01*
X104481066Y-54201163D01*
X104739719Y-54031906D01*
X105026321Y-53916110D01*
X105329951Y-53858190D01*
X105639059Y-53860348D01*
X105639059Y-53860348D01*
G37*
G36*
X75887200Y-56813200D02*
X74484800Y-56813200D01*
X74484800Y-55160800D01*
X75887200Y-55160800D01*
X75887200Y-56813200D01*
X75887200Y-56813200D01*
G37*
G36*
X64307200Y-56754200D02*
X62654800Y-56754200D01*
X62654800Y-55351800D01*
X64307200Y-55351800D01*
X64307200Y-56754200D01*
X64307200Y-56754200D01*
G37*
G36*
X66807200Y-56754200D02*
X65154800Y-56754200D01*
X65154800Y-55351800D01*
X66807200Y-55351800D01*
X66807200Y-56754200D01*
X66807200Y-56754200D01*
G37*
G36*
X72131200Y-56622200D02*
X71228800Y-56622200D01*
X71228800Y-55269800D01*
X72131200Y-55269800D01*
X72131200Y-56622200D01*
X72131200Y-56622200D01*
G37*
G36*
X69591200Y-56622200D02*
X68688800Y-56622200D01*
X68688800Y-55269800D01*
X69591200Y-55269800D01*
X69591200Y-56622200D01*
X69591200Y-56622200D01*
G37*
G36*
X102687200Y-56472200D02*
X101284800Y-56472200D01*
X101284800Y-54819800D01*
X102687200Y-54819800D01*
X102687200Y-56472200D01*
X102687200Y-56472200D01*
G37*
G36*
X79585200Y-56443200D02*
X78782800Y-56443200D01*
X78782800Y-55230800D01*
X79585200Y-55230800D01*
X79585200Y-56443200D01*
X79585200Y-56443200D01*
G37*
G36*
X78635200Y-56443200D02*
X77832800Y-56443200D01*
X77832800Y-55230800D01*
X78635200Y-55230800D01*
X78635200Y-56443200D01*
X78635200Y-56443200D01*
G37*
G36*
X77685200Y-56443200D02*
X76882800Y-56443200D01*
X76882800Y-55230800D01*
X77685200Y-55230800D01*
X77685200Y-56443200D01*
X77685200Y-56443200D01*
G37*
G36*
X81699559Y-52272848D02*
X82002347Y-52335002D01*
X82287310Y-52454789D01*
X82543572Y-52627640D01*
X82761380Y-52846974D01*
X82932436Y-53104436D01*
X83050229Y-53390221D01*
X83110199Y-53693096D01*
X83110268Y-53693446D01*
X83105338Y-54046506D01*
X83105261Y-54046844D01*
X83105261Y-54046853D01*
X83036856Y-54347937D01*
X82911132Y-54630318D01*
X82732950Y-54882906D01*
X82509102Y-55096074D01*
X82248113Y-55261703D01*
X81959920Y-55373485D01*
X81655512Y-55427161D01*
X81346469Y-55420687D01*
X81044569Y-55354310D01*
X80761312Y-55230558D01*
X80507494Y-55054150D01*
X80292764Y-54831790D01*
X80125318Y-54571965D01*
X80011525Y-54284558D01*
X79955727Y-53980534D01*
X79960042Y-53671454D01*
X80024310Y-53369097D01*
X80146080Y-53084985D01*
X80320717Y-52829935D01*
X80541566Y-52613663D01*
X80800219Y-52444406D01*
X81086821Y-52328610D01*
X81390451Y-52270690D01*
X81699559Y-52272848D01*
X81699559Y-52272848D01*
G37*
G36*
X75887200Y-54313200D02*
X74484800Y-54313200D01*
X74484800Y-52660800D01*
X75887200Y-52660800D01*
X75887200Y-54313200D01*
X75887200Y-54313200D01*
G37*
G36*
X69799700Y-54252700D02*
X68647300Y-54252700D01*
X68647300Y-52300300D01*
X69799700Y-52300300D01*
X69799700Y-54252700D01*
X69799700Y-54252700D01*
G37*
G36*
X72299700Y-54252700D02*
X71147300Y-54252700D01*
X71147300Y-52300300D01*
X72299700Y-52300300D01*
X72299700Y-54252700D01*
X72299700Y-54252700D01*
G37*
G36*
X79585200Y-54243200D02*
X78782800Y-54243200D01*
X78782800Y-53030800D01*
X79585200Y-53030800D01*
X79585200Y-54243200D01*
X79585200Y-54243200D01*
G37*
G36*
X77685200Y-54243200D02*
X76882800Y-54243200D01*
X76882800Y-53030800D01*
X77685200Y-53030800D01*
X77685200Y-54243200D01*
X77685200Y-54243200D01*
G37*
G36*
X83231200Y-51628200D02*
X81578800Y-51628200D01*
X81578800Y-50225800D01*
X83231200Y-50225800D01*
X83231200Y-51628200D01*
X83231200Y-51628200D01*
G37*
G36*
X80731200Y-51628200D02*
X79078800Y-51628200D01*
X79078800Y-50225800D01*
X80731200Y-50225800D01*
X80731200Y-51628200D01*
X80731200Y-51628200D01*
G37*
G36*
X77715200Y-51352200D02*
X76312800Y-51352200D01*
X76312800Y-49699800D01*
X77715200Y-49699800D01*
X77715200Y-51352200D01*
X77715200Y-51352200D01*
G37*
G36*
X70132200Y-50846200D02*
X63829800Y-50846200D01*
X63829800Y-49093800D01*
X70132200Y-49093800D01*
X70132200Y-50846200D01*
X70132200Y-50846200D01*
G37*
G36*
X57622200Y-50182200D02*
X56169800Y-50182200D01*
X56169800Y-48529800D01*
X57622200Y-48529800D01*
X57622200Y-50182200D01*
X57622200Y-50182200D01*
G37*
G36*
X60899200Y-50082200D02*
X59496800Y-50082200D01*
X59496800Y-48429800D01*
X60899200Y-48429800D01*
X60899200Y-50082200D01*
X60899200Y-50082200D01*
G37*
G36*
X47828200Y-49415700D02*
X47167800Y-49415700D01*
X47167800Y-48120300D01*
X47828200Y-48120300D01*
X47828200Y-49415700D01*
X47828200Y-49415700D01*
G37*
G36*
X52908200Y-49415700D02*
X52247800Y-49415700D01*
X52247800Y-48120300D01*
X52908200Y-48120300D01*
X52908200Y-49415700D01*
X52908200Y-49415700D01*
G37*
G36*
X54178200Y-49415700D02*
X53517800Y-49415700D01*
X53517800Y-48120300D01*
X54178200Y-48120300D01*
X54178200Y-49415700D01*
X54178200Y-49415700D01*
G37*
G36*
X46558200Y-49415700D02*
X45897800Y-49415700D01*
X45897800Y-48120300D01*
X46558200Y-48120300D01*
X46558200Y-49415700D01*
X46558200Y-49415700D01*
G37*
G36*
X49098200Y-49415700D02*
X48437800Y-49415700D01*
X48437800Y-48120300D01*
X49098200Y-48120300D01*
X49098200Y-49415700D01*
X49098200Y-49415700D01*
G37*
G36*
X50368200Y-49415700D02*
X49707800Y-49415700D01*
X49707800Y-48120300D01*
X50368200Y-48120300D01*
X50368200Y-49415700D01*
X50368200Y-49415700D01*
G37*
G36*
X51638200Y-49415700D02*
X50977800Y-49415700D01*
X50977800Y-48120300D01*
X51638200Y-48120300D01*
X51638200Y-49415700D01*
X51638200Y-49415700D01*
G37*
G36*
X72107200Y-48871200D02*
X70354800Y-48871200D01*
X70354800Y-42568800D01*
X72107200Y-42568800D01*
X72107200Y-48871200D01*
X72107200Y-48871200D01*
G37*
G36*
X63607200Y-48871200D02*
X61854800Y-48871200D01*
X61854800Y-42568800D01*
X63607200Y-42568800D01*
X63607200Y-48871200D01*
X63607200Y-48871200D01*
G37*
G36*
X77715200Y-48852200D02*
X76312800Y-48852200D01*
X76312800Y-47199800D01*
X77715200Y-47199800D01*
X77715200Y-48852200D01*
X77715200Y-48852200D01*
G37*
G36*
X60899200Y-47582200D02*
X59496800Y-47582200D01*
X59496800Y-45929800D01*
X60899200Y-45929800D01*
X60899200Y-47582200D01*
X60899200Y-47582200D01*
G37*
G36*
X57622200Y-47482200D02*
X56169800Y-47482200D01*
X56169800Y-45829800D01*
X57622200Y-45829800D01*
X57622200Y-47482200D01*
X57622200Y-47482200D01*
G37*
G36*
X81226200Y-47226200D02*
X79573800Y-47226200D01*
X79573800Y-45773800D01*
X81226200Y-45773800D01*
X81226200Y-47226200D01*
X81226200Y-47226200D01*
G37*
G36*
X83926200Y-47226200D02*
X82273800Y-47226200D01*
X82273800Y-45773800D01*
X83926200Y-45773800D01*
X83926200Y-47226200D01*
X83926200Y-47226200D01*
G37*
G36*
X77715200Y-46526200D02*
X76312800Y-46526200D01*
X76312800Y-44873800D01*
X77715200Y-44873800D01*
X77715200Y-46526200D01*
X77715200Y-46526200D01*
G37*
G36*
X75429200Y-46526200D02*
X74026800Y-46526200D01*
X74026800Y-44873800D01*
X75429200Y-44873800D01*
X75429200Y-46526200D01*
X75429200Y-46526200D01*
G37*
G36*
X75429200Y-44026200D02*
X74026800Y-44026200D01*
X74026800Y-42373800D01*
X75429200Y-42373800D01*
X75429200Y-44026200D01*
X75429200Y-44026200D01*
G37*
G36*
X77715200Y-44026200D02*
X76312800Y-44026200D01*
X76312800Y-42373800D01*
X77715200Y-42373800D01*
X77715200Y-44026200D01*
X77715200Y-44026200D01*
G37*
G36*
X83926200Y-43976200D02*
X82273800Y-43976200D01*
X82273800Y-42523800D01*
X83926200Y-42523800D01*
X83926200Y-43976200D01*
X83926200Y-43976200D01*
G37*
G36*
X81226200Y-43976200D02*
X79573800Y-43976200D01*
X79573800Y-42523800D01*
X81226200Y-42523800D01*
X81226200Y-43976200D01*
X81226200Y-43976200D01*
G37*
G36*
X91016200Y-43754200D02*
X89363800Y-43754200D01*
X89363800Y-42351800D01*
X91016200Y-42351800D01*
X91016200Y-43754200D01*
X91016200Y-43754200D01*
G37*
G36*
X93516200Y-43754200D02*
X91863800Y-43754200D01*
X91863800Y-42351800D01*
X93516200Y-42351800D01*
X93516200Y-43754200D01*
X93516200Y-43754200D01*
G37*
G36*
X50368200Y-43065700D02*
X49707800Y-43065700D01*
X49707800Y-41770300D01*
X50368200Y-41770300D01*
X50368200Y-43065700D01*
X50368200Y-43065700D01*
G37*
G36*
X49098200Y-43065700D02*
X48437800Y-43065700D01*
X48437800Y-41770300D01*
X49098200Y-41770300D01*
X49098200Y-43065700D01*
X49098200Y-43065700D01*
G37*
G36*
X54178200Y-43065700D02*
X53517800Y-43065700D01*
X53517800Y-41770300D01*
X54178200Y-41770300D01*
X54178200Y-43065700D01*
X54178200Y-43065700D01*
G37*
G36*
X52908200Y-43065700D02*
X52247800Y-43065700D01*
X52247800Y-41770300D01*
X52908200Y-41770300D01*
X52908200Y-43065700D01*
X52908200Y-43065700D01*
G37*
G36*
X51638200Y-43065700D02*
X50977800Y-43065700D01*
X50977800Y-41770300D01*
X51638200Y-41770300D01*
X51638200Y-43065700D01*
X51638200Y-43065700D01*
G37*
G36*
X47828200Y-43065700D02*
X47167800Y-43065700D01*
X47167800Y-41770300D01*
X47828200Y-41770300D01*
X47828200Y-43065700D01*
X47828200Y-43065700D01*
G37*
G36*
X46558200Y-43065700D02*
X45897800Y-43065700D01*
X45897800Y-41770300D01*
X46558200Y-41770300D01*
X46558200Y-43065700D01*
X46558200Y-43065700D01*
G37*
G36*
X57343200Y-42843200D02*
X55940800Y-42843200D01*
X55940800Y-41190800D01*
X57343200Y-41190800D01*
X57343200Y-42843200D01*
X57343200Y-42843200D01*
G37*
G36*
X70132200Y-42346200D02*
X63829800Y-42346200D01*
X63829800Y-40593800D01*
X70132200Y-40593800D01*
X70132200Y-42346200D01*
X70132200Y-42346200D01*
G37*
G36*
X94802200Y-41259200D02*
X92249800Y-41259200D01*
X92249800Y-40356800D01*
X94802200Y-40356800D01*
X94802200Y-41259200D01*
X94802200Y-41259200D01*
G37*
G36*
X90902200Y-41259200D02*
X88349800Y-41259200D01*
X88349800Y-40356800D01*
X90902200Y-40356800D01*
X90902200Y-41259200D01*
X90902200Y-41259200D01*
G37*
G36*
X52573110Y-34925847D02*
X53164055Y-35047151D01*
X53720198Y-35280932D01*
X54220334Y-35618278D01*
X54645421Y-36046343D01*
X54979266Y-36548821D01*
X55209156Y-37106576D01*
X55326264Y-37698014D01*
X55326264Y-37698024D01*
X55326331Y-37698363D01*
X55316710Y-38387416D01*
X55316633Y-38387754D01*
X55316633Y-38387762D01*
X55183057Y-38975701D01*
X54937685Y-39526816D01*
X54589937Y-40019778D01*
X54153062Y-40435809D01*
X53643700Y-40759061D01*
X53081254Y-40977219D01*
X52487147Y-41081976D01*
X51884003Y-41069342D01*
X51294800Y-40939797D01*
X50741982Y-40698277D01*
X50246607Y-40353982D01*
X49827537Y-39920023D01*
X49500738Y-39412930D01*
X49278656Y-38852014D01*
X49169755Y-38258658D01*
X49178177Y-37655441D01*
X49303606Y-37065347D01*
X49541259Y-36510858D01*
X49882091Y-36013088D01*
X50313112Y-35591000D01*
X50817913Y-35260668D01*
X51377259Y-35034677D01*
X51969845Y-34921636D01*
X52573110Y-34925847D01*
X52573110Y-34925847D01*
G37*
G36*
X135323110Y-34925847D02*
X135914055Y-35047151D01*
X136470198Y-35280932D01*
X136970334Y-35618278D01*
X137395421Y-36046343D01*
X137729266Y-36548821D01*
X137959156Y-37106576D01*
X138076264Y-37698014D01*
X138076264Y-37698024D01*
X138076331Y-37698363D01*
X138066710Y-38387416D01*
X138066633Y-38387754D01*
X138066633Y-38387762D01*
X137933057Y-38975701D01*
X137687685Y-39526816D01*
X137339937Y-40019778D01*
X136903062Y-40435809D01*
X136393700Y-40759061D01*
X135831254Y-40977219D01*
X135237147Y-41081976D01*
X134634003Y-41069342D01*
X134044800Y-40939797D01*
X133491982Y-40698277D01*
X132996607Y-40353982D01*
X132577537Y-39920023D01*
X132250738Y-39412930D01*
X132028656Y-38852014D01*
X131919755Y-38258658D01*
X131928177Y-37655441D01*
X132053606Y-37065347D01*
X132291259Y-36510858D01*
X132632091Y-36013088D01*
X133063112Y-35591000D01*
X133567913Y-35260668D01*
X134127259Y-35034677D01*
X134719845Y-34921636D01*
X135323110Y-34925847D01*
X135323110Y-34925847D01*
G37*
G36*
X85576200Y-40826200D02*
X82223800Y-40826200D01*
X82223800Y-39673800D01*
X85576200Y-39673800D01*
X85576200Y-40826200D01*
X85576200Y-40826200D01*
G37*
G36*
X78776200Y-40826200D02*
X75423800Y-40826200D01*
X75423800Y-39673800D01*
X78776200Y-39673800D01*
X78776200Y-40826200D01*
X78776200Y-40826200D01*
G37*
G36*
X107501700Y-40739700D02*
X104149300Y-40739700D01*
X104149300Y-39587300D01*
X107501700Y-39587300D01*
X107501700Y-40739700D01*
X107501700Y-40739700D01*
G37*
G36*
X100701700Y-40739700D02*
X97349300Y-40739700D01*
X97349300Y-39587300D01*
X100701700Y-39587300D01*
X100701700Y-40739700D01*
X100701700Y-40739700D01*
G37*
G36*
X120265200Y-40612700D02*
X116912800Y-40612700D01*
X116912800Y-39460300D01*
X120265200Y-39460300D01*
X120265200Y-40612700D01*
X120265200Y-40612700D01*
G37*
G36*
X113465200Y-40612700D02*
X110112800Y-40612700D01*
X110112800Y-39460300D01*
X113465200Y-39460300D01*
X113465200Y-40612700D01*
X113465200Y-40612700D01*
G37*
G36*
X57343200Y-40343200D02*
X55940800Y-40343200D01*
X55940800Y-38690800D01*
X57343200Y-38690800D01*
X57343200Y-40343200D01*
X57343200Y-40343200D01*
G37*
G36*
X94802200Y-39989200D02*
X92249800Y-39989200D01*
X92249800Y-39086800D01*
X94802200Y-39086800D01*
X94802200Y-39989200D01*
X94802200Y-39989200D01*
G37*
G36*
X90902200Y-39989200D02*
X88349800Y-39989200D01*
X88349800Y-39086800D01*
X90902200Y-39086800D01*
X90902200Y-39989200D01*
X90902200Y-39989200D01*
G37*
G36*
X90902200Y-38719200D02*
X88349800Y-38719200D01*
X88349800Y-37816800D01*
X90902200Y-37816800D01*
X90902200Y-38719200D01*
X90902200Y-38719200D01*
G37*
G36*
X94802200Y-38719200D02*
X92249800Y-38719200D01*
X92249800Y-37816800D01*
X94802200Y-37816800D01*
X94802200Y-38719200D01*
X94802200Y-38719200D01*
G37*
G36*
X45214700Y-38652200D02*
X43812300Y-38652200D01*
X43812300Y-36999800D01*
X45214700Y-36999800D01*
X45214700Y-38652200D01*
X45214700Y-38652200D01*
G37*
G36*
X128250700Y-38547200D02*
X126598300Y-38547200D01*
X126598300Y-37144800D01*
X128250700Y-37144800D01*
X128250700Y-38547200D01*
X128250700Y-38547200D01*
G37*
G36*
X125750700Y-38547200D02*
X124098300Y-38547200D01*
X124098300Y-37144800D01*
X125750700Y-37144800D01*
X125750700Y-38547200D01*
X125750700Y-38547200D01*
G37*
G36*
X71097200Y-37962200D02*
X67944800Y-37962200D01*
X67944800Y-36459800D01*
X71097200Y-36459800D01*
X71097200Y-37962200D01*
X71097200Y-37962200D01*
G37*
G36*
X73747200Y-37937200D02*
X71494800Y-37937200D01*
X71494800Y-36184800D01*
X73747200Y-36184800D01*
X73747200Y-37937200D01*
X73747200Y-37937200D01*
G37*
G36*
X67547200Y-37937200D02*
X65294800Y-37937200D01*
X65294800Y-36184800D01*
X67547200Y-36184800D01*
X67547200Y-37937200D01*
X67547200Y-37937200D01*
G37*
G36*
X94802200Y-37449200D02*
X92249800Y-37449200D01*
X92249800Y-36546800D01*
X94802200Y-36546800D01*
X94802200Y-37449200D01*
X94802200Y-37449200D01*
G37*
G36*
X90902200Y-37449200D02*
X88349800Y-37449200D01*
X88349800Y-36546800D01*
X90902200Y-36546800D01*
X90902200Y-37449200D01*
X90902200Y-37449200D01*
G37*
G36*
X78776200Y-36826200D02*
X75423800Y-36826200D01*
X75423800Y-35673800D01*
X78776200Y-35673800D01*
X78776200Y-36826200D01*
X78776200Y-36826200D01*
G37*
G36*
X85576200Y-36826200D02*
X82223800Y-36826200D01*
X82223800Y-35673800D01*
X85576200Y-35673800D01*
X85576200Y-36826200D01*
X85576200Y-36826200D01*
G37*
G36*
X107501700Y-36739700D02*
X104149300Y-36739700D01*
X104149300Y-35587300D01*
X107501700Y-35587300D01*
X107501700Y-36739700D01*
X107501700Y-36739700D01*
G37*
G36*
X100701700Y-36739700D02*
X97349300Y-36739700D01*
X97349300Y-35587300D01*
X100701700Y-35587300D01*
X100701700Y-36739700D01*
X100701700Y-36739700D01*
G37*
G36*
X120265200Y-36612700D02*
X116912800Y-36612700D01*
X116912800Y-35460300D01*
X120265200Y-35460300D01*
X120265200Y-36612700D01*
X120265200Y-36612700D01*
G37*
G36*
X113465200Y-36612700D02*
X110112800Y-36612700D01*
X110112800Y-35460300D01*
X113465200Y-35460300D01*
X113465200Y-36612700D01*
X113465200Y-36612700D01*
G37*
G36*
X148864700Y-36515200D02*
X147212300Y-36515200D01*
X147212300Y-35112800D01*
X148864700Y-35112800D01*
X148864700Y-36515200D01*
X148864700Y-36515200D01*
G37*
G36*
X151364700Y-36515200D02*
X149712300Y-36515200D01*
X149712300Y-35112800D01*
X151364700Y-35112800D01*
X151364700Y-36515200D01*
X151364700Y-36515200D01*
G37*
G36*
X94802200Y-36179200D02*
X92249800Y-36179200D01*
X92249800Y-35276800D01*
X94802200Y-35276800D01*
X94802200Y-36179200D01*
X94802200Y-36179200D01*
G37*
G36*
X90902200Y-36179200D02*
X88349800Y-36179200D01*
X88349800Y-35276800D01*
X90902200Y-35276800D01*
X90902200Y-36179200D01*
X90902200Y-36179200D01*
G37*
G36*
X45214700Y-36152200D02*
X43812300Y-36152200D01*
X43812300Y-34499800D01*
X45214700Y-34499800D01*
X45214700Y-36152200D01*
X45214700Y-36152200D01*
G37*
G36*
X74297200Y-35562200D02*
X72344800Y-35562200D01*
X72344800Y-33509800D01*
X74297200Y-33509800D01*
X74297200Y-35562200D01*
X74297200Y-35562200D01*
G37*
G36*
X69347200Y-35562200D02*
X67394800Y-35562200D01*
X67394800Y-33509800D01*
X69347200Y-33509800D01*
X69347200Y-35562200D01*
X69347200Y-35562200D01*
G37*
G36*
X71647200Y-35562200D02*
X69694800Y-35562200D01*
X69694800Y-33509800D01*
X71647200Y-33509800D01*
X71647200Y-35562200D01*
X71647200Y-35562200D01*
G37*
G36*
X66697200Y-35562200D02*
X64744800Y-35562200D01*
X64744800Y-33509800D01*
X66697200Y-33509800D01*
X66697200Y-35562200D01*
X66697200Y-35562200D01*
G37*
M02*
