G04 #@! TF.FileFunction,Soldermask,Bot*
%FSLAX46Y46*%
G04 Gerber Fmt 4.6, Leading zero omitted, Abs format (unit mm)*
G04 Created by KiCad (PCBNEW 4.0.5+dfsg1-4) date Thu Jun  1 00:36:32 2017*
%MOMM*%
%LPD*%
G01*
G04 APERTURE LIST*
%ADD10C,0.100000*%
G04 APERTURE END LIST*
D10*
G36*
X73314803Y-76492530D02*
X73612567Y-76553653D01*
X73892784Y-76671445D01*
X74144788Y-76841423D01*
X74358979Y-77057115D01*
X74527194Y-77310298D01*
X74643027Y-77591330D01*
X74702001Y-77889171D01*
X74702001Y-77889181D01*
X74702067Y-77889515D01*
X74697219Y-78236707D01*
X74697142Y-78237045D01*
X74697142Y-78237053D01*
X74629878Y-78533122D01*
X74506241Y-78810815D01*
X74331023Y-79059203D01*
X74110891Y-79268831D01*
X73854244Y-79431704D01*
X73570843Y-79541629D01*
X73271492Y-79594412D01*
X72967588Y-79588046D01*
X72670703Y-79522772D01*
X72392161Y-79401079D01*
X72142549Y-79227595D01*
X71931394Y-79008937D01*
X71766733Y-78753434D01*
X71654833Y-78470808D01*
X71599960Y-78171825D01*
X71604205Y-77867885D01*
X71667402Y-77570561D01*
X71787151Y-77291167D01*
X71958884Y-77040357D01*
X72176065Y-76827678D01*
X72430416Y-76661235D01*
X72712253Y-76547366D01*
X73010836Y-76490408D01*
X73314803Y-76492530D01*
X73314803Y-76492530D01*
G37*
G36*
X101427500Y-76875000D02*
X99827500Y-76875000D01*
X99827500Y-75525000D01*
X101427500Y-75525000D01*
X101427500Y-76875000D01*
X101427500Y-76875000D01*
G37*
G36*
X98927500Y-76875000D02*
X97327500Y-76875000D01*
X97327500Y-75525000D01*
X98927500Y-75525000D01*
X98927500Y-76875000D01*
X98927500Y-76875000D01*
G37*
G36*
X59113000Y-76748000D02*
X57513000Y-76748000D01*
X57513000Y-75398000D01*
X59113000Y-75398000D01*
X59113000Y-76748000D01*
X59113000Y-76748000D01*
G37*
G36*
X61613000Y-76748000D02*
X60013000Y-76748000D01*
X60013000Y-75398000D01*
X61613000Y-75398000D01*
X61613000Y-76748000D01*
X61613000Y-76748000D01*
G37*
G36*
X39301000Y-74779500D02*
X37701000Y-74779500D01*
X37701000Y-73429500D01*
X39301000Y-73429500D01*
X39301000Y-74779500D01*
X39301000Y-74779500D01*
G37*
G36*
X41801000Y-74779500D02*
X40201000Y-74779500D01*
X40201000Y-73429500D01*
X41801000Y-73429500D01*
X41801000Y-74779500D01*
X41801000Y-74779500D01*
G37*
G36*
X78780000Y-73678000D02*
X77430000Y-73678000D01*
X77430000Y-72078000D01*
X78780000Y-72078000D01*
X78780000Y-73678000D01*
X78780000Y-73678000D01*
G37*
G36*
X134914000Y-72471500D02*
X133564000Y-72471500D01*
X133564000Y-70871500D01*
X134914000Y-70871500D01*
X134914000Y-72471500D01*
X134914000Y-72471500D01*
G37*
G36*
X78780000Y-71178000D02*
X77430000Y-71178000D01*
X77430000Y-69578000D01*
X78780000Y-69578000D01*
X78780000Y-71178000D01*
X78780000Y-71178000D01*
G37*
G36*
X134914000Y-69971500D02*
X133564000Y-69971500D01*
X133564000Y-68371500D01*
X134914000Y-68371500D01*
X134914000Y-69971500D01*
X134914000Y-69971500D01*
G37*
G36*
X76250000Y-69775000D02*
X74550000Y-69775000D01*
X74550000Y-66275000D01*
X76250000Y-66275000D01*
X76250000Y-69775000D01*
X76250000Y-69775000D01*
G37*
G36*
X69450000Y-69775000D02*
X67750000Y-69775000D01*
X67750000Y-66275000D01*
X69450000Y-66275000D01*
X69450000Y-69775000D01*
X69450000Y-69775000D01*
G37*
G36*
X63425000Y-69300000D02*
X61825000Y-69300000D01*
X61825000Y-67950000D01*
X63425000Y-67950000D01*
X63425000Y-69300000D01*
X63425000Y-69300000D01*
G37*
G36*
X60925000Y-69300000D02*
X59325000Y-69300000D01*
X59325000Y-67950000D01*
X60925000Y-67950000D01*
X60925000Y-69300000D01*
X60925000Y-69300000D01*
G37*
G36*
X58925000Y-67175000D02*
X56825000Y-67175000D01*
X56825000Y-65075000D01*
X58925000Y-65075000D01*
X58925000Y-67175000D01*
X58925000Y-67175000D01*
G37*
G36*
X66422000Y-65850000D02*
X65072000Y-65850000D01*
X65072000Y-64250000D01*
X66422000Y-64250000D01*
X66422000Y-65850000D01*
X66422000Y-65850000D01*
G37*
G36*
X62135000Y-65712500D02*
X61755000Y-65712500D01*
X61755000Y-64812500D01*
X62135000Y-64812500D01*
X62135000Y-65712500D01*
X62135000Y-65712500D01*
G37*
G36*
X61635000Y-65712500D02*
X61255000Y-65712500D01*
X61255000Y-64812500D01*
X61635000Y-64812500D01*
X61635000Y-65712500D01*
X61635000Y-65712500D01*
G37*
G36*
X62635000Y-65712500D02*
X62255000Y-65712500D01*
X62255000Y-64812500D01*
X62635000Y-64812500D01*
X62635000Y-65712500D01*
X62635000Y-65712500D01*
G37*
G36*
X63635000Y-65712500D02*
X63255000Y-65712500D01*
X63255000Y-64812500D01*
X63635000Y-64812500D01*
X63635000Y-65712500D01*
X63635000Y-65712500D01*
G37*
G36*
X63135000Y-65712500D02*
X62755000Y-65712500D01*
X62755000Y-64812500D01*
X63135000Y-64812500D01*
X63135000Y-65712500D01*
X63135000Y-65712500D01*
G37*
G36*
X63570000Y-64650000D02*
X61320000Y-64650000D01*
X61320000Y-62950000D01*
X63570000Y-62950000D01*
X63570000Y-64650000D01*
X63570000Y-64650000D01*
G37*
G36*
X73550000Y-64275000D02*
X72450000Y-64275000D01*
X72450000Y-60675000D01*
X73550000Y-60675000D01*
X73550000Y-64275000D01*
X73550000Y-64275000D01*
G37*
G36*
X71550000Y-64275000D02*
X70450000Y-64275000D01*
X70450000Y-60675000D01*
X71550000Y-60675000D01*
X71550000Y-64275000D01*
X71550000Y-64275000D01*
G37*
G36*
X66422000Y-63350000D02*
X65072000Y-63350000D01*
X65072000Y-61750000D01*
X66422000Y-61750000D01*
X66422000Y-63350000D01*
X66422000Y-63350000D01*
G37*
G36*
X63135000Y-62787500D02*
X62755000Y-62787500D01*
X62755000Y-61887500D01*
X63135000Y-61887500D01*
X63135000Y-62787500D01*
X63135000Y-62787500D01*
G37*
G36*
X63635000Y-62787500D02*
X63255000Y-62787500D01*
X63255000Y-61887500D01*
X63635000Y-61887500D01*
X63635000Y-62787500D01*
X63635000Y-62787500D01*
G37*
G36*
X61635000Y-62787500D02*
X61255000Y-62787500D01*
X61255000Y-61887500D01*
X61635000Y-61887500D01*
X61635000Y-62787500D01*
X61635000Y-62787500D01*
G37*
G36*
X62135000Y-62787500D02*
X61755000Y-62787500D01*
X61755000Y-61887500D01*
X62135000Y-61887500D01*
X62135000Y-62787500D01*
X62135000Y-62787500D01*
G37*
G36*
X62635000Y-62787500D02*
X62255000Y-62787500D01*
X62255000Y-61887500D01*
X62635000Y-61887500D01*
X62635000Y-62787500D01*
X62635000Y-62787500D01*
G37*
G36*
X58925000Y-62675000D02*
X56825000Y-62675000D01*
X56825000Y-60575000D01*
X58925000Y-60575000D01*
X58925000Y-62675000D01*
X58925000Y-62675000D01*
G37*
G36*
X64281000Y-60792000D02*
X62681000Y-60792000D01*
X62681000Y-59442000D01*
X64281000Y-59442000D01*
X64281000Y-60792000D01*
X64281000Y-60792000D01*
G37*
G36*
X66781000Y-60792000D02*
X65181000Y-60792000D01*
X65181000Y-59442000D01*
X66781000Y-59442000D01*
X66781000Y-60792000D01*
X66781000Y-60792000D01*
G37*
G36*
X83205000Y-59095000D02*
X81605000Y-59095000D01*
X81605000Y-57745000D01*
X83205000Y-57745000D01*
X83205000Y-59095000D01*
X83205000Y-59095000D01*
G37*
G36*
X80705000Y-59095000D02*
X79105000Y-59095000D01*
X79105000Y-57745000D01*
X80705000Y-57745000D01*
X80705000Y-59095000D01*
X80705000Y-59095000D01*
G37*
G36*
X102661000Y-58946000D02*
X101311000Y-58946000D01*
X101311000Y-57346000D01*
X102661000Y-57346000D01*
X102661000Y-58946000D01*
X102661000Y-58946000D01*
G37*
G36*
X66781000Y-58760000D02*
X65181000Y-58760000D01*
X65181000Y-57410000D01*
X66781000Y-57410000D01*
X66781000Y-58760000D01*
X66781000Y-58760000D01*
G37*
G36*
X64281000Y-58760000D02*
X62681000Y-58760000D01*
X62681000Y-57410000D01*
X64281000Y-57410000D01*
X64281000Y-58760000D01*
X64281000Y-58760000D01*
G37*
G36*
X72105000Y-58496000D02*
X71255000Y-58496000D01*
X71255000Y-57196000D01*
X72105000Y-57196000D01*
X72105000Y-58496000D01*
X72105000Y-58496000D01*
G37*
G36*
X69565000Y-58496000D02*
X68715000Y-58496000D01*
X68715000Y-57196000D01*
X69565000Y-57196000D01*
X69565000Y-58496000D01*
X69565000Y-58496000D01*
G37*
G36*
X105636303Y-53886530D02*
X105934067Y-53947653D01*
X106214284Y-54065445D01*
X106466288Y-54235423D01*
X106680479Y-54451115D01*
X106848694Y-54704298D01*
X106964527Y-54985330D01*
X107023501Y-55283171D01*
X107023501Y-55283181D01*
X107023567Y-55283515D01*
X107018719Y-55630707D01*
X107018642Y-55631045D01*
X107018642Y-55631053D01*
X106951378Y-55927122D01*
X106827741Y-56204815D01*
X106652523Y-56453203D01*
X106432391Y-56662831D01*
X106175744Y-56825704D01*
X105892343Y-56935629D01*
X105592992Y-56988412D01*
X105289088Y-56982046D01*
X104992203Y-56916772D01*
X104713661Y-56795079D01*
X104464049Y-56621595D01*
X104252894Y-56402937D01*
X104088233Y-56147434D01*
X103976333Y-55864808D01*
X103921460Y-55565825D01*
X103925705Y-55261885D01*
X103988902Y-54964561D01*
X104108651Y-54685167D01*
X104280384Y-54434357D01*
X104497565Y-54221678D01*
X104751916Y-54055235D01*
X105033753Y-53941366D01*
X105332336Y-53884408D01*
X105636303Y-53886530D01*
X105636303Y-53886530D01*
G37*
G36*
X75861000Y-56787000D02*
X74511000Y-56787000D01*
X74511000Y-55187000D01*
X75861000Y-55187000D01*
X75861000Y-56787000D01*
X75861000Y-56787000D01*
G37*
G36*
X66781000Y-56728000D02*
X65181000Y-56728000D01*
X65181000Y-55378000D01*
X66781000Y-55378000D01*
X66781000Y-56728000D01*
X66781000Y-56728000D01*
G37*
G36*
X64281000Y-56728000D02*
X62681000Y-56728000D01*
X62681000Y-55378000D01*
X64281000Y-55378000D01*
X64281000Y-56728000D01*
X64281000Y-56728000D01*
G37*
G36*
X69565000Y-56596000D02*
X68715000Y-56596000D01*
X68715000Y-55296000D01*
X69565000Y-55296000D01*
X69565000Y-56596000D01*
X69565000Y-56596000D01*
G37*
G36*
X72105000Y-56596000D02*
X71255000Y-56596000D01*
X71255000Y-55296000D01*
X72105000Y-55296000D01*
X72105000Y-56596000D01*
X72105000Y-56596000D01*
G37*
G36*
X102661000Y-56446000D02*
X101311000Y-56446000D01*
X101311000Y-54846000D01*
X102661000Y-54846000D01*
X102661000Y-56446000D01*
X102661000Y-56446000D01*
G37*
G36*
X78609000Y-56417000D02*
X77859000Y-56417000D01*
X77859000Y-55257000D01*
X78609000Y-55257000D01*
X78609000Y-56417000D01*
X78609000Y-56417000D01*
G37*
G36*
X77659000Y-56417000D02*
X76909000Y-56417000D01*
X76909000Y-55257000D01*
X77659000Y-55257000D01*
X77659000Y-56417000D01*
X77659000Y-56417000D01*
G37*
G36*
X79559000Y-56417000D02*
X78809000Y-56417000D01*
X78809000Y-55257000D01*
X79559000Y-55257000D01*
X79559000Y-56417000D01*
X79559000Y-56417000D01*
G37*
G36*
X81696803Y-52299030D02*
X81994567Y-52360153D01*
X82274784Y-52477945D01*
X82526788Y-52647923D01*
X82740979Y-52863615D01*
X82909194Y-53116798D01*
X83025027Y-53397830D01*
X83084001Y-53695671D01*
X83084001Y-53695681D01*
X83084067Y-53696015D01*
X83079219Y-54043207D01*
X83079142Y-54043545D01*
X83079142Y-54043553D01*
X83011878Y-54339622D01*
X82888241Y-54617315D01*
X82713023Y-54865703D01*
X82492891Y-55075331D01*
X82236244Y-55238204D01*
X81952843Y-55348129D01*
X81653492Y-55400912D01*
X81349588Y-55394546D01*
X81052703Y-55329272D01*
X80774161Y-55207579D01*
X80524549Y-55034095D01*
X80313394Y-54815437D01*
X80148733Y-54559934D01*
X80036833Y-54277308D01*
X79981960Y-53978325D01*
X79986205Y-53674385D01*
X80049402Y-53377061D01*
X80169151Y-53097667D01*
X80340884Y-52846857D01*
X80558065Y-52634178D01*
X80812416Y-52467735D01*
X81094253Y-52353866D01*
X81392836Y-52296908D01*
X81696803Y-52299030D01*
X81696803Y-52299030D01*
G37*
G36*
X75861000Y-54287000D02*
X74511000Y-54287000D01*
X74511000Y-52687000D01*
X75861000Y-52687000D01*
X75861000Y-54287000D01*
X75861000Y-54287000D01*
G37*
G36*
X72273500Y-54226500D02*
X71173500Y-54226500D01*
X71173500Y-52326500D01*
X72273500Y-52326500D01*
X72273500Y-54226500D01*
X72273500Y-54226500D01*
G37*
G36*
X69773500Y-54226500D02*
X68673500Y-54226500D01*
X68673500Y-52326500D01*
X69773500Y-52326500D01*
X69773500Y-54226500D01*
X69773500Y-54226500D01*
G37*
G36*
X77659000Y-54217000D02*
X76909000Y-54217000D01*
X76909000Y-53057000D01*
X77659000Y-53057000D01*
X77659000Y-54217000D01*
X77659000Y-54217000D01*
G37*
G36*
X79559000Y-54217000D02*
X78809000Y-54217000D01*
X78809000Y-53057000D01*
X79559000Y-53057000D01*
X79559000Y-54217000D01*
X79559000Y-54217000D01*
G37*
G36*
X80705000Y-51602000D02*
X79105000Y-51602000D01*
X79105000Y-50252000D01*
X80705000Y-50252000D01*
X80705000Y-51602000D01*
X80705000Y-51602000D01*
G37*
G36*
X83205000Y-51602000D02*
X81605000Y-51602000D01*
X81605000Y-50252000D01*
X83205000Y-50252000D01*
X83205000Y-51602000D01*
X83205000Y-51602000D01*
G37*
G36*
X77689000Y-51326000D02*
X76339000Y-51326000D01*
X76339000Y-49726000D01*
X77689000Y-49726000D01*
X77689000Y-51326000D01*
X77689000Y-51326000D01*
G37*
G36*
X64506000Y-50820000D02*
X63856000Y-50820000D01*
X63856000Y-49120000D01*
X64506000Y-49120000D01*
X64506000Y-50820000D01*
X64506000Y-50820000D01*
G37*
G36*
X65306000Y-50820000D02*
X64656000Y-50820000D01*
X64656000Y-49120000D01*
X65306000Y-49120000D01*
X65306000Y-50820000D01*
X65306000Y-50820000D01*
G37*
G36*
X66106000Y-50820000D02*
X65456000Y-50820000D01*
X65456000Y-49120000D01*
X66106000Y-49120000D01*
X66106000Y-50820000D01*
X66106000Y-50820000D01*
G37*
G36*
X67706000Y-50820000D02*
X67056000Y-50820000D01*
X67056000Y-49120000D01*
X67706000Y-49120000D01*
X67706000Y-50820000D01*
X67706000Y-50820000D01*
G37*
G36*
X68506000Y-50820000D02*
X67856000Y-50820000D01*
X67856000Y-49120000D01*
X68506000Y-49120000D01*
X68506000Y-50820000D01*
X68506000Y-50820000D01*
G37*
G36*
X69306000Y-50820000D02*
X68656000Y-50820000D01*
X68656000Y-49120000D01*
X69306000Y-49120000D01*
X69306000Y-50820000D01*
X69306000Y-50820000D01*
G37*
G36*
X70106000Y-50820000D02*
X69456000Y-50820000D01*
X69456000Y-49120000D01*
X70106000Y-49120000D01*
X70106000Y-50820000D01*
X70106000Y-50820000D01*
G37*
G36*
X66906000Y-50820000D02*
X66256000Y-50820000D01*
X66256000Y-49120000D01*
X66906000Y-49120000D01*
X66906000Y-50820000D01*
X66906000Y-50820000D01*
G37*
G36*
X57596000Y-50156000D02*
X56196000Y-50156000D01*
X56196000Y-48556000D01*
X57596000Y-48556000D01*
X57596000Y-50156000D01*
X57596000Y-50156000D01*
G37*
G36*
X60873000Y-50056000D02*
X59523000Y-50056000D01*
X59523000Y-48456000D01*
X60873000Y-48456000D01*
X60873000Y-50056000D01*
X60873000Y-50056000D01*
G37*
G36*
X50342000Y-49389500D02*
X49734000Y-49389500D01*
X49734000Y-48146500D01*
X50342000Y-48146500D01*
X50342000Y-49389500D01*
X50342000Y-49389500D01*
G37*
G36*
X46532000Y-49389500D02*
X45924000Y-49389500D01*
X45924000Y-48146500D01*
X46532000Y-48146500D01*
X46532000Y-49389500D01*
X46532000Y-49389500D01*
G37*
G36*
X47802000Y-49389500D02*
X47194000Y-49389500D01*
X47194000Y-48146500D01*
X47802000Y-48146500D01*
X47802000Y-49389500D01*
X47802000Y-49389500D01*
G37*
G36*
X49072000Y-49389500D02*
X48464000Y-49389500D01*
X48464000Y-48146500D01*
X49072000Y-48146500D01*
X49072000Y-49389500D01*
X49072000Y-49389500D01*
G37*
G36*
X51612000Y-49389500D02*
X51004000Y-49389500D01*
X51004000Y-48146500D01*
X51612000Y-48146500D01*
X51612000Y-49389500D01*
X51612000Y-49389500D01*
G37*
G36*
X52882000Y-49389500D02*
X52274000Y-49389500D01*
X52274000Y-48146500D01*
X52882000Y-48146500D01*
X52882000Y-49389500D01*
X52882000Y-49389500D01*
G37*
G36*
X54152000Y-49389500D02*
X53544000Y-49389500D01*
X53544000Y-48146500D01*
X54152000Y-48146500D01*
X54152000Y-49389500D01*
X54152000Y-49389500D01*
G37*
G36*
X72081000Y-48845000D02*
X70381000Y-48845000D01*
X70381000Y-48195000D01*
X72081000Y-48195000D01*
X72081000Y-48845000D01*
X72081000Y-48845000D01*
G37*
G36*
X63581000Y-48845000D02*
X61881000Y-48845000D01*
X61881000Y-48195000D01*
X63581000Y-48195000D01*
X63581000Y-48845000D01*
X63581000Y-48845000D01*
G37*
G36*
X77689000Y-48826000D02*
X76339000Y-48826000D01*
X76339000Y-47226000D01*
X77689000Y-47226000D01*
X77689000Y-48826000D01*
X77689000Y-48826000D01*
G37*
G36*
X72081000Y-48045000D02*
X70381000Y-48045000D01*
X70381000Y-47395000D01*
X72081000Y-47395000D01*
X72081000Y-48045000D01*
X72081000Y-48045000D01*
G37*
G36*
X63581000Y-48045000D02*
X61881000Y-48045000D01*
X61881000Y-47395000D01*
X63581000Y-47395000D01*
X63581000Y-48045000D01*
X63581000Y-48045000D01*
G37*
G36*
X60873000Y-47556000D02*
X59523000Y-47556000D01*
X59523000Y-45956000D01*
X60873000Y-45956000D01*
X60873000Y-47556000D01*
X60873000Y-47556000D01*
G37*
G36*
X57596000Y-47456000D02*
X56196000Y-47456000D01*
X56196000Y-45856000D01*
X57596000Y-45856000D01*
X57596000Y-47456000D01*
X57596000Y-47456000D01*
G37*
G36*
X72081000Y-47245000D02*
X70381000Y-47245000D01*
X70381000Y-46595000D01*
X72081000Y-46595000D01*
X72081000Y-47245000D01*
X72081000Y-47245000D01*
G37*
G36*
X63581000Y-47245000D02*
X61881000Y-47245000D01*
X61881000Y-46595000D01*
X63581000Y-46595000D01*
X63581000Y-47245000D01*
X63581000Y-47245000D01*
G37*
G36*
X81200000Y-47200000D02*
X79600000Y-47200000D01*
X79600000Y-45800000D01*
X81200000Y-45800000D01*
X81200000Y-47200000D01*
X81200000Y-47200000D01*
G37*
G36*
X83900000Y-47200000D02*
X82300000Y-47200000D01*
X82300000Y-45800000D01*
X83900000Y-45800000D01*
X83900000Y-47200000D01*
X83900000Y-47200000D01*
G37*
G36*
X75403000Y-46500000D02*
X74053000Y-46500000D01*
X74053000Y-44900000D01*
X75403000Y-44900000D01*
X75403000Y-46500000D01*
X75403000Y-46500000D01*
G37*
G36*
X77689000Y-46500000D02*
X76339000Y-46500000D01*
X76339000Y-44900000D01*
X77689000Y-44900000D01*
X77689000Y-46500000D01*
X77689000Y-46500000D01*
G37*
G36*
X72081000Y-46445000D02*
X70381000Y-46445000D01*
X70381000Y-45795000D01*
X72081000Y-45795000D01*
X72081000Y-46445000D01*
X72081000Y-46445000D01*
G37*
G36*
X63581000Y-46445000D02*
X61881000Y-46445000D01*
X61881000Y-45795000D01*
X63581000Y-45795000D01*
X63581000Y-46445000D01*
X63581000Y-46445000D01*
G37*
G36*
X72081000Y-45645000D02*
X70381000Y-45645000D01*
X70381000Y-44995000D01*
X72081000Y-44995000D01*
X72081000Y-45645000D01*
X72081000Y-45645000D01*
G37*
G36*
X63581000Y-45645000D02*
X61881000Y-45645000D01*
X61881000Y-44995000D01*
X63581000Y-44995000D01*
X63581000Y-45645000D01*
X63581000Y-45645000D01*
G37*
G36*
X63581000Y-44845000D02*
X61881000Y-44845000D01*
X61881000Y-44195000D01*
X63581000Y-44195000D01*
X63581000Y-44845000D01*
X63581000Y-44845000D01*
G37*
G36*
X72081000Y-44845000D02*
X70381000Y-44845000D01*
X70381000Y-44195000D01*
X72081000Y-44195000D01*
X72081000Y-44845000D01*
X72081000Y-44845000D01*
G37*
G36*
X72081000Y-44045000D02*
X70381000Y-44045000D01*
X70381000Y-43395000D01*
X72081000Y-43395000D01*
X72081000Y-44045000D01*
X72081000Y-44045000D01*
G37*
G36*
X63581000Y-44045000D02*
X61881000Y-44045000D01*
X61881000Y-43395000D01*
X63581000Y-43395000D01*
X63581000Y-44045000D01*
X63581000Y-44045000D01*
G37*
G36*
X75403000Y-44000000D02*
X74053000Y-44000000D01*
X74053000Y-42400000D01*
X75403000Y-42400000D01*
X75403000Y-44000000D01*
X75403000Y-44000000D01*
G37*
G36*
X77689000Y-44000000D02*
X76339000Y-44000000D01*
X76339000Y-42400000D01*
X77689000Y-42400000D01*
X77689000Y-44000000D01*
X77689000Y-44000000D01*
G37*
G36*
X81200000Y-43950000D02*
X79600000Y-43950000D01*
X79600000Y-42550000D01*
X81200000Y-42550000D01*
X81200000Y-43950000D01*
X81200000Y-43950000D01*
G37*
G36*
X83900000Y-43950000D02*
X82300000Y-43950000D01*
X82300000Y-42550000D01*
X83900000Y-42550000D01*
X83900000Y-43950000D01*
X83900000Y-43950000D01*
G37*
G36*
X90990000Y-43728000D02*
X89390000Y-43728000D01*
X89390000Y-42378000D01*
X90990000Y-42378000D01*
X90990000Y-43728000D01*
X90990000Y-43728000D01*
G37*
G36*
X93490000Y-43728000D02*
X91890000Y-43728000D01*
X91890000Y-42378000D01*
X93490000Y-42378000D01*
X93490000Y-43728000D01*
X93490000Y-43728000D01*
G37*
G36*
X63581000Y-43245000D02*
X61881000Y-43245000D01*
X61881000Y-42595000D01*
X63581000Y-42595000D01*
X63581000Y-43245000D01*
X63581000Y-43245000D01*
G37*
G36*
X72081000Y-43245000D02*
X70381000Y-43245000D01*
X70381000Y-42595000D01*
X72081000Y-42595000D01*
X72081000Y-43245000D01*
X72081000Y-43245000D01*
G37*
G36*
X54152000Y-43039500D02*
X53544000Y-43039500D01*
X53544000Y-41796500D01*
X54152000Y-41796500D01*
X54152000Y-43039500D01*
X54152000Y-43039500D01*
G37*
G36*
X50342000Y-43039500D02*
X49734000Y-43039500D01*
X49734000Y-41796500D01*
X50342000Y-41796500D01*
X50342000Y-43039500D01*
X50342000Y-43039500D01*
G37*
G36*
X47802000Y-43039500D02*
X47194000Y-43039500D01*
X47194000Y-41796500D01*
X47802000Y-41796500D01*
X47802000Y-43039500D01*
X47802000Y-43039500D01*
G37*
G36*
X46532000Y-43039500D02*
X45924000Y-43039500D01*
X45924000Y-41796500D01*
X46532000Y-41796500D01*
X46532000Y-43039500D01*
X46532000Y-43039500D01*
G37*
G36*
X51612000Y-43039500D02*
X51004000Y-43039500D01*
X51004000Y-41796500D01*
X51612000Y-41796500D01*
X51612000Y-43039500D01*
X51612000Y-43039500D01*
G37*
G36*
X49072000Y-43039500D02*
X48464000Y-43039500D01*
X48464000Y-41796500D01*
X49072000Y-41796500D01*
X49072000Y-43039500D01*
X49072000Y-43039500D01*
G37*
G36*
X52882000Y-43039500D02*
X52274000Y-43039500D01*
X52274000Y-41796500D01*
X52882000Y-41796500D01*
X52882000Y-43039500D01*
X52882000Y-43039500D01*
G37*
G36*
X57317000Y-42817000D02*
X55967000Y-42817000D01*
X55967000Y-41217000D01*
X57317000Y-41217000D01*
X57317000Y-42817000D01*
X57317000Y-42817000D01*
G37*
G36*
X70106000Y-42320000D02*
X69456000Y-42320000D01*
X69456000Y-40620000D01*
X70106000Y-40620000D01*
X70106000Y-42320000D01*
X70106000Y-42320000D01*
G37*
G36*
X66106000Y-42320000D02*
X65456000Y-42320000D01*
X65456000Y-40620000D01*
X66106000Y-40620000D01*
X66106000Y-42320000D01*
X66106000Y-42320000D01*
G37*
G36*
X64506000Y-42320000D02*
X63856000Y-42320000D01*
X63856000Y-40620000D01*
X64506000Y-40620000D01*
X64506000Y-42320000D01*
X64506000Y-42320000D01*
G37*
G36*
X66906000Y-42320000D02*
X66256000Y-42320000D01*
X66256000Y-40620000D01*
X66906000Y-40620000D01*
X66906000Y-42320000D01*
X66906000Y-42320000D01*
G37*
G36*
X67706000Y-42320000D02*
X67056000Y-42320000D01*
X67056000Y-40620000D01*
X67706000Y-40620000D01*
X67706000Y-42320000D01*
X67706000Y-42320000D01*
G37*
G36*
X68506000Y-42320000D02*
X67856000Y-42320000D01*
X67856000Y-40620000D01*
X68506000Y-40620000D01*
X68506000Y-42320000D01*
X68506000Y-42320000D01*
G37*
G36*
X65306000Y-42320000D02*
X64656000Y-42320000D01*
X64656000Y-40620000D01*
X65306000Y-40620000D01*
X65306000Y-42320000D01*
X65306000Y-42320000D01*
G37*
G36*
X69306000Y-42320000D02*
X68656000Y-42320000D01*
X68656000Y-40620000D01*
X69306000Y-40620000D01*
X69306000Y-42320000D01*
X69306000Y-42320000D01*
G37*
G36*
X90876000Y-41233000D02*
X88376000Y-41233000D01*
X88376000Y-40383000D01*
X90876000Y-40383000D01*
X90876000Y-41233000D01*
X90876000Y-41233000D01*
G37*
G36*
X94776000Y-41233000D02*
X92276000Y-41233000D01*
X92276000Y-40383000D01*
X94776000Y-40383000D01*
X94776000Y-41233000D01*
X94776000Y-41233000D01*
G37*
G36*
X52570354Y-34952029D02*
X53156276Y-35072302D01*
X53707672Y-35304088D01*
X54203551Y-35638561D01*
X54625020Y-36062984D01*
X54956025Y-36561185D01*
X55183953Y-37114183D01*
X55300065Y-37700588D01*
X55300065Y-37700598D01*
X55300131Y-37700932D01*
X55290591Y-38384116D01*
X55290515Y-38384450D01*
X55290515Y-38384462D01*
X55158079Y-38967387D01*
X54914794Y-39513813D01*
X54570010Y-40002576D01*
X54136851Y-40415066D01*
X53631833Y-40735561D01*
X53074174Y-40951863D01*
X52485128Y-41055727D01*
X51887123Y-41043202D01*
X51302933Y-40914759D01*
X50754827Y-40675297D01*
X50263669Y-40333933D01*
X49848166Y-39903667D01*
X49524153Y-39400898D01*
X49303964Y-38844764D01*
X49195988Y-38256449D01*
X49204340Y-37658373D01*
X49328698Y-37073311D01*
X49564331Y-36523540D01*
X49902258Y-36030011D01*
X50329611Y-35611514D01*
X50830109Y-35283998D01*
X51384691Y-35059932D01*
X51972230Y-34947853D01*
X52570354Y-34952029D01*
X52570354Y-34952029D01*
G37*
G36*
X135320354Y-34952029D02*
X135906276Y-35072302D01*
X136457672Y-35304088D01*
X136953551Y-35638561D01*
X137375020Y-36062984D01*
X137706025Y-36561185D01*
X137933953Y-37114183D01*
X138050065Y-37700588D01*
X138050065Y-37700598D01*
X138050131Y-37700932D01*
X138040591Y-38384116D01*
X138040515Y-38384450D01*
X138040515Y-38384462D01*
X137908079Y-38967387D01*
X137664794Y-39513813D01*
X137320010Y-40002576D01*
X136886851Y-40415066D01*
X136381833Y-40735561D01*
X135824174Y-40951863D01*
X135235128Y-41055727D01*
X134637123Y-41043202D01*
X134052933Y-40914759D01*
X133504827Y-40675297D01*
X133013669Y-40333933D01*
X132598166Y-39903667D01*
X132274153Y-39400898D01*
X132053964Y-38844764D01*
X131945988Y-38256449D01*
X131954340Y-37658373D01*
X132078698Y-37073311D01*
X132314331Y-36523540D01*
X132652258Y-36030011D01*
X133079611Y-35611514D01*
X133580109Y-35283998D01*
X134134691Y-35059932D01*
X134722230Y-34947853D01*
X135320354Y-34952029D01*
X135320354Y-34952029D01*
G37*
G36*
X78750000Y-40800000D02*
X75450000Y-40800000D01*
X75450000Y-39700000D01*
X78750000Y-39700000D01*
X78750000Y-40800000D01*
X78750000Y-40800000D01*
G37*
G36*
X85550000Y-40800000D02*
X82250000Y-40800000D01*
X82250000Y-39700000D01*
X85550000Y-39700000D01*
X85550000Y-40800000D01*
X85550000Y-40800000D01*
G37*
G36*
X107475500Y-40713500D02*
X104175500Y-40713500D01*
X104175500Y-39613500D01*
X107475500Y-39613500D01*
X107475500Y-40713500D01*
X107475500Y-40713500D01*
G37*
G36*
X100675500Y-40713500D02*
X97375500Y-40713500D01*
X97375500Y-39613500D01*
X100675500Y-39613500D01*
X100675500Y-40713500D01*
X100675500Y-40713500D01*
G37*
G36*
X113439000Y-40586500D02*
X110139000Y-40586500D01*
X110139000Y-39486500D01*
X113439000Y-39486500D01*
X113439000Y-40586500D01*
X113439000Y-40586500D01*
G37*
G36*
X120239000Y-40586500D02*
X116939000Y-40586500D01*
X116939000Y-39486500D01*
X120239000Y-39486500D01*
X120239000Y-40586500D01*
X120239000Y-40586500D01*
G37*
G36*
X57317000Y-40317000D02*
X55967000Y-40317000D01*
X55967000Y-38717000D01*
X57317000Y-38717000D01*
X57317000Y-40317000D01*
X57317000Y-40317000D01*
G37*
G36*
X94776000Y-39963000D02*
X92276000Y-39963000D01*
X92276000Y-39113000D01*
X94776000Y-39113000D01*
X94776000Y-39963000D01*
X94776000Y-39963000D01*
G37*
G36*
X90876000Y-39963000D02*
X88376000Y-39963000D01*
X88376000Y-39113000D01*
X90876000Y-39113000D01*
X90876000Y-39963000D01*
X90876000Y-39963000D01*
G37*
G36*
X94776000Y-38693000D02*
X92276000Y-38693000D01*
X92276000Y-37843000D01*
X94776000Y-37843000D01*
X94776000Y-38693000D01*
X94776000Y-38693000D01*
G37*
G36*
X90876000Y-38693000D02*
X88376000Y-38693000D01*
X88376000Y-37843000D01*
X90876000Y-37843000D01*
X90876000Y-38693000D01*
X90876000Y-38693000D01*
G37*
G36*
X45188500Y-38626000D02*
X43838500Y-38626000D01*
X43838500Y-37026000D01*
X45188500Y-37026000D01*
X45188500Y-38626000D01*
X45188500Y-38626000D01*
G37*
G36*
X125724500Y-38521000D02*
X124124500Y-38521000D01*
X124124500Y-37171000D01*
X125724500Y-37171000D01*
X125724500Y-38521000D01*
X125724500Y-38521000D01*
G37*
G36*
X128224500Y-38521000D02*
X126624500Y-38521000D01*
X126624500Y-37171000D01*
X128224500Y-37171000D01*
X128224500Y-38521000D01*
X128224500Y-38521000D01*
G37*
G36*
X70421000Y-37936000D02*
X69921000Y-37936000D01*
X69921000Y-36486000D01*
X70421000Y-36486000D01*
X70421000Y-37936000D01*
X70421000Y-37936000D01*
G37*
G36*
X69771000Y-37936000D02*
X69271000Y-37936000D01*
X69271000Y-36486000D01*
X69771000Y-36486000D01*
X69771000Y-37936000D01*
X69771000Y-37936000D01*
G37*
G36*
X68471000Y-37936000D02*
X67971000Y-37936000D01*
X67971000Y-36486000D01*
X68471000Y-36486000D01*
X68471000Y-37936000D01*
X68471000Y-37936000D01*
G37*
G36*
X71071000Y-37936000D02*
X70571000Y-37936000D01*
X70571000Y-36486000D01*
X71071000Y-36486000D01*
X71071000Y-37936000D01*
X71071000Y-37936000D01*
G37*
G36*
X69121000Y-37936000D02*
X68621000Y-37936000D01*
X68621000Y-36486000D01*
X69121000Y-36486000D01*
X69121000Y-37936000D01*
X69121000Y-37936000D01*
G37*
G36*
X67521000Y-37911000D02*
X65321000Y-37911000D01*
X65321000Y-36211000D01*
X67521000Y-36211000D01*
X67521000Y-37911000D01*
X67521000Y-37911000D01*
G37*
G36*
X73721000Y-37911000D02*
X71521000Y-37911000D01*
X71521000Y-36211000D01*
X73721000Y-36211000D01*
X73721000Y-37911000D01*
X73721000Y-37911000D01*
G37*
G36*
X90876000Y-37423000D02*
X88376000Y-37423000D01*
X88376000Y-36573000D01*
X90876000Y-36573000D01*
X90876000Y-37423000D01*
X90876000Y-37423000D01*
G37*
G36*
X94776000Y-37423000D02*
X92276000Y-37423000D01*
X92276000Y-36573000D01*
X94776000Y-36573000D01*
X94776000Y-37423000D01*
X94776000Y-37423000D01*
G37*
G36*
X78750000Y-36800000D02*
X75450000Y-36800000D01*
X75450000Y-35700000D01*
X78750000Y-35700000D01*
X78750000Y-36800000D01*
X78750000Y-36800000D01*
G37*
G36*
X85550000Y-36800000D02*
X82250000Y-36800000D01*
X82250000Y-35700000D01*
X85550000Y-35700000D01*
X85550000Y-36800000D01*
X85550000Y-36800000D01*
G37*
G36*
X107475500Y-36713500D02*
X104175500Y-36713500D01*
X104175500Y-35613500D01*
X107475500Y-35613500D01*
X107475500Y-36713500D01*
X107475500Y-36713500D01*
G37*
G36*
X100675500Y-36713500D02*
X97375500Y-36713500D01*
X97375500Y-35613500D01*
X100675500Y-35613500D01*
X100675500Y-36713500D01*
X100675500Y-36713500D01*
G37*
G36*
X113439000Y-36586500D02*
X110139000Y-36586500D01*
X110139000Y-35486500D01*
X113439000Y-35486500D01*
X113439000Y-36586500D01*
X113439000Y-36586500D01*
G37*
G36*
X120239000Y-36586500D02*
X116939000Y-36586500D01*
X116939000Y-35486500D01*
X120239000Y-35486500D01*
X120239000Y-36586500D01*
X120239000Y-36586500D01*
G37*
G36*
X151338500Y-36489000D02*
X149738500Y-36489000D01*
X149738500Y-35139000D01*
X151338500Y-35139000D01*
X151338500Y-36489000D01*
X151338500Y-36489000D01*
G37*
G36*
X148838500Y-36489000D02*
X147238500Y-36489000D01*
X147238500Y-35139000D01*
X148838500Y-35139000D01*
X148838500Y-36489000D01*
X148838500Y-36489000D01*
G37*
G36*
X90876000Y-36153000D02*
X88376000Y-36153000D01*
X88376000Y-35303000D01*
X90876000Y-35303000D01*
X90876000Y-36153000D01*
X90876000Y-36153000D01*
G37*
G36*
X94776000Y-36153000D02*
X92276000Y-36153000D01*
X92276000Y-35303000D01*
X94776000Y-35303000D01*
X94776000Y-36153000D01*
X94776000Y-36153000D01*
G37*
G36*
X45188500Y-36126000D02*
X43838500Y-36126000D01*
X43838500Y-34526000D01*
X45188500Y-34526000D01*
X45188500Y-36126000D01*
X45188500Y-36126000D01*
G37*
G36*
X71621000Y-35536000D02*
X69721000Y-35536000D01*
X69721000Y-33536000D01*
X71621000Y-33536000D01*
X71621000Y-35536000D01*
X71621000Y-35536000D01*
G37*
G36*
X69321000Y-35536000D02*
X67421000Y-35536000D01*
X67421000Y-33536000D01*
X69321000Y-33536000D01*
X69321000Y-35536000D01*
X69321000Y-35536000D01*
G37*
G36*
X66671000Y-35536000D02*
X64771000Y-35536000D01*
X64771000Y-33536000D01*
X66671000Y-33536000D01*
X66671000Y-35536000D01*
X66671000Y-35536000D01*
G37*
G36*
X74271000Y-35536000D02*
X72371000Y-35536000D01*
X72371000Y-33536000D01*
X74271000Y-33536000D01*
X74271000Y-35536000D01*
X74271000Y-35536000D01*
G37*
M02*
