%FSLAX45Y45*%
G04 Gerber Fmt 4.5, Leading zero omitted, Abs format (unit mm)*
G04 Created by KiCad (PCBNEW 4.0.5+dfsg1-4) date Sat Jun 24 16:44:44 2017*
%MOMM*%
%LPD*%
G01*
G04 APERTURE LIST*
%ADD10C,0.127000*%
%ADD11C,0.150000*%
%ADD12C,0.200000*%
%ADD13C,0.300000*%
G04 APERTURE END LIST*
D10*
D11*
X15775000Y-3275000D02*
X3150000Y-3275000D01*
X15775000Y-3450000D02*
X15775000Y-3275000D01*
X14300000Y-8100000D02*
X15775000Y-3450000D01*
X3100000Y-8100000D02*
X14300000Y-8100000D01*
X3100000Y-7900000D02*
X3100000Y-8100000D01*
X4425000Y-5625000D02*
X3100000Y-7900000D01*
X3150000Y-3450000D02*
X4425000Y-5625000D01*
X3150000Y-3275000D02*
X3150000Y-3450000D01*
D12*
X3464560Y-3413760D02*
X3495040Y-3444240D01*
X3495040Y-3413760D02*
X3464560Y-3444240D01*
X3616960Y-7395210D02*
X3647440Y-7425690D01*
X3647440Y-7395210D02*
X3616960Y-7425690D01*
X3794760Y-3782060D02*
X3825240Y-3812540D01*
X3825240Y-3782060D02*
X3794760Y-3812540D01*
X3794760Y-7782560D02*
X3825240Y-7813040D01*
X3825240Y-7782560D02*
X3794760Y-7813040D01*
X3807460Y-7973060D02*
X3837940Y-8003540D01*
X3837940Y-7973060D02*
X3807460Y-8003540D01*
X3858260Y-3464560D02*
X3888740Y-3495040D01*
X3888740Y-3464560D02*
X3858260Y-3495040D01*
X4132580Y-4277360D02*
X4163060Y-4307840D01*
X4163060Y-4277360D02*
X4132580Y-4307840D01*
X4226560Y-3769360D02*
X4257040Y-3799840D01*
X4257040Y-3769360D02*
X4226560Y-3799840D01*
X4226560Y-7592060D02*
X4257040Y-7622540D01*
X4257040Y-7592060D02*
X4226560Y-7622540D01*
X4480560Y-4975860D02*
X4511040Y-5006340D01*
X4511040Y-4975860D02*
X4480560Y-5006340D01*
X4505960Y-5509260D02*
X4536440Y-5539740D01*
X4536440Y-5509260D02*
X4505960Y-5539740D01*
X4566920Y-4650740D02*
X4597400Y-4681220D01*
X4597400Y-4650740D02*
X4566920Y-4681220D01*
X4582160Y-6995160D02*
X4612640Y-7025640D01*
X4612640Y-6995160D02*
X4582160Y-7025640D01*
X4925060Y-6385560D02*
X4955540Y-6416040D01*
X4955540Y-6385560D02*
X4925060Y-6416040D01*
X4932680Y-5788660D02*
X4963160Y-5819140D01*
X4963160Y-5788660D02*
X4932680Y-5819140D01*
X5344160Y-4378960D02*
X5374640Y-4409440D01*
X5374640Y-4378960D02*
X5344160Y-4409440D01*
X5458460Y-5019040D02*
X5488940Y-5049520D01*
X5488940Y-5019040D02*
X5458460Y-5049520D01*
X5473700Y-5585460D02*
X5504180Y-5615940D01*
X5504180Y-5585460D02*
X5473700Y-5615940D01*
X5477510Y-5788660D02*
X5507990Y-5819140D01*
X5507990Y-5788660D02*
X5477510Y-5819140D01*
X5824220Y-4135120D02*
X5854700Y-4165600D01*
X5854700Y-4135120D02*
X5824220Y-4165600D01*
X5972810Y-5972810D02*
X6003290Y-6003290D01*
X6003290Y-5972810D02*
X5972810Y-6003290D01*
X5991860Y-6385560D02*
X6022340Y-6416040D01*
X6022340Y-6385560D02*
X5991860Y-6416040D01*
X6068060Y-5585460D02*
X6098540Y-5615940D01*
X6098540Y-5585460D02*
X6068060Y-5615940D01*
X6068060Y-5699760D02*
X6098540Y-5730240D01*
X6098540Y-5699760D02*
X6068060Y-5730240D01*
X6068060Y-5814060D02*
X6098540Y-5844540D01*
X6098540Y-5814060D02*
X6068060Y-5844540D01*
X6156960Y-3769360D02*
X6187440Y-3799840D01*
X6187440Y-3769360D02*
X6156960Y-3799840D01*
X6233160Y-7592060D02*
X6263640Y-7622540D01*
X6263640Y-7592060D02*
X6233160Y-7622540D01*
X6322060Y-6652260D02*
X6352540Y-6682740D01*
X6352540Y-6652260D02*
X6322060Y-6682740D01*
X6334760Y-6995160D02*
X6365240Y-7025640D01*
X6365240Y-6995160D02*
X6334760Y-7025640D01*
X6404610Y-5267960D02*
X6435090Y-5298440D01*
X6435090Y-5267960D02*
X6404610Y-5298440D01*
X6499860Y-5160010D02*
X6530340Y-5190490D01*
X6530340Y-5160010D02*
X6499860Y-5190490D01*
X6677660Y-7973060D02*
X6708140Y-8003540D01*
X6708140Y-7973060D02*
X6677660Y-8003540D01*
X6690360Y-7592060D02*
X6720840Y-7622540D01*
X6720840Y-7592060D02*
X6690360Y-7622540D01*
X6690360Y-7782560D02*
X6720840Y-7813040D01*
X6720840Y-7782560D02*
X6690360Y-7813040D01*
X6931660Y-4798060D02*
X6962140Y-4828540D01*
X6962140Y-4798060D02*
X6931660Y-4828540D01*
X7261860Y-4029710D02*
X7292340Y-4060190D01*
X7292340Y-4029710D02*
X7261860Y-4060190D01*
X7293610Y-4779010D02*
X7324090Y-4809490D01*
X7324090Y-4779010D02*
X7293610Y-4809490D01*
X7452360Y-3718560D02*
X7482840Y-3749040D01*
X7482840Y-3718560D02*
X7452360Y-3749040D01*
X7458710Y-4124960D02*
X7489190Y-4155440D01*
X7489190Y-4124960D02*
X7458710Y-4155440D01*
X7458710Y-4791710D02*
X7489190Y-4822190D01*
X7489190Y-4791710D02*
X7458710Y-4822190D01*
X7795260Y-7439660D02*
X7825740Y-7470140D01*
X7825740Y-7439660D02*
X7795260Y-7470140D01*
X7839710Y-4264660D02*
X7870190Y-4295140D01*
X7870190Y-4264660D02*
X7839710Y-4295140D01*
X7909560Y-7782560D02*
X7940040Y-7813040D01*
X7940040Y-7782560D02*
X7909560Y-7813040D01*
X7922260Y-7960360D02*
X7952740Y-7990840D01*
X7952740Y-7960360D02*
X7922260Y-7990840D01*
X8144510Y-4886960D02*
X8174990Y-4917440D01*
X8174990Y-4886960D02*
X8144510Y-4917440D01*
X8347710Y-7585710D02*
X8378190Y-7616190D01*
X8378190Y-7585710D02*
X8347710Y-7616190D01*
X8576310Y-5572760D02*
X8606790Y-5603240D01*
X8606790Y-5572760D02*
X8576310Y-5603240D01*
X8652510Y-6988810D02*
X8682990Y-7019290D01*
X8682990Y-6988810D02*
X8652510Y-7019290D01*
X8995410Y-6379210D02*
X9025890Y-6409690D01*
X9025890Y-6379210D02*
X8995410Y-6409690D01*
X9020810Y-5782310D02*
X9051290Y-5812790D01*
X9051290Y-5782310D02*
X9020810Y-5812790D01*
X9566910Y-5579110D02*
X9597390Y-5609590D01*
X9597390Y-5579110D02*
X9566910Y-5609590D01*
X9566910Y-5782310D02*
X9597390Y-5812790D01*
X9597390Y-5782310D02*
X9566910Y-5812790D01*
X9585960Y-4975860D02*
X9616440Y-5006340D01*
X9616440Y-4975860D02*
X9585960Y-5006340D01*
X9662160Y-4207510D02*
X9692640Y-4237990D01*
X9692640Y-4207510D02*
X9662160Y-4237990D01*
X9808210Y-4207510D02*
X9838690Y-4237990D01*
X9838690Y-4207510D02*
X9808210Y-4237990D01*
X9895840Y-6987540D02*
X9926320Y-7018020D01*
X9926320Y-6987540D02*
X9895840Y-7018020D01*
X9935210Y-4372610D02*
X9965690Y-4403090D01*
X9965690Y-4372610D02*
X9935210Y-4403090D01*
X9992360Y-5788660D02*
X10022840Y-5819140D01*
X10022840Y-5788660D02*
X9992360Y-5819140D01*
X9998710Y-5579110D02*
X10029190Y-5609590D01*
X10029190Y-5579110D02*
X9998710Y-5609590D01*
X10017760Y-6385560D02*
X10048240Y-6416040D01*
X10048240Y-6385560D02*
X10017760Y-6416040D01*
X10252710Y-7592060D02*
X10283190Y-7622540D01*
X10283190Y-7592060D02*
X10252710Y-7622540D01*
X10278110Y-3775710D02*
X10308590Y-3806190D01*
X10308590Y-3775710D02*
X10278110Y-3806190D01*
X10367010Y-6976110D02*
X10397490Y-7006590D01*
X10397490Y-6976110D02*
X10367010Y-7006590D01*
X10373360Y-6764020D02*
X10403840Y-6794500D01*
X10403840Y-6764020D02*
X10373360Y-6794500D01*
X10716260Y-7769860D02*
X10746740Y-7800340D01*
X10746740Y-7769860D02*
X10716260Y-7800340D01*
X10716260Y-7960360D02*
X10746740Y-7990840D01*
X10746740Y-7960360D02*
X10716260Y-7990840D01*
X10722610Y-7585710D02*
X10753090Y-7616190D01*
X10753090Y-7585710D02*
X10722610Y-7616190D01*
X10756900Y-7353300D02*
X10787380Y-7383780D01*
X10787380Y-7353300D02*
X10756900Y-7383780D01*
X11510010Y-3775710D02*
X11540490Y-3806190D01*
X11540490Y-3775710D02*
X11510010Y-3806190D01*
X11662410Y-4372610D02*
X11692890Y-4403090D01*
X11692890Y-4372610D02*
X11662410Y-4403090D01*
X11852910Y-4969510D02*
X11883390Y-4999990D01*
X11883390Y-4969510D02*
X11852910Y-4999990D01*
X12018010Y-5579110D02*
X12048490Y-5609590D01*
X12048490Y-5579110D02*
X12018010Y-5609590D01*
X12221210Y-6176010D02*
X12251690Y-6206490D01*
X12251690Y-6176010D02*
X12221210Y-6206490D01*
X12291060Y-3782060D02*
X12321540Y-3812540D01*
X12321540Y-3782060D02*
X12291060Y-3812540D01*
X12411710Y-6772910D02*
X12442190Y-6803390D01*
X12442190Y-6772910D02*
X12411710Y-6803390D01*
X12564110Y-7369810D02*
X12594590Y-7400290D01*
X12594590Y-7369810D02*
X12564110Y-7400290D01*
X12754610Y-7979410D02*
X12785090Y-8009890D01*
X12785090Y-7979410D02*
X12754610Y-8009890D01*
X13338810Y-7369810D02*
X13369290Y-7400290D01*
X13369290Y-7369810D02*
X13338810Y-7400290D01*
X13656310Y-7369810D02*
X13686790Y-7400290D01*
X13686790Y-7369810D02*
X13656310Y-7400290D01*
X13783310Y-7979410D02*
X13813790Y-8009890D01*
X13813790Y-7979410D02*
X13783310Y-8009890D01*
X13821410Y-6785610D02*
X13851890Y-6816090D01*
X13851890Y-6785610D02*
X13821410Y-6816090D01*
X13999210Y-6176010D02*
X14029690Y-6206490D01*
X14029690Y-6176010D02*
X13999210Y-6206490D01*
X14164310Y-5579110D02*
X14194790Y-5609590D01*
X14194790Y-5579110D02*
X14164310Y-5609590D01*
X14342110Y-4969510D02*
X14372590Y-4999990D01*
X14372590Y-4969510D02*
X14342110Y-4999990D01*
X14488160Y-4378960D02*
X14518640Y-4409440D01*
X14518640Y-4378960D02*
X14488160Y-4409440D01*
X14710410Y-3775710D02*
X14740890Y-3806190D01*
X14740890Y-3775710D02*
X14710410Y-3806190D01*
X15523210Y-3655060D02*
X15553690Y-3685540D01*
X15553690Y-3655060D02*
X15523210Y-3685540D01*
X5425000Y-3800000D02*
G75*
G03X5425000Y-3800000I-200000J0D01*
G01*
X13700000Y-3800000D02*
G75*
G03X13700000Y-3800000I-200000J0D01*
G01*
D13*
X3363928Y-8573214D02*
X3363928Y-8273214D01*
X3435357Y-8273214D01*
X3478214Y-8287500D01*
X3506786Y-8316071D01*
X3521071Y-8344643D01*
X3535357Y-8401786D01*
X3535357Y-8444643D01*
X3521071Y-8501786D01*
X3506786Y-8530357D01*
X3478214Y-8558929D01*
X3435357Y-8573214D01*
X3363928Y-8573214D01*
X3663928Y-8573214D02*
X3663928Y-8373214D01*
X3663928Y-8430357D02*
X3678214Y-8401786D01*
X3692500Y-8387500D01*
X3721071Y-8373214D01*
X3749643Y-8373214D01*
X3849643Y-8573214D02*
X3849643Y-8373214D01*
X3849643Y-8273214D02*
X3835357Y-8287500D01*
X3849643Y-8301786D01*
X3863928Y-8287500D01*
X3849643Y-8273214D01*
X3849643Y-8301786D01*
X4035357Y-8573214D02*
X4006786Y-8558929D01*
X3992500Y-8530357D01*
X3992500Y-8273214D01*
X4192500Y-8573214D02*
X4163928Y-8558929D01*
X4149643Y-8530357D01*
X4149643Y-8273214D01*
X4535357Y-8573214D02*
X4535357Y-8273214D01*
X4635357Y-8487500D01*
X4735357Y-8273214D01*
X4735357Y-8573214D01*
X5006786Y-8573214D02*
X5006786Y-8416072D01*
X4992500Y-8387500D01*
X4963929Y-8373214D01*
X4906786Y-8373214D01*
X4878214Y-8387500D01*
X5006786Y-8558929D02*
X4978214Y-8573214D01*
X4906786Y-8573214D01*
X4878214Y-8558929D01*
X4863929Y-8530357D01*
X4863929Y-8501786D01*
X4878214Y-8473214D01*
X4906786Y-8458929D01*
X4978214Y-8458929D01*
X5006786Y-8444643D01*
X5149643Y-8373214D02*
X5149643Y-8673214D01*
X5149643Y-8387500D02*
X5178214Y-8373214D01*
X5235357Y-8373214D01*
X5263929Y-8387500D01*
X5278214Y-8401786D01*
X5292500Y-8430357D01*
X5292500Y-8516072D01*
X5278214Y-8544643D01*
X5263929Y-8558929D01*
X5235357Y-8573214D01*
X5178214Y-8573214D01*
X5149643Y-8558929D01*
X5421071Y-8544643D02*
X5435357Y-8558929D01*
X5421071Y-8573214D01*
X5406786Y-8558929D01*
X5421071Y-8544643D01*
X5421071Y-8573214D01*
X5421071Y-8387500D02*
X5435357Y-8401786D01*
X5421071Y-8416072D01*
X5406786Y-8401786D01*
X5421071Y-8387500D01*
X5421071Y-8416072D01*
X3062020Y-9052260D02*
X3092500Y-9082740D01*
X3092500Y-9052260D02*
X3062020Y-9082740D01*
X3421071Y-8903214D02*
X3449643Y-8903214D01*
X3478214Y-8917500D01*
X3492500Y-8931786D01*
X3506786Y-8960357D01*
X3521071Y-9017500D01*
X3521071Y-9088929D01*
X3506786Y-9146072D01*
X3492500Y-9174643D01*
X3478214Y-9188929D01*
X3449643Y-9203214D01*
X3421071Y-9203214D01*
X3392500Y-9188929D01*
X3378214Y-9174643D01*
X3363928Y-9146072D01*
X3349643Y-9088929D01*
X3349643Y-9017500D01*
X3363928Y-8960357D01*
X3378214Y-8931786D01*
X3392500Y-8917500D01*
X3421071Y-8903214D01*
X3649643Y-9174643D02*
X3663928Y-9188929D01*
X3649643Y-9203214D01*
X3635357Y-9188929D01*
X3649643Y-9174643D01*
X3649643Y-9203214D01*
X3763928Y-8903214D02*
X3949643Y-8903214D01*
X3849643Y-9017500D01*
X3892500Y-9017500D01*
X3921071Y-9031786D01*
X3935357Y-9046072D01*
X3949643Y-9074643D01*
X3949643Y-9146072D01*
X3935357Y-9174643D01*
X3921071Y-9188929D01*
X3892500Y-9203214D01*
X3806786Y-9203214D01*
X3778214Y-9188929D01*
X3763928Y-9174643D01*
X4135357Y-8903214D02*
X4163928Y-8903214D01*
X4192500Y-8917500D01*
X4206786Y-8931786D01*
X4221071Y-8960357D01*
X4235357Y-9017500D01*
X4235357Y-9088929D01*
X4221071Y-9146072D01*
X4206786Y-9174643D01*
X4192500Y-9188929D01*
X4163928Y-9203214D01*
X4135357Y-9203214D01*
X4106786Y-9188929D01*
X4092500Y-9174643D01*
X4078214Y-9146072D01*
X4063928Y-9088929D01*
X4063928Y-9017500D01*
X4078214Y-8960357D01*
X4092500Y-8931786D01*
X4106786Y-8917500D01*
X4135357Y-8903214D01*
X4363929Y-9203214D02*
X4363929Y-9003214D01*
X4363929Y-9031786D02*
X4378214Y-9017500D01*
X4406786Y-9003214D01*
X4449643Y-9003214D01*
X4478214Y-9017500D01*
X4492500Y-9046072D01*
X4492500Y-9203214D01*
X4492500Y-9046072D02*
X4506786Y-9017500D01*
X4535357Y-9003214D01*
X4578214Y-9003214D01*
X4606786Y-9017500D01*
X4621071Y-9046072D01*
X4621071Y-9203214D01*
X4763929Y-9203214D02*
X4763929Y-9003214D01*
X4763929Y-9031786D02*
X4778214Y-9017500D01*
X4806786Y-9003214D01*
X4849643Y-9003214D01*
X4878214Y-9017500D01*
X4892500Y-9046072D01*
X4892500Y-9203214D01*
X4892500Y-9046072D02*
X4906786Y-9017500D01*
X4935357Y-9003214D01*
X4978214Y-9003214D01*
X5006786Y-9017500D01*
X5021071Y-9046072D01*
X5021071Y-9203214D01*
X5606786Y-8888929D02*
X5349643Y-9274643D01*
X5992500Y-8903214D02*
X6021071Y-8903214D01*
X6049643Y-8917500D01*
X6063928Y-8931786D01*
X6078214Y-8960357D01*
X6092500Y-9017500D01*
X6092500Y-9088929D01*
X6078214Y-9146072D01*
X6063928Y-9174643D01*
X6049643Y-9188929D01*
X6021071Y-9203214D01*
X5992500Y-9203214D01*
X5963928Y-9188929D01*
X5949643Y-9174643D01*
X5935357Y-9146072D01*
X5921071Y-9088929D01*
X5921071Y-9017500D01*
X5935357Y-8960357D01*
X5949643Y-8931786D01*
X5963928Y-8917500D01*
X5992500Y-8903214D01*
X6221071Y-9174643D02*
X6235357Y-9188929D01*
X6221071Y-9203214D01*
X6206786Y-9188929D01*
X6221071Y-9174643D01*
X6221071Y-9203214D01*
X6421071Y-8903214D02*
X6449643Y-8903214D01*
X6478214Y-8917500D01*
X6492500Y-8931786D01*
X6506785Y-8960357D01*
X6521071Y-9017500D01*
X6521071Y-9088929D01*
X6506785Y-9146072D01*
X6492500Y-9174643D01*
X6478214Y-9188929D01*
X6449643Y-9203214D01*
X6421071Y-9203214D01*
X6392500Y-9188929D01*
X6378214Y-9174643D01*
X6363928Y-9146072D01*
X6349643Y-9088929D01*
X6349643Y-9017500D01*
X6363928Y-8960357D01*
X6378214Y-8931786D01*
X6392500Y-8917500D01*
X6421071Y-8903214D01*
X6806785Y-9203214D02*
X6635357Y-9203214D01*
X6721071Y-9203214D02*
X6721071Y-8903214D01*
X6692500Y-8946072D01*
X6663928Y-8974643D01*
X6635357Y-8988929D01*
X6921071Y-8931786D02*
X6935357Y-8917500D01*
X6963928Y-8903214D01*
X7035357Y-8903214D01*
X7063928Y-8917500D01*
X7078214Y-8931786D01*
X7092500Y-8960357D01*
X7092500Y-8988929D01*
X7078214Y-9031786D01*
X6906785Y-9203214D01*
X7092500Y-9203214D01*
X7206786Y-8903214D02*
X7206786Y-8960357D01*
X7321071Y-8903214D02*
X7321071Y-8960357D01*
X7763928Y-9317500D02*
X7749643Y-9303214D01*
X7721071Y-9260357D01*
X7706785Y-9231786D01*
X7692500Y-9188929D01*
X7678214Y-9117500D01*
X7678214Y-9060357D01*
X7692500Y-8988929D01*
X7706785Y-8946072D01*
X7721071Y-8917500D01*
X7749643Y-8874643D01*
X7763928Y-8860357D01*
X7921071Y-9031786D02*
X7892500Y-9017500D01*
X7878214Y-9003214D01*
X7863928Y-8974643D01*
X7863928Y-8960357D01*
X7878214Y-8931786D01*
X7892500Y-8917500D01*
X7921071Y-8903214D01*
X7978214Y-8903214D01*
X8006785Y-8917500D01*
X8021071Y-8931786D01*
X8035357Y-8960357D01*
X8035357Y-8974643D01*
X8021071Y-9003214D01*
X8006785Y-9017500D01*
X7978214Y-9031786D01*
X7921071Y-9031786D01*
X7892500Y-9046072D01*
X7878214Y-9060357D01*
X7863928Y-9088929D01*
X7863928Y-9146072D01*
X7878214Y-9174643D01*
X7892500Y-9188929D01*
X7921071Y-9203214D01*
X7978214Y-9203214D01*
X8006785Y-9188929D01*
X8021071Y-9174643D01*
X8035357Y-9146072D01*
X8035357Y-9088929D01*
X8021071Y-9060357D01*
X8006785Y-9046072D01*
X7978214Y-9031786D01*
X8135357Y-8903214D02*
X8335357Y-8903214D01*
X8206785Y-9203214D01*
X8678214Y-9203214D02*
X8678214Y-8903214D01*
X8806786Y-9203214D02*
X8806786Y-9046072D01*
X8792500Y-9017500D01*
X8763928Y-9003214D01*
X8721071Y-9003214D01*
X8692500Y-9017500D01*
X8678214Y-9031786D01*
X8992500Y-9203214D02*
X8963928Y-9188929D01*
X8949643Y-9174643D01*
X8935357Y-9146072D01*
X8935357Y-9060357D01*
X8949643Y-9031786D01*
X8963928Y-9017500D01*
X8992500Y-9003214D01*
X9035357Y-9003214D01*
X9063928Y-9017500D01*
X9078214Y-9031786D01*
X9092500Y-9060357D01*
X9092500Y-9146072D01*
X9078214Y-9174643D01*
X9063928Y-9188929D01*
X9035357Y-9203214D01*
X8992500Y-9203214D01*
X9263928Y-9203214D02*
X9235357Y-9188929D01*
X9221071Y-9160357D01*
X9221071Y-8903214D01*
X9492500Y-9188929D02*
X9463929Y-9203214D01*
X9406786Y-9203214D01*
X9378214Y-9188929D01*
X9363929Y-9160357D01*
X9363929Y-9046072D01*
X9378214Y-9017500D01*
X9406786Y-9003214D01*
X9463929Y-9003214D01*
X9492500Y-9017500D01*
X9506786Y-9046072D01*
X9506786Y-9074643D01*
X9363929Y-9103214D01*
X9621071Y-9188929D02*
X9649643Y-9203214D01*
X9706786Y-9203214D01*
X9735357Y-9188929D01*
X9749643Y-9160357D01*
X9749643Y-9146072D01*
X9735357Y-9117500D01*
X9706786Y-9103214D01*
X9663929Y-9103214D01*
X9635357Y-9088929D01*
X9621071Y-9060357D01*
X9621071Y-9046072D01*
X9635357Y-9017500D01*
X9663929Y-9003214D01*
X9706786Y-9003214D01*
X9735357Y-9017500D01*
X9849643Y-9317500D02*
X9863929Y-9303214D01*
X9892500Y-9260357D01*
X9906786Y-9231786D01*
X9921071Y-9188929D01*
X9935357Y-9117500D01*
X9935357Y-9060357D01*
X9921071Y-8988929D01*
X9906786Y-8946072D01*
X9892500Y-8917500D01*
X9863929Y-8874643D01*
X9849643Y-8860357D01*
X3092500Y-9463500D02*
G75*
G03X3092500Y-9463500I-200000J0D01*
G01*
X3492500Y-9399214D02*
X3492500Y-9599214D01*
X3421071Y-9284929D02*
X3349643Y-9499214D01*
X3535357Y-9499214D01*
X3649643Y-9570643D02*
X3663928Y-9584929D01*
X3649643Y-9599214D01*
X3635357Y-9584929D01*
X3649643Y-9570643D01*
X3649643Y-9599214D01*
X3849643Y-9299214D02*
X3878214Y-9299214D01*
X3906786Y-9313500D01*
X3921071Y-9327786D01*
X3935357Y-9356357D01*
X3949643Y-9413500D01*
X3949643Y-9484929D01*
X3935357Y-9542072D01*
X3921071Y-9570643D01*
X3906786Y-9584929D01*
X3878214Y-9599214D01*
X3849643Y-9599214D01*
X3821071Y-9584929D01*
X3806786Y-9570643D01*
X3792500Y-9542072D01*
X3778214Y-9484929D01*
X3778214Y-9413500D01*
X3792500Y-9356357D01*
X3806786Y-9327786D01*
X3821071Y-9313500D01*
X3849643Y-9299214D01*
X4135357Y-9299214D02*
X4163928Y-9299214D01*
X4192500Y-9313500D01*
X4206786Y-9327786D01*
X4221071Y-9356357D01*
X4235357Y-9413500D01*
X4235357Y-9484929D01*
X4221071Y-9542072D01*
X4206786Y-9570643D01*
X4192500Y-9584929D01*
X4163928Y-9599214D01*
X4135357Y-9599214D01*
X4106786Y-9584929D01*
X4092500Y-9570643D01*
X4078214Y-9542072D01*
X4063928Y-9484929D01*
X4063928Y-9413500D01*
X4078214Y-9356357D01*
X4092500Y-9327786D01*
X4106786Y-9313500D01*
X4135357Y-9299214D01*
X4363929Y-9599214D02*
X4363929Y-9399214D01*
X4363929Y-9427786D02*
X4378214Y-9413500D01*
X4406786Y-9399214D01*
X4449643Y-9399214D01*
X4478214Y-9413500D01*
X4492500Y-9442072D01*
X4492500Y-9599214D01*
X4492500Y-9442072D02*
X4506786Y-9413500D01*
X4535357Y-9399214D01*
X4578214Y-9399214D01*
X4606786Y-9413500D01*
X4621071Y-9442072D01*
X4621071Y-9599214D01*
X4763929Y-9599214D02*
X4763929Y-9399214D01*
X4763929Y-9427786D02*
X4778214Y-9413500D01*
X4806786Y-9399214D01*
X4849643Y-9399214D01*
X4878214Y-9413500D01*
X4892500Y-9442072D01*
X4892500Y-9599214D01*
X4892500Y-9442072D02*
X4906786Y-9413500D01*
X4935357Y-9399214D01*
X4978214Y-9399214D01*
X5006786Y-9413500D01*
X5021071Y-9442072D01*
X5021071Y-9599214D01*
X5606786Y-9284929D02*
X5349643Y-9670643D01*
X5992500Y-9299214D02*
X6021071Y-9299214D01*
X6049643Y-9313500D01*
X6063928Y-9327786D01*
X6078214Y-9356357D01*
X6092500Y-9413500D01*
X6092500Y-9484929D01*
X6078214Y-9542072D01*
X6063928Y-9570643D01*
X6049643Y-9584929D01*
X6021071Y-9599214D01*
X5992500Y-9599214D01*
X5963928Y-9584929D01*
X5949643Y-9570643D01*
X5935357Y-9542072D01*
X5921071Y-9484929D01*
X5921071Y-9413500D01*
X5935357Y-9356357D01*
X5949643Y-9327786D01*
X5963928Y-9313500D01*
X5992500Y-9299214D01*
X6221071Y-9570643D02*
X6235357Y-9584929D01*
X6221071Y-9599214D01*
X6206786Y-9584929D01*
X6221071Y-9570643D01*
X6221071Y-9599214D01*
X6521071Y-9599214D02*
X6349643Y-9599214D01*
X6435357Y-9599214D02*
X6435357Y-9299214D01*
X6406785Y-9342072D01*
X6378214Y-9370643D01*
X6349643Y-9384929D01*
X6792500Y-9299214D02*
X6649643Y-9299214D01*
X6635357Y-9442072D01*
X6649643Y-9427786D01*
X6678214Y-9413500D01*
X6749643Y-9413500D01*
X6778214Y-9427786D01*
X6792500Y-9442072D01*
X6806785Y-9470643D01*
X6806785Y-9542072D01*
X6792500Y-9570643D01*
X6778214Y-9584929D01*
X6749643Y-9599214D01*
X6678214Y-9599214D01*
X6649643Y-9584929D01*
X6635357Y-9570643D01*
X6906785Y-9299214D02*
X7106785Y-9299214D01*
X6978214Y-9599214D01*
X7206786Y-9299214D02*
X7206786Y-9356357D01*
X7321071Y-9299214D02*
X7321071Y-9356357D01*
X7763928Y-9713500D02*
X7749643Y-9699214D01*
X7721071Y-9656357D01*
X7706785Y-9627786D01*
X7692500Y-9584929D01*
X7678214Y-9513500D01*
X7678214Y-9456357D01*
X7692500Y-9384929D01*
X7706785Y-9342072D01*
X7721071Y-9313500D01*
X7749643Y-9270643D01*
X7763928Y-9256357D01*
X7863928Y-9327786D02*
X7878214Y-9313500D01*
X7906785Y-9299214D01*
X7978214Y-9299214D01*
X8006785Y-9313500D01*
X8021071Y-9327786D01*
X8035357Y-9356357D01*
X8035357Y-9384929D01*
X8021071Y-9427786D01*
X7849643Y-9599214D01*
X8035357Y-9599214D01*
X8392500Y-9599214D02*
X8392500Y-9299214D01*
X8521071Y-9599214D02*
X8521071Y-9442072D01*
X8506786Y-9413500D01*
X8478214Y-9399214D01*
X8435357Y-9399214D01*
X8406786Y-9413500D01*
X8392500Y-9427786D01*
X8706786Y-9599214D02*
X8678214Y-9584929D01*
X8663928Y-9570643D01*
X8649643Y-9542072D01*
X8649643Y-9456357D01*
X8663928Y-9427786D01*
X8678214Y-9413500D01*
X8706786Y-9399214D01*
X8749643Y-9399214D01*
X8778214Y-9413500D01*
X8792500Y-9427786D01*
X8806786Y-9456357D01*
X8806786Y-9542072D01*
X8792500Y-9570643D01*
X8778214Y-9584929D01*
X8749643Y-9599214D01*
X8706786Y-9599214D01*
X8978214Y-9599214D02*
X8949643Y-9584929D01*
X8935357Y-9556357D01*
X8935357Y-9299214D01*
X9206786Y-9584929D02*
X9178214Y-9599214D01*
X9121071Y-9599214D01*
X9092500Y-9584929D01*
X9078214Y-9556357D01*
X9078214Y-9442072D01*
X9092500Y-9413500D01*
X9121071Y-9399214D01*
X9178214Y-9399214D01*
X9206786Y-9413500D01*
X9221071Y-9442072D01*
X9221071Y-9470643D01*
X9078214Y-9499214D01*
X9335357Y-9584929D02*
X9363929Y-9599214D01*
X9421071Y-9599214D01*
X9449643Y-9584929D01*
X9463929Y-9556357D01*
X9463929Y-9542072D01*
X9449643Y-9513500D01*
X9421071Y-9499214D01*
X9378214Y-9499214D01*
X9349643Y-9484929D01*
X9335357Y-9456357D01*
X9335357Y-9442072D01*
X9349643Y-9413500D01*
X9378214Y-9399214D01*
X9421071Y-9399214D01*
X9449643Y-9413500D01*
X9563928Y-9713500D02*
X9578214Y-9699214D01*
X9606786Y-9656357D01*
X9621071Y-9627786D01*
X9635357Y-9584929D01*
X9649643Y-9513500D01*
X9649643Y-9456357D01*
X9635357Y-9384929D01*
X9621071Y-9342072D01*
X9606786Y-9313500D01*
X9578214Y-9270643D01*
X9563928Y-9256357D01*
M02*
