G04 #@! TF.FileFunction,Legend,Top*
%FSLAX46Y46*%
G04 Gerber Fmt 4.6, Leading zero omitted, Abs format (unit mm)*
G04 Created by KiCad (PCBNEW 4.0.5+dfsg1-4) date Mon May 29 16:20:49 2017*
%MOMM*%
%LPD*%
G01*
G04 APERTURE LIST*
%ADD10C,0.100000*%
%ADD11C,0.300000*%
%ADD12C,0.120000*%
%ADD13C,0.150000*%
%ADD14C,0.254000*%
%ADD15R,1.400000X3.400000*%
%ADD16R,1.650000X1.900000*%
%ADD17R,1.900000X1.650000*%
%ADD18R,2.400000X2.400000*%
%ADD19R,1.400000X3.900000*%
%ADD20R,2.000000X3.800000*%
%ADD21R,0.800000X1.750000*%
%ADD22R,2.500000X2.000000*%
%ADD23R,2.200000X2.300000*%
%ADD24R,2.800000X1.150000*%
%ADD25R,1.700000X1.900000*%
%ADD26R,1.900000X1.700000*%
%ADD27R,3.600000X1.400000*%
%ADD28R,1.460000X1.050000*%
%ADD29R,0.950000X2.000000*%
%ADD30R,2.000000X0.950000*%
%ADD31R,1.200000X0.680000*%
%ADD32R,2.000000X2.550000*%
%ADD33R,1.543000X0.908000*%
%ADD34R,1.400000X2.200000*%
%ADD35R,1.200000X1.950000*%
%ADD36R,1.400000X1.950000*%
G04 APERTURE END LIST*
D10*
D11*
X158305428Y-86467143D02*
X157162571Y-86467143D01*
X157734000Y-87038571D02*
X157734000Y-85895714D01*
D12*
X171615000Y-106874000D02*
X172145000Y-106874000D01*
X172145000Y-106874000D02*
X172145000Y-109534000D01*
X172145000Y-109534000D02*
X171615000Y-109534000D01*
X131915000Y-106874000D02*
X131385000Y-106874000D01*
X131385000Y-106874000D02*
X131385000Y-109534000D01*
X131385000Y-109534000D02*
X131915000Y-109534000D01*
X170135000Y-109534000D02*
X166415000Y-109534000D01*
X165055000Y-109534000D02*
X161335000Y-109534000D01*
X159975000Y-109534000D02*
X156255000Y-109534000D01*
X154895000Y-109534000D02*
X151175000Y-109534000D01*
X149815000Y-109534000D02*
X146095000Y-109534000D01*
X144735000Y-109534000D02*
X141015000Y-109534000D01*
X139655000Y-109534000D02*
X135935000Y-109534000D01*
X134575000Y-109534000D02*
X131385000Y-109534000D01*
X172145000Y-106874000D02*
X168955000Y-106874000D01*
X171615000Y-109534000D02*
X171615000Y-111204000D01*
X167595000Y-106874000D02*
X163875000Y-106874000D01*
X162515000Y-106874000D02*
X158795000Y-106874000D01*
X157435000Y-106874000D02*
X153715000Y-106874000D01*
X152355000Y-106874000D02*
X148635000Y-106874000D01*
X147275000Y-106874000D02*
X143555000Y-106874000D01*
X142195000Y-106874000D02*
X138475000Y-106874000D01*
X137115000Y-106874000D02*
X133395000Y-106874000D01*
D13*
X146089000Y-79637000D02*
X146089000Y-80637000D01*
X147789000Y-80637000D02*
X147789000Y-79637000D01*
X139280000Y-91813000D02*
X139280000Y-90813000D01*
X137580000Y-90813000D02*
X137580000Y-91813000D01*
X125896000Y-103640000D02*
X125896000Y-104640000D01*
X127596000Y-104640000D02*
X127596000Y-103640000D01*
X143502000Y-77890000D02*
X142502000Y-77890000D01*
X142502000Y-79590000D02*
X143502000Y-79590000D01*
X130517000Y-99052000D02*
X130517000Y-98052000D01*
X128817000Y-98052000D02*
X128817000Y-99052000D01*
X138469000Y-82812000D02*
X138469000Y-83812000D01*
X140169000Y-83812000D02*
X140169000Y-82812000D01*
X127850000Y-99052000D02*
X127850000Y-98052000D01*
X126150000Y-98052000D02*
X126150000Y-99052000D01*
X171061000Y-86907000D02*
X170061000Y-86907000D01*
X170061000Y-88607000D02*
X171061000Y-88607000D01*
X167013000Y-92544000D02*
X168013000Y-92544000D01*
X168013000Y-90844000D02*
X167013000Y-90844000D01*
X122594000Y-85352000D02*
X122594000Y-86352000D01*
X124294000Y-86352000D02*
X124294000Y-85352000D01*
X118022000Y-86241000D02*
X118022000Y-87241000D01*
X119722000Y-87241000D02*
X119722000Y-86241000D01*
X120562000Y-86241000D02*
X120562000Y-87241000D01*
X122262000Y-87241000D02*
X122262000Y-86241000D01*
X158584000Y-90924000D02*
X158584000Y-89924000D01*
X156884000Y-89924000D02*
X156884000Y-90924000D01*
X163029000Y-90924000D02*
X163029000Y-89924000D01*
X161329000Y-89924000D02*
X161329000Y-90924000D01*
X160743000Y-90924000D02*
X160743000Y-89924000D01*
X159043000Y-89924000D02*
X159043000Y-90924000D01*
X168081000Y-82747000D02*
X168081000Y-81347000D01*
X168081000Y-81347000D02*
X162881000Y-81347000D01*
X162881000Y-81347000D02*
X162881000Y-82747000D01*
X168081000Y-86547000D02*
X162881000Y-86547000D01*
X162881000Y-86547000D02*
X162881000Y-85147000D01*
X168081000Y-86547000D02*
X168081000Y-85147000D01*
X156574000Y-83043000D02*
G75*
G03X156574000Y-83043000I-250000J0D01*
G01*
X154424000Y-76293000D02*
X154424000Y-77293000D01*
X154424000Y-77293000D02*
X153424000Y-77293000D01*
X153424000Y-77293000D02*
X153424000Y-76293000D01*
X155824000Y-82293000D02*
X157074000Y-82293000D01*
X157074000Y-82293000D02*
X157074000Y-83893000D01*
X157074000Y-83893000D02*
X157874000Y-83893000D01*
X157874000Y-83893000D02*
X157874000Y-79793000D01*
X157074000Y-82293000D02*
X157874000Y-82293000D01*
X152024000Y-82293000D02*
X150774000Y-82293000D01*
X150774000Y-82293000D02*
X150774000Y-83893000D01*
X150774000Y-83893000D02*
X149974000Y-83893000D01*
X149974000Y-83893000D02*
X149974000Y-79793000D01*
X150774000Y-82293000D02*
X149974000Y-82293000D01*
X156124000Y-76293000D02*
X151724000Y-76293000D01*
X156124000Y-81193000D02*
X156124000Y-77793000D01*
X156124000Y-77793000D02*
X155124000Y-77793000D01*
X155124000Y-77793000D02*
X155124000Y-81193000D01*
X155124000Y-81193000D02*
X156124000Y-81193000D01*
X151724000Y-81193000D02*
X151724000Y-77793000D01*
X151724000Y-77793000D02*
X152724000Y-77793000D01*
X152724000Y-77793000D02*
X152724000Y-81193000D01*
X152724000Y-81193000D02*
X151724000Y-81193000D01*
X154024000Y-82293000D02*
X153824000Y-82293000D01*
D12*
X120082000Y-93178000D02*
X120082000Y-93158000D01*
X120082000Y-93158000D02*
X122742000Y-93158000D01*
X122742000Y-93158000D02*
X122742000Y-93178000D01*
X120082000Y-99608000D02*
X120082000Y-99628000D01*
X120082000Y-99628000D02*
X122742000Y-99628000D01*
X122742000Y-99628000D02*
X122742000Y-99608000D01*
X117777000Y-93178000D02*
X120082000Y-93178000D01*
D13*
X130288000Y-103413000D02*
X130288000Y-104613000D01*
X128538000Y-104613000D02*
X128538000Y-103413000D01*
X122139000Y-106412000D02*
X120939000Y-106412000D01*
X120939000Y-104662000D02*
X122139000Y-104662000D01*
X166913000Y-93232000D02*
X168113000Y-93232000D01*
X168113000Y-94982000D02*
X166913000Y-94982000D01*
X133618000Y-79467000D02*
X133618000Y-78267000D01*
X135368000Y-78267000D02*
X135368000Y-79467000D01*
X143204000Y-95552000D02*
X143204000Y-95752000D01*
X143204000Y-101552000D02*
X143204000Y-101352000D01*
X136704000Y-101552000D02*
X136704000Y-101352000D01*
X136704000Y-95552000D02*
X136704000Y-95752000D01*
X136704000Y-97352000D02*
X136704000Y-99752000D01*
X143204000Y-97352000D02*
X143204000Y-99752000D01*
X143204000Y-95552000D02*
X136704000Y-95552000D01*
X136704000Y-101552000D02*
X143204000Y-101552000D01*
X140954000Y-98552000D02*
G75*
G03X140954000Y-98552000I-1000000J0D01*
G01*
X141454000Y-98552000D02*
G75*
G03X141454000Y-98552000I-1500000J0D01*
G01*
D12*
X143775000Y-82210000D02*
X141975000Y-82210000D01*
X141975000Y-85430000D02*
X144425000Y-85430000D01*
D13*
X126550000Y-90747000D02*
X126775000Y-90747000D01*
X126550000Y-83497000D02*
X126875000Y-83497000D01*
X133800000Y-83497000D02*
X133475000Y-83497000D01*
X133800000Y-90747000D02*
X133475000Y-90747000D01*
X126550000Y-90747000D02*
X126550000Y-90422000D01*
X133800000Y-90747000D02*
X133800000Y-90422000D01*
X133800000Y-83497000D02*
X133800000Y-83822000D01*
X126550000Y-83497000D02*
X126550000Y-83822000D01*
X126775000Y-90747000D02*
X126775000Y-92172000D01*
X147828000Y-87630000D02*
X152654000Y-87630000D01*
X152654000Y-87630000D02*
X152654000Y-97790000D01*
X152654000Y-97790000D02*
X147828000Y-97790000D01*
X147828000Y-97790000D02*
X147828000Y-87630000D01*
X149606000Y-97790000D02*
X149606000Y-97155000D01*
X149606000Y-97155000D02*
X150876000Y-97155000D01*
X150876000Y-97155000D02*
X150876000Y-97790000D01*
X127897000Y-95388000D02*
X128897000Y-95388000D01*
X127897000Y-93588000D02*
X128897000Y-93588000D01*
X173597381Y-108942095D02*
X172597381Y-108942095D01*
X172597381Y-108561142D01*
X172645000Y-108465904D01*
X172692619Y-108418285D01*
X172787857Y-108370666D01*
X172930714Y-108370666D01*
X173025952Y-108418285D01*
X173073571Y-108465904D01*
X173121190Y-108561142D01*
X173121190Y-108942095D01*
X172930714Y-107513523D02*
X173597381Y-107513523D01*
X172549762Y-107751619D02*
X173264048Y-107989714D01*
X173264048Y-107370666D01*
X147296143Y-77255666D02*
X147343762Y-77303285D01*
X147391381Y-77446142D01*
X147391381Y-77541380D01*
X147343762Y-77684238D01*
X147248524Y-77779476D01*
X147153286Y-77827095D01*
X146962810Y-77874714D01*
X146819952Y-77874714D01*
X146629476Y-77827095D01*
X146534238Y-77779476D01*
X146439000Y-77684238D01*
X146391381Y-77541380D01*
X146391381Y-77446142D01*
X146439000Y-77303285D01*
X146486619Y-77255666D01*
X147391381Y-76303285D02*
X147391381Y-76874714D01*
X147391381Y-76589000D02*
X146391381Y-76589000D01*
X146534238Y-76684238D01*
X146629476Y-76779476D01*
X146677095Y-76874714D01*
X140887143Y-91479666D02*
X140934762Y-91527285D01*
X140982381Y-91670142D01*
X140982381Y-91765380D01*
X140934762Y-91908238D01*
X140839524Y-92003476D01*
X140744286Y-92051095D01*
X140553810Y-92098714D01*
X140410952Y-92098714D01*
X140220476Y-92051095D01*
X140125238Y-92003476D01*
X140030000Y-91908238D01*
X139982381Y-91765380D01*
X139982381Y-91670142D01*
X140030000Y-91527285D01*
X140077619Y-91479666D01*
X140077619Y-91098714D02*
X140030000Y-91051095D01*
X139982381Y-90955857D01*
X139982381Y-90717761D01*
X140030000Y-90622523D01*
X140077619Y-90574904D01*
X140172857Y-90527285D01*
X140268095Y-90527285D01*
X140410952Y-90574904D01*
X140982381Y-91146333D01*
X140982381Y-90527285D01*
X127230143Y-107735666D02*
X127277762Y-107783285D01*
X127325381Y-107926142D01*
X127325381Y-108021380D01*
X127277762Y-108164238D01*
X127182524Y-108259476D01*
X127087286Y-108307095D01*
X126896810Y-108354714D01*
X126753952Y-108354714D01*
X126563476Y-108307095D01*
X126468238Y-108259476D01*
X126373000Y-108164238D01*
X126325381Y-108021380D01*
X126325381Y-107926142D01*
X126373000Y-107783285D01*
X126420619Y-107735666D01*
X126325381Y-107402333D02*
X126325381Y-106783285D01*
X126706333Y-107116619D01*
X126706333Y-106973761D01*
X126753952Y-106878523D01*
X126801571Y-106830904D01*
X126896810Y-106783285D01*
X127134905Y-106783285D01*
X127230143Y-106830904D01*
X127277762Y-106878523D01*
X127325381Y-106973761D01*
X127325381Y-107259476D01*
X127277762Y-107354714D01*
X127230143Y-107402333D01*
X144105334Y-77573143D02*
X144057715Y-77620762D01*
X143914858Y-77668381D01*
X143819620Y-77668381D01*
X143676762Y-77620762D01*
X143581524Y-77525524D01*
X143533905Y-77430286D01*
X143486286Y-77239810D01*
X143486286Y-77096952D01*
X143533905Y-76906476D01*
X143581524Y-76811238D01*
X143676762Y-76716000D01*
X143819620Y-76668381D01*
X143914858Y-76668381D01*
X144057715Y-76716000D01*
X144105334Y-76763619D01*
X144962477Y-77001714D02*
X144962477Y-77668381D01*
X144724381Y-76620762D02*
X144486286Y-77335048D01*
X145105334Y-77335048D01*
X130024143Y-98718666D02*
X130071762Y-98766285D01*
X130119381Y-98909142D01*
X130119381Y-99004380D01*
X130071762Y-99147238D01*
X129976524Y-99242476D01*
X129881286Y-99290095D01*
X129690810Y-99337714D01*
X129547952Y-99337714D01*
X129357476Y-99290095D01*
X129262238Y-99242476D01*
X129167000Y-99147238D01*
X129119381Y-99004380D01*
X129119381Y-98909142D01*
X129167000Y-98766285D01*
X129214619Y-98718666D01*
X129119381Y-97813904D02*
X129119381Y-98290095D01*
X129595571Y-98337714D01*
X129547952Y-98290095D01*
X129500333Y-98194857D01*
X129500333Y-97956761D01*
X129547952Y-97861523D01*
X129595571Y-97813904D01*
X129690810Y-97766285D01*
X129928905Y-97766285D01*
X130024143Y-97813904D01*
X130071762Y-97861523D01*
X130119381Y-97956761D01*
X130119381Y-98194857D01*
X130071762Y-98290095D01*
X130024143Y-98337714D01*
X137576143Y-83478666D02*
X137623762Y-83526285D01*
X137671381Y-83669142D01*
X137671381Y-83764380D01*
X137623762Y-83907238D01*
X137528524Y-84002476D01*
X137433286Y-84050095D01*
X137242810Y-84097714D01*
X137099952Y-84097714D01*
X136909476Y-84050095D01*
X136814238Y-84002476D01*
X136719000Y-83907238D01*
X136671381Y-83764380D01*
X136671381Y-83669142D01*
X136719000Y-83526285D01*
X136766619Y-83478666D01*
X136671381Y-82621523D02*
X136671381Y-82812000D01*
X136719000Y-82907238D01*
X136766619Y-82954857D01*
X136909476Y-83050095D01*
X137099952Y-83097714D01*
X137480905Y-83097714D01*
X137576143Y-83050095D01*
X137623762Y-83002476D01*
X137671381Y-82907238D01*
X137671381Y-82716761D01*
X137623762Y-82621523D01*
X137576143Y-82573904D01*
X137480905Y-82526285D01*
X137242810Y-82526285D01*
X137147571Y-82573904D01*
X137099952Y-82621523D01*
X137052333Y-82716761D01*
X137052333Y-82907238D01*
X137099952Y-83002476D01*
X137147571Y-83050095D01*
X137242810Y-83097714D01*
X127484143Y-98718666D02*
X127531762Y-98766285D01*
X127579381Y-98909142D01*
X127579381Y-99004380D01*
X127531762Y-99147238D01*
X127436524Y-99242476D01*
X127341286Y-99290095D01*
X127150810Y-99337714D01*
X127007952Y-99337714D01*
X126817476Y-99290095D01*
X126722238Y-99242476D01*
X126627000Y-99147238D01*
X126579381Y-99004380D01*
X126579381Y-98909142D01*
X126627000Y-98766285D01*
X126674619Y-98718666D01*
X126579381Y-98385333D02*
X126579381Y-97718666D01*
X127579381Y-98147238D01*
X170394334Y-86014143D02*
X170346715Y-86061762D01*
X170203858Y-86109381D01*
X170108620Y-86109381D01*
X169965762Y-86061762D01*
X169870524Y-85966524D01*
X169822905Y-85871286D01*
X169775286Y-85680810D01*
X169775286Y-85537952D01*
X169822905Y-85347476D01*
X169870524Y-85252238D01*
X169965762Y-85157000D01*
X170108620Y-85109381D01*
X170203858Y-85109381D01*
X170346715Y-85157000D01*
X170394334Y-85204619D01*
X170965762Y-85537952D02*
X170870524Y-85490333D01*
X170822905Y-85442714D01*
X170775286Y-85347476D01*
X170775286Y-85299857D01*
X170822905Y-85204619D01*
X170870524Y-85157000D01*
X170965762Y-85109381D01*
X171156239Y-85109381D01*
X171251477Y-85157000D01*
X171299096Y-85204619D01*
X171346715Y-85299857D01*
X171346715Y-85347476D01*
X171299096Y-85442714D01*
X171251477Y-85490333D01*
X171156239Y-85537952D01*
X170965762Y-85537952D01*
X170870524Y-85585571D01*
X170822905Y-85633190D01*
X170775286Y-85728429D01*
X170775286Y-85918905D01*
X170822905Y-86014143D01*
X170870524Y-86061762D01*
X170965762Y-86109381D01*
X171156239Y-86109381D01*
X171251477Y-86061762D01*
X171299096Y-86014143D01*
X171346715Y-85918905D01*
X171346715Y-85728429D01*
X171299096Y-85633190D01*
X171251477Y-85585571D01*
X171156239Y-85537952D01*
X170521334Y-91924143D02*
X170473715Y-91971762D01*
X170330858Y-92019381D01*
X170235620Y-92019381D01*
X170092762Y-91971762D01*
X169997524Y-91876524D01*
X169949905Y-91781286D01*
X169902286Y-91590810D01*
X169902286Y-91447952D01*
X169949905Y-91257476D01*
X169997524Y-91162238D01*
X170092762Y-91067000D01*
X170235620Y-91019381D01*
X170330858Y-91019381D01*
X170473715Y-91067000D01*
X170521334Y-91114619D01*
X170997524Y-92019381D02*
X171188000Y-92019381D01*
X171283239Y-91971762D01*
X171330858Y-91924143D01*
X171426096Y-91781286D01*
X171473715Y-91590810D01*
X171473715Y-91209857D01*
X171426096Y-91114619D01*
X171378477Y-91067000D01*
X171283239Y-91019381D01*
X171092762Y-91019381D01*
X170997524Y-91067000D01*
X170949905Y-91114619D01*
X170902286Y-91209857D01*
X170902286Y-91447952D01*
X170949905Y-91543190D01*
X170997524Y-91590810D01*
X171092762Y-91638429D01*
X171283239Y-91638429D01*
X171378477Y-91590810D01*
X171426096Y-91543190D01*
X171473715Y-91447952D01*
X123801143Y-90177857D02*
X123848762Y-90225476D01*
X123896381Y-90368333D01*
X123896381Y-90463571D01*
X123848762Y-90606429D01*
X123753524Y-90701667D01*
X123658286Y-90749286D01*
X123467810Y-90796905D01*
X123324952Y-90796905D01*
X123134476Y-90749286D01*
X123039238Y-90701667D01*
X122944000Y-90606429D01*
X122896381Y-90463571D01*
X122896381Y-90368333D01*
X122944000Y-90225476D01*
X122991619Y-90177857D01*
X123896381Y-89225476D02*
X123896381Y-89796905D01*
X123896381Y-89511191D02*
X122896381Y-89511191D01*
X123039238Y-89606429D01*
X123134476Y-89701667D01*
X123182095Y-89796905D01*
X122896381Y-88606429D02*
X122896381Y-88511190D01*
X122944000Y-88415952D01*
X122991619Y-88368333D01*
X123086857Y-88320714D01*
X123277333Y-88273095D01*
X123515429Y-88273095D01*
X123705905Y-88320714D01*
X123801143Y-88368333D01*
X123848762Y-88415952D01*
X123896381Y-88511190D01*
X123896381Y-88606429D01*
X123848762Y-88701667D01*
X123801143Y-88749286D01*
X123705905Y-88796905D01*
X123515429Y-88844524D01*
X123277333Y-88844524D01*
X123086857Y-88796905D01*
X122991619Y-88749286D01*
X122944000Y-88701667D01*
X122896381Y-88606429D01*
X119102143Y-90939857D02*
X119149762Y-90987476D01*
X119197381Y-91130333D01*
X119197381Y-91225571D01*
X119149762Y-91368429D01*
X119054524Y-91463667D01*
X118959286Y-91511286D01*
X118768810Y-91558905D01*
X118625952Y-91558905D01*
X118435476Y-91511286D01*
X118340238Y-91463667D01*
X118245000Y-91368429D01*
X118197381Y-91225571D01*
X118197381Y-91130333D01*
X118245000Y-90987476D01*
X118292619Y-90939857D01*
X119197381Y-89987476D02*
X119197381Y-90558905D01*
X119197381Y-90273191D02*
X118197381Y-90273191D01*
X118340238Y-90368429D01*
X118435476Y-90463667D01*
X118483095Y-90558905D01*
X119197381Y-89035095D02*
X119197381Y-89606524D01*
X119197381Y-89320810D02*
X118197381Y-89320810D01*
X118340238Y-89416048D01*
X118435476Y-89511286D01*
X118483095Y-89606524D01*
X121769143Y-90939857D02*
X121816762Y-90987476D01*
X121864381Y-91130333D01*
X121864381Y-91225571D01*
X121816762Y-91368429D01*
X121721524Y-91463667D01*
X121626286Y-91511286D01*
X121435810Y-91558905D01*
X121292952Y-91558905D01*
X121102476Y-91511286D01*
X121007238Y-91463667D01*
X120912000Y-91368429D01*
X120864381Y-91225571D01*
X120864381Y-91130333D01*
X120912000Y-90987476D01*
X120959619Y-90939857D01*
X121864381Y-89987476D02*
X121864381Y-90558905D01*
X121864381Y-90273191D02*
X120864381Y-90273191D01*
X121007238Y-90368429D01*
X121102476Y-90463667D01*
X121150095Y-90558905D01*
X120959619Y-89606524D02*
X120912000Y-89558905D01*
X120864381Y-89463667D01*
X120864381Y-89225571D01*
X120912000Y-89130333D01*
X120959619Y-89082714D01*
X121054857Y-89035095D01*
X121150095Y-89035095D01*
X121292952Y-89082714D01*
X121864381Y-89654143D01*
X121864381Y-89035095D01*
X156948143Y-94622857D02*
X156995762Y-94670476D01*
X157043381Y-94813333D01*
X157043381Y-94908571D01*
X156995762Y-95051429D01*
X156900524Y-95146667D01*
X156805286Y-95194286D01*
X156614810Y-95241905D01*
X156471952Y-95241905D01*
X156281476Y-95194286D01*
X156186238Y-95146667D01*
X156091000Y-95051429D01*
X156043381Y-94908571D01*
X156043381Y-94813333D01*
X156091000Y-94670476D01*
X156138619Y-94622857D01*
X157043381Y-93670476D02*
X157043381Y-94241905D01*
X157043381Y-93956191D02*
X156043381Y-93956191D01*
X156186238Y-94051429D01*
X156281476Y-94146667D01*
X156329095Y-94241905D01*
X156043381Y-93337143D02*
X156043381Y-92718095D01*
X156424333Y-93051429D01*
X156424333Y-92908571D01*
X156471952Y-92813333D01*
X156519571Y-92765714D01*
X156614810Y-92718095D01*
X156852905Y-92718095D01*
X156948143Y-92765714D01*
X156995762Y-92813333D01*
X157043381Y-92908571D01*
X157043381Y-93194286D01*
X156995762Y-93289524D01*
X156948143Y-93337143D01*
X162536143Y-94622857D02*
X162583762Y-94670476D01*
X162631381Y-94813333D01*
X162631381Y-94908571D01*
X162583762Y-95051429D01*
X162488524Y-95146667D01*
X162393286Y-95194286D01*
X162202810Y-95241905D01*
X162059952Y-95241905D01*
X161869476Y-95194286D01*
X161774238Y-95146667D01*
X161679000Y-95051429D01*
X161631381Y-94908571D01*
X161631381Y-94813333D01*
X161679000Y-94670476D01*
X161726619Y-94622857D01*
X162631381Y-93670476D02*
X162631381Y-94241905D01*
X162631381Y-93956191D02*
X161631381Y-93956191D01*
X161774238Y-94051429D01*
X161869476Y-94146667D01*
X161917095Y-94241905D01*
X161964714Y-92813333D02*
X162631381Y-92813333D01*
X161583762Y-93051429D02*
X162298048Y-93289524D01*
X162298048Y-92670476D01*
X160123143Y-94622857D02*
X160170762Y-94670476D01*
X160218381Y-94813333D01*
X160218381Y-94908571D01*
X160170762Y-95051429D01*
X160075524Y-95146667D01*
X159980286Y-95194286D01*
X159789810Y-95241905D01*
X159646952Y-95241905D01*
X159456476Y-95194286D01*
X159361238Y-95146667D01*
X159266000Y-95051429D01*
X159218381Y-94908571D01*
X159218381Y-94813333D01*
X159266000Y-94670476D01*
X159313619Y-94622857D01*
X160218381Y-93670476D02*
X160218381Y-94241905D01*
X160218381Y-93956191D02*
X159218381Y-93956191D01*
X159361238Y-94051429D01*
X159456476Y-94146667D01*
X159504095Y-94241905D01*
X159218381Y-92765714D02*
X159218381Y-93241905D01*
X159694571Y-93289524D01*
X159646952Y-93241905D01*
X159599333Y-93146667D01*
X159599333Y-92908571D01*
X159646952Y-92813333D01*
X159694571Y-92765714D01*
X159789810Y-92718095D01*
X160027905Y-92718095D01*
X160123143Y-92765714D01*
X160170762Y-92813333D01*
X160218381Y-92908571D01*
X160218381Y-93146667D01*
X160170762Y-93241905D01*
X160123143Y-93289524D01*
X165314334Y-82494381D02*
X164838143Y-82494381D01*
X164838143Y-81494381D01*
X166171477Y-82494381D02*
X165600048Y-82494381D01*
X165885762Y-82494381D02*
X165885762Y-81494381D01*
X165790524Y-81637238D01*
X165695286Y-81732476D01*
X165600048Y-81780095D01*
X153185905Y-78938381D02*
X153185905Y-77938381D01*
X153566858Y-77938381D01*
X153662096Y-77986000D01*
X153709715Y-78033619D01*
X153757334Y-78128857D01*
X153757334Y-78271714D01*
X153709715Y-78366952D01*
X153662096Y-78414571D01*
X153566858Y-78462190D01*
X153185905Y-78462190D01*
X154709715Y-78938381D02*
X154138286Y-78938381D01*
X154424000Y-78938381D02*
X154424000Y-77938381D01*
X154328762Y-78081238D01*
X154233524Y-78176476D01*
X154138286Y-78224095D01*
X126395286Y-82217857D02*
X126395286Y-81017857D01*
X126852429Y-81017857D01*
X126966715Y-81075000D01*
X127023858Y-81132143D01*
X127081001Y-81246429D01*
X127081001Y-81417857D01*
X127023858Y-81532143D01*
X126966715Y-81589286D01*
X126852429Y-81646429D01*
X126395286Y-81646429D01*
X127538143Y-81132143D02*
X127595286Y-81075000D01*
X127709572Y-81017857D01*
X127995286Y-81017857D01*
X128109572Y-81075000D01*
X128166715Y-81132143D01*
X128223858Y-81246429D01*
X128223858Y-81360714D01*
X128166715Y-81532143D01*
X127481001Y-82217857D01*
X128223858Y-82217857D01*
X117371905Y-101544381D02*
X117371905Y-100544381D01*
X117752858Y-100544381D01*
X117848096Y-100592000D01*
X117895715Y-100639619D01*
X117943334Y-100734857D01*
X117943334Y-100877714D01*
X117895715Y-100972952D01*
X117848096Y-101020571D01*
X117752858Y-101068190D01*
X117371905Y-101068190D01*
X118276667Y-100544381D02*
X118895715Y-100544381D01*
X118562381Y-100925333D01*
X118705239Y-100925333D01*
X118800477Y-100972952D01*
X118848096Y-101020571D01*
X118895715Y-101115810D01*
X118895715Y-101353905D01*
X118848096Y-101449143D01*
X118800477Y-101496762D01*
X118705239Y-101544381D01*
X118419524Y-101544381D01*
X118324286Y-101496762D01*
X118276667Y-101449143D01*
X129611381Y-107608666D02*
X129135190Y-107942000D01*
X129611381Y-108180095D02*
X128611381Y-108180095D01*
X128611381Y-107799142D01*
X128659000Y-107703904D01*
X128706619Y-107656285D01*
X128801857Y-107608666D01*
X128944714Y-107608666D01*
X129039952Y-107656285D01*
X129087571Y-107703904D01*
X129135190Y-107799142D01*
X129135190Y-108180095D01*
X129611381Y-106656285D02*
X129611381Y-107227714D01*
X129611381Y-106942000D02*
X128611381Y-106942000D01*
X128754238Y-107037238D01*
X128849476Y-107132476D01*
X128897095Y-107227714D01*
X117943334Y-106116381D02*
X117610000Y-105640190D01*
X117371905Y-106116381D02*
X117371905Y-105116381D01*
X117752858Y-105116381D01*
X117848096Y-105164000D01*
X117895715Y-105211619D01*
X117943334Y-105306857D01*
X117943334Y-105449714D01*
X117895715Y-105544952D01*
X117848096Y-105592571D01*
X117752858Y-105640190D01*
X117371905Y-105640190D01*
X118324286Y-105211619D02*
X118371905Y-105164000D01*
X118467143Y-105116381D01*
X118705239Y-105116381D01*
X118800477Y-105164000D01*
X118848096Y-105211619D01*
X118895715Y-105306857D01*
X118895715Y-105402095D01*
X118848096Y-105544952D01*
X118276667Y-106116381D01*
X118895715Y-106116381D01*
X170648334Y-94686381D02*
X170315000Y-94210190D01*
X170076905Y-94686381D02*
X170076905Y-93686381D01*
X170457858Y-93686381D01*
X170553096Y-93734000D01*
X170600715Y-93781619D01*
X170648334Y-93876857D01*
X170648334Y-94019714D01*
X170600715Y-94114952D01*
X170553096Y-94162571D01*
X170457858Y-94210190D01*
X170076905Y-94210190D01*
X170981667Y-93686381D02*
X171600715Y-93686381D01*
X171267381Y-94067333D01*
X171410239Y-94067333D01*
X171505477Y-94114952D01*
X171553096Y-94162571D01*
X171600715Y-94257810D01*
X171600715Y-94495905D01*
X171553096Y-94591143D01*
X171505477Y-94638762D01*
X171410239Y-94686381D01*
X171124524Y-94686381D01*
X171029286Y-94638762D01*
X170981667Y-94591143D01*
X137045381Y-79033666D02*
X136569190Y-79367000D01*
X137045381Y-79605095D02*
X136045381Y-79605095D01*
X136045381Y-79224142D01*
X136093000Y-79128904D01*
X136140619Y-79081285D01*
X136235857Y-79033666D01*
X136378714Y-79033666D01*
X136473952Y-79081285D01*
X136521571Y-79128904D01*
X136569190Y-79224142D01*
X136569190Y-79605095D01*
X136378714Y-78176523D02*
X137045381Y-78176523D01*
X135997762Y-78414619D02*
X136712048Y-78652714D01*
X136712048Y-78033666D01*
X137620667Y-94956762D02*
X137763524Y-95004381D01*
X138001620Y-95004381D01*
X138096858Y-94956762D01*
X138144477Y-94909143D01*
X138192096Y-94813905D01*
X138192096Y-94718667D01*
X138144477Y-94623429D01*
X138096858Y-94575810D01*
X138001620Y-94528190D01*
X137811143Y-94480571D01*
X137715905Y-94432952D01*
X137668286Y-94385333D01*
X137620667Y-94290095D01*
X137620667Y-94194857D01*
X137668286Y-94099619D01*
X137715905Y-94052000D01*
X137811143Y-94004381D01*
X138049239Y-94004381D01*
X138192096Y-94052000D01*
X138525429Y-94004381D02*
X138763524Y-95004381D01*
X138954001Y-94290095D01*
X139144477Y-95004381D01*
X139382572Y-94004381D01*
X140287334Y-95004381D02*
X139715905Y-95004381D01*
X140001619Y-95004381D02*
X140001619Y-94004381D01*
X139906381Y-94147238D01*
X139811143Y-94242476D01*
X139715905Y-94290095D01*
X142113095Y-86172381D02*
X142113095Y-86981905D01*
X142160714Y-87077143D01*
X142208333Y-87124762D01*
X142303571Y-87172381D01*
X142494048Y-87172381D01*
X142589286Y-87124762D01*
X142636905Y-87077143D01*
X142684524Y-86981905D01*
X142684524Y-86172381D01*
X143684524Y-87172381D02*
X143113095Y-87172381D01*
X143398809Y-87172381D02*
X143398809Y-86172381D01*
X143303571Y-86315238D01*
X143208333Y-86410476D01*
X143113095Y-86458095D01*
X125182381Y-92074905D02*
X125991905Y-92074905D01*
X126087143Y-92027286D01*
X126134762Y-91979667D01*
X126182381Y-91884429D01*
X126182381Y-91693952D01*
X126134762Y-91598714D01*
X126087143Y-91551095D01*
X125991905Y-91503476D01*
X125182381Y-91503476D01*
X125277619Y-91074905D02*
X125230000Y-91027286D01*
X125182381Y-90932048D01*
X125182381Y-90693952D01*
X125230000Y-90598714D01*
X125277619Y-90551095D01*
X125372857Y-90503476D01*
X125468095Y-90503476D01*
X125610952Y-90551095D01*
X126182381Y-91122524D01*
X126182381Y-90503476D01*
X163423714Y-90020857D02*
X163423714Y-90992286D01*
X163480857Y-91106571D01*
X163538000Y-91163714D01*
X163652286Y-91220857D01*
X163880857Y-91220857D01*
X163995143Y-91163714D01*
X164052286Y-91106571D01*
X164109429Y-90992286D01*
X164109429Y-90020857D01*
X164566572Y-90020857D02*
X165309429Y-90020857D01*
X164909429Y-90478000D01*
X165080857Y-90478000D01*
X165195143Y-90535143D01*
X165252286Y-90592286D01*
X165309429Y-90706571D01*
X165309429Y-90992286D01*
X165252286Y-91106571D01*
X165195143Y-91163714D01*
X165080857Y-91220857D01*
X164738000Y-91220857D01*
X164623714Y-91163714D01*
X164566572Y-91106571D01*
X148296381Y-93471905D02*
X149105905Y-93471905D01*
X149201143Y-93424286D01*
X149248762Y-93376667D01*
X149296381Y-93281429D01*
X149296381Y-93090952D01*
X149248762Y-92995714D01*
X149201143Y-92948095D01*
X149105905Y-92900476D01*
X148296381Y-92900476D01*
X148629714Y-91995714D02*
X149296381Y-91995714D01*
X148248762Y-92233810D02*
X148963048Y-92471905D01*
X148963048Y-91852857D01*
X130968809Y-94464190D02*
X130968809Y-94940381D01*
X130635476Y-93940381D02*
X130968809Y-94464190D01*
X131302143Y-93940381D01*
X132159286Y-94940381D02*
X131587857Y-94940381D01*
X131873571Y-94940381D02*
X131873571Y-93940381D01*
X131778333Y-94083238D01*
X131683095Y-94178476D01*
X131587857Y-94226095D01*
%LPC*%
D14*
X162892620Y-76266524D02*
X163739286Y-77536524D01*
X163739286Y-76266524D02*
X162892620Y-77536524D01*
X164102144Y-76266524D02*
X164948810Y-77536524D01*
X164948810Y-76266524D02*
X164102144Y-77536524D01*
X165251191Y-76266524D02*
X165674525Y-77536524D01*
X166097858Y-76266524D01*
X168214524Y-77536524D02*
X167791191Y-76931762D01*
X167488810Y-77536524D02*
X167488810Y-76266524D01*
X167972619Y-76266524D01*
X168093572Y-76327000D01*
X168154048Y-76387476D01*
X168214524Y-76508429D01*
X168214524Y-76689857D01*
X168154048Y-76810810D01*
X168093572Y-76871286D01*
X167972619Y-76931762D01*
X167488810Y-76931762D01*
X169242619Y-77476048D02*
X169121667Y-77536524D01*
X168879762Y-77536524D01*
X168758810Y-77476048D01*
X168698334Y-77355095D01*
X168698334Y-76871286D01*
X168758810Y-76750333D01*
X168879762Y-76689857D01*
X169121667Y-76689857D01*
X169242619Y-76750333D01*
X169303096Y-76871286D01*
X169303096Y-76992238D01*
X168698334Y-77113190D01*
X169726429Y-76689857D02*
X170028810Y-77536524D01*
X170331190Y-76689857D01*
X171722143Y-77173667D02*
X172326905Y-77173667D01*
X171601190Y-77536524D02*
X172024524Y-76266524D01*
X172447857Y-77536524D01*
D15*
X168275000Y-106704000D03*
X163195000Y-106704000D03*
X158115000Y-106704000D03*
X153035000Y-106704000D03*
X147955000Y-106704000D03*
X142875000Y-106704000D03*
X137795000Y-106704000D03*
X132715000Y-106704000D03*
X170815000Y-109704000D03*
X165735000Y-109704000D03*
X160655000Y-109704000D03*
X155575000Y-109704000D03*
X150495000Y-109704000D03*
X145415000Y-109704000D03*
X140335000Y-109704000D03*
X135255000Y-109704000D03*
D16*
X146939000Y-81387000D03*
X146939000Y-78887000D03*
X138430000Y-90063000D03*
X138430000Y-92563000D03*
X126746000Y-105390000D03*
X126746000Y-102890000D03*
D17*
X141752000Y-78740000D03*
X144252000Y-78740000D03*
D16*
X129667000Y-97302000D03*
X129667000Y-99802000D03*
X139319000Y-84562000D03*
X139319000Y-82062000D03*
X127000000Y-97302000D03*
X127000000Y-99802000D03*
D17*
X169311000Y-87757000D03*
X171811000Y-87757000D03*
X168763000Y-91694000D03*
X166263000Y-91694000D03*
D16*
X123444000Y-87102000D03*
X123444000Y-84602000D03*
X118872000Y-87991000D03*
X118872000Y-85491000D03*
X121412000Y-87991000D03*
X121412000Y-85491000D03*
X157734000Y-89174000D03*
X157734000Y-91674000D03*
X162179000Y-89174000D03*
X162179000Y-91674000D03*
X159893000Y-89174000D03*
X159893000Y-91674000D03*
D18*
X167731000Y-83947000D03*
X163231000Y-83947000D03*
D19*
X154924000Y-83293000D03*
X152924000Y-83293000D03*
D20*
X157324000Y-77743000D03*
X150524000Y-77743000D03*
D21*
X128681000Y-79375000D03*
X128031000Y-79375000D03*
X127381000Y-79375000D03*
X126731000Y-79375000D03*
X126081000Y-79375000D03*
D22*
X130481000Y-79225000D03*
X124281000Y-79225000D03*
D23*
X128531000Y-76700000D03*
X126231000Y-76700000D03*
X123581000Y-76700000D03*
X131181000Y-76700000D03*
D24*
X119462000Y-93853000D03*
X123362000Y-93853000D03*
X119462000Y-95123000D03*
X123362000Y-95123000D03*
X119462000Y-96393000D03*
X123362000Y-96393000D03*
X119462000Y-97663000D03*
X123362000Y-97663000D03*
X119462000Y-98933000D03*
X123362000Y-98933000D03*
D25*
X129413000Y-105363000D03*
X129413000Y-102663000D03*
D26*
X120189000Y-105537000D03*
X122889000Y-105537000D03*
X168863000Y-94107000D03*
X166163000Y-94107000D03*
D25*
X134493000Y-77517000D03*
X134493000Y-80217000D03*
D27*
X143354000Y-96552000D03*
X136554000Y-96552000D03*
X136554000Y-100552000D03*
X143354000Y-100552000D03*
D28*
X143975000Y-84770000D03*
X143975000Y-83820000D03*
X143975000Y-82870000D03*
X141775000Y-82870000D03*
X141775000Y-84770000D03*
D29*
X127375000Y-91372000D03*
X128175000Y-91372000D03*
X128975000Y-91372000D03*
X129775000Y-91372000D03*
X130575000Y-91372000D03*
X131375000Y-91372000D03*
X132175000Y-91372000D03*
X132975000Y-91372000D03*
D30*
X134425000Y-89922000D03*
X134425000Y-89122000D03*
X134425000Y-88322000D03*
X134425000Y-87522000D03*
X134425000Y-86722000D03*
X134425000Y-85922000D03*
X134425000Y-85122000D03*
X134425000Y-84322000D03*
D29*
X132975000Y-82872000D03*
X132175000Y-82872000D03*
X131375000Y-82872000D03*
X130575000Y-82872000D03*
X129775000Y-82872000D03*
X128975000Y-82872000D03*
X128175000Y-82872000D03*
X127375000Y-82872000D03*
D30*
X125925000Y-84322000D03*
X125925000Y-85122000D03*
X125925000Y-85922000D03*
X125925000Y-86722000D03*
X125925000Y-87522000D03*
X125925000Y-88322000D03*
X125925000Y-89122000D03*
X125925000Y-89922000D03*
D31*
X166943500Y-87519000D03*
X164018500Y-87519000D03*
X166943500Y-88019000D03*
X164018500Y-88019000D03*
X166943500Y-88519000D03*
X164018500Y-88519000D03*
X166943500Y-89019000D03*
X164018500Y-89019000D03*
X166943500Y-89519000D03*
X164018500Y-89519000D03*
D32*
X165481000Y-88519000D03*
D33*
X153416000Y-96520000D03*
X153416000Y-95250000D03*
X153416000Y-93980000D03*
X153416000Y-92710000D03*
X153416000Y-91440000D03*
X153416000Y-90170000D03*
X153416000Y-88900000D03*
X147066000Y-88900000D03*
X147066000Y-90170000D03*
X147066000Y-92710000D03*
X147066000Y-93980000D03*
X147066000Y-95250000D03*
X147066000Y-96520000D03*
X147066000Y-91440000D03*
D34*
X129647000Y-94488000D03*
X127147000Y-94488000D03*
D35*
X156138000Y-97139000D03*
X156138000Y-101489000D03*
X157988000Y-97139000D03*
X157988000Y-101489000D03*
D36*
X159938000Y-97139000D03*
X159938000Y-101489000D03*
D35*
X162742000Y-97012000D03*
X162742000Y-101362000D03*
X164592000Y-97012000D03*
X164592000Y-101362000D03*
D36*
X166542000Y-97012000D03*
X166542000Y-101362000D03*
M02*
