G04 #@! TF.FileFunction,Soldermask,Top*
%FSLAX46Y46*%
G04 Gerber Fmt 4.6, Leading zero omitted, Abs format (unit mm)*
G04 Created by KiCad (PCBNEW 4.0.5+dfsg1-4) date Mon May 29 16:20:49 2017*
%MOMM*%
%LPD*%
G01*
G04 APERTURE LIST*
%ADD10C,0.100000*%
%ADD11C,0.254000*%
%ADD12R,1.400000X3.400000*%
%ADD13R,1.650000X1.900000*%
%ADD14R,1.900000X1.650000*%
%ADD15R,2.400000X2.400000*%
%ADD16R,1.400000X3.900000*%
%ADD17R,2.000000X3.800000*%
%ADD18R,0.800000X1.750000*%
%ADD19R,2.500000X2.000000*%
%ADD20R,2.200000X2.300000*%
%ADD21R,2.800000X1.150000*%
%ADD22R,1.700000X1.900000*%
%ADD23R,1.900000X1.700000*%
%ADD24R,3.600000X1.400000*%
%ADD25R,1.460000X1.050000*%
%ADD26R,0.950000X2.000000*%
%ADD27R,2.000000X0.950000*%
%ADD28R,1.200000X0.680000*%
%ADD29R,2.000000X2.550000*%
%ADD30R,1.543000X0.908000*%
%ADD31R,1.400000X2.200000*%
%ADD32R,1.200000X1.950000*%
%ADD33R,1.400000X1.950000*%
G04 APERTURE END LIST*
D10*
D11*
X162892620Y-76266524D02*
X163739286Y-77536524D01*
X163739286Y-76266524D02*
X162892620Y-77536524D01*
X164102144Y-76266524D02*
X164948810Y-77536524D01*
X164948810Y-76266524D02*
X164102144Y-77536524D01*
X165251191Y-76266524D02*
X165674525Y-77536524D01*
X166097858Y-76266524D01*
X168214524Y-77536524D02*
X167791191Y-76931762D01*
X167488810Y-77536524D02*
X167488810Y-76266524D01*
X167972619Y-76266524D01*
X168093572Y-76327000D01*
X168154048Y-76387476D01*
X168214524Y-76508429D01*
X168214524Y-76689857D01*
X168154048Y-76810810D01*
X168093572Y-76871286D01*
X167972619Y-76931762D01*
X167488810Y-76931762D01*
X169242619Y-77476048D02*
X169121667Y-77536524D01*
X168879762Y-77536524D01*
X168758810Y-77476048D01*
X168698334Y-77355095D01*
X168698334Y-76871286D01*
X168758810Y-76750333D01*
X168879762Y-76689857D01*
X169121667Y-76689857D01*
X169242619Y-76750333D01*
X169303096Y-76871286D01*
X169303096Y-76992238D01*
X168698334Y-77113190D01*
X169726429Y-76689857D02*
X170028810Y-77536524D01*
X170331190Y-76689857D01*
X171722143Y-77173667D02*
X172326905Y-77173667D01*
X171601190Y-77536524D02*
X172024524Y-76266524D01*
X172447857Y-77536524D01*
D12*
X168275000Y-106704000D03*
X163195000Y-106704000D03*
X158115000Y-106704000D03*
X153035000Y-106704000D03*
X147955000Y-106704000D03*
X142875000Y-106704000D03*
X137795000Y-106704000D03*
X132715000Y-106704000D03*
X170815000Y-109704000D03*
X165735000Y-109704000D03*
X160655000Y-109704000D03*
X155575000Y-109704000D03*
X150495000Y-109704000D03*
X145415000Y-109704000D03*
X140335000Y-109704000D03*
X135255000Y-109704000D03*
D13*
X146939000Y-81387000D03*
X146939000Y-78887000D03*
X138430000Y-90063000D03*
X138430000Y-92563000D03*
X126746000Y-105390000D03*
X126746000Y-102890000D03*
D14*
X141752000Y-78740000D03*
X144252000Y-78740000D03*
D13*
X129667000Y-97302000D03*
X129667000Y-99802000D03*
X139319000Y-84562000D03*
X139319000Y-82062000D03*
X127000000Y-97302000D03*
X127000000Y-99802000D03*
D14*
X169311000Y-87757000D03*
X171811000Y-87757000D03*
X168763000Y-91694000D03*
X166263000Y-91694000D03*
D13*
X123444000Y-87102000D03*
X123444000Y-84602000D03*
X118872000Y-87991000D03*
X118872000Y-85491000D03*
X121412000Y-87991000D03*
X121412000Y-85491000D03*
X157734000Y-89174000D03*
X157734000Y-91674000D03*
X162179000Y-89174000D03*
X162179000Y-91674000D03*
X159893000Y-89174000D03*
X159893000Y-91674000D03*
D15*
X167731000Y-83947000D03*
X163231000Y-83947000D03*
D16*
X154924000Y-83293000D03*
X152924000Y-83293000D03*
D17*
X157324000Y-77743000D03*
X150524000Y-77743000D03*
D18*
X128681000Y-79375000D03*
X128031000Y-79375000D03*
X127381000Y-79375000D03*
X126731000Y-79375000D03*
X126081000Y-79375000D03*
D19*
X130481000Y-79225000D03*
X124281000Y-79225000D03*
D20*
X128531000Y-76700000D03*
X126231000Y-76700000D03*
X123581000Y-76700000D03*
X131181000Y-76700000D03*
D21*
X119462000Y-93853000D03*
X123362000Y-93853000D03*
X119462000Y-95123000D03*
X123362000Y-95123000D03*
X119462000Y-96393000D03*
X123362000Y-96393000D03*
X119462000Y-97663000D03*
X123362000Y-97663000D03*
X119462000Y-98933000D03*
X123362000Y-98933000D03*
D22*
X129413000Y-105363000D03*
X129413000Y-102663000D03*
D23*
X120189000Y-105537000D03*
X122889000Y-105537000D03*
X168863000Y-94107000D03*
X166163000Y-94107000D03*
D22*
X134493000Y-77517000D03*
X134493000Y-80217000D03*
D24*
X143354000Y-96552000D03*
X136554000Y-96552000D03*
X136554000Y-100552000D03*
X143354000Y-100552000D03*
D25*
X143975000Y-84770000D03*
X143975000Y-83820000D03*
X143975000Y-82870000D03*
X141775000Y-82870000D03*
X141775000Y-84770000D03*
D26*
X127375000Y-91372000D03*
X128175000Y-91372000D03*
X128975000Y-91372000D03*
X129775000Y-91372000D03*
X130575000Y-91372000D03*
X131375000Y-91372000D03*
X132175000Y-91372000D03*
X132975000Y-91372000D03*
D27*
X134425000Y-89922000D03*
X134425000Y-89122000D03*
X134425000Y-88322000D03*
X134425000Y-87522000D03*
X134425000Y-86722000D03*
X134425000Y-85922000D03*
X134425000Y-85122000D03*
X134425000Y-84322000D03*
D26*
X132975000Y-82872000D03*
X132175000Y-82872000D03*
X131375000Y-82872000D03*
X130575000Y-82872000D03*
X129775000Y-82872000D03*
X128975000Y-82872000D03*
X128175000Y-82872000D03*
X127375000Y-82872000D03*
D27*
X125925000Y-84322000D03*
X125925000Y-85122000D03*
X125925000Y-85922000D03*
X125925000Y-86722000D03*
X125925000Y-87522000D03*
X125925000Y-88322000D03*
X125925000Y-89122000D03*
X125925000Y-89922000D03*
D28*
X166943500Y-87519000D03*
X164018500Y-87519000D03*
X166943500Y-88019000D03*
X164018500Y-88019000D03*
X166943500Y-88519000D03*
X164018500Y-88519000D03*
X166943500Y-89019000D03*
X164018500Y-89019000D03*
X166943500Y-89519000D03*
X164018500Y-89519000D03*
D29*
X165481000Y-88519000D03*
D30*
X153416000Y-96520000D03*
X153416000Y-95250000D03*
X153416000Y-93980000D03*
X153416000Y-92710000D03*
X153416000Y-91440000D03*
X153416000Y-90170000D03*
X153416000Y-88900000D03*
X147066000Y-88900000D03*
X147066000Y-90170000D03*
X147066000Y-92710000D03*
X147066000Y-93980000D03*
X147066000Y-95250000D03*
X147066000Y-96520000D03*
X147066000Y-91440000D03*
D31*
X129647000Y-94488000D03*
X127147000Y-94488000D03*
D32*
X156138000Y-97139000D03*
X156138000Y-101489000D03*
X157988000Y-97139000D03*
X157988000Y-101489000D03*
D33*
X159938000Y-97139000D03*
X159938000Y-101489000D03*
D32*
X162742000Y-97012000D03*
X162742000Y-101362000D03*
X164592000Y-97012000D03*
X164592000Y-101362000D03*
D33*
X166542000Y-97012000D03*
X166542000Y-101362000D03*
M02*
