G04 #@! TF.FileFunction,Copper,L2,Bot,Signal*
%FSLAX46Y46*%
G04 Gerber Fmt 4.6, Leading zero omitted, Abs format (unit mm)*
G04 Created by KiCad (PCBNEW 4.0.5+dfsg1-4) date Mon May 29 16:20:49 2017*
%MOMM*%
%LPD*%
G01*
G04 APERTURE LIST*
%ADD10C,0.100000*%
%ADD11C,0.381000*%
%ADD12C,1.016000*%
%ADD13C,0.508000*%
%ADD14C,1.016000*%
%ADD15C,0.254000*%
G04 APERTURE END LIST*
D10*
D11*
X139013500Y-108382500D03*
X134100000Y-108089000D03*
D12*
X135382000Y-106704000D03*
X152908000Y-80137000D03*
X151384000Y-84455000D03*
X142621000Y-94361000D03*
X136525000Y-94615000D03*
D11*
X119462000Y-95758000D03*
X127254000Y-86741000D03*
X132969000Y-89154000D03*
X121412000Y-83820000D03*
D12*
X145415000Y-83820000D03*
D11*
X139319000Y-80518000D03*
X145669000Y-77597000D03*
X154686000Y-88900000D03*
X165608000Y-100203000D03*
X159131000Y-100330000D03*
D12*
X171831000Y-85979000D03*
X164084000Y-93218000D03*
X157734000Y-93472000D03*
D11*
X128270000Y-99802000D03*
X124333000Y-80645000D03*
X132080000Y-79248000D03*
X128270000Y-87884000D03*
X123317000Y-99949000D03*
X161036000Y-89027000D03*
X167640000Y-89027000D03*
X121031000Y-76200000D03*
X160020000Y-78105000D03*
X144399000Y-92964000D03*
X144399000Y-90932000D03*
X137795000Y-84328000D03*
X144907000Y-99060000D03*
X155575000Y-106553000D03*
X144907000Y-98298000D03*
X156210000Y-104648000D03*
X144907000Y-97663000D03*
X157353000Y-104140000D03*
X136017000Y-88900000D03*
X145415000Y-107188000D03*
X133096000Y-87503000D03*
X141478000Y-106680000D03*
X143129000Y-90805000D03*
X137160000Y-84836000D03*
X139827000Y-88265000D03*
X132207000Y-84201000D03*
X151638000Y-97282000D03*
X151511000Y-95631000D03*
X150749000Y-95631000D03*
X150749000Y-97282000D03*
D13*
X139013500Y-108382500D02*
X139065000Y-108331000D01*
X134100000Y-108089000D02*
X134112000Y-108077000D01*
D14*
X135382000Y-106704000D02*
X135382000Y-106680000D01*
D13*
X119462000Y-95758000D02*
X119507000Y-95758000D01*
D15*
X128270000Y-99802000D02*
X128270000Y-99822000D01*
X128270000Y-94996000D02*
X128270000Y-87884000D01*
X123317000Y-99949000D02*
X128270000Y-94996000D01*
X167640000Y-89027000D02*
X161036000Y-89027000D01*
X158115000Y-76200000D02*
X121031000Y-76200000D01*
X160020000Y-78105000D02*
X158115000Y-76200000D01*
X144399000Y-90932000D02*
X144399000Y-92964000D01*
X137795000Y-84328000D02*
X144399000Y-90932000D01*
X146558000Y-99060000D02*
X144907000Y-99060000D01*
X152654000Y-105156000D02*
X146558000Y-99060000D01*
X154178000Y-105156000D02*
X152654000Y-105156000D01*
X155575000Y-106553000D02*
X154178000Y-105156000D01*
X144907000Y-98298000D02*
X146558000Y-98298000D01*
X152908000Y-104648000D02*
X156210000Y-104648000D01*
X146558000Y-98298000D02*
X152908000Y-104648000D01*
X144907000Y-97663000D02*
X146685000Y-97663000D01*
X146685000Y-97663000D02*
X153162000Y-104140000D01*
X153162000Y-104140000D02*
X157353000Y-104140000D01*
X140970000Y-102870000D02*
X140970000Y-104013000D01*
X140970000Y-93853000D02*
X136017000Y-88900000D01*
X140970000Y-102870000D02*
X140970000Y-93853000D01*
X145415000Y-105918000D02*
X145415000Y-107188000D01*
X144018000Y-104521000D02*
X145415000Y-105918000D01*
X141478000Y-104521000D02*
X144018000Y-104521000D01*
X140970000Y-104013000D02*
X141478000Y-104521000D01*
X140462000Y-103886000D02*
X140462000Y-105664000D01*
X140462000Y-94869000D02*
X140462000Y-103886000D01*
X133096000Y-87503000D02*
X140462000Y-94869000D01*
X140462000Y-105664000D02*
X141478000Y-106680000D01*
X137160000Y-84836000D02*
X143129000Y-90805000D01*
X136271000Y-88265000D02*
X139827000Y-88265000D01*
X132207000Y-84201000D02*
X136271000Y-88265000D01*
X151638000Y-97282000D02*
X151511000Y-97155000D01*
X151511000Y-97155000D02*
X151511000Y-95631000D01*
X150749000Y-97282000D02*
X150749000Y-95631000D01*
G36*
X120546789Y-75875849D02*
X120459600Y-76085823D01*
X120459401Y-76313180D01*
X120546224Y-76523306D01*
X120706849Y-76684211D01*
X120916823Y-76771400D01*
X121144180Y-76771599D01*
X121298100Y-76708000D01*
X157904580Y-76708000D01*
X159472089Y-78275509D01*
X159535224Y-78428306D01*
X159695849Y-78589211D01*
X159905823Y-78676400D01*
X160133180Y-78676599D01*
X160343306Y-78589776D01*
X160504211Y-78429151D01*
X160591400Y-78219177D01*
X160591599Y-77991820D01*
X160504776Y-77781694D01*
X160344151Y-77620789D01*
X160190342Y-77556922D01*
X158474210Y-75840790D01*
X158363776Y-75767000D01*
X173534000Y-75767000D01*
X173534000Y-112955000D01*
X117169000Y-112955000D01*
X117169000Y-100062180D01*
X122745401Y-100062180D01*
X122832224Y-100272306D01*
X122992849Y-100433211D01*
X123202823Y-100520400D01*
X123430180Y-100520599D01*
X123640306Y-100433776D01*
X123801211Y-100273151D01*
X123865078Y-100119342D01*
X128629210Y-95355210D01*
X128739331Y-95190403D01*
X128778000Y-94996000D01*
X128778000Y-88150861D01*
X128841400Y-87998177D01*
X128841599Y-87770820D01*
X128754776Y-87560694D01*
X128594151Y-87399789D01*
X128384177Y-87312600D01*
X128156820Y-87312401D01*
X127946694Y-87399224D01*
X127785789Y-87559849D01*
X127698600Y-87769823D01*
X127698401Y-87997180D01*
X127762000Y-88151100D01*
X127762000Y-94785580D01*
X123146491Y-99401089D01*
X122993694Y-99464224D01*
X122832789Y-99624849D01*
X122745600Y-99834823D01*
X122745401Y-100062180D01*
X117169000Y-100062180D01*
X117169000Y-84314180D01*
X131635401Y-84314180D01*
X131722224Y-84524306D01*
X131882849Y-84685211D01*
X132036658Y-84749078D01*
X135700140Y-88412560D01*
X135693694Y-88415224D01*
X135532789Y-88575849D01*
X135445600Y-88785823D01*
X135445401Y-89013180D01*
X135530462Y-89219042D01*
X133643911Y-87332491D01*
X133580776Y-87179694D01*
X133420151Y-87018789D01*
X133210177Y-86931600D01*
X132982820Y-86931401D01*
X132772694Y-87018224D01*
X132611789Y-87178849D01*
X132524600Y-87388823D01*
X132524401Y-87616180D01*
X132611224Y-87826306D01*
X132771849Y-87987211D01*
X132925658Y-88051078D01*
X139954000Y-95079420D01*
X139954000Y-105664000D01*
X139992669Y-105858403D01*
X140102790Y-106023210D01*
X140930089Y-106850509D01*
X140993224Y-107003306D01*
X141153849Y-107164211D01*
X141363823Y-107251400D01*
X141591180Y-107251599D01*
X141801306Y-107164776D01*
X141962211Y-107004151D01*
X142049400Y-106794177D01*
X142049599Y-106566820D01*
X141962776Y-106356694D01*
X141802151Y-106195789D01*
X141648342Y-106131922D01*
X140970000Y-105453580D01*
X140970000Y-104731421D01*
X141118789Y-104880210D01*
X141228910Y-104953790D01*
X141283597Y-104990331D01*
X141478000Y-105029000D01*
X143807580Y-105029000D01*
X144907000Y-106128420D01*
X144907000Y-106921139D01*
X144843600Y-107073823D01*
X144843401Y-107301180D01*
X144930224Y-107511306D01*
X145090849Y-107672211D01*
X145300823Y-107759400D01*
X145528180Y-107759599D01*
X145738306Y-107672776D01*
X145899211Y-107512151D01*
X145986400Y-107302177D01*
X145986599Y-107074820D01*
X145923000Y-106920900D01*
X145923000Y-105918000D01*
X145884331Y-105723597D01*
X145884331Y-105723596D01*
X145774210Y-105558790D01*
X144377210Y-104161790D01*
X144212403Y-104051669D01*
X144018000Y-104013000D01*
X141688421Y-104013000D01*
X141478000Y-103802580D01*
X141478000Y-97776180D01*
X144335401Y-97776180D01*
X144419926Y-97980744D01*
X144335600Y-98183823D01*
X144335401Y-98411180D01*
X144422224Y-98621306D01*
X144479777Y-98678960D01*
X144422789Y-98735849D01*
X144335600Y-98945823D01*
X144335401Y-99173180D01*
X144422224Y-99383306D01*
X144582849Y-99544211D01*
X144792823Y-99631400D01*
X145020180Y-99631599D01*
X145174100Y-99568000D01*
X146347580Y-99568000D01*
X152294790Y-105515210D01*
X152459597Y-105625331D01*
X152654000Y-105664000D01*
X153967580Y-105664000D01*
X155027089Y-106723509D01*
X155090224Y-106876306D01*
X155250849Y-107037211D01*
X155460823Y-107124400D01*
X155688180Y-107124599D01*
X155898306Y-107037776D01*
X156059211Y-106877151D01*
X156146400Y-106667177D01*
X156146599Y-106439820D01*
X156059776Y-106229694D01*
X155899151Y-106068789D01*
X155745342Y-106004922D01*
X154896420Y-105156000D01*
X155943139Y-105156000D01*
X156095823Y-105219400D01*
X156323180Y-105219599D01*
X156533306Y-105132776D01*
X156694211Y-104972151D01*
X156781400Y-104762177D01*
X156781500Y-104648000D01*
X157086139Y-104648000D01*
X157238823Y-104711400D01*
X157466180Y-104711599D01*
X157676306Y-104624776D01*
X157837211Y-104464151D01*
X157924400Y-104254177D01*
X157924599Y-104026820D01*
X157837776Y-103816694D01*
X157677151Y-103655789D01*
X157467177Y-103568600D01*
X157239820Y-103568401D01*
X157085900Y-103632000D01*
X153372420Y-103632000D01*
X147044210Y-97303790D01*
X146879403Y-97193669D01*
X146685000Y-97155000D01*
X145173861Y-97155000D01*
X145021177Y-97091600D01*
X144793820Y-97091401D01*
X144583694Y-97178224D01*
X144422789Y-97338849D01*
X144335600Y-97548823D01*
X144335401Y-97776180D01*
X141478000Y-97776180D01*
X141478000Y-95744180D01*
X150177401Y-95744180D01*
X150241000Y-95898100D01*
X150241000Y-97015139D01*
X150177600Y-97167823D01*
X150177401Y-97395180D01*
X150264224Y-97605306D01*
X150424849Y-97766211D01*
X150634823Y-97853400D01*
X150862180Y-97853599D01*
X151072306Y-97766776D01*
X151193570Y-97645723D01*
X151313849Y-97766211D01*
X151523823Y-97853400D01*
X151751180Y-97853599D01*
X151961306Y-97766776D01*
X152122211Y-97606151D01*
X152209400Y-97396177D01*
X152209599Y-97168820D01*
X152122776Y-96958694D01*
X152019000Y-96854737D01*
X152019000Y-95897861D01*
X152082400Y-95745177D01*
X152082599Y-95517820D01*
X151995776Y-95307694D01*
X151835151Y-95146789D01*
X151625177Y-95059600D01*
X151397820Y-95059401D01*
X151187694Y-95146224D01*
X151130040Y-95203777D01*
X151073151Y-95146789D01*
X150863177Y-95059600D01*
X150635820Y-95059401D01*
X150425694Y-95146224D01*
X150264789Y-95306849D01*
X150177600Y-95516823D01*
X150177401Y-95744180D01*
X141478000Y-95744180D01*
X141478000Y-93853000D01*
X141439331Y-93658597D01*
X141329210Y-93493790D01*
X136608420Y-88773000D01*
X139560139Y-88773000D01*
X139712823Y-88836400D01*
X139940180Y-88836599D01*
X140150306Y-88749776D01*
X140252920Y-88647340D01*
X142581089Y-90975509D01*
X142644224Y-91128306D01*
X142804849Y-91289211D01*
X143014823Y-91376400D01*
X143242180Y-91376599D01*
X143452306Y-91289776D01*
X143613211Y-91129151D01*
X143690822Y-90942243D01*
X143851090Y-91102511D01*
X143891000Y-91199100D01*
X143891000Y-92697139D01*
X143827600Y-92849823D01*
X143827401Y-93077180D01*
X143914224Y-93287306D01*
X144074849Y-93448211D01*
X144284823Y-93535400D01*
X144512180Y-93535599D01*
X144722306Y-93448776D01*
X144883211Y-93288151D01*
X144970400Y-93078177D01*
X144970599Y-92850820D01*
X144907000Y-92696900D01*
X144907000Y-91198861D01*
X144970400Y-91046177D01*
X144970599Y-90818820D01*
X144883776Y-90608694D01*
X144723151Y-90447789D01*
X144569343Y-90383922D01*
X143325601Y-89140180D01*
X160464401Y-89140180D01*
X160551224Y-89350306D01*
X160711849Y-89511211D01*
X160921823Y-89598400D01*
X161149180Y-89598599D01*
X161303100Y-89535000D01*
X167373139Y-89535000D01*
X167525823Y-89598400D01*
X167753180Y-89598599D01*
X167963306Y-89511776D01*
X168124211Y-89351151D01*
X168211400Y-89141177D01*
X168211599Y-88913820D01*
X168124776Y-88703694D01*
X167964151Y-88542789D01*
X167754177Y-88455600D01*
X167526820Y-88455401D01*
X167372900Y-88519000D01*
X161302861Y-88519000D01*
X161150177Y-88455600D01*
X160922820Y-88455401D01*
X160712694Y-88542224D01*
X160551789Y-88702849D01*
X160464600Y-88912823D01*
X160464401Y-89140180D01*
X143325601Y-89140180D01*
X138342911Y-84157491D01*
X138279776Y-84004694D01*
X138119151Y-83843789D01*
X137909177Y-83756600D01*
X137681820Y-83756401D01*
X137471694Y-83843224D01*
X137310789Y-84003849D01*
X137223600Y-84213823D01*
X137223556Y-84264556D01*
X137046820Y-84264401D01*
X136836694Y-84351224D01*
X136675789Y-84511849D01*
X136588600Y-84721823D01*
X136588401Y-84949180D01*
X136675224Y-85159306D01*
X136835849Y-85320211D01*
X136989658Y-85384078D01*
X139362580Y-87757000D01*
X136481420Y-87757000D01*
X132754911Y-84030491D01*
X132691776Y-83877694D01*
X132531151Y-83716789D01*
X132321177Y-83629600D01*
X132093820Y-83629401D01*
X131883694Y-83716224D01*
X131722789Y-83876849D01*
X131635600Y-84086823D01*
X131635401Y-84314180D01*
X117169000Y-84314180D01*
X117169000Y-75767000D01*
X120655828Y-75767000D01*
X120546789Y-75875849D01*
X120546789Y-75875849D01*
G37*
X120546789Y-75875849D02*
X120459600Y-76085823D01*
X120459401Y-76313180D01*
X120546224Y-76523306D01*
X120706849Y-76684211D01*
X120916823Y-76771400D01*
X121144180Y-76771599D01*
X121298100Y-76708000D01*
X157904580Y-76708000D01*
X159472089Y-78275509D01*
X159535224Y-78428306D01*
X159695849Y-78589211D01*
X159905823Y-78676400D01*
X160133180Y-78676599D01*
X160343306Y-78589776D01*
X160504211Y-78429151D01*
X160591400Y-78219177D01*
X160591599Y-77991820D01*
X160504776Y-77781694D01*
X160344151Y-77620789D01*
X160190342Y-77556922D01*
X158474210Y-75840790D01*
X158363776Y-75767000D01*
X173534000Y-75767000D01*
X173534000Y-112955000D01*
X117169000Y-112955000D01*
X117169000Y-100062180D01*
X122745401Y-100062180D01*
X122832224Y-100272306D01*
X122992849Y-100433211D01*
X123202823Y-100520400D01*
X123430180Y-100520599D01*
X123640306Y-100433776D01*
X123801211Y-100273151D01*
X123865078Y-100119342D01*
X128629210Y-95355210D01*
X128739331Y-95190403D01*
X128778000Y-94996000D01*
X128778000Y-88150861D01*
X128841400Y-87998177D01*
X128841599Y-87770820D01*
X128754776Y-87560694D01*
X128594151Y-87399789D01*
X128384177Y-87312600D01*
X128156820Y-87312401D01*
X127946694Y-87399224D01*
X127785789Y-87559849D01*
X127698600Y-87769823D01*
X127698401Y-87997180D01*
X127762000Y-88151100D01*
X127762000Y-94785580D01*
X123146491Y-99401089D01*
X122993694Y-99464224D01*
X122832789Y-99624849D01*
X122745600Y-99834823D01*
X122745401Y-100062180D01*
X117169000Y-100062180D01*
X117169000Y-84314180D01*
X131635401Y-84314180D01*
X131722224Y-84524306D01*
X131882849Y-84685211D01*
X132036658Y-84749078D01*
X135700140Y-88412560D01*
X135693694Y-88415224D01*
X135532789Y-88575849D01*
X135445600Y-88785823D01*
X135445401Y-89013180D01*
X135530462Y-89219042D01*
X133643911Y-87332491D01*
X133580776Y-87179694D01*
X133420151Y-87018789D01*
X133210177Y-86931600D01*
X132982820Y-86931401D01*
X132772694Y-87018224D01*
X132611789Y-87178849D01*
X132524600Y-87388823D01*
X132524401Y-87616180D01*
X132611224Y-87826306D01*
X132771849Y-87987211D01*
X132925658Y-88051078D01*
X139954000Y-95079420D01*
X139954000Y-105664000D01*
X139992669Y-105858403D01*
X140102790Y-106023210D01*
X140930089Y-106850509D01*
X140993224Y-107003306D01*
X141153849Y-107164211D01*
X141363823Y-107251400D01*
X141591180Y-107251599D01*
X141801306Y-107164776D01*
X141962211Y-107004151D01*
X142049400Y-106794177D01*
X142049599Y-106566820D01*
X141962776Y-106356694D01*
X141802151Y-106195789D01*
X141648342Y-106131922D01*
X140970000Y-105453580D01*
X140970000Y-104731421D01*
X141118789Y-104880210D01*
X141228910Y-104953790D01*
X141283597Y-104990331D01*
X141478000Y-105029000D01*
X143807580Y-105029000D01*
X144907000Y-106128420D01*
X144907000Y-106921139D01*
X144843600Y-107073823D01*
X144843401Y-107301180D01*
X144930224Y-107511306D01*
X145090849Y-107672211D01*
X145300823Y-107759400D01*
X145528180Y-107759599D01*
X145738306Y-107672776D01*
X145899211Y-107512151D01*
X145986400Y-107302177D01*
X145986599Y-107074820D01*
X145923000Y-106920900D01*
X145923000Y-105918000D01*
X145884331Y-105723597D01*
X145884331Y-105723596D01*
X145774210Y-105558790D01*
X144377210Y-104161790D01*
X144212403Y-104051669D01*
X144018000Y-104013000D01*
X141688421Y-104013000D01*
X141478000Y-103802580D01*
X141478000Y-97776180D01*
X144335401Y-97776180D01*
X144419926Y-97980744D01*
X144335600Y-98183823D01*
X144335401Y-98411180D01*
X144422224Y-98621306D01*
X144479777Y-98678960D01*
X144422789Y-98735849D01*
X144335600Y-98945823D01*
X144335401Y-99173180D01*
X144422224Y-99383306D01*
X144582849Y-99544211D01*
X144792823Y-99631400D01*
X145020180Y-99631599D01*
X145174100Y-99568000D01*
X146347580Y-99568000D01*
X152294790Y-105515210D01*
X152459597Y-105625331D01*
X152654000Y-105664000D01*
X153967580Y-105664000D01*
X155027089Y-106723509D01*
X155090224Y-106876306D01*
X155250849Y-107037211D01*
X155460823Y-107124400D01*
X155688180Y-107124599D01*
X155898306Y-107037776D01*
X156059211Y-106877151D01*
X156146400Y-106667177D01*
X156146599Y-106439820D01*
X156059776Y-106229694D01*
X155899151Y-106068789D01*
X155745342Y-106004922D01*
X154896420Y-105156000D01*
X155943139Y-105156000D01*
X156095823Y-105219400D01*
X156323180Y-105219599D01*
X156533306Y-105132776D01*
X156694211Y-104972151D01*
X156781400Y-104762177D01*
X156781500Y-104648000D01*
X157086139Y-104648000D01*
X157238823Y-104711400D01*
X157466180Y-104711599D01*
X157676306Y-104624776D01*
X157837211Y-104464151D01*
X157924400Y-104254177D01*
X157924599Y-104026820D01*
X157837776Y-103816694D01*
X157677151Y-103655789D01*
X157467177Y-103568600D01*
X157239820Y-103568401D01*
X157085900Y-103632000D01*
X153372420Y-103632000D01*
X147044210Y-97303790D01*
X146879403Y-97193669D01*
X146685000Y-97155000D01*
X145173861Y-97155000D01*
X145021177Y-97091600D01*
X144793820Y-97091401D01*
X144583694Y-97178224D01*
X144422789Y-97338849D01*
X144335600Y-97548823D01*
X144335401Y-97776180D01*
X141478000Y-97776180D01*
X141478000Y-95744180D01*
X150177401Y-95744180D01*
X150241000Y-95898100D01*
X150241000Y-97015139D01*
X150177600Y-97167823D01*
X150177401Y-97395180D01*
X150264224Y-97605306D01*
X150424849Y-97766211D01*
X150634823Y-97853400D01*
X150862180Y-97853599D01*
X151072306Y-97766776D01*
X151193570Y-97645723D01*
X151313849Y-97766211D01*
X151523823Y-97853400D01*
X151751180Y-97853599D01*
X151961306Y-97766776D01*
X152122211Y-97606151D01*
X152209400Y-97396177D01*
X152209599Y-97168820D01*
X152122776Y-96958694D01*
X152019000Y-96854737D01*
X152019000Y-95897861D01*
X152082400Y-95745177D01*
X152082599Y-95517820D01*
X151995776Y-95307694D01*
X151835151Y-95146789D01*
X151625177Y-95059600D01*
X151397820Y-95059401D01*
X151187694Y-95146224D01*
X151130040Y-95203777D01*
X151073151Y-95146789D01*
X150863177Y-95059600D01*
X150635820Y-95059401D01*
X150425694Y-95146224D01*
X150264789Y-95306849D01*
X150177600Y-95516823D01*
X150177401Y-95744180D01*
X141478000Y-95744180D01*
X141478000Y-93853000D01*
X141439331Y-93658597D01*
X141329210Y-93493790D01*
X136608420Y-88773000D01*
X139560139Y-88773000D01*
X139712823Y-88836400D01*
X139940180Y-88836599D01*
X140150306Y-88749776D01*
X140252920Y-88647340D01*
X142581089Y-90975509D01*
X142644224Y-91128306D01*
X142804849Y-91289211D01*
X143014823Y-91376400D01*
X143242180Y-91376599D01*
X143452306Y-91289776D01*
X143613211Y-91129151D01*
X143690822Y-90942243D01*
X143851090Y-91102511D01*
X143891000Y-91199100D01*
X143891000Y-92697139D01*
X143827600Y-92849823D01*
X143827401Y-93077180D01*
X143914224Y-93287306D01*
X144074849Y-93448211D01*
X144284823Y-93535400D01*
X144512180Y-93535599D01*
X144722306Y-93448776D01*
X144883211Y-93288151D01*
X144970400Y-93078177D01*
X144970599Y-92850820D01*
X144907000Y-92696900D01*
X144907000Y-91198861D01*
X144970400Y-91046177D01*
X144970599Y-90818820D01*
X144883776Y-90608694D01*
X144723151Y-90447789D01*
X144569343Y-90383922D01*
X143325601Y-89140180D01*
X160464401Y-89140180D01*
X160551224Y-89350306D01*
X160711849Y-89511211D01*
X160921823Y-89598400D01*
X161149180Y-89598599D01*
X161303100Y-89535000D01*
X167373139Y-89535000D01*
X167525823Y-89598400D01*
X167753180Y-89598599D01*
X167963306Y-89511776D01*
X168124211Y-89351151D01*
X168211400Y-89141177D01*
X168211599Y-88913820D01*
X168124776Y-88703694D01*
X167964151Y-88542789D01*
X167754177Y-88455600D01*
X167526820Y-88455401D01*
X167372900Y-88519000D01*
X161302861Y-88519000D01*
X161150177Y-88455600D01*
X160922820Y-88455401D01*
X160712694Y-88542224D01*
X160551789Y-88702849D01*
X160464600Y-88912823D01*
X160464401Y-89140180D01*
X143325601Y-89140180D01*
X138342911Y-84157491D01*
X138279776Y-84004694D01*
X138119151Y-83843789D01*
X137909177Y-83756600D01*
X137681820Y-83756401D01*
X137471694Y-83843224D01*
X137310789Y-84003849D01*
X137223600Y-84213823D01*
X137223556Y-84264556D01*
X137046820Y-84264401D01*
X136836694Y-84351224D01*
X136675789Y-84511849D01*
X136588600Y-84721823D01*
X136588401Y-84949180D01*
X136675224Y-85159306D01*
X136835849Y-85320211D01*
X136989658Y-85384078D01*
X139362580Y-87757000D01*
X136481420Y-87757000D01*
X132754911Y-84030491D01*
X132691776Y-83877694D01*
X132531151Y-83716789D01*
X132321177Y-83629600D01*
X132093820Y-83629401D01*
X131883694Y-83716224D01*
X131722789Y-83876849D01*
X131635600Y-84086823D01*
X131635401Y-84314180D01*
X117169000Y-84314180D01*
X117169000Y-75767000D01*
X120655828Y-75767000D01*
X120546789Y-75875849D01*
M02*
