M48
;DRILL file {KiCad 4.0.5+dfsg1-4} date Mon May 29 16:20:51 2017
;FORMAT={-:-/ absolute / inch / decimal}
FMAT,2
INCH,TZ
T1C0.010
T2C0.020
%
G90
G05
M72
T1
X4.7032Y-3.77
X4.765Y-3.
X4.78Y-3.3
X4.855Y-3.935
X4.895Y-3.175
X5.01Y-3.415
X5.05Y-3.46
X5.05Y-3.9292
X5.2Y-3.12
X5.205Y-3.315
X5.235Y-3.51
X5.24Y-3.445
X5.2795Y-4.2555
X5.355Y-3.5
X5.4Y-3.34
X5.425Y-3.32
X5.473Y-4.267
X5.485Y-3.17
X5.505Y-3.475
X5.57Y-4.2
X5.635Y-3.575
X5.685Y-3.58
X5.685Y-3.66
X5.705Y-3.845
X5.705Y-3.87
X5.705Y-3.9
X5.725Y-4.22
X5.735Y-3.055
X5.935Y-3.765
X5.935Y-3.83
X5.965Y-3.765
X5.97Y-3.83
X6.09Y-3.5
X6.125Y-4.195
X6.15Y-4.12
X6.195Y-4.1
X6.265Y-3.95
X6.3Y-3.075
X6.34Y-3.505
X6.52Y-3.945
X6.6Y-3.505
T2
X5.33Y-4.2009
X5.375Y-3.725
X5.615Y-3.715
X5.725Y-3.3
X5.96Y-3.325
X6.02Y-3.155
X6.21Y-3.68
X6.46Y-3.67
X6.765Y-3.385
T0
M30
