G04 #@! TF.FileFunction,Copper,L1,Top,Signal*
%FSLAX46Y46*%
G04 Gerber Fmt 4.6, Leading zero omitted, Abs format (unit mm)*
G04 Created by KiCad (PCBNEW 4.0.5+dfsg1-4) date Mon May 29 16:20:49 2017*
%MOMM*%
%LPD*%
G01*
G04 APERTURE LIST*
%ADD10C,0.100000*%
%ADD11R,1.000000X3.000000*%
%ADD12R,1.250000X1.500000*%
%ADD13R,1.500000X1.250000*%
%ADD14R,2.000000X2.000000*%
%ADD15R,1.000000X3.500000*%
%ADD16R,1.600000X3.400000*%
%ADD17R,0.400000X1.350000*%
%ADD18R,2.100000X1.600000*%
%ADD19R,1.800000X1.900000*%
%ADD20R,2.400000X0.750000*%
%ADD21R,1.300000X1.500000*%
%ADD22R,1.500000X1.300000*%
%ADD23R,3.200000X1.000000*%
%ADD24R,1.060000X0.650000*%
%ADD25R,0.550000X1.600000*%
%ADD26R,1.600000X0.550000*%
%ADD27R,0.800000X0.280000*%
%ADD28R,1.600000X2.150000*%
%ADD29R,1.143000X0.508000*%
%ADD30R,1.000000X1.800000*%
%ADD31R,0.800000X1.550000*%
%ADD32R,1.000000X1.550000*%
%ADD33C,0.381000*%
%ADD34C,1.016000*%
%ADD35C,1.016000*%
%ADD36C,0.508000*%
%ADD37C,0.254000*%
G04 APERTURE END LIST*
D10*
D11*
X168275000Y-106704000D03*
X163195000Y-106704000D03*
X158115000Y-106704000D03*
X153035000Y-106704000D03*
X147955000Y-106704000D03*
X142875000Y-106704000D03*
X137795000Y-106704000D03*
X132715000Y-106704000D03*
X170815000Y-109704000D03*
X165735000Y-109704000D03*
X160655000Y-109704000D03*
X155575000Y-109704000D03*
X150495000Y-109704000D03*
X145415000Y-109704000D03*
X140335000Y-109704000D03*
X135255000Y-109704000D03*
D12*
X146939000Y-81387000D03*
X146939000Y-78887000D03*
X138430000Y-90063000D03*
X138430000Y-92563000D03*
X126746000Y-105390000D03*
X126746000Y-102890000D03*
D13*
X141752000Y-78740000D03*
X144252000Y-78740000D03*
D12*
X129667000Y-97302000D03*
X129667000Y-99802000D03*
X139319000Y-84562000D03*
X139319000Y-82062000D03*
X127000000Y-97302000D03*
X127000000Y-99802000D03*
D13*
X169311000Y-87757000D03*
X171811000Y-87757000D03*
X168763000Y-91694000D03*
X166263000Y-91694000D03*
D12*
X123444000Y-87102000D03*
X123444000Y-84602000D03*
X118872000Y-87991000D03*
X118872000Y-85491000D03*
X121412000Y-87991000D03*
X121412000Y-85491000D03*
X157734000Y-89174000D03*
X157734000Y-91674000D03*
X162179000Y-89174000D03*
X162179000Y-91674000D03*
X159893000Y-89174000D03*
X159893000Y-91674000D03*
D14*
X167731000Y-83947000D03*
X163231000Y-83947000D03*
D15*
X154924000Y-83293000D03*
X152924000Y-83293000D03*
D16*
X157324000Y-77743000D03*
X150524000Y-77743000D03*
D17*
X128681000Y-79375000D03*
X128031000Y-79375000D03*
X127381000Y-79375000D03*
X126731000Y-79375000D03*
X126081000Y-79375000D03*
D18*
X130481000Y-79225000D03*
X124281000Y-79225000D03*
D19*
X128531000Y-76700000D03*
X126231000Y-76700000D03*
X123581000Y-76700000D03*
X131181000Y-76700000D03*
D20*
X119462000Y-93853000D03*
X123362000Y-93853000D03*
X119462000Y-95123000D03*
X123362000Y-95123000D03*
X119462000Y-96393000D03*
X123362000Y-96393000D03*
X119462000Y-97663000D03*
X123362000Y-97663000D03*
X119462000Y-98933000D03*
X123362000Y-98933000D03*
D21*
X129413000Y-105363000D03*
X129413000Y-102663000D03*
D22*
X120189000Y-105537000D03*
X122889000Y-105537000D03*
X168863000Y-94107000D03*
X166163000Y-94107000D03*
D21*
X134493000Y-77517000D03*
X134493000Y-80217000D03*
D23*
X143354000Y-96552000D03*
X136554000Y-96552000D03*
X136554000Y-100552000D03*
X143354000Y-100552000D03*
D24*
X143975000Y-84770000D03*
X143975000Y-83820000D03*
X143975000Y-82870000D03*
X141775000Y-82870000D03*
X141775000Y-84770000D03*
D25*
X127375000Y-91372000D03*
X128175000Y-91372000D03*
X128975000Y-91372000D03*
X129775000Y-91372000D03*
X130575000Y-91372000D03*
X131375000Y-91372000D03*
X132175000Y-91372000D03*
X132975000Y-91372000D03*
D26*
X134425000Y-89922000D03*
X134425000Y-89122000D03*
X134425000Y-88322000D03*
X134425000Y-87522000D03*
X134425000Y-86722000D03*
X134425000Y-85922000D03*
X134425000Y-85122000D03*
X134425000Y-84322000D03*
D25*
X132975000Y-82872000D03*
X132175000Y-82872000D03*
X131375000Y-82872000D03*
X130575000Y-82872000D03*
X129775000Y-82872000D03*
X128975000Y-82872000D03*
X128175000Y-82872000D03*
X127375000Y-82872000D03*
D26*
X125925000Y-84322000D03*
X125925000Y-85122000D03*
X125925000Y-85922000D03*
X125925000Y-86722000D03*
X125925000Y-87522000D03*
X125925000Y-88322000D03*
X125925000Y-89122000D03*
X125925000Y-89922000D03*
D27*
X166943500Y-87519000D03*
X164018500Y-87519000D03*
X166943500Y-88019000D03*
X164018500Y-88019000D03*
X166943500Y-88519000D03*
X164018500Y-88519000D03*
X166943500Y-89019000D03*
X164018500Y-89019000D03*
X166943500Y-89519000D03*
X164018500Y-89519000D03*
D28*
X165481000Y-88519000D03*
D29*
X153416000Y-96520000D03*
X153416000Y-95250000D03*
X153416000Y-93980000D03*
X153416000Y-92710000D03*
X153416000Y-91440000D03*
X153416000Y-90170000D03*
X153416000Y-88900000D03*
X147066000Y-88900000D03*
X147066000Y-90170000D03*
X147066000Y-92710000D03*
X147066000Y-93980000D03*
X147066000Y-95250000D03*
X147066000Y-96520000D03*
X147066000Y-91440000D03*
D30*
X129647000Y-94488000D03*
X127147000Y-94488000D03*
D31*
X156138000Y-97139000D03*
X156138000Y-101489000D03*
X157988000Y-97139000D03*
X157988000Y-101489000D03*
D32*
X159938000Y-97139000D03*
X159938000Y-101489000D03*
D31*
X162742000Y-97012000D03*
X162742000Y-101362000D03*
X164592000Y-97012000D03*
X164592000Y-101362000D03*
D32*
X166542000Y-97012000D03*
X166542000Y-101362000D03*
D33*
X139013500Y-108382500D03*
X134100000Y-108089000D03*
D34*
X135382000Y-106704000D03*
X152908000Y-80137000D03*
X151384000Y-84455000D03*
X142621000Y-94361000D03*
X136525000Y-94615000D03*
D33*
X119462000Y-95758000D03*
X127254000Y-86741000D03*
X132969000Y-89154000D03*
X121412000Y-83820000D03*
D34*
X145415000Y-83820000D03*
D33*
X139319000Y-80518000D03*
X145669000Y-77597000D03*
X154686000Y-88900000D03*
X165608000Y-100203000D03*
X159131000Y-100330000D03*
D34*
X171831000Y-85979000D03*
X164084000Y-93218000D03*
X157734000Y-93472000D03*
D33*
X128270000Y-99802000D03*
X124333000Y-80645000D03*
X132080000Y-79248000D03*
X128270000Y-87884000D03*
X123317000Y-99949000D03*
X161036000Y-89027000D03*
X167640000Y-89027000D03*
X121031000Y-76200000D03*
X160020000Y-78105000D03*
X144399000Y-92964000D03*
X144399000Y-90932000D03*
X137795000Y-84328000D03*
X144907000Y-99060000D03*
X155575000Y-106553000D03*
X144907000Y-98298000D03*
X156210000Y-104648000D03*
X144907000Y-97663000D03*
X157353000Y-104140000D03*
X136017000Y-88900000D03*
X145415000Y-107188000D03*
X133096000Y-87503000D03*
X141478000Y-106680000D03*
X143129000Y-90805000D03*
X137160000Y-84836000D03*
X139827000Y-88265000D03*
X132207000Y-84201000D03*
X151638000Y-97282000D03*
X151511000Y-95631000D03*
X150749000Y-95631000D03*
X150749000Y-97282000D03*
D35*
X154924000Y-83293000D02*
X154924000Y-86487000D01*
X154813000Y-86233000D02*
X154813000Y-86487000D01*
X154813000Y-86376000D02*
X154813000Y-86233000D01*
X154924000Y-86487000D02*
X154813000Y-86376000D01*
D36*
X142875000Y-82931000D02*
X143002000Y-82931000D01*
X143002000Y-82931000D02*
X144018000Y-81915000D01*
X143975000Y-84770000D02*
X143063000Y-84770000D01*
X143063000Y-84770000D02*
X142875000Y-84582000D01*
X142875000Y-84582000D02*
X142875000Y-82931000D01*
X142875000Y-82931000D02*
X142875000Y-83058000D01*
X142875000Y-83058000D02*
X143063000Y-82870000D01*
X143063000Y-82870000D02*
X143975000Y-82870000D01*
D35*
X146939000Y-81387000D02*
X144038000Y-81387000D01*
X144038000Y-81387000D02*
X144018000Y-81407000D01*
X144018000Y-81407000D02*
X144018000Y-81915000D01*
X144018000Y-81915000D02*
X144018000Y-82169000D01*
X144018000Y-82169000D02*
X144018000Y-82296000D01*
X146939000Y-81387000D02*
X146939000Y-85598000D01*
X147828000Y-86487000D02*
X153543000Y-86487000D01*
X146939000Y-85598000D02*
X147828000Y-86487000D01*
X167731000Y-80482000D02*
X167731000Y-83947000D01*
X166751000Y-79502000D02*
X167731000Y-80482000D01*
X162179000Y-79502000D02*
X166751000Y-79502000D01*
X160401000Y-81280000D02*
X162179000Y-79502000D01*
X160401000Y-85090000D02*
X160401000Y-81280000D01*
X159004000Y-86487000D02*
X160401000Y-85090000D01*
X153543000Y-86487000D02*
X154813000Y-86487000D01*
X154813000Y-86487000D02*
X159004000Y-86487000D01*
D37*
X166943500Y-87519000D02*
X167116000Y-87519000D01*
X167116000Y-87519000D02*
X167731000Y-86904000D01*
X166943500Y-87519000D02*
X168164000Y-87519000D01*
X168275000Y-87630000D02*
X168275000Y-87757000D01*
X168164000Y-87519000D02*
X168275000Y-87630000D01*
D35*
X167731000Y-83947000D02*
X167731000Y-86904000D01*
X167731000Y-86904000D02*
X167731000Y-87086000D01*
X168402000Y-87757000D02*
X168275000Y-87757000D01*
X168275000Y-87757000D02*
X169311000Y-87757000D01*
X167731000Y-87086000D02*
X168402000Y-87757000D01*
X135255000Y-109704000D02*
X135255000Y-109244000D01*
X135255000Y-109244000D02*
X134100000Y-108089000D01*
X134100000Y-108089000D02*
X132715000Y-106704000D01*
X137795000Y-106704000D02*
X137795000Y-107164000D01*
X137795000Y-107164000D02*
X139013500Y-108382500D01*
X139013500Y-108382500D02*
X140335000Y-109704000D01*
X132715000Y-106704000D02*
X135382000Y-106704000D01*
X135382000Y-106704000D02*
X137795000Y-106704000D01*
X152924000Y-83293000D02*
X152924000Y-80153000D01*
X152924000Y-80153000D02*
X152908000Y-80137000D01*
X152924000Y-83293000D02*
X152546000Y-83293000D01*
X152546000Y-83293000D02*
X151384000Y-84455000D01*
X152924000Y-83293000D02*
X152924000Y-82058000D01*
X152924000Y-82058000D02*
X151257000Y-80391000D01*
X151257000Y-80391000D02*
X149606000Y-80391000D01*
X149606000Y-80391000D02*
X148102000Y-78887000D01*
X148102000Y-78887000D02*
X146939000Y-78887000D01*
X143354000Y-96552000D02*
X143354000Y-95094000D01*
X143354000Y-95094000D02*
X142621000Y-94361000D01*
X136554000Y-96552000D02*
X136554000Y-94644000D01*
X136554000Y-94644000D02*
X136525000Y-94615000D01*
X143354000Y-96552000D02*
X136554000Y-96552000D01*
X138430000Y-92563000D02*
X138430000Y-94676000D01*
X138430000Y-94676000D02*
X136554000Y-96552000D01*
D36*
X153416000Y-91440000D02*
X152146000Y-91440000D01*
X152146000Y-91440000D02*
X152146000Y-89154000D01*
X152146000Y-89154000D02*
X152400000Y-88900000D01*
X152400000Y-88900000D02*
X153416000Y-88900000D01*
X125925000Y-86722000D02*
X127235000Y-86722000D01*
X127235000Y-86722000D02*
X127254000Y-86741000D01*
X134425000Y-89122000D02*
X133001000Y-89122000D01*
X133001000Y-89122000D02*
X132969000Y-89154000D01*
D35*
X121412000Y-85491000D02*
X121412000Y-83820000D01*
X121412000Y-85491000D02*
X118872000Y-85491000D01*
X123444000Y-84602000D02*
X122301000Y-84602000D01*
X122301000Y-84602000D02*
X121412000Y-85491000D01*
D36*
X143975000Y-83820000D02*
X145415000Y-83820000D01*
D35*
X139319000Y-82062000D02*
X139319000Y-80518000D01*
X145669000Y-78740000D02*
X145669000Y-77597000D01*
X144252000Y-78740000D02*
X145669000Y-78740000D01*
X145669000Y-78740000D02*
X146792000Y-78740000D01*
X146792000Y-78740000D02*
X146939000Y-78887000D01*
D36*
X153416000Y-95250000D02*
X152146000Y-95250000D01*
X152400000Y-88900000D02*
X154686000Y-88900000D01*
X152146000Y-89154000D02*
X152400000Y-88900000D01*
X152146000Y-95250000D02*
X152146000Y-91440000D01*
X152146000Y-91440000D02*
X152146000Y-89154000D01*
X166542000Y-101362000D02*
X166542000Y-101137000D01*
X166542000Y-101137000D02*
X165608000Y-100203000D01*
X159938000Y-101489000D02*
X159938000Y-101137000D01*
X159938000Y-101137000D02*
X159131000Y-100330000D01*
D35*
X171811000Y-87757000D02*
X171811000Y-85999000D01*
X171811000Y-85999000D02*
X171831000Y-85979000D01*
X166163000Y-94107000D02*
X164973000Y-94107000D01*
X164084000Y-93218000D02*
X164084000Y-91694000D01*
X164973000Y-94107000D02*
X164084000Y-93218000D01*
X157734000Y-91674000D02*
X157734000Y-93472000D01*
D37*
X129667000Y-99802000D02*
X128270000Y-99802000D01*
X128270000Y-99802000D02*
X127000000Y-99802000D01*
X127000000Y-99802000D02*
X126746000Y-100056000D01*
X126746000Y-100056000D02*
X126746000Y-102890000D01*
D36*
X119462000Y-96393000D02*
X119462000Y-95758000D01*
X119462000Y-95758000D02*
X119462000Y-95123000D01*
D37*
X124281000Y-79225000D02*
X124281000Y-80593000D01*
X124281000Y-80593000D02*
X124333000Y-80645000D01*
X130481000Y-79225000D02*
X132057000Y-79225000D01*
X132057000Y-79225000D02*
X132080000Y-79248000D01*
X126081000Y-79375000D02*
X126081000Y-80615000D01*
X124281000Y-80339000D02*
X124281000Y-79225000D01*
X124587000Y-80645000D02*
X124281000Y-80339000D01*
X126051000Y-80645000D02*
X124587000Y-80645000D01*
X126081000Y-80615000D02*
X126051000Y-80645000D01*
D35*
X166263000Y-91694000D02*
X164084000Y-91694000D01*
X164084000Y-91694000D02*
X162199000Y-91694000D01*
X162199000Y-91694000D02*
X162179000Y-91674000D01*
X166163000Y-94107000D02*
X166163000Y-91794000D01*
X166163000Y-91794000D02*
X165481000Y-91112000D01*
X165481000Y-91112000D02*
X165481000Y-88519000D01*
X157734000Y-91674000D02*
X159893000Y-91674000D01*
X159893000Y-91674000D02*
X162179000Y-91674000D01*
D36*
X138430000Y-90063000D02*
X140228000Y-90063000D01*
X165862000Y-103251000D02*
X168275000Y-105664000D01*
X149098000Y-103251000D02*
X165862000Y-103251000D01*
X145796000Y-99949000D02*
X149098000Y-103251000D01*
X145796000Y-95631000D02*
X145796000Y-99949000D01*
X140228000Y-90063000D02*
X145796000Y-95631000D01*
D37*
X119462000Y-93853000D02*
X120777000Y-93853000D01*
X121132598Y-104593402D02*
X120189000Y-105537000D01*
X121132598Y-94208598D02*
X121132598Y-104593402D01*
X120777000Y-93853000D02*
X121132598Y-94208598D01*
X134493000Y-77517000D02*
X139366000Y-77517000D01*
X140716000Y-80645000D02*
X140716000Y-84770000D01*
X140335000Y-80264000D02*
X140716000Y-80645000D01*
X140335000Y-78486000D02*
X140335000Y-80264000D01*
X139366000Y-77517000D02*
X140335000Y-78486000D01*
D36*
X119462000Y-93853000D02*
X119462000Y-89941000D01*
X119462000Y-89941000D02*
X121412000Y-87991000D01*
D35*
X118872000Y-87991000D02*
X121412000Y-87991000D01*
D36*
X125925000Y-88322000D02*
X121743000Y-88322000D01*
X121743000Y-88322000D02*
X121412000Y-87991000D01*
X134425000Y-89922000D02*
X129292000Y-89922000D01*
X127692000Y-88322000D02*
X125925000Y-88322000D01*
X129292000Y-89922000D02*
X127692000Y-88322000D01*
X134425000Y-89922000D02*
X138289000Y-89922000D01*
X138289000Y-89922000D02*
X138430000Y-90063000D01*
D35*
X138430000Y-90063000D02*
X138430000Y-85451000D01*
X138430000Y-85451000D02*
X139319000Y-84562000D01*
D36*
X141775000Y-84770000D02*
X140716000Y-84770000D01*
X140716000Y-84770000D02*
X139527000Y-84770000D01*
X139527000Y-84770000D02*
X139319000Y-84562000D01*
D37*
X145161000Y-111760000D02*
X146558000Y-111760000D01*
X145161000Y-111760000D02*
X131064000Y-111760000D01*
X131064000Y-111760000D02*
X129413000Y-110109000D01*
X129413000Y-105363000D02*
X129413000Y-110109000D01*
X147955000Y-110363000D02*
X147955000Y-106704000D01*
X146558000Y-111760000D02*
X147955000Y-110363000D01*
X123362000Y-98933000D02*
X123362000Y-99904000D01*
X127159000Y-85122000D02*
X125925000Y-85122000D01*
X128270000Y-86233000D02*
X127159000Y-85122000D01*
X128270000Y-87884000D02*
X128270000Y-86233000D01*
X123362000Y-99904000D02*
X123317000Y-99949000D01*
X124079000Y-105490000D02*
X122936000Y-105490000D01*
X122936000Y-105490000D02*
X122889000Y-105537000D01*
X123362000Y-98933000D02*
X123698000Y-98933000D01*
X123698000Y-98933000D02*
X124714000Y-99949000D01*
X124714000Y-99949000D02*
X124714000Y-105490000D01*
X126746000Y-105390000D02*
X129386000Y-105390000D01*
X129386000Y-105390000D02*
X129413000Y-105363000D01*
X123952000Y-105490000D02*
X124079000Y-105490000D01*
X124079000Y-105490000D02*
X124714000Y-105490000D01*
X124714000Y-105490000D02*
X126646000Y-105490000D01*
X126646000Y-105490000D02*
X126746000Y-105390000D01*
X123362000Y-98933000D02*
X123444000Y-98933000D01*
D36*
X141775000Y-82870000D02*
X141775000Y-78763000D01*
X141775000Y-78763000D02*
X141752000Y-78740000D01*
D37*
X129647000Y-94488000D02*
X129647000Y-97282000D01*
X129647000Y-97282000D02*
X129667000Y-97302000D01*
X128175000Y-91372000D02*
X128175000Y-93016000D01*
X128175000Y-93016000D02*
X129647000Y-94488000D01*
X127375000Y-91372000D02*
X127375000Y-94260000D01*
X127375000Y-94260000D02*
X127000000Y-94635000D01*
X127000000Y-94635000D02*
X127000000Y-97302000D01*
X168763000Y-91694000D02*
X168763000Y-90150000D01*
X168132000Y-89519000D02*
X166943500Y-89519000D01*
X168763000Y-90150000D02*
X168132000Y-89519000D01*
X125925000Y-87522000D02*
X123864000Y-87522000D01*
X123864000Y-87522000D02*
X123444000Y-87102000D01*
D36*
X170815000Y-109704000D02*
X170815000Y-101219000D01*
D37*
X166943500Y-89019000D02*
X167632000Y-89019000D01*
X167632000Y-89019000D02*
X167640000Y-89027000D01*
D36*
X153416000Y-96520000D02*
X147066000Y-96520000D01*
X166542000Y-97012000D02*
X166608000Y-97012000D01*
X166608000Y-97012000D02*
X170815000Y-101219000D01*
X170815000Y-101219000D02*
X170815000Y-106577000D01*
X159938000Y-97139000D02*
X159938000Y-95504000D01*
X159938000Y-95504000D02*
X159893000Y-95504000D01*
X166542000Y-97012000D02*
X166542000Y-96438000D01*
X166542000Y-96438000D02*
X165608000Y-95504000D01*
X165608000Y-95504000D02*
X159893000Y-95504000D01*
X159893000Y-95504000D02*
X155067000Y-95504000D01*
X155458000Y-91450000D02*
X155458000Y-95113000D01*
X154813000Y-96520000D02*
X153416000Y-96520000D01*
X154813000Y-95758000D02*
X154813000Y-96520000D01*
X155458000Y-95113000D02*
X155067000Y-95504000D01*
X155067000Y-95504000D02*
X154813000Y-95758000D01*
X153416000Y-92710000D02*
X154198000Y-92710000D01*
X154198000Y-92710000D02*
X155458000Y-91450000D01*
X155458000Y-91450000D02*
X157734000Y-89174000D01*
D37*
X164018500Y-89019000D02*
X162334000Y-89019000D01*
X162334000Y-89019000D02*
X162179000Y-89174000D01*
X164018500Y-88519000D02*
X162834000Y-88519000D01*
X162834000Y-88519000D02*
X162179000Y-89174000D01*
X164018500Y-88019000D02*
X164018500Y-87519000D01*
D35*
X163231000Y-83947000D02*
X163231000Y-86731500D01*
X163231000Y-86731500D02*
X164018500Y-87519000D01*
D37*
X128031000Y-79432304D02*
X128175000Y-79576304D01*
X128175000Y-79576304D02*
X128175000Y-82491100D01*
X128031000Y-79375000D02*
X128031000Y-79432304D01*
X128175000Y-82491100D02*
X128175000Y-82872000D01*
X127381000Y-79375000D02*
X127551599Y-79545599D01*
X127551599Y-79545599D02*
X127551599Y-80273521D01*
X127551599Y-80273521D02*
X127607479Y-80329401D01*
X127607479Y-80329401D02*
X127755901Y-80329401D01*
X127620599Y-82626401D02*
X127375000Y-82872000D01*
X127755901Y-80329401D02*
X127755901Y-81713177D01*
X127755901Y-81713177D02*
X127620599Y-81848479D01*
X127620599Y-81848479D02*
X127620599Y-82626401D01*
X150483000Y-106565000D02*
X150483000Y-109692000D01*
X150483000Y-109692000D02*
X150495000Y-109704000D01*
X125349000Y-103886000D02*
X125476000Y-104013000D01*
X125349000Y-94107000D02*
X125349000Y-103886000D01*
X125095000Y-93853000D02*
X125349000Y-94107000D01*
X147931000Y-104013000D02*
X150483000Y-106565000D01*
X150483000Y-106565000D02*
X150495000Y-106577000D01*
X125476000Y-104013000D02*
X147931000Y-104013000D01*
X123362000Y-93853000D02*
X125095000Y-93853000D01*
X125925000Y-93023000D02*
X125925000Y-89922000D01*
X125095000Y-93853000D02*
X125925000Y-93023000D01*
X150344000Y-112268000D02*
X151003000Y-112268000D01*
X121539000Y-110236000D02*
X123571000Y-112268000D01*
X123571000Y-112268000D02*
X150344000Y-112268000D01*
X121539000Y-95123000D02*
X121539000Y-110236000D01*
X153035000Y-110236000D02*
X153035000Y-106704000D01*
X151003000Y-112268000D02*
X153035000Y-110236000D01*
X125925000Y-89122000D02*
X124746000Y-89122000D01*
X121539000Y-95123000D02*
X123362000Y-95123000D01*
X121539000Y-92329000D02*
X121539000Y-95123000D01*
X124746000Y-89122000D02*
X121539000Y-92329000D01*
X143354000Y-100552000D02*
X136554000Y-100552000D01*
X129413000Y-102663000D02*
X129493000Y-102663000D01*
X129493000Y-102663000D02*
X131604000Y-100552000D01*
X131604000Y-100552000D02*
X136554000Y-100552000D01*
X170307000Y-94107000D02*
X172720000Y-94107000D01*
X124280000Y-82677000D02*
X125925000Y-84322000D01*
X121539000Y-82677000D02*
X124280000Y-82677000D01*
X121031000Y-82169000D02*
X121539000Y-82677000D01*
X121031000Y-76200000D02*
X121031000Y-82169000D01*
X170815000Y-78105000D02*
X160020000Y-78105000D01*
X173228000Y-80518000D02*
X170815000Y-78105000D01*
X173228000Y-93599000D02*
X173228000Y-80518000D01*
X172720000Y-94107000D02*
X173228000Y-93599000D01*
X166943500Y-88019000D02*
X167394000Y-88019000D01*
X170307000Y-94107000D02*
X168863000Y-94107000D01*
X170561000Y-93853000D02*
X170307000Y-94107000D01*
X170561000Y-89154000D02*
X170561000Y-93853000D01*
X170307000Y-88900000D02*
X170561000Y-89154000D01*
X168275000Y-88900000D02*
X170307000Y-88900000D01*
X167394000Y-88019000D02*
X168275000Y-88900000D01*
X144399000Y-92964000D02*
X146685000Y-95250000D01*
X146685000Y-95250000D02*
X147066000Y-95250000D01*
X134493000Y-80217000D02*
X134493000Y-81026000D01*
X144907000Y-91440000D02*
X147066000Y-91440000D01*
X144399000Y-90932000D02*
X144907000Y-91440000D01*
X134493000Y-81026000D02*
X137795000Y-84328000D01*
X131375000Y-82872000D02*
X131375000Y-81350000D01*
X132508000Y-80217000D02*
X134493000Y-80217000D01*
X131375000Y-81350000D02*
X132508000Y-80217000D01*
X155575000Y-109704000D02*
X155575000Y-106553000D01*
X131375000Y-95688000D02*
X134747000Y-99060000D01*
X134747000Y-99060000D02*
X144907000Y-99060000D01*
X131375000Y-95688000D02*
X131375000Y-91372000D01*
X132175000Y-95853000D02*
X134620000Y-98298000D01*
X134620000Y-98298000D02*
X144907000Y-98298000D01*
X132175000Y-91372000D02*
X132175000Y-95853000D01*
X156210000Y-104648000D02*
X158115000Y-106553000D01*
X158115000Y-106553000D02*
X158115000Y-106704000D01*
X157353000Y-104140000D02*
X159131000Y-104140000D01*
X132975000Y-95891000D02*
X134747000Y-97663000D01*
X134747000Y-97663000D02*
X144907000Y-97663000D01*
X132975000Y-91372000D02*
X132975000Y-95891000D01*
X160655000Y-105664000D02*
X160655000Y-109704000D01*
X159131000Y-104140000D02*
X160655000Y-105664000D01*
X134425000Y-88322000D02*
X135439000Y-88322000D01*
X136017000Y-88900000D02*
X135439000Y-88322000D01*
X145415000Y-107188000D02*
X145415000Y-109704000D01*
X133115000Y-87522000D02*
X133096000Y-87503000D01*
X134425000Y-87522000D02*
X133115000Y-87522000D01*
X141502000Y-106704000D02*
X142875000Y-106704000D01*
X141478000Y-106680000D02*
X141502000Y-106704000D01*
X132975000Y-82872000D02*
X135196000Y-82872000D01*
X146304000Y-93980000D02*
X147066000Y-93980000D01*
X143129000Y-90805000D02*
X146304000Y-93980000D01*
X135196000Y-82872000D02*
X137160000Y-84836000D01*
X132175000Y-82872000D02*
X132175000Y-84169000D01*
X141732000Y-90170000D02*
X147066000Y-90170000D01*
X139827000Y-88265000D02*
X141732000Y-90170000D01*
X132175000Y-84169000D02*
X132207000Y-84201000D01*
X157988000Y-101489000D02*
X157988000Y-101219000D01*
X157988000Y-101219000D02*
X156718000Y-99949000D01*
X156718000Y-99949000D02*
X154305000Y-99949000D01*
X154305000Y-99949000D02*
X151638000Y-97282000D01*
X151511000Y-95631000D02*
X148336000Y-92456000D01*
X148336000Y-92456000D02*
X148336000Y-89535000D01*
X148336000Y-89535000D02*
X147701000Y-88900000D01*
X147701000Y-88900000D02*
X147066000Y-88900000D01*
X156138000Y-101489000D02*
X154956000Y-101489000D01*
X147828000Y-92710000D02*
X147066000Y-92710000D01*
X150749000Y-95631000D02*
X147828000Y-92710000D01*
X154956000Y-101489000D02*
X150749000Y-97282000D01*
X162742000Y-101362000D02*
X162195000Y-101362000D01*
X156138000Y-98734000D02*
X156138000Y-97139000D01*
X156718000Y-99314000D02*
X156138000Y-98734000D01*
X160147000Y-99314000D02*
X156718000Y-99314000D01*
X162195000Y-101362000D02*
X160147000Y-99314000D01*
X157988000Y-97139000D02*
X157988000Y-98298000D01*
X162036000Y-98806000D02*
X164592000Y-101362000D01*
X158496000Y-98806000D02*
X162036000Y-98806000D01*
X157988000Y-98298000D02*
X158496000Y-98806000D01*
X162742000Y-97012000D02*
X162742000Y-97210000D01*
X162742000Y-97210000D02*
X164211000Y-98679000D01*
X164211000Y-98679000D02*
X166624000Y-98679000D01*
X166624000Y-98679000D02*
X169291000Y-101346000D01*
X169291000Y-101346000D02*
X169291000Y-111887000D01*
X169291000Y-111887000D02*
X169037000Y-112141000D01*
X169037000Y-112141000D02*
X167132000Y-112141000D01*
X167132000Y-112141000D02*
X165735000Y-110744000D01*
X163195000Y-106704000D02*
X163195000Y-109577000D01*
X163195000Y-112141000D02*
X163703000Y-112649000D01*
X163703000Y-112649000D02*
X169291000Y-112649000D01*
X169291000Y-112649000D02*
X169799000Y-112141000D01*
X169799000Y-112141000D02*
X169799000Y-101092000D01*
X169799000Y-101092000D02*
X166878000Y-98171000D01*
X166878000Y-98171000D02*
X165751000Y-98171000D01*
X165751000Y-98171000D02*
X164592000Y-97012000D01*
X163195000Y-109577000D02*
X163195000Y-112141000D01*
G36*
X163208408Y-88448796D02*
X163239454Y-88488515D01*
X163283507Y-88513026D01*
X163322000Y-88519000D01*
X163477939Y-88519000D01*
X163618500Y-88547464D01*
X163830000Y-88547464D01*
X163830000Y-88990536D01*
X163618500Y-88990536D01*
X163477310Y-89017103D01*
X163347635Y-89100546D01*
X163321018Y-89139501D01*
X163265204Y-89167408D01*
X163225485Y-89198454D01*
X163200974Y-89242507D01*
X163195000Y-89281000D01*
X163195000Y-89662000D01*
X156337000Y-89662000D01*
X156337000Y-87757000D01*
X162862510Y-87757000D01*
X163208408Y-88448796D01*
X163208408Y-88448796D01*
G37*
X163208408Y-88448796D02*
X163239454Y-88488515D01*
X163283507Y-88513026D01*
X163322000Y-88519000D01*
X163477939Y-88519000D01*
X163618500Y-88547464D01*
X163830000Y-88547464D01*
X163830000Y-88990536D01*
X163618500Y-88990536D01*
X163477310Y-89017103D01*
X163347635Y-89100546D01*
X163321018Y-89139501D01*
X163265204Y-89167408D01*
X163225485Y-89198454D01*
X163200974Y-89242507D01*
X163195000Y-89281000D01*
X163195000Y-89662000D01*
X156337000Y-89662000D01*
X156337000Y-87757000D01*
X162862510Y-87757000D01*
X163208408Y-88448796D01*
G36*
X163830000Y-86741000D02*
X163840006Y-86790410D01*
X163867197Y-86830803D01*
X164325625Y-87289231D01*
X164323141Y-87292866D01*
X164292536Y-87444000D01*
X164292536Y-87990536D01*
X163618500Y-87990536D01*
X163609782Y-87992176D01*
X163576000Y-87958394D01*
X163576000Y-87757000D01*
X163565994Y-87707590D01*
X163538803Y-87667197D01*
X162687000Y-86815394D01*
X162687000Y-84963000D01*
X163830000Y-84963000D01*
X163830000Y-86741000D01*
X163830000Y-86741000D01*
G37*
X163830000Y-86741000D02*
X163840006Y-86790410D01*
X163867197Y-86830803D01*
X164325625Y-87289231D01*
X164323141Y-87292866D01*
X164292536Y-87444000D01*
X164292536Y-87990536D01*
X163618500Y-87990536D01*
X163609782Y-87992176D01*
X163576000Y-87958394D01*
X163576000Y-87757000D01*
X163565994Y-87707590D01*
X163538803Y-87667197D01*
X162687000Y-86815394D01*
X162687000Y-84963000D01*
X163830000Y-84963000D01*
X163830000Y-86741000D01*
M02*
